<?xml version="1.0" encoding="utf-8"?>
<!-- Generator: Adobe Illustrator 22.0.0, SVG Export Plug-In . SVG Version: 6.00 Build 0)  -->
<svg version="1.1" id="Layer_1" xmlns="http://www.w3.org/2000/svg" xmlns:xlink="http://www.w3.org/1999/xlink" x="0px" y="0px"
	 viewBox="0 0 577 167.8" style="enable-background:new 0 0 577 167.8;" xml:space="preserve">
<style type="text/css">
	.st0{fill:none;stroke:#A88E5A;stroke-width:2;stroke-miterlimit:10;}
</style>
<path class="st0" d="M50.5,55.4c11.7,0,22.5,1.9,31.1,5.2c9.1-14,30.4-23.8,55.2-23.8c20.8,0,39.2,6.9,49.9,17.4
	c4.2-16.1,23.5-28.3,46.7-28.3c13.5,0,25.7,4.1,34.3,10.8C278.9,30,293,26,308.3,26c9.7,0,19,1.6,27.3,4.5
	c8.5-15.3,26.7-26.9,48.7-29.2c29.6-3.1,55.7,11.9,61.3,34.1c6.1-2.1,12.9-3.2,19.9-3.2c19.2,0,36,8.4,45.3,21
	c6-1.8,12.6-2.9,19.6-2.9c25.5,0,46.1,13.4,46.1,30s-20.6,30-46.1,30c-9.5,0-18.3-1.9-25.6-5.1c-9.7,8.8-23.7,14.4-39.3,14.4
	c-2.2,0-4.4-0.1-6.6-0.3c-2.8,27.5-43.2,49.4-92.6,49.4c-44.1,0-81-17.4-90.4-40.8c-8.1,21.8-38.3,38-74.2,38
	c-39.4,0-71.8-19.4-75.9-44.4c-7.8,3.1-16.9,4.9-26.7,4.9c-21.7,0-40.1-8.8-47.5-21.2c-0.4,0-0.8,0-1.2,0c-28.2,0-51-11.1-51-24.9
	S22.3,55.4,50.5,55.4z"/>
</svg>
