<?xml version="1.0" encoding="utf-8"?>
<!-- Generator: Adobe Illustrator 23.0.1, SVG Export Plug-In . SVG Version: 6.00 Build 0)  -->
<svg version="1.1" id="Layer_1" xmlns="http://www.w3.org/2000/svg" xmlns:xlink="http://www.w3.org/1999/xlink" x="0px" y="0px"
	 viewBox="0 0 514.1 325.6" style="enable-background:new 0 0 514.1 325.6;" xml:space="preserve">
<style type="text/css">
	.st0{fill:#FFFFFF;}
	.st1{fill:#556172;stroke:#FFFFFF;stroke-miterlimit:10;}
	.st2{fill:#FFFFFF;stroke:#FFFFFF;stroke-miterlimit:10;}
	.st3{fill:#E5E1D8;}
</style>
<g>
	<g>
		<path class="st0" d="M190.2,135.8c-7.5-5.7-16.1,2.8-10.3,10.3C187.5,151.9,196,143.3,190.2,135.8z M185,144.8
			c-2.1,0-3.8-1.7-3.8-3.8s1.7-3.8,3.8-3.8s3.8,1.7,3.8,3.8S187.1,144.8,185,144.8z"/>
		<rect x="181.8" y="120.5" class="st1" width="6.6" height="5.1"/>
		<rect x="182.9" y="125.6" class="st1" width="4.4" height="8.7"/>
		<path class="st1" d="M185.3,140.9h-0.4c-0.4,0-0.7-0.3-0.7-0.7V135c0-0.4,0.3-0.7,0.7-0.7h0.4c0.4,0,0.7,0.3,0.7,0.7v5.3
			C185.9,140.7,185.6,140.9,185.3,140.9z"/>
		<polyline class="st1" points="206.6,131.8 200.8,119.3 194.8,119.3 203.2,133.3 		"/>
		<line class="st1" x1="203.3" y1="124.7" x2="198" y2="124.7"/>
		<rect x="269.5" y="115.8" class="st1" width="7" height="9.5"/>
		<rect x="271.5" y="125.2" class="st1" width="2.9" height="10"/>
		<path class="st0" d="M277.7,134.9c-6.5-4.9-13.8,2.4-8.9,8.9C275.3,148.7,282.6,141.4,277.7,134.9z M273.2,142.6
			c-1.8,0-3.3-1.5-3.3-3.3c0-1.8,1.5-3.3,3.3-3.3s3.3,1.5,3.3,3.3C276.4,141.1,275,142.6,273.2,142.6z"/>
		<path class="st0" d="M207.6,131.7c-3.9,0-7,3.2-7,7s3.2,7,7,7s7-3.2,7-7S211.5,131.7,207.6,131.7z M207.5,142.6
			c-2.1,0-3.8-1.7-3.8-3.8c0-2.1,1.7-3.8,3.8-3.8s3.8,1.7,3.8,3.8C211.3,140.9,209.6,142.6,207.5,142.6z"/>
		<path class="st1" d="M34.3,36.1h14.5c0.3,0,0.6,0.2,0.7,0.4L72,74.9c0.1,0.2,0.3,0.3,0.5,0.4l48.3,12.2l75.6-5.2
			c0,0,42.9-19.2,44.4-19.6c1.5-0.4,28.6-4.7,29.2-0.1c0,2.2-36.1,22.2-36.1,22.2s12.6,5.6,15.7,9.8c13.4,1,33.4,1,39.2,5.8
			c6.5,0.7,10.4,2.4,10.4,4.7c0,2.4-10.4,4.5-10.4,4.5s-3.6,7-27.3,8.5c-23.7,1.5-117.9,3.9-119.2,3.8c-1.3-0.1-88.5-13.6-91-15.3
			c-1.9-1.3-9.9-7.1-13.8-9.9c-0.7-0.5-0.3-1.5,0.5-1.5h0c0.5,0,0.9-0.4,0.8-0.9l-5.2-57.2C33.4,36.6,33.8,36.1,34.3,36.1z"/>
		<line class="st2" x1="120.9" y1="87.5" x2="38.5" y2="94.9"/>
		<path class="st1" d="M143.3,105l-39.7,46.3c-1.1,1.3-0.4,3.3,1.3,3.5l16.6,2.5c0.6,0.1,1.1-0.1,1.6-0.4l65.2-47.3"/>
		<path class="st2" d="M232.4,84c-2.2,2.2-2.3,4.9-2.2,5.9c0,0.2,0.1,0.4,0.3,0.6l7.9,7.3c0.2,0.2,0.6,0.3,0.9,0.2l10.3-3.4
			c0,0-5.6-4.5-7.9-5.8C240,87.8,232.4,84,232.4,84z"/>
		<path class="st2" d="M148,100.2h-9.3c-0.7,0-1.2-0.5-1.2-1.2v-5.6c0-0.7,0.5-1.2,1.2-1.2h9.3c0.7,0,1.2,0.5,1.2,1.2V99
			C149.2,99.7,148.6,100.2,148,100.2z"/>
		<path class="st2" d="M163.4,100.2h-9.3c-0.7,0-1.2-0.5-1.2-1.2v-5.6c0-0.7,0.5-1.2,1.2-1.2h9.3c0.7,0,1.2,0.5,1.2,1.2V99
			C164.6,99.7,164.1,100.2,163.4,100.2z"/>
		<path class="st2" d="M178.9,100.2h-9.3c-0.7,0-1.2-0.5-1.2-1.2v-5.6c0-0.7,0.5-1.2,1.2-1.2h9.3c0.7,0,1.2,0.5,1.2,1.2V99
			C180.1,99.7,179.5,100.2,178.9,100.2z"/>
		<path class="st2" d="M194.3,100.2H185c-0.7,0-1.2-0.5-1.2-1.2v-5.6c0-0.7,0.5-1.2,1.2-1.2h9.3c0.7,0,1.2,0.5,1.2,1.2V99
			C195.5,99.7,195,100.2,194.3,100.2z"/>
		<path class="st2" d="M209.8,100.2h-9.3c-0.7,0-1.2-0.5-1.2-1.2v-5.6c0-0.7,0.5-1.2,1.2-1.2h9.3c0.7,0,1.2,0.5,1.2,1.2V99
			C210.9,99.7,210.4,100.2,209.8,100.2z"/>
		<path class="st2" d="M219.4,92.8v6c0,0.5,0.4,0.9,0.9,0.8l11.5-0.4c0.7,0,1.1-0.9,0.6-1.4l-7.5-7.5c-0.3-0.3-0.6-0.3-1-0.2l-4,1.8
			C219.6,92.1,219.4,92.4,219.4,92.8z"/>
		<path class="st1" d="M214.7,111.2L227,85c0.1-0.3,0.4-0.5,0.8-0.5h3.4c0.6,0,1,0.6,0.8,1.2l-11.1,26.2c-0.1,0.3-0.4,0.5-0.8,0.5
			h-4.5C214.9,112.4,214.5,111.8,214.7,111.2z"/>
		<path class="st2" d="M235.2,84.5h-12c-0.7,0-1.2-0.5-1.2-1.2v-1.2c0-0.7,0.5-1.2,1.2-1.2h12c0.7,0,1.2,0.5,1.2,1.2v1.2
			C236.4,84,235.9,84.5,235.2,84.5z"/>
		<line class="st2" x1="288.7" y1="100.4" x2="288.7" y2="109.6"/>
	</g>
	<path class="st3" d="M264.5,229.4c0.1-0.7,0.2-1.4,0.2-2.2c0-13.7-18.4-24.8-41.1-24.8c-3.2,0-6.3,0.2-9.2,0.6
		c-9.1-11.9-29-20.1-52.1-20.1c-28.8,0-52.7,12.9-56.7,29.6c-0.1,0-0.2,0-0.3,0C73.6,212.5,48,228,48,247.2s25.7,34.6,57.4,34.6
		c5.8,0,11.4-0.5,16.7-1.5c10.7,11.1,30.6,18.5,53.3,18.5c29,0,53.3-12.1,59.9-28.4c6.5,3,14.6,4.8,23.4,4.8
		c21.1,0,38.2-10.3,38.2-23.1C296.9,240.7,282.8,231.1,264.5,229.4z"/>
	<line class="st1" x1="353.5" y1="104.7" x2="372.2" y2="104.7"/>
	<line class="st1" x1="353.5" y1="224.7" x2="372.2" y2="224.9"/>
	<line class="st1" x1="362.9" y1="105.4" x2="362.9" y2="225.2"/>
	<g>
		<g>
			<path class="st0" d="M389.4,182.8c-0.8-0.6-1.2-1.5-1.2-2.6c0-0.7,0.2-1.3,0.6-1.9s0.9-0.9,1.6-1.1c-0.6-0.2-1.1-0.6-1.4-1
				c-0.3-0.5-0.5-1-0.5-1.6c0-1.1,0.4-1.9,1.1-2.6c0.7-0.6,1.9-0.9,3.3-0.9c1.5,0,2.6,0.3,3.3,0.9s1.1,1.5,1.1,2.6
				c0,0.6-0.2,1.2-0.5,1.7c-0.3,0.5-0.8,0.9-1.5,1.1c0.8,0.2,1.3,0.6,1.7,1c0.4,0.5,0.5,1.1,0.5,1.8c0,1.2-0.4,2-1.2,2.6
				s-2,0.9-3.6,0.9S390.2,183.3,389.4,182.8z M395.1,181.6c0.5-0.3,0.7-0.8,0.7-1.5c0-0.6-0.2-1-0.5-1.3c-0.3-0.3-0.8-0.5-1.6-0.6
				l-1.6-0.3c-0.7,0.2-1.2,0.4-1.6,0.7c-0.4,0.3-0.5,0.8-0.5,1.5c0,0.7,0.2,1.2,0.7,1.5c0.5,0.3,1.2,0.5,2.2,0.5
				C394,182,394.7,181.9,395.1,181.6z M395.1,175.9c0.3-0.3,0.5-0.8,0.5-1.4c0-1.3-0.8-1.9-2.5-1.9c-1.7,0-2.5,0.6-2.5,1.9
				c0,0.5,0.1,0.9,0.4,1.2c0.3,0.3,0.7,0.5,1.3,0.6l1.3,0.3C394.2,176.5,394.7,176.2,395.1,175.9z"/>
			<path class="st0" d="M401.4,182.1h1.8l-0.9,3.6h-1.5L401.4,182.1z"/>
			<path class="st0" d="M407.5,182.2c-0.9-1.1-1.3-2.6-1.3-4.7c0-2.1,0.4-3.7,1.3-4.8s2.2-1.6,4.1-1.6c1.9,0,3.3,0.5,4.1,1.6
				c0.8,1.1,1.3,2.7,1.3,4.8c0,2.1-0.4,3.6-1.3,4.7s-2.2,1.6-4.1,1.6C409.7,183.8,408.4,183.3,407.5,182.2z M414.1,180.9
				c0.5-0.8,0.8-1.9,0.8-3.4c0-1.6-0.2-2.8-0.7-3.5s-1.3-1.2-2.5-1.2c-1.2,0-2.1,0.4-2.5,1.2c-0.5,0.8-0.7,2-0.7,3.5
				c0,1.5,0.3,2.6,0.8,3.4c0.5,0.8,1.3,1.1,2.5,1.1C412.8,182,413.6,181.6,414.1,180.9z"/>
			<path class="st0" d="M421.3,182.2c-0.9-1.1-1.3-2.6-1.3-4.7c0-2.1,0.4-3.7,1.3-4.8s2.2-1.6,4.1-1.6c1.9,0,3.3,0.5,4.1,1.6
				c0.8,1.1,1.3,2.7,1.3,4.8c0,2.1-0.4,3.6-1.3,4.7s-2.2,1.6-4.1,1.6C423.5,183.8,422.1,183.3,421.3,182.2z M427.9,180.9
				c0.5-0.8,0.8-1.9,0.8-3.4c0-1.6-0.2-2.8-0.7-3.5s-1.3-1.2-2.5-1.2c-1.2,0-2.1,0.4-2.5,1.2c-0.5,0.8-0.7,2-0.7,3.5
				c0,1.5,0.3,2.6,0.8,3.4c0.5,0.8,1.3,1.1,2.5,1.1C426.6,182,427.4,181.6,427.9,180.9z"/>
			<path class="st0" d="M435.1,182.2c-0.9-1.1-1.3-2.6-1.3-4.7c0-2.1,0.4-3.7,1.3-4.8s2.2-1.6,4.1-1.6c1.9,0,3.3,0.5,4.1,1.6
				c0.8,1.1,1.3,2.7,1.3,4.8c0,2.1-0.4,3.6-1.3,4.7s-2.2,1.6-4.1,1.6C437.3,183.8,435.9,183.3,435.1,182.2z M441.7,180.9
				c0.5-0.8,0.8-1.9,0.8-3.4c0-1.6-0.2-2.8-0.7-3.5s-1.3-1.2-2.5-1.2c-1.2,0-2.1,0.4-2.5,1.2c-0.5,0.8-0.7,2-0.7,3.5
				c0,1.5,0.3,2.6,0.8,3.4c0.5,0.8,1.3,1.1,2.5,1.1C440.3,182,441.2,181.6,441.7,180.9z"/>
			<path class="st0" d="M455.9,173.2h2l1.5,7.3l1.9-5.9v-1.5h1.5l2.1,7.3l2.1-10.4h2l-2.9,13.3h-1.9l-1.9-6.5l-2.1,6.5h-1.9
				L455.9,173.2z"/>
			<path class="st0" d="M464.2,185.9H463l0.1-1.3h2.9v3.7h-1.8V185.9z"/>
			<path class="st0" d="M472.3,182.4c-0.8-0.9-1.1-2.1-1.1-3.9c0-1.8,0.3-3.1,0.9-4.1s1.4-1.4,2.5-1.4c0.5,0,0.9,0.1,1.2,0.2
				c0.3,0.2,0.6,0.4,0.8,0.7c0.3-0.3,0.6-0.5,1-0.7s0.9-0.3,1.3-0.3c0.8,0,1.4,0.2,1.8,0.7c0.4,0.5,0.6,1.2,0.6,2v7.7h-2.1v-7.4
				c0-0.5-0.1-0.9-0.2-1.1s-0.4-0.3-0.8-0.3c-0.3,0-0.5,0.1-0.7,0.2c-0.2,0.1-0.4,0.4-0.5,0.7H476c-0.2-0.3-0.3-0.5-0.5-0.7
				c-0.2-0.1-0.4-0.2-0.7-0.2c-0.6,0-1.1,0.3-1.3,1c-0.2,0.6-0.4,1.6-0.4,2.8c0,1.3,0.2,2.2,0.6,2.7c0.4,0.5,1.1,0.8,1.9,0.8
				c0.6,0,1,0,1.3-0.2v1.6c-0.4,0.2-1,0.2-1.7,0.2C474.1,183.6,473.1,183.2,472.3,182.4z"/>
		</g>
	</g>
	<line class="st1" x1="55.5" y1="135.8" x2="55.5" y2="142.8"/>
	<line class="st1" x1="85" y1="150.8" x2="85" y2="157.8"/>
	<line class="st1" x1="98" y1="193.8" x2="98" y2="200.8"/>
	<line class="st1" x1="70" y1="178.8" x2="70" y2="185.8"/>
	<line class="st1" x1="142" y1="164.8" x2="142" y2="171.8"/>
	<line class="st1" x1="185" y1="164.8" x2="185" y2="171.8"/>
	<line class="st1" x1="228" y1="179.8" x2="228" y2="186.8"/>
	<line class="st1" x1="250" y1="150.8" x2="250" y2="157.8"/>
	<line class="st1" x1="271" y1="186.8" x2="271" y2="193.8"/>
</g>
</svg>
