<?xml version="1.0" encoding="utf-8"?>
<!-- Generator: Adobe Illustrator 23.0.1, SVG Export Plug-In . SVG Version: 6.00 Build 0)  -->
<svg version="1.1" id="Layer_1" xmlns="http://www.w3.org/2000/svg" xmlns:xlink="http://www.w3.org/1999/xlink" x="0px" y="0px"
	 viewBox="0 0 357.8 302.6" style="enable-background:new 0 0 357.8 302.6;" xml:space="preserve">
<style type="text/css">
	.st0{fill:none;stroke:#FFFFFF;stroke-miterlimit:10;}
	.st1{fill:#556172;stroke:#FFFFFF;stroke-miterlimit:10;}
	.st2{fill:#E5E1D8;}
	.st3{fill:#FFFFFF;stroke:#556172;stroke-miterlimit:10;}
	.st4{fill:#FFFFFF;}
</style>
<circle class="st0" cx="202" cy="150.1" r="110.6"/>
<circle class="st1" cx="202" cy="150.7" r="58.7"/>
<g>
	<line class="st0" x1="128.2" y1="150.4" x2="157.3" y2="150.4"/>
	<line class="st0" x1="246.8" y1="150.4" x2="275.9" y2="150.4"/>
</g>
<g>
	<line class="st0" x1="202" y1="224.3" x2="202" y2="195.2"/>
	<line class="st0" x1="202" y1="105.6" x2="202" y2="76.5"/>
</g>
<path class="st2" d="M100.5,108.4V97.8L64.1,70.7V53.6c0,0-6-12.4-8.8-12.4c-2.8,0-8.5,12.4-8.5,12.4v17.1L10.4,97.8v10.6l36.4-14.3
	l1.1,24.9l-9.9,5.7v8.5l17.7-7.8l17.3,7.8v-8.5L63,119l1.1-24.9L100.5,108.4z"/>
<path class="st2" d="M104.5,234.8v-10.6l-36.4-27.1v-17.1c0,0-6-12.4-8.8-12.4c-2.8,0-8.5,12.4-8.5,12.4v17.1l-36.4,27.1v10.6
	l36.4-14.3l1.1,24.9l-9.9,5.7v8.5l17.7-7.8l17.3,7.8v-8.5l-9.9-5.7l1.1-24.9L104.5,234.8z"/>
<path class="st0" d="M93,65.6c25.2-32.3,64.6-53.1,108.7-53.1c76.1,0,137.9,61.7,137.9,137.9s-61.7,137.9-137.9,137.9
	c-28.9,0-55.7-8.9-77.9-24.1"/>
<polygon class="st3" points="114.6,253.5 119.6,270.9 123.8,264.1 131.1,260.9 "/>
<g>
	<g>
		<path class="st4" d="M180.4,135.6h2.2l1.7,8.1l2.1-6.5v-1.6h1.6l2.3,8.1l1.6-8.1h2.2l-2.6,11.3h-2.1l-2.1-7.2l-2.3,7.2h-2.1
			L180.4,135.6z"/>
		<path class="st4" d="M184,132.3h4.1v-1.7h1.7v1.7h1.3v-1.7h1.7v3.3h-8.8L184,132.3z"/>
		<path class="st4" d="M189.4,127.8h-1.3v-1.5h2.8v1.6h3.2l-0.1,1.5h-4.6V127.8z"/>
		<path class="st4" d="M198.8,146.1c-0.7-0.7-1-1.7-1-3v-7.4h2.3v7.3c0,0.8,0.2,1.4,0.6,1.8s1,0.6,1.8,0.6c0.6,0,1.2-0.1,1.7-0.4
			s1-0.6,1.4-1v-8.4h2.3v11.3h-2.1l-0.1-1.2c-1.1,1-2.5,1.4-4,1.4C200.5,147.2,199.5,146.8,198.8,146.1z"/>
		<path class="st4" d="M212.1,135.6h2.1l0.1,1.2c1.1-1,2.5-1.4,4-1.4c1.2,0,2.1,0.4,2.8,1.1c0.7,0.7,1,1.7,1,3v7.5h-2.3v-7.4
			c0-0.8-0.2-1.4-0.6-1.8s-1-0.6-1.8-0.6c-0.6,0-1.2,0.1-1.7,0.4s-1,0.6-1.4,1v8.3h-2.3V135.6z"/>
		<path class="st4" d="M213.4,132.3h6.8v-1.7h1.9v3.3h-8.8L213.4,132.3z"/>
		<path class="st4" d="M220.2,126.6h1.9v2.9h-1.9V126.6z"/>
		<path class="st4" d="M160.3,170v-9.2h2.3v8.6c0,0.3,0.1,0.6,0.2,0.7c0.1,0.2,0.4,0.2,0.7,0.2h1v1.8h-2
			C161.1,172.1,160.3,171.4,160.3,170z"/>
		<path class="st4" d="M169.6,171.2c-0.9-0.8-1.4-1.9-1.4-3.5v-6.9h2.3v7c0,0.9,0.2,1.6,0.7,2c0.5,0.4,1.2,0.7,2.2,0.7
			c1,0,1.7-0.2,2.2-0.7c0.5-0.4,0.7-1.1,0.7-2v-10.4h2.3v10.3c0,1.5-0.4,2.7-1.3,3.5c-0.9,0.8-2.2,1.2-3.8,1.2
			C171.8,172.4,170.5,172,169.6,171.2z"/>
		<path class="st4" d="M170,157.1h-1.6v-1.6h3.2v1.9h3.4l-0.1,1.6H170V157.1z"/>
		<path class="st4" d="M187.2,165c0-0.6-0.1-1.1-0.2-1.5c-0.1-0.4-0.4-0.6-0.7-0.8c-0.4-0.2-0.9-0.3-1.5-0.3c-0.4,0-0.9,0-1.5,0.1
			c-0.5,0.1-1,0.2-1.4,0.4v-1.8c0.4-0.2,1-0.3,1.6-0.5c0.6-0.1,1.2-0.2,1.8-0.2c1.5,0,2.6,0.3,3.3,1c0.7,0.7,1,1.7,1,3.1v7.4h-2.3
			V165z"/>
		<path class="st4" d="M193.7,160.8h2.3v3.6h3.3c0.8,0,1.4-0.2,1.7-0.5s0.5-0.9,0.5-1.6v-1.5h2.3v1.4c0,1.6-0.6,2.6-1.7,3
			c0.6,0.2,1,0.5,1.3,1c0.2,0.5,0.3,1,0.3,1.7v4.2h-2.3v-3.9c0-0.8-0.2-1.4-0.5-1.7c-0.3-0.3-0.9-0.5-1.7-0.5H196v6h-2.3V160.8z"/>
		<path class="st4" d="M211.9,172c-0.6-0.2-1.2-0.6-1.8-1.1l-0.1,1.2h-2.1v-11.3h2.3v8.4c0.4,0.4,0.9,0.7,1.4,1s1.1,0.4,1.7,0.4
			c0.8,0,1.4-0.2,1.8-0.6s0.6-1,0.6-1.8v-7.3h2.3v7.4c0,1.3-0.3,2.3-1,3c-0.7,0.7-1.6,1.1-2.8,1.1
			C213.3,172.4,212.5,172.2,211.9,172z"/>
		<path class="st4" d="M226.5,165c0-0.6-0.1-1.1-0.2-1.5c-0.1-0.4-0.4-0.6-0.7-0.8c-0.4-0.2-0.9-0.3-1.5-0.3c-0.4,0-0.9,0-1.5,0.1
			c-0.5,0.1-1,0.2-1.4,0.4v-1.8c0.4-0.2,1-0.3,1.6-0.5c0.6-0.1,1.2-0.2,1.8-0.2c1.5,0,2.6,0.3,3.3,1c0.7,0.7,1,1.7,1,3.1v7.4h-2.3
			V165z"/>
		<path class="st4" d="M233.9,171.5c-0.9-0.6-1.4-1.5-1.4-2.7c0-0.6,0.1-1.1,0.4-1.5c0.3-0.4,0.7-0.8,1.2-1
			c-0.5-0.2-0.8-0.5-1.1-0.9c-0.3-0.4-0.4-0.9-0.4-1.5c0-1,0.3-1.9,1-2.4c0.6-0.6,1.5-0.9,2.6-0.9c0.7,0,1.3,0.1,1.8,0.3v1.7
			c-0.4-0.1-0.9-0.2-1.4-0.2c-1.2,0-1.8,0.5-1.8,1.4c0,1,0.7,1.5,2,1.5h1.2l0.1,1.7h-1.3c-1.3,0-2,0.6-2,1.7c0,0.6,0.2,1,0.7,1.3
			c0.5,0.3,1.2,0.4,2.2,0.4s1.7-0.2,2.2-0.6c0.5-0.4,0.7-1,0.7-1.8v-7.3h2.3v7c0,1.5-0.4,2.7-1.3,3.4c-0.9,0.7-2.1,1.1-3.8,1.1
			C236.1,172.4,234.8,172.1,233.9,171.5z"/>
	</g>
</g>
</svg>
