<?xml version="1.0" encoding="utf-8"?>
<!-- Generator: Adobe Illustrator 23.0.1, SVG Export Plug-In . SVG Version: 6.00 Build 0)  -->
<svg version="1.1" id="Layer_1" xmlns="http://www.w3.org/2000/svg" xmlns:xlink="http://www.w3.org/1999/xlink" x="0px" y="0px"
	 viewBox="0 0 114.2 124.4" style="enable-background:new 0 0 114.2 124.4;" xml:space="preserve">
<style type="text/css">
	.st0{fill:none;stroke:#FFFFFF;stroke-miterlimit:10;}
	.st1{fill:#E5E1D8;}
</style>
<g>
	<path class="st0" d="M88.1,73c-1.2-7.7-6.9-30.8-33.7-66.5C27.5,42.2,21.8,65.3,20.6,73c-0.4,2.1-0.6,4.3-0.6,6.5
		c0,19,15.4,34.3,34.3,34.3s34.3-15.4,34.3-34.3C88.7,77.2,88.5,75.1,88.1,73z"/>
	<g>
		<g>
			<path class="st1" d="M59.3,77.8c0,1.1,0.1,2,0.2,2.6c0.1,0.6,0.4,1,0.7,1.4s0.8,0.6,1.4,0.8c0.6,0.2,1.4,0.4,2.3,0.5
				c0.9,0.1,2.1,0.2,3.6,0.2v2.1H45.8v-2.1c2.2-0.1,3.7-0.2,4.6-0.4c0.9-0.2,1.6-0.4,2.1-0.7c0.5-0.3,0.8-0.8,1.1-1.4
				c0.2-0.6,0.3-1.6,0.3-3V54c0-0.8-0.1-1.4-0.4-1.7c-0.3-0.4-0.7-0.5-1.2-0.5c-0.6,0-1.5,0.3-2.7,1c-1.2,0.6-2.6,1.5-4.3,2.7
				l-1.3-2.3L57.9,45h1.6c-0.1,1.9-0.2,4.5-0.2,7.8V77.8z"/>
		</g>
	</g>
</g>
</svg>
