<?xml version="1.0" encoding="utf-8"?>
<!-- Generator: Adobe Illustrator 22.0.0, SVG Export Plug-In . SVG Version: 6.00 Build 0)  -->
<svg version="1.1" id="Layer_1" xmlns="http://www.w3.org/2000/svg" xmlns:xlink="http://www.w3.org/1999/xlink" x="0px" y="0px"
	 viewBox="0 0 70 110" style="enable-background:new 0 0 70 110;" xml:space="preserve">
<style type="text/css">
	.st0{fill:none;stroke:#FFFFFF;stroke-miterlimit:10;}
	.st1{fill:#E5E1D8;}
</style>
<g>
	<path class="st0" d="M69.1,68c-1.2-7.7-6.9-30.8-33.7-66.5C8.5,37.2,2.8,60.3,1.6,68C1.2,70.1,1,72.3,1,74.5
		c0,19,15.4,34.3,34.3,34.3s34.3-15.4,34.3-34.3C69.7,72.2,69.5,70.1,69.1,68z"/>
	<g>
		<g>
			<path class="st1" d="M40.3,72.8c0,1.1,0.1,2,0.2,2.6c0.1,0.6,0.4,1,0.7,1.4s0.8,0.6,1.4,0.8c0.6,0.2,1.4,0.4,2.3,0.5
				c0.9,0.1,2.1,0.2,3.6,0.2v2.1H26.8v-2.1c2.2-0.1,3.7-0.2,4.6-0.4c0.9-0.2,1.6-0.4,2.1-0.7c0.5-0.3,0.8-0.8,1.1-1.4
				c0.2-0.6,0.3-1.6,0.3-3V49c0-0.8-0.1-1.4-0.4-1.7c-0.3-0.4-0.7-0.5-1.2-0.5c-0.6,0-1.5,0.3-2.7,1c-1.2,0.6-2.6,1.5-4.3,2.7
				L25,48.2L38.9,40h1.6c-0.1,1.9-0.2,4.5-0.2,7.8V72.8z"/>
		</g>
	</g>
</g>
</svg>
