<?xml version="1.0" encoding="utf-8"?>
<!-- Generator: Adobe Illustrator 23.0.1, SVG Export Plug-In . SVG Version: 6.00 Build 0)  -->
<svg version="1.1" id="Layer_1" xmlns="http://www.w3.org/2000/svg" xmlns:xlink="http://www.w3.org/1999/xlink" x="0px" y="0px"
	 viewBox="0 0 247.5 155.5" style="enable-background:new 0 0 247.5 155.5;" xml:space="preserve">
<style type="text/css">
	.st0{fill:none;stroke:#A88E5A;stroke-width:2;stroke-miterlimit:10;}
	.st1{fill:none;stroke:#AF914F;stroke-width:2;stroke-miterlimit:10;}
	.st2{fill:#546071;stroke:#E5E1D8;stroke-miterlimit:10;}
	.st3{fill:#FFFFFF;}
	.st4{fill:#546071;}
</style>
<path class="st3" d="M151.4,96.6c-1.2-7.7-6.9-30.8-33.7-66.5C90.8,65.8,85.1,88.9,83.9,96.6c-0.4,2.1-0.6,4.3-0.6,6.5
	c0,19,15.4,34.3,34.3,34.3S152,122,152,103.1C152,100.8,151.8,98.7,151.4,96.6z"/>
<g>
	<g>
		<path class="st4" d="M106.9,77.3v-5.6c2.3-1.1,4.4-1.9,6.4-2.4c2-0.5,3.9-0.8,5.7-0.8c2.2,0,4.1,0.3,5.8,1
			c1.7,0.7,2.9,1.7,3.8,2.9c0.9,1.3,1.3,2.8,1.3,4.6c0,1.7-0.3,3.1-1,4.4c-0.7,1.3-1.6,2.4-2.8,3.3s-2.8,1.9-4.7,2.8v0.3
			c1.2,0.2,2.3,0.6,3.4,1.1c1.1,0.5,2.1,1.2,2.9,2c0.9,0.8,1.5,1.8,2.1,2.9c0.5,1.1,0.8,2.4,0.8,3.9c0,2.3-0.5,4.3-1.5,6
			c-1,1.8-2.5,3.1-4.5,4.2c-2,1-4.5,1.5-7.4,1.5c-1.7,0-3.5-0.2-5.4-0.6c-1.9-0.4-3.7-0.9-5.3-1.5v-6.2h3.5c0.7,2,1.6,3.5,2.7,4.4
			c1.1,0.9,2.7,1.4,4.6,1.4c2.5,0,4.5-0.7,5.8-2.1c1.3-1.4,1.9-3.4,1.9-6.2c0-2.9-0.9-5-2.6-6.5c-1.7-1.5-4.2-2.3-7.6-2.3h-2.6v-2.6
			c2.6-0.2,4.9-0.7,6.7-1.5c1.8-0.9,3.1-2,4-3.3s1.3-2.9,1.3-4.5c0-2.2-0.6-3.8-1.7-5c-1.2-1.2-2.8-1.8-5-1.8
			c-1.8,0-3.3,0.5-4.5,1.5c-1.2,1-2,2.5-2.5,4.6H106.9z"/>
	</g>
</g>
</svg>
