<?xml version="1.0" encoding="utf-8"?>
<!-- Generator: Adobe Illustrator 23.0.1, SVG Export Plug-In . SVG Version: 6.00 Build 0)  -->
<svg version="1.1" id="Layer_1" xmlns="http://www.w3.org/2000/svg" xmlns:xlink="http://www.w3.org/1999/xlink" x="0px" y="0px"
	 viewBox="0 0 114.2 124.4" style="enable-background:new 0 0 114.2 124.4;" xml:space="preserve">
<style type="text/css">
	.st0{fill:none;stroke:#FFFFFF;stroke-miterlimit:10;}
	.st1{fill:#E5E1D8;}
</style>
<g>
	<path class="st0" d="M92.3,77.1c-1.2-7.7-6.9-30.8-33.7-66.5C31.7,46.3,26.1,69.4,24.9,77.1c-0.4,2.1-0.6,4.3-0.6,6.5
		c0,19,15.4,34.3,34.3,34.3S93,102.5,93,83.5C93,81.3,92.7,79.2,92.3,77.1z"/>
	<g>
		<g>
			<path class="st1" d="M63.8,84.8c1,0,1.7-0.1,2.3-0.2s1.1-0.3,1.4-0.6s0.6-0.6,0.8-1.1s0.5-1.1,0.8-2h2.5l-0.5,8.6H47v-1.4
				c0.8-2.1,2-4.2,3.4-6.3c1.4-2.1,3.4-4.7,6.1-7.6c2.3-2.5,3.9-4.4,4.9-5.7c1.1-1.4,1.9-2.6,2.4-3.6c0.5-1,0.9-2,1.2-2.9
				s0.4-1.8,0.4-2.7c0-1.5-0.2-2.8-0.7-3.9s-1.2-2-2.2-2.7s-2.2-1-3.6-1c-3.7,0-6.1,2-7.4,6.1h-3.5v-5.6c2.4-1.1,4.6-1.9,6.6-2.4
				c2.1-0.5,3.9-0.7,5.6-0.7c3.6,0,6.4,0.8,8.2,2.4c1.9,1.6,2.8,3.9,2.8,6.9c0,1-0.1,2-0.3,2.9s-0.5,1.7-1,2.6
				c-0.4,0.8-1,1.8-1.8,2.7c-0.7,1-1.6,2-2.5,3c-0.9,1-2.5,2.7-4.7,5c-3.7,3.9-6.4,7.4-8.2,10.3H63.8z"/>
		</g>
	</g>
</g>
</svg>
