<?xml version="1.0" encoding="utf-8"?>
<!-- Generator: Adobe Illustrator 22.0.0, SVG Export Plug-In . SVG Version: 6.00 Build 0)  -->
<svg version="1.1" id="Layer_1" xmlns="http://www.w3.org/2000/svg" xmlns:xlink="http://www.w3.org/1999/xlink" x="0px" y="0px"
	 viewBox="0 0 70 110" style="enable-background:new 0 0 70 110;" xml:space="preserve">
<style type="text/css">
	.st0{fill:none;stroke:#FFFFFF;stroke-miterlimit:10;}
	.st1{fill:#E5E1D8;}
</style>
<g>
	<path class="st0" d="M69.1,67.1c-1.2-7.7-6.9-30.8-33.9-66.5C8.1,36.3,2.4,59.4,1.3,67.1c-0.4,2.1-0.6,4.3-0.6,6.5
		c0,19,15.5,34.3,34.5,34.3s34.5-15.4,34.5-34.3C69.7,71.4,69.5,69.2,69.1,67.1z"/>
	<g>
		<g>
			<path class="st1" d="M24.3,47.9v-5.6c2.3-1.1,4.4-1.9,6.4-2.4s3.9-0.8,5.7-0.8c2.2,0,4.1,0.3,5.8,1c1.7,0.7,2.9,1.7,3.8,2.9
				s1.3,2.8,1.3,4.6c0,1.7-0.3,3.1-1,4.4c-0.7,1.3-1.6,2.4-2.8,3.3c-1.2,0.9-2.8,1.9-4.7,2.8v0.3c1.2,0.2,2.3,0.6,3.4,1.1
				c1.1,0.5,2.1,1.2,2.9,2c0.9,0.8,1.5,1.8,2.1,2.9c0.5,1.1,0.8,2.4,0.8,3.9c0,2.3-0.5,4.3-1.5,6c-1,1.8-2.5,3.1-4.5,4.2
				c-2,1-4.5,1.5-7.4,1.5c-1.7,0-3.5-0.2-5.4-0.6s-3.7-0.9-5.3-1.5v-6.2h3.5c0.7,2,1.6,3.5,2.7,4.4c1.1,0.9,2.7,1.4,4.6,1.4
				c2.5,0,4.5-0.7,5.8-2.1s1.9-3.4,1.9-6.2c0-2.9-0.9-5-2.6-6.5c-1.7-1.5-4.2-2.3-7.6-2.3h-2.6V58c2.6-0.2,4.9-0.7,6.7-1.5
				c1.8-0.9,3.1-2,4-3.3c0.9-1.3,1.3-2.9,1.3-4.5c0-2.2-0.6-3.8-1.7-5c-1.2-1.2-2.8-1.8-5-1.8c-1.8,0-3.3,0.5-4.5,1.5
				c-1.2,1-2,2.5-2.5,4.6L24.3,47.9L24.3,47.9z"/>
		</g>
	</g>
</g>
</svg>
