<?xml version="1.0" encoding="utf-8"?>
<!-- Generator: Adobe Illustrator 22.0.0, SVG Export Plug-In . SVG Version: 6.00 Build 0)  -->
<svg version="1.1" id="Layer_1" xmlns="http://www.w3.org/2000/svg" xmlns:xlink="http://www.w3.org/1999/xlink" x="0px" y="0px"
	 viewBox="0 0 70 110" style="enable-background:new 0 0 70 110;" xml:space="preserve">
<style type="text/css">
	.st0{fill:#FFFFFF;}
	.st1{fill:#546071;}
</style>
<path class="st0" d="M68.9,68.3C67.7,60.6,62,37.5,35.2,1.8C8.3,37.5,2.7,60.6,1.5,68.3c-0.4,2.1-0.6,4.3-0.6,6.5
	c0,19,15.4,34.3,34.3,34.3s34.3-15.4,34.3-34.3C69.5,72.5,69.3,70.4,68.9,68.3z"/>
<g>
	<g>
		<path class="st1" d="M40.1,73.1c0,1.1,0.1,2,0.2,2.6c0.1,0.6,0.4,1,0.7,1.4s0.8,0.6,1.4,0.8c0.6,0.2,1.4,0.4,2.3,0.5
			c0.9,0.1,2.1,0.2,3.6,0.2v2.1H26.6v-2.1c2.2-0.1,3.7-0.2,4.6-0.4c0.9-0.2,1.6-0.4,2.1-0.7c0.5-0.3,0.8-0.8,1.1-1.4
			c0.2-0.6,0.3-1.6,0.3-3V49.3c0-0.8-0.1-1.4-0.4-1.7c-0.3-0.4-0.7-0.5-1.2-0.5c-0.6,0-1.5,0.3-2.7,1c-1.2,0.6-2.6,1.5-4.3,2.7
			l-1.3-2.3l13.7-8.2h1.6c-0.1,1.9-0.2,4.5-0.2,7.8v25H40.1z"/>
	</g>
</g>
</svg>
