<?xml version="1.0" encoding="utf-8"?>
<!-- Generator: Adobe Illustrator 23.0.1, SVG Export Plug-In . SVG Version: 6.00 Build 0)  -->
<svg version="1.1" id="Layer_1" xmlns="http://www.w3.org/2000/svg" xmlns:xlink="http://www.w3.org/1999/xlink" x="0px" y="0px"
	 viewBox="0 0 247.5 155.5" style="enable-background:new 0 0 247.5 155.5;" xml:space="preserve">
<style type="text/css">
	.st0{fill:none;stroke:#A88E5A;stroke-width:2;stroke-miterlimit:10;}
	.st1{fill:none;stroke:#AF914F;stroke-width:2;stroke-miterlimit:10;}
	.st2{fill:#546071;stroke:#E5E1D8;stroke-miterlimit:10;}
	.st3{fill:none;stroke:#BA9749;stroke-miterlimit:10;}
	.st4{fill:none;stroke:#FFFFFF;stroke-miterlimit:10;}
	.st5{fill:#E5E1D8;}
	.st6{fill:#FFFFFF;}
	.st7{fill:#556172;stroke:#FFFFFF;stroke-miterlimit:10;}
	.st8{fill:#FFFFFF;stroke:#FFFFFF;stroke-miterlimit:10;}
	.st9{fill:#FFFFFF;stroke:#556172;stroke-miterlimit:10;}
	.st10{fill:#546071;stroke:#FFFFFF;stroke-miterlimit:10;}
	.st11{fill:#546071;}
</style>
<path class="st6" d="M156,89.9c-1.2-7.7-6.9-30.8-33.7-66.5C95.4,59.1,89.8,82.2,88.6,89.9C88.2,92,88,94.1,88,96.4
	c0,19,15.4,34.3,34.3,34.3s34.3-15.4,34.3-34.3C156.7,94.1,156.4,92,156,89.9z"/>
<g>
	<g>
		<path class="st11" d="M127.4,97.6c1,0,1.7-0.1,2.3-0.2s1.1-0.3,1.4-0.6s0.6-0.6,0.8-1.1s0.5-1.1,0.8-2h2.5l-0.5,8.6h-24.1v-1.4
			c0.8-2.1,2-4.2,3.4-6.3c1.4-2.1,3.4-4.7,6.1-7.6c2.3-2.5,3.9-4.4,4.9-5.7c1.1-1.4,1.9-2.6,2.4-3.6c0.5-1,0.9-2,1.2-2.9
			s0.4-1.8,0.4-2.7c0-1.5-0.2-2.8-0.7-3.9s-1.2-2-2.2-2.7s-2.2-1-3.6-1c-3.7,0-6.1,2-7.4,6.1h-3.5V65c2.4-1.1,4.6-1.9,6.6-2.4
			c2.1-0.5,3.9-0.7,5.6-0.7c3.6,0,6.4,0.8,8.2,2.4c1.9,1.6,2.8,3.9,2.8,6.9c0,1-0.1,2-0.3,2.9s-0.5,1.7-1,2.6s-1,1.8-1.8,2.7
			c-0.7,1-1.6,2-2.5,3c-0.9,1-2.5,2.7-4.7,5c-3.7,3.9-6.4,7.4-8.2,10.3H127.4z"/>
	</g>
</g>
</svg>
