<?xml version="1.0" encoding="utf-8"?>
<!-- Generator: Adobe Illustrator 22.0.0, SVG Export Plug-In . SVG Version: 6.00 Build 0)  -->
<svg version="1.1" id="Layer_1" xmlns="http://www.w3.org/2000/svg" xmlns:xlink="http://www.w3.org/1999/xlink" x="0px" y="0px"
	 viewBox="0 0 225 80" style="enable-background:new 0 0 225 80;" xml:space="preserve">
<style type="text/css">
	.st0{fill:#FFFFFF;}
	.st1{fill:none;stroke:#FFFFFF;stroke-miterlimit:10;}
</style>
<g>
	<path class="st0" d="M62.9,46.1V35.6h2.6v9.7c0,0.4,0.1,0.6,0.3,0.8c0.2,0.2,0.4,0.3,0.8,0.3h1.1v2.1h-2.2
		C63.8,48.5,62.9,47.7,62.9,46.1z"/>
	<path class="st0" d="M73,47.2c-1-1.1-1.4-2.7-1.4-4.9c0-2.2,0.4-3.9,1.1-5.1c0.7-1.2,1.8-1.8,3.2-1.8c0.6,0,1.1,0.1,1.5,0.3
		c0.4,0.2,0.7,0.5,1.1,0.9c0.3-0.4,0.8-0.7,1.3-0.9s1.1-0.3,1.7-0.3c1,0,1.8,0.3,2.3,0.9c0.5,0.6,0.8,1.5,0.8,2.6v9.6h-2.6v-9.3
		c0-0.6-0.1-1.1-0.3-1.4c-0.2-0.3-0.5-0.4-1-0.4c-0.3,0-0.6,0.1-0.9,0.3s-0.5,0.5-0.6,0.8h-1.6c-0.2-0.4-0.4-0.7-0.6-0.9
		s-0.5-0.3-0.9-0.3c-0.8,0-1.3,0.4-1.6,1.2c-0.3,0.8-0.5,2-0.5,3.6s0.3,2.7,0.8,3.4c0.5,0.7,1.3,1,2.4,1c0.7,0,1.3-0.1,1.7-0.2v2
		c-0.5,0.2-1.2,0.3-2.1,0.3C75.2,48.7,73.9,48.3,73,47.2z"/>
	<path class="st0" d="M91,48.5c-0.8-0.1-1.4-0.3-1.9-0.5v-2.2c0.6,0.2,1.2,0.4,1.9,0.6c0.7,0.2,1.4,0.2,2,0.2c1.2,0,2-0.1,2.5-0.3
		s0.7-0.6,0.7-1.2c0-0.4-0.1-0.7-0.3-0.9s-0.5-0.4-0.8-0.6c-0.3-0.1-0.9-0.3-1.6-0.6l-0.9-0.3c-1.3-0.4-2.3-0.9-2.9-1.5
		c-0.6-0.5-1-1.3-1-2.3c0-1.2,0.4-2.1,1.3-2.7s2.2-1,3.9-1c0.7,0,1.4,0.1,2.1,0.2c0.7,0.1,1.3,0.2,1.8,0.4v2.2
		c-0.5-0.2-1.1-0.3-1.7-0.5s-1.3-0.2-1.8-0.2c-1,0-1.8,0.1-2.3,0.3s-0.8,0.6-0.8,1.2c0,0.3,0.1,0.6,0.3,0.8c0.2,0.2,0.5,0.4,0.9,0.6
		c0.4,0.2,0.9,0.4,1.7,0.6l0.7,0.2c1.4,0.5,2.4,1,3,1.5c0.6,0.6,0.9,1.4,0.9,2.4c0,1.2-0.5,2.1-1.4,2.7s-2.2,0.9-3.9,0.9
		C92.6,48.7,91.7,48.7,91,48.5z"/>
	<path class="st0" d="M88.3,31.8h7.7v-2h2.2v3.8h-9.9L88.3,31.8z"/>
	<path class="st0" d="M104,47.8c-1.1-0.7-1.6-1.7-1.6-3.1c0-0.7,0.2-1.2,0.5-1.7c0.3-0.5,0.8-0.9,1.3-1.2c-0.5-0.2-0.9-0.5-1.3-1
		c-0.3-0.5-0.5-1-0.5-1.7c0-1.2,0.4-2.1,1.1-2.8c0.7-0.6,1.7-1,3-1c0.8,0,1.5,0.1,2.1,0.3v2c-0.5-0.1-1-0.2-1.6-0.2
		c-1.3,0-2,0.5-2,1.6s0.8,1.7,2.3,1.7h1.4l0.1,1.9h-1.5c-1.5,0-2.3,0.7-2.3,2c0,0.7,0.3,1.1,0.8,1.5c0.5,0.4,1.4,0.5,2.5,0.5
		s2-0.2,2.5-0.7c0.6-0.5,0.8-1.1,0.8-2.1v-8.4h2.6v8c0,1.7-0.5,3-1.5,3.9c-1,0.8-2.4,1.3-4.4,1.3C106.5,48.7,105.1,48.4,104,47.8z"
		/>
	<path class="st0" d="M123.5,48.3c-0.7-0.3-1.4-0.7-2-1.2l-0.1,1.4H119V35.6h2.6v9.5c0.4,0.5,1,0.8,1.6,1.1s1.3,0.4,2,0.4
		c0.9,0,1.6-0.2,2-0.6c0.4-0.4,0.7-1.1,0.7-2.1v-8.4h2.6v8.5c0,1.5-0.4,2.6-1.2,3.5c-0.8,0.8-1.9,1.2-3.3,1.2
		C125,48.7,124.1,48.6,123.5,48.3z"/>
	<path class="st0" d="M136.1,47.2c-1-1.1-1.4-2.7-1.4-4.9c0-2.2,0.4-3.9,1.1-5.1c0.7-1.2,1.8-1.8,3.2-1.8c0.6,0,1.1,0.1,1.5,0.3
		c0.4,0.2,0.7,0.5,1.1,0.9c0.3-0.4,0.8-0.7,1.3-0.9s1.1-0.3,1.7-0.3c1,0,1.8,0.3,2.3,0.9c0.5,0.6,0.8,1.5,0.8,2.6v9.6H145v-9.3
		c0-0.6-0.1-1.1-0.3-1.4s-0.5-0.4-1-0.4c-0.3,0-0.6,0.1-0.9,0.3s-0.5,0.5-0.6,0.8h-1.4c-0.2-0.4-0.4-0.7-0.6-0.9
		c-0.2-0.2-0.5-0.3-0.9-0.3c-0.8,0-1.3,0.4-1.6,1.2c-0.3,0.8-0.5,2-0.5,3.6s0.3,2.7,0.8,3.4c0.5,0.7,1.3,1,2.4,1
		c0.7,0,1.3-0.1,1.7-0.2v2c-0.5,0.2-1.2,0.3-2.1,0.3C138.4,48.7,137.1,48.3,136.1,47.2z"/>
	<path class="st0" d="M141.8,30.1h2.2v1.7h6.2l-0.1,1.8h-8.2L141.8,30.1L141.8,30.1z"/>
	<path class="st0" d="M151.7,48.1V46c1.1,0.5,2.2,0.7,3.3,0.7s2-0.2,2.6-0.5s1.1-0.8,1.4-1.5c0.3-0.7,0.4-1.6,0.4-2.7
		c0-1.7-0.3-2.8-1-3.6c-0.7-0.7-1.8-1.1-3.4-1.1c-1.1,0-2.2,0.2-3.2,0.7v-2.1c1.1-0.5,2.4-0.7,3.8-0.7c2.1,0,3.7,0.6,4.8,1.7
		s1.6,2.8,1.6,5c0,2.2-0.5,3.9-1.5,5c-1,1.1-2.6,1.7-4.8,1.7C154.1,48.7,152.8,48.5,151.7,48.1z"/>
</g>
<path class="st1" d="M206.5,29.1c-3.7,0-7.1,0.7-9.9,1.9c-3.8-3.3-9.1-5.4-15.2-5.4c-0.9,0-1.7,0-2.6,0.1
	C177.7,15.5,162.1,7.4,143,7.4c-5.5,0-10.7,0.7-15.4,1.9c-3.7-4.8-10-7.9-17.2-7.9c-7.7,0-14.5,3.6-18,8.9
	c-3.9-1.2-8.3-1.9-12.9-1.9c-15.2,0-27.7,7.2-29.3,16.4c-3-1.2-6.6-1.8-10.3-1.8c-8.3,0-15.5,3.3-18.3,7.9c-0.2,0-0.3,0-0.5,0
	c-10.8,0-19.7,4.1-19.7,9.2s8.8,9.2,19.7,9.2c2.8,0,5.5-0.3,7.8-0.8c0.3,6.3,5.6,11.3,11.9,11.3h4c1.9,0,3.7-0.5,5.3-1.3
	c2.4,6.5,8.6,11.1,16,11.1c4.6,0,8.6-1.8,11.7-4.7c3.7,6.7,13.8,11.5,25.8,11.5c15.1,0,27.3-7.7,27.3-17.1c0-0.3,0-0.5,0-0.8
	c0.1,0,0.2-0.1,0.3-0.1c3.3,5.7,10.3,9.9,18.8,10.8c11.4,1.1,21.5-4.4,23.6-12.6c2.4,0.8,5,1.2,7.7,1.2c7.5,0,13.9-3.1,17.5-7.8
	c2.3,0.7,4.9,1.1,7.6,1.1c9.8,0,17.8-5,17.8-11.1C224.3,34,216.3,29.1,206.5,29.1z"/>
</svg>
