<?xml version="1.0" encoding="utf-8"?>
<!-- Generator: Adobe Illustrator 23.0.1, SVG Export Plug-In . SVG Version: 6.00 Build 0)  -->
<svg version="1.1" id="Layer_1" xmlns="http://www.w3.org/2000/svg" xmlns:xlink="http://www.w3.org/1999/xlink" x="0px" y="0px"
	 viewBox="0 0 263.8 120.9" style="enable-background:new 0 0 263.8 120.9;" xml:space="preserve">
<style type="text/css">
	.st0{fill:#FFFFFF;}
	.st1{fill:none;stroke:#FFFFFF;stroke-miterlimit:10;}
</style>
<g>
	<path class="st0" d="M81.3,68.3V57.8h2.6v9.8c0,0.4,0.1,0.6,0.3,0.8c0.2,0.2,0.4,0.3,0.8,0.3h1.1v2.1h-2.2
		C82.2,70.8,81.3,69.9,81.3,68.3z"/>
	<path class="st0" d="M91.4,69.4c-1-1.1-1.4-2.7-1.4-4.9c0-2.2,0.4-3.9,1.1-5.1c0.7-1.2,1.8-1.8,3.2-1.8c0.6,0,1.1,0.1,1.5,0.3
		c0.4,0.2,0.7,0.5,1.1,0.9c0.3-0.4,0.8-0.7,1.3-0.9c0.5-0.2,1.1-0.3,1.7-0.3c1,0,1.8,0.3,2.3,0.9c0.5,0.6,0.8,1.5,0.8,2.6v9.7h-2.6
		v-9.3c0-0.6-0.1-1.1-0.3-1.4c-0.2-0.3-0.5-0.4-1-0.4c-0.3,0-0.6,0.1-0.9,0.3c-0.3,0.2-0.5,0.5-0.6,0.8H96c-0.2-0.4-0.4-0.7-0.6-0.9
		c-0.2-0.2-0.5-0.3-0.9-0.3c-0.8,0-1.3,0.4-1.6,1.2c-0.3,0.8-0.5,2-0.5,3.6c0,1.6,0.3,2.7,0.8,3.4c0.5,0.7,1.3,1,2.4,1
		c0.7,0,1.3-0.1,1.7-0.2v2c-0.5,0.2-1.2,0.3-2.1,0.3C93.6,71,92.3,70.5,91.4,69.4z"/>
	<path class="st0" d="M109.5,70.8c-0.8-0.1-1.4-0.3-1.9-0.5v-2.2c0.6,0.2,1.2,0.4,1.9,0.6s1.4,0.2,2,0.2c1.2,0,2-0.1,2.5-0.3
		c0.5-0.2,0.7-0.6,0.7-1.2c0-0.4-0.1-0.7-0.3-0.9c-0.2-0.2-0.5-0.4-0.8-0.6c-0.3-0.1-0.9-0.3-1.6-0.6l-0.9-0.3
		c-1.3-0.4-2.3-0.9-2.9-1.5c-0.6-0.5-1-1.3-1-2.3c0-1.2,0.4-2.1,1.3-2.7c0.9-0.6,2.2-1,3.9-1c0.7,0,1.4,0.1,2.1,0.2
		c0.7,0.1,1.3,0.2,1.8,0.4v2.2c-0.5-0.2-1.1-0.3-1.7-0.5s-1.3-0.2-1.8-0.2c-1,0-1.8,0.1-2.3,0.3c-0.5,0.2-0.8,0.6-0.8,1.2
		c0,0.3,0.1,0.6,0.3,0.8c0.2,0.2,0.5,0.4,0.9,0.6s0.9,0.4,1.7,0.6l0.7,0.2c1.4,0.5,2.4,1,3,1.5c0.6,0.6,0.9,1.4,0.9,2.4
		c0,1.2-0.5,2.1-1.4,2.7c-0.9,0.6-2.2,0.9-3.9,0.9C111.1,71,110.2,71,109.5,70.8z"/>
	<path class="st0" d="M106.8,54h7.7v-2h2.2v3.8h-10L106.8,54z"/>
	<path class="st0" d="M122.6,70c-1.1-0.7-1.6-1.7-1.6-3.1c0-0.7,0.2-1.2,0.5-1.7c0.3-0.5,0.8-0.9,1.3-1.2c-0.5-0.2-0.9-0.5-1.3-1
		c-0.3-0.5-0.5-1-0.5-1.7c0-1.2,0.4-2.1,1.1-2.8c0.7-0.6,1.7-1,3-1c0.8,0,1.5,0.1,2.1,0.3v2c-0.5-0.1-1-0.2-1.6-0.2
		c-1.3,0-2,0.5-2,1.6c0,1.1,0.8,1.7,2.3,1.7h1.4l0.1,1.9h-1.5c-1.5,0-2.3,0.7-2.3,2c0,0.7,0.3,1.1,0.8,1.5s1.4,0.5,2.5,0.5
		c1.1,0,2-0.2,2.5-0.7c0.6-0.5,0.8-1.1,0.8-2.1v-8.4h2.6v8c0,1.7-0.5,3-1.5,3.9c-1,0.8-2.4,1.3-4.4,1.3
		C125.1,71,123.7,70.7,122.6,70z"/>
	<path class="st0" d="M142.2,70.6c-0.7-0.3-1.4-0.7-2-1.2l-0.1,1.4h-2.4v-13h2.6v9.6c0.4,0.5,1,0.8,1.6,1.1s1.3,0.4,2,0.4
		c0.9,0,1.6-0.2,2-0.6c0.4-0.4,0.7-1.1,0.7-2.1v-8.4h2.6v8.5c0,1.5-0.4,2.6-1.2,3.5c-0.8,0.8-1.9,1.2-3.3,1.2
		C143.8,71,142.9,70.9,142.2,70.6z"/>
	<path class="st0" d="M154.9,69.4c-1-1.1-1.4-2.7-1.4-4.9c0-2.2,0.4-3.9,1.1-5.1c0.7-1.2,1.8-1.8,3.2-1.8c0.6,0,1.1,0.1,1.5,0.3
		c0.4,0.2,0.7,0.5,1.1,0.9c0.3-0.4,0.8-0.7,1.3-0.9c0.5-0.2,1.1-0.3,1.7-0.3c1,0,1.8,0.3,2.3,0.9c0.5,0.6,0.8,1.5,0.8,2.6v9.7h-2.6
		v-9.3c0-0.6-0.1-1.1-0.3-1.4c-0.2-0.3-0.5-0.4-1-0.4c-0.3,0-0.6,0.1-0.9,0.3c-0.3,0.2-0.5,0.5-0.6,0.8h-1.4
		c-0.2-0.4-0.4-0.7-0.6-0.9c-0.2-0.2-0.5-0.3-0.9-0.3c-0.8,0-1.3,0.4-1.6,1.2c-0.3,0.8-0.5,2-0.5,3.6c0,1.6,0.3,2.7,0.8,3.4
		c0.5,0.7,1.3,1,2.4,1c0.7,0,1.3-0.1,1.7-0.2v2c-0.5,0.2-1.2,0.3-2.1,0.3C157.2,71,155.9,70.5,154.9,69.4z"/>
	<path class="st0" d="M160.7,52.3h2.2V54h6.2l-0.1,1.8h-8.3V52.3z"/>
	<path class="st0" d="M170.6,70.3v-2.1c1.1,0.5,2.2,0.7,3.3,0.7c1.1,0,2-0.2,2.6-0.5s1.1-0.8,1.4-1.5c0.3-0.7,0.4-1.6,0.4-2.7
		c0-1.7-0.3-2.8-1-3.6c-0.7-0.7-1.8-1.1-3.4-1.1c-1.1,0-2.2,0.2-3.2,0.7v-2.1c1.1-0.5,2.4-0.7,3.8-0.7c2.1,0,3.7,0.6,4.8,1.7
		c1.1,1.1,1.6,2.8,1.6,5s-0.5,3.9-1.5,5c-1,1.1-2.6,1.7-4.8,1.7C173,71,171.7,70.8,170.6,70.3z"/>
</g>
<path class="st1" d="M225.8,51.2c-3.7,0-7.1,0.7-10,1.9c-3.8-3.3-9.2-5.4-15.3-5.4c-0.9,0-1.7,0-2.6,0.1
	c-1.1-10.2-16.8-18.4-36-18.4c-5.5,0-10.8,0.7-15.5,1.9c-3.7-4.8-10.1-7.9-17.3-7.9c-7.8,0-14.6,3.6-18.1,8.9
	c-3.9-1.2-8.4-1.9-13-1.9c-15.3,0-27.9,7.2-29.5,16.5c-3-1.2-6.6-1.8-10.4-1.8c-8.4,0-15.6,3.3-18.4,7.9c-0.2,0-0.3,0-0.5,0
	c-10.9,0-19.8,4.1-19.8,9.2c0,5.1,8.9,9.2,19.8,9.2c2.8,0,5.5-0.3,7.9-0.8c0.3,6.3,5.6,11.4,12,11.4h4c1.9,0,3.7-0.5,5.3-1.3
	c2.4,6.5,8.7,11.2,16.1,11.2c4.6,0,8.7-1.8,11.8-4.7c3.7,6.7,13.9,11.6,26,11.6c15.2,0,27.5-7.7,27.5-17.2c0-0.3,0-0.5,0-0.8
	c0.1,0,0.2-0.1,0.3-0.1c3.3,5.7,10.4,10,18.9,10.9c11.5,1.1,21.6-4.4,23.8-12.7c2.4,0.8,5,1.2,7.7,1.2c7.5,0,14-3.1,17.6-7.8
	c2.3,0.7,4.9,1.1,7.6,1.1c9.9,0,17.9-5,17.9-11.2C243.7,56.2,235.7,51.2,225.8,51.2z"/>
</svg>
