<?xml version="1.0" encoding="utf-8"?>
<!-- Generator: Adobe Illustrator 23.0.1, SVG Export Plug-In . SVG Version: 6.00 Build 0)  -->
<svg version="1.1" id="Layer_1" xmlns="http://www.w3.org/2000/svg" xmlns:xlink="http://www.w3.org/1999/xlink" x="0px" y="0px"
	 viewBox="0 0 247.5 155.5" style="enable-background:new 0 0 247.5 155.5;" xml:space="preserve">
<style type="text/css">
	.st0{fill:none;stroke:#A88E5A;stroke-width:2;stroke-miterlimit:10;}
	.st1{fill:none;stroke:#AF914F;stroke-width:2;stroke-miterlimit:10;}
	.st2{fill:#546071;stroke:#E5E1D8;stroke-miterlimit:10;}
	.st3{fill:none;stroke:#BA9749;stroke-miterlimit:10;}
	.st4{fill:none;stroke:#FFFFFF;stroke-miterlimit:10;}
	.st5{fill:#FFFFFF;}
	.st6{fill:#546071;}
</style>
<path class="st5" d="M217.1,71.1c-3.7,0-7.1,0.7-10,1.9c-3.8-3.3-9.2-5.4-15.3-5.4c-0.9,0-1.7,0-2.6,0.1
	c-1.1-10.2-16.8-18.4-36-18.4c-5.5,0-10.8,0.7-15.5,1.9c-3.7-4.8-10.1-7.9-17.3-7.9c-7.8,0-14.6,3.6-18.1,8.9
	c-3.9-1.2-8.4-1.9-13-1.9c-15.3,0-27.9,7.2-29.5,16.5c-3-1.2-6.6-1.8-10.4-1.8c-8.4,0-15.6,3.3-18.4,7.9c-0.2,0-0.3,0-0.5,0
	c-10.9,0-19.8,4.1-19.8,9.2c0,5.1,8.9,9.2,19.8,9.2c2.8,0,5.5-0.3,7.9-0.8c0.3,6.3,5.6,11.4,12,11.4h4c1.9,0,3.7-0.5,5.3-1.3
	c2.4,6.5,8.7,11.2,16.1,11.2c4.6,0,8.7-1.8,11.8-4.7c3.7,6.7,13.9,11.6,26,11.6c15.2,0,27.5-7.7,27.5-17.2c0-0.3,0-0.5,0-0.8
	c0.1,0,0.2-0.1,0.3-0.1c3.3,5.7,10.4,10,18.9,10.9c11.5,1.1,21.6-4.4,23.8-12.7c2.4,0.8,5,1.2,7.7,1.2c7.5,0,14-3.1,17.6-7.8
	c2.3,0.7,4.9,1.1,7.6,1.1c9.9,0,17.9-5,17.9-11.2C235,76.1,227,71.1,217.1,71.1z"/>
<g>
	<g>
		<path class="st6" d="M72.7,88.1V77.7h2.6v9.8c0,0.4,0.1,0.6,0.3,0.8c0.2,0.2,0.4,0.3,0.8,0.3h1.1v2.1h-2.2
			C73.5,90.6,72.7,89.8,72.7,88.1z"/>
		<path class="st6" d="M82.7,89.2c-1-1.1-1.4-2.7-1.4-4.9c0-2.2,0.4-3.9,1.1-5.1c0.7-1.2,1.8-1.8,3.2-1.8c0.6,0,1.1,0.1,1.5,0.3
			c0.4,0.2,0.7,0.5,1.1,0.9c0.3-0.4,0.8-0.7,1.3-0.9c0.5-0.2,1.1-0.3,1.7-0.3c1,0,1.8,0.3,2.3,0.9c0.5,0.6,0.8,1.5,0.8,2.6v9.7h-2.6
			v-9.3c0-0.6-0.1-1.1-0.3-1.4c-0.2-0.3-0.5-0.4-1-0.4c-0.3,0-0.6,0.1-0.9,0.3c-0.3,0.2-0.5,0.5-0.6,0.8h-1.4
			c-0.2-0.4-0.4-0.7-0.6-0.9c-0.2-0.2-0.5-0.3-0.9-0.3c-0.8,0-1.3,0.4-1.6,1.2c-0.3,0.8-0.5,2-0.5,3.6c0,1.6,0.3,2.7,0.8,3.4
			c0.5,0.7,1.3,1,2.4,1c0.7,0,1.3-0.1,1.7-0.2v2c-0.5,0.2-1.2,0.3-2.1,0.3C85,90.9,83.7,90.3,82.7,89.2z"/>
		<path class="st6" d="M100.8,90.7c-0.8-0.1-1.4-0.3-1.9-0.5V88c0.6,0.2,1.2,0.4,1.9,0.6s1.4,0.2,2,0.2c1.2,0,2-0.1,2.5-0.3
			c0.5-0.2,0.7-0.6,0.7-1.2c0-0.4-0.1-0.7-0.3-0.9c-0.2-0.2-0.5-0.4-0.8-0.6c-0.3-0.1-0.9-0.3-1.6-0.6l-0.9-0.3
			c-1.3-0.4-2.3-0.9-2.9-1.5c-0.6-0.5-1-1.3-1-2.3c0-1.2,0.4-2.1,1.3-2.7c0.9-0.6,2.2-1,3.9-1c0.7,0,1.4,0.1,2.1,0.2
			c0.7,0.1,1.3,0.2,1.8,0.4v2.2c-0.5-0.2-1.1-0.3-1.7-0.5s-1.3-0.2-1.8-0.2c-1,0-1.8,0.1-2.3,0.3c-0.5,0.2-0.8,0.6-0.8,1.2
			c0,0.3,0.1,0.6,0.3,0.8c0.2,0.2,0.5,0.4,0.9,0.6s0.9,0.4,1.7,0.6l0.7,0.2c1.4,0.5,2.4,1,3,1.5c0.6,0.6,0.9,1.4,0.9,2.4
			c0,1.2-0.5,2.1-1.4,2.7c-0.9,0.6-2.2,0.9-3.9,0.9C102.4,90.9,101.6,90.8,100.8,90.7z"/>
		<path class="st6" d="M98.2,73.9h7.7v-2h2.2v3.8H98L98.2,73.9z"/>
		<path class="st6" d="M114,89.9c-1.1-0.7-1.6-1.7-1.6-3.1c0-0.7,0.2-1.2,0.5-1.7c0.3-0.5,0.8-0.9,1.3-1.2c-0.5-0.2-0.9-0.5-1.3-1
			c-0.3-0.5-0.5-1-0.5-1.7c0-1.2,0.4-2.1,1.1-2.8c0.7-0.6,1.7-1,3-1c0.8,0,1.5,0.1,2.1,0.3v2c-0.5-0.1-1-0.2-1.6-0.2
			c-1.3,0-2,0.5-2,1.6c0,1.1,0.8,1.7,2.3,1.7h1.4l0.1,1.9h-1.5c-1.5,0-2.3,0.7-2.3,2c0,0.7,0.3,1.1,0.8,1.5s1.4,0.5,2.5,0.5
			c1.1,0,2-0.2,2.5-0.7c0.6-0.5,0.8-1.1,0.8-2.1v-8.4h2.6v8c0,1.7-0.5,3-1.5,3.9c-1,0.8-2.4,1.3-4.4,1.3
			C116.5,90.9,115,90.5,114,89.9z"/>
		<path class="st6" d="M133.6,90.4c-0.7-0.3-1.4-0.7-2-1.2l-0.1,1.4H129v-13h2.6v9.6c0.4,0.5,1,0.8,1.6,1.1s1.3,0.4,2,0.4
			c0.9,0,1.6-0.2,2-0.6c0.4-0.4,0.7-1.1,0.7-2.1v-8.4h2.6v8.5c0,1.5-0.4,2.6-1.2,3.5c-0.8,0.8-1.9,1.2-3.3,1.2
			C135.1,90.9,134.3,90.7,133.6,90.4z"/>
		<path class="st6" d="M146.3,89.2c-1-1.1-1.4-2.7-1.4-4.9c0-2.2,0.4-3.9,1.1-5.1c0.7-1.2,1.8-1.8,3.2-1.8c0.6,0,1.1,0.1,1.5,0.3
			c0.4,0.2,0.7,0.5,1.1,0.9c0.3-0.4,0.8-0.7,1.3-0.9c0.5-0.2,1.1-0.3,1.7-0.3c1,0,1.8,0.3,2.3,0.9c0.5,0.6,0.8,1.5,0.8,2.6v9.7h-2.6
			v-9.3c0-0.6-0.1-1.1-0.3-1.4c-0.2-0.3-0.5-0.4-1-0.4c-0.3,0-0.6,0.1-0.9,0.3c-0.3,0.2-0.5,0.5-0.6,0.8h-1.4
			c-0.2-0.4-0.4-0.7-0.6-0.9c-0.2-0.2-0.5-0.3-0.9-0.3c-0.8,0-1.3,0.4-1.6,1.2c-0.3,0.8-0.5,2-0.5,3.6c0,1.6,0.3,2.7,0.8,3.4
			c0.5,0.7,1.3,1,2.4,1c0.7,0,1.3-0.1,1.7-0.2v2c-0.5,0.2-1.2,0.3-2.1,0.3C148.5,90.9,147.2,90.3,146.3,89.2z"/>
		<path class="st6" d="M152,72.2h2.2v1.7h6.2l-0.1,1.8H152V72.2z"/>
		<path class="st6" d="M161.9,90.1v-2.1c1.1,0.5,2.2,0.7,3.3,0.7c1.1,0,2-0.2,2.6-0.5s1.1-0.8,1.4-1.5c0.3-0.7,0.4-1.6,0.4-2.7
			c0-1.7-0.3-2.8-1-3.6c-0.7-0.7-1.8-1.1-3.4-1.1c-1.1,0-2.2,0.2-3.2,0.7v-2.1c1.1-0.5,2.4-0.7,3.8-0.7c2.1,0,3.7,0.6,4.8,1.7
			c1.1,1.1,1.6,2.8,1.6,5s-0.5,3.9-1.5,5c-1,1.1-2.6,1.7-4.8,1.7C164.3,90.9,163,90.6,161.9,90.1z"/>
	</g>
</g>
</svg>
