<?xml version="1.0" encoding="utf-8"?>
<!-- Generator: Adobe Illustrator 23.0.1, SVG Export Plug-In . SVG Version: 6.00 Build 0)  -->
<svg version="1.1" id="Layer_1" xmlns="http://www.w3.org/2000/svg" xmlns:xlink="http://www.w3.org/1999/xlink" x="0px" y="0px"
	 viewBox="0 0 1062.5 394.5" style="enable-background:new 0 0 1062.5 394.5;" xml:space="preserve">
<style type="text/css">
	.st0{fill:#E5E1D8;}
	.st1{fill:#FFFFFF;}
	.st2{fill:#556172;stroke:#FFFFFF;stroke-miterlimit:10;}
	.st3{fill:#FFFFFF;stroke:#FFFFFF;stroke-miterlimit:10;}
	.st4{fill:none;stroke:#FFFFFF;stroke-miterlimit:10;}
	.st5{fill:#FFFFFF;stroke:#556172;stroke-miterlimit:10;}
	.st6{fill:#010101;}
	.st7{font-family:'Kanit-Italic';}
	.st8{font-size:24px;}
	.st9{fill:#546071;stroke:#FFFFFF;stroke-miterlimit:10;}
	.st10{fill:none;stroke:#BA9749;stroke-miterlimit:10;}
</style>
<g>
	<path class="st0" d="M636.4,90.9c-10.2,0-19.7,1.5-28.1,4.3c-1.4,0.4-2.9,0-3.7-1.2C596.9,83,578,75.3,556,75.3
		c-24.8,0-45.5,9.7-50.9,22.8c-0.6,1.6-2.4,2.4-4,1.9c-7.4-2.2-16-3.4-25.1-3.4c-16.9,0-31.8,4.2-40.8,10.6
		c-0.7,0.5-1.5,0.7-2.3,0.6l-44.3-5.5l-20.4,6.5l72.2,30.1c0.1,0,0.1,0.1,0.2,0.1c2.2,1.1,4.7,2.2,7.3,3.1c0.1,0,0.1,0,0.2,0.1
		l15.1,6.3c1.3,0.5,2.2,1.8,2.2,3.3v0c0,14.2,21.2,25.7,47.4,25.7c4.2,0,8.3-0.3,12.2-0.9c0.8-0.1,1.7,0.1,2.4,0.6
		c9.2,6.2,22.9,10.1,38.1,10.1c24,0,44-9.7,49-22.6c0.6-1.5,2.2-2.3,3.7-2c5.8,1.1,11.9,1.8,18.3,1.8c33.2,0,60.1-16.5,60.1-36.8
		C696.5,107.4,669.6,90.9,636.4,90.9z"/>
	<path class="st0" d="M941.3,234.9c-11.2,0-21.7,1.6-31,4.6c-2.3,0.7-4.9-0.3-6-2.5c-7.3-13.9-30.1-24.1-57.2-24.1
		c-28.1,0-51.6,10.9-57.9,25.6c-1,2.4-3.8,3.6-6.3,2.8c-8.7-2.7-18.9-4.2-29.8-4.2c-31.4,0-56.8,12.7-56.8,28.4l0,0.1
		c0,2.8-2.3,5.2-5.1,5.3l-36.8,1.8l-19.1,4c0,0,68.3,30.4,119.6,30.1c1.2,0,2.4,0.4,3.3,1.2c9.5,7.8,26.6,13,46.1,13
		c1.6,0,3.1,0,4.6-0.1c1.2-0.1,2.4,0.3,3.3,1c10.5,7.9,27,13.1,45.6,13.1c22.3,0,41.6-7.4,51.1-18.1c1.3-1.5,3.3-2.1,5.2-1.6
		c8.3,2.2,17.6,3.5,27.2,3.5c37.8,0,68.4-18.8,68.4-41.9C1009.7,253.6,979,234.9,941.3,234.9z"/>
	<g>
		<path class="st1" d="M310.8,140.2c4.8-6.3-2.3-13.3-8.6-8.6C297.5,137.9,304.5,144.9,310.8,140.2z M303.4,135.9
			c0-1.8,1.4-3.2,3.2-3.2c1.8,0,3.2,1.4,3.2,3.2c0,1.8-1.4,3.2-3.2,3.2C304.9,139.1,303.4,137.7,303.4,135.9z"/>
		<rect x="303.8" y="118.9" class="st2" width="5.5" height="4.3"/>
		
			<rect x="304.7" y="123.2" transform="matrix(-1 -4.674495e-11 4.674495e-11 -1 613.0094 253.6154)" class="st2" width="3.7" height="7.2"/>
		<path class="st2" d="M306.5,135.9h0.1c0.4,0,0.7-0.3,0.7-0.7v-4.2c0-0.4-0.3-0.7-0.7-0.7h-0.1c-0.4,0-0.7,0.3-0.7,0.7v4.2
			C305.8,135.6,306.1,135.9,306.5,135.9z"/>
		<polyline class="st2" points="288.7,128.3 293.4,118 298.5,118 291.4,129.5 		"/>
		<line class="st2" x1="291.4" y1="122.5" x2="295.8" y2="122.5"/>
		
			<rect x="230.7" y="115" transform="matrix(-1 -4.471324e-11 4.471324e-11 -1 467.27 237.8664)" class="st2" width="5.8" height="7.8"/>
		
			<rect x="232.4" y="122.9" transform="matrix(-1 -4.543178e-11 4.543178e-11 -1 467.27 254.0327)" class="st2" width="2.4" height="8.3"/>
		<path class="st1" d="M237.1,138.2c4.1-5.4-2-11.4-7.3-7.3C225.6,136.2,231.7,142.3,237.1,138.2z M230.7,134.5
			c0-1.5,1.2-2.7,2.7-2.7s2.7,1.2,2.7,2.7c0,1.5-1.2,2.7-2.7,2.7S230.7,136,230.7,134.5z"/>
		<path class="st1" d="M282,134.1c0,3.2,2.6,5.8,5.8,5.8c3.2,0,5.8-2.6,5.8-5.8s-2.6-5.8-5.8-5.8C284.6,128.3,282,130.9,282,134.1z
			 M284.8,134.1c0-1.8,1.4-3.2,3.2-3.2s3.2,1.4,3.2,3.2s-1.4,3.2-3.2,3.2S284.8,135.9,284.8,134.1z"/>
		<path class="st2" d="M431.5,49h-12c-0.2,0-0.5,0.1-0.6,0.3l-18.6,31.8c-0.1,0.2-0.3,0.3-0.4,0.3l-40.1,10.1l-62.7-4.3
			c0,0-35.6-16-36.8-16.3c-1.2-0.3-23.7-3.9-24.2-0.1c0,1.8,30,18.4,30,18.4s-10.5,4.7-13,8.1c-11.1,0.8-27.7,0.9-32.5,4.8
			c-5.4,0.6-8.6,2-8.6,3.9c0,2,8.6,3.7,8.6,3.7s3,5.8,22.6,7.1c19.6,1.2,97.7,3.3,98.9,3.1c1.1-0.1,73.4-11.3,75.5-12.7
			c1.6-1.1,8.2-5.9,11.4-8.2c0.6-0.4,0.3-1.3-0.4-1.3h0c-0.4,0-0.7-0.4-0.7-0.8l4.3-47.4C432.3,49.4,431.9,49,431.5,49z"/>
		<line class="st3" x1="359.7" y1="91.6" x2="428.1" y2="97.7"/>
		<path class="st2" d="M341.1,106.1l32.9,38.4c0.9,1.1,0.3,2.7-1.1,2.9l-13.8,2.1c-0.5,0.1-0.9,0-1.3-0.3l-54.1-39.2"/>
		<path class="st3" d="M267.2,88.7c1.9,1.8,1.9,4.1,1.9,4.9c0,0.2-0.1,0.3-0.2,0.5l-6.6,6.1c-0.2,0.2-0.5,0.2-0.7,0.1l-8.5-2.9
			c0,0,4.6-3.7,6.5-4.8C261,91.8,267.2,88.7,267.2,88.7z"/>
		<path class="st3" d="M337.5,102.1h7.3c0.7,0,1.2-0.5,1.2-1.2v-4.3c0-0.7-0.5-1.2-1.2-1.2h-7.3c-0.7,0-1.2,0.5-1.2,1.2v4.3
			C336.3,101.6,336.8,102.1,337.5,102.1z"/>
		<path class="st3" d="M324.7,102.1h7.3c0.7,0,1.2-0.5,1.2-1.2v-4.3c0-0.7-0.5-1.2-1.2-1.2h-7.3c-0.7,0-1.2,0.5-1.2,1.2v4.3
			C323.5,101.6,324,102.1,324.7,102.1z"/>
		<path class="st3" d="M311.9,102.1h7.3c0.7,0,1.2-0.5,1.2-1.2v-4.3c0-0.7-0.5-1.2-1.2-1.2h-7.3c-0.7,0-1.2,0.5-1.2,1.2v4.3
			C310.7,101.6,311.2,102.1,311.9,102.1z"/>
		<path class="st3" d="M299,102.1h7.3c0.7,0,1.2-0.5,1.2-1.2v-4.3c0-0.7-0.5-1.2-1.2-1.2H299c-0.7,0-1.2,0.5-1.2,1.2v4.3
			C297.9,101.6,298.4,102.1,299,102.1z"/>
		<path class="st3" d="M286.2,102.1h7.3c0.7,0,1.2-0.5,1.2-1.2v-4.3c0-0.7-0.5-1.2-1.2-1.2h-7.3c-0.7,0-1.2,0.5-1.2,1.2v4.3
			C285.1,101.6,285.6,102.1,286.2,102.1z"/>
		<path class="st3" d="M278.1,96v5c0,0.4-0.3,0.7-0.7,0.7l-9.5-0.3c-0.6,0-0.9-0.8-0.5-1.2l6.2-6.2c0.2-0.2,0.5-0.3,0.8-0.1l3.3,1.5
			C277.9,95.4,278.1,95.7,278.1,96z"/>
		<path class="st2" d="M281.9,111.3l-10.2-21.8c-0.1-0.2-0.4-0.4-0.6-0.4h-2.8c-0.5,0-0.8,0.5-0.6,1l9.2,21.8
			c0.1,0.3,0.4,0.4,0.6,0.4h3.8C281.8,112.3,282.1,111.7,281.9,111.3z"/>
		<path class="st3" d="M265.1,89.1h9.5c0.7,0,1.2-0.5,1.2-1.2v-0.6c0-0.7-0.5-1.2-1.2-1.2h-9.5c-0.7,0-1.2,0.5-1.2,1.2v0.6
			C264,88.6,264.5,89.1,265.1,89.1z"/>
		<line class="st3" x1="220.6" y1="102.3" x2="220.6" y2="109.9"/>
	</g>
	<g>
		<path class="st1" d="M570.8,302.1c4.8-6.3-2.3-13.3-8.6-8.6C557.5,299.8,564.5,306.9,570.8,302.1z M563.4,297.8
			c0-1.8,1.4-3.2,3.2-3.2c1.8,0,3.2,1.4,3.2,3.2c0,1.8-1.4,3.2-3.2,3.2C564.9,301,563.4,299.6,563.4,297.8z"/>
		<rect x="563.8" y="280.8" class="st2" width="5.5" height="4.3"/>
		
			<rect x="564.7" y="285.1" transform="matrix(-1 -4.376156e-11 4.376156e-11 -1 1133.0383 577.4371)" class="st2" width="3.7" height="7.2"/>
		<path class="st2" d="M566.5,297.8h0.1c0.4,0,0.7-0.3,0.7-0.7V293c0-0.4-0.3-0.7-0.7-0.7h-0.1c-0.4,0-0.7,0.3-0.7,0.7v4.2
			C565.8,297.5,566.1,297.8,566.5,297.8z"/>
		<polyline class="st2" points="548.7,290.2 553.5,279.9 558.5,279.9 551.5,291.4 		"/>
		<line class="st2" x1="551.4" y1="284.4" x2="555.8" y2="284.4"/>
		
			<rect x="490.8" y="276.9" transform="matrix(-1 -4.502810e-11 4.502810e-11 -1 987.299 561.6881)" class="st2" width="5.8" height="7.8"/>
		
			<rect x="492.4" y="284.8" transform="matrix(-1 -4.468704e-11 4.468704e-11 -1 987.299 577.8544)" class="st2" width="2.4" height="8.3"/>
		<path class="st1" d="M497.1,300.1c4.1-5.4-2-11.4-7.3-7.3C485.6,298.1,491.7,304.2,497.1,300.1z M490.8,296.5
			c0-1.5,1.2-2.7,2.7-2.7c1.5,0,2.7,1.2,2.7,2.7c0,1.5-1.2,2.7-2.7,2.7C492,299.2,490.8,298,490.8,296.5z"/>
		<path class="st1" d="M542,296c0,3.2,2.6,5.8,5.8,5.8s5.8-2.6,5.8-5.8c0-3.2-2.6-5.8-5.8-5.8S542,292.8,542,296z M544.8,296
			c0-1.8,1.4-3.2,3.2-3.2s3.2,1.4,3.2,3.2c0,1.8-1.4,3.2-3.2,3.2S544.8,297.8,544.8,296z"/>
		<path class="st2" d="M691.5,210.9h-12c-0.3,0-0.5,0.1-0.6,0.3l-18.6,31.8c-0.1,0.2-0.3,0.3-0.4,0.3l-40.1,10.1l-62.7-4.3
			c0,0-35.6-16-36.8-16.3c-1.2-0.3-23.7-3.9-24.2-0.1c0,1.8,30,18.4,30,18.4s-10.5,4.7-13,8.1c-11.1,0.8-27.7,0.9-32.5,4.8
			c-5.4,0.6-8.6,2-8.6,3.9c0,2,8.6,3.7,8.6,3.7s3,5.8,22.6,7.1c19.6,1.2,97.7,3.3,98.9,3.1s73.4-11.3,75.5-12.7
			c1.6-1.1,8.2-5.9,11.4-8.2c0.6-0.4,0.3-1.3-0.4-1.3h0c-0.4,0-0.7-0.4-0.7-0.8l4.3-47.4C692.3,211.3,692,210.9,691.5,210.9z"/>
		<line class="st3" x1="619.8" y1="253.5" x2="688.1" y2="259.6"/>
		<path class="st2" d="M601.1,268l32.9,38.4c0.9,1.1,0.3,2.7-1.1,2.9l-13.8,2.1c-0.5,0.1-0.9,0-1.3-0.3l-54.1-39.2"/>
		<path class="st3" d="M527.2,250.6c1.9,1.8,1.9,4.1,1.9,4.9c0,0.2-0.1,0.3-0.2,0.5l-6.6,6.1c-0.2,0.2-0.5,0.2-0.7,0.1l-8.5-2.9
			c0,0,4.6-3.7,6.5-4.8C521,253.7,527.2,250.6,527.2,250.6z"/>
		<path class="st3" d="M597.5,264h7.3c0.7,0,1.2-0.5,1.2-1.2v-4.3c0-0.7-0.5-1.2-1.2-1.2h-7.3c-0.7,0-1.2,0.5-1.2,1.2v4.3
			C596.3,263.5,596.8,264,597.5,264z"/>
		<path class="st3" d="M584.7,264h7.3c0.7,0,1.2-0.5,1.2-1.2v-4.3c0-0.7-0.5-1.2-1.2-1.2h-7.3c-0.7,0-1.2,0.5-1.2,1.2v4.3
			C583.5,263.5,584,264,584.7,264z"/>
		<path class="st3" d="M571.9,264h7.3c0.7,0,1.2-0.5,1.2-1.2v-4.3c0-0.7-0.5-1.2-1.2-1.2h-7.3c-0.7,0-1.2,0.5-1.2,1.2v4.3
			C570.7,263.5,571.2,264,571.9,264z"/>
		<path class="st3" d="M559.1,264h7.3c0.7,0,1.2-0.5,1.2-1.2v-4.3c0-0.7-0.5-1.2-1.2-1.2h-7.3c-0.7,0-1.2,0.5-1.2,1.2v4.3
			C557.9,263.5,558.4,264,559.1,264z"/>
		<path class="st3" d="M546.3,264h7.3c0.7,0,1.2-0.5,1.2-1.2v-4.3c0-0.7-0.5-1.2-1.2-1.2h-7.3c-0.7,0-1.2,0.5-1.2,1.2v4.3
			C545.1,263.5,545.6,264,546.3,264z"/>
		<path class="st3" d="M538.1,257.9v5c0,0.4-0.3,0.7-0.7,0.7l-9.5-0.3c-0.6,0-0.9-0.8-0.5-1.2l6.2-6.2c0.2-0.2,0.5-0.3,0.8-0.1
			l3.3,1.5C537.9,257.3,538.1,257.6,538.1,257.9z"/>
		<path class="st2" d="M541.9,273.2l-10.2-21.8c-0.1-0.2-0.4-0.4-0.6-0.4h-2.8c-0.5,0-0.8,0.5-0.6,1l9.2,21.8
			c0.1,0.3,0.4,0.4,0.6,0.4h3.8C541.8,274.2,542.2,273.6,541.9,273.2z"/>
		<path class="st3" d="M525.2,251h9.5c0.7,0,1.2-0.5,1.2-1.2v-0.6c0-0.7-0.5-1.2-1.2-1.2h-9.5c-0.7,0-1.2,0.5-1.2,1.2v0.6
			C524,250.5,524.5,251,525.2,251z"/>
		<line class="st3" x1="480.6" y1="264.2" x2="480.6" y2="271.8"/>
	</g>
	<line class="st4" x1="293.8" y1="97.6" x2="314.6" y2="97.6"/>
	<line class="st4" x1="187.2" y1="88" x2="187.2" y2="290.4"/>
	<line class="st4" x1="176.8" y1="289.9" x2="197.6" y2="290.2"/>
	<line class="st4" x1="176.8" y1="87.9" x2="197.6" y2="88.2"/>
	<polyline class="st4" points="231.2,267.9 435.4,267.9 439.8,267.9 295.4,123.2 	"/>
	<path class="st4" d="M361.6,267.9c0-23.9,12.5-41.2,34.1-43.8"/>
</g>
<g>
	<g>
		<path class="st1" d="M63.2,83.1l-2,0.3v-1.7l4-0.6v12.4h-2.1V83.1z"/>
		<path class="st1" d="M68.6,92.5c0.3-0.7,0.7-1.3,1.3-1.9c0.5-0.6,1.2-1.3,2-1.9c0.8-0.7,1.3-1.2,1.7-1.5s0.6-0.7,0.7-1
			s0.2-0.7,0.2-1.2c0-0.7-0.2-1.2-0.6-1.5c-0.4-0.3-1-0.5-1.9-0.5c-0.9,0-1.9,0.2-2.9,0.6v-1.8c0.5-0.2,1-0.3,1.6-0.4
			c0.6-0.1,1.2-0.1,1.7-0.1c1.3,0,2.4,0.3,3.1,1c0.7,0.7,1.1,1.6,1.1,2.8c0,0.8-0.2,1.5-0.6,2.1c-0.4,0.6-1,1.2-1.8,2l-0.3,0.3
			c-0.7,0.6-1.3,1.1-1.6,1.5c-0.4,0.4-0.7,0.8-0.9,1.2h5.4v1.6h-8V92.5z"/>
		<path class="st1" d="M80.3,92.2h1.8l-0.9,3.6h-1.5L80.3,92.2z"/>
		<path class="st1" d="M86.4,92.2c-0.9-1.1-1.3-2.6-1.3-4.7c0-2.1,0.4-3.7,1.3-4.8s2.2-1.6,4.1-1.6c1.9,0,3.3,0.5,4.1,1.6
			s1.3,2.7,1.3,4.8c0,2.1-0.4,3.6-1.3,4.7s-2.2,1.6-4.1,1.6C88.6,93.8,87.3,93.3,86.4,92.2z M93,90.9c0.5-0.8,0.8-1.9,0.8-3.4
			c0-1.6-0.2-2.8-0.7-3.5c-0.5-0.8-1.3-1.2-2.5-1.2c-1.2,0-2.1,0.4-2.5,1.2c-0.5,0.8-0.7,2-0.7,3.5c0,1.5,0.3,2.6,0.8,3.4
			c0.5,0.8,1.3,1.1,2.5,1.1C91.7,92.1,92.5,91.7,93,90.9z"/>
		<path class="st1" d="M100.2,92.2c-0.9-1.1-1.3-2.6-1.3-4.7c0-2.1,0.4-3.7,1.3-4.8s2.2-1.6,4.1-1.6c1.9,0,3.3,0.5,4.1,1.6
			s1.3,2.7,1.3,4.8c0,2.1-0.4,3.6-1.3,4.7s-2.2,1.6-4.1,1.6C102.4,93.8,101,93.3,100.2,92.2z M106.8,90.9c0.5-0.8,0.8-1.9,0.8-3.4
			c0-1.6-0.2-2.8-0.7-3.5c-0.5-0.8-1.3-1.2-2.5-1.2c-1.2,0-2.1,0.4-2.5,1.2c-0.5,0.8-0.7,2-0.7,3.5c0,1.5,0.3,2.6,0.8,3.4
			c0.5,0.8,1.3,1.1,2.5,1.1C105.4,92.1,106.3,91.7,106.8,90.9z"/>
		<path class="st1" d="M114,92.2c-0.9-1.1-1.3-2.6-1.3-4.7c0-2.1,0.4-3.7,1.3-4.8c0.8-1.1,2.2-1.6,4.1-1.6c1.9,0,3.3,0.5,4.1,1.6
			c0.8,1.1,1.3,2.7,1.3,4.8c0,2.1-0.4,3.6-1.3,4.7c-0.9,1.1-2.2,1.6-4.1,1.6C116.2,93.8,114.8,93.3,114,92.2z M120.6,90.9
			c0.5-0.8,0.8-1.9,0.8-3.4c0-1.6-0.2-2.8-0.7-3.5s-1.3-1.2-2.5-1.2c-1.2,0-2.1,0.4-2.5,1.2s-0.7,2-0.7,3.5c0,1.5,0.3,2.6,0.8,3.4
			c0.5,0.8,1.3,1.1,2.5,1.1C119.2,92.1,120.1,91.7,120.6,90.9z"/>
		<path class="st1" d="M134.7,83.2h2l1.5,7.3l1.9-5.9v-1.5h1.5l2.1,7.3l2.1-10.4h2l-2.9,13.3H143l-1.9-6.5l-2.1,6.5h-1.9L134.7,83.2
			z"/>
		<path class="st1" d="M143.1,95.9h-1.2l0.1-1.3h2.9v3.7h-1.8V95.9z"/>
		<path class="st1" d="M151.2,92.4c-0.8-0.9-1.1-2.1-1.1-3.9c0-1.8,0.3-3.1,0.9-4.1s1.4-1.4,2.5-1.4c0.5,0,0.9,0.1,1.2,0.2
			c0.3,0.2,0.6,0.4,0.8,0.7c0.3-0.3,0.6-0.5,1-0.7s0.9-0.3,1.3-0.3c0.8,0,1.4,0.2,1.8,0.7c0.4,0.5,0.6,1.2,0.6,2v7.7h-2.1v-7.4
			c0-0.5-0.1-0.9-0.2-1.1c-0.1-0.2-0.4-0.3-0.8-0.3c-0.3,0-0.5,0.1-0.7,0.2c-0.2,0.1-0.4,0.4-0.5,0.7h-1.1c-0.2-0.3-0.3-0.5-0.5-0.7
			c-0.2-0.1-0.4-0.2-0.7-0.2c-0.6,0-1.1,0.3-1.3,1c-0.2,0.6-0.4,1.6-0.4,2.8c0,1.3,0.2,2.2,0.6,2.7c0.4,0.5,1.1,0.8,1.9,0.8
			c0.6,0,1,0,1.3-0.2v1.6c-0.4,0.2-1,0.2-1.7,0.2C153,93.7,152,93.2,151.2,92.4z"/>
	</g>
</g>
<g>
	<g>
		<path class="st1" d="M71.7,277.8h-6v-1.6h8.2v1.3l-4.6,10.9h-2.1L71.7,277.8z"/>
		<path class="st1" d="M75.6,287.2h1.8l-0.9,3.6H75L75.6,287.2z"/>
		<path class="st1" d="M81.7,287.2c-0.9-1.1-1.3-2.6-1.3-4.7c0-2.1,0.4-3.7,1.3-4.8s2.2-1.6,4.1-1.6c1.9,0,3.3,0.5,4.1,1.6
			s1.3,2.7,1.3,4.8c0,2.1-0.4,3.6-1.3,4.7s-2.2,1.6-4.1,1.6C83.9,288.8,82.5,288.3,81.7,287.2z M88.3,285.9c0.5-0.8,0.8-1.9,0.8-3.4
			c0-1.6-0.2-2.8-0.7-3.5c-0.5-0.8-1.3-1.2-2.5-1.2c-1.2,0-2.1,0.4-2.5,1.2c-0.5,0.8-0.7,2-0.7,3.5c0,1.5,0.3,2.6,0.8,3.4
			c0.5,0.8,1.3,1.1,2.5,1.1C86.9,287.1,87.8,286.7,88.3,285.9z"/>
		<path class="st1" d="M95.4,287.2c-0.9-1.1-1.3-2.6-1.3-4.7c0-2.1,0.4-3.7,1.3-4.8s2.2-1.6,4.1-1.6c1.9,0,3.3,0.5,4.1,1.6
			s1.3,2.7,1.3,4.8c0,2.1-0.4,3.6-1.3,4.7s-2.2,1.6-4.1,1.6C97.7,288.8,96.3,288.3,95.4,287.2z M102,285.9c0.5-0.8,0.8-1.9,0.8-3.4
			c0-1.6-0.2-2.8-0.7-3.5c-0.5-0.8-1.3-1.2-2.5-1.2c-1.2,0-2.1,0.4-2.5,1.2c-0.5,0.8-0.7,2-0.7,3.5c0,1.5,0.3,2.6,0.8,3.4
			c0.5,0.8,1.3,1.1,2.5,1.1C100.7,287.1,101.5,286.7,102,285.9z"/>
		<path class="st1" d="M109.2,287.2c-0.9-1.1-1.3-2.6-1.3-4.7c0-2.1,0.4-3.7,1.3-4.8c0.8-1.1,2.2-1.6,4.1-1.6c1.9,0,3.3,0.5,4.1,1.6
			c0.8,1.1,1.3,2.7,1.3,4.8c0,2.1-0.4,3.6-1.3,4.7c-0.9,1.1-2.2,1.6-4.1,1.6C111.4,288.8,110.1,288.3,109.2,287.2z M115.8,285.9
			c0.5-0.8,0.8-1.9,0.8-3.4c0-1.6-0.2-2.8-0.7-3.5s-1.3-1.2-2.5-1.2c-1.2,0-2.1,0.4-2.5,1.2s-0.7,2-0.7,3.5c0,1.5,0.3,2.6,0.8,3.4
			c0.5,0.8,1.3,1.1,2.5,1.1C114.5,287.1,115.3,286.7,115.8,285.9z"/>
		<path class="st1" d="M130,278.2h2l1.5,7.3l1.9-5.9v-1.5h1.5l2.1,7.3l2.1-10.4h2l-2.9,13.3h-1.9l-1.9-6.5l-2.1,6.5h-1.9L130,278.2z
			"/>
		<path class="st1" d="M138.3,290.9h-1.2l0.1-1.3h2.9v3.7h-1.8V290.9z"/>
		<path class="st1" d="M146.5,287.4c-0.8-0.9-1.1-2.1-1.1-3.9c0-1.8,0.3-3.1,0.9-4.1s1.4-1.4,2.5-1.4c0.5,0,0.9,0.1,1.2,0.2
			c0.3,0.2,0.6,0.4,0.8,0.7c0.3-0.3,0.6-0.5,1-0.7s0.9-0.3,1.3-0.3c0.8,0,1.4,0.2,1.8,0.7c0.4,0.5,0.6,1.2,0.6,2v7.7h-2.1v-7.4
			c0-0.5-0.1-0.9-0.2-1.1c-0.1-0.2-0.4-0.3-0.8-0.3c-0.3,0-0.5,0.1-0.7,0.2c-0.2,0.1-0.4,0.4-0.5,0.7h-1.1c-0.2-0.3-0.3-0.5-0.5-0.7
			c-0.2-0.1-0.4-0.2-0.7-0.2c-0.6,0-1.1,0.3-1.3,1c-0.2,0.6-0.4,1.6-0.4,2.8c0,1.3,0.2,2.2,0.6,2.7c0.4,0.5,1.1,0.8,1.9,0.8
			c0.6,0,1,0,1.3-0.2v1.6c-0.4,0.2-1,0.2-1.7,0.2C148.3,288.7,147.3,288.2,146.5,287.4z"/>
	</g>
</g>
<g>
	<g>
		<path class="st6" d="M509,115.3c0-0.5,0.2-1,0.5-1.3s0.7-0.5,1.3-0.5h1.9l0.1,1.5h-0.9c-0.3,0-0.5,0.1-0.6,0.2s-0.2,0.4-0.2,0.7
			v4.7l2.4-4.1h0.8l2.4,4.1v-7.1h1.9v9.7h-1.9l-2.7-4.8l-2.7,4.8H509V115.3z"/>
		<path class="st6" d="M524,123.2l-2.7-6.7h1.9l2.2,5.4c1,0,1.8-0.2,2.2-0.9c0.5-0.6,0.7-1.6,0.7-3c0-0.8-0.1-1.4-0.2-1.9
			c-0.1-0.4-0.4-0.8-0.7-0.9c-0.3-0.2-0.8-0.3-1.4-0.3h-0.7v-1.5h0.9c1.4,0,2.4,0.4,3,1.1c0.6,0.7,1,1.9,1,3.4c0,1.8-0.4,3.2-1.2,4
			c-0.8,0.9-1.9,1.3-3.2,1.3C525,123.4,524.4,123.3,524,123.2z"/>
		<path class="st6" d="M533.5,121.3v-7.8h1.9v7.4c0,0.3,0.1,0.5,0.2,0.6c0.1,0.1,0.3,0.2,0.6,0.2h0.8v1.5h-1.7
			C534.1,123.2,533.5,122.6,533.5,121.3z"/>
		<path class="st6" d="M540.5,119.7c0-1.2,0.5-1.9,1.4-2.2l-1.9-0.5v-2c0.5-0.5,1.2-0.9,2-1.2c0.8-0.3,1.7-0.5,2.7-0.5
			c1.5,0,2.6,0.3,3.3,0.9c0.7,0.6,1.1,1.6,1.1,3v6h-2v-6.1c0-0.8-0.2-1.4-0.6-1.7s-1-0.5-2-0.5c-0.6,0-1.1,0.1-1.7,0.3
			c-0.5,0.2-0.9,0.4-1.2,0.7v0.3l2.1,0.5v1.3c-0.5,0.1-0.8,0.3-1,0.6c-0.2,0.3-0.3,0.7-0.3,1.2v3.5h-1.9V119.7z"/>
		<path class="st6" d="M553.3,122.7c-0.6-0.5-0.9-1.2-0.9-2.2c0-1,0.3-1.7,1-2.2c0.6-0.5,1.6-0.8,2.8-0.8h3v-0.6
			c0-0.5-0.1-0.9-0.2-1.1c-0.2-0.3-0.4-0.5-0.8-0.6s-0.9-0.2-1.5-0.2c-1.1,0-2.2,0.2-3.2,0.5v-1.5c0.5-0.2,1-0.3,1.7-0.4
			c0.6-0.1,1.2-0.2,1.8-0.2c1.4,0,2.5,0.3,3.1,0.9s1,1.5,1,2.8v6.2h-2v-4.3h-2.8c-0.7,0-1.2,0.1-1.5,0.3c-0.3,0.2-0.5,0.6-0.5,1.2
			c0,0.5,0.2,0.9,0.5,1.1s0.8,0.3,1.5,0.3c0.5,0,0.9,0,1.2-0.1v1.5c-0.5,0.1-1.1,0.2-1.8,0.2C554.7,123.4,553.9,123.1,553.3,122.7z"
			/>
		<path class="st6" d="M553.6,110.6h3.5v-1.5h1.4v1.5h1.1v-1.5h1.4v2.9h-7.5L553.6,110.6z"/>
		<path class="st6" d="M566.2,123.2c-0.7-0.1-1.3-0.3-1.8-0.5v-5h3.9l0.1,1.5h-2.1v2.4c0.6,0.2,1.2,0.3,2,0.3c0.7,0,1.3-0.1,1.7-0.3
			s0.7-0.6,0.9-1.1c0.2-0.5,0.3-1.2,0.3-2c0-0.9-0.1-1.6-0.3-2.1c-0.2-0.5-0.6-0.9-1.1-1.1c-0.5-0.2-1.2-0.3-2-0.3
			c-1.2,0-2.3,0.2-3.2,0.5v-1.5c0.5-0.2,1.1-0.3,1.7-0.4c0.7-0.1,1.3-0.1,2-0.1c1.7,0,2.9,0.4,3.7,1.3c0.8,0.8,1.2,2.1,1.2,3.8
			c0,1.7-0.4,2.9-1.2,3.8c-0.8,0.8-2,1.3-3.6,1.3C567.6,123.4,566.9,123.3,566.2,123.2z"/>
		<path class="st6" d="M576.4,121.3v-7.8h2v7.4c0,0.3,0.1,0.5,0.2,0.6s0.3,0.2,0.6,0.2h0.7v1.5h-1.6
			C577,123.2,576.4,122.6,576.4,121.3z M580.7,121.3v-7.8h1.9v7.4c0,0.3,0.1,0.5,0.2,0.6s0.3,0.2,0.6,0.2h0.7v1.5h-1.6
			C581.4,123.2,580.7,122.6,580.7,121.3z"/>
		<path class="st6" d="M588.6,122.4c-0.8-0.7-1.2-1.7-1.2-3v-5.9h2v6c0,0.8,0.2,1.4,0.6,1.8c0.4,0.4,1,0.6,1.9,0.6s1.5-0.2,1.9-0.6
			s0.6-1,0.6-1.8v-8.9h1.9v8.8c0,1.3-0.4,2.3-1.2,3s-1.9,1-3.3,1C590.5,123.4,589.4,123.1,588.6,122.4z"/>
		<path class="st6" d="M588.9,110.4h-1.4V109h2.8v1.6h3l-0.1,1.4h-4.2V110.4z"/>
		<path class="st6" d="M602,123.2l-2.7-6.7h1.9l2.2,5.4c1,0,1.8-0.2,2.2-0.9c0.5-0.6,0.7-1.6,0.7-3c0-0.8-0.1-1.4-0.2-1.9
			c-0.1-0.4-0.4-0.8-0.7-0.9c-0.3-0.2-0.8-0.3-1.4-0.3h-0.7v-1.5h0.9c1.4,0,2.4,0.4,3,1.1c0.6,0.7,1,1.9,1,3.4c0,1.8-0.4,3.2-1.2,4
			s-1.9,1.3-3.2,1.3C603,123.4,602.4,123.3,602,123.2z"/>
	</g>
</g>
<g>
	<g>
		<path class="st6" d="M496.8,144.6c-0.3-0.4-0.4-1-0.4-1.7v-6c0-0.7-0.1-1.3-0.4-1.7c-0.3-0.4-0.8-0.7-1.4-1v-1.5h5.3v1.5H497
			c0.5,0.3,0.8,0.6,1,1c0.2,0.4,0.3,1,0.3,1.8v5.8c0,0.3,0.1,0.5,0.2,0.6c0.1,0.1,0.3,0.2,0.6,0.2h0.8v1.5h-1.7
			C497.6,145.2,497.1,145,496.8,144.6z"/>
		<path class="st6" d="M503.6,144.5c-0.7-0.6-1.1-1.5-1.1-2.6v-0.7c0-0.4,0.1-0.8,0.3-1.2c0.2-0.4,0.5-0.8,0.9-1.3
			c0.3-0.4,0.5-0.7,0.6-0.8c0.1-0.2,0.2-0.4,0.2-0.5c0-0.3-0.1-0.4-0.4-0.4c-0.2,0-0.4,0.1-0.6,0.3v0.7h-1.3v-2.4h1.4v0.5
			c0.2-0.2,0.4-0.3,0.6-0.4s0.5-0.1,0.8-0.1c0.4,0,0.8,0.1,1,0.4c0.2,0.2,0.4,0.6,0.4,1c0,0.4-0.1,0.7-0.3,1s-0.4,0.7-0.7,1.2
			c-0.3,0.5-0.5,0.8-0.7,1.1c-0.2,0.3-0.2,0.6-0.2,0.9v0.8c0,0.6,0.2,1.1,0.6,1.4c0.4,0.3,0.9,0.5,1.6,0.5c1.5,0,2.3-0.7,2.3-2v-1.2
			c0-0.6-0.1-1-0.3-1.2c-0.2-0.2-0.5-0.3-1-0.3h-0.5l0.1-1.4h0.4c0.5,0,0.8-0.1,1-0.4c0.2-0.2,0.3-0.6,0.3-1.2v-0.9h1.9v0.9
			c0,0.6-0.1,1.1-0.3,1.4c-0.2,0.4-0.5,0.6-1,0.8c0.5,0.2,0.8,0.5,1,0.9c0.2,0.4,0.3,0.8,0.3,1.4v1c0,1.2-0.4,2-1.1,2.7
			c-0.7,0.6-1.8,1-3.1,1C505.4,145.4,504.3,145.1,503.6,144.5z"/>
		<path class="st6" d="M514.6,143.3v-7.8h1.9v7.4c0,0.3,0.1,0.5,0.2,0.6c0.1,0.1,0.3,0.2,0.6,0.2h0.8v1.5h-1.7
			C515.2,145.2,514.6,144.6,514.6,143.3z"/>
		<path class="st6" d="M522.1,144.2c-0.7-0.8-1.1-2-1.1-3.7c0-1.6,0.4-2.9,1.3-3.8c0.8-0.9,2.1-1.4,3.7-1.4c1.1,0,1.9,0.2,2.6,0.5
			s1.2,0.8,1.5,1.4s0.5,1.3,0.5,2v5.9h-2v-5.8c0-0.8-0.2-1.4-0.6-1.8s-1.1-0.6-2.1-0.6c-1,0-1.8,0.3-2.3,0.9
			c-0.5,0.6-0.7,1.5-0.7,2.7c0,1.2,0.2,2,0.6,2.6c0.4,0.5,1,0.8,1.8,0.8c0.6,0,1,0,1.2-0.1v1.5c-0.4,0.1-0.9,0.2-1.6,0.2
			C523.8,145.4,522.8,145,522.1,144.2z"/>
		<path class="st6" d="M523.2,132.6h5.8v-1.5h1.6v2.9h-7.5L523.2,132.6z"/>
		<path class="st6" d="M535.1,144.7c-0.8-0.5-1.2-1.3-1.2-2.3c0-0.5,0.1-0.9,0.4-1.3c0.2-0.4,0.6-0.7,1-0.9
			c-0.4-0.1-0.7-0.4-0.9-0.7c-0.2-0.4-0.4-0.8-0.4-1.3c0-0.9,0.3-1.6,0.8-2.1s1.3-0.7,2.2-0.7c0.6,0,1.1,0.1,1.6,0.2v1.5
			c-0.3-0.1-0.8-0.1-1.2-0.1c-1,0-1.5,0.4-1.5,1.2c0,0.9,0.6,1.3,1.7,1.3h1l0.1,1.5h-1.2c-1.1,0-1.7,0.5-1.7,1.5
			c0,0.5,0.2,0.9,0.6,1.1s1,0.4,1.9,0.4c0.9,0,1.5-0.2,1.9-0.5c0.4-0.3,0.6-0.9,0.6-1.6v-6.3h1.9v6c0,1.3-0.4,2.3-1.1,2.9
			c-0.7,0.6-1.8,1-3.3,1C537,145.4,535.9,145.1,535.1,144.7z"/>
		<path class="st6" d="M549.8,145.1c-0.5-0.2-1.1-0.5-1.5-0.9l-0.1,1.1h-1.8v-9.7h2v7.2c0.3,0.3,0.7,0.6,1.2,0.8
			c0.5,0.2,1,0.3,1.5,0.3c0.7,0,1.2-0.2,1.5-0.5s0.5-0.8,0.5-1.6v-6.3h1.9v6.4c0,1.1-0.3,2-0.9,2.6s-1.4,0.9-2.4,0.9
			C550.9,145.4,550.3,145.3,549.8,145.1z"/>
		<path class="st6" d="M558.6,139.1c0-1.2,0.4-2.1,1.1-2.8c0.7-0.6,1.8-1,3.3-1c1.5,0,2.6,0.3,3.3,1c0.7,0.6,1.1,1.6,1.1,2.8v6.2h-2
			v-6.3c0-1.3-0.8-2-2.4-2c-0.8,0-1.4,0.2-1.8,0.5c-0.4,0.3-0.6,0.8-0.6,1.5v2c0.5-0.4,1.2-0.6,1.9-0.6h1.2l0.1,1.6h-1.3
			c-0.7,0-1.3,0.2-1.8,0.6v2.8h-2V139.1z"/>
		<path class="st6" d="M571.6,144.7c-0.6-0.5-0.9-1.2-0.9-2.2c0-1,0.3-1.7,1-2.2c0.6-0.5,1.6-0.8,2.8-0.8h3v-0.6
			c0-0.5-0.1-0.9-0.2-1.1c-0.2-0.3-0.4-0.5-0.8-0.6s-0.9-0.2-1.5-0.2c-1.1,0-2.2,0.2-3.2,0.5v-1.5c0.5-0.2,1-0.3,1.7-0.4
			c0.6-0.1,1.2-0.2,1.8-0.2c1.4,0,2.5,0.3,3.1,0.9s1,1.5,1,2.8v6.2h-2v-4.3h-2.8c-0.7,0-1.2,0.1-1.5,0.3c-0.3,0.2-0.5,0.6-0.5,1.2
			c0,0.5,0.2,0.9,0.5,1.1s0.8,0.3,1.5,0.3c0.5,0,0.9,0,1.2-0.1v1.5c-0.5,0.1-1.1,0.2-1.8,0.2C573,145.4,572.2,145.1,571.6,144.7z"/>
		<path class="st6" d="M584.5,145.2c-0.7-0.1-1.3-0.3-1.8-0.5v-5h3.9l0.1,1.5h-2.1v2.4c0.6,0.2,1.2,0.3,2,0.3c0.7,0,1.3-0.1,1.7-0.3
			s0.7-0.6,0.9-1.1c0.2-0.5,0.3-1.2,0.3-2c0-0.9-0.1-1.6-0.3-2.1c-0.2-0.5-0.6-0.9-1.1-1.1c-0.5-0.2-1.2-0.3-2-0.3
			c-1.2,0-2.3,0.2-3.2,0.5v-1.5c0.5-0.2,1.1-0.3,1.7-0.4c0.7-0.1,1.3-0.1,2-0.1c1.7,0,2.9,0.4,3.7,1.3c0.8,0.8,1.2,2.1,1.2,3.8
			c0,1.7-0.4,2.9-1.2,3.8c-0.8,0.8-2,1.3-3.6,1.3C585.9,145.4,585.2,145.3,584.5,145.2z"/>
		<path class="st6" d="M595,143.3v-6.2c0-1.3,0.5-2.3,1.4-2.9h-2.8v-1.5h5.2v1.5c-0.6,0.3-1.1,0.6-1.4,1.1c-0.3,0.5-0.4,1.2-0.4,2.1
			v5.4c0,0.3,0.1,0.5,0.2,0.6c0.1,0.1,0.3,0.2,0.6,0.2h0.8v1.5h-1.7C595.6,145.2,595,144.6,595,143.3z"/>
		<path class="st6" d="M602.8,145.3c-0.6-0.1-1.1-0.2-1.4-0.4v-1.6c0.4,0.2,0.9,0.3,1.5,0.4c0.5,0.1,1,0.1,1.5,0.1
			c0.9,0,1.5-0.1,1.9-0.2c0.4-0.2,0.6-0.5,0.6-0.9c0-0.3-0.1-0.5-0.2-0.7c-0.1-0.2-0.3-0.3-0.6-0.4c-0.3-0.1-0.6-0.2-1.2-0.4
			l-0.7-0.2c-1-0.3-1.7-0.7-2.2-1.1c-0.5-0.4-0.7-1-0.7-1.7c0-0.9,0.3-1.6,1-2c0.7-0.5,1.6-0.7,2.9-0.7c0.5,0,1.1,0,1.6,0.1
			c0.5,0.1,1,0.2,1.4,0.3v1.6c-0.4-0.1-0.8-0.3-1.3-0.3c-0.5-0.1-0.9-0.1-1.4-0.1c-0.8,0-1.3,0.1-1.7,0.2s-0.6,0.5-0.6,0.9
			c0,0.3,0.1,0.5,0.2,0.6s0.4,0.3,0.7,0.4c0.3,0.1,0.7,0.3,1.3,0.5l0.5,0.2c1,0.3,1.8,0.7,2.2,1.1c0.5,0.4,0.7,1,0.7,1.8
			c0,0.9-0.3,1.6-1,2.1c-0.7,0.5-1.7,0.7-2.9,0.7C604,145.4,603.4,145.3,602.8,145.3z"/>
		<path class="st6" d="M612.6,144.2c-0.7-0.8-1.1-2-1.1-3.7c0-1.6,0.4-2.9,1.3-3.8s2.1-1.4,3.7-1.4c1.1,0,1.9,0.2,2.6,0.5
			s1.2,0.8,1.5,1.4s0.5,1.3,0.5,2v5.9h-2v-5.8c0-0.8-0.2-1.4-0.6-1.8s-1.1-0.6-2.1-0.6c-1,0-1.8,0.3-2.3,0.9
			c-0.5,0.6-0.7,1.5-0.7,2.7c0,1.2,0.2,2,0.6,2.6c0.4,0.5,1,0.8,1.8,0.8c0.6,0,1,0,1.2-0.1v1.5c-0.4,0.1-0.9,0.2-1.6,0.2
			C614.3,145.4,613.3,145,612.6,144.2z"/>
		<path class="st6" d="M616.9,131.4h5.3l-0.1,1.4h-3.6v1.3h-1.6V131.4z"/>
	</g>
</g>
<g>
	<g>
		<path class="st6" d="M822.3,273.3c0-0.5,0.2-1,0.5-1.3s0.7-0.5,1.3-0.5h1.9l0.1,1.5H825c-0.3,0-0.5,0.1-0.6,0.2s-0.2,0.4-0.2,0.7
			v4.7l2.4-4.1h0.8l2.4,4.1v-7.1h1.9v9.7h-1.9l-2.7-4.8l-2.7,4.8h-1.9V273.3z"/>
		<path class="st6" d="M837.3,281.2l-2.7-6.7h1.9l2.2,5.4c1,0,1.8-0.2,2.2-0.9c0.5-0.6,0.7-1.6,0.7-3c0-0.8-0.1-1.4-0.2-1.9
			c-0.1-0.4-0.4-0.8-0.7-0.9c-0.3-0.2-0.8-0.3-1.4-0.3h-0.7v-1.5h0.9c1.4,0,2.4,0.4,3,1.1c0.6,0.7,1,1.9,1,3.4c0,1.8-0.4,3.2-1.2,4
			c-0.8,0.9-1.9,1.3-3.2,1.3C838.3,281.4,837.7,281.3,837.3,281.2z"/>
		<path class="st6" d="M847.5,280.7c-0.8-0.5-1.2-1.3-1.2-2.3c0-0.5,0.1-0.9,0.4-1.3s0.6-0.7,1-0.9c-0.4-0.1-0.7-0.4-0.9-0.7
			c-0.2-0.4-0.4-0.8-0.4-1.3c0-0.9,0.3-1.6,0.8-2.1c0.6-0.5,1.3-0.7,2.2-0.7c0.6,0,1.1,0.1,1.6,0.2v1.5c-0.3-0.1-0.8-0.1-1.2-0.1
			c-1,0-1.5,0.4-1.5,1.2c0,0.9,0.6,1.3,1.7,1.3h1l0.1,1.5h-1.2c-1.1,0-1.7,0.5-1.7,1.5c0,0.5,0.2,0.9,0.6,1.1c0.4,0.2,1,0.4,1.9,0.4
			c0.9,0,1.5-0.2,1.9-0.5c0.4-0.3,0.6-0.9,0.6-1.6v-6.3h1.9v6c0,1.3-0.4,2.3-1.1,2.9c-0.7,0.6-1.8,1-3.3,1
			C849.4,281.4,848.3,281.1,847.5,280.7z"/>
		<path class="st6" d="M851.4,285.5c-0.4-0.3-0.6-0.7-0.6-1.1v-0.9h-1l0.1-1.2h2.3v1.8c0,0.2,0.1,0.3,0.2,0.4
			c0.1,0.1,0.3,0.2,0.5,0.2c0.2,0,0.4-0.1,0.5-0.2c0.1-0.1,0.2-0.2,0.2-0.4v-1.8h1.4v1.9c0,0.5-0.2,0.9-0.6,1.2s-0.9,0.5-1.6,0.5
			C852.3,285.9,851.8,285.8,851.4,285.5z"/>
		<path class="st6" d="M858.8,279.3v-7.8h1.9v7.4c0,0.3,0.1,0.5,0.2,0.6s0.3,0.2,0.6,0.2h0.8v1.5h-1.7
			C859.5,281.2,858.8,280.6,858.8,279.3z"/>
		<path class="st6" d="M867,281.3c-0.6-0.1-1.1-0.2-1.4-0.4v-1.6c0.4,0.2,0.9,0.3,1.5,0.4c0.5,0.1,1,0.1,1.5,0.1
			c0.9,0,1.5-0.1,1.9-0.2c0.4-0.2,0.6-0.5,0.6-0.9c0-0.3-0.1-0.5-0.2-0.7c-0.1-0.2-0.3-0.3-0.6-0.4c-0.3-0.1-0.6-0.2-1.2-0.4
			l-0.7-0.2c-1-0.3-1.7-0.7-2.2-1.1c-0.5-0.4-0.7-1-0.7-1.7c0-0.9,0.3-1.6,1-2s1.6-0.7,2.9-0.7c0.5,0,1.1,0,1.6,0.1
			c0.5,0.1,1,0.2,1.4,0.3v1.6c-0.4-0.1-0.8-0.3-1.3-0.3c-0.5-0.1-0.9-0.1-1.4-0.1c-0.8,0-1.3,0.1-1.7,0.2c-0.4,0.2-0.6,0.5-0.6,0.9
			c0,0.3,0.1,0.5,0.2,0.6c0.2,0.2,0.4,0.3,0.7,0.4s0.7,0.3,1.3,0.5l0.5,0.2c1,0.3,1.8,0.7,2.2,1.1s0.7,1,0.7,1.8
			c0,0.9-0.3,1.6-1,2.1c-0.7,0.5-1.7,0.7-2.9,0.7C868.2,281.4,867.6,281.3,867,281.3z"/>
		<path class="st6" d="M865,268.6h5.8v-1.5h1.6v2.9h-7.5L865,268.6z"/>
		<path class="st6" d="M876.9,280.7c-0.8-0.5-1.2-1.3-1.2-2.3c0-0.5,0.1-0.9,0.4-1.3s0.6-0.7,1-0.9c-0.4-0.1-0.7-0.4-0.9-0.7
			c-0.2-0.4-0.4-0.8-0.4-1.3c0-0.9,0.3-1.6,0.8-2.1c0.6-0.5,1.3-0.7,2.2-0.7c0.6,0,1.1,0.1,1.6,0.2v1.5c-0.3-0.1-0.8-0.1-1.2-0.1
			c-1,0-1.5,0.4-1.5,1.2c0,0.9,0.6,1.3,1.7,1.3h1l0.1,1.5h-1.2c-1.1,0-1.7,0.5-1.7,1.5c0,0.5,0.2,0.9,0.6,1.1c0.4,0.2,1,0.4,1.9,0.4
			c0.9,0,1.5-0.2,1.9-0.5c0.4-0.3,0.6-0.9,0.6-1.6v-6.3h1.9v6c0,1.3-0.4,2.3-1.1,2.9c-0.7,0.6-1.8,1-3.3,1
			C878.8,281.4,877.7,281.1,876.9,280.7z"/>
	</g>
</g>
<text transform="matrix(1 0 0 1 374.631 259.6697)" class="st1 st7 st8">45ยบ</text>
</svg>
