<?xml version="1.0" encoding="utf-8"?>
<!-- Generator: Adobe Illustrator 22.0.0, SVG Export Plug-In . SVG Version: 6.00 Build 0)  -->
<svg version="1.1" id="Layer_1" xmlns="http://www.w3.org/2000/svg" xmlns:xlink="http://www.w3.org/1999/xlink" x="0px" y="0px"
	 viewBox="0 0 632 419.9" style="enable-background:new 0 0 632 419.9;" xml:space="preserve">
<style type="text/css">
	.st0{fill:none;stroke:#FFFFFF;stroke-miterlimit:10;}
	.st1{fill:#E5E1D8;}
	.st2{fill:#FFFFFF;}
	.st3{fill:#556172;stroke:#FFFFFF;stroke-miterlimit:10;}
	.st4{fill:#FFFFFF;stroke:#FFFFFF;stroke-miterlimit:10;}
	.st5{fill:#010101;}
	.st6{fill:none;stroke:#FFFFFF;stroke-miterlimit:10;stroke-dasharray:13.6247,13.6247;}
	.st7{fill:none;stroke:#FFFFFF;stroke-linecap:round;stroke-linejoin:round;stroke-miterlimit:10;}
</style>
<path class="st0" d="M280.1,262.5c-1.1-6.7-6-27-29.6-58.2c-23.6,31.2-28.5,51.5-29.6,58.2c-0.4,1.8-0.6,3.7-0.6,5.6
	c0,16.7,13.5,30.1,30.1,30.1s30.1-13.5,30.1-30.1C280.5,266.2,280.3,264.3,280.1,262.5z"/>
<path class="st1" d="M563.6,53.7c-9.8,0-18.9,1.4-26.9,4.1c-1.3,0.4-2.8,0-3.5-1.1c-7.4-10.4-25.5-17.8-46.5-17.8
	c-23.7,0-43.6,9.3-48.7,21.8c-0.6,1.5-2.3,2.3-3.8,1.8c-7.1-2.1-15.3-3.3-24-3.3c-16.2,0-30.4,4-39.1,10.1c-0.7,0.5-1.4,0.7-2.2,0.6
	l-42.6-5.4l-19.5,6.2l69.1,28.8c0.1,0,0.1,0.1,0.2,0.1c2.1,1.1,4.5,2.1,7,3c0.1,0,0.1,0,0.2,0.1l14.5,6c1.2,0.5,2.1,1.7,2.1,3.2l0,0
	c0,13.6,20.3,24.6,45.4,24.6c4,0,7.9-0.3,11.7-0.9c0.8-0.1,1.6,0.1,2.3,0.6c8.8,5.9,21.9,9.7,36.5,9.7c23,0,42.1-9.3,46.9-21.6
	c0.6-1.4,2.1-2.2,3.5-1.9c5.6,1.1,11.4,1.7,17.5,1.7c31.8,0,57.5-15.8,57.5-35.2S595.2,53.7,563.6,53.7z"/>
<g>
	<path class="st2" d="M251.7,100.9c4.6-6-2.2-12.7-8.2-8.2C239,98.7,245.7,105.5,251.7,100.9z M244.6,96.8c0-1.7,1.3-3.1,3.1-3.1
		s3.1,1.3,3.1,3.1s-1.3,3.1-3.1,3.1S244.6,98.5,244.6,96.8z"/>
	<rect x="245" y="80.5" class="st3" width="5.3" height="4.1"/>
	<rect x="245.8" y="84.6" class="st3" width="3.5" height="6.9"/>
	<path class="st3" d="M247.6,96.8L247.6,96.8c0.5,0,0.8-0.3,0.8-0.7v-4c0-0.4-0.3-0.7-0.7-0.7h-0.1c-0.4,0-0.7,0.3-0.7,0.7v4
		C246.9,96.5,247.2,96.8,247.6,96.8z"/>
	<polyline class="st3" points="230.6,89.5 235.2,79.6 239.9,79.6 233.2,90.6 	"/>
	<line class="st0" x1="233.1" y1="83.9" x2="237.4" y2="83.9"/>
	<rect x="175" y="76.8" class="st3" width="5.6" height="7.5"/>
	<rect x="176.7" y="84.3" class="st3" width="2.3" height="7.9"/>
	<path class="st2" d="M181.2,99c3.9-5.2-1.9-10.9-7-7C170.1,97.1,176,102.9,181.2,99z M175.1,95.5c0-1.4,1.1-2.6,2.6-2.6
		s2.6,1.1,2.6,2.6s-1.1,2.6-2.6,2.6S175.1,96.9,175.1,95.5z"/>
	<path class="st2" d="M224.1,95c0,3.1,2.5,5.6,5.6,5.6c3.1,0,5.6-2.5,5.6-5.6c0-3.1-2.5-5.6-5.6-5.6C226.6,89.5,224.1,92,224.1,95z
		 M226.8,95c0-1.7,1.3-3.1,3.1-3.1c1.7,0,3.1,1.3,3.1,3.1c0,1.7-1.3,3.1-3.1,3.1C228.2,98.1,226.8,96.8,226.8,95z"/>
	<path class="st3" d="M367.3,13.6h-11.5c-0.2,0-0.5,0.1-0.6,0.3l-17.8,30.4c-0.1,0.2-0.3,0.3-0.4,0.3l-38.4,9.7l-60-4.1
		c0,0-34.1-15.3-35.2-15.6c-1.1-0.3-22.7-3.7-23.2-0.1c0,1.7,28.7,17.6,28.7,17.6s-10.1,4.5-12.4,7.8c-10.6,0.8-26.5,0.9-31.1,4.6
		c-5.2,0.6-8.2,1.9-8.2,3.7c0,1.9,8.2,3.5,8.2,3.5s2.9,5.6,21.6,6.8s93.5,3.2,94.7,3c1.1-0.2,70.3-10.8,72.3-12.2
		c1.5-1.1,7.9-5.6,10.9-7.9c0.6-0.4,0.3-1.2-0.4-1.2l0,0c-0.4,0-0.7-0.4-0.7-0.8l4.1-45.4C368,13.9,367.8,13.6,367.3,13.6z"/>
	<line class="st0" x1="298.6" y1="54.3" x2="364" y2="60.2"/>
	<path class="st3" d="M280.7,68.2l31.5,36.8c0.9,1.1,0.3,2.6-1.1,2.8l-13.2,2c-0.5,0.1-0.9,0-1.2-0.3L244.9,72"/>
	<path class="st4" d="M210,51.6c1.8,1.7,1.8,3.9,1.8,4.7c0,0.2-0.1,0.3-0.2,0.5l-6.3,5.8c-0.2,0.2-0.5,0.2-0.7,0.1l-8.1-2.8
		c0,0,4.4-3.5,6.2-4.6C204,54.5,210,51.6,210,51.6z"/>
	<path class="st4" d="M277.3,64.4h7c0.7,0,1.1-0.5,1.1-1.1v-4.1c0-0.7-0.5-1.1-1.1-1.1h-7c-0.7,0-1.1,0.5-1.1,1.1v4.2
		C276.1,63.9,276.6,64.4,277.3,64.4z"/>
	<path class="st4" d="M265,64.4h7c0.7,0,1.1-0.5,1.1-1.1v-4.1c0-0.7-0.5-1.1-1.1-1.1h-7c-0.7,0-1.1,0.5-1.1,1.1v4.2
		C263.9,63.9,264.4,64.4,265,64.4z"/>
	<path class="st4" d="M252.8,64.4h7c0.7,0,1.1-0.5,1.1-1.1v-4.1c0-0.7-0.5-1.1-1.1-1.1h-7c-0.7,0-1.1,0.5-1.1,1.1v4.2
		C251.6,63.9,252.1,64.4,252.8,64.4z"/>
	<path class="st4" d="M240.5,64.4h7c0.7,0,1.1-0.5,1.1-1.1v-4.1c0-0.7-0.5-1.1-1.1-1.1h-7c-0.7,0-1.1,0.5-1.1,1.1v4.2
		C239.4,63.9,239.8,64.4,240.5,64.4z"/>
	<path class="st4" d="M228.3,64.4h7c0.7,0,1.1-0.5,1.1-1.1v-4.1c0-0.7-0.5-1.1-1.1-1.1h-7c-0.7,0-1.1,0.5-1.1,1.1v4.2
		C227.1,63.9,227.6,64.4,228.3,64.4z"/>
	<path class="st4" d="M220.4,58.6v4.8c0,0.4-0.3,0.7-0.7,0.7l-9.1-0.3c-0.6,0-0.9-0.8-0.5-1.1l5.8-5.9c0.2-0.2,0.5-0.3,0.8-0.1
		l3.2,1.4C220.2,58,220.4,58.3,220.4,58.6z"/>
	<path class="st3" d="M224,73.2l-9.8-20.9c-0.1-0.2-0.4-0.4-0.6-0.4H211c-0.5,0-0.8,0.5-0.6,1l8.8,20.9c0.1,0.3,0.4,0.4,0.6,0.4h3.6
		C224,74.2,224.3,73.6,224,73.2z"/>
	<path class="st4" d="M208.1,51.9h9.1c0.7,0,1.1-0.5,1.1-1.1v-0.6c0-0.7-0.5-1.1-1.1-1.1h-9.1c-0.7,0-1.1,0.5-1.1,1.1v0.6
		C206.9,51.5,207.4,51.9,208.1,51.9z"/>
	<line class="st0" x1="165.4" y1="64.6" x2="165.4" y2="71.9"/>
</g>
<line class="st0" x1="235.5" y1="60.2" x2="255.4" y2="60.2"/>
<line class="st0" x1="133.4" y1="50.9" x2="133.4" y2="170"/>
<line class="st0" x1="123.5" y1="169.7" x2="143.3" y2="169.9"/>
<line class="st0" x1="123.5" y1="50.8" x2="143.3" y2="51.1"/>
<g>
	<g>
		<path class="st2" d="M15.9,160.5c0.3-0.7,0.7-1.2,1.2-1.8c0.5-0.6,1.1-1.2,1.9-1.8c0.8-0.7,1.2-1.1,1.6-1.4c0.4-0.3,0.6-0.7,0.7-1
			c0.1-0.3,0.2-0.7,0.2-1.1c0-0.7-0.2-1.1-0.6-1.4c-0.4-0.3-1-0.5-1.8-0.5s-1.8,0.2-2.8,0.6v-1.7c0.5-0.2,1-0.3,1.5-0.4
			c0.6-0.1,1.1-0.1,1.6-0.1c1.2,0,2.3,0.3,3,1c0.7,0.7,1.1,1.5,1.1,2.7c0,0.8-0.2,1.4-0.6,2c-0.4,0.6-1,1.1-1.7,1.9l-0.3,0.3
			c-0.7,0.6-1.2,1.1-1.5,1.4c-0.4,0.4-0.7,0.8-0.9,1.1h5v1.5h-7.7V160.5z"/>
		<path class="st2" d="M28.3,151.5l-1.9,0.3v-1.6l3.8-0.6v11.9h-1.9V151.5z"/>
		<path class="st2" d="M34.2,160.2h1.7l-0.9,3.4h-1.4L34.2,160.2z"/>
		<path class="st2" d="M40.4,161.5c-0.6-0.1-1.1-0.2-1.5-0.4v-1.7c0.4,0.2,0.9,0.3,1.4,0.4c0.6,0.1,1.1,0.2,1.5,0.2
			c1,0,1.6-0.2,2.1-0.5c0.5-0.3,0.7-0.9,0.7-1.6c0-0.7-0.2-1.2-0.5-1.5s-1-0.5-1.8-0.5h-3.4v-1.2l0.3-4.9h6.7l-0.2,1.5h-4.8
			l-0.2,3.1h2c1.3,0,2.4,0.3,3.1,0.9c0.7,0.6,1,1.4,1,2.7c0,1.1-0.4,2.1-1.1,2.8c-0.8,0.7-1.9,1-3.4,1
			C41.6,161.7,41,161.6,40.4,161.5z"/>
		<path class="st2" d="M50.7,160.2c-0.9-1.1-1.2-2.5-1.2-4.5s0.4-3.5,1.2-4.6c0.8-1.1,2.1-1.5,3.9-1.5c1.8,0,3.2,0.5,3.9,1.5
			c0.8,1.1,1.2,2.6,1.2,4.6c0,2-0.4,3.4-1.2,4.5c-0.9,1.1-2.1,1.5-3.9,1.5C52.9,161.8,51.6,161.3,50.7,160.2z M57.1,159
			c0.5-0.8,0.8-1.8,0.8-3.3c0-1.5-0.2-2.7-0.7-3.4c-0.5-0.8-1.2-1.1-2.4-1.1s-2,0.4-2.4,1.1c-0.5,0.8-0.7,1.9-0.7,3.4
			s0.3,2.5,0.8,3.3c0.5,0.8,1.2,1.1,2.4,1.1C55.8,160.1,56.6,159.8,57.1,159z"/>
		<path class="st2" d="M64,160.2c-0.9-1.1-1.2-2.5-1.2-4.5s0.4-3.5,1.2-4.6c0.8-1.1,2.1-1.5,3.9-1.5c1.8,0,3.2,0.5,3.9,1.5
			c0.8,1.1,1.2,2.6,1.2,4.6c0,2-0.4,3.4-1.2,4.5s-2.1,1.5-3.9,1.5C66.1,161.8,64.7,161.3,64,160.2z M70.3,159
			c0.5-0.8,0.8-1.8,0.8-3.3c0-1.5-0.2-2.7-0.7-3.4c-0.5-0.8-1.2-1.1-2.4-1.1c-1.1,0-2,0.4-2.4,1.1c-0.5,0.8-0.7,1.9-0.7,3.4
			s0.3,2.5,0.8,3.3s1.2,1.1,2.4,1.1C68.9,160.1,69.8,159.8,70.3,159z"/>
		<path class="st2" d="M83.9,151.6h1.9l1.4,7L89,153v-1.4h1.4l2,7l2-10h1.9l-2.8,12.7h-1.8l-1.8-6.2l-2,6.2h-1.8L83.9,151.6z"/>
		<path class="st2" d="M91.8,163.8h-1.1l0.1-1.2h2.8v3.5h-1.7V163.8z"/>
		<path class="st2" d="M99.7,160.4c-0.8-0.9-1.1-2-1.1-3.7c0-1.7,0.3-3,0.9-3.9s1.3-1.3,2.4-1.3c0.5,0,0.9,0.1,1.1,0.2
			c0.3,0.2,0.6,0.4,0.8,0.7c0.3-0.3,0.6-0.5,1-0.7c0.4-0.2,0.9-0.3,1.2-0.3c0.8,0,1.3,0.2,1.7,0.7c0.4,0.5,0.6,1.1,0.6,1.9v7.4h-2
			v-7.1c0-0.5-0.1-0.9-0.2-1.1c-0.1-0.2-0.4-0.3-0.8-0.3c-0.3,0-0.5,0.1-0.7,0.2c-0.2,0.1-0.4,0.4-0.5,0.7h-1.1
			c-0.2-0.3-0.3-0.5-0.5-0.7c-0.2-0.2-0.4-0.2-0.7-0.2c-0.6,0-1.1,0.3-1.2,1c-0.2,0.6-0.4,1.5-0.4,2.7c0,1.2,0.2,2.1,0.6,2.6
			c0.4,0.5,1.1,0.8,1.8,0.8c0.6,0,1,0,1.2-0.2v1.5c-0.4,0.2-1,0.2-1.6,0.2C101.3,161.7,100.3,161.3,99.7,160.4z"/>
	</g>
</g>
<circle class="st2" cx="111.3" cy="342.3" r="54.6"/>
<circle class="st0" cx="49.2" cy="341.9" r="9.6"/>
<circle class="st0" cx="68" cy="387.2" r="9.6"/>
<circle class="st0" cx="113.4" cy="406" r="9.6"/>
<circle class="st0" cx="158.7" cy="387.2" r="9.6"/>
<circle class="st0" cx="177.5" cy="341.9" r="9.6"/>
<circle class="st0" cx="158.7" cy="296.5" r="9.6"/>
<circle class="st0" cx="113.4" cy="277.7" r="9.6"/>
<circle class="st0" cx="68" cy="296.5" r="9.6"/>
<g>
	<g>
		<path class="st5" d="M82.5,344.5c-0.6-0.5-0.9-1.1-0.9-2.2c0-1,0.3-1.6,1-2.1c0.6-0.5,1.5-0.8,2.7-0.8h2.9v-0.6
			c0-0.7-0.2-1.1-0.5-1.4c-0.4-0.3-1-0.4-1.9-0.4c-1.1,0-2.1,0.2-3.1,0.5v-1.4c0.5-0.2,1-0.3,1.6-0.4c0.6-0.1,1.1-0.2,1.7-0.2
			s1.1,0.1,1.6,0.2h3.2l-0.1,1.4h-1.1c0.2,0.3,0.3,0.5,0.3,0.9c0.1,0.3,0.1,0.7,0.1,1.1v5.9h-1.8v-4.1h-2.8c-0.7,0-1.1,0.1-1.4,0.3
			c-0.3,0.2-0.5,0.6-0.5,1.1c0,0.5,0.1,0.9,0.4,1.1c0.3,0.2,0.8,0.3,1.4,0.3c0.5,0,0.9,0,1.1-0.1v1.4c-0.5,0.1-1.1,0.2-1.6,0.2
			C83.9,345.2,83.1,345,82.5,344.5z"/>
		<path class="st5" d="M97.3,339.2c0-0.5-0.1-0.9-0.2-1.2s-0.3-0.5-0.6-0.7c-0.3-0.2-0.7-0.2-1.2-0.2c-0.4,0-0.8,0-1.2,0.1
			c-0.5,0.1-0.9,0.2-1.1,0.3V336c0.4-0.2,0.8-0.3,1.2-0.4c0.5-0.1,1-0.2,1.4-0.2c1.2,0,2.1,0.3,2.7,0.8c0.6,0.6,0.9,1.4,0.9,2.6v6.1
			h-1.9L97.3,339.2L97.3,339.2z"/>
		<path class="st5" d="M103.9,345.1c-0.6-0.1-1.1-0.2-1.3-0.4v-1.5c0.4,0.2,0.9,0.3,1.4,0.4c0.5,0.1,1,0.1,1.4,0.1
			c0.9,0,1.4-0.1,1.8-0.2c0.4-0.2,0.6-0.5,0.6-0.9c0-0.3-0.1-0.5-0.2-0.7c-0.1-0.2-0.3-0.3-0.6-0.4c-0.3-0.1-0.6-0.2-1.1-0.4
			l-0.7-0.2c-1-0.3-1.6-0.7-2.1-1.1c-0.5-0.4-0.7-1-0.7-1.6c0-0.9,0.3-1.5,1-1.9c0.7-0.5,1.5-0.7,2.8-0.7c0.5,0,1.1,0,1.5,0.1
			c0.5,0.1,1,0.2,1.3,0.3v1.5c-0.4-0.1-0.8-0.3-1.2-0.3c-0.5-0.1-0.9-0.1-1.3-0.1c-0.8,0-1.2,0.1-1.6,0.2c-0.4,0.2-0.6,0.5-0.6,0.9
			c0,0.3,0.1,0.5,0.2,0.6c0.2,0.2,0.4,0.3,0.7,0.4c0.3,0.1,0.7,0.3,1.2,0.5l0.5,0.2c1,0.3,1.7,0.7,2.1,1.1c0.5,0.4,0.7,1,0.7,1.7
			c0,0.9-0.3,1.5-1,2s-1.6,0.7-2.8,0.7C105,345.2,104.5,345.2,103.9,345.1z"/>
		<path class="st5" d="M112.6,343.3v-7.5h1.8v7.1c0,0.3,0.1,0.5,0.2,0.6c0.1,0.1,0.3,0.2,0.6,0.2h0.8v1.4h-1.6
			C113.2,345,112.6,344.4,112.6,343.3z"/>
		<path class="st5" d="M119.1,339.2c0-1.1,0.4-2,1.1-2.7c0.7-0.6,1.7-1,3.2-1s2.5,0.3,3.2,1c0.7,0.6,1.1,1.5,1.1,2.7v5.9h-1.9v-6
			c0-1.2-0.8-1.9-2.3-1.9c-0.8,0-1.3,0.2-1.7,0.5c-0.4,0.3-0.6,0.8-0.6,1.4v1.9c0.5-0.4,1.1-0.6,1.8-0.6h1.1l0.1,1.5h-1.2
			c-0.7,0-1.2,0.2-1.7,0.6v2.7h-1.9L119.1,339.2L119.1,339.2z"/>
		<path class="st5" d="M134.3,344.9c-0.5-0.2-1.1-0.5-1.4-0.9l-0.1,1.1h-1.7v-9.3h1.9v6.9c0.3,0.3,0.7,0.6,1.1,0.8
			c0.5,0.2,1,0.3,1.4,0.3c0.7,0,1.1-0.2,1.4-0.5c0.3-0.3,0.5-0.8,0.5-1.5v-6h1.8v6.1c0,1.1-0.3,1.9-0.9,2.5
			c-0.6,0.6-1.3,0.9-2.3,0.9C135.4,345.2,134.8,345.1,134.3,344.9z"/>
		<path class="st5" d="M132.1,333.1h5.6v-1.4h1.5v2.8H132L132.1,333.1z"/>
	</g>
</g>
<g>
	<g>
		<path class="st5" d="M406.5,96.6c-0.6-0.5-0.9-1.1-0.9-2.2c0-1,0.3-1.6,1-2.1c0.6-0.5,1.5-0.8,2.7-0.8h2.9v-0.6
			c0-0.7-0.2-1.1-0.5-1.4c-0.4-0.3-1-0.4-1.9-0.4c-1.1,0-2.1,0.2-3.1,0.5v-1.4c0.5-0.2,1-0.3,1.6-0.4c0.6-0.1,1.1-0.2,1.7-0.2
			c0.6,0,1.1,0.1,1.6,0.2h3.2l-0.1,1.4h-1.1c0.2,0.3,0.3,0.5,0.3,0.9c0.1,0.3,0.1,0.7,0.1,1.1V97h-1.8v-4.1h-2.9
			c-0.7,0-1.1,0.1-1.4,0.3c-0.3,0.2-0.5,0.6-0.5,1.1c0,0.5,0.1,0.9,0.4,1.1c0.3,0.2,0.8,0.3,1.4,0.3c0.5,0,0.9,0,1.1-0.1V97
			c-0.5,0.1-1.1,0.2-1.6,0.2C407.9,97.2,407.1,97,406.5,96.6z"/>
		<path class="st5" d="M421.3,91.2c0-0.5-0.1-0.9-0.2-1.2c-0.1-0.4-0.3-0.5-0.6-0.7c-0.3-0.2-0.7-0.2-1.2-0.2c-0.4,0-0.8,0-1.2,0.1
			c-0.5,0.1-0.9,0.2-1.1,0.3V88c0.4-0.2,0.8-0.3,1.2-0.4c0.5-0.1,1-0.2,1.4-0.2c1.2,0,2.1,0.3,2.7,0.8c0.6,0.6,0.9,1.4,0.9,2.6v6.1
			h-1.9L421.3,91.2L421.3,91.2z"/>
		<path class="st5" d="M427.9,97.1c-0.6-0.1-1.1-0.2-1.3-0.4v-1.5c0.4,0.2,0.9,0.3,1.4,0.4c0.5,0.1,1,0.1,1.4,0.1
			c0.9,0,1.4-0.1,1.8-0.2c0.4-0.2,0.6-0.5,0.6-0.9c0-0.3-0.1-0.5-0.2-0.7c-0.1-0.2-0.3-0.3-0.6-0.4c-0.3-0.1-0.6-0.2-1.1-0.4
			l-0.7-0.2c-1-0.3-1.6-0.7-2.1-1.1c-0.5-0.4-0.7-1-0.7-1.6c0-0.9,0.3-1.5,1-1.9c0.7-0.5,1.5-0.7,2.8-0.7c0.5,0,1.1,0,1.5,0.1
			s1,0.2,1.3,0.3v1.5c-0.4-0.1-0.8-0.3-1.2-0.3c-0.5-0.1-0.9-0.1-1.3-0.1c-0.8,0-1.2,0.1-1.6,0.2c-0.4,0.2-0.6,0.5-0.6,0.9
			c0,0.3,0.1,0.5,0.2,0.6c0.2,0.2,0.4,0.3,0.7,0.4c0.3,0.1,0.7,0.3,1.2,0.5l0.5,0.2c1,0.3,1.7,0.7,2.1,1.1c0.5,0.4,0.7,1,0.7,1.7
			c0,0.9-0.3,1.5-1,2c-0.7,0.5-1.6,0.7-2.8,0.7C429,97.2,428.5,97.2,427.9,97.1z"/>
		<path class="st5" d="M437.5,96.4c-0.7-0.6-1.1-1.4-1.1-2.5v-0.7c0-0.4,0.1-0.8,0.3-1.1c0.2-0.4,0.5-0.8,0.9-1.2
			c0.3-0.4,0.5-0.7,0.6-0.8c0.1-0.2,0.2-0.4,0.2-0.5c0-0.3-0.1-0.4-0.4-0.4c-0.2,0-0.4,0.1-0.6,0.3v0.7h-1.1v-2.3h1.3v0.5
			c0.2-0.2,0.4-0.3,0.6-0.4s0.5-0.1,0.8-0.1c0.4,0,0.8,0.1,1,0.4c0.2,0.2,0.4,0.6,0.4,1c0,0.4-0.1,0.7-0.3,1
			c-0.2,0.3-0.4,0.7-0.7,1.1c-0.3,0.5-0.5,0.8-0.7,1.1c-0.2,0.3-0.2,0.6-0.2,0.9V94c0,0.6,0.2,1.1,0.6,1.3c0.4,0.3,0.9,0.5,1.5,0.5
			c1.4,0,2.2-0.7,2.2-1.9v-1.1c0-0.6-0.1-1-0.3-1.1c-0.2-0.2-0.5-0.3-1-0.3H441l0.1-1.3h0.4c0.5,0,0.8-0.1,1-0.4
			c0.2-0.2,0.3-0.6,0.3-1.1v-0.9h1.8v0.9c0,0.6-0.1,1.1-0.3,1.3c-0.2,0.4-0.5,0.6-1,0.8c0.5,0.2,0.8,0.5,1,0.9
			c0.2,0.4,0.3,0.8,0.3,1.3v1c0,1.1-0.4,1.9-1.1,2.6c-0.7,0.6-1.7,1-3,1C439.1,97.2,438.1,96.9,437.5,96.4z"/>
		<path class="st5" d="M437.3,85.1h7.1v1.3h-7.2L437.3,85.1z"/>
		<path class="st5" d="M448.5,96.6c-0.6-0.5-0.9-1.1-0.9-2.1c0-1,0.3-1.6,1-2.1c0.6-0.5,1.5-0.8,2.7-0.8h2.9V91
			c0-0.5-0.1-0.9-0.2-1.1c-0.2-0.3-0.4-0.5-0.8-0.6c-0.4-0.1-0.9-0.2-1.4-0.2c-1.1,0-2.1,0.2-3.1,0.5v-1.4c0.5-0.2,1-0.3,1.6-0.4
			c0.6-0.1,1.1-0.2,1.7-0.2c1.3,0,2.4,0.3,3,0.9c0.7,0.6,1,1.4,1,2.7v5.9H454V93h-2.7c-0.7,0-1.1,0.1-1.4,0.3
			c-0.3,0.2-0.5,0.6-0.5,1.1c0,0.5,0.1,0.9,0.4,1.1c0.3,0.2,0.8,0.3,1.4,0.3c0.5,0,0.9,0,1.1-0.1v1.4c-0.5,0.1-1.1,0.2-1.7,0.2
			C449.8,97.2,449,97,448.5,96.6z"/>
		<path class="st5" d="M459.4,95.3v-7.5h1.8v7.1c0,0.3,0.1,0.5,0.2,0.6c0.1,0.1,0.3,0.2,0.6,0.2h0.8v1.4h-1.6
			C460.1,97,459.4,96.5,459.4,95.3z"/>
		<path class="st5" d="M465.4,96.8v-1.4c0.8,0.3,1.5,0.5,2.3,0.5c0.8,0,1.4-0.1,1.9-0.3c0.5-0.2,0.8-0.6,1-1.1
			c0.2-0.5,0.3-1.1,0.3-1.9c0-1.1-0.3-2-0.8-2.6c-0.5-0.5-1.3-0.8-2.4-0.8c-0.8,0-1.5,0.2-2.3,0.5v-1.5c0.9-0.4,1.7-0.5,2.8-0.5
			c1.5,0,2.7,0.4,3.4,1.2c0.8,0.9,1.1,2,1.1,3.6c0,1.6-0.4,2.8-1.1,3.6s-1.9,1.2-3.4,1.2C467.1,97.2,466.3,97,465.4,96.8z"/>
		<path class="st5" d="M477.2,97c-0.7-0.1-1.2-0.3-1.7-0.5v-4.8h3.7l0.1,1.4h-1.9v2.3c0.6,0.2,1.1,0.3,1.9,0.3
			c0.7,0,1.2-0.1,1.6-0.3c0.4-0.2,0.7-0.6,0.9-1.1c0.2-0.5,0.3-1.1,0.3-1.9c0-0.9-0.1-1.5-0.3-2s-0.6-0.9-1.1-1.1
			c-0.5-0.2-1.1-0.3-1.9-0.3c-1.1,0-2.2,0.2-3.1,0.5v-1.4c0.5-0.2,1.1-0.3,1.6-0.4c0.7-0.1,1.2-0.1,1.9-0.1c1.6,0,2.8,0.4,3.5,1.2
			c0.8,0.9,1.1,2,1.1,3.6c0,1.6-0.4,2.8-1.1,3.6c-0.8,0.8-1.9,1.2-3.4,1.2C478.5,97.2,477.9,97.1,477.2,97z"/>
		<path class="st5" d="M488.2,97.1c-0.6-0.1-1.1-0.2-1.3-0.4v-1.5c0.4,0.2,0.9,0.3,1.4,0.4c0.5,0.1,1,0.1,1.4,0.1
			c0.9,0,1.4-0.1,1.8-0.2c0.4-0.2,0.6-0.5,0.6-0.9c0-0.3-0.1-0.5-0.2-0.7c-0.1-0.2-0.3-0.3-0.6-0.4c-0.3-0.1-0.6-0.2-1.1-0.4
			l-0.7-0.2c-1-0.3-1.6-0.7-2.1-1.1c-0.5-0.4-0.7-1-0.7-1.6c0-0.9,0.3-1.5,1-1.9c0.7-0.5,1.5-0.7,2.8-0.7c0.5,0,1.1,0,1.5,0.1
			c0.5,0.1,1,0.2,1.3,0.3v1.5c-0.4-0.1-0.8-0.3-1.2-0.3c-0.5-0.1-0.9-0.1-1.3-0.1c-0.8,0-1.2,0.1-1.6,0.2c-0.4,0.2-0.6,0.5-0.6,0.9
			c0,0.3,0.1,0.5,0.2,0.6c0.2,0.2,0.4,0.3,0.7,0.4c0.3,0.1,0.7,0.3,1.2,0.5l0.5,0.2c1,0.3,1.7,0.7,2.1,1.1c0.5,0.4,0.7,1,0.7,1.7
			c0,0.9-0.3,1.5-1,2c-0.7,0.5-1.6,0.7-2.8,0.7C489.4,97.2,488.8,97.2,488.2,97.1z"/>
		<path class="st5" d="M489.4,83.8h5.1l-0.1,1.3h-3.4v1.2h-1.5L489.4,83.8L489.4,83.8z"/>
		<path class="st5" d="M497.2,95.3v-5.9c0-1.2,0.5-2.2,1.3-2.8h-2.7v-1.4h5v1.4c-0.6,0.3-1.1,0.6-1.3,1.1c-0.3,0.5-0.4,1.1-0.4,2
			v5.2c0,0.3,0.1,0.5,0.2,0.6c0.1,0.1,0.3,0.2,0.6,0.2h0.8V97H499C497.8,97,497.2,96.5,497.2,95.3z"/>
		<path class="st5" d="M504.9,97c-0.7-0.1-1.2-0.3-1.7-0.5v-4.8h3.7l0.1,1.4h-2v2.3c0.6,0.2,1.1,0.3,1.9,0.3c0.7,0,1.2-0.1,1.6-0.3
			c0.4-0.2,0.7-0.6,0.9-1.1c0.2-0.5,0.3-1.1,0.3-1.9c0-0.9-0.1-1.5-0.3-2s-0.6-0.9-1.1-1.1c-0.5-0.2-1.1-0.3-1.9-0.3
			c-1.1,0-2.2,0.2-3.1,0.5v-1.4c0.5-0.2,1.1-0.3,1.6-0.4c0.7-0.1,1.2-0.1,1.9-0.1c1.6,0,2.8,0.4,3.5,1.2c0.8,0.9,1.1,2,1.1,3.6
			c0,1.6-0.4,2.8-1.1,3.6c-0.8,0.8-1.9,1.2-3.4,1.2C506.2,97.2,505.5,97.1,504.9,97z"/>
		<path class="st5" d="M515.6,96.6c-0.3-0.4-0.4-1-0.4-1.6v-5.7c0-0.7-0.1-1.2-0.4-1.6c-0.3-0.4-0.8-0.7-1.3-1v-1.4h5.1v1.4h-2.8
			c0.5,0.3,0.8,0.6,1,1c0.2,0.4,0.3,1,0.3,1.7v5.6c0,0.3,0.1,0.5,0.2,0.6c0.1,0.1,0.3,0.2,0.6,0.2h0.8V97h-1.6
			C516.4,97,515.9,96.9,515.6,96.6z"/>
		<path class="st5" d="M522.8,97c-0.7-0.1-1.2-0.3-1.7-0.5v-4.8h3.7l0.1,1.4h-2v2.3c0.6,0.2,1.1,0.3,1.9,0.3c0.7,0,1.2-0.1,1.6-0.3
			c0.4-0.2,0.7-0.6,0.9-1.1c0.2-0.5,0.3-1.1,0.3-1.9c0-0.9-0.1-1.5-0.3-2c-0.2-0.5-0.6-0.9-1.1-1.1c-0.5-0.2-1.1-0.3-1.9-0.3
			c-1.1,0-2.2,0.2-3.1,0.5v-1.4c0.5-0.2,1.1-0.3,1.6-0.4c0.7-0.1,1.2-0.1,1.9-0.1c1.6,0,2.8,0.4,3.5,1.2c0.8,0.9,1.1,2,1.1,3.6
			c0,1.6-0.4,2.8-1.1,3.6c-0.8,0.8-1.9,1.2-3.4,1.2C524,97.2,523.3,97.1,522.8,97z"/>
		<path class="st5" d="M532.7,95.3v-5.9c0-1.2,0.5-2.2,1.3-2.8h-2.7v-1.4h5v1.4c-0.6,0.3-1.1,0.6-1.3,1.1c-0.3,0.5-0.4,1.1-0.4,2
			v5.2c0,0.3,0.1,0.5,0.2,0.6c0.1,0.1,0.3,0.2,0.6,0.2h0.8V97h-1.6C533.3,97,532.7,96.5,532.7,95.3z"/>
		<path class="st5" d="M539.6,96.1c-0.7-0.8-1.1-1.9-1.1-3.5c0-1.5,0.4-2.8,1.2-3.6c0.8-0.9,2-1.3,3.5-1.3c1.1,0,1.8,0.2,2.5,0.5
			c0.7,0.3,1.1,0.8,1.4,1.3s0.5,1.2,0.5,1.9v5.6h-1.9v-5.6c0-0.8-0.2-1.3-0.6-1.7c-0.4-0.4-1.1-0.6-2-0.6c-1,0-1.7,0.3-2.2,0.9
			c-0.5,0.6-0.7,1.4-0.7,2.6s0.2,1.9,0.6,2.5c0.4,0.5,1,0.8,1.7,0.8c0.6,0,1,0,1.1-0.1v1.4c-0.4,0.1-0.9,0.2-1.5,0.2
			C541.2,97.2,540.3,96.9,539.6,96.1z"/>
		<path class="st5" d="M552,96.1c-0.7-0.8-1.1-1.9-1.1-3.5c0-1.5,0.4-2.8,1.2-3.6c0.8-0.9,2-1.3,3.5-1.3c1.1,0,1.8,0.2,2.5,0.5
			c0.7,0.3,1.1,0.8,1.4,1.3c0.3,0.6,0.5,1.2,0.5,1.9v5.6h-1.9v-5.6c0-0.8-0.2-1.3-0.6-1.7c-0.4-0.4-1.1-0.6-2-0.6
			c-1,0-1.7,0.3-2.2,0.9s-0.7,1.4-0.7,2.6s0.2,1.9,0.6,2.5c0.4,0.5,1,0.8,1.7,0.8c0.6,0,1,0,1.1-0.1v1.4c-0.4,0.1-0.9,0.2-1.5,0.2
			C553.6,97.2,552.6,96.9,552,96.1z"/>
		<path class="st5" d="M556.1,83.8h5.1l-0.1,1.3h-3.4v1.2h-1.5L556.1,83.8L556.1,83.8z"/>
	</g>
</g>
<g>
	<g>
		<path class="st1" d="M335.8,171.9V166c0-1.2,0.5-2.2,1.3-2.8h-2.7v-1.4h5v1.4c-0.6,0.3-1.1,0.6-1.3,1.1c-0.3,0.5-0.4,1.1-0.4,2
			v5.2c0,0.3,0.1,0.5,0.2,0.6c0.1,0.1,0.3,0.2,0.6,0.2h0.8v1.4h-1.6C336.4,173.6,335.8,173.1,335.8,171.9z"/>
		<path class="st1" d="M343.4,173.6c-0.7-0.1-1.2-0.3-1.7-0.5v-4.8h3.7l0.1,1.4h-2v2.3c0.6,0.2,1.1,0.3,1.9,0.3
			c0.7,0,1.2-0.1,1.6-0.3c0.4-0.2,0.7-0.6,0.9-1.1c0.2-0.5,0.3-1.1,0.3-1.9c0-0.9-0.1-1.5-0.3-2c-0.2-0.5-0.6-0.9-1.1-1.1
			c-0.5-0.2-1.1-0.3-1.9-0.3c-1.1,0-2.2,0.2-3.1,0.5v-1.4c0.5-0.2,1.1-0.3,1.6-0.4c0.7-0.1,1.2-0.1,1.9-0.1c1.6,0,2.8,0.4,3.5,1.2
			c0.8,0.9,1.1,2,1.1,3.6s-0.4,2.8-1.1,3.6c-0.8,0.8-1.9,1.2-3.4,1.2C344.7,173.8,344,173.7,343.4,173.6z"/>
		<path class="st1" d="M354,173c-0.6-0.6-0.9-1.4-0.9-2.5v-6.1h1.9v6c0,0.7,0.2,1.1,0.5,1.5c0.3,0.3,0.8,0.5,1.4,0.5
			c0.5,0,1-0.1,1.4-0.3c0.5-0.2,0.9-0.5,1.1-0.8v-6.9h1.8v9.3h-1.7l-0.1-1.1c-1,0.8-2,1.1-3.3,1.1C355.3,173.8,354.5,173.5,354,173z
			"/>
		<path class="st1" d="M359,162.8c-0.4-0.4-0.6-0.8-0.6-1.3c0-0.6,0.2-1,0.6-1.3c0.4-0.4,0.9-0.6,1.3-0.6c0.6,0,1,0.2,1.3,0.6
			c0.4,0.4,0.6,0.8,0.6,1.3s-0.2,1-0.6,1.3c-0.4,0.4-0.9,0.6-1.3,0.6C359.8,163.4,359.4,163.2,359,162.8z M361,162.1
			c0.2-0.2,0.2-0.4,0.2-0.6s-0.1-0.4-0.2-0.6c-0.2-0.2-0.4-0.3-0.6-0.3s-0.4,0.1-0.6,0.3s-0.3,0.4-0.3,0.6c0,0.2,0.1,0.4,0.3,0.6
			c0.2,0.2,0.4,0.3,0.6,0.3C360.7,162.2,360.8,162.2,361,162.1z"/>
		<path class="st1" d="M358.8,157.5h-1.1v-1.2h2.3v1.3h2.7l-0.1,1.2h-3.8L358.8,157.5L358.8,157.5z"/>
		<path class="st1" d="M368.3,167.8c0-0.5-0.1-0.9-0.2-1.2c-0.1-0.4-0.3-0.5-0.6-0.7c-0.3-0.2-0.7-0.2-1.2-0.2c-0.4,0-0.8,0-1.2,0.1
			c-0.5,0.1-0.9,0.2-1.1,0.3v-1.4c0.4-0.2,0.8-0.3,1.2-0.4c0.5-0.1,1-0.2,1.4-0.2c1.2,0,2.1,0.3,2.7,0.8c0.6,0.6,0.9,1.4,0.9,2.6
			v6.1h-1.9L368.3,167.8L368.3,167.8z"/>
	</g>
</g>
<circle class="st0" cx="304.2" cy="163.5" r="11.3"/>
<circle class="st0" cx="198.3" cy="163.5" r="11.3"/>
<circle class="st0" cx="253.5" cy="130" r="11.3"/>
<g>
	<g>
		<line class="st0" x1="227.5" y1="170.9" x2="227.5" y2="176.6"/>
		<line class="st6" x1="227.5" y1="189.6" x2="227.5" y2="209.3"/>
		<line class="st0" x1="227.5" y1="215.8" x2="227.5" y2="221.5"/>
	</g>
</g>
<g>
	<g>
		<line class="st0" x1="248.6" y1="147.1" x2="248.6" y2="152.9"/>
		<line class="st6" x1="248.6" y1="165.9" x2="248.6" y2="185.5"/>
		<line class="st0" x1="248.6" y1="192" x2="248.6" y2="197.8"/>
	</g>
</g>
<g>
	<g>
		<line class="st0" x1="276.5" y1="174.4" x2="276.5" y2="180.2"/>
		<line class="st6" x1="276.5" y1="193.2" x2="276.5" y2="212.7"/>
		<line class="st0" x1="276.5" y1="219.2" x2="276.5" y2="225"/>
	</g>
</g>
<g>
	<rect x="333.6" y="314" class="st0" width="74.7" height="74.7"/>
	<polyline class="st7" points="333.6,314 377.6,285.8 448.9,285.8 408.3,314 	"/>
	<polyline class="st7" points="448.9,286.2 448.9,354.7 408.3,388.7 	"/>
	<path class="st2" d="M390.7,322.3h7.6c2.7,0,4.8,2.1,4.8,4.8v12.4c0,1-1.3,1.2-1.7,0.3c-1.9-4.9-5.5-11.8-11.5-14.6
		C388.4,324.6,389.1,322.3,390.7,322.3z"/>
	<path class="st2" d="M339.6,352.7v26.7c0,2.7,2.1,4.8,4.8,4.8h12.4c1,0,1.1-1.1,0.3-1.7c-12.9-11.4-11.8-24.6-14.6-30.6
		C341.8,350.4,339.6,351.1,339.6,352.7z"/>
</g>
<g>
	<line class="st0" x1="211.2" y1="346.3" x2="300.3" y2="346.3"/>
	<polygon class="st2" points="305.6,346.3 295.6,341.7 295.6,351 	"/>
</g>
</svg>
