<?xml version="1.0" encoding="utf-8"?>
<!-- Generator: Adobe Illustrator 23.0.1, SVG Export Plug-In . SVG Version: 6.00 Build 0)  -->
<svg version="1.1" id="Layer_1" xmlns="http://www.w3.org/2000/svg" xmlns:xlink="http://www.w3.org/1999/xlink" x="0px" y="0px"
	 viewBox="0 0 725.5 627.4" style="enable-background:new 0 0 725.5 627.4;" xml:space="preserve">
<style type="text/css">
	.st0{fill:#E5E1D8;}
	.st1{fill:#010101;}
	.st2{fill:none;stroke:#FFFFFF;stroke-miterlimit:10;}
	.st3{fill:none;stroke:#E5E1D8;stroke-width:2;stroke-linecap:round;stroke-linejoin:round;}
	.st4{fill:none;stroke:#E5E1D8;stroke-width:2;stroke-linecap:round;stroke-linejoin:round;stroke-dasharray:11.7403,11.7403;}
</style>
<path class="st0" d="M517.7,301.6c0.2-1.3,0.3-2.7,0.3-4c0-21.8-22.4-39.5-50-39.5c-12.2,0-23.5,3.5-32.2,9.3
	c-9.9-18.2-36.5-31.3-67.8-31.3c-33.5,0-61.7,15-69.7,35.2c-7.8-4.5-17.4-7.2-27.8-7.2c-25.7,0-46.5,16.3-46.5,36.5
	c0,2.6,0.4,5.2,1,7.7c-1.7-0.1-3.3-0.2-5-0.2c-26,0-47,14.6-47,32.5s21,32.5,47,32.5c9.7,0,18.7-2,26.2-5.5
	c6.1,23.6,35.5,41.5,70.8,41.5c28,0,52.3-11.2,64.2-27.6c12.4,12.5,32.3,20.6,54.8,20.6c30.9,0,57-15.3,65.2-36.3
	c2.2,0.2,4.5,0.3,6.8,0.3c29.8,0,54-14.6,54-32.5C562,317.6,542.9,304.3,517.7,301.6z"/>
<g>
	<g>
		<path class="st1" d="M259.3,326.7v-1.5c0.8,0.3,1.6,0.5,2.4,0.5c0.8,0,1.5-0.1,2-0.3c0.5-0.2,0.8-0.6,1-1.1c0.2-0.5,0.3-1.2,0.3-2
			c0-1.2-0.3-2.1-0.8-2.7c-0.5-0.5-1.4-0.8-2.5-0.8c-0.8,0-1.6,0.2-2.4,0.5v-1.6c0.9-0.4,1.8-0.5,2.9-0.5c1.6,0,2.8,0.4,3.6,1.3
			c0.8,0.9,1.2,2.1,1.2,3.8c0,1.7-0.4,2.9-1.2,3.8c-0.8,0.9-2,1.3-3.6,1.3C261.1,327.3,260.1,327.1,259.3,326.7z"/>
		<path class="st1" d="M259,314.5h7.4v1.4h-7.5L259,314.5z"/>
		<path class="st1" d="M271.7,327.1c-0.7-0.1-1.3-0.3-1.8-0.5v-3.7h1.8v2.5c0.6,0.2,1.3,0.3,2,0.3c0.8,0,1.3-0.1,1.7-0.3
			s0.5-0.6,0.5-1.2c0-0.4-0.1-0.7-0.3-1c-0.2-0.2-0.5-0.4-0.8-0.5c-0.3-0.1-1-0.3-1.8-0.5c-0.7-0.2-1.3-0.3-1.7-0.5
			c-0.4-0.2-0.8-0.4-1.1-0.7c-0.3-0.3-0.4-0.8-0.4-1.3c0-0.8,0.4-1.5,1.1-1.9c0.7-0.4,1.8-0.6,3.1-0.6c0.6,0,1.3,0,1.9,0.1
			c0.6,0.1,1.1,0.2,1.5,0.3v1.6c-0.4-0.2-0.9-0.3-1.5-0.4c-0.6-0.1-1.1-0.1-1.7-0.1c-0.8,0-1.4,0.1-1.9,0.2s-0.7,0.4-0.7,0.7
			c0,0.3,0.2,0.6,0.5,0.7c0.3,0.1,0.8,0.3,1.5,0.5c0.2,0,0.3,0.1,0.5,0.1c0.2,0,0.4,0.1,0.6,0.2c0.7,0.2,1.3,0.4,1.7,0.6
			c0.4,0.2,0.8,0.5,1,0.9s0.4,0.9,0.4,1.6c0,1-0.4,1.8-1.1,2.3c-0.7,0.5-1.7,0.8-2.9,0.8C273.1,327.3,272.4,327.2,271.7,327.1z"/>
		<path class="st1" d="M269.8,314.5h5.8V313h1.6v2.9h-7.5L269.8,314.5z"/>
		<path class="st1" d="M288.9,325.2v-7.8h1.9v7.4c0,0.3,0.1,0.5,0.2,0.6c0.1,0.1,0.3,0.2,0.6,0.2h0.8v1.5h-1.7
			C289.6,327.1,288.9,326.5,288.9,325.2z"/>
		<path class="st1" d="M295.8,325.2v-7.8h1.9v7.4c0,0.3,0.1,0.5,0.2,0.6s0.3,0.2,0.6,0.2h0.8v1.5h-1.7
			C296.4,327.1,295.8,326.5,295.8,325.2z"/>
		<path class="st1" d="M303.8,326.3c-0.8-0.7-1.2-1.7-1.2-3v-5.9h2v6c0,0.8,0.2,1.4,0.6,1.8c0.4,0.4,1,0.6,1.9,0.6s1.5-0.2,1.9-0.6
			s0.6-1,0.6-1.8v-6h1.9v5.9c0,1.3-0.4,2.3-1.2,3s-1.9,1-3.3,1C305.6,327.3,304.5,326.9,303.8,326.3z"/>
		<path class="st1" d="M316.3,326.3c-0.8-0.7-1.2-1.7-1.2-3v-5.9h2v6c0,0.8,0.2,1.4,0.6,1.8s1,0.6,1.9,0.6s1.5-0.2,1.9-0.6
			c0.4-0.4,0.6-1,0.6-1.8v-6h1.9v5.9c0,1.3-0.4,2.3-1.2,3c-0.8,0.7-1.9,1-3.3,1C318.1,327.3,317.1,326.9,316.3,326.3z"/>
		<path class="st1" d="M327.5,326.7V325c1.1,0.4,2.3,0.6,3.4,0.6c1,0,1.7-0.1,2.1-0.3c0.4-0.2,0.7-0.7,0.7-1.3
			c0-0.4-0.1-0.7-0.3-0.9c-0.2-0.2-0.5-0.4-0.9-0.6s-1-0.4-1.9-0.6c-1.2-0.3-2.1-0.7-2.6-1.2c-0.5-0.5-0.8-1.2-0.8-2.1
			c0-1,0.4-1.8,1.1-2.4c0.8-0.6,1.9-0.9,3.3-0.9c0.6,0,1.3,0,1.8,0.1c0.6,0.1,1.1,0.2,1.4,0.3v1.7c-0.9-0.3-1.9-0.5-3-0.5
			c-0.9,0-1.6,0.1-2.1,0.4c-0.5,0.2-0.7,0.6-0.7,1.2c0,0.3,0.1,0.6,0.3,0.8s0.4,0.4,0.8,0.6s1,0.3,1.8,0.5c1.4,0.3,2.3,0.8,2.8,1.3
			c0.5,0.6,0.8,1.3,0.8,2.1c0,1-0.4,1.8-1.2,2.4c-0.8,0.6-1.9,0.9-3.4,0.9S328.4,327.1,327.5,326.7z"/>
		<path class="st1" d="M339.4,326.4c-0.5-0.6-0.8-1.4-0.8-2.5v-5.4h2v5.4c0,0.6,0.2,1.1,0.5,1.4c0.3,0.3,0.8,0.5,1.4,0.5
			c0.5,0,0.9-0.1,1.3-0.3c0.4-0.2,0.8-0.4,1.1-0.7v-6.2h1.9v8.5H345l-0.1-0.9c-0.9,0.7-2,1.1-3.2,1.1
			C340.7,327.3,340,327,339.4,326.4z"/>
		<path class="st1" d="M350.4,318.6h1.7l0.1,0.8c0.4-0.3,0.8-0.6,1.3-0.8s1-0.3,1.6-0.3c1.3,0,2.2,0.3,2.9,1c0.7,0.7,1,1.8,1,3.3
			c0,1.5-0.3,2.7-1,3.4c-0.7,0.8-1.7,1.2-2.9,1.2c-1,0-1.9-0.2-2.6-0.7v4.4h-2V318.6z M356.4,325c0.4-0.5,0.6-1.3,0.6-2.4
			c0-1-0.2-1.7-0.6-2.2c-0.4-0.4-1-0.6-1.9-0.6s-1.6,0.3-2.2,0.9v4.3c0.6,0.5,1.3,0.8,2.1,0.8C355.4,325.8,356,325.5,356.4,325z"/>
		<path class="st1" d="M363.1,326.2c-0.8-0.7-1.2-1.9-1.2-3.3c0-1.4,0.4-2.5,1.1-3.3c0.7-0.8,1.8-1.2,3.2-1.2c1.3,0,2.2,0.3,2.9,1
			s1,1.5,1,2.6v1.6h-6.2c0.1,0.8,0.4,1.4,0.9,1.7c0.5,0.3,1.3,0.5,2.3,0.5c0.4,0,0.9,0,1.3-0.1c0.5-0.1,0.8-0.2,1.2-0.3v1.4
			c-0.8,0.3-1.7,0.5-2.9,0.5C365,327.3,363.9,326.9,363.1,326.2z M368.3,322.3v-0.6c0-0.6-0.2-1.1-0.5-1.4s-0.9-0.5-1.6-0.5
			c-0.9,0-1.5,0.2-1.9,0.6c-0.4,0.4-0.5,1-0.5,1.9H368.3z"/>
		<path class="st1" d="M373.2,318.6h1.8l0.1,1c0.4-0.3,0.9-0.5,1.5-0.7c0.6-0.2,1.1-0.4,1.7-0.5v1.5c-0.5,0.1-1.1,0.2-1.7,0.4
			c-0.6,0.2-1.1,0.4-1.4,0.6v6.2h-2V318.6z"/>
		<path class="st1" d="M389.1,326.7V325c1.1,0.4,2.3,0.6,3.4,0.6c1,0,1.7-0.1,2.1-0.3c0.4-0.2,0.7-0.7,0.7-1.3
			c0-0.4-0.1-0.7-0.3-0.9c-0.2-0.2-0.5-0.4-0.9-0.6s-1-0.4-1.9-0.6c-1.2-0.3-2.1-0.7-2.6-1.2c-0.5-0.5-0.8-1.2-0.8-2.1
			c0-1,0.4-1.8,1.1-2.4c0.8-0.6,1.9-0.9,3.3-0.9c0.6,0,1.3,0,1.8,0.1c0.6,0.1,1.1,0.2,1.4,0.3v1.7c-0.9-0.3-1.9-0.5-3-0.5
			c-0.9,0-1.6,0.1-2.1,0.4c-0.5,0.2-0.7,0.6-0.7,1.2c0,0.3,0.1,0.6,0.3,0.8s0.4,0.4,0.8,0.6s1,0.3,1.8,0.5c1.4,0.3,2.3,0.8,2.8,1.3
			c0.5,0.6,0.8,1.3,0.8,2.1c0,1-0.4,1.8-1.2,2.4c-0.8,0.6-1.9,0.9-3.4,0.9S390,327.1,389.1,326.7z"/>
		<path class="st1" d="M400.7,326.6c-0.6-0.5-0.9-1.1-0.9-1.9s0.3-1.5,0.9-2c0.6-0.5,1.4-0.7,2.6-0.7h2.7v-0.4c0-0.4-0.1-0.7-0.2-1
			c-0.1-0.2-0.4-0.4-0.7-0.5c-0.3-0.1-0.8-0.2-1.4-0.2c-1,0-2,0.1-2.8,0.4v-1.5c0.4-0.2,0.9-0.3,1.4-0.4c0.6-0.1,1.1-0.1,1.7-0.1
			c1.3,0,2.2,0.3,2.9,0.8c0.6,0.5,1,1.3,1,2.4v5.5h-1.7l-0.1-0.9c-0.4,0.3-0.8,0.6-1.3,0.8c-0.5,0.2-1.1,0.3-1.9,0.3
			C402,327.3,401.3,327,400.7,326.6z M404.9,325.6c0.4-0.2,0.8-0.5,1.1-0.8v-1.5h-2.7c-0.6,0-1,0.1-1.3,0.3c-0.3,0.2-0.4,0.6-0.4,1
			c0,0.4,0.1,0.7,0.4,0.9c0.3,0.2,0.7,0.3,1.3,0.3C404,325.9,404.5,325.8,404.9,325.6z"/>
		<path class="st1" d="M411.4,318.6h1.8l0.1,0.9c0.4-0.3,0.9-0.6,1.4-0.8s1.1-0.3,1.7-0.3c1.1,0,1.9,0.3,2.4,0.8
			c0.5,0.5,0.8,1.3,0.8,2.4v5.5h-1.9v-5.4c0-0.7-0.1-1.1-0.4-1.4c-0.3-0.3-0.8-0.4-1.5-0.4c-0.4,0-0.9,0.1-1.3,0.3
			c-0.4,0.2-0.8,0.4-1.1,0.7v6.2h-2V318.6z"/>
		<path class="st1" d="M423.8,326.3c-0.7-0.7-1-1.7-1-3.2c0-1,0.2-1.8,0.5-2.6c0.3-0.7,0.8-1.2,1.4-1.6s1.3-0.5,2.1-0.5
			c0.5,0,1,0.1,1.4,0.2c0.4,0.1,0.8,0.3,1.2,0.6V315h2v12.1h-1.7l-0.1-0.8c-0.4,0.4-0.8,0.6-1.3,0.8c-0.5,0.2-1,0.2-1.6,0.2
			C425.4,327.3,424.5,326.9,423.8,326.3z M429.4,324.9v-4.3c-0.6-0.5-1.3-0.8-2.1-0.8c-0.8,0-1.5,0.3-1.9,0.8s-0.6,1.4-0.6,2.4
			c0,1,0.2,1.7,0.6,2.1c0.4,0.4,1,0.6,1.9,0.6C428.1,325.8,428.8,325.5,429.4,324.9z"/>
		<path class="st1" d="M434.1,318.6h2l1.5,6.2l1.7-5.2v-1h1.5l1.9,6.2l1.5-6.2h1.9l-2.2,8.5h-1.9l-1.8-5.6l-1.9,5.6h-1.9
			L434.1,318.6z"/>
		<path class="st1" d="M449.9,320.1h-1.3l0.2-1.5h3.1v8.5h-2V320.1z M449.8,315.2h2.1v1.6h-2.1V315.2z"/>
		<path class="st1" d="M456.3,326.1c-0.8-0.8-1.2-1.9-1.2-3.3c0-1.5,0.4-2.6,1.2-3.3s2-1.1,3.4-1.1c0.6,0,1.1,0,1.5,0.1
			c0.4,0.1,0.8,0.2,1.2,0.4v1.5c-0.6-0.3-1.4-0.5-2.3-0.5c-1,0-1.8,0.2-2.3,0.7s-0.8,1.2-0.8,2.3c0,1,0.2,1.8,0.7,2.3
			c0.5,0.5,1.2,0.7,2.3,0.7c0.9,0,1.6-0.2,2.3-0.5v1.5c-0.8,0.3-1.7,0.5-2.8,0.5C458.2,327.3,457.1,326.9,456.3,326.1z"/>
		<path class="st1" d="M465.7,315h2v4.4c0.4-0.3,0.8-0.6,1.4-0.7c0.5-0.2,1.1-0.3,1.7-0.3c1.1,0,1.9,0.3,2.4,0.8
			c0.5,0.5,0.8,1.3,0.8,2.4v5.5H472v-5.4c0-0.7-0.1-1.1-0.4-1.4c-0.3-0.3-0.8-0.4-1.5-0.4c-0.4,0-0.9,0.1-1.3,0.3
			c-0.4,0.2-0.8,0.4-1.1,0.7v6.2h-2V315z"/>
	</g>
</g>
<path class="st0" d="M274,146.3c0-17.2-23.3-31.1-52-31.1c-2.9,0-5.8,0.1-8.5,0.4c-4.6-19.7-30.6-34.8-62-34.8
	c-28.2,0-52.1,12.2-60,29c-4.5-0.9-9.2-1.3-14.1-1.3c-26.7,0-48.3,13.7-48.3,30.6c0,12.8,12.4,23.7,29.9,28.3
	c-0.1,0.8-0.1,1.5-0.1,2.3c0,19,21.4,34.4,47.8,34.4c14.8,0,28.1-4.9,36.9-12.5c7.1,11.2,24.3,19.2,44.4,19.2
	c26.4,0,47.8-13.7,47.8-30.6c0-1.3-0.1-2.6-0.4-3.9C257.6,172.8,274,160.7,274,146.3z"/>
<g>
	<g>
		<path class="st1" d="M87,150v-1.5c0.8,0.3,1.6,0.5,2.4,0.5c0.8,0,1.5-0.1,2-0.3c0.5-0.2,0.8-0.6,1-1.1c0.2-0.5,0.3-1.2,0.3-2
			c0-1.2-0.3-2.1-0.8-2.7c-0.5-0.5-1.4-0.8-2.5-0.8c-0.8,0-1.6,0.2-2.4,0.5V141c0.9-0.4,1.8-0.5,2.9-0.5c1.6,0,2.8,0.4,3.6,1.3
			c0.8,0.9,1.2,2.1,1.2,3.8c0,1.7-0.4,2.9-1.2,3.8c-0.8,0.9-2,1.3-3.6,1.3C88.8,150.5,87.8,150.3,87,150z"/>
		<path class="st1" d="M86.7,137.8h7.4v1.4h-7.5L86.7,137.8z"/>
		<path class="st1" d="M99.4,150.3c-0.7-0.1-1.3-0.3-1.8-0.5v-3.7h1.8v2.5c0.6,0.2,1.3,0.3,2,0.3c0.8,0,1.3-0.1,1.7-0.3
			s0.5-0.6,0.5-1.2c0-0.4-0.1-0.7-0.3-1c-0.2-0.2-0.5-0.4-0.8-0.5c-0.3-0.1-1-0.3-1.8-0.5c-0.7-0.2-1.3-0.3-1.7-0.5
			c-0.4-0.2-0.8-0.4-1.1-0.7c-0.3-0.3-0.4-0.8-0.4-1.3c0-0.8,0.4-1.5,1.1-1.9c0.7-0.4,1.8-0.6,3.1-0.6c0.6,0,1.3,0,1.9,0.1
			c0.6,0.1,1.1,0.2,1.5,0.3v1.6c-0.4-0.2-0.9-0.3-1.5-0.4c-0.6-0.1-1.1-0.1-1.7-0.1c-0.8,0-1.4,0.1-1.9,0.2s-0.7,0.4-0.7,0.7
			c0,0.3,0.2,0.6,0.5,0.7c0.3,0.1,0.8,0.3,1.5,0.5c0.2,0,0.3,0.1,0.5,0.1c0.2,0,0.4,0.1,0.6,0.2c0.7,0.2,1.3,0.4,1.7,0.6
			c0.4,0.2,0.8,0.5,1,0.9s0.4,0.9,0.4,1.6c0,1-0.4,1.8-1.1,2.3c-0.7,0.5-1.7,0.8-2.9,0.8C100.8,150.5,100.1,150.5,99.4,150.3z"/>
		<path class="st1" d="M97.5,137.8h5.8v-1.5h1.6v2.9h-7.5L97.5,137.8z"/>
		<path class="st1" d="M116.6,148.5v-7.8h1.9v7.4c0,0.3,0.1,0.5,0.2,0.6c0.1,0.1,0.3,0.2,0.6,0.2h0.8v1.5h-1.7
			C117.3,150.3,116.6,149.7,116.6,148.5z"/>
		<path class="st1" d="M123.5,148.5v-7.8h1.9v7.4c0,0.3,0.1,0.5,0.2,0.6s0.3,0.2,0.6,0.2h0.8v1.5h-1.7
			C124.1,150.3,123.5,149.7,123.5,148.5z"/>
		<path class="st1" d="M131.5,149.5c-0.8-0.7-1.2-1.7-1.2-3v-5.9h2v6c0,0.8,0.2,1.4,0.6,1.8c0.4,0.4,1,0.6,1.9,0.6s1.5-0.2,1.9-0.6
			s0.6-1,0.6-1.8v-6h1.9v5.9c0,1.3-0.4,2.3-1.2,3s-1.9,1-3.3,1C133.3,150.5,132.3,150.2,131.5,149.5z"/>
		<path class="st1" d="M144,149.5c-0.8-0.7-1.2-1.7-1.2-3v-5.9h2v6c0,0.8,0.2,1.4,0.6,1.8s1,0.6,1.9,0.6s1.5-0.2,1.9-0.6
			c0.4-0.4,0.6-1,0.6-1.8v-6h1.9v5.9c0,1.3-0.4,2.3-1.2,3c-0.8,0.7-1.9,1-3.3,1C145.9,150.5,144.8,150.2,144,149.5z"/>
		<path class="st1" d="M155.4,148.5v-7.8h1.9v7.4c0,0.3,0.1,0.5,0.2,0.6s0.3,0.2,0.6,0.2h0.8v1.5h-1.7
			C156,150.3,155.4,149.7,155.4,148.5z"/>
		<path class="st1" d="M165.6,150.2c-0.5-0.2-1.1-0.5-1.5-0.9l-0.1,1.1h-1.8v-9.7h2v7.2c0.3,0.3,0.7,0.6,1.2,0.8s1,0.3,1.5,0.3
			c0.7,0,1.2-0.2,1.5-0.5s0.5-0.8,0.5-1.6v-6.3h1.9v6.4c0,1.1-0.3,2-0.9,2.6c-0.6,0.6-1.4,0.9-2.4,0.9
			C166.8,150.5,166.2,150.4,165.6,150.2z"/>
		<path class="st1" d="M177.8,150.2c-0.5-0.2-1.1-0.5-1.5-0.9l-0.1,1.1h-1.8v-3.8c0-0.4,0.1-0.8,0.3-1.2c0.2-0.4,0.5-0.9,0.9-1.4
			c0.3-0.4,0.5-0.7,0.6-0.9c0.1-0.2,0.2-0.4,0.2-0.5c0-0.3-0.1-0.4-0.4-0.4c-0.2,0-0.4,0.1-0.6,0.3v0.7h-1.3v-2.4h1.4v0.5
			c0.2-0.2,0.4-0.3,0.6-0.4s0.5-0.1,0.8-0.1c0.4,0,0.8,0.1,1,0.4c0.2,0.2,0.4,0.6,0.4,1c0,0.4-0.1,0.7-0.2,1s-0.4,0.8-0.7,1.3
			c-0.3,0.5-0.5,0.9-0.7,1.2c-0.2,0.3-0.2,0.6-0.2,1v1.3c0.3,0.3,0.7,0.6,1.2,0.8c0.5,0.2,1,0.3,1.5,0.3c0.7,0,1.2-0.2,1.5-0.5
			s0.5-0.8,0.5-1.6v-6.3h1.9v6.4c0,1.1-0.3,2-0.9,2.6s-1.4,0.9-2.4,0.9C178.9,150.5,178.3,150.4,177.8,150.2z"/>
		<path class="st1" d="M186.6,148.5v-7.8h1.9v7.4c0,0.3,0.1,0.5,0.2,0.6c0.1,0.1,0.3,0.2,0.6,0.2h0.8v1.5h-1.7
			C187.2,150.3,186.6,149.7,186.6,148.5z"/>
		<path class="st1" d="M194.2,149.8c-0.8-0.5-1.2-1.3-1.2-2.3c0-0.5,0.1-0.9,0.4-1.3s0.6-0.7,1-0.9c-0.4-0.1-0.7-0.4-0.9-0.7
			c-0.2-0.4-0.4-0.8-0.4-1.3c0-0.9,0.3-1.6,0.8-2.1c0.6-0.5,1.3-0.7,2.2-0.7c0.6,0,1.1,0.1,1.6,0.2v1.5c-0.3-0.1-0.8-0.1-1.2-0.1
			c-1,0-1.5,0.4-1.5,1.2c0,0.9,0.6,1.3,1.7,1.3h1l0.1,1.5h-1.2c-1.1,0-1.7,0.5-1.7,1.5c0,0.5,0.2,0.9,0.6,1.1c0.4,0.2,1,0.4,1.9,0.4
			c0.9,0,1.5-0.2,1.9-0.5c0.4-0.3,0.6-0.9,0.6-1.6v-6.3h1.9v6c0,1.3-0.4,2.3-1.1,2.9c-0.7,0.6-1.8,1-3.3,1
			C196.1,150.5,195,150.3,194.2,149.8z"/>
		<path class="st1" d="M194.9,138.6c-0.4-0.4-0.6-0.9-0.6-1.5c0-0.7,0.2-1.2,0.6-1.6s1-0.6,1.8-0.6h4.4l-0.1,1.2h-4.2
			c-0.4,0-0.7,0.1-0.9,0.2s-0.3,0.4-0.3,0.8c0,0.6,0.3,1,1,1c0.6,0,1-0.3,1-0.8v-0.4h1.2v0.4c0,0.3,0.1,0.4,0.2,0.5
			c0.1,0.1,0.3,0.2,0.6,0.2h1.1v1.1h-1.3c-0.3,0-0.6,0-0.8-0.1c-0.2-0.1-0.4-0.2-0.5-0.4c-0.1,0.2-0.3,0.3-0.7,0.4
			c-0.3,0.1-0.7,0.2-1,0.2C195.9,139.2,195.3,139,194.9,138.6z"/>
		<path class="st1" d="M206.4,149.6c-0.6-0.6-0.9-1.5-0.9-2.6v-6.4h2v6.3c0,0.7,0.2,1.2,0.5,1.6c0.3,0.3,0.8,0.5,1.5,0.5
			c0.5,0,1-0.1,1.5-0.3c0.5-0.2,0.9-0.5,1.2-0.8v-7.2h1.9v9.7h-1.8l-0.1-1.1c-1,0.8-2.1,1.2-3.4,1.2
			C207.8,150.5,207,150.2,206.4,149.6z"/>
	</g>
</g>
<path class="st0" d="M699,146.3c0-17.2-23.3-31.1-52-31.1c-2.9,0-5.8,0.1-8.5,0.4c-4.6-19.7-30.6-34.8-62-34.8
	c-28.2,0-52.1,12.2-60,29c-4.5-0.9-9.2-1.3-14.1-1.3c-26.7,0-48.3,13.7-48.3,30.6c0,12.8,12.4,23.7,29.9,28.3
	c-0.1,0.8-0.1,1.5-0.1,2.3c0,19,21.4,34.4,47.8,34.4c14.8,0,28.1-4.9,36.9-12.5c7.1,11.2,24.3,19.2,44.4,19.2
	c26.4,0,47.8-13.7,47.8-30.6c0-1.3-0.1-2.6-0.4-3.9C682.6,172.8,699,160.7,699,146.3z"/>
<g>
	<g>
		<path class="st1" d="M499.1,150v-1.5c0.8,0.3,1.6,0.5,2.4,0.5c0.8,0,1.5-0.1,2-0.3c0.5-0.2,0.8-0.6,1-1.1s0.3-1.2,0.3-2
			c0-1.2-0.3-2.1-0.8-2.7c-0.5-0.5-1.4-0.8-2.5-0.8c-0.8,0-1.6,0.2-2.4,0.5V141c0.9-0.4,1.8-0.5,2.9-0.5c1.6,0,2.8,0.4,3.6,1.3
			c0.8,0.9,1.2,2.1,1.2,3.8c0,1.7-0.4,2.9-1.2,3.8c-0.8,0.9-2,1.3-3.6,1.3C500.9,150.5,499.9,150.3,499.1,150z"/>
		<path class="st1" d="M498.8,137.8h7.4v1.4h-7.5L498.8,137.8z"/>
		<path class="st1" d="M511.4,150.3c-0.7-0.1-1.3-0.3-1.8-0.5v-3.7h1.8v2.5c0.6,0.2,1.3,0.3,2,0.3c0.8,0,1.3-0.1,1.7-0.3
			c0.4-0.2,0.5-0.6,0.5-1.2c0-0.4-0.1-0.7-0.3-1c-0.2-0.2-0.5-0.4-0.8-0.5c-0.3-0.1-1-0.3-1.8-0.5c-0.7-0.2-1.3-0.3-1.7-0.5
			c-0.4-0.2-0.8-0.4-1.1-0.7s-0.4-0.8-0.4-1.3c0-0.8,0.4-1.5,1.1-1.9c0.7-0.4,1.8-0.6,3.1-0.6c0.6,0,1.3,0,1.9,0.1
			c0.6,0.1,1.1,0.2,1.5,0.3v1.6c-0.4-0.2-0.9-0.3-1.5-0.4c-0.6-0.1-1.1-0.1-1.7-0.1c-0.8,0-1.4,0.1-1.9,0.2s-0.7,0.4-0.7,0.7
			c0,0.3,0.2,0.6,0.5,0.7c0.3,0.1,0.8,0.3,1.5,0.5c0.2,0,0.3,0.1,0.5,0.1c0.2,0,0.4,0.1,0.6,0.2c0.7,0.2,1.3,0.4,1.7,0.6
			c0.4,0.2,0.8,0.5,1,0.9s0.4,0.9,0.4,1.6c0,1-0.4,1.8-1.1,2.3c-0.7,0.5-1.7,0.8-2.9,0.8C512.9,150.5,512.1,150.5,511.4,150.3z"/>
		<path class="st1" d="M509.6,137.8h5.8v-1.5h1.6v2.9h-7.5L509.6,137.8z"/>
		<path class="st1" d="M528.7,148.5v-7.8h1.9v7.4c0,0.3,0.1,0.5,0.2,0.6s0.3,0.2,0.6,0.2h0.8v1.5h-1.7
			C529.3,150.3,528.7,149.7,528.7,148.5z"/>
		<path class="st1" d="M535.6,148.5v-7.8h1.9v7.4c0,0.3,0.1,0.5,0.2,0.6c0.1,0.1,0.3,0.2,0.6,0.2h0.8v1.5h-1.7
			C536.2,150.3,535.6,149.7,535.6,148.5z"/>
		<path class="st1" d="M543.5,149.5c-0.8-0.7-1.2-1.7-1.2-3v-5.9h2v6c0,0.8,0.2,1.4,0.6,1.8s1,0.6,1.9,0.6s1.5-0.2,1.9-0.6
			c0.4-0.4,0.6-1,0.6-1.8v-6h1.9v5.9c0,1.3-0.4,2.3-1.2,3c-0.8,0.7-1.9,1-3.3,1C545.4,150.5,544.3,150.2,543.5,149.5z"/>
		<path class="st1" d="M556,149.5c-0.8-0.7-1.2-1.7-1.2-3v-5.9h2v6c0,0.8,0.2,1.4,0.6,1.8c0.4,0.4,1,0.6,1.9,0.6s1.5-0.2,1.9-0.6
			s0.6-1,0.6-1.8v-6h1.9v5.9c0,1.3-0.4,2.3-1.2,3s-1.9,1-3.3,1C557.9,150.5,556.8,150.2,556,149.5z"/>
		<path class="st1" d="M567.3,149.9v-1.7c1.1,0.4,2.3,0.6,3.4,0.6c1,0,1.7-0.1,2.1-0.3c0.4-0.2,0.7-0.7,0.7-1.3
			c0-0.4-0.1-0.7-0.3-0.9c-0.2-0.2-0.5-0.4-0.9-0.6s-1-0.4-1.9-0.6c-1.2-0.3-2.1-0.7-2.6-1.2s-0.8-1.2-0.8-2.1c0-1,0.4-1.8,1.1-2.4
			c0.8-0.6,1.9-0.9,3.3-0.9c0.6,0,1.3,0,1.8,0.1s1.1,0.2,1.4,0.3v1.7c-0.9-0.3-1.9-0.5-3-0.5c-0.9,0-1.6,0.1-2.1,0.4
			c-0.5,0.2-0.7,0.6-0.7,1.2c0,0.3,0.1,0.6,0.3,0.8s0.4,0.4,0.8,0.6c0.4,0.2,1,0.3,1.8,0.5c1.4,0.3,2.3,0.8,2.8,1.3
			c0.5,0.6,0.8,1.3,0.8,2.1c0,1-0.4,1.8-1.2,2.4c-0.8,0.6-1.9,0.9-3.4,0.9S568.2,150.3,567.3,149.9z"/>
		<path class="st1" d="M579,149.8c-0.6-0.5-0.9-1.1-0.9-1.9s0.3-1.5,0.9-2c0.6-0.5,1.4-0.7,2.6-0.7h2.7v-0.4c0-0.4-0.1-0.7-0.2-1
			c-0.1-0.2-0.4-0.4-0.7-0.5c-0.3-0.1-0.8-0.2-1.4-0.2c-1,0-2,0.1-2.8,0.4v-1.5c0.4-0.2,0.9-0.3,1.4-0.4c0.6-0.1,1.1-0.1,1.7-0.1
			c1.3,0,2.2,0.3,2.9,0.8c0.6,0.5,1,1.3,1,2.4v5.5h-1.7l-0.1-0.9c-0.4,0.3-0.8,0.6-1.3,0.8s-1.1,0.3-1.9,0.3
			C580.2,150.5,579.5,150.3,579,149.8z M583.1,148.8c0.4-0.2,0.8-0.5,1.1-0.8v-1.5h-2.7c-0.6,0-1,0.1-1.3,0.3s-0.4,0.6-0.4,1
			c0,0.4,0.1,0.7,0.4,0.9c0.3,0.2,0.7,0.3,1.3,0.3C582.2,149.1,582.7,149,583.1,148.8z"/>
		<path class="st1" d="M589.6,141.8h1.8l0.1,0.9c0.4-0.3,0.9-0.6,1.4-0.8s1.1-0.3,1.7-0.3c1.1,0,1.9,0.3,2.4,0.8
			c0.5,0.5,0.8,1.3,0.8,2.4v5.5h-1.9v-5.4c0-0.7-0.1-1.1-0.4-1.4c-0.3-0.3-0.8-0.4-1.5-0.4c-0.4,0-0.9,0.1-1.3,0.3
			c-0.4,0.2-0.8,0.4-1.1,0.7v6.2h-2V141.8z"/>
		<path class="st1" d="M602,149.5c-0.7-0.7-1-1.7-1-3.2c0-1,0.2-1.8,0.5-2.6c0.3-0.7,0.8-1.2,1.4-1.6c0.6-0.4,1.3-0.5,2.1-0.5
			c0.5,0,1,0.1,1.4,0.2c0.4,0.1,0.8,0.3,1.2,0.6v-4.2h2v12.1h-1.7l-0.1-0.8c-0.4,0.4-0.8,0.6-1.3,0.8c-0.5,0.2-1,0.2-1.6,0.2
			C603.7,150.5,602.7,150.2,602,149.5z M607.6,148.1v-4.3c-0.6-0.5-1.3-0.8-2.1-0.8c-0.8,0-1.5,0.3-1.9,0.8s-0.6,1.4-0.6,2.4
			c0,1,0.2,1.7,0.6,2.1c0.4,0.4,1,0.6,1.9,0.6C606.3,149,607,148.7,607.6,148.1z"/>
		<path class="st1" d="M612.4,141.8h2l1.5,6.2l1.7-5.2v-1h1.5l1.9,6.2l1.5-6.2h1.9l-2.2,8.5h-1.9l-1.8-5.6l-1.9,5.6h-1.9
			L612.4,141.8z"/>
		<path class="st1" d="M628.1,143.3h-1.3l0.2-1.5h3.1v8.5h-2V143.3z M628,138.4h2.1v1.6H628V138.4z"/>
		<path class="st1" d="M634.5,149.4c-0.8-0.8-1.2-1.9-1.2-3.3c0-1.5,0.4-2.6,1.2-3.3s2-1.1,3.4-1.1c0.6,0,1.1,0,1.5,0.1
			c0.4,0.1,0.8,0.2,1.2,0.4v1.5c-0.6-0.3-1.4-0.5-2.3-0.5c-1,0-1.8,0.2-2.3,0.7c-0.5,0.5-0.8,1.2-0.8,2.3c0,1,0.2,1.8,0.7,2.3
			c0.5,0.5,1.2,0.7,2.3,0.7c0.9,0,1.6-0.2,2.3-0.5v1.5c-0.8,0.3-1.7,0.5-2.8,0.5C636.4,150.5,635.3,150.1,634.5,149.4z"/>
		<path class="st1" d="M643.9,138.2h2v4.4c0.4-0.3,0.8-0.6,1.4-0.7c0.5-0.2,1.1-0.3,1.7-0.3c1.1,0,1.9,0.3,2.4,0.8
			c0.5,0.5,0.8,1.3,0.8,2.4v5.5h-1.9v-5.4c0-0.7-0.1-1.1-0.4-1.4c-0.3-0.3-0.8-0.4-1.5-0.4c-0.4,0-0.9,0.1-1.3,0.3
			c-0.4,0.2-0.8,0.4-1.1,0.7v6.2h-2V138.2z"/>
	</g>
</g>
<g>
	<line class="st2" x1="338.8" y1="142.4" x2="388.8" y2="142.4"/>
	<line class="st2" x1="363.8" y1="167.4" x2="363.8" y2="117.4"/>
</g>
<g>
	<g>
		<g>
			<line class="st3" x1="281.8" y1="430.4" x2="285.5" y2="435.1"/>
			<line class="st4" x1="292.7" y1="444.4" x2="375.6" y2="551"/>
			<line class="st3" x1="379.2" y1="555.6" x2="382.8" y2="560.4"/>
		</g>
	</g>
	<g>
		<g>
			<line class="st3" x1="331.8" y1="430.4" x2="335.5" y2="435.1"/>
			<line class="st4" x1="342.7" y1="444.4" x2="425.6" y2="551"/>
			<line class="st3" x1="429.2" y1="555.6" x2="432.8" y2="560.4"/>
		</g>
	</g>
	<g>
		<g>
			<line class="st3" x1="381.8" y1="430.4" x2="385.5" y2="435.1"/>
			<line class="st4" x1="392.7" y1="444.4" x2="475.6" y2="551"/>
			<line class="st3" x1="479.2" y1="555.6" x2="482.8" y2="560.4"/>
		</g>
	</g>
	<g>
		<g>
			<line class="st3" x1="431.8" y1="430.4" x2="435.5" y2="435.1"/>
			<line class="st4" x1="442.7" y1="444.4" x2="525.6" y2="551"/>
			<line class="st3" x1="529.2" y1="555.6" x2="532.8" y2="560.4"/>
		</g>
	</g>
	<g>
		<g>
			<line class="st3" x1="481.8" y1="430.4" x2="485.5" y2="435.1"/>
			<line class="st4" x1="492.7" y1="444.4" x2="575.6" y2="551"/>
			<line class="st3" x1="579.2" y1="555.6" x2="582.8" y2="560.4"/>
		</g>
	</g>
</g>
</svg>
