<?xml version="1.0" encoding="utf-8"?>
<!-- Generator: Adobe Illustrator 23.0.1, SVG Export Plug-In . SVG Version: 6.00 Build 0)  -->
<svg version="1.1" id="Layer_1" xmlns="http://www.w3.org/2000/svg" xmlns:xlink="http://www.w3.org/1999/xlink" x="0px" y="0px"
	 viewBox="0 0 725.5 627.4" style="enable-background:new 0 0 725.5 627.4;" xml:space="preserve">
<style type="text/css">
	.st0{fill:none;stroke:#FFFFFF;stroke-miterlimit:10;}
	.st1{fill:#E5E1D8;}
	.st2{fill:#FFFFFF;}
	.st3{fill:#556172;stroke:#FFFFFF;stroke-miterlimit:10;}
	.st4{fill:#FFFFFF;stroke:#FFFFFF;stroke-miterlimit:10;}
	.st5{fill:#FFFFFF;stroke:#556172;stroke-miterlimit:10;}
	.st6{fill:#010101;}
	.st7{fill:none;stroke:#FFFFFF;stroke-miterlimit:10;stroke-dasharray:13.6247,13.6247;}
	.st8{fill:none;stroke:#FFFFFF;stroke-linecap:round;stroke-linejoin:round;stroke-miterlimit:10;}
</style>
<path class="st0" d="M342.9,357c-1.1-7-6.3-28.2-30.9-60.8c-24.6,32.6-29.8,53.8-30.9,60.8c-0.4,1.9-0.6,3.9-0.6,5.9
	c0,17.4,14.1,31.4,31.4,31.4s31.4-14.1,31.4-31.4C343.4,360.9,343.2,358.9,342.9,357z"/>
<path class="st1" d="M639,69.9c-10.2,0-19.7,1.5-28.1,4.3c-1.4,0.4-2.9,0-3.7-1.2c-7.7-10.9-26.6-18.6-48.6-18.6
	c-24.8,0-45.5,9.7-50.9,22.8c-0.6,1.6-2.4,2.4-4,1.9c-7.4-2.2-16-3.4-25.1-3.4c-16.9,0-31.8,4.2-40.8,10.6c-0.7,0.5-1.5,0.7-2.3,0.6
	L391,81.3l-20.4,6.5l72.2,30.1c0.1,0,0.1,0.1,0.2,0.1c2.2,1.1,4.7,2.2,7.3,3.1c0.1,0,0.1,0,0.2,0.1l15.1,6.3
	c1.3,0.5,2.2,1.8,2.2,3.3l0,0c0,14.2,21.2,25.7,47.4,25.7c4.2,0,8.3-0.3,12.2-0.9c0.8-0.1,1.7,0.1,2.4,0.6
	c9.2,6.2,22.9,10.1,38.1,10.1c24,0,44-9.7,49-22.6c0.6-1.5,2.2-2.3,3.7-2c5.8,1.1,11.9,1.8,18.3,1.8c33.2,0,60.1-16.5,60.1-36.8
	C699,86.4,672.1,69.9,639,69.9z"/>
<g>
	<path class="st2" d="M313.3,119.2c4.8-6.3-2.3-13.3-8.6-8.6C300,116.9,307,124,313.3,119.2z M305.9,114.9c0-1.8,1.4-3.2,3.2-3.2
		s3.2,1.4,3.2,3.2s-1.4,3.2-3.2,3.2S305.9,116.7,305.9,114.9z"/>
	<rect x="306.3" y="97.9" class="st3" width="5.5" height="4.3"/>
	
		<rect x="307.2" y="102.2" transform="matrix(-1 -4.575064e-11 4.575064e-11 -1 618.0398 211.6443)" class="st3" width="3.7" height="7.2"/>
	<path class="st3" d="M309,114.9h0.1c0.4,0,0.7-0.3,0.7-0.7v-4.2c0-0.4-0.3-0.7-0.7-0.7H309c-0.4,0-0.7,0.3-0.7,0.7v4.2
		C308.3,114.6,308.6,114.9,309,114.9z"/>
	<polyline class="st3" points="291.2,107.3 296,97 301,97 294,108.5 	"/>
	<line class="st3" x1="293.9" y1="101.5" x2="298.3" y2="101.5"/>
	
		<rect x="233.3" y="94" transform="matrix(-1 -4.502810e-11 4.502810e-11 -1 472.3004 195.8953)" class="st3" width="5.8" height="7.8"/>
	
		<rect x="234.9" y="101.9" transform="matrix(-1 -4.543178e-11 4.543178e-11 -1 472.3004 212.0616)" class="st3" width="2.4" height="8.3"/>
	<path class="st2" d="M239.6,117.2c4.1-5.4-2-11.4-7.3-7.3C228.1,115.3,234.2,121.3,239.6,117.2z M233.3,113.6
		c0-1.5,1.2-2.7,2.7-2.7s2.7,1.2,2.7,2.7c0,1.5-1.2,2.7-2.7,2.7S233.3,115.1,233.3,113.6z"/>
	<path class="st2" d="M284.5,113.1c0,3.2,2.6,5.8,5.8,5.8c3.2,0,5.8-2.6,5.8-5.8c0-3.2-2.6-5.8-5.8-5.8
		C287.1,107.3,284.5,109.9,284.5,113.1z M287.3,113.1c0-1.8,1.4-3.2,3.2-3.2c1.8,0,3.2,1.4,3.2,3.2c0,1.8-1.4,3.2-3.2,3.2
		C288.7,116.3,287.3,114.9,287.3,113.1z"/>
	<path class="st3" d="M434,28h-12c-0.2,0-0.5,0.1-0.6,0.3l-18.6,31.8c-0.1,0.2-0.3,0.3-0.4,0.3l-40.1,10.1l-62.7-4.3
		c0,0-35.6-16-36.8-16.3c-1.2-0.3-23.7-3.9-24.2-0.1c0,1.8,30,18.4,30,18.4s-10.5,4.7-13,8.1c-11.1,0.8-27.7,0.9-32.5,4.8
		c-5.4,0.6-8.6,2-8.6,3.9c0,2,8.6,3.7,8.6,3.7s3,5.8,22.6,7.1s97.7,3.3,98.9,3.1s73.4-11.3,75.5-12.7c1.6-1.1,8.2-5.9,11.4-8.2
		c0.6-0.4,0.3-1.3-0.4-1.3h0c-0.4,0-0.7-0.4-0.7-0.8l4.3-47.4C434.8,28.4,434.5,28,434,28z"/>
	<line class="st4" x1="362.3" y1="70.6" x2="430.6" y2="76.7"/>
	<path class="st3" d="M343.6,85.1l32.9,38.4c0.9,1.1,0.3,2.7-1.1,2.9l-13.8,2.1c-0.5,0.1-0.9,0-1.3-0.3l-54.1-39.2"/>
	<path class="st4" d="M269.7,67.7c1.9,1.8,1.9,4.1,1.9,4.9c0,0.2-0.1,0.3-0.2,0.5l-6.6,6.1c-0.2,0.2-0.5,0.2-0.7,0.1l-8.5-2.9
		c0,0,4.6-3.7,6.5-4.8C263.5,70.8,269.7,67.7,269.7,67.7z"/>
	<path class="st4" d="M340,81.1h7.3c0.7,0,1.2-0.5,1.2-1.2v-4.3c0-0.7-0.5-1.2-1.2-1.2H340c-0.7,0-1.2,0.5-1.2,1.2V80
		C338.8,80.6,339.3,81.1,340,81.1z"/>
	<path class="st4" d="M327.2,81.1h7.3c0.7,0,1.2-0.5,1.2-1.2v-4.3c0-0.7-0.5-1.2-1.2-1.2h-7.3c-0.7,0-1.2,0.5-1.2,1.2V80
		C326,80.6,326.5,81.1,327.2,81.1z"/>
	<path class="st4" d="M314.4,81.1h7.3c0.7,0,1.2-0.5,1.2-1.2v-4.3c0-0.7-0.5-1.2-1.2-1.2h-7.3c-0.7,0-1.2,0.5-1.2,1.2V80
		C313.2,80.6,313.7,81.1,314.4,81.1z"/>
	<path class="st4" d="M301.6,81.1h7.3c0.7,0,1.2-0.5,1.2-1.2v-4.3c0-0.7-0.5-1.2-1.2-1.2h-7.3c-0.7,0-1.2,0.5-1.2,1.2V80
		C300.4,80.6,300.9,81.1,301.6,81.1z"/>
	<path class="st4" d="M288.8,81.1h7.3c0.7,0,1.2-0.5,1.2-1.2v-4.3c0-0.7-0.5-1.2-1.2-1.2h-7.3c-0.7,0-1.2,0.5-1.2,1.2V80
		C287.6,80.6,288.1,81.1,288.8,81.1z"/>
	<path class="st4" d="M280.6,75v5c0,0.4-0.3,0.7-0.7,0.7l-9.5-0.3c-0.6,0-0.9-0.8-0.5-1.2L276,73c0.2-0.2,0.5-0.3,0.8-0.1l3.3,1.5
		C280.4,74.4,280.6,74.7,280.6,75z"/>
	<path class="st3" d="M284.4,90.3l-10.2-21.8c-0.1-0.2-0.4-0.4-0.6-0.4h-2.8c-0.5,0-0.8,0.5-0.6,1l9.2,21.8c0.1,0.3,0.4,0.4,0.6,0.4
		h3.8C284.3,91.3,284.7,90.7,284.4,90.3z"/>
	<path class="st4" d="M267.7,68.1h9.5c0.7,0,1.2-0.5,1.2-1.2v-0.6c0-0.7-0.5-1.2-1.2-1.2h-9.5c-0.7,0-1.2,0.5-1.2,1.2v0.6
		C266.5,67.6,267,68.1,267.7,68.1z"/>
	<line class="st4" x1="223.1" y1="81.3" x2="223.1" y2="88.9"/>
</g>
<line class="st0" x1="296.4" y1="76.7" x2="317.1" y2="76.7"/>
<line class="st0" x1="189.7" y1="67" x2="189.7" y2="269.4"/>
<line class="st0" x1="179.4" y1="268.9" x2="200.1" y2="269.2"/>
<line class="st0" x1="179.4" y1="66.9" x2="200.1" y2="67.2"/>
<g>
	<g>
		<path class="st2" d="M67,171.5c0.3-0.7,0.7-1.3,1.3-1.9c0.5-0.6,1.2-1.3,2-1.9c0.8-0.7,1.3-1.2,1.7-1.5s0.6-0.7,0.7-1
			c0.1-0.3,0.2-0.7,0.2-1.2c0-0.7-0.2-1.2-0.6-1.5c-0.4-0.3-1-0.5-1.9-0.5c-0.9,0-1.9,0.2-2.9,0.6v-1.8c0.5-0.2,1-0.3,1.6-0.4
			c0.6-0.1,1.2-0.1,1.7-0.1c1.3,0,2.4,0.3,3.1,1c0.7,0.7,1.1,1.6,1.1,2.8c0,0.8-0.2,1.5-0.6,2.1c-0.4,0.6-1,1.2-1.8,2l-0.3,0.3
			c-0.7,0.6-1.3,1.1-1.6,1.5c-0.4,0.4-0.7,0.8-0.9,1.2H75v1.6h-8V171.5z"/>
		<path class="st2" d="M80,162.1l-2,0.3v-1.7l4-0.6v12.4H80V162.1z"/>
		<path class="st2" d="M86.1,171.2h1.8l-0.9,3.6h-1.5L86.1,171.2z"/>
		<path class="st2" d="M92.6,172.5c-0.6-0.1-1.2-0.2-1.6-0.4v-1.8c0.4,0.2,0.9,0.3,1.5,0.4s1.1,0.2,1.6,0.2c1,0,1.7-0.2,2.2-0.5
			c0.5-0.3,0.7-0.9,0.7-1.7c0-0.7-0.2-1.3-0.5-1.6c-0.3-0.3-1-0.5-1.9-0.5h-3.6v-1.3l0.3-5.1h7l-0.2,1.6h-5l-0.2,3.2h2.1
			c1.4,0,2.5,0.3,3.2,0.9c0.7,0.6,1,1.5,1,2.8c0,1.2-0.4,2.2-1.2,2.9s-2,1-3.5,1C93.8,172.7,93.2,172.6,92.6,172.5z"/>
		<path class="st2" d="M103.4,171.2c-0.9-1.1-1.3-2.6-1.3-4.7c0-2.1,0.4-3.7,1.3-4.8c0.8-1.1,2.2-1.6,4.1-1.6c1.9,0,3.3,0.5,4.1,1.6
			c0.8,1.1,1.3,2.7,1.3,4.8c0,2.1-0.4,3.6-1.3,4.7c-0.9,1.1-2.2,1.6-4.1,1.6C105.6,172.8,104.3,172.3,103.4,171.2z M110,169.9
			c0.5-0.8,0.8-1.9,0.8-3.4c0-1.6-0.2-2.8-0.7-3.5c-0.5-0.8-1.3-1.2-2.5-1.2c-1.2,0-2.1,0.4-2.5,1.2c-0.5,0.8-0.7,2-0.7,3.5
			c0,1.5,0.3,2.6,0.8,3.4c0.5,0.8,1.3,1.1,2.5,1.1C108.7,171.1,109.5,170.7,110,169.9z"/>
		<path class="st2" d="M117.2,171.2c-0.9-1.1-1.3-2.6-1.3-4.7c0-2.1,0.4-3.7,1.3-4.8c0.8-1.1,2.2-1.6,4.1-1.6c1.9,0,3.3,0.5,4.1,1.6
			c0.8,1.1,1.3,2.7,1.3,4.8c0,2.1-0.4,3.6-1.3,4.7c-0.9,1.1-2.2,1.6-4.1,1.6C119.4,172.8,118,172.3,117.2,171.2z M123.8,169.9
			c0.5-0.8,0.8-1.9,0.8-3.4c0-1.6-0.2-2.8-0.7-3.5c-0.5-0.8-1.3-1.2-2.5-1.2c-1.2,0-2.1,0.4-2.5,1.2c-0.5,0.8-0.7,2-0.7,3.5
			c0,1.5,0.3,2.6,0.8,3.4c0.5,0.8,1.3,1.1,2.5,1.1C122.4,171.1,123.3,170.7,123.8,169.9z"/>
		<path class="st2" d="M138,162.2h2l1.5,7.3l1.9-5.9v-1.5h1.5l2.1,7.3l2.1-10.4h2l-2.9,13.3h-1.9l-1.9-6.5l-2.1,6.5h-1.9L138,162.2z
			"/>
		<path class="st2" d="M146.3,174.9h-1.2l0.1-1.3h2.9v3.7h-1.8V174.9z"/>
		<path class="st2" d="M154.5,171.4c-0.8-0.9-1.1-2.1-1.1-3.9c0-1.8,0.3-3.1,0.9-4.1s1.4-1.4,2.5-1.4c0.5,0,0.9,0.1,1.2,0.2
			c0.3,0.2,0.6,0.4,0.8,0.7c0.3-0.3,0.6-0.5,1-0.7s0.9-0.3,1.3-0.3c0.8,0,1.4,0.2,1.8,0.7c0.4,0.5,0.6,1.2,0.6,2v7.7h-2.1v-7.4
			c0-0.5-0.1-0.9-0.2-1.1c-0.1-0.2-0.4-0.3-0.8-0.3c-0.3,0-0.5,0.1-0.7,0.2c-0.2,0.1-0.4,0.4-0.5,0.7h-1.1c-0.2-0.3-0.3-0.5-0.5-0.7
			s-0.4-0.2-0.7-0.2c-0.6,0-1.1,0.3-1.3,1c-0.2,0.6-0.4,1.6-0.4,2.8c0,1.3,0.2,2.2,0.6,2.7c0.4,0.5,1.1,0.8,1.9,0.8
			c0.6,0,1,0,1.3-0.2v1.6c-0.4,0.2-1,0.2-1.7,0.2C156.2,172.7,155.2,172.3,154.5,171.4z"/>
	</g>
</g>
<circle class="st2" cx="166.6" cy="511.4" r="57"/>
<circle class="st0" cx="101.8" cy="510.9" r="10"/>
<circle class="st0" cx="121.4" cy="558.3" r="10"/>
<circle class="st0" cx="168.8" cy="577.9" r="10"/>
<circle class="st0" cx="216.2" cy="558.3" r="10"/>
<circle class="st0" cx="235.8" cy="510.9" r="10"/>
<circle class="st0" cx="216.2" cy="463.5" r="10"/>
<circle class="st0" cx="168.8" cy="443.9" r="10"/>
<circle class="st0" cx="121.4" cy="463.5" r="10"/>
<g>
	<g>
		<path class="st6" d="M136.6,513.7c-0.6-0.5-0.9-1.2-0.9-2.3c0-1,0.3-1.7,1-2.2c0.6-0.5,1.6-0.8,2.8-0.8h3v-0.6
			c0-0.7-0.2-1.2-0.5-1.5c-0.4-0.3-1-0.4-2-0.4c-1.1,0-2.2,0.2-3.2,0.5v-1.5c0.5-0.2,1-0.3,1.7-0.4c0.6-0.1,1.2-0.2,1.8-0.2
			c0.6,0,1.1,0.1,1.7,0.2h3.3l-0.1,1.5H144c0.2,0.3,0.3,0.5,0.3,0.9c0.1,0.3,0.1,0.7,0.1,1.1v6.2h-1.9v-4.3h-2.9
			c-0.7,0-1.2,0.1-1.5,0.3c-0.3,0.2-0.5,0.6-0.5,1.2c0,0.5,0.1,0.9,0.4,1.1s0.8,0.3,1.5,0.3c0.5,0,0.9,0,1.2-0.1v1.5
			c-0.5,0.1-1.1,0.2-1.7,0.2C138,514.4,137.2,514.2,136.6,513.7z"/>
		<path class="st6" d="M152,508.1c0-0.5-0.1-0.9-0.2-1.3s-0.3-0.5-0.6-0.7s-0.7-0.2-1.3-0.2c-0.4,0-0.8,0-1.3,0.1
			c-0.5,0.1-0.9,0.2-1.2,0.3v-1.5c0.4-0.2,0.8-0.3,1.3-0.4c0.5-0.1,1-0.2,1.5-0.2c1.3,0,2.2,0.3,2.8,0.8c0.6,0.6,0.9,1.5,0.9,2.7
			v6.4h-2V508.1z"/>
		<path class="st6" d="M158.9,514.3c-0.6-0.1-1.1-0.2-1.4-0.4v-1.6c0.4,0.2,0.9,0.3,1.5,0.4c0.5,0.1,1,0.1,1.5,0.1
			c0.9,0,1.5-0.1,1.9-0.2c0.4-0.2,0.6-0.5,0.6-0.9c0-0.3-0.1-0.5-0.2-0.7s-0.3-0.3-0.6-0.4c-0.3-0.1-0.6-0.2-1.2-0.4l-0.7-0.2
			c-1-0.3-1.7-0.7-2.2-1.1s-0.7-1-0.7-1.7c0-0.9,0.3-1.6,1-2c0.7-0.5,1.6-0.7,2.9-0.7c0.5,0,1.1,0,1.6,0.1c0.5,0.1,1,0.2,1.4,0.3
			v1.6c-0.4-0.1-0.8-0.3-1.3-0.3c-0.5-0.1-0.9-0.1-1.4-0.1c-0.8,0-1.3,0.1-1.7,0.2c-0.4,0.2-0.6,0.5-0.6,0.9c0,0.3,0.1,0.5,0.2,0.6
			c0.2,0.2,0.4,0.3,0.7,0.4c0.3,0.1,0.7,0.3,1.3,0.5l0.5,0.2c1,0.3,1.8,0.7,2.2,1.1c0.5,0.4,0.7,1,0.7,1.8c0,0.9-0.3,1.6-1,2.1
			s-1.7,0.7-2.9,0.7C160.1,514.4,159.5,514.4,158.9,514.3z"/>
		<path class="st6" d="M168,512.4v-7.8h1.9v7.4c0,0.3,0.1,0.5,0.2,0.6c0.1,0.1,0.3,0.2,0.6,0.2h0.8v1.5h-1.7
			C168.6,514.2,168,513.6,168,512.4z"/>
		<path class="st6" d="M174.8,508.1c0-1.2,0.4-2.1,1.1-2.8c0.7-0.6,1.8-1,3.3-1c1.5,0,2.6,0.3,3.3,1c0.7,0.6,1.1,1.6,1.1,2.8v6.2h-2
			v-6.3c0-1.3-0.8-2-2.4-2c-0.8,0-1.4,0.2-1.8,0.5c-0.4,0.3-0.6,0.8-0.6,1.5v2c0.5-0.4,1.2-0.6,1.9-0.6h1.2l0.1,1.6h-1.3
			c-0.7,0-1.3,0.2-1.8,0.6v2.8h-2V508.1z"/>
		<path class="st6" d="M190.7,514.1c-0.5-0.2-1.1-0.5-1.5-0.9l-0.1,1.1h-1.8v-9.7h2v7.2c0.3,0.3,0.7,0.6,1.2,0.8
			c0.5,0.2,1,0.3,1.5,0.3c0.7,0,1.2-0.2,1.5-0.5s0.5-0.8,0.5-1.6v-6.3h1.9v6.4c0,1.1-0.3,2-0.9,2.6c-0.6,0.6-1.4,0.9-2.4,0.9
			C191.8,514.4,191.2,514.3,190.7,514.1z"/>
		<path class="st6" d="M188.4,501.7h5.8v-1.5h1.6v2.9h-7.5L188.4,501.7z"/>
	</g>
</g>
<g>
	<g>
		<path class="st6" d="M475,114.7c-0.6-0.5-0.9-1.2-0.9-2.3c0-1,0.3-1.7,1-2.2c0.6-0.5,1.6-0.8,2.8-0.8h3v-0.6
			c0-0.7-0.2-1.2-0.5-1.5c-0.4-0.3-1-0.4-2-0.4c-1.1,0-2.2,0.2-3.2,0.5v-1.5c0.5-0.2,1-0.3,1.7-0.4c0.6-0.1,1.2-0.2,1.8-0.2
			c0.6,0,1.1,0.1,1.7,0.2h3.3l-0.1,1.5h-1.1c0.2,0.3,0.3,0.5,0.3,0.9c0.1,0.3,0.1,0.7,0.1,1.1v6.2h-1.9v-4.3H478
			c-0.7,0-1.2,0.1-1.5,0.3c-0.3,0.2-0.5,0.6-0.5,1.2c0,0.5,0.1,0.9,0.4,1.1s0.8,0.3,1.5,0.3c0.5,0,0.9,0,1.2-0.1v1.5
			c-0.5,0.1-1.1,0.2-1.7,0.2C476.4,115.4,475.6,115.2,475,114.7z"/>
		<path class="st6" d="M490.4,109.1c0-0.5-0.1-0.9-0.2-1.3s-0.3-0.5-0.6-0.7s-0.7-0.2-1.3-0.2c-0.4,0-0.8,0-1.3,0.1
			c-0.5,0.1-0.9,0.2-1.2,0.3v-1.5c0.4-0.2,0.8-0.3,1.3-0.4c0.5-0.1,1-0.2,1.5-0.2c1.3,0,2.2,0.3,2.8,0.8c0.6,0.6,0.9,1.5,0.9,2.7
			v6.4h-2V109.1z"/>
		<path class="st6" d="M497.3,115.3c-0.6-0.1-1.1-0.2-1.4-0.4v-1.6c0.4,0.2,0.9,0.3,1.5,0.4c0.5,0.1,1,0.1,1.5,0.1
			c0.9,0,1.5-0.1,1.9-0.2c0.4-0.2,0.6-0.5,0.6-0.9c0-0.3-0.1-0.5-0.2-0.7s-0.3-0.3-0.6-0.4c-0.3-0.1-0.6-0.2-1.2-0.4l-0.7-0.2
			c-1-0.3-1.7-0.7-2.2-1.1s-0.7-1-0.7-1.7c0-0.9,0.3-1.6,1-2c0.7-0.5,1.6-0.7,2.9-0.7c0.5,0,1.1,0,1.6,0.1c0.5,0.1,1,0.2,1.4,0.3
			v1.6c-0.4-0.1-0.8-0.3-1.3-0.3c-0.5-0.1-0.9-0.1-1.4-0.1c-0.8,0-1.3,0.1-1.7,0.2c-0.4,0.2-0.6,0.5-0.6,0.9c0,0.3,0.1,0.5,0.2,0.6
			c0.2,0.2,0.4,0.3,0.7,0.4c0.3,0.1,0.7,0.3,1.3,0.5l0.5,0.2c1,0.3,1.8,0.7,2.2,1.1c0.5,0.4,0.7,1,0.7,1.8c0,0.9-0.3,1.6-1,2.1
			s-1.7,0.7-2.9,0.7C498.5,115.4,497.9,115.4,497.3,115.3z"/>
		<path class="st6" d="M507.3,114.5c-0.7-0.6-1.1-1.5-1.1-2.6v-0.7c0-0.4,0.1-0.8,0.3-1.2c0.2-0.4,0.5-0.8,0.9-1.3
			c0.3-0.4,0.5-0.7,0.6-0.8c0.1-0.2,0.2-0.4,0.2-0.5c0-0.3-0.1-0.4-0.4-0.4c-0.2,0-0.4,0.1-0.6,0.3v0.7H506v-2.4h1.4v0.5
			c0.2-0.2,0.4-0.3,0.6-0.4s0.5-0.1,0.8-0.1c0.4,0,0.8,0.1,1,0.4c0.2,0.2,0.4,0.6,0.4,1c0,0.4-0.1,0.7-0.3,1s-0.4,0.7-0.7,1.2
			c-0.3,0.5-0.5,0.8-0.7,1.1c-0.2,0.3-0.2,0.6-0.2,0.9v0.8c0,0.6,0.2,1.1,0.6,1.4c0.4,0.3,0.9,0.5,1.6,0.5c1.5,0,2.3-0.7,2.3-2v-1.2
			c0-0.6-0.1-1-0.3-1.2s-0.5-0.3-1-0.3h-0.5l0.1-1.4h0.4c0.5,0,0.8-0.1,1-0.4c0.2-0.2,0.3-0.6,0.3-1.2v-0.9h1.9v0.9
			c0,0.6-0.1,1.1-0.3,1.4c-0.2,0.4-0.5,0.6-1,0.8c0.5,0.2,0.8,0.5,1,0.9c0.2,0.4,0.3,0.8,0.3,1.4v1c0,1.2-0.4,2-1.1,2.7
			c-0.7,0.6-1.8,1-3.1,1C509,115.4,508,115.1,507.3,114.5z"/>
		<path class="st6" d="M507.1,102.7h7.4v1.4H507L507.1,102.7z"/>
		<path class="st6" d="M518.8,114.7c-0.6-0.5-0.9-1.2-0.9-2.2c0-1,0.3-1.7,1-2.2c0.6-0.5,1.6-0.8,2.8-0.8h3v-0.6
			c0-0.5-0.1-0.9-0.2-1.1c-0.2-0.3-0.4-0.5-0.8-0.6c-0.4-0.1-0.9-0.2-1.5-0.2c-1.1,0-2.2,0.2-3.2,0.5v-1.5c0.5-0.2,1-0.3,1.7-0.4
			c0.6-0.1,1.2-0.2,1.8-0.2c1.4,0,2.5,0.3,3.1,0.9c0.7,0.6,1,1.5,1,2.8v6.2h-2v-4.3h-2.8c-0.7,0-1.2,0.1-1.5,0.3
			c-0.3,0.2-0.5,0.6-0.5,1.2c0,0.5,0.1,0.9,0.4,1.1s0.8,0.3,1.5,0.3c0.5,0,0.9,0,1.2-0.1v1.5c-0.5,0.1-1.1,0.2-1.8,0.2
			C520.2,115.4,519.4,115.2,518.8,114.7z"/>
		<path class="st6" d="M530.2,113.4v-7.8h1.9v7.4c0,0.3,0.1,0.5,0.2,0.6c0.1,0.1,0.3,0.2,0.6,0.2h0.8v1.5h-1.7
			C530.9,115.2,530.2,114.6,530.2,113.4z"/>
		<path class="st6" d="M536.5,114.9v-1.5c0.8,0.3,1.6,0.5,2.4,0.5c0.8,0,1.5-0.1,2-0.3c0.5-0.2,0.8-0.6,1-1.1c0.2-0.5,0.3-1.2,0.3-2
			c0-1.2-0.3-2.1-0.8-2.7c-0.5-0.5-1.4-0.8-2.5-0.8c-0.8,0-1.6,0.2-2.4,0.5v-1.6c0.9-0.4,1.8-0.5,2.9-0.5c1.6,0,2.8,0.4,3.6,1.3
			c0.8,0.9,1.2,2.1,1.2,3.8c0,1.7-0.4,2.9-1.2,3.8c-0.8,0.9-2,1.3-3.6,1.3C538.3,115.4,537.4,115.2,536.5,114.9z"/>
		<path class="st6" d="M548.8,115.2c-0.7-0.1-1.3-0.3-1.8-0.5v-5h3.9l0.1,1.5H549v2.4c0.6,0.2,1.2,0.3,2,0.3c0.7,0,1.3-0.1,1.7-0.3
			c0.4-0.2,0.7-0.6,0.9-1.1s0.3-1.2,0.3-2c0-0.9-0.1-1.6-0.3-2.1c-0.2-0.5-0.6-0.9-1.1-1.1s-1.2-0.3-2-0.3c-1.2,0-2.3,0.2-3.2,0.5
			v-1.5c0.5-0.2,1.1-0.3,1.7-0.4c0.7-0.1,1.3-0.1,2-0.1c1.7,0,2.9,0.4,3.7,1.3s1.2,2.1,1.2,3.8c0,1.7-0.4,2.9-1.2,3.8
			c-0.8,0.8-2,1.3-3.6,1.3C550.2,115.4,549.5,115.3,548.8,115.2z"/>
		<path class="st6" d="M560.3,115.3c-0.6-0.1-1.1-0.2-1.4-0.4v-1.6c0.4,0.2,0.9,0.3,1.5,0.4c0.5,0.1,1,0.1,1.5,0.1
			c0.9,0,1.5-0.1,1.9-0.2c0.4-0.2,0.6-0.5,0.6-0.9c0-0.3-0.1-0.5-0.2-0.7s-0.3-0.3-0.6-0.4c-0.3-0.1-0.6-0.2-1.2-0.4l-0.7-0.2
			c-1-0.3-1.7-0.7-2.2-1.1s-0.7-1-0.7-1.7c0-0.9,0.3-1.6,1-2c0.7-0.5,1.6-0.7,2.9-0.7c0.5,0,1.1,0,1.6,0.1c0.5,0.1,1,0.2,1.4,0.3
			v1.6c-0.4-0.1-0.8-0.3-1.3-0.3c-0.5-0.1-0.9-0.1-1.4-0.1c-0.8,0-1.3,0.1-1.7,0.2c-0.4,0.2-0.6,0.5-0.6,0.9c0,0.3,0.1,0.5,0.2,0.6
			c0.2,0.2,0.4,0.3,0.7,0.4c0.3,0.1,0.7,0.3,1.3,0.5l0.5,0.2c1,0.3,1.8,0.7,2.2,1.1c0.5,0.4,0.7,1,0.7,1.8c0,0.9-0.3,1.6-1,2.1
			s-1.7,0.7-2.9,0.7C561.5,115.4,560.9,115.4,560.3,115.3z"/>
		<path class="st6" d="M561.5,101.4h5.3l-0.1,1.4h-3.6v1.3h-1.6V101.4z"/>
		<path class="st6" d="M569.7,113.4v-6.2c0-1.3,0.5-2.3,1.4-2.9h-2.8v-1.5h5.2v1.5c-0.6,0.3-1.1,0.6-1.4,1.1s-0.4,1.2-0.4,2.1v5.4
			c0,0.3,0.1,0.5,0.2,0.6c0.1,0.1,0.3,0.2,0.6,0.2h0.8v1.5h-1.7C570.3,115.2,569.7,114.6,569.7,113.4z"/>
		<path class="st6" d="M577.7,115.2c-0.7-0.1-1.3-0.3-1.8-0.5v-5h3.9l0.1,1.5h-2.1v2.4c0.6,0.2,1.2,0.3,2,0.3c0.7,0,1.3-0.1,1.7-0.3
			c0.4-0.2,0.7-0.6,0.9-1.1s0.3-1.2,0.3-2c0-0.9-0.1-1.6-0.3-2.1c-0.2-0.5-0.6-0.9-1.1-1.1s-1.2-0.3-2-0.3c-1.2,0-2.3,0.2-3.2,0.5
			v-1.5c0.5-0.2,1.1-0.3,1.7-0.4c0.7-0.1,1.3-0.1,2-0.1c1.7,0,2.9,0.4,3.7,1.3s1.2,2.1,1.2,3.8c0,1.7-0.4,2.9-1.2,3.8
			c-0.8,0.8-2,1.3-3.6,1.3C579.1,115.4,578.4,115.3,577.7,115.2z"/>
		<path class="st6" d="M588.9,114.7c-0.3-0.4-0.4-1-0.4-1.7v-6c0-0.7-0.1-1.3-0.4-1.7c-0.3-0.4-0.8-0.7-1.4-1v-1.5h5.3v1.5h-2.9
			c0.5,0.3,0.8,0.6,1,1c0.2,0.4,0.3,1,0.3,1.8v5.8c0,0.3,0.1,0.5,0.2,0.6c0.1,0.1,0.3,0.2,0.6,0.2h0.8v1.5h-1.7
			C589.7,115.2,589.2,115,588.9,114.7z"/>
		<path class="st6" d="M596.4,115.2c-0.7-0.1-1.3-0.3-1.8-0.5v-5h3.9l0.1,1.5h-2.1v2.4c0.6,0.2,1.2,0.3,2,0.3c0.7,0,1.3-0.1,1.7-0.3
			c0.4-0.2,0.7-0.6,0.9-1.1s0.3-1.2,0.3-2c0-0.9-0.1-1.6-0.3-2.1c-0.2-0.5-0.6-0.9-1.1-1.1s-1.2-0.3-2-0.3c-1.2,0-2.3,0.2-3.2,0.5
			v-1.5c0.5-0.2,1.1-0.3,1.7-0.4c0.7-0.1,1.3-0.1,2-0.1c1.7,0,2.9,0.4,3.7,1.3s1.2,2.1,1.2,3.8c0,1.7-0.4,2.9-1.2,3.8
			c-0.8,0.8-2,1.3-3.6,1.3C597.7,115.4,597,115.3,596.4,115.2z"/>
		<path class="st6" d="M606.8,113.4v-6.2c0-1.3,0.5-2.3,1.4-2.9h-2.8v-1.5h5.2v1.5c-0.6,0.3-1.1,0.6-1.4,1.1s-0.4,1.2-0.4,2.1v5.4
			c0,0.3,0.1,0.5,0.2,0.6c0.1,0.1,0.3,0.2,0.6,0.2h0.8v1.5h-1.7C607.4,115.2,606.8,114.6,606.8,113.4z"/>
		<path class="st6" d="M614,114.2c-0.7-0.8-1.1-2-1.1-3.7c0-1.6,0.4-2.9,1.3-3.8c0.8-0.9,2.1-1.4,3.7-1.4c1.1,0,1.9,0.2,2.6,0.5
			s1.2,0.8,1.5,1.4s0.5,1.3,0.5,2v5.9h-2v-5.8c0-0.8-0.2-1.4-0.6-1.8s-1.1-0.6-2.1-0.6c-1,0-1.8,0.3-2.3,0.9
			c-0.5,0.6-0.7,1.5-0.7,2.7c0,1.2,0.2,2,0.6,2.6c0.4,0.5,1,0.8,1.8,0.8c0.6,0,1,0,1.2-0.1v1.5c-0.4,0.1-0.9,0.2-1.6,0.2
			C615.7,115.4,614.7,115,614,114.2z"/>
		<path class="st6" d="M626.9,114.2c-0.7-0.8-1.1-2-1.1-3.7c0-1.6,0.4-2.9,1.3-3.8c0.8-0.9,2.1-1.4,3.7-1.4c1.1,0,1.9,0.2,2.6,0.5
			s1.2,0.8,1.5,1.4s0.5,1.3,0.5,2v5.9h-2v-5.8c0-0.8-0.2-1.4-0.6-1.8s-1.1-0.6-2.1-0.6c-1,0-1.8,0.3-2.3,0.9
			c-0.5,0.6-0.7,1.5-0.7,2.7c0,1.2,0.2,2,0.6,2.6c0.4,0.5,1,0.8,1.8,0.8c0.6,0,1,0,1.2-0.1v1.5c-0.4,0.1-0.9,0.2-1.6,0.2
			C628.6,115.4,627.6,115,626.9,114.2z"/>
		<path class="st6" d="M631.2,101.4h5.3l-0.1,1.4h-3.6v1.3h-1.6V101.4z"/>
	</g>
</g>
<g>
	<g>
		<path class="st1" d="M401.1,262.4v-6.2c0-1.3,0.5-2.3,1.4-2.9h-2.8v-1.5h5.2v1.5c-0.6,0.3-1.1,0.6-1.4,1.1s-0.4,1.2-0.4,2.1v5.4
			c0,0.3,0.1,0.5,0.2,0.6c0.1,0.1,0.3,0.2,0.6,0.2h0.8v1.5H403C401.7,264.2,401.1,263.6,401.1,262.4z"/>
		<path class="st1" d="M409.1,264.2c-0.7-0.1-1.3-0.3-1.8-0.5v-5h3.9l0.1,1.5h-2.1v2.4c0.6,0.2,1.2,0.3,2,0.3c0.7,0,1.3-0.1,1.7-0.3
			c0.4-0.2,0.7-0.6,0.9-1.1s0.3-1.2,0.3-2c0-0.9-0.1-1.6-0.3-2.1c-0.2-0.5-0.6-0.9-1.1-1.1s-1.2-0.3-2-0.3c-1.2,0-2.3,0.2-3.2,0.5
			v-1.5c0.5-0.2,1.1-0.3,1.7-0.4c0.7-0.1,1.3-0.1,2-0.1c1.7,0,2.9,0.4,3.7,1.3s1.2,2.1,1.2,3.8c0,1.7-0.4,2.9-1.2,3.8
			c-0.8,0.8-2,1.3-3.6,1.3C410.4,264.4,409.7,264.3,409.1,264.2z"/>
		<path class="st1" d="M420.1,263.5c-0.6-0.6-0.9-1.5-0.9-2.6v-6.4h2v6.3c0,0.7,0.2,1.2,0.5,1.6c0.3,0.3,0.8,0.5,1.5,0.5
			c0.5,0,1-0.1,1.5-0.3s0.9-0.5,1.2-0.8v-7.2h1.9v9.7H426l-0.1-1.1c-1,0.8-2.1,1.2-3.4,1.2C421.5,264.4,420.7,264.1,420.1,263.5z"/>
		<path class="st1" d="M425.4,252.9c-0.4-0.4-0.6-0.8-0.6-1.4c0-0.6,0.2-1,0.6-1.4c0.4-0.4,0.9-0.6,1.4-0.6c0.6,0,1,0.2,1.4,0.6
			c0.4,0.4,0.6,0.8,0.6,1.4c0,0.6-0.2,1-0.6,1.4c-0.4,0.4-0.9,0.6-1.4,0.6C426.2,253.5,425.8,253.3,425.4,252.9z M427.4,252.1
			c0.2-0.2,0.2-0.4,0.2-0.6c0-0.2-0.1-0.4-0.2-0.6c-0.2-0.2-0.4-0.3-0.6-0.3c-0.2,0-0.4,0.1-0.6,0.3c-0.2,0.2-0.3,0.4-0.3,0.6
			c0,0.2,0.1,0.4,0.3,0.6c0.2,0.2,0.4,0.3,0.6,0.3C427.1,252.3,427.2,252.3,427.4,252.1z"/>
		<path class="st1" d="M425.1,247.3H424V246h2.4v1.4h2.8l-0.1,1.3h-4V247.3z"/>
		<path class="st1" d="M435.1,258.1c0-0.5-0.1-0.9-0.2-1.3s-0.3-0.5-0.6-0.7s-0.7-0.2-1.3-0.2c-0.4,0-0.8,0-1.3,0.1
			c-0.5,0.1-0.9,0.2-1.2,0.3v-1.5c0.4-0.2,0.8-0.3,1.3-0.4c0.5-0.1,1-0.2,1.5-0.2c1.3,0,2.2,0.3,2.8,0.8c0.6,0.6,0.9,1.5,0.9,2.7
			v6.4h-2V258.1z"/>
	</g>
</g>
<circle class="st0" cx="368.1" cy="253.6" r="11.8"/>
<circle class="st0" cx="257.5" cy="253.6" r="11.8"/>
<circle class="st0" cx="315.2" cy="218.6" r="11.8"/>
<g>
	<g>
		<line class="st0" x1="288" y1="261.3" x2="288" y2="267.3"/>
		<line class="st7" x1="288" y1="280.9" x2="288" y2="301.4"/>
		<line class="st0" x1="288" y1="308.2" x2="288" y2="314.2"/>
	</g>
</g>
<g>
	<g>
		<line class="st0" x1="310" y1="236.5" x2="310" y2="242.5"/>
		<line class="st7" x1="310" y1="256.1" x2="310" y2="276.6"/>
		<line class="st0" x1="310" y1="283.4" x2="310" y2="289.4"/>
	</g>
</g>
<g>
	<g>
		<line class="st0" x1="339.2" y1="265" x2="339.2" y2="271"/>
		<line class="st7" x1="339.2" y1="284.6" x2="339.2" y2="305"/>
		<line class="st0" x1="339.2" y1="311.8" x2="339.2" y2="317.8"/>
	</g>
</g>
<g>
	<rect x="398.8" y="481.8" class="st0" width="78" height="78"/>
	<polyline class="st8" points="398.8,481.8 444.8,452.3 519.3,452.3 476.8,481.8 	"/>
	<polyline class="st8" points="519.3,452.8 519.3,524.3 476.8,559.8 	"/>
	<path class="st2" d="M458.5,490.5h7.9c2.8,0,5,2.2,5,5v13c0,1-1.4,1.3-1.8,0.3c-2-5.1-5.7-12.3-12-15.3
		C456.1,492.9,456.8,490.5,458.5,490.5z"/>
	<path class="st2" d="M405.1,522.2v27.9c0,2.8,2.2,5,5,5h13c1,0,1.1-1.1,0.3-1.8c-13.5-11.9-12.3-25.7-15.3-32
		C407.4,519.8,405.1,520.5,405.1,522.2z"/>
</g>
<g>
	<line class="st0" x1="271" y1="515.5" x2="364" y2="515.5"/>
	<polygon class="st2" points="369.6,515.5 359.1,510.7 359.1,520.4 	"/>
</g>
</svg>
