<?xml version="1.0" encoding="utf-8"?>
<!-- Generator: Adobe Illustrator 16.0.0, SVG Export Plug-In . SVG Version: 6.00 Build 0)  -->
<!DOCTYPE svg PUBLIC "-//W3C//DTD SVG 1.1//EN" "http://www.w3.org/Graphics/SVG/1.1/DTD/svg11.dtd">
<svg version="1.1" id="Layer_1" xmlns="http://www.w3.org/2000/svg" xmlns:xlink="http://www.w3.org/1999/xlink" x="0px" y="0px"
	 width="300px" height="300px" viewBox="0 0 300 300" enable-background="new 0 0 300 300" xml:space="preserve">
<title>Untitled-3</title>
<path fill="#BA9749" d="M162.051,223.756l8.229-7.191h7.162l7.191-7.191c0,0-7.191,14.383,0,7.191s15.404-14.384,22.611-14.384
	c0,0,7.191,7.192,14.383,7.192l7.193-7.192h7.176l8.229,7.192l13.648-6.832c-2.162-4.749-3.525-9.822-4.039-15.014
	c-0.705-6.307-9.459-9.1-19.52-15.405c-10.059-6.307-3.859-15.014-1.758-22.387c2.104-7.372-11.545-2.792-14.336-9.654
	c-2.793-6.862-1.758-3.004-3.154-7.133c-1.396-4.129-10.133,2.102-14.338-3.153c-4.203-5.254,4.205-4.895,2.102-10.84
	c-2.102-5.946,0,0-1.053-8.048c-1.049-8.047-16.439,1.052-19.592-5.6s5.254-7.702,2.447-18.543
	c-2.809-10.84-13.994-6.005-20.285-13.513c-6.289-7.507-4.205-3.678-6.006-12.762c-1.801-9.084,6.006-12.598,8.033-22.041
	c2.027-9.445-1.396-6.006-12.236-21.696c-2.854-3.795-4.383-8.42-4.356-13.168l-1.619-0.811c0,0-6.638-2.087-9.445,1.756
	c-2.264,2.851-4.841,5.435-7.686,7.703c0,0-5.602,5.586-6.652,5.586c-2.839-0.778-5.631-1.714-8.363-2.808l-11.216,6.276
	c-1.396,0.781-1.757,9.834-1.757,9.834c-2.542,1.496-5.461,2.226-8.408,2.102c-4.504-0.36-10.134,1.036-10.134,3.499
	c0,2.462-6.306,6.636-6.306,6.636h-7.658l-2.913,3.153c0,0,0.946,1.742,0,2.793c-0.945,1.051-11.081,8.663-11.081,8.663
	l-3.859-4.895L41.35,60.579l0.961,9.985c0,0-3.168,11.652-10.826,5.826c-7.657-5.826-8.498,38.467-8.498,38.467
	s5,14.174-4.745,5.571c0,0-6.756-1.772-4.009,8.348l-13.242,2.282L0,143.459l5,5.826l-0.51,8.348c0,0,14.504,10.63,16.006,22.266
	c1.501,11.638,25.72,20.255,25.72,20.255c1.2,6.828,4.218,13.209,8.738,18.468c7.748,9.369,1.006,34.924,1.006,34.924
	s-3.243,25.525,15.495,35.945l0.3,10.51l-0.3-10.51l-2.402-6.637c6.997,6.007,9.008-5.691,9.008-5.691s3.289,4.791,3.844,4.416
	c0.555-0.377,0-6.173,0-6.173l9.79-5.239l11.246-2.896c1.516-1.174,2.637-2.783,3.212-4.61c1.021-3.123,3.574,0,3.574,0
	s-1.501-9.114-6.742-11.637c-5.24-2.521,7.507-13.679,14.745-14.429c5.235-0.436,10.498-0.436,15.734,0l0.255-3.543l9.746,0.511
	l0.496,2.011l17.25,0.511l0.887,3.093C162.096,239.176,169.242,238.141,162.051,223.756z"/>
</svg>
