<svg id="Layer_1" data-name="Layer 1" xmlns="http://www.w3.org/2000/svg" viewBox="0 0 357.45 361.53"><defs><style>.cls-1{fill:none;stroke:#af914f;stroke-miterlimit:10;stroke-width:2px;}</style></defs><title>Untitled-3</title><path class="cls-1" d="M324.85,332.22S227.58,181.71,52,155.32"/><line class="cls-1" x1="285.34" y1="283.76" x2="260.36" y2="279.22"/><path class="cls-1" d="M279.6,277.79s4.67-30.27-16.48-49.77"/><path class="cls-1" d="M279.16,256.06s5-15.33,2.14-26.67"/><path class="cls-1" d="M254.79,254.13s2.78-22.3-18.8-37.69"/><path class="cls-1" d="M247,227.26s1.27-11.73-1.41-19"/><line class="cls-1" x1="244.62" y1="245.37" x2="229.04" y2="240.75"/><path class="cls-1" d="M214.42,222.14s-31.9-8.53-41.56-1"/><path class="cls-1" d="M190.62,218.17s-3.52,8-7.85,8.68-9.2,3.74-9.2,3.74"/><path class="cls-1" d="M221.26,227.05s-5.43-21.7-26-34.1"/><path class="cls-1" d="M166.56,193s1.67-19.44-17.27-38.77"/><path class="cls-1" d="M165.12,181.2s-16.83-20.8-21.63-21.46"/><path class="cls-1" d="M162.86,191.09s-27,8-47.76-1"/><path class="cls-1" d="M108.83,168.74s-7.78-20.47-37.63-29.47"/><path class="cls-1" d="M85.63,162.07s-11.22,10.56-16,9.59-10.87.93-10.87.93"/><path class="cls-1" d="M97.26,153.47s-7.8-13.86-6.28-18.05"/><path class="cls-1" d="M56.89,125.69s10.84.35,14.36,10S55.63,133.7,56.89,125.69Z"/><path class="cls-1" d="M32.59,149.82s9.9-4.25,17.73,2.85S35.33,157.46,32.59,149.82Z"/><path class="cls-1" d="M82.71,118.67S93,121.86,93.43,132.08,79.09,126.05,82.71,118.67Z"/><path class="cls-1" d="M138.32,137.66s10.27,3.18,10.72,13.4S134.7,145,138.32,137.66Z"/><path class="cls-1" d="M224.83,201.1s10.27,3.19,10.73,13.41S221.21,208.48,224.83,201.1Z"/><path class="cls-1" d="M237.58,190.13s11,2.39,10.11,14S232.48,199,237.58,190.13Z"/><path class="cls-1" d="M274,211.37s11.05,2.39,10.11,14S268.86,220.26,274,211.37Z"/><path class="cls-1" d="M254.74,209.86s11.05,2.39,10.12,14S249.65,218.75,254.74,209.86Z"/><path class="cls-1" d="M97.08,181.09s10.46-2.79,17,5.35S98.53,189,97.08,181.09Z"/><path class="cls-1" d="M175.16,184.25s10.46-2.79,17,5.35S176.61,192.2,175.16,184.25Z"/><path class="cls-1" d="M155.65,212.81s10.46-2.79,17,5.35S157.1,220.76,155.65,212.81Z"/><path class="cls-1" d="M157.89,238.49s6.86,6.11,14.27-2.27S161.46,229,157.89,238.49Z"/><path class="cls-1" d="M44.27,179.42s6.86,6.11,14.27-2.27S47.85,170,44.27,179.42Z"/><path class="cls-1" d="M211,247.17s6.86,6.11,14.27-2.27S214.57,237.72,211,247.17Z"/><path class="cls-1" d="M244.42,285.79s6.87,6.11,14.28-2.27S248,276.34,244.42,285.79Z"/><path class="cls-1" d="M132.38,144.31s10.64,1.89,12.53,12S129.82,152.05,132.38,144.31Z"/><path class="cls-1" d="M284.77,298.41S279.52,145.33,162.33,48.88"/><line class="cls-1" x1="277.07" y1="245.53" x2="260.74" y2="231.23"/><path class="cls-1" d="M275.48,238.63s16.71-20.14,9.77-43.73"/><path class="cls-1" d="M284.7,222.51s10.4-9,13.28-18.62"/><path class="cls-1" d="M267.68,210.4s11.82-15.14,2.76-35.9"/><path class="cls-1" d="M273.73,187.25s6.09-8.05,7.32-14.56"/><line class="cls-1" x1="264.07" y1="199.5" x2="254.67" y2="189.27"/><path class="cls-1" d="M252.11,169.21s-19.64-20.26-30-19"/><path class="cls-1" d="M236.41,155.85s-6.1,4.33-9.57,2.92a24.87,24.87,0,0,0-8.39-1.3"/><path class="cls-1" d="M255,175.81s5.54-18.29-4.13-36.44"/><path class="cls-1" d="M229.82,126.81s9.77-13.52,4.36-36"/><path class="cls-1" d="M233.94,117.54s-3.21-22.64-6.43-25.23"/><path class="cls-1" d="M228,123.8s-23.32-6-34.58-21.72"/><path class="cls-1" d="M198.13,83.69s3.29-18.43-14.65-38.13"/><path class="cls-1" d="M184.05,68.61s-12.87,2.82-16,0-8.39-4.09-8.39-4.09"/><path class="cls-1" d="M196.36,67.41s.36-13.58,3.31-16"/><path class="cls-1" d="M179,29.32s7.8,5,6.14,13.64S174.51,34.64,179,29.32Z"/><path class="cls-1" d="M150.54,36.34s9.12,1.23,11.75,9.87S149.19,43.14,150.54,36.34Z"/><path class="cls-1" d="M201,35.51s6.14,6.84,2,14.53S195.07,39.33,201,35.51Z"/><path class="cls-1" d="M233.41,73.85s6.13,6.84,2,14.53S227.52,77.67,233.41,73.85Z"/><path class="cls-1" d="M269,158.36s6.13,6.84,2,14.53S263.1,162.18,269,158.36Z"/><path class="cls-1" d="M283.15,155.91s7.06,6.6,1.26,14.72S275.52,160.18,283.15,155.91Z"/><path class="cls-1" d="M300.5,187.45s7.05,6.6,1.26,14.72S292.86,191.73,300.5,187.45Z"/><path class="cls-1" d="M287.08,177.91s7.05,6.6,1.26,14.73S279.44,182.19,287.08,177.91Z"/><path class="cls-1" d="M184.1,87.59S193,90.13,194.23,99,181.67,94.05,184.1,87.59Z"/><path class="cls-1" d="M240,124.19s8.9,2.55,10.14,11.39S237.53,130.65,240,124.19Z"/><path class="cls-1" d="M213.12,136.56s8.9,2.55,10.13,11.4S210.69,143,213.12,136.56Z"/><path class="cls-1" d="M203.48,156.38s2.35,7.49,11.47,4.6S210.26,151,203.48,156.38Z"/><path class="cls-1" d="M146.1,63.18s2.35,7.49,11.47,4.6S152.88,57.82,146.1,63.18Z"/><path class="cls-1" d="M238.62,186.06s2.35,7.49,11.46,4.6S245.39,180.7,238.62,186.06Z"/><path class="cls-1" d="M246.17,229.06s2.35,7.49,11.47,4.6S252.94,223.7,246.17,229.06Z"/><path class="cls-1" d="M226.13,76.11s7,6.07,3.94,14.27S220.86,80.67,226.13,76.11Z"/></svg>