<svg id="Layer_1" data-name="Layer 1" xmlns="http://www.w3.org/2000/svg" viewBox="0 0 214.47 112.34"><defs><style>.cls-1{fill:none;stroke:#af914f;stroke-miterlimit:10;stroke-width:2px;}</style></defs><title>Untitled-3</title><path class="cls-1" d="M188.2,53.28S116.28,84.64,35.4,50.91"/><path class="cls-1" d="M159.1,61.87s-4.71,5.92-8.81,6.55-4.72,3.41-4.72,3.41"/><path class="cls-1" d="M142,64.76s-17.06-14.33-22.87-17.4"/><path class="cls-1" d="M114.15,51.51s12.49,8.06,19.24,6.22"/><path class="cls-1" d="M109.26,73.93s9.35-3.2,13.72-3,7.13-5,7.13-5"/><path class="cls-1" d="M106.64,66.41S95.46,59.52,92.54,56s-5.8-6.38-5.8-6.38"/><path class="cls-1" d="M95.2,58.49s.53-3.31-2.3-7.11-6.17-6.26-5.12-8.49"/><path class="cls-1" d="M91,65.26s-5,3.31-9.86,3.2a25.61,25.61,0,0,0-7.83.85"/><path class="cls-1" d="M58.21,58.86s-6.75,1.72-9.78,1.75"/><path class="cls-1" d="M79.36,63.63s-19.3-14.82-22-19.86"/><path class="cls-1" d="M66.81,53.4a24.83,24.83,0,0,0-1.48-9.13"/><path class="cls-1" d="M108.94,74.15s-9.51,4.55-10-.54C98.67,71.32,105.93,70.41,108.94,74.15Z"/><path class="cls-1" d="M146.29,72s-7.09,7.59-9.65,3.16C135.49,73.21,141.93,69.74,146.29,72Z"/><path class="cls-1" d="M118.69,47.5s-9.18-4.45-5.1-8C115.43,37.89,120.23,42.87,118.69,47.5Z"/><path class="cls-1" d="M48.8,60.87s-8.85,5.66-10.08.7C38.17,59.34,45.28,57.55,48.8,60.87Z"/><path class="cls-1" d="M72.61,70s-8.86,5.66-10.08.7C62,68.5,69.09,66.7,72.61,70Z"/><path class="cls-1" d="M36.38,51s-8.86,5.66-10.08.7C25.75,49.49,32.86,47.7,36.38,51Z"/><path class="cls-1" d="M57,42.78s-10.5.63-8.8-4.32C49,36.24,55.88,38.14,57,42.78Z"/><path class="cls-1" d="M65.68,44.86s-7.82-6.29-3-9C64.78,34.72,68.26,40.63,65.68,44.86Z"/><path class="cls-1" d="M87.5,43.74s-5.32-4.28-2.07-6.09C86.89,36.84,89.25,40.86,87.5,43.74Z"/><path class="cls-1" d="M86.6,49.89s-7.06-.72-5.32-3.87C82.06,44.6,86.43,46.64,86.6,49.89Z"/><path class="cls-1" d="M114,51.93s-7.06-.73-5.32-3.88C109.5,46.63,113.87,48.68,114,51.93Z"/></svg>