<?xml version="1.0" encoding="utf-8"?>
<!-- Generator: Adobe Illustrator 16.0.0, SVG Export Plug-In . SVG Version: 6.00 Build 0)  -->
<!DOCTYPE svg PUBLIC "-//W3C//DTD SVG 1.1//EN" "http://www.w3.org/Graphics/SVG/1.1/DTD/svg11.dtd">
<svg version="1.1" id="Layer_1" xmlns="http://www.w3.org/2000/svg" xmlns:xlink="http://www.w3.org/1999/xlink" x="0px" y="0px"
	 width="300px" height="300px" viewBox="0 0 300 300" enable-background="new 0 0 300 300" xml:space="preserve">
<g>
	<title>Untitled-3</title>
	<path fill="#BA9749" d="M250.076,278.981h-9.66v18.617c0,0,2.056,6.136,9.539,0L250.076,278.981z"/>
	<path fill="#BA9749" d="M62.03,75.2c0,0,14.692-2.085,0-31.469l16.808-14.722h14.814l14.692-14.692c0,0-14.692,29.414,0,14.692
		c14.691-14.723,31.314-29.384,46.068-29.384c0,0,14.69,14.692,29.383,14.692l14.691-14.692h14.784l16.808,14.692l29.2-14.692
		l13.742,12.269c-11.259,35.671-35.733,23.771-24.538,36.806c11.195,13.035-23.495,7.238-23.495,7.238
		c3.224,10.547,1.983,21.955-3.435,31.561c-9.202,16.563,31.131,55.209,21.47,65.146c-9.661,9.938,2.023,24.813,19.905,32.572
		c17.881,7.761,0,40.334,0,40.334l23.464,52.143v16.042l-31.683-67.142l-9.692-1.043c-6.626,13.435-13.771,7.239-13.771,7.239
		l-7.669-0.523l1.533,10.338l6.136,2.084v11.349h-12.761l-2.575-9.813l-6.135-2.577l-0.521-13.956l9.201-3.066v-17.605
		l-10.213,5.153l-23.495-24.813l-1.011-9.202l-7.148,1.532l-4.569,3.405l-15.337-19.63l-15.826-0.522
		c-28.586,18.098-47.479,2.576-47.479,2.576H64.821l-6.625,10.338c0,0-21.96-13.435-12.269-25.336
		c9.692-11.9,2.055-34.904,2.055-34.904l6.625-5.674l1.012-11.9l-7.146-5.674l9.723-8.282l2.024-17.054"/>
	<path fill="#BA9749" d="M250.076,278.981h-9.66v18.617c0,0,2.056,6.136,9.539,0L250.076,278.981z"/>
</g>
</svg>
