<svg id="Layer_1" data-name="Layer 1" xmlns="http://www.w3.org/2000/svg" viewBox="0 0 106.47 137.11"><defs><style>.cls-1{fill:#ba9749;}</style></defs><title>Untitled-3</title><path class="cls-1" d="M81,110.61H77.85v6.07s.67,2,3.11,0Z"/><path class="cls-1" d="M19.69,44.17s4.79-.68,0-10.26l5.48-4.8H30l4.79-4.79s-4.79,9.59,0,4.79S45,19.53,49.81,19.53c0,0,4.79,4.79,9.58,4.79l4.79-4.79H69l5.48,4.79L84,19.53l4.48,4c-3.67,11.63-11.65,7.75-8,12s-7.66,2.36-7.66,2.36A13.13,13.13,0,0,1,71.7,48.18c-3,5.4,10.15,18,7,21.24s.66,8.09,6.49,10.62,0,13.15,0,13.15l7.65,17v5.23L82.51,93.53l-3.16-.34c-2.16,4.38-4.49,2.36-4.49,2.36l-2.5-.17.5,3.37,2,.68v3.7H70.7l-.84-3.2-2-.84-.17-4.55,3-1V87.8l-3.33,1.68-7.66-8.09-.33-3-2.33.5L55.55,80l-5-6.4-5.16-.17c-9.32,5.9-15.48.84-15.48.84H20.6l-2.16,3.37s-7.16-4.38-4-8.26S15.11,58,15.11,58l2.16-1.85.33-3.88-2.33-1.85,3.17-2.7.66-5.56"/><path class="cls-1" d="M81,110.61H77.85v6.07s.67,2,3.11,0Z"/></svg>