<svg id="Layer_1" data-name="Layer 1" xmlns="http://www.w3.org/2000/svg" viewBox="0 0 365.62 212.43"><defs><style>.cls-1{fill:none;stroke:#af914f;stroke-linecap:round;stroke-linejoin:round;}</style></defs><title>Untitled-3</title><line class="cls-1" x1="49.93" y1="93.11" x2="49.93" y2="173.03"/><line class="cls-1" x1="222.77" y1="52.22" x2="222.77" y2="173.03"/><line class="cls-1" x1="304.54" y1="80.1" x2="302.68" y2="173.03"/><line class="cls-1" x1="75.95" y1="119.13" x2="209.76" y2="119.13"/><line class="cls-1" x1="250.64" y1="119.13" x2="289.67" y2="119.13"/><line class="cls-1" x1="75.95" y1="132.14" x2="196.75" y2="132.14"/><line class="cls-1" x1="88.95" y1="132.14" x2="88.95" y2="173.03"/><line class="cls-1" x1="183.74" y1="132.14" x2="183.74" y2="173.03"/><line class="cls-1" x1="35.06" y1="173.03" x2="317.55" y2="173.03"/><path class="cls-1" d="M35.06,93.11,58.45,78.23A71.14,71.14,0,0,1,96.69,67.09h46.16"/><line class="cls-1" x1="116.27" y1="39.4" x2="116.83" y2="65.23"/><line class="cls-1" x1="156.31" y1="56.36" x2="156.31" y2="66.27"/><line class="cls-1" x1="183.74" y1="56.36" x2="183.74" y2="66.27"/><path class="cls-1" d="M99.56,39.4H250.64s53.9,1.67,79.92,40.7"/><line class="cls-1" x1="207.74" y1="56.36" x2="207.74" y2="66.27"/></svg>