<svg id="Layer_1" data-name="Layer 1" xmlns="http://www.w3.org/2000/svg" viewBox="0 0 283.91 177.7"><defs><style>.cls-1{fill:none;stroke:#af914f;stroke-linecap:round;stroke-linejoin:round;}</style></defs><title>Untitled-3</title><line class="cls-1" x1="35.16" y1="56.97" x2="35.16" y2="143.6"/><line class="cls-1" x1="184.53" y1="89.83" x2="184.53" y2="143.6"/><line class="cls-1" x1="238.3" y1="100.28" x2="238.3" y2="143.6"/><line class="cls-1" x1="23.21" y1="143.6" x2="260.71" y2="143.6"/><path class="cls-1" d="M23.21,72.65c0-21,33.77-38.09,75.43-38.09S174.07,57,174.07,67.42"/><path class="cls-1" d="M163.62,77.88h64.23s32.86,12,32.86,22.4H196.48c-10.46-20.91-32.86-22.4-32.86-22.4V57"/><path class="cls-1" d="M174.07,67.42h53.78C217.39,45,174.07,35.61,174.07,35.61L102.71,34.1"/><path class="cls-1" d="M153,35.61S186,45,196.48,67.42"/><path class="cls-1" d="M196.48,77.88s32.26,11.65,31.81,22.25"/><line class="cls-1" x1="35.16" y1="67.42" x2="163.77" y2="67.42"/><line class="cls-1" x1="66.53" y1="89.83" x2="130.75" y2="89.83"/><line class="cls-1" x1="56.07" y1="110.74" x2="153.16" y2="110.74"/><line class="cls-1" x1="66.97" y1="110.89" x2="66.97" y2="143.6"/><line class="cls-1" x1="141.66" y1="110.89" x2="141.66" y2="143.6"/><line class="cls-1" x1="206.93" y1="111.49" x2="206.93" y2="121.2"/><line class="cls-1" x1="217.39" y1="111.49" x2="217.39" y2="121.2"/><line class="cls-1" x1="227.85" y1="111.49" x2="227.85" y2="121.2"/></svg>