<svg id="Layer_1" data-name="Layer 1" xmlns="http://www.w3.org/2000/svg" viewBox="0 0 294.13 257.36"><defs><style>.cls-1{fill:none;stroke:#af914f;stroke-miterlimit:10;}</style></defs><title>Untitled-3</title><polyline class="cls-1" points="27.87 139.96 92.54 63.26 147.44 139.21"/><line class="cls-1" x1="49.68" y1="118.15" x2="49.68" y2="215.91"/><rect class="cls-1" x="68.48" y="161.77" width="33.09" height="54.14"/><line class="cls-1" x1="85.02" y1="161.77" x2="85.02" y2="215.91"/><polyline class="cls-1" points="93.14 63.86 212.11 63.86 266.26 118.15 136.91 118.15"/><line class="cls-1" x1="136.91" y1="118.15" x2="136.91" y2="215.91"/><line class="cls-1" x1="212.26" y1="118" x2="212.11" y2="215.91"/><line class="cls-1" x1="255.58" y1="118" x2="255.73" y2="215.91"/><rect class="cls-1" x="103.82" y="41.45" width="54.14" height="22.56" rx="7.5"/><line class="cls-1" x1="124.88" y1="41.45" x2="124.88" y2="63.86"/><line class="cls-1" x1="136.91" y1="41.45" x2="136.91" y2="63.86"/><rect class="cls-1" x="168.5" y="41.45" width="54.14" height="22.56" rx="7.5"/><line class="cls-1" x1="189.55" y1="41.45" x2="189.55" y2="63.86"/><line class="cls-1" x1="201.58" y1="41.45" x2="201.58" y2="63.86"/><rect class="cls-1" x="124.88" y="64.01" width="12.03" height="10.53"/><rect class="cls-1" x="189.55" y="64.01" width="12.03" height="10.53"/><line class="cls-1" x1="114.35" y1="74.54" x2="147.44" y2="74.54"/><line class="cls-1" x1="179.02" y1="74.54" x2="212.11" y2="74.54"/></svg>