<svg id="Layer_1" data-name="Layer 1" xmlns="http://www.w3.org/2000/svg" viewBox="0 0 186.13 331.66"><defs><style>.cls-1{fill:#ba9749;}</style></defs><title>Untitled-3</title><path class="cls-1" d="M165,278.6c-4-1.69-8.77-3-20.42-24.05h-4.1v-1.12l-4-.11V256l-12,.11s.33-2.24-1.44-2.69a14.66,14.66,0,0,1-11.54-9.1s-2.33-1.35-6,.84c0,0-4.66-.17-3.83-6.24,0,0-13.65-8.93-8.66-16.69,0,0,2.67-5.89,7.66,3.38,0,0,1.5-9.44-4.49-29.67L93,190.89v4.89s-4.32.84-7-9.27-4.49-26.29-4.49-26.29l-8.16.33s-3.66,1.35-4.66,4.22l-9-.34s-4.33-4.05.66-6.41V155.5s-6.49-4.22-5.16-24.61c0,0,1.67-4.22,1.5-4.72s-1.83-5.9.17-7.76-1.83-2.69,11.48-20.56V90.26s4.16-9.77,4.33-12.3,7.82-17.53,7.82-17.53-1-4,7.66-12.64L85.54,37s-2.66-15.17,4.83-23.26c0,0-1.7-2.09-2.38,0a6.33,6.33,0,0,1-2.14,3.07l-7.49,1.93-6.52,3.49s.36,3.86,0,4.11h0c-.37.25-2.56-2.94-2.56-2.94s-1.32,7.75-6,3.79l1.61,4.42.33,11.63,2.5,1.18-.5,3S73.89,47,69.73,51v6.07l3.83,4.55-.17,3.88s-4,1.18-11.15,15.84-21.13,24.78-21.13,24.78L40.38,113s3.55.57-1.22,4.39c0,0-.88,11.57-7.87,20.45l-.45,5.73,1.78,1.23-7.33,11.8.12,5.85s-4.11,2.36-1.67,4.83v4.61l-4.33,10.33S15.53,198.37,23,204.32c0,0,2.45,1-2.1,5.73s1.22,11.24,1.22,11.24,6-2.47,4.32-6.29a2.63,2.63,0,0,1,.67-2.36c1-.9,0-2.59-1.22-2.59s-1-3.37,1.44-4.27,1.22-6.85,1.22-6.85,6.61-3.82,5.31,2.24c0,0,3.9-1.34,4.23.79s.67,7.08.67,7.08,10.21,3.82,11,7.75a11.63,11.63,0,0,1-.23,6.3s2.78-.11,2.78,1.57c0,0,4-2.25,6.1,1.91a44.71,44.71,0,0,1,3.22,9.66S70.79,241.4,73,246.57l1.88.68-.11,7.86,2.55,2.7h3.55s3.67,9.33,9,11.91l2.66,5.17,1.23-5.06s2.33-1.68,0-3.14,2-3,1.66-4.5,5-2.36,4.66,4.61,15.09,8.09,16.2,3a6.4,6.4,0,0,1,4,7.08l-2.1.68-.23,3.48,5.88.68V279.5l3.33-.11v2.36h1.78v9.43s-7,6-2.55,9,5.66,5.85,10.87-2.69a21,21,0,0,0,8.54-4.61s4-.22,5.33,6c0,0,1,2.47,3.33-.57,0,0,2.44,3.71,4.1-.22l3.11-1.12v-6s2.66-4.5,5.77-5.39C167.43,285.57,169,280.28,165,278.6Z"/><polygon class="cls-1" points="84.44 149.93 85.55 155.45 89.54 156.68 91.54 151.06 89.54 149.93 84.44 149.93"/><path class="cls-1" d="M74.45,263a9.41,9.41,0,0,1-3.77,3.6l3.77,5.16s3.55-6.06,1.77-7.41Z"/><path class="cls-1" d="M30.51,208.37c-1.33,2.24,1.55,5.17,1.55,5.17l1.56,2.69v-7.86S31.84,206.12,30.51,208.37Z"/></svg>