<svg id="Layer_1" data-name="Layer 1" xmlns="http://www.w3.org/2000/svg" viewBox="0 0 205.28 225.19"><defs><style>.cls-1{fill:#ba9749;}</style></defs><title>Untitled-3</title><path class="cls-1" d="M179.25,85.91s-11.32-15.51-3-18.54V62.92H167.6V61h-6.49v2l-4.5,4.45L153,64.16,151.12,64l-1.83,2.86s-12-3.54-1.5-18V41.75h3v-3h-4.66s-5.16-1.35-4.5-8.09h-5.49s-.16,3.88-3.49,2.7-6-6.24-6-6.24l-4.5,1s-1.83,6.07-10.65,4.39c0,0-3.83-2.87-3.16,2.19s-.17,7.24-5.33,7.92S93.87,37.19,90.37,47c0,0,.5,10.79-4.49,7.75s-14,5.57-25.63,3.21c0,0-5.33-7.42-7.49-3.71,0,0-2.67,2.68-2,4.12s2,2.49-1.33,4.58-8.32,10.35-5.16,11.53l.33,8.93s-5.66,2-5.32,4.89c0,0-3.5,2-1.5,2.36a9,9,0,0,0,3.33,0l-.34,6.23h1.67l-.17,7.93H36s-3.5,4.88-7.49,0c0,0-3.66-1.69-2,2.86s3.33.84,3.5,8.77c0,0,1.49,3.2,6-2.36l1.66-.34s-2.33,5.9,1.17,7.25-2.17,13.14,2,15.5c0,0,.75,5.44,6.95,8.52s1.58,5.18,10.61,13.9,16.56,14.84,10.57,19.78l7.71,9.78.17,9.66,15.91-10.55,2.56,3.26s6.76-5.12,7.39-5.82,0-1.87,0-1.87l1.93-2.09h5.13s4.19-2.8,4.19-4.43,3.73-2.56,6.76-2.33a10.15,10.15,0,0,0,5.59-1.4s.25-6,1.18-6.55l7.47-4.18a50.24,50.24,0,0,0,5.57,1.88c.7,0,4.42-3.73,4.42-3.73a31.4,31.4,0,0,0,5.13-5.13c1.86-2.56,6.29-1.16,6.29-1.16l2.33,1.16,5.13-4.53c0-4,1.09-5.19,1.51-5.48l.17-.09-4.17.34.67-2.87,2.66-2.69.34-5.23,7-8.09v-9.1s-1-3.71-2.33-5.06-5.5-1.52,1.83-6.24S170.93,97.71,179.25,85.91Z"/></svg>