<?xml version="1.0" encoding="utf-8"?>
<!-- Generator: Adobe Illustrator 16.0.0, SVG Export Plug-In . SVG Version: 6.00 Build 0)  -->
<!DOCTYPE svg PUBLIC "-//W3C//DTD SVG 1.1//EN" "http://www.w3.org/Graphics/SVG/1.1/DTD/svg11.dtd">
<svg version="1.1" id="Layer_1" xmlns="http://www.w3.org/2000/svg" xmlns:xlink="http://www.w3.org/1999/xlink" x="0px" y="0px"
	 width="300px" height="300px" viewBox="0 0 300 300" enable-background="new 0 0 300 300" xml:space="preserve">
<title>Untitled-3</title>
<g>
	<path fill="#BA9749" d="M224.851,276.575c-4.162-1.758-9.127-3.122-21.249-25.025h-4.267v-1.165l-4.162-0.114v2.788l-12.487,0.114
		c0,0,0.344-2.331-1.499-2.8c-5.41-0.777-9.99-4.389-12.007-9.468c0,0-2.426-1.405-6.244,0.874c0,0-4.849-0.178-3.986-6.493
		c0,0-14.203-9.293-9.01-17.369c0,0,2.778-6.128,7.97,3.518c0,0,1.562-9.822-4.671-30.873l-3.31-5.255v5.088
		c0,0-4.496,0.874-7.284-9.646c-2.789-10.521-4.672-27.356-4.672-27.356l-8.491,0.344c0,0-3.809,1.404-4.849,4.391l-9.365-0.354
		c0,0-4.505-4.215,0.687-6.67v-2.623c0,0-6.753-4.392-5.369-25.609c0,0,1.737-4.391,1.56-4.912c-0.177-0.52-1.904-6.139,0.177-8.075
		c2.081-1.935-1.904-2.799,11.946-21.394v-7.898c0,0,4.329-10.167,4.506-12.799c0.177-2.633,8.137-18.242,8.137-18.242
		s-1.041-4.162,7.971-13.152l-2.716-11.229c0,0-2.768-15.785,5.026-24.204c0,0-1.77-2.174-2.477,0
		c-0.404,1.265-1.18,2.379-2.227,3.194l-7.794,2.009l-6.785,3.631c0,0,0.375,4.017,0,4.277l0,0c-0.385,0.26-2.664-3.06-2.664-3.06
		s-1.374,8.064-6.244,3.944l1.676,4.6l0.343,12.102l2.601,1.228l-0.52,3.122c0,0,6.941-0.437,2.612,3.725v6.316l3.985,4.735
		l-0.177,4.038c0,0-4.162,1.228-11.602,16.482c-7.44,15.255-21.988,25.786-21.988,25.786l-0.76,7.159c0,0,3.694,0.593-1.27,4.568
		c0,0-0.916,12.04-8.189,21.28l-0.469,5.962l1.853,1.28l-7.627,12.279l0.125,6.087c0,0-4.277,2.455-1.738,5.026v4.797l-4.505,10.749
		c0,0-4.038,16.806,3.736,22.998c0,0,2.549,1.04-2.186,5.962c-4.735,4.922,1.27,11.696,1.27,11.696s6.243-2.571,4.495-6.546
		c-0.187-0.883,0.074-1.802,0.697-2.455c1.041-0.938,0-2.695-1.27-2.695s-1.04-3.507,1.499-4.443c2.539-0.937,1.27-7.128,1.27-7.128
		s6.878-3.977,5.526,2.331c0,0,4.058-1.396,4.401,0.822c0.343,2.215,0.697,7.366,0.697,7.366s10.625,3.976,11.447,8.065
		c0.525,2.166,0.442,4.433-0.24,6.555c0,0,2.893-0.114,2.893,1.635c0,0,4.162-2.342,6.348,1.986
		c1.496,3.213,2.62,6.586,3.351,10.053c0,0,9.532,5.379,11.832,10.76l1.956,0.707l-0.114,8.18l2.653,2.809h3.694
		c0,0,3.819,9.709,9.365,12.394l2.768,5.38l1.28-5.265c0,0,2.424-1.748,0-3.268c-2.425-1.52,2.08-3.122,1.728-4.683
		c-0.355-1.562,5.201-2.455,4.849,4.798c-0.354,7.253,15.702,8.417,16.857,3.12c2.969,1.146,4.714,4.233,4.162,7.368l-2.186,0.707
		l-0.239,3.621l6.119,0.708v-2.31l3.464-0.115v2.456h1.853v9.813c0,0-7.283,6.243-2.652,9.365c4.63,3.12,5.89,6.086,11.311-2.8
		c3.297-0.883,6.339-2.525,8.887-4.797c0,0,4.162-0.229,5.546,6.243c0,0,1.041,2.571,3.465-0.593c0,0,2.539,3.86,4.267-0.229
		l3.237-1.166v-6.242c0,0,2.768-4.683,6.004-5.609C227.378,283.828,229.014,278.324,224.851,276.575z"/>
	<polygon fill="#BA9749" points="141.021,142.684 142.176,148.428 146.328,149.708 148.409,143.86 146.328,142.684 	"/>
	<path fill="#BA9749" d="M130.626,260.343c-0.929,1.593-2.289,2.892-3.923,3.746l3.923,5.369c0,0,3.694-6.307,1.842-7.711
		L130.626,260.343z"/>
	<path fill="#BA9749" d="M84.902,203.495c-1.384,2.332,1.613,5.381,1.613,5.381l1.624,2.799v-8.18
		C88.139,203.495,86.287,201.153,84.902,203.495z"/>
</g>
</svg>
