<?xml version="1.0" encoding="utf-8"?>
<!-- Generator: Adobe Illustrator 16.0.0, SVG Export Plug-In . SVG Version: 6.00 Build 0)  -->
<!DOCTYPE svg PUBLIC "-//W3C//DTD SVG 1.1//EN" "http://www.w3.org/Graphics/SVG/1.1/DTD/svg11.dtd">
<svg version="1.1" id="Layer_1" xmlns="http://www.w3.org/2000/svg" xmlns:xlink="http://www.w3.org/1999/xlink" x="0px" y="0px"
	 width="300px" height="300px" viewBox="0 0 300 300" enable-background="new 0 0 300 300" xml:space="preserve">
<title>Untitled-3</title>
<path fill="#BA9749" d="M284.495,103.244c0,0-19.879-27.238-5.268-32.559V62.87h-15.191v-3.372H252.64v3.512l-7.903,7.815
	l-6.34-5.778l-3.301-0.281l-3.215,5.022c0,0-21.073-6.216-2.634-31.61V25.692h5.27v-5.269h-8.185c0,0-9.062-2.371-7.902-14.207
	h-9.642c0,0-0.28,6.813-6.129,4.741S192.122,0,192.122,0l-7.902,1.756c0,0-3.215,10.66-18.703,7.709c0,0-6.726-5.04-5.549,3.846
	c1.177,8.886-0.299,12.715-9.36,13.909c-9.062,1.194-16.051-9.536-22.198,7.692c0,0,0.878,18.949-7.885,13.61
	c-8.763-5.339-24.586,9.781-45.01,5.637c0,0-9.36-13.031-13.154-6.515c0,0-4.688,4.706-3.512,7.234
	c1.177,2.529,3.512,4.373-2.336,8.043c-5.848,3.67-14.611,18.176-9.062,20.248l0.58,15.683c0,0-9.94,3.512-9.343,8.587
	c0,0-6.146,3.512-2.635,4.145c1.933,0.363,3.916,0.363,5.849,0l-0.598,10.941h2.933l-0.298,13.926H32.929c0,0-6.146,8.569-13.154,0
	c0,0-6.427-2.968-3.512,5.022c2.915,7.99,5.848,1.475,6.146,15.401c0,0,2.616,5.619,10.537-4.144l2.915-0.598
	c0,0-4.092,10.36,2.055,12.731c6.147,2.371-3.811,23.076,3.512,27.221c0,0,1.317,9.554,12.205,14.963
	c10.888,5.406,2.775,9.096,18.633,24.41c15.858,15.313,29.082,26.061,18.563,34.734l13.54,17.176l0.298,16.964l27.94-18.527
	l4.496,5.727c0,0,11.872-8.991,12.978-10.222c1.107-1.229,0-3.282,0-3.282l3.389-3.672h9.009c0,0,7.357-4.918,7.357-7.78
	c0-2.86,6.552-4.495,11.872-4.092c3.442,0.147,6.852-0.708,9.817-2.458c0,0,0.438-10.536,2.072-11.504l13.118-7.34
	c3.193,1.292,6.459,2.395,9.782,3.303c1.229,0,7.761-6.552,7.761-6.552c3.342-2.645,6.365-5.667,9.01-9.009
	c3.267-4.496,11.047-2.037,11.047-2.037l4.091,2.037l9.009-7.956c0-7.023,1.914-9.114,2.652-9.621l0.299-0.16l-7.322,0.598
	l1.176-5.039l4.671-4.725l0.598-9.186l12.292-14.206v-15.981c0,0-1.756-6.515-4.092-8.886c-2.336-2.371-9.658-2.669,3.214-10.958
	S269.884,123.965,284.495,103.244z"/>
</svg>
