<svg id="Layer_1" data-name="Layer 1" xmlns="http://www.w3.org/2000/svg" viewBox="0 0 203.74 204.51"><defs><style>.cls-1{fill:#ba9749;}</style></defs><title>Untitled-3</title><path class="cls-1" d="M86.16,192.52s4.32-2,4.32-9.78c0,0,6.49-1.85,8.82-5.9h4v-1.35h8.82s5.49-7.58,10.82-.17S135.59,174,135.59,174h13.15s2.49,4.88,6.82-.17,12.81.17,14,2,1.83,7.25,6.16,4.72,1.16-5.23,6.32-4.55c0,0,7-2.36,8.82-8.09v-7.25s-4-1.18,1.17-5.73v-5.06s-7.66-2.86-3-8.59c0,0-.33-5.9,3-6.75l2.83-5.9v-5.56s-19-9.77-7.82-13.15l-10-2s-5-.34-6.16-7.41L160.05,90.37l-.5-5.9,2.33-.17.17-7.24-2.66.16.33-9.43,3.33-1.52-.33-12.47s-3.17-5.23-4.5-6.41-3.83,4.21-13.31-11.12l-3-1.18-1-4.72s-5.66-4.89-5.82-9.95a15.23,15.23,0,0,1-3.5-5.06l-3.83.17s1.83,6.58-12.15-3.54h-9.32l-3.16,2-.33,4.38-7,6.07-.17,3.37-5,1.35S85.16,29,81.5,37.28a6.63,6.63,0,0,1-2.34-6.41l-7-.67S61.69,25.65,63,20.42H57.2s-5,10.79-8.66,5.9l-1.66-.67-.17,4.21-4.66,4.55H38.89l.16,3.37L23.91,50.26l-6.66-3.54-4.16.33s-8.5,7.09-1.27,17.58S21.37,72.78,20,79.08s-6.52,8.62-5.36,14.67-.23,3.49,4,8.51,11.65,1.75,13.52,9-3.73,7.92-1.63,12.35,12.35-1.63,13,3.73-.7,1.4.69,5.36-4.19,3.72-1.39,7.22,8.62-.7,9.55,2.1.23.18,2.1,4.75,10.95,1.54,9.55,6.43-5.59,10.72,1.17,14.91,12.58,6.06,13,10.25S80.57,192.49,86.16,192.52Z"/></svg>