<?xml version="1.0" encoding="utf-8"?>
<!-- Generator: Adobe Illustrator 16.0.0, SVG Export Plug-In . SVG Version: 6.00 Build 0)  -->
<!DOCTYPE svg PUBLIC "-//W3C//DTD SVG 1.1//EN" "http://www.w3.org/Graphics/SVG/1.1/DTD/svg11.dtd">
<svg version="1.1" id="Layer_1" xmlns="http://www.w3.org/2000/svg" xmlns:xlink="http://www.w3.org/1999/xlink" x="0px" y="0px"
	 width="300px" height="300px" viewBox="0 0 300 300" enable-background="new 0 0 300 300" xml:space="preserve">
<title>Untitled-3</title>
<path fill="#BA9749" d="M124.335,295.275c0,0,6.953-3.221,6.953-15.742c0,0,10.445-2.977,14.195-9.494h6.438v-2.174h14.195
	c0,0,8.836-12.199,17.414-0.273c8.578,11.928,20.359-2.123,20.359-2.123h21.163c0,0,4.008,7.854,10.977-0.275
	c6.97-8.127,20.617,0.275,22.532,3.219c1.915,2.947,2.945,11.67,9.914,7.598s1.866-8.418,10.172-7.322
	c0,0,11.266-3.799,14.194-13.021v-11.668c0,0-6.437-1.9,1.884-9.223v-8.143c0,0-12.328-4.604-4.828-13.826
	c0,0-0.531-9.494,4.828-10.863l4.555-9.496V183.5c0,0-30.58-15.725-12.586-21.164l-16.094-3.219c0,0-8.048-0.547-9.914-11.926
	l-17.431-16.32l-0.806-9.496l3.75-0.273l0.274-11.652l-4.281,0.257l0.531-15.177l5.359-2.446l-0.531-20.069
	c0,0-5.103-8.417-7.242-10.316c-2.141-1.899-6.164,6.776-21.421-17.897l-4.829-1.899l-1.609-7.597c0,0-9.109-7.87-9.367-16.014
	c-2.411-2.303-4.329-5.074-5.633-8.144l-6.164,0.273c0,0,2.945,10.59-19.555-5.697h-14.999l-5.087,3.219l-0.53,7.049l-11.266,9.77
	l-0.274,5.423l-8.047,2.173c0,0-8.804-0.258-14.694,13.069c-3.064-2.479-4.512-6.446-3.766-10.317l-11.266-1.078
	c0,0-16.851-7.323-14.742-15.74h-9.335c0,0-8.047,17.366-13.938,9.496l-2.671-1.078l-0.274,6.776l-7.5,7.322h-5.086l0.258,5.424
	L24.148,66.317L13.43,60.62l-6.695,0.531c0,0-13.68,11.411-2.043,28.293c11.636,16.883,15.37,13.117,13.165,23.256
	s-10.494,13.873-8.626,23.61c1.867,9.737-0.371,5.617,6.438,13.696c6.808,8.079,18.75,2.817,21.759,14.485
	s-6.003,12.748-2.624,19.877c3.38,7.129,19.877-2.623,20.923,6.002c1.046,8.627-1.126,2.254,1.111,8.627
	c2.237,6.373-6.744,5.988-2.237,11.621c4.506,5.631,13.873-1.127,15.37,3.379c1.497,4.508,0.37,0.289,3.38,7.645
	s17.624,2.479,15.37,10.35c-2.253,7.869-8.997,17.252,1.883,23.996s20.247,9.754,20.922,16.498
	C112.201,279.23,115.339,295.227,124.335,295.275z"/>
</svg>
