<?xml version="1.0" encoding="utf-8"?>
<!-- Generator: Adobe Illustrator 16.0.0, SVG Export Plug-In . SVG Version: 6.00 Build 0)  -->
<!DOCTYPE svg PUBLIC "-//W3C//DTD SVG 1.1//EN" "http://www.w3.org/Graphics/SVG/1.1/DTD/svg11.dtd">
<svg version="1.1" id="Layer_1" xmlns="http://www.w3.org/2000/svg" xmlns:xlink="http://www.w3.org/1999/xlink" x="0px" y="0px"
	 width="53px" height="100px" viewBox="0 0 53 100" enable-background="new 0 0 53 100" xml:space="preserve">
<title>Untitled-3</title>
<g>
	<path fill="none" stroke="#C9AD6C" stroke-width="0.5" stroke-miterlimit="10" d="M34.574,45.075c0,0,0.717-0.34,0.717-1.621
		c0,0,1.077-0.308,1.466-0.979h0.659v-0.227h1.463c0,0,0.906-1.257,1.792-0.028c0.884,1.23,2.097-0.226,2.097-0.226h2.179
		c0,0,0.414,0.81,1.135-0.029c0.723-0.838,2.122,0.029,2.318,0.34c0.191,0.313,0.305,1.201,1.021,0.782
		c0.716-0.42,0.192-0.866,1.048-0.754c0,0,1.157-0.392,1.46-1.341v-1.2c0,0-0.661-0.195,0.195-0.949v-0.839
		c0,0-1.271-0.476-0.498-1.424c0,0-0.056-0.978,0.498-1.118l0.469-0.978v-0.922c0,0-3.146-1.62-1.298-2.178l-1.654-0.34
		c0,0-0.826-0.056-1.021-1.23l-1.793-1.676l-0.086-0.975l0.387-0.029l0.025-1.201l-0.438,0.028l0.054-1.564l0.553-0.252
		l-0.056-2.067c0,0-0.524-0.867-0.745-1.062c-0.219-0.195-0.633,0.699-2.208-1.843l-0.497-0.196L43.651,18.2
		c0,0-0.939-0.811-0.966-1.649c0,0-0.439-0.419-0.58-0.838l-0.636,0.029c0,0,0.306,1.089-2.013-0.587h-1.543l-0.526,0.34
		l-0.055,0.727l-1.16,1.006l-0.028,0.558l-0.825,0.227c0,0-0.909-0.027-1.517,1.341c-0.314-0.254-0.466-0.663-0.386-1.061
		l-1.16-0.113c0,0-1.739-0.754-1.519-1.621h-0.965c0,0-0.827,1.789-1.435,0.979l-0.274-0.114l-0.026,0.699l-0.772,0.754h-0.527
		l0.028,0.558l-2.51,2.057l-1.104-0.587l-0.691,0.056c0,0-1.408,1.179-0.209,2.914c1.198,1.735,1.588,1.352,1.351,2.394
		c-0.237,1.043-1.081,1.429-0.888,2.434c0.193,1.004-0.038,0.578,0.657,1.41c0.696,0.83,1.928,0.29,2.24,1.487
		c0.311,1.196-0.617,1.313-0.27,2.048c0.347,0.733,2.04-0.271,2.163,0.617c0.12,0.888-0.115,0.227,0.114,0.888
		c0.226,0.662-0.688,0.622-0.235,1.203c0.455,0.581,1.43-0.113,1.589,0.349c0.161,0.461,0.041,0.03,0.348,0.788
		c0.309,0.757,1.815,0.254,1.589,1.066c-0.229,0.811-0.928,1.777,0.193,2.472c1.12,0.697,2.084,1.005,2.163,1.702
		C33.344,43.426,33.651,45.069,34.574,45.075z"/>
	<path fill="none" stroke="#C9AD6C" stroke-width="0.5" stroke-miterlimit="10" d="M15.936,1.463c0,0-0.304,1.005-1.766,0.726
		c0,0-0.635-0.475-0.524,0.363c0.112,0.838-0.028,1.201-0.884,1.313c-0.855,0.111-1.517-0.894-2.096,0.727
		c0,0,0.082,1.788-0.745,1.286C9.094,5.375,7.604,6.798,5.672,6.409c0,0-0.883-1.23-1.242-0.615c0,0-0.441,0.444-0.331,0.681
		C4.21,6.71,4.431,6.886,3.873,7.232C3.314,7.579,2.5,8.951,3.024,9.146l0.055,1.475c0,0-0.939,0.34-0.884,0.811
		c0,0-0.579,0.339-0.248,0.391c0.183,0.035,0.37,0.035,0.553,0l-0.055,1.034H2.72l-0.028,1.313H1.645c0,0-0.58,0.81-1.242,0
		c0,0-0.606-0.28-0.331,0.474c0.276,0.754,0.552,0.141,0.578,1.454c0,0,0.249,0.531,0.994-0.392l0.276-0.055
		c0,0-0.387,0.978,0.192,1.201c0.58,0.223-0.358,2.179,0.333,2.571c0,0,0.124,0.901,1.151,1.411
		c1.028,0.509,0.262,0.858,1.759,2.305c1.497,1.447,2.744,2.465,1.751,3.284l1.278,1.621l0.027,1.602l1.353-1.276l0.138,1.453
		c0,0-0.349,1.284-1.196,0.643c-0.846-0.643-0.938,4.246-0.938,4.246s0.551,1.564-0.525,0.615c0,0-0.745-0.195-0.44,0.922
		l-1.463,0.251l-0.114,1.37l0.555,0.64l-0.054,0.921c0,0,1.6,1.175,1.766,2.459c0.165,1.285,2.836,2.235,2.836,2.235
		s0.113,1.006,0.965,2.042c0.852,1.037,0.115,3.857,0.115,3.857s-0.359,2.821,1.708,3.971l0.056,1.929l0.414,0.195l-0.084,0.503
		c0,0,1.104-0.083,0.415,0.587v1.004l0.634,0.756l-0.027,0.642c0,0-0.663,0.197-1.85,2.628c-1.186,2.433-3.503,4.106-3.503,4.106
		L9.06,67.479c0,0,0.588,0.092-0.203,0.728c0,0-0.146,1.918-1.304,3.391l-0.079,0.947l0.295,0.204l-1.215,1.95l0.019,0.971
		c0,0-0.68,0.392-0.275,0.799v0.766l-0.717,1.714c0,0-0.644,2.683,0.59,3.669c0,0,0.404,0.169-0.35,0.95
		c-0.753,0.782,0.202,1.862,0.202,1.862s0.992-0.406,0.715-1.041c-0.028-0.143,0.014-0.288,0.114-0.393
		c0.166-0.15,0-0.429-0.202-0.429c-0.202,0-0.166-0.558,0.238-0.708c0.406-0.149,0.203-1.134,0.203-1.134s1.096-0.636,0.879,0.371
		c0,0,0.648-0.225,0.702,0.133c0.054,0.355,0.113,1.171,0.113,1.171s1.692,0.635,1.815,1.285c0.124,0.651-0.038,1.043-0.038,1.043
		s0.454-0.02,0.454,0.262c0,0,0.663-0.372,1.012,0.318c0.239,0.51,0.417,1.049,0.534,1.601c0,0,1.527,0.856,1.895,1.713l0.313,0.113
		l-0.019,1.305l0.423,0.448h0.589c0,0,0.607,1.545,1.49,1.972l0.44,0.859l0.203-0.839c0,0,0.387-0.28,0-0.521
		c-0.388-0.242,0.331-0.503,0.277-0.744c-0.055-0.242,0.827-0.392,0.771,0.762c-0.056,1.155,2.496,1.343,2.685,0.504
		c0,0,0.811,0.298,0.663,1.175l-0.35,0.113l-0.038,0.577l0.977,0.111v-0.373l0.551-0.018v0.391h0.294v1.559
		c0,0-1.159,0.987-0.423,1.489c0.735,0.502,0.938,0.97,1.803-0.445c0.525-0.142,1.009-0.403,1.415-0.765
		c0,0,0.662-0.037,0.884,0.986c0,0,0.166,0.412,0.554-0.093c0,0,0.402,0.614,0.68-0.036l0.516-0.187v-0.986
		c0,0,0.439-0.746,0.957-0.894c0,0,0.254-0.877-0.407-1.158c-0.661-0.276-1.453-0.502-3.386-3.983h-0.679v-0.188l-0.661-0.017v0.445
		l-1.987,0.018c0,0,0.055-0.373-0.24-0.446c-0.295-0.075-1.333-0.194-1.913-1.508c0,0-0.386-0.226-0.993,0.139
		c0,0-0.772-0.026-0.635-1.034c0,0-2.261-1.479-1.435-2.766c0,0,0.442-0.978,1.27,0.56c0,0,0.248-1.564-0.746-4.918l-0.524-0.839
		v0.813c0,0-0.717,0.139-1.158-1.537s-0.746-4.357-0.746-4.357l-1.35,0.054c0,0-0.608,0.227-0.773,0.701l-1.49-0.058
		c0,0-0.718-0.67,0.113-1.061v-0.421c0,0-1.076-0.698-0.855-4.085c0,0,0.276-0.699,0.249-0.782
		c-0.028-0.085-0.304-0.979,0.027-1.285c0.33-0.307-0.303-0.448,1.903-3.404V63.71c0,0,0.69-1.621,0.717-2.04
		c0.027-0.422,1.298-2.907,1.298-2.907s-0.167-0.669,1.269-2.095l-0.441-1.787c0,0-0.442-2.516,0.799-3.858
		c0,0-0.166-1.005-0.746-1.285c-0.58-0.28,0.828-1.507,1.628-1.588c0.578-0.047,1.159-0.047,1.738,0l0.027-0.391l1.076,0.055
		l0.055,0.227l1.903,0.056l-0.113,0.922l-0.514,0.443l0.386,0.308l-0.055,0.642l-0.358,0.307c0,0,0.413,1.257-0.114,1.9
		c-0.526,0.643,0.662,1.369,0.662,1.369l0.359-0.561h1.545c0,0,1.02,0.837,2.563-0.139l0.857,0.03l0.829,1.061l0.246-0.196
		l0.388-0.084l0.055,0.505l1.268,1.339l0.552-0.278v0.95l-0.494,0.166l0.026,0.756l0.332,0.14l0.136,0.529h0.688v-0.613
		l-0.331-0.113l-0.082-0.56l0.413,0.027c0,0,0.387,0.342,0.744-0.39l0.525,0.056l1.712,3.633v-0.862l-1.269-2.824
		c0,0,0.966-1.761,0-2.18c-0.967-0.421-1.598-1.229-1.077-1.761c0.526-0.531-1.653-2.626-1.16-3.517
		c0.298-0.516,0.367-1.132,0.195-1.701c0,0,1.875,0.307,1.271-0.392c-0.611-0.699,0.715-0.056,1.323-1.983
		c0,0,0.719-0.341,0.719-1.621c0,0,1.073-0.308,1.46-0.979h0.662V42.2h1.464c0,0,0.907-1.257,1.791-0.028
		c0.885,1.231,2.095-0.226,2.095-0.226h2.18c0,0,0.416,0.81,1.137-0.029c0.72-0.838,2.125,0.029,2.317,0.342
		c0.193,0.312,0.304,1.2,1.021,0.781c0.72-0.418,0.192-0.866,1.047-0.754c0,0,1.159-0.392,1.465-1.341v-1.206
		c0,0-0.663-0.194,0.193-0.949v-0.839c0,0-1.271-0.475-0.499-1.424c0,0-0.055-0.978,0.499-1.117l0.469-0.979v-0.922
		c0,0-3.152-1.621-1.302-2.179l-1.654-0.341c0,0-0.829-0.055-1.022-1.229l-1.792-1.676l-0.083-0.979l0.386-0.029l0.027-1.201
		l-0.436,0.04l0.056-1.565l0.551-0.251l-0.056-2.067c0,0-0.522-0.867-0.744-1.062c-0.222-0.195-0.633,0.699-2.207-1.844
		l-0.497-0.196l-0.164-0.788c0,0-0.938-0.811-0.969-1.648c0,0-0.44-0.419-0.577-0.839l-0.634,0.029c0,0,0.301,1.089-2.017-0.588
		h-1.545l-0.526,0.34l-0.055,0.727l-1.159,1.006l-0.028,0.558l-0.827,0.227c0,0-0.906-0.027-1.519,1.341
		c-0.313-0.255-0.461-0.663-0.384-1.061l-1.158-0.112c0,0-1.74-0.755-1.52-1.621h-0.965c0,0-0.827,1.788-1.435,0.979l-0.273-0.114
		l-0.03,0.699l-0.771,0.755h-0.525l0.028,0.558l-2.512,2.063l-1.104-0.587l-0.689,0.056l0.113-0.475l0.441-0.447l0.055-0.866
		l1.16-1.34v-1.508c0,0-0.167-0.614-0.388-0.838C23.576,15.21,22.89,15.182,24.1,14.4c1.213-0.782-0.082-1.398,1.296-3.353
		c0,0-1.875-2.571-0.496-3.073v-0.74h-1.435V6.912h-1.072v0.323l-0.746,0.739l-0.607-0.531l-0.303-0.029l-0.303,0.476
		c0,0-1.985-0.586-0.247-2.989V3.726h0.496v-0.5H19.91c0,0-0.854-0.227-0.744-1.341h-0.908c0,0-0.027,0.643-0.578,0.447
		c-0.551-0.195-1-1.035-1-1.035L15.936,1.463z"/>
	<polygon fill="none" stroke="#C9AD6C" stroke-width="0.5" stroke-miterlimit="10" points="17.203,73.601 16.358,73.601 
		16.542,74.516 17.203,74.72 17.535,73.787 	"/>
	<path fill="none" stroke="#C9AD6C" stroke-width="0.5" stroke-miterlimit="10" d="M14.703,92.341c0,0-0.257,0.446-0.626,0.594
		l0.626,0.858c0,0,0.588-1.006,0.294-1.228L14.703,92.341z"/>
	<path fill="none" stroke="#C9AD6C" stroke-width="0.5" stroke-miterlimit="10" d="M7.935,84.59v-1.303c0,0-0.294-0.373-0.515,0
		c-0.221,0.374,0.257,0.857,0.257,0.857L7.935,84.59z"/>
	<path fill="none" stroke="#C9AD6C" stroke-width="0.5" stroke-miterlimit="10" d="M33.278,59.445h-0.516v1.007
		c0,0,0.114,0.342,0.516,0V59.445z"/>
	<path fill="none" stroke="#C9AD6C" stroke-width="0.5" stroke-miterlimit="10" d="M25.396,11.046c0,0-1.875-2.571-0.496-3.073
		V7.234h-1.435V6.912h-1.072v0.323l-0.746,0.739l-0.607-0.531l-0.303-0.029l-0.303,0.476c0,0-1.985-0.586-0.247-2.989V3.726h0.496
		v-0.5H19.91c0,0-0.854-0.227-0.744-1.341h-0.908c0,0-0.027,0.643-0.578,0.447c-0.551-0.195-1-1.035-1-1.035l-0.744,0.168
		c0,0-0.304,1.006-1.766,0.727c0,0-0.635-0.476-0.524,0.363c0.112,0.838-0.028,1.201-0.884,1.312
		c-0.855,0.111-1.517-0.894-2.096,0.728c0,0,0.082,1.788-0.745,1.286c-0.827-0.503-2.317,0.919-4.248,0.53
		c0,0-0.883-1.23-1.242-0.615c0,0-0.441,0.444-0.331,0.681C4.21,6.71,4.431,6.886,3.873,7.232C3.314,7.579,2.5,8.951,3.024,9.146
		l0.055,1.475c0,0-0.939,0.34-0.884,0.811c0,0-0.579,0.339-0.248,0.391c0.183,0.035,0.37,0.035,0.553,0l-0.055,1.034H2.72
		l-0.028,1.313H1.645c0,0-0.58,0.81-1.242,0c0,0-0.607-0.28-0.331,0.474c0.277,0.754,0.552,0.141,0.578,1.454
		c0,0,0.249,0.531,0.994-0.392l0.276-0.055c0,0-0.387,0.978,0.192,1.201c0.58,0.223-0.358,2.179,0.333,2.571
		c0,0,0.124,0.901,1.151,1.411c1.028,0.509,0.262,0.858,1.759,2.305c1.497,1.447,2.744,2.465,1.751,3.284l1.278,1.621l0.027,1.602
		l2.637-1.75l0.425,0.542c0,0,1.12-0.85,1.224-0.966c0.103-0.116,0-0.31,0-0.31l0.32-0.347h0.85c0,0,0.696-0.464,0.696-0.735
		c0-0.271,0.618-0.424,1.119-0.385c0.325,0.016,0.647-0.063,0.927-0.227c0,0,0.041-1,0.195-1.086l1.239-0.692
		c0.301,0.122,0.609,0.225,0.922,0.31c0.114,0,0.734-0.618,0.734-0.618c0.315-0.25,0.6-0.535,0.85-0.85
		c0.309-0.425,1.042-0.193,1.042-0.193l0.386,0.193l0.849-0.752c0-0.669,0.182-0.858,0.251-0.908l0.027-0.016l-0.69,0.056
		l0.114-0.475l0.441-0.447l0.055-0.866l1.16-1.341v-1.511c0,0-0.167-0.614-0.388-0.838c-0.221-0.223-0.907-0.251,0.304-1.033
		C25.314,13.619,24.018,13.001,25.396,11.046z"/>
	<path fill="none" stroke="#C9AD6C" stroke-width="0.5" stroke-miterlimit="10" d="M29.711,94.927
		c-0.663-0.276-1.455-0.502-3.386-3.983h-0.68v-0.188l-0.661-0.017v0.445l-1.987,0.018c0,0,0.056-0.373-0.239-0.446
		c-0.296-0.075-1.333-0.194-1.913-1.508c0,0-0.386-0.226-0.993,0.139c0,0-0.772-0.026-0.635-1.034c0,0-2.262-1.479-1.435-2.766
		c0,0,0.442-0.978,1.27,0.56c0,0,0.248-1.564-0.746-4.918l-0.524-0.839v0.813c0,0-0.717,0.139-1.158-1.537
		c-0.44-1.676-0.746-4.357-0.746-4.357l-1.351,0.054c0,0-0.607,0.227-0.772,0.701l-1.49-0.058c0,0-0.717-0.67,0.114-1.061v-0.421
		c0,0-1.076-0.698-0.855-4.085c0,0,0.276-0.699,0.249-0.782c-0.028-0.085-0.305-0.979,0.027-1.285
		c0.331-0.307-0.303-0.448,1.903-3.404V63.71c0,0,0.689-1.621,0.717-2.04c0.027-0.422,1.298-2.907,1.298-2.907
		s-0.166-0.669,1.269-2.095l-0.441-1.787c0,0-0.442-2.516,0.799-3.858c0,0-0.283-0.339-0.396,0c-0.063,0.202-0.186,0.382-0.353,0.51
		l-1.241,0.318l-1.083,0.581c0,0,0.061,0.64,0,0.68l0,0c-0.061,0.041-0.425-0.486-0.425-0.486s-0.217,1.283-0.989,0.627l0.265,0.732
		l0.055,1.929l0.414,0.196l-0.083,0.504c0,0,1.104-0.084,0.415,0.585v1.006l0.635,0.756l-0.027,0.642c0,0-0.663,0.195-1.85,2.628
		c-1.187,2.431-3.503,4.104-3.503,4.104l-0.113,1.137c0,0,0.589,0.092-0.203,0.725c0,0-0.146,1.919-1.305,3.394l-0.083,0.955
		l0.295,0.204l-1.215,1.95l0.019,0.971c0,0-0.68,0.392-0.275,0.799v0.766l-0.717,1.714c0,0-0.645,2.683,0.59,3.669
		c0,0,0.404,0.169-0.35,0.95c-0.753,0.782,0.202,1.862,0.202,1.862s0.992-0.406,0.715-1.041c-0.028-0.143,0.014-0.288,0.114-0.393
		c0.166-0.15,0-0.429-0.202-0.429c-0.202,0-0.166-0.558,0.238-0.708c0.406-0.149,0.203-1.134,0.203-1.134s1.096-0.636,0.879,0.371
		c0,0,0.648-0.225,0.702,0.133c0.054,0.355,0.113,1.171,0.113,1.171s1.692,0.635,1.815,1.285c0.124,0.651-0.038,1.043-0.038,1.043
		s0.454-0.02,0.454,0.262c0,0,0.663-0.372,1.012,0.318c0.239,0.51,0.417,1.049,0.534,1.601c0,0,1.527,0.856,1.895,1.713l0.312,0.113
		l-0.018,1.305l0.423,0.448h0.589c0,0,0.607,1.545,1.49,1.972l0.44,0.859l0.203-0.839c0,0,0.387-0.28,0-0.521
		c-0.388-0.242,0.331-0.503,0.277-0.744c-0.055-0.242,0.827-0.392,0.771,0.762c-0.056,1.155,2.496,1.343,2.685,0.504
		c0,0,0.811,0.298,0.663,1.175l-0.35,0.113l-0.038,0.577l0.977,0.111v-0.373l0.551-0.018v0.391h0.294v1.559
		c0,0-1.159,0.987-0.423,1.489c0.735,0.502,0.938,0.97,1.803-0.445c0.525-0.142,1.009-0.403,1.415-0.765
		c0,0,0.662-0.037,0.884,0.986c0,0,0.166,0.412,0.554-0.093c0,0,0.402,0.614,0.68-0.036l0.516-0.187v-0.986
		c0,0,0.439-0.746,0.957-0.894C30.115,96.085,30.372,95.208,29.711,94.927z"/>
	<polygon fill="none" stroke="#C9AD6C" stroke-width="0.5" stroke-miterlimit="10" points="16.358,73.601 16.542,74.516 
		17.203,74.72 17.535,73.787 17.203,73.601 	"/>
	<path fill="none" stroke="#C9AD6C" stroke-width="0.5" stroke-miterlimit="10" d="M14.703,92.341c0,0-0.257,0.446-0.626,0.594
		l0.626,0.858c0,0,0.588-1.006,0.294-1.228L14.703,92.341z"/>
	<path fill="none" stroke="#C9AD6C" stroke-width="0.5" stroke-miterlimit="10" d="M7.419,83.287
		c-0.228,0.374,0.256,0.857,0.256,0.857l0.258,0.445v-1.303C7.933,83.287,7.645,82.916,7.419,83.287z"/>
	<path fill="none" stroke="#C9AD6C" stroke-width="0.5" stroke-miterlimit="10" d="M23.123,48.435c0,0,0.794-0.114,0-1.703
		l0.908-0.793h0.795l0.793-0.794c0,0-0.793,1.588,0,0.794c0.793-0.794,1.701-1.589,2.494-1.589c0,0,0.796,0.795,1.59,0.795
		l0.793-0.795h0.796l0.907,0.795l1.588-0.795l0.748,0.671c-0.61,1.928-1.933,1.284-1.325,1.983c0.604,0.698-1.27,0.392-1.27,0.392
		c0.171,0.569,0.102,1.185-0.194,1.701c-0.493,0.895,1.685,2.99,1.16,3.519c-0.522,0.525,0.112,1.338,1.075,1.759
		c0.962,0.416,0,2.18,0,2.18l1.267,2.83v0.866l-1.712-3.631l-0.525-0.058c-0.357,0.728-0.744,0.392-0.744,0.392l-0.413-0.027
		l0.082,0.558l0.331,0.113v0.613h-0.691l-0.136-0.529l-0.33-0.139l-0.028-0.755l0.494-0.166v-0.95l-0.552,0.278l-1.268-1.345
		L29.701,54.1l-0.388,0.084l-0.246,0.196l-0.829-1.061l-0.855-0.03c-1.544,0.976-2.564,0.139-2.564,0.139h-1.546l-0.358,0.561
		c0,0-1.187-0.727-0.663-1.369c0.524-0.644,0.114-1.9,0.114-1.9l0.358-0.307l0.055-0.642l-0.386-0.308l0.523-0.447l0.114-0.922"/>
	<path fill="none" stroke="#C9AD6C" stroke-width="0.5" stroke-miterlimit="10" d="M33.278,59.445h-0.516v1.007
		c0,0,0.114,0.342,0.516,0V59.445z"/>
</g>
</svg>
