<?xml version="1.0" encoding="utf-8"?>
<!-- Generator: Adobe Illustrator 16.0.0, SVG Export Plug-In . SVG Version: 6.00 Build 0)  -->
<!DOCTYPE svg PUBLIC "-//W3C//DTD SVG 1.1//EN" "http://www.w3.org/Graphics/SVG/1.1/DTD/svg11.dtd">
<svg version="1.1" id="Layer_1" xmlns="http://www.w3.org/2000/svg" xmlns:xlink="http://www.w3.org/1999/xlink" x="0px" y="0px"
	 width="105px" height="105px" viewBox="0 0 105 105" enable-background="new 0 0 105 105" xml:space="preserve">
<title>Untitled-3</title>
<g>
	<path fill="none" stroke="#C9AD6C" stroke-width="0.5" stroke-miterlimit="10" d="M60.818,47.403c0,0,0.721-0.342,0.721-1.629
		c0,0,1.081-0.309,1.47-0.982h0.665v-0.228h1.469c0,0,0.912-1.263,1.801-0.027c0.889,1.235,2.107-0.228,2.107-0.228h2.189
		c0,0,0.415,0.814,1.141-0.028c0.725-0.842,2.133,0.028,2.327,0.342s0.306,1.207,1.026,0.785c0.72-0.421,0.193-0.87,1.053-0.758
		c0,0,1.164-0.393,1.469-1.347v-1.205c0,0-0.666-0.196,0.194-0.954v-0.843c0,0-1.276-0.478-0.499-1.432c0,0-0.055-0.982,0.499-1.123
		l0.471-0.982v-0.927c0,0-3.159-1.627-1.304-2.188l-1.662-0.342c0,0-0.831-0.056-1.025-1.236l-1.803-1.684l-0.086-0.98l0.389-0.029
		l0.027-1.207l-0.443,0.029l0.055-1.572l0.556-0.253l-0.056-2.077c0,0-0.527-0.871-0.748-1.067
		c-0.221-0.196-0.639,0.702-2.219-1.852l-0.498-0.197l-0.166-0.78c0,0-0.942-0.814-0.97-1.656c0,0-0.443-0.421-0.583-0.842
		l-0.637,0.029c0,0,0.305,1.094-2.023-0.59h-1.553l-0.525,0.342l-0.057,0.729l-1.164,1.011l-0.027,0.561l-0.832,0.228
		c0,0-0.912-0.027-1.523,1.347c-0.316-0.256-0.467-0.666-0.389-1.066l-1.164-0.114c0,0-1.746-0.758-1.525-1.628h-0.97
		c0,0-0.831,1.796-1.44,0.983l-0.277-0.114l-0.028,0.702l-0.774,0.758h-0.527l0.027,0.561l-2.522,2.065l-1.109-0.589l-0.693,0.056
		c0,0-1.415,1.185-0.211,2.927s1.596,1.357,1.357,2.405c-0.238,1.047-1.086,1.436-0.893,2.445s-0.039,0.581,0.66,1.416
		s1.938,0.292,2.25,1.495c0.313,1.202-0.62,1.32-0.271,2.057c0.349,0.737,2.052-0.272,2.173,0.62
		c0.12,0.893-0.114,0.228,0.114,0.893c0.228,0.665-0.689,0.625-0.234,1.208c0.456,0.583,1.437-0.114,1.596,0.35
		c0.16,0.464,0.039,0.03,0.35,0.791c0.31,0.761,1.823,0.256,1.596,1.071c-0.229,0.815-0.932,1.785,0.193,2.484
		s2.096,1.009,2.174,1.709C59.581,45.747,59.889,47.397,60.818,47.403z"/>
	<path fill="none" stroke="#C9AD6C" stroke-width="0.5" stroke-miterlimit="10" d="M42.092,3.587c0,0-0.306,1.01-1.774,0.729
		c0,0-0.638-0.478-0.526,0.365S39.763,5.888,38.903,6c-0.859,0.112-1.524-0.898-2.106,0.73c0,0,0.083,1.796-0.748,1.292
		s-2.329,0.926-4.269,0.534c0,0-0.887-1.236-1.247-0.618c0,0-0.443,0.447-0.333,0.684c0.11,0.237,0.333,0.414-0.228,0.762
		c-0.561,0.348-1.379,1.727-0.853,1.923l0.055,1.481c0,0-0.943,0.342-0.887,0.814c0,0-0.582,0.342-0.25,0.393
		c0.184,0.035,0.372,0.035,0.555,0l-0.056,1.039h0.277l-0.027,1.32h-1.053c0,0-0.583,0.814-1.248,0c0,0-0.609-0.281-0.332,0.477
		c0.277,0.758,0.554,0.141,0.582,1.46c0,0,0.25,0.534,0.999-0.393l0.277-0.056c0,0-0.389,0.982,0.194,1.207s-0.36,2.189,0.333,2.583
		c0,0,0.124,0.905,1.157,1.417s0.263,0.863,1.767,2.316c1.503,1.454,2.757,2.476,1.76,3.299l1.284,1.629l0.027,1.609l1.359-1.282
		l0.139,1.46c0,0-0.351,1.291-1.202,0.646c-0.85-0.646-0.942,4.266-0.942,4.266s0.554,1.572-0.527,0.618
		c0,0-0.749-0.196-0.443,0.927l-1.469,0.252l-0.114,1.376l0.557,0.644l-0.055,0.926c0,0,1.607,1.18,1.774,2.47
		c0.166,1.29,2.85,2.247,2.85,2.247s0.114,1.01,0.97,2.052c0.856,1.042,0.114,3.875,0.114,3.875s-0.36,2.835,1.717,3.99l0.056,1.938
		l0.416,0.195l-0.083,0.506c0,0,1.109-0.084,0.417,0.59v1.01l0.637,0.758l-0.027,0.646c0,0-0.666,0.196-1.858,2.639
		c-1.192,2.443-3.52,4.127-3.52,4.127l-0.114,1.139c0,0,0.592,0.094-0.204,0.73c0,0-0.147,1.927-1.311,3.406l-0.078,0.952
		l0.295,0.205l-1.22,1.96l0.018,0.974c0,0-0.684,0.394-0.277,0.806v0.767l-0.72,1.724c0,0-0.646,2.694,0.593,3.686
		c0,0,0.406,0.169-0.351,0.954c-0.757,0.786,0.203,1.872,0.203,1.872s0.997-0.408,0.718-1.048c-0.029-0.142,0.014-0.289,0.114-0.394
		c0.167-0.15,0-0.431-0.203-0.431c-0.203,0-0.167-0.561,0.24-0.711c0.407-0.15,0.203-1.14,0.203-1.14s1.101-0.637,0.883,0.373
		c0,0,0.651-0.228,0.706,0.132c0.055,0.358,0.114,1.179,0.114,1.179s1.7,0.637,1.824,1.291c0.125,0.654-0.038,1.049-0.038,1.049
		s0.456-0.02,0.456,0.261c0,0,0.666-0.374,1.017,0.319c0.24,0.514,0.419,1.054,0.536,1.608c0,0,1.534,0.861,1.903,1.722l0.314,0.114
		l-0.019,1.312l0.425,0.449h0.592c0,0,0.61,1.552,1.497,1.982l0.443,0.861l0.203-0.843c0,0,0.389-0.28,0-0.523
		c-0.389-0.243,0.333-0.506,0.278-0.749c-0.055-0.242,0.831-0.393,0.775,0.768c-0.056,1.16,2.508,1.348,2.698,0.505
		c0,0,0.814,0.3,0.666,1.18l-0.351,0.114l-0.038,0.58l0.98,0.113v-0.375l0.554-0.018v0.393h0.295v1.565c0,0-1.164,0.991-0.425,1.497
		c0.739,0.504,0.943,0.973,1.811-0.449c0.528-0.142,1.015-0.404,1.423-0.768c0,0,0.665-0.037,0.888,0.992
		c0,0,0.166,0.411,0.555-0.094c0,0,0.406,0.617,0.684-0.037l0.518-0.188v-0.992c0,0,0.443-0.748,0.961-0.897
		c0,0,0.258-0.88-0.407-1.161c-0.666-0.279-1.46-0.504-3.4-4.004h-0.684v-0.188l-0.665-0.019v0.449l-1.996,0.019
		c0,0,0.056-0.375-0.24-0.449c-0.296-0.076-1.339-0.196-1.922-1.516c0,0-0.388-0.228-0.998,0.141c0,0-0.776-0.028-0.638-1.039
		c0,0-2.271-1.488-1.441-2.779c0,0,0.443-0.981,1.276,0.563c0,0,0.248-1.572-0.749-4.94l-0.527-0.843v0.814
		c0,0-0.72,0.14-1.164-1.544c-0.443-1.683-0.749-4.379-0.749-4.379l-1.357,0.056c0,0-0.61,0.229-0.776,0.702l-1.497-0.056
		c0,0-0.721-0.675,0.114-1.066V76.99c0,0-1.081-0.701-0.859-4.104c0,0,0.277-0.703,0.25-0.787s-0.304-0.982,0.027-1.291
		s-0.304-0.449,1.913-3.42v-1.262c0,0,0.693-1.629,0.72-2.051c0.027-0.424,1.303-2.92,1.303-2.92s-0.167-0.674,1.275-2.105
		l-0.443-1.796c0,0-0.443-2.526,0.803-3.876c0,0-0.167-1.009-0.749-1.291c-0.583-0.281,0.832-1.515,1.635-1.596
		c0.582-0.048,1.166-0.048,1.747,0l0.027-0.393l1.082,0.056l0.055,0.228l1.913,0.056l-0.114,0.927l-0.517,0.446l0.388,0.309
		l-0.055,0.646l-0.36,0.308c0,0,0.415,1.264-0.114,1.908c-0.529,0.646,0.666,1.377,0.666,1.377l0.36-0.563h1.552
		c0,0,1.026,0.842,2.577-0.141l0.859,0.029l0.832,1.065l0.249-0.196l0.389-0.084l0.056,0.505l1.274,1.349l0.554-0.281v0.955
		l-0.498,0.167l0.027,0.759l0.333,0.14l0.138,0.533h0.689V59.98l-0.331-0.114l-0.084-0.562l0.415,0.027c0,0,0.389,0.343,0.749-0.393
		l0.526,0.057l1.72,3.648v-0.865l-1.273-2.839c0,0,0.97-1.768,0-2.189c-0.971-0.422-1.607-1.234-1.081-1.769
		c0.526-0.533-1.663-2.638-1.165-3.533c0.297-0.519,0.367-1.137,0.195-1.71c0,0,1.884,0.309,1.274-0.393
		c-0.61-0.702,0.72-0.056,1.33-1.992c0,0,0.722-0.342,0.722-1.629c0,0,1.08-0.309,1.468-0.983h0.665v-0.228h1.47
		c0,0,0.912-1.263,1.802-0.028c0.889,1.236,2.105-0.228,2.105-0.228h2.189c0,0,0.416,0.813,1.141-0.029
		c0.724-0.842,2.135,0.029,2.328,0.342s0.305,1.206,1.025,0.785c0.723-0.42,0.194-0.87,1.054-0.758c0,0,1.164-0.394,1.47-1.348
		v-1.21c0,0-0.666-0.196,0.193-0.954v-0.842c0,0-1.275-0.478-0.499-1.432c0,0-0.056-0.982,0.499-1.123l0.471-0.982v-0.927
		c0,0-3.166-1.628-1.307-2.189l-1.662-0.342c0,0-0.832-0.056-1.026-1.235l-1.802-1.684l-0.084-0.982l0.389-0.029l0.027-1.207
		l-0.438,0.04l0.055-1.572l0.556-0.253l-0.056-2.077c0,0-0.527-0.871-0.749-1.067c-0.223-0.196-0.638,0.702-2.218-1.852
		l-0.498-0.197l-0.167-0.791c0,0-0.942-0.814-0.972-1.656c0,0-0.443-0.421-0.58-0.842l-0.639,0.029c0,0,0.305,1.094-2.023-0.591
		h-1.555L63.6,17.626l-0.055,0.729l-1.164,1.011l-0.029,0.561l-0.83,0.228c0,0-0.912-0.027-1.525,1.347
		c-0.316-0.256-0.465-0.666-0.388-1.066l-1.163-0.114c0,0-1.746-0.758-1.525-1.628h-0.971c0,0-0.83,1.796-1.44,0.983l-0.276-0.114
		l-0.029,0.702l-0.775,0.758h-0.527l0.028,0.561l-2.525,2.072l-1.109-0.59l-0.693,0.057l0.114-0.478l0.443-0.449l0.055-0.87
		l1.165-1.347v-1.515c0,0-0.167-0.618-0.389-0.842s-0.912-0.253,0.305-1.039c1.218-0.785-0.083-1.404,1.302-3.368
		c0,0-1.884-2.583-0.498-3.088V9.385h-1.442V9.061h-1.077v0.325l-0.749,0.742l-0.61-0.534l-0.305-0.028l-0.305,0.478
		c0,0-1.995-0.589-0.249-3.003V5.86h0.498V5.357h-0.776c0,0-0.858-0.228-0.748-1.348h-0.912c0,0-0.027,0.646-0.581,0.449
		c-0.554-0.196-1.005-1.04-1.005-1.04L42.092,3.587z"/>
	<polygon fill="none" stroke="#C9AD6C" stroke-width="0.5" stroke-miterlimit="10" points="43.366,76.064 42.517,76.064 
		42.702,76.982 43.366,77.188 43.699,76.251 	"/>
	<path fill="none" stroke="#C9AD6C" stroke-width="0.5" stroke-miterlimit="10" d="M40.854,94.89c0,0-0.259,0.449-0.629,0.599
		l0.629,0.86c0,0,0.59-1.01,0.295-1.234L40.854,94.89z"/>
	<path fill="none" stroke="#C9AD6C" stroke-width="0.5" stroke-miterlimit="10" d="M34.054,87.104v-1.31c0,0-0.295-0.375-0.518,0
		s0.259,0.861,0.259,0.861L34.054,87.104z"/>
	<path fill="none" stroke="#C9AD6C" stroke-width="0.5" stroke-miterlimit="10" d="M59.516,61.842h-0.518v1.011
		c0,0,0.115,0.342,0.518,0V61.842z"/>
	<path fill="none" stroke="#C9AD6C" stroke-width="0.5" stroke-miterlimit="10" d="M51.598,13.215c0,0-1.884-2.583-0.498-3.088
		V9.385h-1.442V9.061h-1.077v0.325l-0.749,0.742l-0.61-0.534l-0.305-0.028l-0.305,0.478c0,0-1.995-0.589-0.249-3.003V5.86h0.498
		V5.357h-0.776c0,0-0.858-0.228-0.748-1.348h-0.912c0,0-0.027,0.646-0.581,0.449c-0.554-0.196-1.005-1.04-1.005-1.04l-0.748,0.169
		c0,0-0.306,1.01-1.774,0.729c0,0-0.638-0.478-0.526,0.365c0.112,0.842-0.028,1.207-0.888,1.318
		c-0.859,0.112-1.524-0.898-2.106,0.731c0,0,0.083,1.796-0.748,1.292s-2.329,0.924-4.269,0.532c0,0-0.887-1.236-1.247-0.618
		c0,0-0.443,0.447-0.333,0.684c0.11,0.237,0.333,0.414-0.228,0.762c-0.561,0.348-1.379,1.727-0.853,1.923l0.055,1.481
		c0,0-0.943,0.342-0.887,0.814c0,0-0.582,0.342-0.25,0.393c0.184,0.035,0.372,0.035,0.555,0l-0.056,1.039h0.277l-0.027,1.32h-1.053
		c0,0-0.583,0.814-1.248,0c0,0-0.61-0.281-0.332,0.477c0.278,0.758,0.554,0.141,0.582,1.46c0,0,0.25,0.534,0.999-0.393l0.277-0.056
		c0,0-0.389,0.982,0.194,1.207s-0.36,2.189,0.333,2.583c0,0,0.124,0.905,1.157,1.417s0.263,0.863,1.767,2.316
		c1.503,1.454,2.757,2.476,1.76,3.299l1.284,1.629l0.027,1.609l2.649-1.758l0.427,0.544c0,0,1.125-0.854,1.229-0.97
		c0.104-0.116,0-0.311,0-0.311l0.323-0.349h0.854c0,0,0.699-0.465,0.699-0.738c0-0.272,0.622-0.426,1.125-0.387
		c0.326,0.016,0.649-0.064,0.932-0.228c0,0,0.041-1.005,0.196-1.092l1.245-0.695c0.303,0.122,0.612,0.226,0.927,0.312
		c0.114,0,0.737-0.621,0.737-0.621c0.316-0.251,0.603-0.538,0.854-0.854c0.31-0.427,1.047-0.194,1.047-0.194l0.388,0.194
		l0.854-0.756c0-0.672,0.183-0.863,0.252-0.912l0.027-0.016l-0.693,0.057l0.114-0.478l0.443-0.449l0.055-0.87l1.165-1.347v-1.518
		c0,0-0.167-0.618-0.389-0.842s-0.912-0.253,0.306-1.039C51.515,15.799,50.213,15.179,51.598,13.215z"/>
	<path fill="none" stroke="#C9AD6C" stroke-width="0.5" stroke-miterlimit="10" d="M55.932,97.49
		c-0.666-0.279-1.461-0.504-3.4-4.004h-0.684v-0.188l-0.665-0.019v0.449l-1.996,0.019c0,0,0.056-0.375-0.24-0.449
		c-0.296-0.076-1.339-0.196-1.922-1.516c0,0-0.388-0.228-0.998,0.141c0,0-0.776-0.028-0.638-1.039c0,0-2.273-1.488-1.441-2.779
		c0,0,0.443-0.981,1.276,0.563c0,0,0.248-1.572-0.749-4.94l-0.527-0.843v0.814c0,0-0.72,0.14-1.164-1.544
		c-0.443-1.683-0.749-4.379-0.749-4.379l-1.357,0.056c0,0-0.61,0.229-0.776,0.702l-1.497-0.056c0,0-0.721-0.675,0.114-1.066V76.99
		c0,0-1.081-0.701-0.859-4.104c0,0,0.277-0.703,0.25-0.787s-0.306-0.982,0.027-1.291s-0.304-0.449,1.913-3.42v-1.262
		c0,0,0.693-1.629,0.72-2.051c0.027-0.424,1.303-2.92,1.303-2.92s-0.167-0.674,1.275-2.105l-0.443-1.796
		c0,0-0.443-2.526,0.803-3.876c0,0-0.284-0.342-0.397,0c-0.063,0.203-0.187,0.382-0.354,0.512l-1.247,0.32l-1.087,0.583
		c0,0,0.062,0.643,0,0.685l0,0c-0.061,0.041-0.426-0.49-0.426-0.49s-0.219,1.291-0.994,0.631l0.267,0.736l0.055,1.938l0.416,0.196
		l-0.083,0.506c0,0,1.109-0.084,0.416,0.589v1.011l0.637,0.758l-0.027,0.646c0,0-0.666,0.196-1.858,2.639s-3.52,4.126-3.52,4.126
		l-0.114,1.14c0,0,0.592,0.094-0.204,0.729c0,0-0.147,1.928-1.312,3.407l-0.082,0.961l0.295,0.205l-1.22,1.96l0.018,0.974
		c0,0-0.684,0.394-0.277,0.806v0.767l-0.72,1.724c0,0-0.647,2.694,0.593,3.686c0,0,0.406,0.169-0.351,0.954
		c-0.757,0.786,0.203,1.872,0.203,1.872s0.997-0.408,0.718-1.048c-0.029-0.142,0.014-0.289,0.114-0.394
		c0.167-0.15,0-0.431-0.203-0.431c-0.203,0-0.167-0.561,0.24-0.711c0.407-0.15,0.203-1.14,0.203-1.14s1.101-0.637,0.883,0.373
		c0,0,0.651-0.228,0.706,0.132c0.055,0.358,0.114,1.179,0.114,1.179s1.7,0.637,1.824,1.291c0.125,0.654-0.038,1.049-0.038,1.049
		s0.456-0.02,0.456,0.261c0,0,0.666-0.374,1.017,0.319c0.24,0.514,0.419,1.054,0.536,1.608c0,0,1.534,0.861,1.903,1.722l0.313,0.114
		l-0.018,1.312l0.425,0.449h0.592c0,0,0.61,1.552,1.497,1.982l0.443,0.861l0.203-0.843c0,0,0.389-0.28,0-0.523
		c-0.389-0.243,0.333-0.506,0.278-0.749c-0.055-0.242,0.831-0.393,0.775,0.768c-0.056,1.16,2.508,1.348,2.698,0.505
		c0,0,0.814,0.3,0.666,1.18l-0.351,0.114l-0.038,0.58l0.98,0.113v-0.375l0.554-0.018v0.393h0.295v1.565c0,0-1.164,0.991-0.425,1.497
		c0.739,0.504,0.943,0.973,1.811-0.449c0.528-0.142,1.015-0.404,1.423-0.768c0,0,0.665-0.037,0.888,0.992
		c0,0,0.166,0.411,0.555-0.094c0,0,0.406,0.617,0.684-0.037l0.518-0.188v-0.992c0,0,0.443-0.748,0.961-0.897
		C56.338,98.651,56.598,97.771,55.932,97.49z"/>
	<polygon fill="none" stroke="#C9AD6C" stroke-width="0.5" stroke-miterlimit="10" points="42.517,76.064 42.702,76.982 
		43.366,77.188 43.699,76.251 43.366,76.064 	"/>
	<path fill="none" stroke="#C9AD6C" stroke-width="0.5" stroke-miterlimit="10" d="M40.854,94.89c0,0-0.259,0.449-0.629,0.599
		l0.629,0.86c0,0,0.59-1.01,0.295-1.234L40.854,94.89z"/>
	<path fill="none" stroke="#C9AD6C" stroke-width="0.5" stroke-miterlimit="10" d="M33.535,85.795
		c-0.228,0.374,0.258,0.861,0.258,0.861l0.259,0.448v-1.31C34.052,85.795,33.763,85.421,33.535,85.795z"/>
	<path fill="none" stroke="#C9AD6C" stroke-width="0.5" stroke-miterlimit="10" d="M49.313,50.778c0,0,0.798-0.114,0-1.71
		l0.912-0.798h0.798l0.798-0.798c0,0-0.798,1.596,0,0.798s1.71-1.596,2.508-1.596c0,0,0.798,0.798,1.596,0.798l0.798-0.798h0.798
		l0.911,0.798l1.596-0.798l0.75,0.674c-0.61,1.938-1.938,1.29-1.33,1.992s-1.275,0.394-1.275,0.394
		c0.172,0.572,0.102,1.19-0.194,1.709c-0.498,0.898,1.691,3.003,1.165,3.534c-0.527,0.53,0.113,1.347,1.08,1.768s0,2.19,0,2.19
		l1.271,2.844v0.869l-1.719-3.647l-0.527-0.058c-0.359,0.731-0.748,0.395-0.748,0.395l-0.416-0.027l0.084,0.561l0.332,0.113v0.617
		h-0.693l-0.139-0.533l-0.332-0.14l-0.027-0.758l0.498-0.167v-0.955l-0.555,0.281l-1.273-1.354l-0.057-0.505l-0.389,0.084
		l-0.248,0.196l-0.832-1.065l-0.859-0.029c-1.551,0.982-2.577,0.141-2.577,0.141h-1.553l-0.36,0.563c0,0-1.192-0.73-0.666-1.377
		c0.527-0.645,0.114-1.908,0.114-1.908l0.36-0.308l0.055-0.646l-0.388-0.309l0.526-0.449l0.114-0.927"/>
	<path fill="none" stroke="#C9AD6C" stroke-width="0.5" stroke-miterlimit="10" d="M59.516,61.842h-0.518v1.011
		c0,0,0.115,0.342,0.518,0V61.842z"/>
</g>
</svg>
