<svg id="Layer_1" data-name="Layer 1" xmlns="http://www.w3.org/2000/svg" viewBox="0 0 516.77 921.19"><defs><style>.cls-1{fill:none;stroke:#ba9749;stroke-miterlimit:10;stroke-width:2px;}</style></defs><title>Untitled-3</title><path class="cls-1" d="M331.36,415.88s6.33-3,6.33-14.29c0,0,9.48-2.71,12.89-8.62h5.83v-2H369.3s8-11.08,15.8-.24,18.49-2,18.49-2H422.8s3.64,7.14,10-.25,18.72.25,20.42,3,2.68,10.59,9,6.89,1.7-7.63,9.24-6.65c0,0,10.21-3.45,12.89-11.82V369.33s-5.84-1.72,1.7-8.37v-7.39s-11.19-4.19-4.38-12.56c0,0-.48-8.62,4.38-9.85l4.13-8.62v-8.13s-27.72-14.28-11.43-19.2l-14.59-3s-7.29-.49-9-10.84l-15.81-14.77L438.6,258l3.41-.25.24-10.59-3.89.25.48-13.79,4.87-2.22-.49-18.22s-4.62-7.64-6.56-9.36-5.6,6.16-19.46-16.25l-4.37-1.73L411.37,179s-8.27-7.14-8.51-14.53c0,0-3.89-3.7-5.11-7.39l-5.59.25s2.67,9.6-17.75-5.18H360.79l-4.62,3-.49,6.4-10.21,8.87-.24,4.92-7.3,2s-8-.24-13.37,11.82a9.66,9.66,0,0,1-3.41-9.35l-10.21-1s-15.32-6.65-13.38-14.28h-8.51s-7.29,15.76-12.64,8.62l-2.43-1-.25,6.16-6.8,6.65h-4.62l.24,4.92L240.42,208l-9.73-5.17-6.08.49S212.2,213.71,222.76,229s14,11.91,11.91,21.1-9.53,12.6-7.83,21.45-.34,5.1,5.79,12.42,17,2.56,19.74,13.11-5.44,11.58-2.38,18.05,18-2.39,19.06,5.44-1,2,1,7.83S264,333.88,268,339s12.6-1,14,3.07.34.26,3.06,6.94,16,2.25,14,9.4-8.17,15.66,1.7,21.79,18.39,8.85,19.07,15S323.21,415.83,331.36,415.88Z"/><path class="cls-1" d="M167.07,31.47s-2.68,8.86-15.56,6.4c0,0-5.6-4.19-4.62,3.2s-.25,10.59-7.79,11.57-13.37-7.88-18.48,6.41c0,0,.73,15.76-6.56,11.33S93.63,78.5,76.61,75.06c0,0-7.78-10.84-10.94-5.42,0,0-3.89,3.92-2.92,6s2.92,3.63-2,6.68S48.65,97.47,53.27,99.19l.48,13s-8.27,3-7.78,7.14c0,0-5.11,3-2.19,3.45a13,13,0,0,0,4.87,0l-.49,9.11h2.43l-.24,11.58H41.11s-5.11,7.14-10.95,0c0,0-5.34-2.47-2.91,4.18s4.86,1.24,5.1,12.81c0,0,2.19,4.68,8.76-3.45l2.43-.49s-3.41,8.62,1.7,10.59-3.16,19.21,2.92,22.66c0,0,1.09,7.94,10.15,12.43s2.31,7.57,15.5,20.32S98,244.24,89.25,251.46l11.27,14.29.24,14.12,11.92-11.25,1.22,12.81s-3.08,11.32-10.54,5.66-8.27,37.43-8.27,37.43,4.86,13.79-4.62,5.42c0,0-6.57-1.72-3.89,8.13l-12.89,2.21-1,12.07L77.58,358l-.48,8.12s14.1,10.35,15.56,21.67,25,19.71,25,19.71,1,8.86,8.51,18,1,34,1,34-3.16,24.87,15.07,35l.49,17,3.65,1.72-.73,4.44s9.73-.74,3.65,5.17v8.86l5.59,6.65-.24,5.67s-5.84,1.72-16.3,23.15-30.88,36.2-30.88,36.2l-1,10s5.19.82-1.79,6.4c0,0-1.29,16.91-11.5,29.89L92.5,658l2.59,1.8L84.39,677l.16,8.54s-6,3.45-2.43,7.06v6.73L75.8,714.45S70.13,738.09,81,746.79c0,0,3.56,1.48-3.08,8.37s1.78,16.42,1.78,16.42S88.44,768,86,762.39a3.86,3.86,0,0,1,1-3.45c1.46-1.32,0-3.78-1.78-3.78s-1.46-4.92,2.11-6.24,1.78-10,1.78-10,9.66-5.58,7.75,3.28c0,0,5.71-2,6.19,1.15s1,10.34,1,10.34,14.91,5.59,16,11.33-.33,9.2-.33,9.2,4-.17,4,2.29c0,0,5.84-3.28,8.92,2.8a65.21,65.21,0,0,1,4.7,14.11s13.46,7.56,16.7,15.11l2.76,1-.17,11.5,3.73,3.94h5.19s5.35,13.62,13.13,17.4l3.89,7.55,1.78-7.39s3.41-2.46,0-4.59,2.92-4.44,2.44-6.57,7.29-3.45,6.8,6.73,22,11.82,23.67,4.43c0,0,7.14,2.63,5.84,10.35l-3.08,1-.33,5.09,8.6,1v-3.29l4.86-.16v3.45h2.59V873.7s-10.21,8.7-3.73,13.13,8.27,8.54,15.89-3.94a30.75,30.75,0,0,0,12.48-6.73s5.84-.33,7.79,8.7c0,0,1.45,3.61,4.86-.82,0,0,3.57,5.42,6-.33l4.54-1.64v-8.7s3.89-6.57,8.43-7.88c0,0,2.27-7.72-3.57-10.18s-12.81-4.43-29.83-35.13h-6v-1.65l-5.83-.16v3.94l-17.51.16s.49-3.28-2.11-3.94-11.75-1.72-16.86-13.29c0,0-3.4-2-8.75,1.23,0,0-6.81-.25-5.6-9.12,0,0-19.93-13.05-12.64-24.38,0,0,3.89-8.61,11.19,4.93,0,0,2.18-13.79-6.57-43.34l-4.62-7.39v7.14s-6.32,1.23-10.21-13.54-6.57-38.42-6.57-38.42l-11.91.49s-5.35,2-6.81,6.16l-13.13-.49s-6.33-5.92,1-9.36v-3.7s-9.48-6.15-7.54-36c0,0,2.43-6.16,2.19-6.9s-2.67-8.62.24-11.33-2.67-3.94,16.78-30V580.15s6.08-14.29,6.32-18,11.43-25.61,11.43-25.61-1.46-5.91,11.19-18.47l-3.89-15.76s-3.89-22.17,7.05-34c0,0-1.46-8.86-6.57-11.33s7.3-13.29,14.35-14a93.3,93.3,0,0,1,15.32,0l.24-3.45,9.49.49.48,2,16.78.49-1,8.13L224,454.55l3.4,2.71-.48,5.67-3.16,2.7s3.64,11.09-1,16.75,5.84,12.07,5.84,12.07l3.16-4.93h13.62s9,7.39,22.61-1.23l7.54.25,7.3,9.35,2.18-1.72,3.41-.74.49,4.43,11.18,11.83,4.86-2.47v8.38l-4.37,1.47.24,6.65,2.92,1.23,1.21,4.68H311v-5.41l-2.91-1-.73-4.92,3.64.24s3.41,3,6.57-3.45l4.62.5,15.08,32V542L326.1,517.1s8.51-15.51,0-19.21-14.1-10.83-9.48-15.51-14.59-23.15-10.22-31a19.16,19.16,0,0,0,1.71-15s16.53,2.71,11.18-3.45,6.32-.49,11.67-17.48c0,0,6.33-3,6.33-14.29,0,0,9.48-2.71,12.88-8.62H356v-2H368.9s8-11.08,15.8-.24,18.48-2,18.48-2h19.21s3.65,7.14,10-.25,18.73.25,20.43,3,2.67,10.58,9,6.89,1.7-7.63,9.24-6.65c0,0,10.21-3.45,12.89-11.82V368.85s-5.84-1.72,1.7-8.37v-7.39s-11.19-4.19-4.38-12.56c0,0-.49-8.62,4.38-9.85l4.13-8.62v-8.13S462,299.65,478.32,294.72l-14.59-3s-7.29-.49-9-10.84l-15.81-14.77-.73-8.62,3.4-.25.25-10.59L438,247l.48-13.79,4.87-2.22-.49-18.22s-4.62-7.64-6.57-9.36-5.59,6.16-19.45-16.25l-4.38-1.73L411,178.49s-8.27-7.14-8.52-14.53c0,0-3.89-3.7-5.1-7.39l-5.6.25s2.68,9.6-17.75-5.18H360.39l-4.62,3-.49,6.4-10.21,8.87-.25,4.92-7.29,2s-8-.24-13.38,11.82a9.65,9.65,0,0,1-3.4-9.35l-10.21-1s-15.32-6.65-13.38-14.28h-8.51s-7.29,15.76-12.64,8.62l-2.43-1-.25,6.16-6.81,6.65H261.9l.25,4.92L240,207.55l-9.73-5.18-6.08.5,1-4.19,3.89-3.94.48-7.63,10.22-11.82V162s-1.46-5.42-3.41-7.39-8-2.22,2.68-9.11-.73-12.32,11.42-29.55c0,0-16.53-22.66-4.37-27.09V82.34H233.45V79.49H224v2.85l-6.57,6.51-5.35-4.68-2.67-.25-2.68,4.19s-17.5-5.17-2.18-26.35V51.41h4.37V47h-6.81s-7.53-2-6.56-11.82h-8s-.24,5.66-5.1,3.94S173.63,30,173.63,30Z"/><polygon class="cls-1" points="178.25 667.33 170.8 667.33 172.42 675.38 178.25 677.18 181.17 668.97 178.25 667.33"/><path class="cls-1" d="M156.21,832.49s-2.27,3.94-5.52,5.25l5.52,7.55s5.18-8.86,2.59-10.83Z"/><path class="cls-1" d="M96.55,764.19V752.7s-2.59-3.29-4.54,0,2.27,7.55,2.27,7.55Z"/><path class="cls-1" d="M319.94,542.55H315.4v8.87s1,3,4.54,0Z"/><path class="cls-1" d="M250.47,115.94s-16.53-22.66-4.37-27.09V82.34H233.45V79.49H224v2.85l-6.57,6.51-5.35-4.68-2.67-.25-2.68,4.19s-17.5-5.17-2.18-26.35V51.41h4.37V47h-6.81s-7.53-2-6.56-11.82h-8s-.24,5.66-5.1,3.94S173.63,30,173.63,30l-6.56,1.48s-2.68,8.86-15.56,6.4c0,0-5.6-4.19-4.62,3.2s-.25,10.59-7.79,11.57-13.37-7.88-18.48,6.41c0,0,.73,15.76-6.56,11.33S93.63,78.5,76.61,75.06c0,0-7.78-10.84-10.94-5.42,0,0-3.89,3.92-2.92,6s2.92,3.63-2,6.68S48.65,97.47,53.27,99.19l.48,13s-8.27,3-7.78,7.14c0,0-5.11,3-2.19,3.45a13,13,0,0,0,4.87,0l-.49,9.11h2.43l-.24,11.58H41.11s-5.11,7.14-10.95,0c0,0-5.35-2.47-2.91,4.18s4.86,1.24,5.1,12.81c0,0,2.19,4.68,8.76-3.45l2.43-.49s-3.41,8.62,1.7,10.59-3.16,19.21,2.92,22.66c0,0,1.09,7.94,10.15,12.43s2.31,7.57,15.5,20.32S98,244.24,89.25,251.46l11.27,14.29.24,14.12L124,264.45l3.75,4.77s9.87-7.49,10.78-8.51,0-2.73,0-2.73l2.83-3.06h7.49s6.13-4.08,6.13-6.47,5.45-3.74,9.87-3.4a14.82,14.82,0,0,0,8.17-2s.36-8.82,1.72-9.58l10.92-6.1a73.52,73.52,0,0,0,8.13,2.74c1,0,6.47-5.45,6.47-5.45a46.56,46.56,0,0,0,7.49-7.49c2.72-3.74,9.19-1.7,9.19-1.7l3.4,1.7,7.49-6.63c0-5.9,1.6-7.57,2.21-8l.24-.14-6.08.5,1-4.19,3.89-3.94.48-7.63,10.22-11.82V162s-1.46-5.42-3.41-7.39-8-2.22,2.68-9.11S238.32,133.17,250.47,115.94Z"/><path class="cls-1" d="M288.49,855.31c-5.84-2.46-12.81-4.43-29.83-35.13h-6v-1.65l-5.83-.16v3.94l-17.51.16s.49-3.28-2.11-3.94-11.75-1.72-16.86-13.29c0,0-3.4-2-8.75,1.23,0,0-6.81-.25-5.6-9.12,0,0-19.94-13.05-12.64-24.38,0,0,3.89-8.61,11.19,4.93,0,0,2.18-13.79-6.57-43.34l-4.62-7.39v7.14s-6.32,1.23-10.21-13.54-6.57-38.42-6.57-38.42l-11.91.49s-5.35,2-6.81,6.16l-13.13-.49s-6.33-5.92,1-9.36v-3.7s-9.48-6.15-7.54-36c0,0,2.43-6.16,2.19-6.9s-2.68-8.62.24-11.33-2.67-3.94,16.78-30V580.15s6.08-14.29,6.32-18,11.43-25.61,11.43-25.61-1.46-5.91,11.19-18.47l-3.89-15.76s-3.89-22.17,7.05-34c0,0-2.49-3-3.49,0a9.11,9.11,0,0,1-3.11,4.49l-10.94,2.81-9.54,5.11s.54,5.64,0,6h0c-.53.36-3.74-4.3-3.74-4.3s-1.92,11.33-8.72,5.54l2.34,6.46.48,17,3.65,1.72-.73,4.44s9.73-.74,3.65,5.17v8.86l5.59,6.65-.24,5.67s-5.84,1.72-16.3,23.15-30.88,36.2-30.88,36.2l-1,10s5.19.82-1.79,6.4c0,0-1.29,16.91-11.51,29.89L92.5,658l2.59,1.8L84.39,677l.16,8.54s-6,3.45-2.43,7.06v6.73L75.8,714.45S70.12,738.09,81,746.79c0,0,3.56,1.48-3.08,8.37s1.78,16.42,1.78,16.42S88.44,768,86,762.39a3.86,3.86,0,0,1,1-3.45c1.46-1.32,0-3.78-1.78-3.78s-1.46-4.92,2.11-6.24,1.78-10,1.78-10,9.66-5.58,7.75,3.28c0,0,5.71-2,6.19,1.15s1,10.34,1,10.34,14.91,5.59,16,11.33-.33,9.2-.33,9.2,4-.17,4,2.29c0,0,5.84-3.28,8.92,2.8a65.21,65.21,0,0,1,4.7,14.11s13.46,7.56,16.7,15.11l2.75,1-.16,11.5,3.73,3.94h5.19s5.35,13.62,13.13,17.4l3.89,7.55,1.78-7.39s3.41-2.46,0-4.59,2.92-4.44,2.44-6.57,7.29-3.45,6.8,6.73,22,11.82,23.67,4.43c0,0,7.14,2.63,5.84,10.35l-3.08,1-.33,5.09,8.6,1v-3.29l4.86-.16v3.45h2.59V873.7s-10.21,8.7-3.73,13.13,8.27,8.54,15.89-3.94a30.75,30.75,0,0,0,12.48-6.73s5.84-.33,7.79,8.7c0,0,1.45,3.61,4.86-.82,0,0,3.57,5.42,6-.33l4.54-1.64v-8.7s3.89-6.57,8.43-7.88C292.06,865.49,294.33,857.77,288.49,855.31Z"/><polygon class="cls-1" points="170.8 667.33 172.42 675.38 178.25 677.18 181.17 668.97 178.25 667.33 170.8 667.33"/><path class="cls-1" d="M156.21,832.49s-2.27,3.94-5.52,5.25l5.52,7.55s5.18-8.86,2.59-10.83Z"/><path class="cls-1" d="M92,752.7c-2,3.28,2.27,7.55,2.27,7.55l2.27,3.94V752.7S94,749.42,92,752.7Z"/><path class="cls-1" d="M230.43,445.49s7-1,0-15l8-7h7l7-7s-7,14,0,7,15-14,22-14c0,0,7,7,14,7l7-7h7l8,7,14-7L331,415.4c-5.35,17-17,11.32-11.67,17.48s-11.18,3.45-11.18,3.45a19.16,19.16,0,0,1-1.71,15c-4.37,7.88,14.84,26.35,10.22,31s1,11.82,9.48,15.51,0,19.21,0,19.21L337.29,542v7.63l-15.08-32-4.62-.5c-3.16,6.41-6.57,3.45-6.57,3.45l-3.64-.24.73,4.92,2.91,1v5.41h-6.08L303.73,527l-2.92-1.23-.24-6.65,4.37-1.47v-8.38l-4.86,2.47L288.9,499.86l-.49-4.43-3.41.74-2.18,1.72-7.3-9.35-7.54-.25c-13.61,8.62-22.61,1.23-22.61,1.23H231.75l-3.16,4.93s-10.46-6.41-5.84-12.07,1-16.75,1-16.75l3.16-2.7.48-5.67-3.4-2.71,4.62-3.94,1-8.13"/><path class="cls-1" d="M319.94,542.55H315.4v8.87s1,3,4.54,0Z"/></svg>