<?xml version="1.0" encoding="utf-8"?>
<!-- Generator: Adobe Illustrator 16.0.0, SVG Export Plug-In . SVG Version: 6.00 Build 0)  -->
<!DOCTYPE svg PUBLIC "-//W3C//DTD SVG 1.1//EN" "http://www.w3.org/Graphics/SVG/1.1/DTD/svg11.dtd">
<svg version="1.1" id="Layer_1" xmlns="http://www.w3.org/2000/svg" xmlns:xlink="http://www.w3.org/1999/xlink" x="0px" y="0px"
	 width="300px" height="300px" viewBox="0 0 300 300" enable-background="new 0 0 300 300" xml:space="preserve">
<g>
	<path fill="none" stroke="#BA9749" stroke-miterlimit="10" d="M175.391,134.277c0,0,2.203-1.044,2.203-4.972
		c0,0,3.294-0.942,4.482-2.999h2.029v-0.699h4.482c0,0,2.792-3.854,5.505-0.08c2.71,3.771,6.43-0.699,6.43-0.699h6.687
		c0,0,1.266,2.485,3.479-0.084c2.218-2.573,6.512,0.084,7.106,1.042c0.596,0.96,0.935,3.686,3.134,2.397
		c2.196-1.285,0.593-2.654,3.215-2.311c0,0,3.551-1.202,4.482-4.116v-3.678c0,0-2.033-0.597,0.598-2.914v-2.569
		c0,0-3.896-1.459-1.529-4.371c0,0-0.161-3,1.529-3.427l1.432-3v-2.83c0,0-9.648-4.968-3.974-6.68l-5.08-1.046
		c0,0-2.535-0.168-3.131-3.772l-5.503-5.14l-0.263-2.995l1.19-0.082l0.081-3.689l-1.352,0.088l0.169-4.8l1.69-0.77l-0.169-6.343
		c0,0-1.61-2.655-2.284-3.254c-0.678-0.599-1.942,2.144-6.77-5.656l-1.521-0.603l-0.506-2.378c0,0-2.875-2.487-2.964-5.056
		c0,0-1.351-1.289-1.776-2.573l-1.947,0.086c0,0,0.933,3.341-6.181-1.802h-4.732l-1.608,1.045l-0.17,2.225l-3.556,3.086
		l-0.081,1.714l-2.541,0.695c0,0-2.787-0.082-4.654,4.112c-0.963-0.783-1.427-2.031-1.188-3.25l-3.55-0.349
		c0,0-5.328-2.317-4.651-4.97h-2.969c0,0-2.535,5.483-4.393,2.998l-0.848-0.347l-0.087,2.143l-2.366,2.314h-1.609l0.084,1.712
		l-7.7,6.305l-3.388-1.797l-2.113,0.168c0,0-4.32,3.617-0.645,8.938c3.676,5.319,4.871,4.146,4.146,7.341
		c-0.73,3.2-3.319,4.385-2.728,7.467c0.591,3.077-0.115,1.774,2.017,4.32c2.13,2.547,5.917,0.891,6.868,4.563
		c0.954,3.669-1.892,4.03-0.825,6.28c1.063,2.25,6.264-0.833,6.632,1.894c0.369,2.724-0.351,0.695,0.345,2.724
		c0.7,2.029-2.104,1.905-0.713,3.687c1.389,1.786,4.383-0.349,4.871,1.071c0.487,1.416,0.124,0.09,1.063,2.415
		c0.951,2.325,5.572,0.781,4.871,3.271c-0.69,2.487-2.844,5.45,0.596,7.582c3.437,2.135,6.403,3.079,6.636,5.221
		C171.615,129.221,172.556,134.261,175.391,134.277z"/>
	<path fill="none" stroke="#BA9749" stroke-miterlimit="10" d="M118.219,0.671c0,0-0.932,3.083-5.413,2.23
		c0,0-1.95-1.459-1.607,1.11c0.34,2.573-0.088,3.688-2.712,4.029c-2.622,0.337-4.651-2.743-6.429,2.229c0,0,0.253,5.484-2.281,3.944
		c-2.54-1.543-7.11,2.824-13.033,1.627c0,0-2.708-3.772-3.806-1.887c0,0-1.356,1.364-1.017,2.087
		c0.337,0.724,1.017,1.265-0.696,2.325c-1.712,1.062-4.21,5.272-2.604,5.87l0.169,4.524c0,0-2.881,1.045-2.708,2.485
		c0,0-1.778,1.042-0.764,1.198c0.561,0.108,1.136,0.108,1.697,0l-0.172,3.172h0.845l-0.081,4.028h-3.215c0,0-1.778,2.485-3.813,0
		c0,0-1.856-0.857-1.011,1.455c0.845,2.314,1.69,0.433,1.775,4.459c0,0,0.76,1.627,3.049-1.202l0.845-0.17c0,0-1.187,3,0.592,3.685
		c1.778,0.686-1.102,6.684,1.014,7.886c0,0,0.379,2.763,3.534,4.326c3.153,1.563,0.802,2.632,5.391,7.069
		c4.592,4.437,8.42,7.559,5.375,10.069l3.922,4.974l0.081,4.912l4.147-3.913l0.427,4.459c0,0-1.071,3.938-3.67,1.968
		c-2.595-1.968-2.877,13.026-2.877,13.026s1.691,4.798-1.608,1.884c0,0-2.285-0.597-1.352,2.832l-4.487,0.768l-0.347,4.199
		l1.704,1.97l-0.169,2.824c0,0,4.908,3.603,5.416,7.54c0.507,3.94,8.7,6.86,8.7,6.86s0.346,3.084,2.961,6.264
		c2.614,3.181,0.348,11.83,0.348,11.83s-1.098,8.658,5.243,12.178l0.172,5.922l1.269,0.596l-0.255,1.545
		c0,0,3.388-0.263,1.271,1.798v3.086l1.944,2.309l-0.082,1.975c0,0-2.031,0.598-5.671,8.056
		c-3.64,7.457-10.747,12.598-10.747,12.598l-0.349,3.476c0,0,1.808,0.286-0.623,2.229c0,0-0.448,5.885-4.001,10.406l-0.237,2.904
		l0.9,0.624l-3.721,5.987l0.053,2.967c0,0-2.088,1.202-0.845,2.461v2.34l-2.197,5.269c0,0-1.976,8.221,1.809,11.248
		c0,0,1.24,0.516-1.074,2.914c-2.31,2.396,0.62,5.71,0.62,5.71s3.043-1.241,2.194-3.195c-0.091-0.439,0.041-0.882,0.347-1.203
		c0.507-0.462,0-1.312-0.62-1.312s-0.507-1.716,0.732-2.175c1.242-0.457,0.62-3.474,0.62-3.474s3.362-1.945,2.699,1.14
		c0,0,1.988-0.7,2.154,0.4c0.166,1.089,0.347,3.594,0.347,3.594s5.187,1.947,5.568,3.945c0.38,1.998-0.115,3.203-0.115,3.203
		s1.392-0.063,1.392,0.792c0,0,2.033-1.14,3.104,0.976c0.729,1.569,1.279,3.219,1.637,4.906c0,0,4.683,2.632,5.81,5.26l0.96,0.354
		l-0.059,3.999l1.296,1.37h1.806c0,0,1.863,4.739,4.571,6.055l1.353,2.628l0.619-2.573c0,0,1.187-0.85,0-1.594
		c-1.187-0.748,1.018-1.547,0.848-2.287c-0.164-0.736,2.54-1.203,2.368,2.343c-0.168,3.544,7.657,4.111,8.236,1.538
		c0,0,2.485,0.917,2.035,3.607l-1.075,0.345l-0.112,1.771l2.993,0.353v-1.151l1.69-0.052v1.203h0.903v4.771
		c0,0-3.554,3.031-1.3,4.57c2.253,1.539,2.876,2.973,5.528-1.367c1.613-0.435,3.1-1.237,4.346-2.346c0,0,2.032-0.114,2.711,3.031
		c0,0,0.5,1.257,1.69-0.29c0,0,1.24,1.884,2.092-0.113l1.577-0.567v-3.032c0,0,1.354-2.283,2.931-2.741c0,0,0.788-2.688-1.238-3.545
		c-2.029-0.85-4.46-1.539-10.382-12.22h-2.089v-0.575l-2.027-0.059v1.375l-6.096,0.055c0,0,0.173-1.14-0.732-1.371
		c-0.905-0.228-4.089-0.604-5.867-4.622c0,0-1.183-0.7-3.045,0.428c0,0-2.369-0.091-1.946-3.176c0,0-6.938-4.541-4.402-8.483
		c0,0,1.355-2.992,3.895,1.715c0,0,0.76-4.794-2.285-15.083l-1.61-2.572v2.487c0,0-2.197,0.43-3.55-4.716
		c-1.355-5.133-2.288-13.368-2.288-13.368l-4.146,0.171c0,0-1.858,0.701-2.369,2.148l-4.566-0.171c0,0-2.205-2.065,0.347-3.256
		v-1.288c0,0-3.3-2.144-2.623-12.53c0,0,0.844-2.146,0.76-2.396c-0.08-0.263-0.93-3.004,0.084-3.944
		c1.013-0.945-0.928-1.378,5.839-10.443v-3.85c0,0,2.115-4.978,2.199-6.269c0.083-1.288,3.978-8.907,3.978-8.907
		s-0.507-2.061,3.893-6.43l-1.351-5.485c0,0-1.357-7.713,2.45-11.826c0,0-0.507-3.084-2.286-3.943
		c-1.778-0.858,2.542-4.625,4.994-4.872c1.774-0.147,3.56-0.147,5.33,0l0.086-1.202l3.302,0.172l0.167,0.695l5.837,0.172
		l-0.347,2.826l-1.574,1.363l1.183,0.942l-0.168,1.976l-1.101,0.938c0,0,1.269,3.856-0.347,5.83c-1.615,1.97,2.031,4.2,2.031,4.2
		l1.1-1.716h4.739c0,0,3.134,2.568,7.87-0.425l2.622,0.081l2.536,3.256l0.764-0.596l1.191-0.262l0.161,1.539l3.894,4.12l1.692-0.865
		v2.917l-1.521,0.514l0.08,2.318l1.02,0.425l0.422,1.628h2.104v-1.878l-1.015-0.352l-0.251-1.715l1.266,0.087
		c0,0,1.188,1.041,2.29-1.201l1.603,0.174l5.248,11.134v-2.643l-3.884-8.665c0,0,2.955-5.396,0-6.68
		c-2.967-1.291-4.907-3.77-3.305-5.396c1.614-1.636-5.07-8.059-3.557-10.788c0.908-1.588,1.127-3.472,0.601-5.223
		c0,0,5.749,0.948,3.89-1.198c-1.86-2.142,2.197-0.172,4.063-6.083c0,0,2.203-1.046,2.203-4.974c0,0,3.293-0.942,4.482-3h2.028
		v-0.693h4.482c0,0,2.787-3.858,5.496-0.086c2.72,3.773,6.438-0.693,6.438-0.693h6.686c0,0,1.265,2.483,3.476-0.088
		c2.209-2.573,6.518,0.088,7.106,1.044c0.594,0.956,0.933,3.681,3.136,2.397c2.205-1.285,0.595-2.655,3.213-2.315
		c0,0,3.555-1.202,4.488-4.112v-3.694c0,0-2.033-0.601,0.596-2.914v-2.571c0,0-3.896-1.459-1.529-4.369c0,0-0.167-3.004,1.529-3.429
		l1.435-3.002v-2.828c0,0-9.668-4.97-3.989-6.686l-5.079-1.042c0,0-2.536-0.172-3.129-3.772l-5.503-5.142l-0.25-2.998l1.178-0.088
		l0.085-3.684l-1.333,0.122l0.169-4.8l1.69-0.771l-0.167-6.341c0,0-1.61-2.659-2.286-3.258c-0.678-0.597-1.94,2.146-6.77-5.652
		l-1.519-0.605l-0.515-2.415c0,0-2.879-2.485-2.962-5.056c0,0-1.359-1.285-1.772-2.574l-1.953,0.09c0,0,0.932,3.339-6.171-1.805
		h-4.748l-1.615,1.045l-0.163,2.226l-3.557,3.089l-0.087,1.711l-2.534,0.693c0,0-2.787-0.081-4.659,4.114
		c-0.965-0.779-1.422-2.031-1.182-3.252l-3.551-0.347c0,0-5.328-2.313-4.659-4.968h-2.96c0,0-2.537,5.481-4.396,3l-0.852-0.349
		l-0.088,2.143l-2.367,2.314h-1.605l0.086,1.71l-7.708,6.327l-3.384-1.802l-2.117,0.172l0.348-1.457l1.352-1.371l0.171-2.656
		l3.556-4.112v-4.625c0,0-0.508-1.884-1.188-2.569c-0.679-0.686-2.782-0.774,0.933-3.172c3.717-2.397-0.253-4.289,3.973-10.283
		c0,0-5.75-7.885-1.521-9.425v-2.27h-4.403v-0.993h-3.286v0.993l-2.289,2.267l-1.858-1.631l-0.931-0.084l-0.934,1.455
		c0,0-6.088-1.797-0.756-9.169v-3.6h1.518V6.078h-2.37c0,0-2.62-0.698-2.283-4.113h-2.783c0,0-0.084,1.968-1.774,1.371
		c-1.69-0.601-3.068-3.174-3.068-3.174L118.219,0.671z"/>
	<polygon fill="none" stroke="#BA9749" stroke-miterlimit="10" points="122.11,221.774 119.52,221.774 120.082,224.58 
		122.11,225.204 123.129,222.35 	"/>
	<path fill="none" stroke="#BA9749" stroke-miterlimit="10" d="M114.442,279.247c0,0-0.79,1.371-1.919,1.829l1.919,2.628
		c0,0,1.804-3.086,0.9-3.769L114.442,279.247z"/>
	<path fill="none" stroke="#BA9749" stroke-miterlimit="10" d="M93.68,255.481v-3.994c0,0-0.901-1.152-1.577,0
		c-0.679,1.14,0.789,2.623,0.789,2.623L93.68,255.481z"/>
	<path fill="none" stroke="#BA9749" stroke-miterlimit="10" d="M171.415,178.355h-1.578v3.087c0,0,0.345,1.046,1.578,0V178.355z"/>
	<path fill="none" stroke="#BA9749" stroke-miterlimit="10" d="M147.242,29.906c0,0-5.75-7.886-1.521-9.426v-2.267h-4.403V17.22
		h-3.286v0.993l-2.289,2.267l-1.858-1.631l-0.931-0.084l-0.934,1.455c0,0-6.088-1.797-0.756-9.169v-3.6h1.518V5.917h-2.37
		c0,0-2.62-0.698-2.283-4.113h-2.783c0,0-0.084,1.968-1.774,1.371C121.883,2.573,120.505,0,120.505,0l-2.286,0.513
		c0,0-0.932,3.084-5.413,2.229c0,0-1.95-1.458-1.607,1.112c0.34,2.573-0.088,3.688-2.712,4.028c-2.622,0.342-4.651-2.741-6.429,2.23
		c0,0,0.253,5.484-2.281,3.944c-2.54-1.543-7.11,2.821-13.033,1.625c0,0-2.708-3.772-3.806-1.887c0,0-1.356,1.364-1.017,2.087
		c0.337,0.724,1.017,1.265-0.696,2.325c-1.712,1.062-4.21,5.272-2.604,5.87L78.79,28.6c0,0-2.881,1.045-2.708,2.485
		c0,0-1.778,1.042-0.764,1.198c0.561,0.108,1.136,0.108,1.697,0l-0.172,3.172h0.845l-0.081,4.028h-3.215c0,0-1.778,2.485-3.813,0
		c0,0-1.859-0.857-1.011,1.455c0.848,2.314,1.69,0.433,1.775,4.459c0,0,0.76,1.627,3.049-1.202l0.845-0.17c0,0-1.187,3,0.592,3.685
		c1.778,0.686-1.102,6.684,1.014,7.886c0,0,0.379,2.763,3.534,4.326c3.153,1.563,0.802,2.632,5.391,7.069
		c4.592,4.437,8.42,7.559,5.375,10.069l3.922,4.974l0.081,4.912l8.089-5.366l1.303,1.665c0,0,3.437-2.608,3.754-2.96
		c0.315-0.359,0-0.952,0-0.952l0.983-1.065h2.606c0,0,2.133-1.418,2.133-2.252c0-0.831,1.897-1.3,3.437-1.183
		c0.993,0.047,1.982-0.194,2.843-0.693c0,0,0.124-3.073,0.598-3.335l3.801-2.123c0.922,0.374,1.868,0.688,2.83,0.952
		c0.347,0,2.25-1.897,2.25-1.897c0.964-0.768,1.837-1.641,2.604-2.604c0.948-1.3,3.2-0.591,3.2-0.591l1.183,0.591l2.604-2.307
		c0-2.053,0.559-2.636,0.77-2.785l0.084-0.047l-2.115,0.172l0.347-1.457l1.355-1.371l0.167-2.655l3.557-4.113v-4.637
		c0,0-0.508-1.884-1.187-2.569c-0.68-0.686-2.783-0.774,0.934-3.172C146.988,37.793,143.017,35.899,147.242,29.906z"/>
	<path fill="none" stroke="#BA9749" stroke-miterlimit="10" d="M160.471,287.186c-2.034-0.85-4.457-1.539-10.377-12.22h-2.087
		v-0.575l-2.029-0.059v1.375l-6.096,0.055c0,0,0.172-1.14-0.732-1.371c-0.905-0.228-4.091-0.604-5.869-4.622
		c0,0-1.183-0.7-3.043,0.428c0,0-2.37-0.091-1.95-3.176c0,0-6.937-4.541-4.398-8.483c0,0,1.355-2.992,3.895,1.715
		c0,0,0.758-4.794-2.286-15.083l-1.609-2.572v2.487c0,0-2.197,0.43-3.552-4.716c-1.353-5.133-2.286-13.368-2.286-13.368
		l-4.146,0.171c0,0-1.862,0.701-2.369,2.148l-4.571-0.171c0,0-2.199-2.065,0.351-3.256v-1.288c0,0-3.298-2.144-2.626-12.53
		c0,0,0.848-2.146,0.764-2.396c-0.084-0.263-0.932-3.004,0.084-3.944c1.014-0.945-0.928-1.378,5.84-10.443v-3.85
		c0,0,2.114-4.978,2.197-6.269c0.084-1.288,3.979-8.907,3.979-8.907s-0.507-2.061,3.893-6.43l-1.355-5.485
		c0,0-1.351-7.713,2.456-11.826c0,0-0.867-1.045-1.216,0c-0.19,0.619-0.57,1.164-1.083,1.56l-3.807,0.975l-3.317,1.778
		c0,0,0.188,1.966,0,2.091l0,0c-0.184,0.126-1.302-1.495-1.302-1.495s-0.667,3.943-3.033,1.927l0.813,2.248l0.167,5.917l1.271,0.597
		l-0.253,1.545c0,0,3.384-0.257,1.271,1.798v3.085l1.942,2.31l-0.084,1.979c0,0-2.031,0.602-5.671,8.051
		c-3.638,7.465-10.745,12.598-10.745,12.598l-0.347,3.482c0,0,1.806,0.287-0.623,2.228c0,0-0.452,5.885-4.008,10.404l-0.25,2.932
		l0.9,0.624l-3.721,5.987l0.053,2.967c0,0-2.088,1.202-0.845,2.461v2.34l-2.197,5.269c0,0-1.979,8.221,1.809,11.248
		c0,0,1.24,0.516-1.074,2.914c-2.31,2.396,0.62,5.71,0.62,5.71s3.043-1.241,2.194-3.195c-0.091-0.439,0.041-0.882,0.347-1.203
		c0.507-0.462,0-1.312-0.62-1.312s-0.507-1.716,0.732-2.175c1.242-0.457,0.62-3.474,0.62-3.474s3.362-1.945,2.699,1.14
		c0,0,1.988-0.7,2.154,0.4c0.166,1.089,0.347,3.594,0.347,3.594s5.187,1.947,5.568,3.945c0.38,1.998-0.115,3.203-0.115,3.203
		s1.392-0.063,1.392,0.792c0,0,2.033-1.14,3.104,0.976c0.729,1.569,1.279,3.219,1.637,4.906c0,0,4.683,2.632,5.81,5.26l0.958,0.354
		l-0.057,3.999l1.296,1.37h1.806c0,0,1.863,4.739,4.571,6.055l1.353,2.628l0.619-2.573c0,0,1.187-0.85,0-1.594
		c-1.187-0.748,1.018-1.547,0.848-2.287c-0.164-0.736,2.54-1.203,2.368,2.343c-0.168,3.544,7.657,4.111,8.236,1.538
		c0,0,2.485,0.917,2.035,3.607l-1.075,0.345l-0.112,1.771l2.993,0.353v-1.151l1.69-0.052v1.203h0.903v4.771
		c0,0-3.554,3.031-1.3,4.57c2.253,1.539,2.876,2.973,5.528-1.367c1.613-0.435,3.1-1.237,4.346-2.346c0,0,2.032-0.114,2.711,3.031
		c0,0,0.5,1.257,1.69-0.29c0,0,1.24,1.884,2.092-0.113l1.577-0.567v-3.032c0,0,1.354-2.283,2.931-2.741
		C161.717,290.73,162.506,288.043,160.471,287.186z"/>
	<polygon fill="none" stroke="#BA9749" stroke-miterlimit="10" points="119.52,221.774 120.082,224.58 122.11,225.204 
		123.129,222.35 122.11,221.774 	"/>
	<path fill="none" stroke="#BA9749" stroke-miterlimit="10" d="M114.442,279.247c0,0-0.79,1.371-1.919,1.829l1.919,2.628
		c0,0,1.804-3.086,0.9-3.769L114.442,279.247z"/>
	<path fill="none" stroke="#BA9749" stroke-miterlimit="10" d="M92.096,251.487c-0.694,1.14,0.792,2.623,0.792,2.623l0.789,1.371
		v-3.994C93.677,251.487,92.794,250.343,92.096,251.487z"/>
	<path fill="none" stroke="#BA9749" stroke-miterlimit="10" d="M140.267,144.581c0,0,2.439-0.348,0-5.219l2.787-2.438h2.435
		l2.436-2.436c0,0-2.436,4.874,0,2.436c2.437-2.436,5.219-4.872,7.657-4.872c0,0,2.437,2.436,4.873,2.436l2.433-2.436h2.437
		l2.779,2.436l4.878-2.436l2.284,2.056c-1.866,5.918-5.914,3.94-4.057,6.083c1.854,2.146-3.894,1.203-3.894,1.203
		c0.525,1.747,0.313,3.634-0.595,5.221c-1.521,2.741,5.166,9.17,3.557,10.785c-1.61,1.616,0.345,4.113,3.299,5.397
		c2.95,1.285,0,6.687,0,6.687l3.882,8.678v2.656l-5.247-11.133l-1.615-0.175c-1.096,2.229-2.28,1.201-2.28,1.201l-1.271-0.088
		l0.257,1.715l1.014,0.353v1.875h-2.113l-0.428-1.621l-1.014-0.431l-0.088-2.311l1.529-0.514v-2.909l-1.692,0.85l-3.894-4.132
		l-0.17-1.539l-1.188,0.262l-0.758,0.596l-2.542-3.256l-2.616-0.081c-4.741,2.993-7.874,0.425-7.874,0.425h-4.739l-1.099,1.716
		c0,0-3.641-2.23-2.033-4.2c1.608-1.974,0.349-5.83,0.349-5.83l1.099-0.938l0.168-1.976l-1.183-0.942l1.605-1.371l0.349-2.832"/>
	<path fill="none" stroke="#BA9749" stroke-miterlimit="10" d="M171.415,178.355h-1.578v3.087c0,0,0.345,1.046,1.578,0V178.355z"/>
</g>
</svg>
