<?xml version="1.0" encoding="utf-8"?>
<!-- Generator: Adobe Illustrator 23.0.1, SVG Export Plug-In . SVG Version: 6.00 Build 0)  -->
<svg version="1.1" id="Layer_1" xmlns="http://www.w3.org/2000/svg" xmlns:xlink="http://www.w3.org/1999/xlink" x="0px" y="0px"
	 viewBox="0 0 237.5 302.6" style="enable-background:new 0 0 237.5 302.6;" xml:space="preserve">
<style type="text/css">
	.st0{fill:#A88E5A;stroke:#A88E5A;stroke-width:2;stroke-miterlimit:10;}
	.st1{fill:#546071;}
	.st2{fill:#394655;stroke:#394655;stroke-miterlimit:10;}
</style>
<g>
	<circle class="st0" cx="124.9" cy="116.9" r="43.2"/>
	<polygon class="st1" points="153.4,116.9 110.4,92.1 110.4,141.8 	"/>
</g>
<g>
	<g>
		<path class="st2" d="M114.4,168.9h-0.7l-1.4,0.7l-4.4,14.7h-0.3l-4.8-14.4l-0.3-0.3l-4.1,13.7l1.3,0.6h0.7v0.3H96V184h0.7l1.4-0.7
			l4.2-14l-0.1-0.1l-1-0.3h-0.7v-0.3h3.8l4.2,12.7l3.5-11.7l-1.3-0.6H110v-0.3h4.4V168.9z"/>
		<path class="st2" d="M125.8,176.1l-0.8,1.6l-2.2,1.5l-2.2,0.8l-2.1,0.5v0.8l0.7,2.1l0.6,0.6h1.4l2.1-0.7l1.4-1.5l0.2,0.3l-1.5,1.5
			l-2.3,0.8h-1.5l-1.5-0.8l-0.8-0.8l-0.8-2.3V179l0.8-2.3l1.5-2.3l2.3-0.7h2.3l1.5,0.8L125.8,176.1z M125.4,176.1l-0.7-1.3l-1.4-0.7
			h-2.1l-1.4,1.4l-0.7,1.4l-0.7,2.2v1l2-0.5l2.2-0.7l2.2-1.4L125.4,176.1z"/>
		<path class="st2" d="M142.8,176.2H141v-1.8h1.2l-0.4-0.4h-1.4l-1.4,0.7l-1.4,1.4l-0.7,1.4l-0.7,2.9v2.9l0.6,0.6h1.4l1.4-0.7
			l1.4-2.2l0.3,0.2l-1.5,2.2l-1.5,0.8h-1.6l0,0l-1.5-0.8l-0.8-1.5v-0.8l-0.4,0.9l-1.5,1.5l-1.5,0.8h-1.6l-0.8-0.8v-1.7h1.8v1.8H129
			l0.4,0.4h1.4l1.4-0.7l1.4-1.4l0.7-1.4l0.7-2.9v-2.9l-0.6-0.6h-1.4l-1.4,0.7l-1.4,2.2l-0.3-0.2l1.5-2.3l1.5-0.8h1.6l0,0l1.5,0.7
			l0.8,1.6v0.8l0.4-0.9l1.5-1.5l1.5-0.7h1.6l0.8,0.8V176.2z"/>
		<path class="st2" d="M153.8,174H151l-2.2,7.9v1.4l0.6,0.6h1.3l1.4-1.4l0.7-1.4l0.3,0.2l-0.7,1.5l-1.5,1.5h-1.6l-0.8-0.8l-0.8-1.5
			v-2.3l1.5-5.7h-2.8v-0.3h2.9l1.4-5.1h1.8l-1.4,5.1h2.7V174z"/>
	</g>
</g>
</svg>
