<?xml version="1.0" encoding="utf-8"?>
<!-- Generator: Adobe Illustrator 16.0.0, SVG Export Plug-In . SVG Version: 6.00 Build 0)  -->
<!DOCTYPE svg PUBLIC "-//W3C//DTD SVG 1.1//EN" "http://www.w3.org/Graphics/SVG/1.1/DTD/svg11.dtd">
<svg version="1.1" id="Layer_1" xmlns="http://www.w3.org/2000/svg" xmlns:xlink="http://www.w3.org/1999/xlink" x="0px" y="0px"
	 width="80px" height="80px" viewBox="0 0 80 80" enable-background="new 0 0 80 80" xml:space="preserve">
<g>
	<circle fill="#A88E5A" stroke="#A88E5A" stroke-width="2" stroke-miterlimit="10" cx="40.126" cy="29.487" r="27.278"/>
	<polygon fill="#546071" points="30.972,45.146 30.972,13.765 58.122,29.487 	"/>
</g>
<g>
	<g display="none">
		<path display="inline" fill="#394655" stroke="#394655" stroke-miterlimit="10" d="M14.933,70.15l-0.505,1.453l-0.947,0.945
			l-1.895,0.506h-3.22l-1.137,3.914l0.189,0.316l0.505,0.189h0.442v0.189H4.64v-0.189h0.442l0.631-0.189l0.379-0.379l2.399-8.461
			l-0.126-0.314l-0.505-0.191H7.418v-0.188h5.62l1.453,0.504l0.505,1.012v0.883H14.933z M13.733,70.15v-0.883l-0.442-0.885
			l-0.442-0.443h-2.273l-0.631,0.191L9.565,68.51l-1.2,4.293h3.157l0.884-0.441l0.884-0.885L13.733,70.15z"/>
		<path display="inline" fill="#394655" stroke="#394655" stroke-miterlimit="10" d="M23.331,72.549h-1.137v-1.137h0.758
			l-0.253-0.252h-0.884l-0.884,0.443l-0.884,0.885l-0.947,1.83l-0.947,3.346h-1.074l1.389-5.24v-0.82l-0.378-0.379h-0.821
			l-0.884,0.885l-0.442,0.883l-0.189-0.125l0.442-0.949l1.01-0.947h1.01l0.505,0.506l0.505,0.947v1.451l0.757-1.451l0.947-0.947
			l0.947-0.443h1.01l0.505,0.506v1.01H23.331z"/>
		<path display="inline" fill="#394655" stroke="#394655" stroke-miterlimit="10" d="M30.845,72.488l-0.505,1.01l-1.389,0.947
			l-1.389,0.504l-1.326,0.316v0.504l0.442,1.326l0.378,0.379h0.884l1.326-0.441l0.884-0.947l0.126,0.189l-0.947,0.947l-1.452,0.504
			H26.93l-0.947-0.504l-0.505-0.506l-0.505-1.451v-0.947l0.505-1.451l0.948-1.455l1.452-0.441h1.452l0.947,0.506L30.845,72.488z
			 M30.592,72.488l-0.442-0.822l-0.884-0.441H27.94l-0.884,0.885l-0.441,0.883l-0.442,1.389v0.631l1.263-0.314l1.389-0.443
			l1.389-0.883L30.592,72.488z"/>
		<path display="inline" fill="#394655" stroke="#394655" stroke-miterlimit="10" d="M40.189,72.928l-0.442,1.896L38.8,76.213
			l-0.947,0.947l-0.948,0.504h-0.947l-1.01-0.504l-0.505-0.947V74.76l0.947-2.336v-0.82l-0.378-0.379h-0.884l-0.884,0.885
			l-0.442,0.883l-0.189-0.125l0.442-0.949l1.01-0.947h1.011l0.505,0.506l0,0l0.442,0.947v1.451l-0.947,2.338v0.82l0.821,0.441h0.884
			l0.884-0.441l0.947-0.885l0.884-1.389l0.442-1.832v-0.439l-0.442-0.949v-0.568h0.694V72.928z"/>
		<path display="inline" fill="#394655" stroke="#394655" stroke-miterlimit="10" d="M47.262,75.77l-0.443,0.947l-0.945,0.947
			h-1.012l-0.504-0.504l0,0l-0.443-0.947V74.76l0.947-2.336v-0.82l-0.379-0.379h-0.82l-0.883,0.885l-0.443,0.883l-0.189-0.125
			l0.442-0.949l1.011-0.947h1.01l0.506,0.506l0.504,0.947v1.451l-0.945,2.338v0.883l0.379,0.379h0.82l0.883-0.885l0.441-0.883
			L47.262,75.77z M46.377,67.752l-0.566,1.137h-1.137l0.566-1.137H46.377z"/>
		<path display="inline" fill="#394655" stroke="#394655" stroke-miterlimit="10" d="M55.66,74.318l-0.443,1.451l-0.945,1.453
			l-1.391,0.504H51.43l-1.391-0.441l-0.506-0.504l-0.504-1.453v-0.947l0.504-1.453l0.949-1.451l1.389-0.443h1.453l1.387,0.443
			l0.506,0.506l0.443,1.451V74.318z M54.523,74.318v-1.326l-0.441-1.326l-0.885-0.441h-1.326l-0.883,0.885l-0.885,2.271v1.326
			l0.441,1.326l0.885,0.441h1.324l0.885-0.885L54.523,74.318z"/>
		<path display="inline" fill="#394655" stroke="#394655" stroke-miterlimit="10" d="M67.846,75.77l-0.441,0.947l-1.01,0.947h-1.012
			l-0.441-0.316l-0.568-1.135v-1.074l-0.758,1.137l-0.947,0.947l-0.947,0.504h-0.947l-1.01-0.504l-0.441-0.947V74.76l0.945-2.336
			v-0.82l-0.377-0.379h-0.822l-0.883,0.885l-0.443,0.883l-0.189-0.125l0.443-0.949l1.01-0.947h1.012l0.504,0.506l0.504,0.947v1.451
			l-0.945,2.338v0.82l0.82,0.441h0.883l0.885-0.441l0.947-0.885L64.5,74.76l0.947-3.789h1.135l-1.387,5.242v0.883l0.379,0.379h0.82
			l0.883-0.885l0.441-0.883L67.846,75.77z"/>
		<path display="inline" fill="#394655" stroke="#394655" stroke-miterlimit="10" d="M75.359,73.055h-1.135v-1.137h0.756
			l-0.252-0.252l-1.326-0.441h-1.389l-1.326,0.441l-0.252,0.758l0.252,0.504l0.885,0.443l1.389,0.441l0.947,0.506l0.504,1.01v0.885
			l-0.504,1.072l-1.453,0.506h-1.451l-1.453-0.506l-0.506-0.504v-1.074h1.137v1.137h-0.758l0.252,0.252l1.328,0.443h1.389
			l1.326-0.443l0.314-1.135l-0.252-0.57l-0.885-0.441l-1.389-0.443l-0.947-0.504l-0.504-0.947v-1.01l0.504-0.506l1.453-0.441h1.389
			l1.451,0.441l0.506,0.506V73.055z"/>
	</g>
</g>
<g>
	<g>
		<path fill="#394655" stroke="#394655" stroke-miterlimit="10" d="M33.06,67.686h-0.463l-0.925,0.463l-2.908,9.715h-0.198
			l-3.172-9.518l-0.198-0.197l-2.71,9.055l0.859,0.396h0.462v0.198h-2.908v-0.132h0.462l0.925-0.463l2.776-9.254l-0.066-0.065
			l-0.661-0.198h-0.462v-0.199h2.511l2.776,8.395l2.313-7.732l-0.859-0.396h-0.463v-0.199h2.908V67.686z"/>
		<path fill="#394655" stroke="#394655" stroke-miterlimit="10" d="M40.595,72.443l-0.529,1.059l-1.454,0.991l-1.454,0.528
			l-1.388,0.33v0.529l0.462,1.389l0.396,0.396h0.926l1.389-0.463l0.925-0.992L40,76.41l-0.991,0.99l-1.521,0.529h-0.99L35.505,77.4
			l-0.529-0.528l-0.529-1.521v-0.99l0.529-1.521l0.992-1.521l1.52-0.463h1.521L40,71.387L40.595,72.443z M40.33,72.443l-0.462-0.858
			l-0.925-0.463h-1.389l-0.926,0.925l-0.462,0.926l-0.463,1.454v0.661l1.321-0.33l1.455-0.463l1.453-0.926L40.33,72.443z"/>
		<path fill="#394655" stroke="#394655" stroke-miterlimit="10" d="M51.83,72.51h-1.189V71.32h0.793l-0.264-0.264h-0.926
			l-0.926,0.462l-0.924,0.925l-0.463,0.926l-0.463,1.917v1.917l0.396,0.396h0.926l0.926-0.463l0.924-1.454l0.199,0.132l-0.992,1.455
			l-0.99,0.528h-1.059l0,0l-0.99-0.528l-0.529-0.992v-0.529l-0.266,0.596l-0.99,0.991l-0.992,0.528h-1.057l-0.529-0.528v-1.124
			h1.189V77.4h-0.926l0.266,0.266H43.9l0.924-0.463l0.926-0.926l0.463-0.926l0.463-1.916v-1.917l-0.396-0.396h-0.926l-0.926,0.463
			l-0.924,1.454l-0.199-0.133l0.992-1.52l0.99-0.529h1.059l0,0l0.99,0.463l0.529,1.058v0.528l0.264-0.594l0.992-0.992l0.992-0.463
			h1.057l0.529,0.529v1.123H51.83z"/>
		<path fill="#394655" stroke="#394655" stroke-miterlimit="10" d="M59.102,71.057H57.25l-1.453,5.221v0.926l0.396,0.396h0.859
			l0.926-0.926l0.461-0.926l0.199,0.133l-0.463,0.991l-0.992,0.991h-1.057l-0.529-0.528l-0.527-0.991v-1.521l0.99-3.767h-1.85
			v-0.199h1.916l0.926-3.371h1.189l-0.926,3.371h1.785V71.057z"/>
	</g>
</g>
</svg>
