<?xml version="1.0" encoding="utf-8"?>
<!-- Generator: Adobe Illustrator 23.0.1, SVG Export Plug-In . SVG Version: 6.00 Build 0)  -->
<svg version="1.1" id="Layer_1" xmlns="http://www.w3.org/2000/svg" xmlns:xlink="http://www.w3.org/1999/xlink" x="0px" y="0px"
	 viewBox="0 0 237.5 302.6" style="enable-background:new 0 0 237.5 302.6;" xml:space="preserve">
<style type="text/css">
	.st0{fill:#A88E5A;stroke:#A88E5A;stroke-width:2;stroke-miterlimit:10;}
	.st1{fill:#546071;}
	.st2{fill:#394655;stroke:#394655;stroke-miterlimit:10;}
</style>
<g>
	<circle class="st0" cx="120.5" cy="102.3" r="43.2"/>
	<polygon class="st1" points="92,102.3 135,77.4 135,127.1 	"/>
</g>
<g>
	<g>
		<path class="st2" d="M80.6,166.7l-0.8,2.3l-1.5,1.5l-3,0.8h-5.1l-1.8,6.2l0.3,0.5l0.8,0.3h0.7v0.3h-5.9v-0.3h0.7l1-0.3l0.6-0.6
			l3.8-13.4l-0.2-0.5l-0.8-0.3h-0.7v-0.3h8.9l2.3,0.8l0.8,1.6V166.7z M78.7,166.7v-1.4l-0.7-1.4l-0.7-0.7h-3.6l-1,0.3l-0.6,0.6
			l-1.9,6.8h5l1.4-0.7l1.4-1.4L78.7,166.7z"/>
		<path class="st2" d="M93.9,170.5h-1.8v-1.8h1.2l-0.4-0.4h-1.4l-1.4,0.7l-1.4,1.4l-1.5,2.9l-1.5,5.3H84l2.2-8.3V169l-0.6-0.6h-1.3
			l-1.4,1.4l-0.7,1.4l-0.3-0.2l0.7-1.5l1.6-1.5h1.6l0.8,0.8l0.8,1.5v2.3l1.2-2.3l1.5-1.5l1.5-0.7h1.6l0.8,0.8V170.5z"/>
		<path class="st2" d="M105.8,170.4L105,172l-2.2,1.5l-2.2,0.8l-2.1,0.5v0.8l0.7,2.1l0.6,0.6h1.4l2.1-0.7l1.4-1.5l0.2,0.3l-1.5,1.5
			l-2.3,0.8h-1.5l-1.5-0.8l-0.8-0.8l-0.8-2.3v-1.5l0.8-2.3l1.5-2.3l2.3-0.7h2.3l1.5,0.8L105.8,170.4z M105.4,170.4l-0.7-1.3
			l-1.4-0.7h-2.1l-1.4,1.4l-0.7,1.4l-0.7,2.2v1l2-0.5l2.2-0.7l2.2-1.4L105.4,170.4z"/>
		<path class="st2" d="M120.6,171.1l-0.7,3l-1.5,2.2l-1.5,1.5l-1.5,0.8h-1.5l-1.6-0.8l-0.8-1.5V174l1.5-3.7V169l-0.6-0.6H111
			l-1.4,1.4l-0.7,1.4l-0.3-0.2l0.7-1.5l1.6-1.5h1.6l0.8,0.8v0l0.7,1.5v2.3l-1.5,3.7v1.3l1.3,0.7h1.4l1.4-0.7l1.5-1.4l1.4-2.2
			l0.7-2.9v-0.7l-0.7-1.5V168h1.1V171.1z"/>
		<path class="st2" d="M131.8,175.6l-0.7,1.5l-1.5,1.5h-1.6l-0.8-0.8v0l-0.7-1.5V174l1.5-3.7V169l-0.6-0.6h-1.3l-1.4,1.4l-0.7,1.4
			l-0.3-0.2l0.7-1.5l1.6-1.5h1.6l0.8,0.8l0.8,1.5v2.3l-1.5,3.7v1.4l0.6,0.6h1.3l1.4-1.4l0.7-1.4L131.8,175.6z M130.4,162.9l-0.9,1.8
			h-1.8l0.9-1.8H130.4z"/>
		<path class="st2" d="M145.1,173.3l-0.7,2.3l-1.5,2.3l-2.2,0.8l-2.3,0l-2.2-0.7l-0.8-0.8l-0.8-2.3v-1.5l0.8-2.3l1.5-2.3l2.2-0.7
			l2.3,0l2.2,0.7l0.8,0.8l0.7,2.3V173.3z M143.3,173.3v-2.1l-0.7-2.1l-1.4-0.7h-2.1l-1.4,1.4l-1.4,3.6v2.1l0.7,2.1l1.4,0.7h2.1
			l1.4-1.4L143.3,173.3z"/>
		<path class="st2" d="M164.4,175.6l-0.7,1.5l-1.6,1.5h-1.6l-0.7-0.5l-0.9-1.8v-1.7l-1.2,1.8l-1.5,1.5l-1.5,0.8h-1.5l-1.6-0.8
			l-0.7-1.5V174l1.5-3.7V169l-0.6-0.6h-1.3l-1.4,1.4l-0.7,1.4l-0.3-0.2l0.7-1.5l1.6-1.5h1.6l0.8,0.8l0.8,1.5v2.3l-1.5,3.7v1.3
			l1.3,0.7h1.4l1.4-0.7l1.5-1.4l1.4-2.2l1.5-6h1.8l-2.2,8.3v1.4l0.6,0.6h1.3l1.4-1.4l0.7-1.4L164.4,175.6z"/>
		<path class="st2" d="M176.3,171.3h-1.8v-1.8h1.2l-0.4-0.4l-2.1-0.7H171l-2.1,0.7l-0.4,1.2l0.4,0.8l1.4,0.7l2.2,0.7l1.5,0.8
			l0.8,1.6v1.4l-0.8,1.7l-2.3,0.8h-2.3l-2.3-0.8l-0.8-0.8v-1.7h1.8v1.8h-1.2l0.4,0.4l2.1,0.7h2.2l2.1-0.7l0.5-1.8l-0.4-0.9l-1.4-0.7
			l-2.2-0.7l-1.5-0.8l-0.8-1.5v-1.6l0.8-0.8l2.3-0.7h2.2l2.3,0.7l0.8,0.8V171.3z"/>
	</g>
</g>
</svg>
