<?xml version="1.0" encoding="utf-8"?>
<!-- Generator: Adobe Illustrator 16.0.0, SVG Export Plug-In . SVG Version: 6.00 Build 0)  -->
<!DOCTYPE svg PUBLIC "-//W3C//DTD SVG 1.1//EN" "http://www.w3.org/Graphics/SVG/1.1/DTD/svg11.dtd">
<svg version="1.1" id="Layer_1" xmlns="http://www.w3.org/2000/svg" xmlns:xlink="http://www.w3.org/1999/xlink" x="0px" y="0px"
	 width="80px" height="80px" viewBox="0 0 80 80" enable-background="new 0 0 80 80" xml:space="preserve">
<g>
	<g>
		<circle fill="#A88E5A" stroke="#A88E5A" stroke-width="2" stroke-miterlimit="10" cx="40.126" cy="29.487" r="27.277"/>
		<polygon fill="#546071" points="22.131,29.487 49.281,13.765 49.281,45.146 		"/>
	</g>
	<g>
		<g>
			<path fill="#394655" stroke="#394655" stroke-miterlimit="10" d="M14.933,70.15l-0.505,1.453l-0.947,0.945l-1.895,0.506h-3.22
				l-1.137,3.914l0.189,0.316l0.505,0.189h0.442v0.189H4.64v-0.189h0.442l0.631-0.189l0.379-0.379l2.399-8.461l-0.126-0.314
				l-0.505-0.191H7.418v-0.188h5.62l1.453,0.504l0.505,1.012v0.883H14.933z M13.733,70.15v-0.883l-0.442-0.885l-0.442-0.443h-2.273
				l-0.631,0.191L9.565,68.51l-1.2,4.293h3.157l0.884-0.441l0.884-0.885L13.733,70.15z"/>
			<path fill="#394655" stroke="#394655" stroke-miterlimit="10" d="M23.331,72.549h-1.137v-1.137h0.758l-0.253-0.252h-0.884
				l-0.884,0.443l-0.884,0.885l-0.947,1.83l-0.947,3.346h-1.074l1.389-5.24v-0.82l-0.378-0.379h-0.821l-0.884,0.885l-0.442,0.883
				l-0.189-0.125l0.442-0.949l1.01-0.947h1.01l0.505,0.506l0.505,0.947v1.451l0.757-1.451l0.947-0.947l0.947-0.443h1.01l0.505,0.506
				v1.01H23.331z"/>
			<path fill="#394655" stroke="#394655" stroke-miterlimit="10" d="M30.845,72.488l-0.505,1.01l-1.389,0.947l-1.389,0.504
				l-1.326,0.316v0.504l0.442,1.326l0.378,0.379h0.884l1.326-0.441l0.884-0.947l0.126,0.189l-0.947,0.947l-1.452,0.504H26.93
				l-0.947-0.504l-0.505-0.506l-0.505-1.451v-0.947l0.505-1.451l0.948-1.455l1.452-0.441h1.452l0.947,0.506L30.845,72.488z
				 M30.592,72.488l-0.442-0.822l-0.884-0.441H27.94l-0.884,0.885l-0.441,0.883l-0.442,1.389v0.631l1.263-0.314l1.389-0.443
				l1.389-0.883L30.592,72.488z"/>
			<path fill="#394655" stroke="#394655" stroke-miterlimit="10" d="M40.189,72.928l-0.442,1.896L38.8,76.213l-0.947,0.947
				l-0.948,0.504h-0.947l-1.01-0.504l-0.505-0.947V74.76l0.947-2.336v-0.82l-0.378-0.379h-0.884l-0.884,0.885l-0.442,0.883
				l-0.189-0.125l0.442-0.949l1.01-0.947h1.011l0.505,0.506l0,0l0.442,0.947v1.451l-0.947,2.338v0.82l0.821,0.441h0.884l0.884-0.441
				l0.947-0.885l0.884-1.389l0.442-1.832v-0.439l-0.442-0.949v-0.568h0.694V72.928z"/>
			<path fill="#394655" stroke="#394655" stroke-miterlimit="10" d="M47.262,75.77l-0.443,0.947l-0.945,0.947h-1.012l-0.504-0.504
				l0,0l-0.443-0.947V74.76l0.947-2.336v-0.82l-0.379-0.379h-0.82l-0.883,0.885l-0.443,0.883l-0.189-0.125l0.442-0.949l1.011-0.947
				h1.01l0.506,0.506l0.504,0.947v1.451l-0.945,2.338v0.883l0.379,0.379h0.82l0.883-0.885l0.441-0.883L47.262,75.77z M46.377,67.752
				l-0.566,1.137h-1.137l0.566-1.137H46.377z"/>
			<path fill="#394655" stroke="#394655" stroke-miterlimit="10" d="M55.66,74.318l-0.443,1.451l-0.945,1.453l-1.391,0.504H51.43
				l-1.391-0.441l-0.506-0.504l-0.504-1.453v-0.947l0.504-1.453l0.949-1.451l1.389-0.443h1.453l1.387,0.443l0.506,0.506l0.443,1.451
				V74.318z M54.523,74.318v-1.326l-0.441-1.326l-0.885-0.441h-1.326l-0.883,0.885l-0.885,2.271v1.326l0.441,1.326l0.885,0.441
				h1.324l0.885-0.885L54.523,74.318z"/>
			<path fill="#394655" stroke="#394655" stroke-miterlimit="10" d="M67.846,75.77l-0.441,0.947l-1.01,0.947h-1.012l-0.441-0.316
				l-0.568-1.135v-1.074l-0.758,1.137l-0.947,0.947l-0.947,0.504h-0.947l-1.01-0.504l-0.441-0.947V74.76l0.945-2.336v-0.82
				l-0.377-0.379h-0.822l-0.883,0.885l-0.443,0.883l-0.189-0.125l0.443-0.949l1.01-0.947h1.012l0.504,0.506l0.504,0.947v1.451
				l-0.945,2.338v0.82l0.82,0.441h0.883l0.885-0.441l0.947-0.885L64.5,74.76l0.947-3.789h1.135l-1.387,5.242v0.883l0.379,0.379h0.82
				l0.883-0.885l0.441-0.883L67.846,75.77z"/>
			<path fill="#394655" stroke="#394655" stroke-miterlimit="10" d="M75.359,73.055h-1.135v-1.137h0.756l-0.252-0.252l-1.326-0.441
				h-1.389l-1.326,0.441l-0.252,0.758l0.252,0.504l0.885,0.443l1.389,0.441l0.947,0.506l0.504,1.01v0.885l-0.504,1.072l-1.453,0.506
				h-1.451l-1.453-0.506l-0.506-0.504v-1.074h1.137v1.137h-0.758l0.252,0.252l1.328,0.443h1.389l1.326-0.443l0.314-1.135
				l-0.252-0.57l-0.885-0.441l-1.389-0.443l-0.947-0.504l-0.504-0.947v-1.01l0.504-0.506l1.453-0.441h1.389l1.451,0.441l0.506,0.506
				V73.055z"/>
		</g>
	</g>
</g>
</svg>
