<?xml version="1.0" encoding="utf-8"?>
<!-- Generator: Adobe Illustrator 23.0.1, SVG Export Plug-In . SVG Version: 6.00 Build 0)  -->
<svg version="1.1" id="Layer_1" xmlns="http://www.w3.org/2000/svg" xmlns:xlink="http://www.w3.org/1999/xlink" x="0px" y="0px"
	 viewBox="0 0 999.2 376.2" style="enable-background:new 0 0 999.2 376.2;" xml:space="preserve">
<style type="text/css">
	.st0{fill:#ECDFBC;stroke:#A88E5A;stroke-width:2;stroke-miterlimit:10;}
</style>
<path class="st0" d="M894.1,130.6c-19.4,0-37.3,3.1-51.6,8.2C827.3,116.6,792,101,750.9,101c-34.5,0-65,11-82.8,27.7
	c-7-25.6-39-45-77.5-45c-22.4,0-42.6,6.6-56.9,17.1c-18.5-10.7-41.9-17-67.3-17c-16.1,0-31.4,2.6-45.2,7.2
	c-14-24.2-44.2-42.7-80.7-46.4c-49.1-4.9-92.3,18.9-101.6,54.1c-10.2-3.3-21.3-5.1-33-5.1c-31.8,0-59.7,13.3-75.1,33.3
	c-9.9-2.9-20.9-4.5-32.6-4.5c-42.2,0-76.4,21.3-76.4,47.7c0,26.3,34.2,47.7,76.4,47.7c15.7,0,30.3-3,42.5-8
	c16.1,14,39.3,22.8,65.2,22.8c3.7,0,7.4-0.2,11-0.5c4.7,43.7,71.6,78.4,153.4,78.4c73.1,0,134.3-27.7,149.9-64.8
	c13.5,34.6,63.4,60.3,123,60.3c65.3,0,119.1-30.9,125.9-70.5c12.9,5,28,7.8,44.2,7.8c35.9,0,66.5-14,78.7-33.7c0.7,0,1.4,0,2.1,0
	c46.7,0,84.5-17.7,84.5-39.5S940.7,130.6,894.1,130.6z"/>
</svg>
