<?xml version="1.0" encoding="utf-8"?>
<!-- Generator: Adobe Illustrator 23.0.1, SVG Export Plug-In . SVG Version: 6.00 Build 0)  -->
<svg version="1.1" id="Layer_1" xmlns="http://www.w3.org/2000/svg" xmlns:xlink="http://www.w3.org/1999/xlink" x="0px" y="0px"
	 viewBox="0 0 418.5 165.5" style="enable-background:new 0 0 418.5 165.5;" xml:space="preserve">
<style type="text/css">
	.st0{fill:#ECDFBC;stroke:#A88E5A;stroke-width:2;stroke-miterlimit:10;}
</style>
<path class="st0" d="M366,98.7c-7.7,0-14.8-1.3-20.4-3.4c-6,9.2-19.9,15.6-36.2,15.6c-13.7,0-25.7-4.5-32.7-11.4
	c-2.8,10.6-15.4,18.6-30.6,18.6c-8.8,0-16.8-2.7-22.5-7.1c-7.3,4.4-16.6,7-26.6,7c-6.4,0-12.4-1.1-17.9-3
	c-5.5,10-17.5,17.6-31.9,19.1c-19.4,2-36.5-7.8-40.2-22.3c-4,1.3-8.4,2.1-13,2.1c-12.6,0-23.6-5.5-29.7-13.7
	c-3.9,1.2-8.3,1.9-12.9,1.9c-16.7,0-30.2-8.8-30.2-19.7c0-10.9,13.5-19.7,30.2-19.7c6.2,0,12,1.2,16.8,3.3
	c6.4-5.8,15.6-9.4,25.8-9.4c1.5,0,2.9,0.1,4.3,0.2c1.9-18,28.3-32.4,60.7-32.4c28.9,0,53.1,11.4,59.3,26.7
	c5.3-14.3,25.1-24.9,48.6-24.9c25.8,0,47.1,12.7,49.8,29.1c5.1-2,11.1-3.2,17.5-3.2c14.2,0,26.3,5.8,31.1,13.9c0.3,0,0.5,0,0.8,0
	c18.5,0,33.4,7.3,33.4,16.3C399.5,91.4,384.5,98.7,366,98.7z"/>
</svg>
