<?xml version="1.0" encoding="utf-8"?>
<!-- Generator: Adobe Illustrator 23.0.1, SVG Export Plug-In . SVG Version: 6.00 Build 0)  -->
<svg version="1.1" id="Layer_1" xmlns="http://www.w3.org/2000/svg" xmlns:xlink="http://www.w3.org/1999/xlink" x="0px" y="0px"
	 viewBox="0 0 357.8 302.6" style="enable-background:new 0 0 357.8 302.6;" xml:space="preserve">
<style type="text/css">
	.st0{fill:#546071;}
	.st1{fill:#FFFFFF;}
</style>
<path class="st0" d="M51.7,121.1c6.1,0,11.8,1.4,16.3,3.8c4.8-10.3,15.9-17.4,28.9-17.4c10.9,0,20.5,5.1,26.2,12.8
	c2.2-11.8,12.3-20.8,24.5-20.8c7.1,0,13.5,3,18,7.9c5.8-4.9,13.2-7.9,21.3-7.9c5.1,0,9.9,1.2,14.3,3.3c4.4-11.2,14-19.7,25.5-21.4
	c15.5-2.3,29.2,8.7,32.1,25c3.2-1.5,6.7-2.3,10.4-2.3c10,0,18.8,6.2,23.7,15.4c3.1-1.3,6.6-2.1,10.3-2.1c13.3,0,24.1,9.9,24.1,22
	c0,12.2-10.8,22-24.1,22c-5,0-9.6-1.4-13.4-3.7c-5.1,6.5-12.4,10.5-20.6,10.5c-1.2,0-2.3-0.1-3.5-0.2c-1.5,20.2-22.6,36.2-48.5,36.2
	c-23.1,0-42.4-12.8-47.4-29.9c-4.3,16-20,27.8-38.9,27.8c-20.6,0-37.6-14.2-39.8-32.5c-4.1,2.3-8.8,3.6-14,3.6
	c-11.3,0-21-6.5-24.9-15.6c-0.2,0-0.4,0-0.7,0c-14.7,0-26.7-8.2-26.7-18.2C25,129.3,37,121.1,51.7,121.1z"/>
<g>
	<g>
		<path class="st1" d="M114.2,135.4h3.2l-0.1,11.6l4.9-9.3l0.5-2.3h2.3l0.8,11.6l4.8-11.6h3.2l-7.1,16.2h-2.9l-0.8-10.3l-5.4,10.3
			h-3.1L114.2,135.4z"/>
		<path class="st1" d="M135.6,149h2.8l-0.5,2.5H135L135.6,149z"/>
		<path class="st1" d="M145.4,141.3c0.4-2.1,1.3-3.6,2.7-4.7c1.4-1.1,3.3-1.6,6-1.6c0.9,0,1.8,0.1,2.6,0.3h6.2l-0.7,2.6h-2.3
			c0.3,0.6,0.4,1.2,0.4,2c0,0.4-0.1,0.9-0.1,1.4l-2.2,10.3h-3.3l2.2-10.6c0.1-0.5,0.1-0.9,0.1-1.2c0-0.7-0.3-1.3-0.8-1.6
			s-1.4-0.5-2.7-0.5c-1.4,0-2.5,0.3-3.3,0.8c-0.8,0.5-1.3,1.4-1.5,2.5l-0.7,3.3c1-0.7,2.2-1.1,3.4-1.1h2l-0.4,2.6h-2.2
			c-1.2,0-2.3,0.3-3.3,1l-1,4.7h-3.3L145.4,141.3z"/>
		<path class="st1" d="M164.4,149h2.8l-0.5,2.5h-2.8L164.4,149z"/>
		<path class="st1" d="M171.8,149.9c0.7-1.1,1.6-2.1,2.6-3.1c1.1-0.9,2.3-2,3.9-3.1c1.4-1.1,2.5-1.9,3.1-2.4
			c0.6-0.5,1.1-1.1,1.4-1.6c0.3-0.5,0.6-1.2,0.8-1.9c0.1-0.5,0.1-0.8,0.1-1.1c0-0.7-0.3-1.2-0.8-1.6c-0.5-0.3-1.4-0.5-2.6-0.5
			c-1.5,0-3.1,0.3-4.8,0.9l0.6-2.9c0.8-0.2,1.6-0.4,2.6-0.6c1-0.1,1.9-0.2,2.8-0.2c1.7,0,3.1,0.4,4,1.2c0.9,0.8,1.4,1.9,1.4,3.3
			c0,0.5-0.1,1-0.1,1.4c-0.3,1.3-0.8,2.4-1.6,3.3c-0.8,0.9-2,2-3.5,3.1c-0.3,0.2-0.5,0.4-0.6,0.5c-1.2,0.9-2.2,1.6-3,2.3
			c-0.8,0.6-1.4,1.3-2,2h8.5l-0.5,2.5h-12.7L171.8,149.9z"/>
		<path class="st1" d="M191.5,151.6c-1-0.2-1.7-0.4-2.3-0.6l0.6-2.9c0.6,0.3,1.4,0.5,2.2,0.7c0.9,0.2,1.7,0.2,2.5,0.2
			c1.6,0,2.8-0.3,3.6-0.8c0.8-0.5,1.4-1.4,1.6-2.6c0.1-0.5,0.2-0.9,0.2-1.3c0-0.7-0.3-1.2-0.8-1.5c-0.5-0.3-1.4-0.5-2.5-0.5h-5.7
			l0.4-2l2.2-8.1h11l-0.8,2.5h-7.9l-1.4,5.1h3.3c1.8,0,3.2,0.4,4.1,1.1c0.9,0.7,1.4,1.8,1.4,3.2c0,0.5-0.1,1-0.2,1.6
			c-0.4,2-1.3,3.5-2.7,4.6c-1.4,1-3.4,1.6-6,1.6C193.4,151.9,192.5,151.8,191.5,151.6z"/>
		<path class="st1" d="M207,149.9c0.7-1.1,1.6-2.1,2.6-3.1c1.1-0.9,2.3-2,3.9-3.1c1.4-1.1,2.5-1.9,3.1-2.4c0.6-0.5,1.1-1.1,1.4-1.6
			c0.3-0.5,0.6-1.2,0.8-1.9c0.1-0.5,0.1-0.8,0.1-1.1c0-0.7-0.3-1.2-0.8-1.6c-0.5-0.3-1.4-0.5-2.6-0.5c-1.5,0-3.1,0.3-4.8,0.9
			l0.6-2.9c0.8-0.2,1.6-0.4,2.6-0.6c1-0.1,1.9-0.2,2.8-0.2c1.7,0,3.1,0.4,4,1.2c0.9,0.8,1.4,1.9,1.4,3.3c0,0.5-0.1,1-0.1,1.4
			c-0.3,1.3-0.8,2.4-1.6,3.3c-0.8,0.9-2,2-3.5,3.1c-0.3,0.2-0.5,0.4-0.6,0.5c-1.2,0.9-2.2,1.6-3,2.3c-0.8,0.6-1.4,1.3-2,2h8.5
			l-0.5,2.5h-12.7L207,149.9z"/>
		<path class="st1" d="M227.4,150.4c-1.1-1.1-1.7-2.7-1.7-4.9c0-1.1,0.1-2.2,0.4-3.4c0.5-2.3,1.1-4.2,2-5.6c0.8-1.5,1.9-2.6,3.4-3.4
			c1.4-0.8,3.2-1.2,5.4-1.2c2.3,0,4,0.5,5.1,1.6c1.1,1.1,1.6,2.7,1.6,4.8c0,1.1-0.1,2.4-0.5,3.8c-0.7,3.3-1.9,5.8-3.5,7.5
			c-1.6,1.7-4,2.5-7.1,2.5C230.2,152.1,228.5,151.5,227.4,150.4z M237.5,147.5c1.1-1.2,1.8-3,2.3-5.3c0.3-1.5,0.5-2.7,0.5-3.6
			c0-1.3-0.3-2.2-0.9-2.9c-0.6-0.6-1.7-0.9-3.1-0.9c-1.9,0-3.4,0.6-4.4,1.8s-1.8,3.1-2.3,5.6c-0.3,1.3-0.4,2.5-0.4,3.4
			c0,1.3,0.3,2.2,0.9,2.8c0.6,0.6,1.7,0.9,3.1,0.9C234.9,149.3,236.4,148.7,237.5,147.5z"/>
	</g>
</g>
</svg>
