<?xml version="1.0" encoding="utf-8"?>
<!-- Generator: Adobe Illustrator 16.0.0, SVG Export Plug-In . SVG Version: 6.00 Build 0)  -->
<!DOCTYPE svg PUBLIC "-//W3C//DTD SVG 1.1//EN" "http://www.w3.org/Graphics/SVG/1.1/DTD/svg11.dtd">
<svg version="1.1" id="Layer_1" xmlns="http://www.w3.org/2000/svg" xmlns:xlink="http://www.w3.org/1999/xlink" x="0px" y="0px"
	 width="200px" height="100px" viewBox="0 0 200 100" enable-background="new 0 0 200 100" xml:space="preserve">
<g>
	<g>
		<path fill="#FFFFFF" d="M59.756,45.746h2.111l-0.066,7.652l3.233-6.136l0.33-1.517h1.517l0.527,7.652l3.168-7.652h2.111
			l-4.685,10.688h-1.914l-0.526-6.796l-3.563,6.796h-2.045L59.756,45.746z"/>
		<path fill="#FFFFFF" d="M73.809,54.719h1.847l-0.329,1.648h-1.847L73.809,54.719z"/>
		<path fill="#FFFFFF" d="M80.274,49.637c0.263-1.383,0.857-2.375,1.781-3.1c0.924-0.727,2.177-1.057,3.958-1.057
			c0.594,0,1.188,0.067,1.716,0.2h4.09l-0.462,1.715h-1.583c0.198,0.395,0.263,0.791,0.263,1.317c0,0.266-0.064,0.592-0.064,0.924
			l-1.451,6.796h-2.179l1.452-6.995c0.066-0.33,0.066-0.592,0.066-0.79c0-0.462-0.198-0.858-0.528-1.057
			c-0.33-0.196-0.923-0.33-1.781-0.33c-0.923,0-1.649,0.198-2.177,0.528c-0.528,0.33-0.857,0.923-0.989,1.648l-0.462,2.176
			c0.66-0.461,1.451-0.724,2.243-0.724h1.319l-0.265,1.712h-1.386c-0.791,0-1.517,0.199-2.177,0.662L81,56.367h-2.178L80.274,49.637
			z"/>
		<path fill="#FFFFFF" d="M92.875,54.719h1.848l-0.33,1.648h-1.848L92.875,54.719z"/>
		<path fill="#FFFFFF" d="M97.757,55.313c0.462-0.729,1.056-1.387,1.716-2.047c0.726-0.594,1.518-1.32,2.573-2.045
			c0.924-0.725,1.649-1.253,2.044-1.583c0.396-0.332,0.728-0.725,0.925-1.057c0.196-0.328,0.395-0.79,0.528-1.25
			c0.065-0.332,0.065-0.529,0.065-0.728c0-0.462-0.199-0.792-0.529-1.055c-0.327-0.199-0.921-0.332-1.713-0.332
			c-0.988,0-2.047,0.199-3.168,0.594l0.396-1.912c0.528-0.133,1.056-0.266,1.717-0.396c0.659-0.066,1.252-0.133,1.848-0.133
			c1.119,0,2.044,0.264,2.638,0.792c0.593,0.528,0.923,1.254,0.923,2.178c0,0.33-0.066,0.659-0.066,0.924
			c-0.196,0.858-0.525,1.584-1.055,2.176c-0.528,0.595-1.32,1.32-2.311,2.047c-0.197,0.129-0.328,0.264-0.394,0.328
			c-0.791,0.594-1.453,1.057-1.98,1.518c-0.528,0.396-0.923,0.857-1.319,1.32h5.608l-0.33,1.65h-8.38L97.757,55.313z"/>
		<path fill="#FFFFFF" d="M110.754,56.434c-0.66-0.131-1.122-0.266-1.519-0.396l0.396-1.912c0.395,0.197,0.926,0.328,1.451,0.459
			c0.593,0.135,1.124,0.135,1.649,0.135c1.057,0,1.849-0.199,2.374-0.529c0.53-0.33,0.925-0.924,1.058-1.715
			c0.066-0.33,0.133-0.596,0.133-0.859c0-0.461-0.198-0.79-0.527-0.986c-0.33-0.2-0.925-0.332-1.65-0.332h-3.762l0.267-1.318
			l1.45-5.346h7.255l-0.525,1.649h-5.213l-0.924,3.366h2.178c1.187,0,2.111,0.264,2.703,0.723c0.595,0.464,0.925,1.189,0.925,2.115
			c0,0.328-0.066,0.658-0.133,1.055c-0.263,1.318-0.858,2.309-1.78,3.033c-0.923,0.66-2.243,1.057-3.959,1.057
			C112.008,56.631,111.35,56.564,110.754,56.434z"/>
		<path fill="#FFFFFF" d="M125.069,45.548l-2.108,0.329l0.393-1.78l4.357-0.661l-2.773,12.931h-2.109L125.069,45.548z"/>
		<path fill="#FFFFFF" d="M129.159,53.859c0-0.197,0-0.527,0.067-0.855c0.134-0.727,0.528-1.389,0.989-1.982
			c0.527-0.592,1.122-0.988,1.914-1.186c-0.463-0.198-0.859-0.464-1.056-0.856c-0.198-0.398-0.331-0.792-0.331-1.256
			c0-0.131,0-0.327,0.066-0.659c0.265-1.122,0.857-2.046,1.78-2.64c0.925-0.593,2.112-0.988,3.695-0.988
			c1.321,0,2.245,0.263,2.97,0.725c0.726,0.463,0.989,1.188,0.989,2.045c0,0.265-0.064,0.528-0.064,0.858
			c-0.134,0.659-0.463,1.252-0.858,1.714c-0.397,0.526-0.989,0.925-1.782,1.188c1.188,0.395,1.782,1.123,1.782,2.177
			c0,0.199-0.066,0.459-0.066,0.791c-0.265,1.254-0.857,2.113-1.782,2.771c-0.923,0.596-2.241,0.924-3.958,0.924
			C130.547,56.631,129.159,55.707,129.159,53.859z M136.155,54.453c0.526-0.328,0.922-0.857,1.055-1.518
			c0.064-0.197,0.064-0.395,0.064-0.527c0-0.395-0.131-0.725-0.394-0.988c-0.267-0.199-0.726-0.398-1.387-0.529l-1.518-0.33
			c-0.727,0.133-1.387,0.395-1.781,0.791c-0.461,0.332-0.725,0.859-0.925,1.52c-0.063,0.199-0.063,0.395-0.063,0.592
			c0,0.531,0.196,0.859,0.593,1.121c0.396,0.264,1.057,0.33,1.979,0.33C134.832,54.914,135.561,54.785,136.155,54.453z
			 M137.274,48.581c0.397-0.326,0.66-0.79,0.793-1.383c0.063-0.199,0.063-0.396,0.063-0.593c0-0.464-0.196-0.794-0.524-1.057
			c-0.332-0.199-0.925-0.332-1.717-0.332c-0.857,0-1.582,0.132-2.045,0.464c-0.528,0.328-0.858,0.791-0.988,1.517
			c-0.066,0.133-0.066,0.329-0.066,0.459c0,0.794,0.46,1.256,1.45,1.452l1.32,0.263C136.352,49.109,136.881,48.913,137.274,48.581z"
			/>
	</g>
</g>
<g>
	<path fill="#546071" d="M17.813,35.758c4.03,0,7.799,0.925,10.772,2.51C31.757,31.46,39.094,26.77,47.687,26.77
		c7.204,0,13.549,3.37,17.316,8.458c1.454-7.799,8.129-13.747,16.193-13.747c4.692,0,8.922,1.981,11.896,5.221
		c3.833-3.24,8.725-5.221,14.077-5.221c3.371,0,6.544,0.792,9.451,2.182c2.91-7.404,9.253-13.022,16.855-14.145
		c10.242-1.521,19.3,5.75,21.216,16.524c2.113-0.994,4.43-1.521,6.872-1.521c6.611,0,12.428,4.098,15.666,10.178
		c2.048-0.859,4.361-1.389,6.804-1.389c8.794,0,15.933,6.543,15.933,14.541c0,8.065-7.139,14.541-15.933,14.541
		c-3.304,0-6.345-0.925-8.854-2.445c-3.371,4.298-8.195,6.941-13.616,6.941c-0.79,0-1.521-0.067-2.313-0.132
		c-0.991,13.35-14.934,23.926-32.054,23.926c-15.267,0-28.025-8.462-31.329-19.763C93.027,81.496,82.65,89.295,70.159,89.295
		c-13.615,0-24.852-9.387-26.306-21.483c-2.71,1.522-5.816,2.38-9.253,2.38c-7.469,0-13.879-4.293-16.458-10.309
		c-0.132,0-0.264,0-0.463,0c-9.715,0-17.646-5.421-17.646-12.031C0.164,41.176,8.097,35.758,17.813,35.758z"/>
	<g>
		<g>
			<path fill="#FFFFFF" d="M59.121,45.208h2.115l-0.066,7.668l3.238-6.147l0.331-1.521h1.52l0.528,7.668l3.173-7.668h2.114
				l-4.692,10.708h-1.917l-0.528-6.809l-3.569,6.809h-2.049L59.121,45.208z"/>
			<path fill="#FFFFFF" d="M73.266,54.2h1.851l-0.332,1.652h-1.917L73.266,54.2z"/>
			<path fill="#FFFFFF" d="M79.741,49.108c0.266-1.389,0.859-2.378,1.786-3.106c0.924-0.725,2.181-1.057,3.964-1.057
				c0.595,0,1.19,0.065,1.719,0.197h4.097l-0.462,1.721h-1.519c0.198,0.396,0.264,0.792,0.264,1.32c0,0.264-0.066,0.595-0.066,0.925
				l-1.454,6.809h-2.181l1.454-7.006c0.066-0.331,0.066-0.596,0.066-0.793c0-0.463-0.197-0.859-0.527-1.057
				c-0.331-0.198-0.926-0.331-1.785-0.331c-0.926,0-1.653,0.197-2.181,0.528c-0.531,0.329-0.86,0.925-0.992,1.652l-0.462,2.179
				c0.66-0.461,1.454-0.727,2.247-0.727h1.323l-0.266,1.721h-1.454c-0.792,0-1.52,0.197-2.182,0.66l-0.66,3.108h-2.182
				L79.741,49.108z"/>
			<path fill="#FFFFFF" d="M92.299,54.2h1.851l-0.33,1.652h-1.851L92.299,54.2z"/>
			<path fill="#FFFFFF" d="M97.191,54.793c0.461-0.727,1.058-1.387,1.717-2.049c0.728-0.595,1.521-1.323,2.579-2.051
				c0.923-0.726,1.652-1.255,2.049-1.585s0.727-0.726,0.925-1.058c0.199-0.331,0.396-0.792,0.527-1.256
				c0.066-0.329,0.066-0.527,0.066-0.726c0-0.463-0.197-0.795-0.527-1.059c-0.331-0.197-0.926-0.33-1.718-0.33
				c-0.992,0-2.051,0.198-3.173,0.594l0.396-1.916c0.528-0.132,1.059-0.264,1.72-0.396c0.658-0.065,1.256-0.133,1.85-0.133
				c1.123,0,2.05,0.266,2.645,0.793c0.595,0.53,0.924,1.257,0.924,2.182c0,0.331-0.064,0.662-0.064,0.927
				c-0.199,0.857-0.531,1.585-1.059,2.181c-0.529,0.596-1.322,1.32-2.313,2.05c-0.198,0.129-0.332,0.263-0.398,0.328
				c-0.793,0.596-1.453,1.06-1.982,1.521c-0.528,0.397-0.925,0.86-1.321,1.322h5.619l-0.33,1.652h-8.395L97.191,54.793z"/>
			<path fill="#FFFFFF" d="M110.211,55.917c-0.66-0.134-1.126-0.266-1.52-0.396l0.394-1.916c0.399,0.194,0.927,0.329,1.456,0.462
				c0.596,0.134,1.124,0.134,1.652,0.134c1.057,0,1.849-0.2,2.38-0.531c0.528-0.331,0.925-0.925,1.058-1.717
				c0.065-0.331,0.131-0.599,0.131-0.862c0-0.461-0.197-0.792-0.528-0.99c-0.331-0.199-0.925-0.332-1.651-0.332h-3.768l0.263-1.321
				l1.454-5.353h7.271l-0.529,1.651h-5.221l-0.925,3.372h2.181c1.189,0,2.116,0.265,2.71,0.725c0.595,0.464,0.925,1.19,0.925,2.118
				c0,0.328-0.064,0.661-0.13,1.056c-0.267,1.321-0.86,2.315-1.785,3.042c-0.927,0.659-2.25,1.056-3.967,1.056
				C111.468,56.114,110.871,56.047,110.211,55.917z"/>
			<path fill="#FFFFFF" d="M120.455,54.793c0.462-0.727,1.057-1.387,1.72-2.049c0.726-0.595,1.519-1.323,2.574-2.051
				c0.926-0.726,1.653-1.255,2.052-1.585c0.396-0.33,0.728-0.726,0.925-1.058c0.197-0.331,0.396-0.792,0.528-1.256
				c0.065-0.329,0.065-0.527,0.065-0.726c0-0.463-0.198-0.795-0.525-1.059c-0.333-0.197-0.926-0.33-1.72-0.33
				c-0.992,0-2.051,0.198-3.174,0.594l0.396-1.916c0.53-0.132,1.059-0.264,1.719-0.396c0.659-0.065,1.255-0.133,1.853-0.133
				c1.122,0,2.046,0.266,2.643,0.793c0.595,0.53,0.925,1.257,0.925,2.182c0,0.331-0.067,0.662-0.067,0.927
				c-0.197,0.857-0.528,1.585-1.055,2.181c-0.531,0.596-1.323,1.32-2.315,2.05c-0.197,0.129-0.329,0.263-0.396,0.328
				c-0.793,0.596-1.453,1.06-1.981,1.521c-0.531,0.397-0.927,0.86-1.323,1.322h5.617l-0.328,1.652h-8.395L120.455,54.793z"/>
			<path fill="#FFFFFF" d="M133.938,55.125c-0.727-0.728-1.124-1.787-1.124-3.239c0-0.727,0.067-1.455,0.266-2.25
				c0.33-1.518,0.729-2.772,1.322-3.7c0.528-0.99,1.255-1.718,2.247-2.247c0.926-0.527,2.114-0.792,3.569-0.792
				c1.521,0,2.643,0.33,3.369,1.058c0.73,0.727,1.057,1.784,1.057,3.172c0,0.727-0.065,1.588-0.326,2.51
				c-0.467,2.184-1.26,3.836-2.313,4.959c-1.058,1.123-2.645,1.649-4.694,1.649C135.789,56.244,134.664,55.853,133.938,55.125z
				 M140.612,53.206c0.728-0.793,1.193-1.982,1.521-3.502c0.2-0.99,0.332-1.784,0.332-2.38c0-0.858-0.2-1.454-0.597-1.917
				c-0.396-0.396-1.122-0.594-2.047-0.594c-1.258,0-2.247,0.396-2.909,1.188c-0.66,0.793-1.19,2.049-1.52,3.702
				c-0.197,0.856-0.264,1.65-0.264,2.249c0,0.856,0.197,1.454,0.593,1.847c0.396,0.401,1.125,0.599,2.051,0.599
				C138.895,54.397,139.887,54,140.612,53.206z"/>
		</g>
	</g>
</g>
</svg>
