<?xml version="1.0" encoding="utf-8"?>
<!-- Generator: Adobe Illustrator 16.0.0, SVG Export Plug-In . SVG Version: 6.00 Build 0)  -->
<!DOCTYPE svg PUBLIC "-//W3C//DTD SVG 1.1//EN" "http://www.w3.org/Graphics/SVG/1.1/DTD/svg11.dtd">
<svg version="1.1" id="Layer_1" xmlns="http://www.w3.org/2000/svg" xmlns:xlink="http://www.w3.org/1999/xlink" x="0px" y="0px"
	 width="200px" height="100px" viewBox="0 0 200 100" enable-background="new 0 0 200 100" xml:space="preserve">
<g>
	<path fill="#546071" d="M17.722,36.979c4.032,0,7.799,0.925,10.773,2.512c3.172-6.742,10.575-11.5,19.167-11.5
		c7.205,0,13.549,3.371,17.317,8.46c1.454-7.799,8.129-13.748,16.193-13.748c4.693,0,8.923,1.983,11.897,5.222
		c3.833-3.239,8.724-5.222,14.078-5.222c3.371,0,6.543,0.793,9.451,2.181c2.908-7.402,9.254-13.021,16.854-14.144
		c10.245-1.52,19.3,5.75,21.216,16.523c2.115-0.991,4.429-1.52,6.874-1.52c6.609,0,12.426,4.098,15.664,10.178
		c2.049-0.859,4.362-1.388,6.808-1.388c8.791,0,15.929,6.543,15.929,14.541c0,8.064-7.138,14.541-15.929,14.541
		c-3.305,0-6.345-0.926-8.856-2.445c-3.37,4.296-8.195,6.939-13.615,6.939c-0.793,0-1.521-0.066-2.313-0.132
		c-0.991,13.351-14.938,23.926-32.055,23.926c-15.269,0-28.024-8.46-31.329-19.762c-2.842,10.575-13.219,18.374-25.71,18.374
		c-13.615,0-24.852-9.385-26.306-21.48c-2.709,1.52-5.816,2.379-9.253,2.379c-7.469,0-13.88-4.296-16.458-10.311
		c-0.132,0-0.264,0-0.462,0c-9.716,0-17.647-5.42-17.647-12.029C0.075,42.399,8.006,36.979,17.722,36.979z"/>
</g>
<g>
	<g>
		<path fill="#FFFFFF" d="M58.634,47.092h2.115l-0.066,7.667l3.239-6.147l0.331-1.52h1.52l0.529,7.667l3.172-7.667h2.115
			l-4.693,10.707h-1.917l-0.529-6.808l-3.569,6.808h-2.049L58.634,47.092z"/>
		<path fill="#FFFFFF" d="M72.712,56.08h1.851l-0.331,1.652h-1.851L72.712,56.08z"/>
		<path fill="#FFFFFF" d="M79.189,50.991c0.265-1.388,0.859-2.379,1.785-3.106c0.925-0.727,2.181-1.057,3.965-1.057
			c0.595,0,1.19,0.066,1.719,0.198h4.098l-0.462,1.718h-1.521c0.198,0.396,0.265,0.793,0.265,1.322c0,0.265-0.066,0.595-0.066,0.925
			l-1.454,6.808h-2.181l1.454-7.006c0.066-0.33,0.066-0.595,0.066-0.793c0-0.463-0.198-0.859-0.529-1.058s-0.925-0.331-1.785-0.331
			c-0.925,0-1.652,0.199-2.181,0.529c-0.528,0.331-0.859,0.925-0.991,1.652l-0.463,2.182c0.661-0.463,1.454-0.728,2.248-0.728h1.322
			l-0.265,1.719h-1.454c-0.793,0-1.521,0.198-2.181,0.661l-0.661,3.105h-2.181L79.189,50.991z"/>
		<path fill="#FFFFFF" d="M91.813,56.08h1.851l-0.331,1.652h-1.851L91.813,56.08z"/>
		<path fill="#FFFFFF" d="M96.704,56.676c0.462-0.728,1.057-1.389,1.718-2.049c0.727-0.596,1.52-1.322,2.578-2.049
			c0.926-0.728,1.652-1.256,2.049-1.587c0.396-0.33,0.727-0.727,0.926-1.057c0.197-0.331,0.396-0.793,0.528-1.256
			c0.065-0.331,0.065-0.529,0.065-0.727c0-0.463-0.197-0.793-0.527-1.058c-0.331-0.198-0.926-0.331-1.719-0.331
			c-0.992,0-2.049,0.198-3.173,0.595l0.396-1.917c0.529-0.132,1.058-0.264,1.718-0.396c0.662-0.066,1.256-0.132,1.852-0.132
			c1.123,0,2.049,0.265,2.644,0.793c0.595,0.529,0.925,1.256,0.925,2.181c0,0.331-0.065,0.661-0.065,0.925
			c-0.198,0.859-0.528,1.586-1.058,2.181s-1.322,1.322-2.313,2.049c-0.198,0.133-0.331,0.265-0.396,0.33
			c-0.793,0.596-1.454,1.059-1.983,1.521c-0.529,0.397-0.925,0.859-1.322,1.322h5.618l-0.33,1.652h-8.395L96.704,56.676z"/>
		<path fill="#FFFFFF" d="M114.615,54.957h-6.411l0.331-1.52l8.459-8.46h1.918l-1.719,8.195h1.321l-0.396,1.719h-1.321l-0.596,2.776
			h-2.115L114.615,54.957z M115.342,53.305l1.256-5.816l-5.882,5.816H115.342z"/>
		<path fill="#FFFFFF" d="M121.555,57.535l0.396-1.852c0.728,0.331,1.719,0.463,2.776,0.463c1.19,0,2.115-0.264,2.776-0.793
			c0.727-0.529,1.123-1.322,1.322-2.313l0.197-0.794c-0.528,0.331-1.057,0.595-1.719,0.728c-0.66,0.197-1.189,0.264-1.718,0.264
			c-1.189,0-2.049-0.264-2.71-0.793c-0.66-0.529-0.926-1.256-0.926-2.247c0-0.264,0.066-0.661,0.133-1.124
			c0.595-2.842,2.512-4.296,5.75-4.296c1.256,0,2.247,0.33,2.975,0.925c0.727,0.595,0.991,1.454,0.991,2.578
			c0,0.462-0.066,0.925-0.198,1.454l-0.595,2.908c-0.397,1.719-1.124,3.04-2.247,3.966c-1.124,0.926-2.578,1.389-4.297,1.389
			C123.34,57.998,122.348,57.799,121.555,57.535z M127.834,51.322c0.529-0.199,1.058-0.396,1.521-0.728l0.33-1.388
			c0.066-0.331,0.132-0.661,0.132-0.992c0-0.595-0.197-1.057-0.528-1.388c-0.396-0.265-0.991-0.463-1.784-0.463
			c-1.058,0-1.785,0.198-2.313,0.661c-0.528,0.462-0.859,1.057-1.058,1.917c-0.066,0.331-0.133,0.661-0.133,0.925
			c0,0.529,0.199,0.992,0.529,1.255c0.33,0.265,0.926,0.396,1.785,0.396C126.776,51.586,127.305,51.52,127.834,51.322z"/>
		<path fill="#FFFFFF" d="M133.717,55.221c0-0.197,0-0.527,0.066-0.858c0.131-0.728,0.528-1.388,0.99-1.983
			c0.529-0.594,1.124-0.99,1.917-1.189c-0.462-0.198-0.858-0.463-1.058-0.859c-0.197-0.396-0.33-0.793-0.33-1.256
			c0-0.132,0-0.331,0.066-0.661c0.264-1.124,0.859-2.049,1.784-2.644s2.115-0.992,3.701-0.992c1.321,0,2.247,0.265,2.974,0.728
			c0.728,0.462,0.992,1.189,0.992,2.049c0,0.264-0.066,0.529-0.066,0.859c-0.132,0.661-0.463,1.256-0.859,1.719
			c-0.396,0.529-0.991,0.925-1.784,1.19c1.19,0.396,1.784,1.123,1.784,2.181c0,0.198-0.066,0.463-0.066,0.793
			c-0.264,1.256-0.858,2.115-1.783,2.776c-0.926,0.595-2.248,0.926-3.967,0.926C135.17,57.998,133.717,57.072,133.717,55.221z
			 M140.789,55.816c0.528-0.33,0.925-0.859,1.057-1.521c0.066-0.198,0.066-0.396,0.066-0.528c0-0.396-0.133-0.727-0.396-0.992
			c-0.265-0.197-0.727-0.396-1.389-0.528l-1.52-0.331c-0.727,0.133-1.389,0.397-1.785,0.794c-0.462,0.331-0.727,0.858-0.925,1.521
			c-0.065,0.197-0.065,0.396-0.065,0.594c0,0.529,0.197,0.859,0.594,1.124s1.059,0.331,1.983,0.331
			C139.4,56.279,140.193,56.146,140.789,55.816z M141.912,49.934c0.396-0.331,0.661-0.793,0.793-1.388
			c0.066-0.198,0.066-0.396,0.066-0.595c0-0.463-0.198-0.793-0.529-1.058c-0.33-0.198-0.925-0.331-1.719-0.331
			c-0.858,0-1.586,0.132-2.049,0.463c-0.528,0.331-0.858,0.793-0.99,1.52c-0.066,0.132-0.066,0.331-0.066,0.463
			c0,0.793,0.463,1.255,1.453,1.454l1.322,0.264C140.921,50.463,141.516,50.198,141.912,49.934z"/>
	</g>
</g>
</svg>
