<?xml version="1.0" encoding="utf-8"?>
<!-- Generator: Adobe Illustrator 16.0.0, SVG Export Plug-In . SVG Version: 6.00 Build 0)  -->
<!DOCTYPE svg PUBLIC "-//W3C//DTD SVG 1.1//EN" "http://www.w3.org/Graphics/SVG/1.1/DTD/svg11.dtd">
<svg version="1.1" id="Layer_1" xmlns="http://www.w3.org/2000/svg" xmlns:xlink="http://www.w3.org/1999/xlink" x="0px" y="0px"
	 width="200px" height="100px" viewBox="0 0 200 100" enable-background="new 0 0 200 100" xml:space="preserve">
<path fill="#546071" d="M17.962,35.782c4.024,0,7.784,0.924,10.754,2.507c3.167-6.796,10.489-11.479,19.066-11.479
	c7.19,0,13.524,3.365,17.285,8.445c1.451-7.787,8.113-13.723,16.162-13.723c4.686,0,8.907,1.979,11.876,5.211
	c3.826-3.232,8.711-5.211,14.052-5.211c3.364,0,6.53,0.792,9.436,2.178c2.901-7.389,9.236-12.998,16.822-14.119
	c10.227-1.516,19.266,5.74,21.179,16.494c2.11-0.99,4.418-1.517,6.857-1.517c6.6,0,12.404,4.091,15.64,10.16
	c2.046-0.858,4.353-1.386,6.794-1.386c8.773,0,15.9,6.531,15.9,14.514c0,8.05-7.127,14.514-15.9,14.514
	c-3.299,0-6.333-0.924-8.84-2.44c-3.364,4.289-8.18,6.929-13.594,6.929c-0.79,0-1.516-0.067-2.307-0.134
	c-0.991,13.325-14.91,23.885-31.995,23.885c-15.242,0-27.975-8.447-31.273-19.728c-2.837,10.556-13.194,18.338-25.662,18.338
	c-13.592,0-24.808-9.366-26.259-21.44c-2.705,1.52-5.806,2.376-9.236,2.376c-7.455,0-13.854-4.287-16.427-10.292
	c-0.133,0-0.264,0-0.462,0c-9.698,0-17.615-5.409-17.615-12.007C0.348,41.192,8.197,35.782,17.962,35.782z"/>
<g>
	<g>
		<path fill="#FFFFFF" d="M59.756,45.746h2.111l-0.066,7.652l3.233-6.136l0.33-1.517h1.517l0.527,7.652l3.168-7.652h2.111
			l-4.685,10.688h-1.914l-0.526-6.796l-3.563,6.796h-2.045L59.756,45.746z"/>
		<path fill="#FFFFFF" d="M73.809,54.719h1.847l-0.329,1.648h-1.847L73.809,54.719z"/>
		<path fill="#FFFFFF" d="M80.274,49.637c0.263-1.383,0.857-2.375,1.781-3.1c0.924-0.727,2.177-1.057,3.958-1.057
			c0.594,0,1.188,0.067,1.716,0.2h4.09l-0.462,1.715h-1.583c0.198,0.395,0.263,0.791,0.263,1.317c0,0.266-0.064,0.592-0.064,0.924
			l-1.451,6.796h-2.179l1.452-6.995c0.066-0.33,0.066-0.592,0.066-0.79c0-0.462-0.198-0.858-0.528-1.057
			c-0.33-0.196-0.923-0.33-1.781-0.33c-0.923,0-1.649,0.198-2.177,0.528c-0.528,0.33-0.857,0.923-0.989,1.648l-0.462,2.176
			c0.66-0.461,1.451-0.724,2.243-0.724h1.319l-0.265,1.712h-1.386c-0.791,0-1.517,0.199-2.177,0.662L81,56.367h-2.178L80.274,49.637
			z"/>
		<path fill="#FFFFFF" d="M92.875,54.719h1.848l-0.33,1.648h-1.848L92.875,54.719z"/>
		<path fill="#FFFFFF" d="M97.757,55.313c0.462-0.729,1.056-1.387,1.716-2.047c0.726-0.594,1.518-1.32,2.573-2.045
			c0.924-0.725,1.649-1.253,2.044-1.583c0.396-0.332,0.728-0.725,0.925-1.057c0.196-0.328,0.395-0.79,0.528-1.25
			c0.065-0.332,0.065-0.529,0.065-0.728c0-0.462-0.199-0.792-0.529-1.055c-0.327-0.199-0.921-0.332-1.713-0.332
			c-0.988,0-2.047,0.199-3.168,0.594l0.396-1.912c0.528-0.133,1.056-0.266,1.717-0.396c0.659-0.066,1.252-0.133,1.848-0.133
			c1.119,0,2.044,0.264,2.638,0.792c0.593,0.528,0.923,1.254,0.923,2.178c0,0.33-0.066,0.659-0.066,0.924
			c-0.196,0.858-0.525,1.584-1.055,2.176c-0.528,0.595-1.32,1.32-2.311,2.047c-0.197,0.129-0.328,0.264-0.394,0.328
			c-0.791,0.594-1.453,1.057-1.98,1.518c-0.528,0.396-0.923,0.857-1.319,1.32h5.608l-0.33,1.65h-8.38L97.757,55.313z"/>
		<path fill="#FFFFFF" d="M110.754,56.434c-0.66-0.131-1.122-0.266-1.519-0.396l0.396-1.912c0.395,0.197,0.926,0.328,1.451,0.459
			c0.593,0.135,1.124,0.135,1.649,0.135c1.057,0,1.849-0.199,2.374-0.529c0.53-0.33,0.925-0.924,1.058-1.715
			c0.066-0.33,0.133-0.596,0.133-0.859c0-0.461-0.198-0.79-0.527-0.986c-0.33-0.2-0.925-0.332-1.65-0.332h-3.762l0.267-1.318
			l1.45-5.346h7.255l-0.525,1.649h-5.213l-0.924,3.366h2.178c1.187,0,2.111,0.264,2.703,0.723c0.595,0.464,0.925,1.189,0.925,2.115
			c0,0.328-0.066,0.658-0.133,1.055c-0.263,1.318-0.858,2.309-1.78,3.033c-0.923,0.66-2.243,1.057-3.959,1.057
			C112.008,56.631,111.35,56.564,110.754,56.434z"/>
		<path fill="#FFFFFF" d="M125.069,45.548l-2.108,0.329l0.393-1.78l4.357-0.661l-2.773,12.931h-2.109L125.069,45.548z"/>
		<path fill="#FFFFFF" d="M129.159,53.859c0-0.197,0-0.527,0.067-0.855c0.134-0.727,0.528-1.389,0.989-1.982
			c0.527-0.592,1.122-0.988,1.914-1.186c-0.463-0.198-0.859-0.464-1.056-0.856c-0.198-0.398-0.331-0.792-0.331-1.256
			c0-0.131,0-0.327,0.066-0.659c0.265-1.122,0.857-2.046,1.78-2.64c0.925-0.593,2.112-0.988,3.695-0.988
			c1.321,0,2.245,0.263,2.97,0.725c0.726,0.463,0.989,1.188,0.989,2.045c0,0.265-0.064,0.528-0.064,0.858
			c-0.134,0.659-0.463,1.252-0.858,1.714c-0.397,0.526-0.989,0.925-1.782,1.188c1.188,0.395,1.782,1.123,1.782,2.177
			c0,0.199-0.066,0.459-0.066,0.791c-0.265,1.254-0.857,2.113-1.782,2.771c-0.923,0.596-2.241,0.924-3.958,0.924
			C130.547,56.631,129.159,55.707,129.159,53.859z M136.155,54.453c0.526-0.328,0.922-0.857,1.055-1.518
			c0.064-0.197,0.064-0.395,0.064-0.527c0-0.395-0.131-0.725-0.394-0.988c-0.267-0.199-0.726-0.398-1.387-0.529l-1.518-0.33
			c-0.727,0.133-1.387,0.395-1.781,0.791c-0.461,0.332-0.725,0.859-0.925,1.52c-0.063,0.199-0.063,0.395-0.063,0.592
			c0,0.531,0.196,0.859,0.593,1.121c0.396,0.264,1.057,0.33,1.979,0.33C134.832,54.914,135.561,54.785,136.155,54.453z
			 M137.274,48.581c0.397-0.326,0.66-0.79,0.793-1.383c0.063-0.199,0.063-0.396,0.063-0.593c0-0.464-0.196-0.794-0.524-1.057
			c-0.332-0.199-0.925-0.332-1.717-0.332c-0.857,0-1.582,0.132-2.045,0.464c-0.528,0.328-0.858,0.791-0.988,1.517
			c-0.066,0.133-0.066,0.329-0.066,0.459c0,0.794,0.46,1.256,1.45,1.452l1.32,0.263C136.352,49.109,136.881,48.913,137.274,48.581z"
			/>
	</g>
</g>
</svg>
