<?xml version="1.0" encoding="utf-8"?>
<!-- Generator: Adobe Illustrator 23.0.1, SVG Export Plug-In . SVG Version: 6.00 Build 0)  -->
<svg version="1.1" id="Layer_1" xmlns="http://www.w3.org/2000/svg" xmlns:xlink="http://www.w3.org/1999/xlink" x="0px" y="0px"
	 viewBox="0 0 357.8 302.6" style="enable-background:new 0 0 357.8 302.6;" xml:space="preserve">
<style type="text/css">
	.st0{fill:#546071;}
	.st1{fill:#FFFFFF;}
</style>
<path class="st0" d="M41,122.4c6.1,0,11.8,1.4,16.3,3.8c4.8-10.3,15.9-17.4,28.9-17.4c10.9,0,20.5,5.1,26.2,12.8
	c2.2-11.8,12.3-20.8,24.5-20.8c7.1,0,13.5,3,18,7.9c5.8-4.9,13.2-7.9,21.3-7.9c5.1,0,9.9,1.2,14.3,3.3c4.4-11.2,14-19.7,25.5-21.4
	c15.5-2.3,29.2,8.7,32.1,25c3.2-1.5,6.7-2.3,10.4-2.3c10,0,18.8,6.2,23.7,15.4c3.1-1.3,6.6-2.1,10.3-2.1c13.3,0,24.1,9.9,24.1,22
	c0,12.2-10.8,22-24.1,22c-5,0-9.6-1.4-13.4-3.7c-5.1,6.5-12.4,10.5-20.6,10.5c-1.2,0-2.3-0.1-3.5-0.2c-1.5,20.2-22.6,36.2-48.5,36.2
	c-23.1,0-42.4-12.8-47.4-29.9c-4.3,16-20,27.8-38.9,27.8c-20.6,0-37.6-14.2-39.8-32.5c-4.1,2.3-8.8,3.6-14,3.6
	c-11.3,0-21-6.5-24.9-15.6c-0.2,0-0.4,0-0.7,0c-14.7,0-26.7-8.2-26.7-18.2C14.3,130.6,26.2,122.4,41,122.4z"/>
<g>
	<g>
		<path class="st1" d="M103.5,136.7h3.2l-0.1,11.6l4.9-9.3l0.5-2.3h2.3l0.8,11.6l4.8-11.6h3.2l-7.1,16.2h-2.9l-0.8-10.3l-5.4,10.3
			h-3.1L103.5,136.7z"/>
		<path class="st1" d="M124.8,150.3h2.8l-0.5,2.5h-2.8L124.8,150.3z"/>
		<path class="st1" d="M134.6,142.6c0.4-2.1,1.3-3.6,2.7-4.7c1.4-1.1,3.3-1.6,6-1.6c0.9,0,1.8,0.1,2.6,0.3h6.2l-0.7,2.6H149
			c0.3,0.6,0.4,1.2,0.4,2c0,0.4-0.1,0.9-0.1,1.4l-2.2,10.3h-3.3l2.2-10.6c0.1-0.5,0.1-0.9,0.1-1.2c0-0.7-0.3-1.3-0.8-1.6
			s-1.4-0.5-2.7-0.5c-1.4,0-2.5,0.3-3.3,0.8c-0.8,0.5-1.3,1.4-1.5,2.5l-0.7,3.3c1-0.7,2.2-1.1,3.4-1.1h2l-0.4,2.6H140
			c-1.2,0-2.3,0.3-3.3,1l-1,4.7h-3.3L134.6,142.6z"/>
		<path class="st1" d="M153.7,150.3h2.8l-0.5,2.5h-2.8L153.7,150.3z"/>
		<path class="st1" d="M161.1,151.2c0.7-1.1,1.6-2.1,2.6-3.1c1.1-0.9,2.3-2,3.9-3.1c1.4-1.1,2.5-1.9,3.1-2.4
			c0.6-0.5,1.1-1.1,1.4-1.6c0.3-0.5,0.6-1.2,0.8-1.9c0.1-0.5,0.1-0.8,0.1-1.1c0-0.7-0.3-1.2-0.8-1.6c-0.5-0.3-1.4-0.5-2.6-0.5
			c-1.5,0-3.1,0.3-4.8,0.9l0.6-2.9c0.8-0.2,1.6-0.4,2.6-0.6c1-0.1,1.9-0.2,2.8-0.2c1.7,0,3.1,0.4,4,1.2c0.9,0.8,1.4,1.9,1.4,3.3
			c0,0.5-0.1,1-0.1,1.4c-0.3,1.3-0.8,2.4-1.6,3.3c-0.8,0.9-2,2-3.5,3.1c-0.3,0.2-0.5,0.4-0.6,0.5c-1.2,0.9-2.2,1.6-3,2.3
			c-0.8,0.6-1.4,1.3-2,2h8.5l-0.5,2.5h-12.7L161.1,151.2z"/>
		<path class="st1" d="M180.8,152.9c-1-0.2-1.7-0.4-2.3-0.6l0.6-2.9c0.6,0.3,1.4,0.5,2.2,0.7c0.9,0.2,1.7,0.2,2.5,0.2
			c1.6,0,2.8-0.3,3.6-0.8c0.8-0.5,1.4-1.4,1.6-2.6c0.1-0.5,0.2-0.9,0.2-1.3c0-0.7-0.3-1.2-0.8-1.5c-0.5-0.3-1.4-0.5-2.5-0.5h-5.7
			l0.4-2l2.2-8.1h11l-0.8,2.5h-7.9l-1.4,5.1h3.3c1.8,0,3.2,0.4,4.1,1.1c0.9,0.7,1.4,1.8,1.4,3.2c0,0.5-0.1,1-0.2,1.6
			c-0.4,2-1.3,3.5-2.7,4.6c-1.4,1-3.4,1.6-6,1.6C182.7,153.2,181.7,153.1,180.8,152.9z"/>
		<path class="st1" d="M202.5,136.4l-3.2,0.5l0.6-2.7l6.6-1l-4.2,19.6h-3.2L202.5,136.4z"/>
		<path class="st1" d="M208.7,149c0-0.3,0-0.8,0.1-1.3c0.2-1.1,0.8-2.1,1.5-3c0.8-0.9,1.7-1.5,2.9-1.8c-0.7-0.3-1.3-0.7-1.6-1.3
			s-0.5-1.2-0.5-1.9c0-0.2,0-0.5,0.1-1c0.4-1.7,1.3-3.1,2.7-4s3.2-1.5,5.6-1.5c2,0,3.4,0.4,4.5,1.1s1.5,1.8,1.5,3.1
			c0,0.4-0.1,0.8-0.1,1.3c-0.2,1-0.7,1.9-1.3,2.6c-0.6,0.8-1.5,1.4-2.7,1.8c1.8,0.6,2.7,1.7,2.7,3.3c0,0.3-0.1,0.7-0.1,1.2
			c-0.4,1.9-1.3,3.2-2.7,4.2c-1.4,0.9-3.4,1.4-6,1.4C210.8,153.2,208.7,151.8,208.7,149z M219.3,149.9c0.8-0.5,1.4-1.3,1.6-2.3
			c0.1-0.3,0.1-0.6,0.1-0.8c0-0.6-0.2-1.1-0.6-1.5c-0.4-0.3-1.1-0.6-2.1-0.8l-2.3-0.5c-1.1,0.2-2.1,0.6-2.7,1.2
			c-0.7,0.5-1.1,1.3-1.4,2.3c-0.1,0.3-0.1,0.6-0.1,0.9c0,0.8,0.3,1.3,0.9,1.7c0.6,0.4,1.6,0.5,3,0.5
			C217.3,150.6,218.4,150.4,219.3,149.9z M221,141c0.6-0.5,1-1.2,1.2-2.1c0.1-0.3,0.1-0.6,0.1-0.9c0-0.7-0.3-1.2-0.8-1.6
			c-0.5-0.3-1.4-0.5-2.6-0.5c-1.3,0-2.4,0.2-3.1,0.7c-0.8,0.5-1.3,1.2-1.5,2.3c-0.1,0.2-0.1,0.5-0.1,0.7c0,1.2,0.7,1.9,2.2,2.2
			l2,0.4C219.6,141.8,220.4,141.5,221,141z"/>
	</g>
</g>
</svg>
