<?xml version="1.0" encoding="utf-8"?>
<!-- Generator: Adobe Illustrator 16.0.0, SVG Export Plug-In . SVG Version: 6.00 Build 0)  -->
<!DOCTYPE svg PUBLIC "-//W3C//DTD SVG 1.1//EN" "http://www.w3.org/Graphics/SVG/1.1/DTD/svg11.dtd">
<svg version="1.1" id="Layer_1" xmlns="http://www.w3.org/2000/svg" xmlns:xlink="http://www.w3.org/1999/xlink" x="0px" y="0px"
	 width="200px" height="100px" viewBox="0 0 200 100" enable-background="new 0 0 200 100" xml:space="preserve">
<path fill="#546071" d="M18.016,35.795c4.021,0,7.78,0.922,10.746,2.506c3.166-6.792,10.484-11.474,19.054-11.474
	c7.188,0,13.516,3.363,17.274,8.438c1.45-7.778,8.109-13.712,16.153-13.712c4.681,0,8.9,1.978,11.866,5.21
	c3.824-3.232,8.704-5.21,14.043-5.21c3.363,0,6.527,0.792,9.429,2.175c2.9-7.384,9.23-12.987,16.812-14.108
	c10.22-1.517,19.252,5.736,21.164,16.483c2.109-0.988,4.416-1.519,6.856-1.519c6.592,0,12.395,4.088,15.623,10.155
	c2.046-0.857,4.354-1.383,6.793-1.383c8.767,0,15.89,6.526,15.89,14.503c0,8.042-7.123,14.507-15.89,14.507
	c-3.297,0-6.328-0.925-8.834-2.44c-3.363,4.283-8.175,6.921-13.582,6.921c-0.792,0-1.516-0.067-2.308-0.132
	c-0.989,13.318-14.9,23.866-31.975,23.866c-15.232,0-27.954-8.437-31.253-19.713c-2.835,10.547-13.186,18.329-25.646,18.329
	c-13.58,0-24.789-9.364-26.239-21.428c-2.703,1.516-5.801,2.374-9.23,2.374c-7.45,0-13.846-4.287-16.416-10.283
	c-0.132,0-0.264,0-0.462,0c-9.691,0-17.603-5.41-17.603-12.001C0.413,41.199,8.325,35.795,18.016,35.795z"/>
<g>
	<g>
		<path fill="#FFFFFF" d="M60.541,45.747h2.108l-0.064,7.649l3.23-6.132l0.329-1.518h1.517l0.528,7.649l3.164-7.649h2.11
			l-4.681,10.681H66.87l-0.528-6.789l-3.56,6.789h-2.044L60.541,45.747z"/>
		<path fill="#FFFFFF" d="M74.649,54.713h1.845l-0.329,1.647H74.32L74.649,54.713z"/>
		<path fill="#FFFFFF" d="M81.111,49.639c0.264-1.388,0.857-2.374,1.78-3.101c0.923-0.725,2.176-1.054,3.956-1.054
			c0.593,0,1.186,0.066,1.714,0.196h4.087l-0.461,1.714H90.67c0.197,0.397,0.263,0.793,0.263,1.32c0,0.261-0.066,0.594-0.066,0.924
			l-1.45,6.789h-2.175l1.45-6.988c0.066-0.33,0.066-0.593,0.066-0.789c0-0.463-0.198-0.858-0.528-1.057
			c-0.329-0.199-0.922-0.329-1.779-0.329c-0.923,0-1.648,0.196-2.176,0.527c-0.527,0.328-0.856,0.923-0.989,1.647l-0.462,2.176
			c0.659-0.459,1.451-0.725,2.243-0.725h1.318l-0.264,1.714h-1.45c-0.792,0-1.517,0.199-2.176,0.658l-0.66,3.098H79.66
			L81.111,49.639z"/>
		<path fill="#FFFFFF" d="M93.704,54.713h1.846l-0.33,1.647h-1.846L93.704,54.713z"/>
		<path fill="#FFFFFF" d="M98.515,55.31c0.461-0.725,1.056-1.388,1.714-2.047c0.726-0.591,1.519-1.317,2.572-2.044
			c0.923-0.725,1.647-1.253,2.044-1.58c0.395-0.33,0.725-0.727,0.921-1.054c0.199-0.334,0.397-0.793,0.53-1.256
			c0.064-0.327,0.064-0.525,0.064-0.725c0-0.46-0.197-0.791-0.527-1.054c-0.331-0.197-0.924-0.33-1.715-0.33
			c-0.987,0-2.043,0.198-3.164,0.593l0.395-1.911c0.529-0.131,1.055-0.264,1.715-0.396c0.66-0.067,1.254-0.133,1.846-0.133
			c1.121,0,2.045,0.265,2.637,0.791c0.596,0.527,0.924,1.254,0.924,2.176c0,0.33-0.065,0.661-0.065,0.922
			c-0.2,0.857-0.525,1.584-1.056,2.177c-0.527,0.593-1.318,1.317-2.308,2.042c-0.196,0.134-0.329,0.266-0.394,0.332
			c-0.793,0.593-1.451,1.057-1.979,1.516c-0.527,0.397-0.921,0.858-1.319,1.323h5.605l-0.33,1.646h-8.308L98.515,55.31z"/>
		<path fill="#FFFFFF" d="M111.503,56.428c-0.659-0.13-1.117-0.26-1.516-0.394l0.398-1.913c0.392,0.198,0.919,0.33,1.448,0.464
			c0.593,0.128,1.119,0.128,1.648,0.128c1.055,0,1.847-0.195,2.373-0.525c0.528-0.327,0.922-0.925,1.056-1.717
			c0.066-0.324,0.13-0.59,0.13-0.855c0-0.459-0.196-0.792-0.527-0.989c-0.328-0.196-0.922-0.328-1.648-0.328h-3.756l0.263-1.322
			l1.452-5.337h7.25l-0.526,1.648h-5.208l-0.923,3.363h2.175c1.186,0,2.109,0.262,2.702,0.725c0.595,0.459,0.924,1.185,0.924,2.106
			c0,0.332-0.066,0.665-0.133,1.057c-0.263,1.322-0.857,2.307-1.78,3.031c-0.921,0.662-2.24,1.057-3.955,1.057
			C112.757,56.626,112.163,56.56,111.503,56.428z"/>
		<path fill="#FFFFFF" d="M125.877,45.551l-2.11,0.328l0.396-1.78l4.352-0.659l-2.771,12.921h-2.11L125.877,45.551z"/>
		<path fill="#FFFFFF" d="M129.503,55.31c0.462-0.725,1.054-1.388,1.715-2.047c0.725-0.591,1.516-1.317,2.568-2.044
			c0.925-0.725,1.648-1.253,2.047-1.58c0.394-0.33,0.725-0.727,0.922-1.054c0.198-0.334,0.395-0.793,0.527-1.256
			c0.066-0.327,0.066-0.525,0.066-0.725c0-0.46-0.199-0.791-0.528-1.054c-0.328-0.197-0.921-0.33-1.713-0.33
			c-0.989,0-2.046,0.198-3.165,0.593l0.396-1.911c0.526-0.131,1.056-0.264,1.714-0.396c0.659-0.067,1.253-0.133,1.848-0.133
			c1.119,0,2.041,0.265,2.635,0.791c0.594,0.527,0.925,1.254,0.925,2.176c0,0.33-0.067,0.661-0.067,0.922
			c-0.196,0.857-0.527,1.584-1.054,2.177c-0.528,0.593-1.319,1.317-2.31,2.042c-0.195,0.134-0.328,0.266-0.395,0.332
			c-0.79,0.593-1.449,1.057-1.979,1.516c-0.527,0.397-0.922,0.858-1.317,1.323h5.603l-0.328,1.646h-8.307L129.503,55.31z"/>
	</g>
</g>
</svg>
