<?xml version="1.0" encoding="utf-8"?>
<!-- Generator: Adobe Illustrator 22.0.0, SVG Export Plug-In . SVG Version: 6.00 Build 0)  -->
<svg version="1.1" id="Layer_1" xmlns="http://www.w3.org/2000/svg" xmlns:xlink="http://www.w3.org/1999/xlink" x="0px" y="0px"
	 viewBox="0 0 170 190" style="enable-background:new 0 0 170 190;" xml:space="preserve">
<style type="text/css">
	.st0{fill:#AD9056;}
	.st1{fill:none;stroke:#ECDFBC;stroke-linecap:round;stroke-linejoin:round;stroke-miterlimit:10;}
	.st2{fill:none;stroke:#AD9056;stroke-miterlimit:10;}
</style>
<g>
	<path class="st0" d="M112.1,109.6c0,0-84.5,1-97.6-54.8S4.2,3.4,4.2,3.4S55.9,28.9,77.6,53s32.7,48.6,32.7,48.6L112.1,109.6z"/>
	<path class="st0" d="M136.6,124c0,0-16.2-19.8-15.9-39.5s5.9-16,6.5-28c0,0,21.7,24.9,20.7,43.5s-6.1,24.1-6.1,24.1h-5.2V124z"/>
	<path class="st0" d="M100.4,131.2c0,0-19.3,32.5-32.7,44S23.2,185.9,11.2,187c0,0,8.6-12.7,9-20.3c0.3-7.6,18.3-28.3,50.7-32.7
		C103.2,129.6,100.4,131.2,100.4,131.2z"/>
	<path class="st1" d="M117.6,114.4c0,0-37.9-22.9-45.8-29.9S43.9,62.7,31.1,42.4"/>
	<path class="st1" d="M50.1,79.9c0,0,18.3,18.3,52.2,25"/>
	<path class="st1" d="M38.4,167.1c0,0,22.8-21,36-25.9s23.3-8.6,33.3-8.3"/>
	<path class="st1" d="M134.4,96.2c0,0,3.3,32.3,13.6,38.9"/>
	<line class="st2" x1="109.7" y1="104.9" x2="167" y2="157.3"/>
	<line class="st2" x1="134.4" y1="120.3" x2="144.7" y2="136.9"/>
	<path class="st2" d="M97.3,130.7c0,0,23.5-2.9,43.1,2.3"/>
</g>
</svg>
