<?xml version="1.0" encoding="utf-8"?>
<!-- Generator: Adobe Illustrator 22.0.0, SVG Export Plug-In . SVG Version: 6.00 Build 0)  -->
<svg version="1.1" id="Layer_1" xmlns="http://www.w3.org/2000/svg" xmlns:xlink="http://www.w3.org/1999/xlink" x="0px" y="0px"
	 viewBox="0 0 220 180" style="enable-background:new 0 0 220 180;" xml:space="preserve">
<style type="text/css">
	.st0{fill:#AD9056;}
	.st1{fill:none;stroke:#AD9056;stroke-miterlimit:10;}
	.st2{fill:none;stroke:#ECDFBC;stroke-linecap:round;stroke-linejoin:round;stroke-miterlimit:10;}
</style>
<g>
	<g>
		<path class="st0" d="M88.5,109c0,0-20-2.9-13.5-25.1s32.7-66.1,52.1-69.9c0,0-4.1,20-4.1,27.7c0,0,7.5,66.2-27.6,69L88.5,109z"/>
		<path class="st0" d="M132.2,106.1c0,0,5.6-32.3,23.5-53.5s46.2-45.8,46.2-45.8s22-14.2,13.1,17c0,0-4.8,17-7.5,25.3
			s-4.1,17.4-25.4,30.9L132.2,106.1z"/>
		<path class="st0" d="M153.7,107.7c0,0,16.3-17.4,34.2-15.2l12.7,0.3c0,0-13,19.2-20,20.5C173.7,114.6,153.7,107.7,153.7,107.7z"/>
		<path class="st0" d="M103.9,150.4c2.2-0.3,22.8-23.6,60.3-9.2l27.7,15.3c0,0-43.5,33.1-72.2,12L103.9,150.4z"/>
		<path class="st1" d="M103.9,150.4c0,0-39.3-14.7-99.2,25.5"/>
		<path class="st1" d="M88.5,109c0,0-5.1,29.8-22.2,40.4"/>
		<path class="st1" d="M135.3,100.4c0,0-45.8,34.9-62,42.9"/>
		<path class="st1" d="M159.1,106.4c0,0-8-3.2-36.9,3.8"/>
	</g>
	<line class="st2" x1="197.9" y1="35.9" x2="194" y2="43"/>
	<path class="st2" d="M187.7,54.5c0,0-33.7,39.8-53.2,50.4"/>
	<line class="st2" x1="110.1" y1="39.2" x2="108.5" y2="42.1"/>
	<path class="st2" d="M104.8,48.7c0,0-21.7,47.7-14.5,61.3"/>
	<path class="st2" d="M105,83.5c0,0-15.6,15.1-16.1,20.3"/>
	<line class="st2" x1="106.3" y1="151.7" x2="145.9" y2="157.2"/>
	<path class="st2" d="M156.6,105c0,0,16.4,3.9,21.6,0.5"/>
</g>
</svg>
