<?xml version="1.0" encoding="utf-8"?>
<!-- Generator: Adobe Illustrator 22.0.0, SVG Export Plug-In . SVG Version: 6.00 Build 0)  -->
<svg version="1.1" id="Layer_1" xmlns="http://www.w3.org/2000/svg" xmlns:xlink="http://www.w3.org/1999/xlink" x="0px" y="0px"
	 viewBox="0 0 305 125" style="enable-background:new 0 0 305 125;" xml:space="preserve">
<style type="text/css">
	.st0{fill:#546071;}
	.st1{fill:#FFFFFF;}
</style>
<g>
	<path class="st0" d="M28.6,41c6.1,0,11.8,1.4,16.3,3.8c4.8-10.3,15.9-17.4,28.9-17.4c10.9,0,20.5,5.1,26.2,12.8
		c2.2-11.8,12.3-20.8,24.5-20.8c7.1,0,13.5,3,18,7.9c5.8-4.9,13.2-7.9,21.3-7.9c5.1,0,9.9,1.2,14.3,3.3c4.4-11.2,14-19.7,25.5-21.4
		c15.5-2.3,29.2,8.7,32.1,25c3.2-1.5,6.7-2.3,10.4-2.3c10,0,18.8,6.2,23.7,15.4c3.1-1.3,6.6-2.1,10.3-2.1c13.3,0,24.1,9.9,24.1,22
		c0,12.2-10.8,22-24.1,22c-5,0-9.6-1.4-13.4-3.7c-5.1,6.5-12.4,10.5-20.6,10.5c-1.2,0-2.3-0.1-3.5-0.2C241,108,219.9,124,194,124
		c-23.1,0-42.4-12.8-47.4-29.9c-4.3,16-20,27.8-38.9,27.8c-20.6,0-37.6-14.2-39.8-32.5c-4.1,2.3-8.8,3.6-14,3.6
		c-11.3,0-21-6.5-24.9-15.6c-0.2,0-0.4,0-0.7,0c-14.7,0-26.7-8.2-26.7-18.2S13.8,41,28.6,41z"/>
</g>
<g>
	<g>
		<path class="st1" d="M119,61.2c0-1.1,0.3-2,0.9-2.6c0.6-0.7,1.4-1,2.5-1h3.7l0.2,3h-1.9c-0.6,0-1,0.1-1.3,0.4s-0.4,0.7-0.4,1.4
			v9.4l4.8-8.2h1.6l4.8,8.2V57.6h3.7V77h-3.9l-5.4-9.6l-5.5,9.6H119V61.2z"/>
		<path class="st1" d="M150.5,75.9c-1.2-1-1.8-2.5-1.8-4.5c0-1.9,0.6-3.4,1.9-4.4s3.2-1.6,5.6-1.6h5.9v-1.2c0-1-0.2-1.7-0.5-2.3
			c-0.3-0.6-0.8-0.9-1.5-1.2c-0.7-0.2-1.7-0.4-3-0.4c-2.3,0-4.4,0.3-6.3,0.9v-3c1-0.3,2.1-0.6,3.3-0.8c1.2-0.2,2.5-0.3,3.7-0.3
			c2.8,0,4.9,0.6,6.3,1.8c1.3,1.2,2,3,2,5.6V77h-3.9v-8.6h-5.7c-1.4,0-2.4,0.2-3.1,0.7c-0.7,0.5-1,1.2-1,2.3c0,1,0.3,1.8,0.9,2.2
			c0.6,0.4,1.6,0.6,3,0.6c1,0,1.8-0.1,2.5-0.3v3c-1,0.3-2.2,0.4-3.5,0.4C153.4,77.4,151.8,76.9,150.5,75.9z"/>
		<path class="st1" d="M179.3,74.9c-1.4-1.6-2.2-4.1-2.2-7.4s0.8-5.8,2.5-7.6c1.7-1.8,4.2-2.7,7.4-2.7c2.1,0,3.9,0.4,5.3,1.1
			c1.4,0.7,2.4,1.7,3.1,2.9c0.7,1.2,1,2.5,1,3.9V77h-3.9V65.3c0-1.6-0.4-2.8-1.3-3.6c-0.9-0.9-2.3-1.3-4.2-1.3
			c-2.1,0-3.6,0.6-4.6,1.8c-1,1.2-1.5,3-1.5,5.4s0.4,4.1,1.2,5.1s2,1.5,3.7,1.5c1.1,0,1.9-0.1,2.5-0.3v3c-0.8,0.3-1.9,0.4-3.2,0.4
			C182.7,77.4,180.8,76.5,179.3,74.9z"/>
		<path class="st1" d="M181.6,51.9h11.6v-3h3.2v5.7h-15L181.6,51.9z"/>
	</g>
</g>
</svg>
