<?xml version="1.0" encoding="utf-8"?>
<!-- Generator: Adobe Illustrator 23.0.1, SVG Export Plug-In . SVG Version: 6.00 Build 0)  -->
<svg version="1.1" id="Layer_1" xmlns="http://www.w3.org/2000/svg" xmlns:xlink="http://www.w3.org/1999/xlink" x="0px" y="0px"
	 viewBox="0 0 1964.8 2031.8" style="enable-background:new 0 0 1964.8 2031.8;" xml:space="preserve">
<style type="text/css">
	.st0{fill:none;stroke:#546071;stroke-linecap:round;stroke-linejoin:round;stroke-miterlimit:10;}
	.st1{fill:#546071;}
	.st2{fill:none;stroke:#546071;stroke-miterlimit:10;}
</style>
<g>
	<path class="st0" d="M295.8,252.4v5c0,0-2.8,0.4-5.8,0.2c-1,0-2-0.1-2.9-0.3c-0.9-0.2-1.7-0.5-2.3-0.9c-3-2-14,10-14,10s-13-4-16-4
		c-3,0-8-9-8-9l-4-10l-8-3c0,0-11,1-15,3s-12-15-12-15s7.5,13.5,11.5,11.5s20-3,20-3l7,4c0,0,5,14,10,15c5,1,11-2,11-2s10-8,12-6
		s9,0,9,0h7c0,0-2-7-4-9s-19-5-19-5l-14-3l-7,3c0,0-9-5-14-9s-9-9-9-9"/>
	<polyline class="st0" points="223.3,215.9 219.3,226.9 216.3,232.9 214.8,238 	"/>
	<path class="st0" d="M287.3,256.9v6v10l5,4v8v7l-3,4l3,7c0,0-2,7-3,7s-1,5-2,7s-3,7-3,7l-4,4h-5c0,0-3,4-3,6s0,4,0,4h-7
		c0,0-1,4-4,3s-4-1-6,0c-2,1-4,5-4,5h-7c0,0-12,4-13,3s-12,0-12,0s-11-2-16,2s-11,5-10,2s0-3,0-3s-11,9,0,9s11-11,14-9s9,6,9,6
		s9-4,14-3s14-4,20-3c6,1,18-6,22-5s4,4,4,4l-6,6c0,0-7,8-8,8s-11,3-11,3s-5-1-8,3s-9,5-9,5l-7,2h-8c0,0,6,5,9,5s12-3,12-3l8-5
		c0,0,12-4,14-4s6-4,10-5s12-7,12-7l8-4l6-1l3,3l6-1c0,0,1,10,5,10s5-2,9,0s5,1,8,3s14,2,15,2s3,1,8,1s9,6,12,3s5-8,11-7s8,4,11,4
		s12-2,12-2h-11c0,0,2-4-9-5s-16-5-18-2s-10,2-10,2s-22-13-23-16s-6-9,0-13s0-15,0-15s-3-13-1-14s3-22,3-22l5-6l4-5l4-7l10-1
		c0,0,12-2,16-2s12-7,12-7s8-8,9-9s6-7,11-5s21,3,21,3l8-3h-12l-15-4h-9l-9,6l-11,10c0,0-5,7-6,4c-1-3-4-3-6-1c-2,2-5,3-5,3
		s-3-4-4-3c-1,1-5,2-5,2l-7-2c0,0-2-6,0-8s9-11,14-11s15-8,16-8s3-9,6-9s6-13,6-13s5-4,6-5s0-13,3-16s3-3,3-3s-5,1-7,7s-3,9-3,9
		l-7,8c0,0-3,2-3,4s-6,11-8,11s-11,5-11,5l-9,6l-10,8c0,0,5-26,6-27s5-6,7-9s3-12,6-14s8-10,10-14s3-34,3-34"/>
	<path class="st0" d="M350.3,121.9l3,15c0,0,2,8,5,11s3,2,4,8s3.6,19,3.6,19"/>
	<path class="st0" d="M343.3,137.9c0,1,3,6,9,8s6,3,6,3"/>
	<path class="st0" d="M364.4,167c0,0-2,19.9-14,21.9s-7,8-7,8l-4,8l-5,6l-5,8l-3,6c0,0-4,11-3,16s-2,12-2,12l-2,9l-5,8"/>
	<path class="st0" d="M262.3,123.9l8,5v7c0,0,7,4,7,8s-2,14,2,16s9,7,9,11s0,11,0,11l7,8l5,5c0,0,2,7,4,10s2,14,2,14s-3,5,0,8
		s8,14,8,14l-2,6c0,0-2,6-1,9"/>
	<line class="st0" x1="233.3" y1="209.9" x2="233.3" y2="221.4"/>
	<path class="st0" d="M253.6,232.9c0,0,1.7-5,5.7-4c4,1,13,2,13,2l8-2c0,0,6,2,14,0s12-2,12-2"/>
	<path class="st0" d="M223.3,261.9c0,0,6-5,8-4s4-2,4-2l2-10l3.2-3.4"/>
	<line class="st0" x1="282.3" y1="134.9" x2="277.3" y2="143.9"/>
	<line class="st0" x1="291.3" y1="160.9" x2="287.1" y2="167"/>
	<path class="st0" d="M302.3,121.9v9c0,0,6-2,7,4s2,9,2,9s2,2,0,5s-7,8-7,8l-6,7l-5,7l-5,11"/>
	<path class="st0" d="M309.3,139.9c0,0,6-3,8-5s3-6,3-6"/>
	<path class="st0" d="M289.3,177.9c0,0,4,9,8,12s14,10,15,16s5,13,5,13l3,8v8l3,1.6"/>
	<polyline class="st0" points="297.3,258.9 295.8,260 293.3,261.9 295.3,269.9 297.3,271.9 300.3,265.9 296.3,261.9 	"/>
	<path class="st0" d="M243.3,196.9v-4c0,0,6,1,8,2s7-3,9-2s8,7,9,8s16,16,18,18s5,2,9,2s9,4.5,9,4.5"/>
	<line class="st0" x1="248.3" y1="201.9" x2="258.3" y2="203.9"/>
	<path class="st0" d="M262.3,203.9c0,0,8.8-1.2,10.9,0.9c2.1,2.1,4.1,11.1,4.1,11.1s6,5,8,8s6,5.6,6,5.6"/>
	<path class="st0" d="M240.3,209.9c0,0-1,8-3,9"/>
	<path class="st0" d="M262.3,157.9c0,0,16,13,20,14"/>
	<path class="st0" d="M313.1,321.6c0,8.7,0.2,18.1,5.6,24.8c2.9,3.7,7.1,6.1,11.2,8.4c0,1.4,0.1,2.7,0.1,4.1c3.2,0.1,6.5,0.4,9.2,2
		c2.3,1.3,4,3.3,6.1,4.9c2.1,1.6,4.7,2.9,7.2,2.1"/>
	<path class="st0" d="M312,277.3c-0.6,1.9-1.2,3.9-1.8,5.8c-0.9,3-1.9,6.1-1.7,9.2c0.1,1.8,0.6,3.6,1,5.4c1.6,6.8,2,14.5-2.2,20.1"
		/>
	<path class="st0" d="M363.9,189.8c2.2-1.8,4.3-3.9,6-6.2"/>
	<path class="st0" d="M370.7,187.6c0,0.5,0,1,0,1.4"/>
	<path class="st0" d="M257.5,192.4c2.9-2.3,3.9-6.2,4-9.9c0.1-3.7-0.5-7.4,0-11c0.6,0,1.3,0,1.9,0"/>
	<path class="st0" d="M211.9,316.2c8.6-5.3,17.7-10.8,27.8-11.4c3.3-0.2,6.5,0.2,9.8,0.1c13.7-0.3,26.2-8.3,39.9-9.3"/>
	<path class="st0" d="M172.3,386.5c14.7,6.7,32.7,4.8,46.2,13.8c3.3,2.2,6.3,5,10,6.5c2.9,1.1,6,1.4,9,2.1
		c5.6,1.3,10.7,4.4,15.4,7.8c4.3,3.1,8.7,7,10,12.2c1.3,5.3-0.9,10.9-4.4,15.1s-8.2,7.1-12.8,10"/>
	<path class="st0" d="M180.8,497.2c12.6-6.5,24.9-13.7,36.7-21.6"/>
	<path class="st0" d="M227.4,466.3c3-3,6.7-5.3,10.8-6.6"/>
	<path class="st0" d="M240.8,506.7c9.8,1.3,20.6,2.3,29-3c2.7-1.7,5-4,7.9-5.4c6-2.8,13.1-1.1,19.6-2c7.4-1,13.9-5.4,20.1-9.7
		c4-2.7,8-5.6,10.6-9.6c6.1-9.6,2-22.3,4.1-33.5"/>
	<circle class="st0" cx="487.8" cy="198.4" r="17.5"/>
	<path class="st0" d="M327.6,287.9c11.3-1.5,22.3-4.9,32.5-10c2-1,3.9-2,6.1-2.4c2.6-0.4,5.2,0.2,7.9,0.3c11,0.5,20.4-7.6,30.7-11.6
		c10-3.9,21.5-3.9,31.5,0.1c10.6,4.2,19.1,12.6,29.7,16.9c5.5,2.2,11.4,3.4,17.2,4.3c28.4,4.7,57.3,6.6,86.1,5.7
		c13.5-0.4,27.9-1.3,39.7,5.4"/>
	<path class="st0" d="M262.4,508.7c2.1,4.7,1.2,10.4-1.2,15s-6,8.4-9.7,12.1"/>
	<path class="st0" d="M316.7,502.2c2.7-3.7,6.9-6.2,11.4-6.8c1.7-0.2,3.5-0.2,5.1-0.8c4-1.4,5.9-5.8,7.4-9.7c5-2,8.9-6.3,10.5-11.4"
		/>
	<path class="st0" d="M333.3,550.9h11c0,0,0,5,8,0s12-14,19-15s17-9,17-9l10-12v-6l4-7"/>
	<path class="st0" d="M519.7,630.4c0.6,2.1,1.1,4.3,1.7,6.4"/>
	<path class="st0" d="M532,626.8c0.2,5.3-0.3,10.6-1.7,15.8"/>
	<path class="st0" d="M544.3,621.8c-0.3,3.9-1.1,7.8-2.2,11.5"/>
	<path class="st0" d="M571.5,626.9c2.2,2.1,4.4,4.3,6.6,6.4"/>
	<path class="st0" d="M650.9,619.6c-0.7,2.9-0.2,6,1.3,8.6c3.2-0.8,4-5.9,1.3-7.6"/>
	<path class="st0" d="M703.3,604c-2.8-0.8-4.6-3.9-4.1-6.7c3.4,0.4,6.5,2.7,7.9,5.8c-0.4,0.5-1,0.9-1.6,1.2c0-0.6,0-1.3,0.1-1.9"/>
	<path class="st0" d="M658.8,558.4c3.1,9.4,5.6,19,7.5,28.7"/>
	<path class="st0" d="M790.9,607.9c11.4,5.2,17.9,7.8,30.4,7c4.8-0.3,16.3-3,21-4c24.6-5,48.5,0.3,73.6,1.4
		c3.9,0.2,7.9,0.4,11.5,1.9c2.8,1.2,5.3,3.1,8.2,4.1c2.8,1,5.8,1.1,8.8,1.2c7.4,0.2,14.9,0.4,22.3,0.6c13.4,0.4,26.9,0.7,40.1-1.3
		c8.3-1.2,16.4-3.4,24.8-3.8c8.3-0.4,17.2,1.2,23.6,6.6"/>
	<path class="st0" d="M935.7,1139.2c0.9-0.3,1.8-0.6,2.5-1.2c2.1-1.8,1.5-5.5-0.6-7.2c-2.1-1.8-5.1-2-7.9-1.7
		c-3.1,0.4-6.2,1.4-9.2,2.4c-9.7,3.2-19.3,6.5-29,9.7c-1.3,0.4-2.8,1.4-2.4,2.6c0.2,0.5,0.6,0.9,1.1,1.2c3.1,2.2,6.7,3.9,10.4,4.9
		c-0.3,3.4-0.3,7.3,2.3,9.5c1.6,1.4,3.8,1.7,6,2c12.5,1.7,25,3.3,37.5,5c1.7,0.2,3.6,0.5,5.3,0c1.7-0.5,3.3-1.9,3.4-3.6
		c0.1-1.2-0.5-2.4-1.1-3.4c-4-6.5-10.7-10.8-18.1-12.6C925.7,1144.2,924,1143.3,935.7,1139.2z"/>
	<path class="st0" d="M629.4,1178.2c0.9-0.8,2.1-1,3.2-1.3c3-0.6,6.1-1.4,8.4-3.4s3.7-5.4,2.4-8.1c-1.8-3.7-6.7-4-10.8-3.9
		c-2.2,0.1-4.5,0.2-6.7,0.2c-0.9,0-1.8,0.1-2.7,0.4c-1,0.4-1.8,1.3-2.7,1.9c-3,2.2-7.1,1.9-10.8,1.9c-7,0.1-14,1.9-20.1,5.3
		c-0.4,2.5,2.2,4.4,4.6,5.4c2.3,1,5.1,2.1,5.8,4.5c-9.2,4-21-1.5-29.5,3.9c-1.5,2-0.8,5,1,6.8c1.7,1.8,4.3,2.5,6.7,2.9
		c8.6,1.2,17.2-1.7,25.9-2c5.5-0.2,11,0.6,16.6,0.7c4,0.1,30.9-0.4,22-9.6C641.8,1182.9,623.7,1183.2,629.4,1178.2z"/>
	<path class="st0" d="M275.8,348.4c0.7-4.2,6.4-6.1,7-10.3c0.1-0.9,0.1-1.9,0.7-2.5c0.9-1,3.1-1.3,2.6-2.5"/>
	<path class="st0" d="M313,397c2.9,2.9,6.5,5.2,10.3,6.6c0.5,0.2,1.1,0.4,1.5,0.9c0.3,0.4,0.4,0.9,0.5,1.4c0.6,2.5,2.5,4.4,4.4,6.2
		c5.5,5.3,11.5,10.9,19,12.3"/>
	<path class="st0" d="M305.9,448.1c8.1-3.3,15.4-8.2,21.5-14.4c1.5-1.5,2.9-3.2,4.8-4.4c1.6-1,3.3-1.6,5.1-2.2
		c10.3-3.3,20.8-5.6,31.5-7c1.7-0.2,3.5-0.4,5-1.3c3.3-1.9,4.3-6.1,5.3-9.8c1-3.7,2.9-7.9,6.6-8.6"/>
	<path class="st0" d="M359.7,437.7c1.8,2.2,3.5,4.5,5.3,6.7"/>
	<path class="st0" d="M367.4,435.7c2.1,2.9,3.8,5.9,5.2,9.2"/>
	<path class="st0" d="M376,434.8c0.2,2,0.9,4,1.9,5.8"/>
	<path class="st0" d="M386.1,434.3c-0.6,0.6-1,1.5-1,2.4"/>
	<path class="st0" d="M415.8,330.9c-3.6,0.6-7.1,1.9-10.3,3.7c0.3-2.4-3.4-2.6-5.7-1.8c-0.7,4.3-4.4,8-8.8,8.7c-0.3-6-0.7-12-1-18.1
		c20.2-5.1,39.5-13.6,56.9-25c13.4,14.6,25.4,30.5,35.6,47.4"/>
	<path class="st0" d="M398.1,347.9c0,6.1,0.5,12.2,1.4,18.2"/>
	<path class="st0" d="M410.5,353.7c0,1.6,0,3.2,0.1,4.7c2.5,0.2,5.1,0,7.6-0.5c0-1.7,0-3.4,0-5.1c-2.7,0-5.4,0.2-8.1,0.6"/>
	<path class="st0" d="M430.2,349.4c0.5-0.3,1,0.6,1,1.2c0,5.7,0,11.4,0,17"/>
	<path class="st0" d="M473,350.3c0-0.4,0.1-0.9,0.1-1.3c-0.2,6.2-0.3,12.4-0.5,18.6"/>
	<path class="st0" d="M478.9,352.7c-0.5,7-1.1,14-1.6,21c0-0.6,0-1.2,0-1.8"/>
	<path class="st0" d="M373.8,399.1c2.4-2.2,6.1-2.2,9.3-1.5c3.2,0.7,6.3,2,9.6,2c5.8-0.1,10.6-4.2,16-6.3c4.3-1.6,8.9-1.8,13.4-1.8
		c10.5,0.1,21,1.8,31,4.9"/>
	<path class="st0" d="M448.3,300.5c10.5,6.9,20.9,13.8,31.4,20.7c1.2,0.8,2.5,1.7,3.1,3c0.6,1.3,0,3.2-1.4,3.5
		c2.2,1.5,4.4,3.3,5.3,5.8c0.8,2.5-0.2,5.9-2.8,6.6c1.7,0.1,3,1.1,2,2.5c0.9,1.6-0.5,4-2.4,3.9c0.4,2.4-1,5-3.2,5.9
		c-2.2,0.9-5.1,0-6.3-2.1c-0.6-1-0.7-2.2-0.5-3.4c0.2,1.9-2.2,3.4-4,2.8c-1.8-0.6-2.9-2.7-3-4.6c-0.9,2.4-3.5,4-6,3.8
		c-2.5-0.2-4.8-2.3-5.2-4.8c0,2.7-2.1,5.4-4.8,5.8c-2.7,0.3-5.5-2.1-5.3-4.8c-0.4,2.8-3.2,4.9-6,4.8c-2.8-0.2-5-1.6-5.2-4.4
		c-0.7,1.9-2.9,3-4.9,2.6s-3.5-2.4-3.4-4.4c-1.8,1.7-4.1,3.2-6.7,3.4c-2.5,0.1-5.3-1.4-5.8-3.9c-0.6,1.5-1.4,2.9-2.7,4
		c-1.2,1-3,1.6-4.5,1c-1.5-0.6-2.4-2.6-1.6-3.9c-1.8,2.9-5.1,4.7-8.5,4.6c-0.3,0-0.7,0-0.9-0.3c-0.2-0.2-0.2-0.5-0.2-0.8
		c-0.2-2.8-0.4-5.6-0.6-8.4c0.4,0.3,0.6,0.8,0.5,1.3"/>
	<path class="st0" d="M326.9,408.3c-1.6-3.6,0.5-8.4,4.3-9.7c0.7-0.3,1.5-0.4,1.9-1c0.3-0.4,0.4-0.9,0.5-1.5
		c0.5-2.9,1.5-5.7,2.9-8.3"/>
	<path class="st0" d="M376.1,371.9c4.6,5.6,12.1,7.7,18,11.9c0.7,0.5,1.3,1,1.8,1.7c0.7,0.9,1.1,2,1.5,3c1.3,3,3.4,5.6,6,7.5"/>
	<path class="st0" d="M591.7,391.9c-3.7-3-7.4-6-11.1-8.9c-0.6-0.5-1.2-1-1.8-1.5c-6.2-5-12.4-10-18.7-14.9c-1.2-0.9-2.5-1.9-4-2.2
		c-1.7-0.3-3.3,0.3-4.9,0.9c-11.3,4.1-23,7.8-35,8.4c-6.2,0.3-12.5-0.2-18.5,1c-7.9,1.5-15,5.7-22,9.8
		c-24.3,14.2-49.3,27.4-74.7,39.6c-2,1-4.1,1.9-5.6,3.6c-1.2,1.2-2,2.8-2.7,4.3c-3.1,6.7-5.4,13.7-6.7,20.9"/>
	<path class="st0" d="M417.2,313.4c0.4,4,0.8,8,1.3,12"/>
	<path class="st0" d="M397.5,388.7c-0.1-4.5-0.4-9.1-0.9-13.6c30.4,0,59.3,3,89.7,3.8"/>
	<path class="st0" d="M484.8,377.8c2.4,2.8,4.9,5.5,7.3,8.3c0.9,1,1.8,2.1,2.3,3.4c0.8,2.4-0.2,5-1.4,7.3
		c-6.4,12.8-15.9,23.8-22.1,36.6c-4.9,10-7.8,21.2-14.7,30c-3.8,4.9-8.8,8.8-12.3,13.9c-3.1,4.6-4.9,9.9-6.5,15.3
		c-3.8,13.1-6.5,26.4-8,40c-0.7,6.4-1.1,12.9,0.4,19.1s5.3,12.2,11,15c2.4,1.2,5.2,1.8,7.6,3.1c2.8,1.5,5,3.9,7.4,5.9
		c2.9,2.3,6.1,4.1,9.3,5.9c9.2,5.1,18.4,10.2,28.3,13.7c7.4,2.5,15.1,4.1,22.3,6.9c7.3,2.8,14.3,7,18.6,13.5
		c0.5,0.7-0.7,1.9-0.6,1.1"/>
	<path class="st0" d="M473.4,447.3c5.4,0.2,10.9-0.6,16.1-2.2c2.3-0.7,4.6-1.7,7-1.5c1.4,0.1,2.8,0.6,4.2,0.9
		c2.9,0.6,5.8,0.4,8.8,0.3c10.7-0.7,21.4-1.4,32.1-2"/>
	<path class="st0" d="M527.8,428.8c4-4.3,12.1-0.1,16.7-3.8"/>
	<path class="st0" d="M541.1,421.6c5.9-0.4,11.7-1.4,17.4-2.9"/>
	<path class="st0" d="M522.4,423.3c3.4,0.2,6.8,0.1,10.1-0.4"/>
	<path class="st0" d="M421.2,415.4c4.6,7.8,10,15.2,16,22c0.6,0.7,1.2,1.4,1.5,2.2c0.2,0.7,0.2,1.5,0.2,2.2c0,2.6,0,5.3,0,7.9"/>
	<path class="st0" d="M338.9,488.8c2.2-0.7,4.4-1.2,6.7-1.5c0.6-0.1,1.3-0.2,1.9-0.1c1,0.2,1.9,0.7,2.8,1.2c5.7,3.1,12.5,2.3,19,2.4
		c4.1,0.1,8.3,0.6,12.3,1.6"/>
	<path class="st0" d="M293.4,523.1c-0.4-3.7-0.7-7.4-1.1-11.1c-0.2,1.5-1.2,2.9-2.5,3.6c2.6-4.2,7.1-7.2,12-7.9
		c0.8-0.1,1.6-0.2,2.2-0.7c0.5-0.4,0.7-1.1,1.2-1.6c0.8-0.7,2-0.5,3-0.3c4.6,1,9.2,2.1,13.8,3.1c1.3,0.3,2.6,0.6,3.6,1.4
		c1.2,0.9,1.9,2.4,2.5,3.8c1.3,3.1,2.4,6.2,3.2,9.5c0.8,3.1,1.2,6.9-1.1,9.1c-1.4,1.4-3.5,1.7-5.5,2c-2.8,0.4-5.5,0.8-8.3,1.3"/>
	<path class="st0" d="M297.8,528.4c0-2.1,0-4.2,0-6.2"/>
	<path class="st0" d="M303.4,527.4c0.8-4.6,1.6-9.3,2.3-13.9"/>
	<path class="st0" d="M308.5,529.9c-0.6-3.8,2.3-7.8,6.1-8.6"/>
	<path class="st0" d="M327.6,553.9c2.5,3.3,8.2,3.6,9.4,7.6c0.3,0.9,0.7,2.2,1.6,1.9c0.3-0.1,0.5-0.3,0.7-0.5
		c1.5-1.7,3.1-3.5,3.6-5.7c0.1-0.6,0.2-1.3,0.5-1.8c0.7-1.2,2.2-1.5,3.5-1.6"/>
	<path class="st0" d="M370.7,536.3c3.3,2.7,6.8,5.7,7.9,9.8c0.3,1,0.4,2.1,0.8,3c0.9,1.9,2.8,3,4.7,3.9c5.8,3,11.5,6,17.3,9
		c0.9,0.5,1.9,1,2.6,1.9c0.9,1.2,1,2.9,1.2,4.4c0.4,5.5,1.5,11,3.3,16.3"/>
	<path class="st0" d="M398.2,514.7c3.2,1.1,6.3,2.3,9.4,3.6c0-3.2,0.4-6.4,1.4-9.5c-1.2,1-2.9,1.1-4.2,0.4"/>
	<path class="st0" d="M416.3,439.4c6.6-0.7,13.1-1.4,19.7-2"/>
	<path class="st0" d="M493.6,396c-3.3,6-11.4,7-17.5,10.2c-10.4,5.4-15.3,17.5-19.3,28.6c-6.6,18.1-13.2,36.3-19.8,54.4"/>
	<path class="st0" d="M475.3,425.8c6.3-0.9,12.7-1.9,19-2.8c4.2-0.6,8.4-1.2,12.6-1.9c3.6-0.5,7.1-1.1,10.7-1.6
		c21.7-3.3,43.4-7.1,65-11.5"/>
	<path class="st0" d="M554.9,290.5c-1.2-6.5-1.7-14.7,4-18.1c2.2-1.3,4.8-1.5,7.3-1.6c10-0.4,20,0.1,29.9,1.5
		c2.6,0.4,5.4,0.9,7.5,2.5c2.7,2.1,3.7,5.8,4.3,9.2c1.4,7.9,1.3,16.2-1.6,23.6c-4.2,10.4-14.4,18.2-25.6,19.5c-1.9-2.6-6-2.5-8.9-1
		c-2.9,1.5-5.1,4.1-7.9,5.7c-4.8,2.8-10.6,2.7-16.1,3.1c-4.2,0.3-8.8,1.3-12.1,3.8c-1.4,1.1-1,3.2,0.7,3.8c22,7.8,42.7,19.3,60.8,34
		c0.8,0.6,1.6,1.3,2,2.3c0.7,1.7-0.4,3.6-1.5,5.2c-8.1,12.1-16.2,24.1-24.3,36.2c-2.6,3.9-5.3,7.8-8.7,11c-2.5,2.4-5.4,4.3-8.3,6.2
		l-25.7,17.2c-0.6,0.4-1.1,1-1.2,1.7c-0.5,2.1,2,3,3.9,3.4c29.6,5.1,58.3,14.4,86.9,23.6c22.6,7.3,45.4,14.7,65.4,27.5
		c10.5,6.7,20.5,15,32.6,17.9"/>
	<path class="st0" d="M614.4,271.1c0.3,10.3,1.2,20.5,3,30.7c0.4,2.5,0.9,5,2.1,7.2c1.4,2.8,3.8,4.9,6.1,7c3.4,3,6.8,6.1,10.2,9.1
		c1.2,1.1,2.4,2.2,3.9,3c1.5,0.9,3.3,1.4,5,1.4"/>
	<path class="st0" d="M616.3,319.3c3.7,4.3,7.4,8.6,11,13"/>
	<path class="st0" d="M541.3,343.2c3.3,6.4,6.8,12.6,10.5,18.8c0.9,1.4,2.4,3,3.9,2.3"/>
	<path class="st0" d="M630.3,398.4c4.5,3,8.1,7.4,10.2,12.3"/>
	<path class="st0" d="M635.3,394.4c2.9,3.9,5.4,8.2,7.4,12.6"/>
	<path class="st0" d="M643.3,395.9c1.6,2.5,2.7,5.3,3.4,8.1"/>
	<path class="st0" d="M649.3,407.9c4.7-1.3,9.8,0.4,14,2.8c4.3,2.4,8.2,5.5,12.7,7.3c2.2,0.8,4.9,1.9,5,4.3c-0.5,0-1.1,0-1.6,0"/>
	<path class="st0" d="M660.7,399.7c1.7,0.9,3.5,1.7,5.2,2.6"/>
	<path class="st0" d="M664,392.6c1.1,1.8,2.2,3.5,3.4,5.3"/>
	<path class="st0" d="M673.1,393c-0.2,1.4-0.3,2.9-0.5,4.3"/>
	<path class="st0" d="M672.7,410.8c0.7,1.5,3,0.8,4.3-0.3c1.6-1.3,2.9-2.9,3.9-4.6c0.3-0.5,0.6-1,1-1.4c1.3-1,3.1-0.2,4.6,0.1
		c5.3,1.3,10.5-2.6,15.9-3.2c3.6-0.4,7.8,0.4,10.4-2.1"/>
	<path class="st0" d="M677,426.7c-4,0.2-10.9-0.9-14.6,0.6c-3.1,1.2-5.8,5.2-8.4,7.3c-0.8,0.6-1.7,1.3-2.2,2.2
		c-0.9,1.6-0.7,3.6-1.7,5.1c0-0.4,0-0.9,0-1.3"/>
	<path class="st0" d="M559.8,271.7c-0.5-0.1-1-0.1-1.4-0.2c5.9-5.6,14.9-5.5,23-5.2c1.6,0.1,3.3,0.1,4.9-0.4c3-1.1,5.7-4.2,8.6-2.9
		c-0.7-1.4-1.3-2.8-2-4.2c-5.5,1.3-11.1-1.6-16.7-2.4c-4.5-0.6-9,0.1-13.5,0.9c-1.8,0.3-3.5,0.6-5.2,1.2c-4.3,1.5-7.8,4.8-10.9,8.2"
		/>
	<path class="st0" d="M661.6,232.3c-1.5,2.4-2.9,4.8-4.4,7.2c-0.4,0.7-0.9,1.5-1.7,1.7c-0.8,0.3-1.6,0-2.3-0.4
		c-2.5-1.2-4.8-2.8-7.5-3.5c-2.7-0.7-6.1,0.1-7.2,2.6c-0.9,2.1-0.1,4.5-0.6,6.7c-1.1,4.7-7.2,6-10.2,9.8c-2.8,3.6-2.2,8.6-1.6,13.1
		c0.9,6.4,1.9,12.9,4.8,18.7c0.4,0.8,0.9,1.7,0.6,2.6c-0.2,0.8-0.9,1.3-1.2,2.1c-0.4,1,0,2.1,0.5,3.1c1.8,4.4,3.7,8.7,5.5,13.1
		c1.6,3.8,3.7,8.1,7.7,9.3c6.7,2,13.8-6.4,20.2-3.4c3.8,1.8,5,6.7,8.3,9.3c1.5,1.2,3.3,1.8,5.1,2.4c6.3,2.1,23.4,2.1,29.8,4.2"/>
	<path class="st0" d="M664,426.2c0.8-2.7,1.6-5.4,2.5-8.1"/>
	<path class="st0" d="M567.3,597c0.5-0.8-0.6-1.9-1.5-1.6c-0.9,0.3-1.4,1.3-1.3,2.3c0,2.4,2.6,4.3,4.9,3.7c0-1.1,0-2.2,0.1-3.3"/>
	<path class="st0" d="M571.5,590.2c-1.3-2.9-1.1-6.4,0.6-9.1c1.5,2.2,2.1,5.1,1.5,7.7"/>
	<path class="st0" d="M579.1,582.2c-0.4-1.9,1.5-3.9,3.4-3.6c1.9,0.2,3.2,2.6,2.4,4.4"/>
	<path class="st0" d="M571.3,617.8c-0.7,0.2-0.9-0.9-0.7-1.5c2-10.2,5.9-20,11.4-28.8"/>
	<path class="st0" d="M583.4,595.4c-2.3,0-3.1,3-3.3,5.2c0,0.6-0.1,1.2,0.4,1.6c0.8,0.7,1.9-0.3,2.4-1.3c0.7-1.7,0.9-3.5,0.4-5.3"/>
	<path class="st0" d="M592.5,586c-1.3,0.1-2.6,0.1-3.9,0.2c0.3,2.6,3.7,4.2,5.9,2.8"/>
	<path class="st0" d="M593.2,618.6c1.8-5.7,9-17.8,0-21.1c3.1,8.5,9.2-10.5,11.7-12.3c1.1,2.3,0.9,5.3-0.2,7.6"/>
	<path class="st0" d="M603.6,576c-1.2-0.1-2.2,0.9-2.5,2.1c-0.3,1.1-0.1,2.3,0.1,3.5c0.1,0.4,0.2,0.8,0.6,1c0.7,0.3,1.2-0.7,1.2-1.5
		c0.1-1.7,0.1-3.5-0.2-5.2"/>
	<path class="st0" d="M554.2,619.1c0.1,1.1,0.4,2.1,0.8,3.1c0.2,0.4,0.5,0.9,0.9,1.1c0.8,0.5,2,0,2.5-0.9c0.5-0.8,0.6-1.8,0.6-2.8"
		/>
	<path class="st0" d="M602.4,605.9c1.5-0.3,3-0.5,4.5-0.7c0.6-0.1,1.2-0.1,1.6,0.2c0.8,0.6,0.4,2-0.5,2.5c-0.9,0.5-2,0.3-2.9,0.1"/>
	<path class="st0" d="M630.4,566.8c-0.6-0.7-0.7-1.6-1-2.4c-0.3-0.8-1.2-1.6-2-1.3c-0.4,0.1-0.6,0.5-0.8,0.8c-0.9,1.4-1.5,3.1-1,4.7
		c0.4,1.6,2.1,2.9,3.7,2.4c0.4-2.4,0.2-4.9-0.7-7.2"/>
	<path class="st0" d="M620.2,582.7c0-1.3-1.6-2.3-2.9-1.9c-1.3,0.4-2,1.9-1.9,3.2c0.3,2.2,3,3.7,4.9,2.5c1.8-1.2,1.5-4.5-0.6-5.1"/>
	<path class="st0" d="M621.7,590.7c-3.8,0.3-7.3,2.7-8.9,6.1c3.7,1.4,8.3-1.6,8.6-5.6"/>
	<path class="st0" d="M617,603.8c-1.7-0.5-3.5-0.8-5.2-0.9c-0.3,1.6,0.9,3.2,2.3,3.8c1.5,0.7,3.2,0.6,4.8,0.4
		c-0.6-1.6-1.8-2.9-3.3-3.8"/>
	<path class="st0" d="M625.9,600c0.7,2.8,3.5,4.8,6.3,4.7c-1.2-3.7-4-6.9-7.6-8.5"/>
	<path class="st0" d="M631.5,590.4c-1,3.1,1,6.8,4.1,7.6c0.4-2.5-1.2-4.9-3.4-6.2s-4.7-1.7-7.2-2"/>
	<path class="st0" d="M635.2,585.4c2,0,4-0.5,5.7-1.5c0-0.8,0-1.5,0-2.3c-3.4,0.2-6.8,1-9.9,2.3c-6.5,2.7-6.8,8.9-7.7,15
		c-0.8,5.2-1.6,10.4-2.4,15.6c-0.1,0.3-0.2,0.8-0.5,0.8c-0.3,0-0.3-0.7,0-0.5"/>
	<path class="st0" d="M654.6,566.1c0.4-0.9-1.1-1.7-1.9-1.1c-0.8,0.6-0.9,1.7-0.8,2.7c0.1,0.6,0.2,1.1,0.5,1.6c0.9,1.3,3,1.1,4-0.1
		c0.9-1.2,0.7-3.1-0.3-4.3"/>
	<path class="st0" d="M628.2,573c-0.2,5.6-0.4,11.2-0.6,16.8"/>
	<path class="st0" d="M643.4,552.8c-0.5-0.5-1.3-0.6-1.9-0.3c-0.9,2.3,2,5,4.3,3.9"/>
	<path class="st0" d="M645.8,572.1c-0.5,0-1,0.1-1.4,0.1c0,1-0.5,1.9-0.5,2.9c-0.1,1,0.4,2.1,1.3,2.3c1,0.2,1.8-0.8,1.9-1.8
		c0.1-1-0.4-1.9-0.9-2.8"/>
	<path class="st0" d="M662.7,546.8c-0.4-1.2-2.1-1.7-3.2-1.1c-1.2,0.5-1.8,1.8-1.9,3.1c-0.1,1.1,0.4,2.5,1.5,2.8
		c1,0.3,2.1-0.4,2.6-1.3c0.5-0.9,0.5-2,0.5-3.1"/>
	<path class="st0" d="M674.4,561.3c-1.3,0.7-2.1,2.3-1.8,3.8s1.4,2.8,2.8,3.1c1.2-1.6,0.6-4.2-1.3-5"/>
	<path class="st0" d="M693.3,549.9c-1.2,0.2-1.7,1.6-2,2.7c-0.2,0.6-0.3,1.2-0.1,1.7c0.2,0.5,1.1,0.8,1.4,0.4
		c0.2-1.1,0.4-2.2,0.6-3.2"/>
	<path class="st0" d="M698.1,559.6c-0.4-0.4-0.9-0.6-1.5-0.6c-0.3,1.1,0.1,2.4,0.9,3.2c1.4-0.9,1.1-3.4-0.4-4"/>
	<path class="st0" d="M710.5,592.7c0,0.4-0.7,0.6-1,0.3c-0.3-0.3-0.5-0.7-0.5-1.1c-0.3-1.4-0.4-2.8-0.3-4.2c0-0.6,0.2-1.4,0.7-1.6
		c1-0.5,1.8,1,2,2.1c1.5,9.3,2,18.7,1.5,28.1"/>
	<path class="st0" d="M720.3,604.5c2.8-4.8,7.4-8.5,12.7-10.2c0.5,3.2-1.9,6.6-5.1,7.1"/>
	<path class="st0" d="M728.8,588.4c-0.1,0.7-0.8,1.1-1.4,0.9c3.1-4.9,6.8-9.4,10.9-13.5c0.8-0.8,1.9-1.7,3-1.3
		c1.5,3.7-0.9,8.4-4.7,9.4"/>
	<path class="st0" d="M771.9,585.4c-0.3,0.3-0.8,0-0.8-0.3c0.2-0.9,0.4-1.8,1-2.4c0.6-0.6,1.8-0.7,2.3,0c0.3,0.4,0.2,0.9,0.2,1.4
		c-0.6,4.7-2.5,9.2-5.5,12.9"/>
	<path class="st0" d="M568,470.8c1.1,1.6,2.3,3.2,3.4,4.8"/>
	<path class="st0" d="M580.9,474.7c0,1.7,0.6,3.4,1.5,4.8"/>
	<path class="st0" d="M575.3,473.6c0.8,1.3,1.5,2.6,2.3,3.9"/>
	<path class="st0" d="M608.8,479.9c4.9,5.7,9.8,11.6,16.4,15.3c1.6,0.9,3.3,1.7,4.5,3.1c1.2,1.4,1.9,3.5,0.9,5"/>
	<path class="st0" d="M634.5,492.3c1.5,2.5,2.9,5.1,4,7.9"/>
	<path class="st0" d="M639.9,494.4c0.8,2.4,1.6,4.8,2.4,7.2"/>
	<path class="st0" d="M672.7,507.8c0.4,2.4,1.2,4.7,2.4,6.7"/>
	<path class="st0" d="M678.4,510.7c0.1,2.5,0.8,5,1.9,7.2"/>
	<path class="st0" d="M682.3,513.1c0.1,1.9,0.7,3.8,1.8,5.4"/>
	<path class="st0" d="M710.7,532.7c1.3,3.8,5.8,5.2,9.8,5.6c1.2,0.1,2.4,0.2,3.4,0.8c2.5,1.3,3.6,4.6,6.3,5.1"/>
	<path class="st0" d="M732.1,540c0.6,0.2,1.3,0.3,1.9,0.5"/>
	<path class="st0" d="M737.9,539.4c1.3,0.5,2.6,1,3.8,1.4"/>
	<path class="st0" d="M753.3,543.8c2.5,4.3,4.9,8.6,7.4,12.9"/>
	<path class="st0" d="M762,548.6c1.3,4,3.5,7.7,6.6,10.7"/>
	<path class="st0" d="M772.5,551.9c1.5,4.3,3.6,8.3,6.1,12.1"/>
	<path class="st0" d="M543.1,247.1c1.7,5.8,8.3,8.7,14.3,8.9c6,0.2,11.9-1.5,17.9-1.5c4.5,0,9,0.9,13.5,1.1
		c7.2,0.4,14.4-0.9,21.5-2.1c1.2-0.2,2.4-0.4,3.4-1c1.8-1.1,2.7-3.1,3.5-5c3.1-7.2,6.2-15.4,3.3-22.7c-0.4-1-0.9-2-0.8-3.1
		c0.1-0.9,0.7-1.7,1.3-2.5c2.6-3.4,5.2-6.8,7.8-10.2c-5.2-1.2-8.6-6.1-11.5-10.6c-1.5-2.4-3.1-4.8-4.6-7.2"/>
	<path class="st0" d="M638.9,201.9c-3.6,4.4-7.3,8.9-10.9,13.3c-1.7,2.1-3.5,4.4-3.7,7.1c-0.1,1.3,0.3,2.6,0.5,3.8
		c1,5.1,0.2,10.4-0.5,15.6c-0.3,2-0.6,4-0.9,6.1c-0.2,1.6-0.1,3.8,1.5,4.1c0.6,0.1,1.2-0.1,1.8-0.4c1.9-1,3.4-2.6,4.4-4.5
		c0.8-1.6,1.2-3.4,2-5c3.1-7,12.8-10,19.3-6c0.6,0.4,1.3,0.8,2,0.9c2.4,0.3,3.5-3.1,5.7-4.3"/>
	<path class="st0" d="M562.7,226.1c4.5,1.6,9.1,3.2,13.6,4.8c0.4,0.1,0.9,0.3,1.1,0.7c0.2,0.4,0.1,0.8,0,1.2
		c-0.8,2.9-1.6,5.8-2.4,8.7c-0.3,0.9-0.5,1.9-0.4,2.9c0.1,0.8,0.6,1.6,1,2.3c1.6,2.6,3.4,5.2,5.3,7.6"/>
	<path class="st0" d="M592,226.4c5.1-0.1,10.2,0.9,14.8,3c0.7,2.4,1.5,4.8,2.5,7.2c1.3,3,2.2,5.5,3.2,8.6c1,3,0.9,6.4-0.4,9.4"/>
	<path class="st0" d="M616.8,196.6c2.1-2.4,3.7-5.4,4.4-8.5"/>
	<path class="st0" d="M641,235.1c-0.9-3.7,2.7-7.1,6.4-8c0.7-0.2,1.5-0.3,2-0.8c0.5-0.5,0.7-1.2,0.9-1.9c0.9-3.5,1.8-7,2.6-10.5"/>
	<path class="st0" d="M580.9,270.7c0.4,3.7-0.1,7.5-1.4,11c-0.2,0.4-0.4,0.9-0.2,1.4c0.4,1,1.9,0.5,2.9,0.4c2.4-0.1,3.7,2.7,4.3,5"
		/>
	<path class="st0" d="M652.1,326.9c2.1-2,5.5-1.5,8.4-0.8c4.3,1,8.6,2,12.8,3c11.3,2.6,23.2,5.2,34.3,1.7c7.5-2.4,15-7.6,22.6-5.6
		c2.2,0.6,4.2,1.7,6.3,2.6c15.4,6.5,35.1,1,51.9,1.1c9.1,0.1,15.6-0.1,24.7,0.6c8.1,0.7,16.3-0.2,24.4-1c4.2-0.4,8.3-0.9,12.5-1.3
		c14.5-1.5,50.4-3.3,80.4-12.3"/>
	<path class="st0" d="M762.7,363c2.8,2.4,5.6,4.9,8.3,7.3c3.5,3,7,6.1,11.1,8.2c2.7,1.4,5.5,2.3,8.1,3.8s5,3.7,5.8,6.6"/>
	<path class="st0" d="M795,380.6c2.9,1.8,6.2,3.2,9.6,3.9"/>
	<path class="st0" d="M800.3,374.3c2.1,2.1,4.8,3.6,7.7,4.3"/>
	<path class="st0" d="M814.7,382c1.9,0.3,3.8,0.6,5.7,0.8c0.8,0.1,1.8,0.2,2.5-0.3c0.7-0.5,0.5-1.9-0.3-1.9c2,0.2,6.6-1.8,8.6-1.7
		c0.9-0.6,0-2-0.9-2.6c-5-3.2-10.8-5.1-16.1-8c-5.6-3.1-10.6-7.2-14.5-12.2c-1.1-1.4-2.5-3.1-4.3-3.2c-1.2-0.1-2.4,0.7-3.4,1.3
		c-10.8,6.4-23.7,8.1-36.1,9.6"/>
	<path class="st0" d="M736.6,386.5c2.3-1.3,4.6-2.5,6.9-3.8c0.6-0.3,1.1-0.6,1.7-0.8c0.7-0.2,1.4-0.1,2.1-0.1c4.5,0,9-1.1,12.9-3.3
		c2.2-1.2,4.2-2.7,6.5-3.6"/>
	<path class="st0" d="M844,385.4c-0.1,0.5,0.2,1.1,0.8,1.1c1.6-4.8,3.3-9.5,4.9-14.3c0.3-0.8,0.6-1.7,1.3-2.2
		c0.7-0.5,1.7-0.5,2.6-0.5c5.5,0,11.8,0.4,15.3,4.8c1.2,1.6,1.9,3.5,2.6,5.3c1,2.6,1.9,5.2,2.9,7.8"/>
	<path class="st0" d="M861.8,390.4c4.8-2.4,10.3-3.3,15.6-2.7c2.5,0.3,5,0.9,7.5,0.4"/>
	<path class="st0" d="M874.7,378.7c6.9-1.3,14.4,2.2,17.9,8.3"/>
	<path class="st0" d="M576.9,367.1c0.7,2.4,3.1,4.3,5.6,4.5c0.5,0,1,0,1.5,0.2c0.7,0.2,1.2,0.7,1.7,1.2c2.5,2.3,4.9,4.7,7.4,7"/>
	<path class="st0" d="M631.9,298.6c7.8-0.4,16-0.6,22.7,3.2c2.3,1.3,4.3,3,6.7,4c5.8,2.5,12.3,0.5,18.6,0.4
		c7.9-0.2,15.6,2.4,23.4,2.8c10,0.5,20.1-2.7,30.1-1.8c7.9,0.7,15.5,4,23.4,3.9c4.7,0,9.3-1.2,13.8-2.5c9.3-2.5,18.6-4.9,27.8-7.4
		c10.9-2.9,21.8-5.8,33-6.3c4.4-0.2,8.8-0.1,13.2-0.7c4.4-0.6,8.5-2.1,12.8-3.3c21.1-6.4,43-9.7,64.9-12.8"/>
	<path class="st0" d="M717.5,527.7c10.9,3.5,21.8,7,32.7,10.5c18.2,5.8,36.4,11.6,55.2,14.7c17.2,2.8,34.7,3.2,51.8,6.6
		c10.2,2,20.3,5.1,30.7,4.4c11.3-0.7,22.2-5.6,33.5-5.5c7.6,0.1,8.8-0.4,30.9,2.5c42.1,5.3,120-4.4,161-6c52-2,64.5,0.8,118,4
		c43.2,2.6,84.8-4.2,126,2c27.3,4.1,53.2,9.3,80.8,8c15.3-0.7,30.7-4,45.9-1.7c11.4,1.7,21,10.4,32.5,11.3
		c40.8,3.4,58.6,26.8,89.8,42.4c60,30,141,63.9,182.6,123.6c10.4,15,19,31.8,21.3,49.9c2,15.3-0.6,30.8-3.6,46
		c-6.5,32.8-15.8,65-28.2,96c-2.7,6.6-5.7,13.2-10.9,18.1c-5.9,5.5-14,8.2-21.7,10.6c-27.4,8.7-54.8,17.3-82.1,26
		c-8.6,2.7-17.8,5.9-23.1,13.3c-2.8,3.9-4.2,8.8-7.7,12.1c-4.4,4.2-12.5,10-18.6,10.5c-24.3,2-20.7,1-45,3c-5.7,0.5-23-6.1-28-9
		c-2.9-1.7-20.2,0.5-20.7-2.7c-1-6.1,4.1-8.1,6.6-11.9c4.2-6.5-0.6-6.8-7.9-9.3s-16.7-1.5-24,1c-24.6,8.3-47.4,12.1-69,26.4
		c-3.1,2.1-4.8,6.7,0,8.6c3,1.2,12.2,2,13.8,4.7l0.2,0.3c-50.9,34.8-121.2,48.1-182.5,41.1c9.5-5.2,37-10,41.5-19.1
		c2.3-4.6-2-20-24-10.6l-120,28.6c-10,9-23.3,11.9-37.4,7.5c-9.8-3-18.3-11.9-20.4-21.5c-1.4-6.4,4-12.3,10.5-11.9
		c14.5,0.9,29,1.8,43.5,2.7c7.6,0.5,24.5,1.9,22.8-5.8c-0.4-1.9-3.5-13.7-5-15c-16.2-13.3-31.5-25.3-53.2-31.3
		c-9.6-2.6-23.8-4.7-12.8,14.3l5,17c-31-13-55-31-92-46c-2.4-1-18.7-7.1-21-6c-10.2,5-8,8.8-4.2,19.5c1.3,3.6-2,7.3-5.7,6.4
		c-10.4-2.6-18.3-6.3-26.1-15.8"/>
	<path class="st0" d="M629.3,502.6c3.5,3.5,8.2,5.6,12.8,7.7c14.1,6.4,28.2,12.7,42.3,19.1c2,0.9,4,1.8,6.1,2.3
		c1.5,0.3,3,0.4,4.5,0.9c2.8,0.9,5,2.9,7.1,4.9c4.7,4.4,9.3,8.9,14,13.3c1.9,1.8,3.9,3.7,6.2,4.9c2.8,1.4,5.9,1.9,9,2.4
		c6.7,1,13.3,2,20,3c5.3,0.8,10.7,1.6,15.6,3.5c9.4,3.7,17.5,11.6,27.7,12c6.8,0.3,13.4-2.9,20.2-2.7c5.6,0.1,11.1,2.5,16.7,2
		c4.9-0.4,9.3-3,14-4.3c12.3-3.3,39.9,0.3,53.9-9.7"/>
	<path class="st0" d="M773.3,541.7c0.3,0.2-0.5,0.4-0.5,0.1c0-0.4,0.5-0.5,0.9-0.5c5.1-0.5,10.2-1.4,15.2-2.8c1.4-0.4,3-1.5,2.4-2.7
		c1.6,0,3.1,0.2,4.7,0.5c0-0.8,0.1-1.6,0.1-2.4"/>
	<path class="st0" d="M797.4,529.9c1,1.1,1.9,2.2,2.9,3.4"/>
	<path class="st0" d="M803.7,519.4c1.4,0.5,2.9,1,4.3,1.5"/>
	<path class="st0" d="M811.3,514.1c0.9-3.2,0.9-6.8-0.1-10c-0.1-0.5-0.3-0.9-0.2-1.4c0.2-1.3,1.7-1.8,3-1.8s2.7,0.3,3.7-0.5"/>
	<path class="st0" d="M821.9,491.9c0.8,1.6,2.5,2.8,4.3,3"/>
	<path class="st0" d="M827.6,482.4c0.9,1.8,2,3.4,3.4,4.7"/>
	<path class="st0" d="M851.2,474.7c2.4,0.5,4.8,0.9,7.2,1.4"/>
	<path class="st0" d="M859.9,471.1c1.9,0.5,3.8,1.1,5.7,1.6"/>
	<path class="st0" d="M858.8,455.5c3.2,4.2,5.9,8.9,7.9,13.8"/>
	<path class="st0" d="M870.8,458.3c0,3.4,0.7,6.9,2,10.1"/>
	<path class="st0" d="M880.8,447.3c0.6,6.6,1.3,13.1,1.9,19.7"/>
	<path class="st0" d="M903.1,465.4c3.8,1.8,8.1,2.8,12.3,2.9c0.2-1.1,0.4-2.1,0.6-3.2c0.1-0.3,0.2-0.7,0.5-0.9
		c0.6-0.4,1.2,0.5,1.7,1c1.2,1.2,3.5,0.3,4.2-1.2c0.7-1.5,0.5-3.4,0.1-5c1.2,0.1,2.5,0.2,3.7,0.4c-0.4-2.1-1.3-4.1-2.6-5.7"/>
	<path class="st0" d="M927.5,442c0.9,3.4,1.8,6.7,2.7,10.1"/>
	<path class="st0" d="M938,443.9c0.1,2.7,0.4,5.5,1,8.2"/>
	<path class="st0" d="M945.8,449.2c-0.3,1.1-0.2,2.3,0.3,3.4"/>
	<path class="st0" d="M848.8,535.1c2.6,2.7,4.6,5.8,6.1,9.2"/>
	<path class="st0" d="M851.7,520.7c5.8,6.9,8.9,16,8.4,25"/>
	<path class="st0" d="M866.5,530.8c0,2.3,0.4,4.5,1.1,6.7"/>
	<path class="st0" d="M909.2,513.6c-0.7-1.2-2.2-2-3.6-1.9c-1.3,3.4,1.8,7.7,5.5,7.5c0.3-2.2-0.8-4.5-2.7-5.8"/>
	<path class="st0" d="M904.7,541.9c-0.2-6.2,3.2-11.8,7.1-16.7c4.9-6.2,10.8-11.6,17.2-16.2c1.3,1.9-0.2,4.9-2.5,5.1"/>
	<path class="st0" d="M929.7,496.2c-0.6,2.7,1.3,5.6,4,6.3c0.6-2.2,0-4.7-1.6-6.4"/>
	<path class="st0" d="M924.6,530.3c-1.4,0-2.9,0.1-4.3,0.1c0.2,3.1,3.9,5.3,6.7,4c-0.2-2.1-1.5-4-3.3-5.1"/>
	<path class="st0" d="M955.5,543.7c1.9-6.1,5.6-11.4,9.2-16.7c2.3-3.3,4.6-6.7,6.9-10c2.3-3.4,4.7-6.8,7.9-9.4
		c3.1-2.5,6.9-4.1,10.8-4.6"/>
	<path class="st0" d="M962.8,517.9c-1.8,1.3-2.3,4-1.2,5.9c2.2-0.6,2.2-3.7,1.8-5.9"/>
	<path class="st0" d="M972,500c-1.2,1.9-1.8,4.2-1.7,6.5c-0.3-3.3,0.9-6.6,3.1-9.1c1.3,2.4,1.7,5.3,1.1,8"/>
	<path class="st0" d="M981.8,503.5c-0.4-3.3,1.5-6.7,4.5-8.1c0.9,1.8,1.5,3.7,1.7,5.7"/>
	<path class="st0" d="M996.3,497c-0.1,1.2-0.2,2.4-0.2,3.5c0,1.2,0.7,2.9,1.8,2.4c0.3-0.1,0.5-0.5,0.7-0.8c1.1-2.1,1.3-4.8,0.4-7"/>
	<path class="st0" d="M987,507.8c-1.8,0-3.6,1.5-3.8,3.4c1.1,0.8,2.7,0.3,3.5-0.7c0.9-1,1.1-2.3,1.4-3.6"/>
	<path class="st0" d="M980.5,519.5c-1.4,1.4-1.9,3.5-1.4,5.3c1.8-1.2,2.8-3.4,2.4-5.5"/>
	<path class="st0" d="M973.9,526.9c-1.1,2-1.2,4.6-0.2,6.7c1.3-1.9,1.8-4.4,1.3-6.6"/>
	<path class="st0" d="M632.6,647.2c13-0.4,26-0.8,39-1.2c2.7-0.1,5.5-0.2,8.2-0.2c12.1-0.4,24.2-0.7,36.2,0.1
		c7.4,0.5,14.8,1.5,22.2,1.7c9.3,0.2,18.5-1,27.8-1.9c60.1-6.2,120.7-5.1,181.1-3.9c28.2,0.5,57.1,1.2,83.5,11.1
		c24.3,9.1,45.1,25.6,68.7,36.5c14.3,6.6,29.9,11.4,41.1,22.4c11.2,11,15.6,31.2,4.1,41.9c-2.4,2.3-5.5,4-7.3,6.8
		c-3.2,4.7-2.3,10.8-2.7,16.4c-1.9,25.3-31.3,41-35.7,66c-0.8,4.8-0.7,9.8-2,14.5c-4.4,16.3-22.8,23.5-34.8,35.3
		c-12.4,12.1-18.6,30.2-33,39.8c-7.7,5.2-17,7.4-25.4,11.3c-8.9,4.1-16.7,10-24.5,15.9L951.1,981c-2.6,1.9-2.2,5.9,0.7,7.3l7.9,3.9"
		/>
	<path class="st0" d="M883.2,625.3c38.6,6.5,78,7.7,116.9,3.5c12.7-1.4,25.6-3.3,38.1-0.4c9,2.1,17.2,6.5,25.7,10.2
		c20.8,9.1,43.7,13.5,66.4,12.8"/>
	<path class="st0" d="M1036,586c0.9-2.2,3.8-2.7,6.2-2.8c24-1.3,48-2.5,72-3.8c13.7-0.7,27.5-1.4,41.2-1c18.4,0.5,36.8,3.1,55.2,2.5
		c6.3-0.2,12.6-0.8,18.9-1.7"/>
	<path class="st0" d="M1155.1,594.4c8.6-0.7,17.2-1.4,25.8-2.1c3.8-0.3,7.5-0.6,11.3-0.5c6.2,0.1,12.3,1.3,18.5,1.9
		c9.3,0.8,18.8,0.2,28-1.7c5.8-1.2,12.9-2.6,16.6,1.9"/>
	<path class="st0" d="M1335.5,617.4c-4.3,6.7-6.2,14.8-5.3,22.7"/>
	<path class="st0" d="M1343.2,603.6c-0.9,1.5-1.7,3.1-1.5,4.8c0.2,1.7,2,3.3,3.6,2.5c0-1.7-0.1-3.5-0.1-5.2c-1-0.1-2.1-0.1-3.1-0.2"
		/>
	<path class="st0" d="M1304.3,636c-2.3,1-2.3,4.9-0.1,5.9c2.3,1,5.2-1.6,4.4-3.9c5.6,2.2,15.7,10.8,18.5,16.1"/>
	<path class="st0" d="M1178.6,712.3c-3.5,6.6-4.8,14.3-3.8,21.8"/>
	<path class="st0" d="M1185.2,702.3c-2,1-2.9,3.8-1.7,5.7c1.3,0,2.6,0,3.9,0c0.1-1.4,0.1-2.8,0.2-4.2"/>
	<path class="st0" d="M1190.9,737.3c-0.7-4.4,0-9,2-13c-1.4,0.3-1.3-4.6-1-3.2s2,2.3,3.4,1.9c1-1.5,1.3-3.4,0.8-5.1"/>
	<path class="st0" d="M1208,729.8c2-5.7,8-9.8,14.1-9.5"/>
	<path class="st0" d="M1230.8,712.5c-2.9,2.9,0.1,9.1,4.2,8.5c0.5-1.8,0.3-3.8-0.7-5.4"/>
	<path class="st0" d="M1320.4,942.1c17.8,1.9,35.2,8.2,50,18.3"/>
	<path class="st0" d="M1047.5,958.1c-1-1.5-3.4-0.8-4.6,0.5c-1.2,1.4-1.7,3.2-3.1,4.4c-1.2,1-2.7,1.4-4.2,1.7
		c-5.4,1.1-11,1.7-16.5,1.7c-1.4,3.8,2.7,7.8,6.7,8c4,0.2,7.7-2,11.1-4.2c3.4-2.2,7.1-4.4,11.1-4.1c0.1-3.6,0.1-7.1,0.2-10.7"/>
	<path class="st0" d="M1074.9,981.9c-5.7,2.7-8.8,10-6.7,16c4.8-0.8,8.7-5.1,9.1-9.9c0.1-1.2-1.1-3-2-2"/>
	<path class="st0" d="M1096.8,976c-1.4,0.1-2.9,0.1-4.3,0.2c-1.2,3.4,3,6,6.4,7.1c0.8,0.3,1.6,0.5,2.3,0.3c1.9-0.4,2.3-3.3,1.1-4.8
		s-3.2-2.1-5.1-2.6"/>
	<path class="st0" d="M1142.1,957.7c-1.7-1.2-3.5-2.4-5.5-2.6c-2-0.2-4.4,0.9-4.8,2.9c-0.2,0.9,0,1.8,0.2,2.7
		c0.8,3.3,1.5,6.5,2.3,9.8c5.4-0.5,9.7-6.4,8.5-11.7"/>
	<path class="st0" d="M1156.4,979.9c-3.5,1.6-6.6,4.1-8.9,7.2c-1.2,1.7-2.2,3.6-2.1,5.7c0.1,2.1,1.6,4.2,3.7,4.3
		c1.7,0.1,3.3-1.1,4.4-2.4c2.9-3.1,4.9-6.9,6-11"/>
	<path class="st0" d="M1197.4,998.3c-4.4,0-8.5,3.9-12.8,3c-3.3-0.7-6.8-4.1-9.3-1.9c-1.3,1.2-1.3,3.4-0.3,4.8s2.7,2.2,4.5,2.7
		c7.3,2,15.8-1.3,19.8-7.7"/>
	<path class="st0" d="M1191.9,1039.4c-2.2-0.3-4.5-0.6-6.7-0.9c-0.8,5.3,4.5,9.4,9.2,12.1c1.4,0.8,2.9,1.6,4.5,1.4
		c3.1-0.6,3.7-5.2,1.7-7.6s-5.4-3.1-8.5-3.6"/>
	<path class="st0" d="M1321.5,937.1c12.9-0.4,25.9,1.8,38,6.5c-6.4-6.7-10.3-15.7-10.8-24.9"/>
	<path class="st0" d="M1352.3,894c2,12.9,6.6,25.5,13.3,36.7c1.6-7.4,3.9-11.8,5.5-19.2c-0.9,10.3,1.8,20.8,7.5,29.4
		c6.2-8,12.4-15.9,18.6-23.9c-1.4,11.7-1.7,23.5-1.1,35.2"/>
	<path class="st0" d="M572.1,230.8c-0.4-2.9-0.9-5.7-1.3-8.6"/>
	<path class="st0" d="M614.2,218.5c-1.6-0.4-3.2-0.8-4.9-1.2c-4.6-1.1-10.2-3.5-10-8.2"/>
	<path class="st0" d="M649.7,298.1c18.6,4.8,38.6-10.2,61.6-17.2c6.3-1.9,13.4-9.5,19-13c5.6-3.5,14.5-5.8,21-7
		c14.1-2.6,18.7-8.6,33.1-8.8c16.6-0.2,33.3,1.3,49.6-1.3c13.4-2.2,26.1-7.1,39.2-10.6c15.1-4.1,33-0.3,55-8.3"/>
	<path class="st0" d="M630.2,258.5c0.2,2.5,3.1,3.8,5.5,3.8c2.5,0,5-0.7,7.3-0.1c0.8,0.2,1.5,0.6,2.3,0.8c2.3,0.8,4.7,1.1,7.1,0.7"
		/>
	<path class="st0" d="M630.3,265.8c7.3-0.6,14.8-0.2,22,1.3c0.9,0.2,1.8,0.4,2.6,0.2c2.5-0.5,3.4-3.5,4.7-5.7
		c0.2-0.3,0.4-0.6,0.6-0.7c0.3-0.2,0.8-0.2,1.2-0.2c2.9,0.1,5.8,0.2,8.7,0.4"/>
	<line class="st0" x1="818.5" y1="382.6" x2="818.3" y2="414.9"/>
	<line class="st0" x1="823.3" y1="382.9" x2="823.3" y2="414.9"/>
	<polyline class="st0" points="772.3,382.9 772.3,410.9 777.3,408.9 777.3,382.9 	"/>
	<polyline class="st0" points="782.2,384.5 782.3,431.9 786.3,431.9 784.9,386.5 	"/>
	<path class="st0" d="M720.3,388.9c0,0,6-2,8-2s5-4,5-4s3-2,5-4s5-7,7-7s4-1,6-2s6.2-4,6.2-4c5.7,4.3,11.4,8.7,17.2,13
		c1.3,1,2.6,2,4,3c4.9,3.7,9.9,7.5,14.8,11.2"/>
	<path class="st0" d="M724.3,382.9c0,0,8-4,10-6s10-9,11-9s10-7,10-7"/>
	<path class="st0" d="M725.4,387.4c0,0-0.1,39.5,1.9,42.5s2,6,2,6l4-2c0,0-4-18-4-29s0-18,0-18"/>
	<path class="st0" d="M1028.6,534.4c-0.5-1.4-2.6-1.6-3.7-0.7c-1.1,1-1.5,2.6-1.5,4c0,0.7,0,1.4,0.4,1.9c0.9,1.2,2.9,0.5,3.6-0.8
		c0.7-1.3,0.6-2.8,0.9-4.2"/>
	<path class="st0" d="M1035.6,525.3c-0.3,0-0.7,0.1-1,0.1c-0.4,1-0.7,2.1-0.6,3.2s1.1,2.2,2.2,2.1c0.4-1.3,0-2.8-0.9-3.7"/>
	<path class="st0" d="M1071.3,530.3c-3.2-0.3-6.1,3-5.4,6.1"/>
	<path class="st0" d="M1049.4,510.5c-0.6-1-0.4-2.2-0.2-3.4c0.2-1.1,0.5-2.3,0.1-3.4s-1.8-1.9-2.7-1.2c-0.6,0.4-0.8,1.1-0.9,1.8
		c-0.9,4.2-1.2,8.5-0.8,12.8"/>
	<path class="st0" d="M1009.1,538.2c-0.5-6.9,5-15.3,2-21.7c-3.9-8.1-6.1,5.2-0.6-1.4c1.9-2.3,2.8-5.9,4.2-8.5
		c2.1-4.1,4.4-8.1,6.6-12.2c0.8-0.3,1.3,0.8,1.4,1.7c0.2,1.4,0.3,2.9-0.4,4.1s-2.8,1.5-3.5,0.3"/>
	<path class="st0" d="M1018,512.3c-1.7-0.4-3.9-0.6-4.7,0.9c-0.7,1.4,0.9,3.3,2.5,3s2.4-2.3,1.8-3.8"/>
	<path class="st0" d="M1013.4,523.5c-0.9,0.7-0.2,2.5,1,2.5s1.9-1.6,1.4-2.6c-0.6-1-2.1-1.2-3.1-0.5"/>
	<path class="st0" d="M1016.5,504.1c0.4,0.7,0.9,1.5,1.6,1.9c0.8,0.4,1.9,0.1,2.1-0.7c0.2-0.9-1-1.7-1.7-1.1"/>
	<path class="st0" d="M1165.5,530.3c-0.3,6.2,1.9,12.5,6,17.2"/>
	<path class="st0" d="M1217.6,533.3c-1.3,2-1.8,4.5-1.4,6.9c2.8,0.1,5.6,0.1,8.5,0.2"/>
	<path class="st0" d="M1261.8,544.2c4.8,1.7,10.6-3,10-8.1"/>
	<path class="st0" d="M1333.9,506.2c6.7,4.4,15.4,5.8,23.1,3.7"/>
	<path class="st0" d="M1403.1,549c3.6-3.8,9.4-5.4,14.4-4.1"/>
	<path class="st0" d="M1443.3,533.9c-1.4,6.7-5.1,12.2-4,19c0.6,3.7,0,7.3,3.7,7.5c4.5,0.3,6.5-5.5,7-9.9"/>
	<path class="st0" d="M1468.3,525.9c13.1,9.3,27.7,9.8,34,5"/>
	<path class="st0" d="M1483.8,544.7c-1.9,0.3-1.7,3.6,0.1,4.2s3.7-0.9,4.3-2.7c0.6-1.8,0.1-3.8-0.3-5.6"/>
	<path class="st0" d="M1544.3,543.3c6.5,4.7,16.6,3.3,21.5-3.1"/>
	<path class="st0" d="M1593.1,556.5c5.2,4.8,11.9,7.9,18.9,8.5"/>
	<path class="st0" d="M1613.7,615.3c-1.2-15.1,18.7-15.9,28.6-20.7c-3.7-2.3-8.5-2.8-13-2.3"/>
	<path class="st0" d="M1639.4,559.2c-2.6,1.7-3.8,5.4-2.7,8.3c1.7,0.4,3.6,0.4,5.3,0c0.1-2.3,0.1-4.7,0.2-7"/>
	<path class="st0" d="M1643.6,600.9c4.1,8.1,15.2,11.7,23.2,7.4"/>
	<path class="st0" d="M1616.3,599.4c3.9-13.1,16.6-23,30.2-23.6"/>
	<path class="st0" d="M1690.8,614.1c4.1,7.4,13.9,10.9,21.8,8"/>
	<path class="st0" d="M1731.3,639.6c-2.3,2.2-1.1,6.9,2,7.7c1.3-2.2,1.7-5,0.9-7.5"/>
	<path class="st0" d="M1538.9,956.7c-1.6-6.3-5.1-12-10-16.2c-1.6-1.4-3.6-3.2-3.1-5.3c5.2,1.6,10.1,4.4,13.9,8.3
		c-1.3-4.1-2.7-8.2-4-12.3c-0.9-2.7-1.1-6.6,1.6-7.3c2.4-0.7,4.3,2.1,5.3,4.4c1.3,3.1,2.7,6.3,4,9.4c-0.4-6.4,0.6-12.9,2.7-19
		c0.7-2,2.3-4.4,4.4-3.9c2.1,0.5,2.5,3.2,2.4,5.4c-0.2,5.4-0.3,10.8-0.5,16.2c1.8-3.6,5.3-6.3,9.3-7.2c-0.4,2.3-1.2,4.4-2.1,6.6
		c-2.2,5.5-4.3,10.9-6.5,16.4"/>
	<path class="st0" d="M1574.9,804.4c-2.3,1.6-0.7,6.1,2.2,6s4.6-4,2.8-6.3"/>
	<path class="st0" d="M1572.8,814.5c-3.8,4.5-6.2,10.2-7,16.1"/>
	<path class="st0" d="M1585.5,819.3c-1.7,0.7-0.6,3.7,1.2,3.7c1.8-0.1,3-2.1,3-3.9"/>
	<path class="st0" d="M1581.6,828.3c-2.2,2.8-3.2,6.6-2.7,10.2"/>
	<path class="st0" d="M1599,829.8c3.2-5.7,9.4-9.5,15.9-10"/>
	<path class="st0" d="M1622.1,814.8c-0.8-0.2-1.7,0-2.3,0.6c0.1,1.2,0.2,2.3,0.3,3.5c1.7,0.9,3.7,1.1,5.6,0.6c0-1.6,0-3.2,0-4.7"/>
	<path class="st0" d="M1747,980.1c1.3-1.7-0.4-4.5-2.5-4.8c-2.2-0.3-4.2,1.2-5.4,3.1c-1.2,1.8-1.7,4-2.6,6c-0.2,0.5-0.5,1.1-1.1,1.3
		c-0.5,0.2-1,0.1-1.5,0.1c-3.3-0.2-6.4,2.8-6.4,6c1.7,0.1,3.5,0.2,4.9,1.2c1.4,1,2.1,3.1,1,4.4c0.8,0.5,1.7-0.2,2.3-0.9
		c4.2-4.6,8.3-9.2,12.5-13.8"/>
	<path class="st0" d="M1770.2,988.2c1.1-4.6-1.7-9.8-6-11.5c-4.3,6.6-7.6,13.8-10,21.3c2,1.1,4.8-0.3,5.2-2.5
		c2.3,1.2,5.3,0.9,7.3-0.8c2-1.7,2.7-4.6,1.9-7.1"/>
	<path class="st0" d="M1435.4,1064.5c-1.9,4.2-0.5,9.6,3.1,12.5c1,0.8,2.2,1.4,3.5,1.4c2.7,0.1,4.9-2.5,5-5.2c0-2.7-1.8-5.1-4.2-6.3
		s-5.2-1.3-7.8-0.9"/>
	<path class="st0" d="M1384.2,1086c-6.4,3.8-13.8,5.5-21,7.2c-20.1,4.7-40.3,9.4-60.4,14.1c-0.9,0.2-1.9,0.5-2.5,1.2
		c-1.9,2.3,1.7,5.1,4.6,5.6c20.6,3.8,40.7-6.9,61.1-11.8c7.8-1.9,15.9-2.9,23.3-6s14.3-8.6,16.5-16.4
		C1408.5,1070,1386.8,1084.4,1384.2,1086z"/>
	<path class="st0" d="M1670,1024.5c-2,2.2-3.5,4.8-5.5,6.9c-6.5,6.8-16.6,8.5-25.9,9.8c-9.9,1.4-19.9,2.7-29.8,4.1
		c-27.2,3.7-55,7.4-81.8,2c-5.1-1-10.9-3-12.7-7.9c-1.4-3.7-0.1-8.3-2.4-11.5c-2.4-3.3-7.3-3.1-11.4-2.7c-8.9,1-17.8,2-26.7,3
		c-2.4,0.3-5,0.6-6.9,2.1c-4.7,3.6-2.6,11.7,2.4,14.8c5,3.1,11.4,2.7,17.2,2.1c-5.9,0.8-11.7,2.2-17.4,4.2c-2.6,0.9-5.6,2.4-6.1,5.1
		c-0.9,4.7,5.6,7,10.4,7.3c22.9,1.2,45.9,2.5,68.8,3.7c3.9,0.2,8.8,1.2,9.8,5c0.4,1.6,0,3.3,0.3,4.9c0.7,4.3,5.9,6.1,10.1,6.7
		c6.4,1,12.9,1.4,19.4,1.2c11.1-0.3,22-2.4,32.9-4.2c41.9-6.8,84.4-9.6,126.9-8.2c20.4,0.7,41.2,2.2,60.9-3c2-0.5,4.4-1.5,4.8-3.6
		c0.5-2.6-2.5-4.5-5-5.5c-10.2-3.7-20.9-6-31.8-6.7c-3.9-0.3-9.1-1.7-8.9-5.6c5.3-1.9,10.5-4.4,15.4-7.4c1.5-0.9,3-1.9,3.7-3.5
		c2.2-4.8-4.2-9-9.3-10.4c-17.5-4.7-35.7-7.1-53.9-7.2C1701.7,1020.1,1682,1010.9,1670,1024.5z"/>
	<path class="st0" d="M1632.2,1104.1c1.2-1.1,2.2-2.7,1.9-4.3c-0.4-2.5-3.8-3.6-5.9-2.3c-2.1,1.3-3,4-2.7,6.5s1.6,4.7,2.8,6.9
		c1.8,3.2,3.6,6.4,5.4,9.5c0.1,0.3,0.3,0.5,0.5,0.7c1.2,0.9,2.6-0.9,2.9-2.3c0.9-5.2-1.2-10.8-5.4-14.1"/>
	<path class="st0" d="M1774.7,1084c-6.5-1.3-13-2.5-19.5-3.8c-0.4-0.1-0.9-0.2-1.3,0c-0.9,0.3-1.3,1.4-1.2,2.4
		c0.3,2.8,3.1,4.5,5.8,5.5c4.8,1.9,10.1,2.6,15.3,2.3c1-1.4,1-3.5,0.1-4.9"/>
	<path class="st0" d="M1640.7,1147.7c2.3-0.3,4.8-1.3,5.5-3.5c0.9-2.4-0.9-5.2-3.2-6.2c-2.3-1-5.1-0.8-7.6-0.2
		c-2.3,0.5-4.6,1.3-6.9,0.8c-1.6-0.4-3-1.3-4.5-2c-4.8-2-11.6,0.3-12.3,5.5c-6.4,0.5-12.6,2.6-18,6c-3,2-6,4.6-6.7,8.2
		c-0.6,3.1,0.6,6.4,2.8,8.7c2.1,2.3,5,3.8,8,4.9c7.4,2.6,35,4.8,40.3-2.9C1645.2,1156.8,1618.4,1150.2,1640.7,1147.7z"/>
	<path class="st0" d="M522.3,1298.9c0,0,13-8,23-9s24,0,24,0s18-38,38-48s51-31,82-25s58,30,66,54s12,65,12,65s23-2,40,10
		s34,35,34,35s9-15,29-5s39,26,39,26s18-21,37-26s49-8,76,4s35,25,38,45s0,33,0,33s12-6,30,4s18,10,18,10s10-12,29-10s28,10,28,10
		s5-19,38-19s44,12,45,19s0,7,0,7s6-6,18,0s15,11,15,11s16-32,46-35s29-4,44,6s26,21,26,21s7-5,15-4s15,4,15,4s4-10,13-11s13,0,13,0
		"/>
	<path class="st0" d="M1447.3,1475.9c0,0-3-19,15-30s39-4,48-3s25,18,25,18l5-3c0,0,2.1-16.1,14-29c12-13,33-18,33-18
		s-7.8-18.7,0-44c8-26,34-66,59-72c16.3-3.9,43.7-9.1,64.1-12c19.5-2.7,39.5,0.2,57.1,9c10.4,5.2,20.2,12.3,22.7,22c5,19,5,19,5,19
		s3-11,27-15s41-4,41-4"/>
	<path class="st0" d="M489.5,1026.8c34.4-6.7,72.5,9.4,103.7-7.1c0.9-0.5,1.8-1.1,2.4-2c3.5-4.7-2-9.8-6.8-12.2
		c-15.8-7.7-33.4-11.9-51-12.1c-5.2-0.1-10.6,0.2-15.4-2.6c-2.2-1.3-4-3.3-4.8-5.8c-2.3-7.9,6.6-13.6,14.3-15.6
		c13.7-3.6,28.3-3.7,42-0.2c6.3,1.6,12.4,3.9,18.5,5.9c16.3,5.2,33.2,8.1,50.1,10.5c29,4.1,58.5,6.7,87.5,2.9
		c10.1-1.3,20.3-3.4,30.4-1.6c9,1.6,17.2,6.2,25.2,10.5c0.7,0.4,1.4,0.8,2,1.4c5.9,6-4.5,13.6-4.3,21.2c0.1,5.4,5.5,9.2,10.8,10.4
		c5.2,1.2,10.8,0.8,15.9,2.4c-17.5,2.1-35.3,2.9-52.9,2.2c-2.3-0.1-4.4-1.9-4.6-4.2c-0.2-2.6,1.9-3.5,3.7-4.5
		c5.1-2.6,9.6-6.5,13-11.3c0.7-1,1.4-2.2,1-3.4c-0.4-1.2-1.7-1.8-2.9-2.2c-8.5-3.1-17.2-6.3-26.2-7c-9.1-0.7-18.7,1.5-25.2,7.9
		c3.8-1.5,8.2,2.1,8.4,6.2c0.2,4.1-2.7,7.8-6.3,9.7s-7.8,2.4-11.8,2.8c-21.9,2.5-44.1,5.6-63.8,15.5c-1,0.5-2,1.2-2.8,2.1
		c-4.6,5.5,2.7,12.2,7.7,14.2c2,0.8,3.9,2.1,5.2,3.8c5.9,7.9-1.3,13.4-7.5,16.3c-17.6,8-52.1,12.2-56.5,6.9
		c-3.1-3.8-3.3-6.2,0.8-9.4c2.2-1.7,1.7-5.1-0.8-6.2c-9.2-3.7-22.5-5.3-31-6.5c-7.3-1-14.5-0.9-21.7-2.2c-14.5-2.7-30.8,3-43.3-4.8"
		/>
	<path class="st0" d="M461.5,1027.9c-11.2,0.9-22.5,0.9-33.7,0c-8.3-0.7-16.7-1.8-25-1.7c-9,0.2-18,1.8-26.5,5
		c-5.8,2.2-12,6.1-12.4,12.3c-0.3,5.1,3.9,9.5,8.7,11.2s10,1.4,15,1.1c27.1-1.6,62.7,10.1,81.5,0.4"/>
	<path class="st0" d="M827.9,1066.5c-0.8-3.8,2.7-7.8,6.6-7.6c0.4-2.2-2.4-3.3-4.6-3.6c-28.1-3.7-56.5-5.9-84.9-6.4
		c-17.4-0.3-35,0-51.7,4.8c-2.8,0.8-5.8,1.9-7.7,4.1c-2.5,2.8-2.8,7.4-0.6,10.5c2.1,3.1,6.5,4.4,10,3.1c1.3,3.2,1.6,6.8,0.7,10.1
		c-4.3-1-8.6,3.2-8.8,7.6c-0.2,4.4,2.8,8.5,6.6,10.7s8.3,2.9,12.7,3.3c17.1,1.6,34.4-0.4,51.4-3.1c4.8-0.7,11.8,0,12,4.9
		c0.2,4.6-5.9,6.2-10.4,6.6c-6.9,0.5-13.8,1.4-20,4.3s-11.8,7.9-13.9,14.4c20.3,8.6,43.5,4,65.5,3.7c6.3-0.1,12.7,0.2,18.8-1.3
		c21.4-5,35.8-29.4,57.8-29.5c2.8,0,5.6,0.4,8.2-0.5c2.6-0.9,4.9-3.6,4.1-6.2c-0.6-1.9-2.4-3-4.1-3.9c-9.2-5.2-18.5-10.4-27.7-15.6
		c-3.8-2.1-7.5-4.2-11.4-5.5C833.3,1070.1,829,1072,827.9,1066.5z"/>
	<path class="st0" d="M853.7,1093.6c-2.1-0.7-4.3-1.4-6.5-0.9s-4,2.8-3.3,4.8c0.6,1.7,2.6,2.5,4.4,2.9c1.6,0.3,3.3,0.5,4.8,0
		s2.9-1.9,2.8-3.6c0-1.6-1.9-3-3.4-2.3"/>
	<path class="st0" d="M845.9,1007.9c-15.4-5-32.7-9-47.1-1.7c-1.6,0.8-3.4,2-3.7,3.8c-0.5,2.6,2,4.7,4.2,6.2
		c9.7,6.5,19.6,13.1,31,15.4c9.1,1.8,18.8,0.9,27.4,4.3c14.3,5.7,21.4,21.4,31.9,32.7c8,8.5,18.2,14.5,28.2,20.4
		c14.6,8.6,31.9,17.4,47.5,11c1.4-0.6,2.7-1.3,3.6-2.4c2.3-3.1-0.2-7.8-3.6-9.6c-3.5-1.8-7.5-1.7-11.3-2.6c-15.4-3.5-23-20.6-35-31
		c-5.1-4.5-11.6-8.2-14-14.5c-4.5-11.6,0.1-23.9-16.1-24C873.4,1015.8,860.6,1012.7,845.9,1007.9z"/>
	<path class="st0" d="M961.9,1030.9c-4.1-0.7-8.3-1.4-12.2-3.1c-1.7-0.8-3.5-1.8-5.5-1.6c-1.9,0.2-3.6,2.6-2.4,4.1
		c4.1,2.4,8.3,4.8,12.4,7.2c2,1.2,4.2,2.4,6.5,2.3c2.3,0,4.8-1.8,4.7-4.1c-0.1-2.7-3.3-4.1-5.9-4.8"/>
	<path class="st0" d="M990.7,1048.9c-4.8-0.5-7.4-6-11.7-8.2c-0.6-0.3-1.2-0.5-1.8-0.5c-1.1,0-2,0.7-2.6,1.6c-2.3,3.1-1,8.3,2.6,9.9
		c-1.2,1-2.8,1.5-4.3,1.5c-0.9,3.4,2.8,7.1,6.2,6.1c1.7-0.5,3.1-1.9,4.9-1.9c0.6,0,1.3,0.1,1.9-0.2c0.4-0.3,0.6-0.7,0.8-1.2
		c1.1-2.5,2.2-5.1,3.3-7.6"/>
	<path class="st0" d="M936.9,1002.5c-1.5,1.3-4.1-0.6-3.8-2.6s2.5-3.2,4.5-3.2s3.8,1.1,5.6,2c13.7,7.6,27.4,15.3,39.7,24.9
		c6.5,5.1,13.1,11,21.2,11.9c0-5,5.1-8.7,10.1-9s9.7,2,14.2,4.1c17.1,8.3,34.1,16.6,51.2,24.8c2.5,1.2,6.3,2.1,7.5-0.4
		c0.4-0.9,0.4-1.9,0.2-2.9c-1.3-7.1-8.1-11.6-14.3-15.3c-15.2-9-30.3-17.9-45.5-26.9c-6.5-3.8-14.4-7.7-21.1-4.4
		c-6.7,3.4-9.3,12.8-16.6,14.5c-4,0.9-8.1-0.9-11.7-2.7c-9.7-4.6-19.3-9.3-29-13.9"/>
	<path class="st0" d="M1015.5,1048.3c-2.9-1.4-6.3-2.9-9.2-1.6c-3.6,1.6-4.5,6.7-2.8,10.3c1.7,3.6,5.2,5.9,8.6,8
		c7.1,4.4,14.6,8.5,20.3,14.6c-11.5,1.3-22.4-5-33.7-7.6c-1.7-0.4-4.1-0.3-4.5,1.4c-0.2,0.8,0.2,1.6,0.6,2.3
		c4.9,8.2,14.7,11.8,23.3,15.9c11.1,5.2,21.4,12,30.7,20c2.1,1.8,4.2,3.7,6.8,4.5c2.6,0.8,5.9-0.1,7.1-2.5c1.1-2.4-0.2-5.2-1.6-7.5
		c-2.6-4.6-5.2-9.1-7.8-13.7c3.1-3.5,8.9-1.4,12.7,1.4s8.3,6.2,12.6,4.4c3.9-1.6,5.2-6.9,3.7-10.8s-5-6.7-8.5-9.1
		c-9.9-6.8-20.8-9.6-31.2-15C1033.5,1058.5,1024.8,1052.9,1015.5,1048.3z"/>
	<path class="st0" d="M1130.5,1066.4c-1.1,1.6-3.7,0.8-5.3-0.3c-1.6-1.1-3.8-2.4-5.4-1.3c-1.8,1.9-1.1,5.3,0.8,7s4.7,2.2,7.4,2.2
		c1.6,0,3.3-0.3,4.4-1.4c1.1-1.1,1-3.4-0.5-4"/>
	<path class="st0" d="M949.7,966.8c-2.7,2.3-5.4,4.7-7,7.9s-1.6,7.3,0.8,9.9c1.7,1.9,4.4,2.6,6.5,3.9c1.9,1.2,3.5,2.9,4.5,4.8"/>
	<path class="st0" d="M988.4,969.8c-6-3.1-14.3,0.2-16.7,6.5c-0.1,0.4-0.3,0.8-0.1,1.2c0.3,1,1.8,0.9,2.8,0.7c3.6-1,7.2-2,10.8-3.1
		c2-0.6,4.2-1.4,5.1-3.2c0.9-1.9-1-4.8-2.8-3.8"/>
	<path class="st0" d="M796.3,1515.9c52.1,10.8,102.9,29.2,155,40c33.2,6.9,70.8,9.7,104,16.7c190.1,40.4,381.6,86.1,575.9,81.4
		c18.3-0.4,36.6-1.3,54.8,0.3c12.9,1.2,27.5-1.7,40.3-0.4c37,3.8,86.2-7.3,123-13"/>
	<path class="st0" d="M1353.9,1561.3c-11.7-5.7-24.9-7.2-37.8-8.6c-30.2-3.2-60.4-6.5-90.5-9.7c-33.7-3.6-67.4-7.2-100.6-13.7
		c-48.6-9.4-96.4-24.8-145.8-27.5c1.6,17.1,1.3,32.1,1.1,49.3c0.4-2.9,4.5-3.4,7.4-3c32.2,4.2,64,11,95.8,17.7
		c31.9,6.8,63.8,13.6,95.7,20.3c54.1,11.5,108.1,23,162.2,34.5C1341.7,1602.2,1348.4,1579.2,1353.9,1561.3z"/>
	<path class="st0" d="M1347.3,1583.3c8.5-6.1,20.1-0.9,30,2.5c7.5,2.6,15.4,4,23.2,5.3c53.8,9.4,107.8,17.9,161.9,25.5
		c38.4,5.4,77,10.3,115.7,9c15.3-0.5,30.7-2.1,46-2.2c16.3-0.2,33-1.9,49.3-2.4c28-0.9,55-8,82.5-10.7"/>
	<path class="st0" d="M1352.5,1569.3c17.5,0,35,1.4,52.3,4.1c15.4,2.4,30.6,5.9,45.9,9.2c130.2,27.7,265.3,36.2,396.6,14.3"/>
	<path class="st0" d="M806.4,1490.5c58.1,10.1,116,21.5,173.6,34.1"/>
	<path class="st0" d="M805.3,1477.9c59,6.6,112.2,28.2,171.3,33.5c0.8,0.1,1.7,0.3,1.9,1c0.2,0.7-1.3,1.2-1.2,0.4"/>
	<path class="st0" d="M218.9,1091.5c-1.7-2.6-5.9-2.7-8.1-0.5c-2.3,2.1-2.7,5.7-1.8,8.7c1,3.3,4.5,6.3,7.8,5.1
		c3.5-1.4,3.8-6.2,3.4-9.9c-0.1-1.3-0.8-3.1-2.1-2.8"/>
	<path class="st0" d="M162.5,1312.8c21.9,15.4,44.8,32.2,68.8,44.1c-28.9-21.5-46-59.5-76.6-78.6"/>
	<path class="st0" d="M354.3,1185.9c0,0-14-10-18-8s-24-16-29-21s-25-13-29-14s-24-6-30-8s-14-3-20-6s-11-4-14-5s-19,2-26-3
		s-20,0-20,0"/>
	<path class="st0" d="M360.3,1189.9c0,0,10,8,15,11s17,9,20,11s16,13,16,13"/>
	<path class="st0" d="M426.3,1236.9l28,18c0,0,21,22,24,23s18,10,20,12s19,19,24,22s21,15,26,20s16,16,27,21s22,18,27,23
		s21,23,25,27s5,12,5,12l5,7c-4,3,1,8,1,8l6,5"/>
	<path class="st0" d="M166.3,1533.7c7.7,6.1,18.4,8.3,27.9,5.5c7.3-2.1,14.1-7,21.7-6.6c4.6,0.3,9.3,2.5,13.7,1.1
		c2.7-0.9,4.7-3.1,7.1-4.6c10-6.3,24.7-0.4,34.3-7.5c1.7-1.2,3.1-2.8,5-3.7c4.6-2,9.6,1.1,14.3,2.9c13.6,5.2,28.7-0.7,42-6.4"/>
	<path class="st0" d="M351.3,1506.8c-1.7,0-3.4,1.3-3.9,2.9c-0.4,1.2-0.2,2.4-0.4,3.7c-0.5,5-5.6,9.1-5.1,14.1
		c0.6,5.7,7.9,8.7,8.7,14.3c0.5,3.4-1.2,7.6,1.4,9.7c0.8,0.6,1.8,0.9,2.8,1.3c8.2,3.5,7.1,16.5,14.4,21.5"/>
	<path class="st0" d="M223.3,1534.9c2,12.9,1,26.3-2.8,38.8c-1.7,5.4-3.8,10.6-4.7,16.2c-0.9,6.5,0,13.1,1,19.6
		c-10.8,13.5-18.2,29.8-21.2,46.9"/>
	<path class="st0" d="M227.2,1573c-1.9,12.2-3.8,24.7-1.8,36.9c1.3,7.9,4.1,15.6,8.4,22.4"/>
	<path class="st0" d="M164.2,1695.6c19.8,2.6,39.7,5.1,59.7,4.7c17.1-0.4,34.2-3,50.9-7c18.8-4.5,37.7-10.8,57-9.6"/>
	<path class="st0" d="M347.1,1511.2c11.4,1.6,22.8,2.4,34.3,2.6c2.5,0,5.1,0,7.5-0.7c2.4-0.7,4.6-2.1,6.8-3.2
		c10.2-5.2,22.6-5.6,33.1-1.2c1.2,0.5,2.4,1.1,2.8,2.3c0.5,1.2-0.1,2.5-0.5,3.8c-7.3,20.6,13.3,42.1,9.8,63.7"/>
	<path class="st0" d="M440.6,1543.5c2.9,8,4.9,16.4,5.8,24.9c0.9,8.5,1.4,18.2,8.1,23.5c1.1,0.8,2.3,1.5,3.1,2.6
		c0.7,0.8,1.2,1.9,1.7,2.9c1.4,3.1,2.9,6.3,4.3,9.4"/>
	<path class="st0" d="M432.6,1511.9c8.2,1.9,16.9,1.5,24.8-1.1c5.5-1.8,10.7-4.6,16.5-5.5c4.1-0.6,8.3-0.3,12.4-0.5
		c6.4-0.4,13.4-0.8,18.8-4.4c27.3-18.4,43.3-4.4,49.3-16.4c1.3-2.7,2.7-4.9,5.4-6.2c2.7-1.3,5.7-1.5,8.7-1.4c3,0,6,0.3,8.9,0"/>
	<path class="st0" d="M478.8,1534c-1.4-0.1-1.4,2-1,3.3c3.3,8.8,6.6,17.7,9.9,26.5c0.6,1.5,1.1,3,2.3,4.1c1.8,1.8,4.5,2.2,6.3,4
		c1.1,1.1,1.7,2.6,2.5,3.9c3.3,5.7,10.5,9.1,11.9,15.6"/>
	<path class="st0" d="M475.1,1505.2c4.4,13.9,9.3,27.7,14.9,41.1"/>
	<path class="st0" d="M488.8,1526.8c0-0.7,0-1.3-0.1-2c1.5,13.2,8.1,25.6,18.2,34.3"/>
	<path class="st0" d="M487.2,1505.3c0.9,3.1,2.5,6,4.5,8.5"/>
	<path class="st0" d="M495.3,1505.2c-0.4,3.9,0.9,7.9,3.6,10.8"/>
	<path class="st0" d="M501.8,1507.4c-0.2,1.9,1.1,3.8,2.8,4.4"/>
	<path class="st0" d="M471,1627.5c-9.9,9.9-20.3,20.1-33.5,24.5c-27.1,9-55.8-8.8-84.4-9c-2.9,0-5.8,0.2-8.5,1.3
		c-4.9,2.1-7.9,7.1-9.1,12.3s-0.6,10.5,0,15.8c3.4-0.3,6-3.9,5.4-7.2"/>
	<path class="st0" d="M362,1656c-3.2-1-6.8,0.1-9.3,2.2c-2.6,2.1-4.3,5.1-5.7,8.1c-3.9,8.3-5.8,17.6-5.5,26.7c0,0.8,0.1,1.6,0.7,2.1
		c0.5,0.4,1.2,0.4,1.9,0.3c3.1-0.4,6.2-1.8,8.5-3.9c-0.7,3.1,2.4,6.4,5.5,5.9c2.4-0.4,4.2-2.6,5-4.9c0.8-2.3,0.8-4.8,1-7.2
		c0.1-1.4,0.4-2.8,1.1-4c2-3.3,6.7-3.5,10.6-3.2"/>
	<path class="st0" d="M382,1677.2c-2.1,5.5-2.6,11.6-1.5,17.4"/>
	<path class="st0" d="M391,1698.9c-1.4-8.3,3.5-17.3,11.3-20.7c2.7-1.1,5.5-1.7,8.4-2c7.1-0.9,14.4-0.9,21.2-3.1
		c6.5-2.1,12.3-6.3,16.3-11.9"/>
	<path class="st0" d="M353.9,1634.3c-0.9-1.2-2.8-1.4-3.9-0.4c-1.9,1.8,0,5.3,2.6,5.7c2.6,0.4,5-1,7.2-2.4"/>
	<path class="st0" d="M464.3,1655.7c-0.1-0.9-1.5-1-2.1-0.4c-0.7,0.6-0.8,1.6-0.9,2.5c-0.2,1.7,0,4,1.6,4.5c1.4,0.4,2.7-0.9,3-2.3
		c0.2-1.4-0.3-2.8-0.8-4.1"/>
	<path class="st0" d="M472.1,1654.9c1.7-3.6,5-6.5,8.9-7.6"/>
	<path class="st0" d="M455,1666.6c-1.5,0.3-2.5,1.9-2.1,3.4c3.1,0.7,6.5-0.4,8.5-2.8"/>
	<path class="st0" d="M456.1,1693.1c-0.3,2.3-2.2,4.4-4.5,4.8c-3.2-4.5,1.5-10.7,6.8-12.5c5.2-1.7,11.2-1.3,15.9-4.1
		c5.5-3.2,7.9-9.8,9.9-15.8c2.7-8.2,6.4-10.4,9.1-18.6c1.1-3.4,6.6-8.4,9-11c5-5.5,8.4-10,15.8-8.8c7.3,1.2,15.1,3.2,22,0.4"/>
	<path class="st0" d="M478.3,1161.9c0,0,4,6,5,8s3,7,3,8s1,7,1,8s6,11,7,14s5,15,7,19s12,27,12,27s-4-6-8-9s-8-16-9-19s-5-12-7-13
		s-8-15-8-15s-5-12-10-15s0-10,0-10s-3,1-7,2s-10-2-13-2s-8,8-11,9s-22,5-26,4s-21,5-26,8s-18,2-22,2s-12,3-16,4s-25,3-25,3
		s40-10,46-14s13-1,16-3s37-11,39-13s15-8,17-8s8,0,8,0s6-14,8-17"/>
	<path class="st0" d="M461.3,1131.9c0,0-4-8-4-11s5-18,4-21s2-10,3-12s9-47,9-50s6-20,6-23s2-7,2-7s-6,58-6,63s-4,18-3,22
		s-4,16-2,20s-1,15-1,17s-3,4-3,5s3,7,3,7"/>
	<path class="st0" d="M461.4,1136.2c0,0.4,0,0.7,0,1.1"/>
	<path class="st0" d="M475.5,1149.6c-0.4-1.3-2.1-2-3.4-1.6c-1.3,0.4-2.3,1.6-2.8,2.9c-0.5,1.3-0.5,2.7-0.5,4.1c0,2,0.1,4.1,1.1,5.9
		c1,1.7,3.3,2.9,5.1,2c2-1,2.3-3.6,2.4-5.8c0-1,0.1-1.9,0.1-2.9c0-0.8,0-1.5-0.3-2.2s-1.1-1.2-1.8-1.1"/>
	<path class="st0" d="M459.6,1139.2c-2.3,0.1-4.6,0.2-6.9,0.3c-3.7,0.2-7.4,0.3-11,1.2c-7.3,1.7-13.8,6.1-21.2,7.4
		c-1.3,0.2-2.7,0.4-3.7,1.3c-1.6,1.3-1.7,3.7-1.7,5.8c0,2.3,0.2,5,2.1,6.4c1.1,0.8,2.4,1,3.8,1.1c2.4,0.2,4.8,0.3,7.3,0.2
		c0.7,0,1.6-0.7,1.1-1.1"/>
	<path class="st0" d="M475.3,1149.1c0.1-1.3,0.2-2.7-0.2-4c-0.4-1.3-1.4-2.5-2.7-2.7c-1.2-0.2-2.3,0.5-3.1,1.4s-1.2,2-1.7,3.1
		c-0.9,2.3-1.8,4.7-1.9,7.2c-0.2,2.5,0.4,5.1,2.1,7c1.7,1.9,4.5,2.7,6.8,1.7"/>
	<path class="st0" d="M417.9,1161.4c0,2.2,0,4.3,0,6.5"/>
	<path class="st0" d="M416.8,1184.5c-1,7.9-2,15.9-3,23.8c-0.8,6.7-1.7,13.5-1.3,20.3c0.2,3.8,0.8,7.6,0.5,11.3
		c-0.3,3.9-1.5,7.6-2.4,11.4c-5.9,23.8-0.9,49.7-9,72.8c-0.6,1.6-1.2,3.2-1.7,4.8"/>
	<path class="st0" d="M426.3,1177.9c-3.1,54.5,0,107-5,162"/>
	<path class="st0" d="M387.2,1313.1c5.1,3.5,8.3,9.5,8.2,15.7c4.6-0.5,9.2,3.1,9.8,7.6c4.5-0.4,9.2,0.8,12.9,3.3
		c0.5,0.4,1,0.7,1.6,0.9c1,0.3,2,0,2.9-0.2c2.8-0.7,6.6-0.9,7.9,1.7"/>
	<path class="st0" d="M554.4,1496.7c4.9,14.2,9.8,28.3,14.7,42.5"/>
	<path class="st0" d="M572.3,1534.7c2.1,4.9,4.2,9.9,6.3,14.8"/>
	<path class="st0" d="M578.8,1503.4c-0.5,0.1-0.5,0.8-0.4,1.4c2.2,8.1,6,15.8,11.1,22.5"/>
	<path class="st0" d="M587.6,1505.5c-0.3,1.2,0,2.5,0.3,3.7c1.8,7.4,6.2,13.9,10.8,20c-0.1-0.3-0.2-0.6-0.4-1"/>
	<path class="st0" d="M596.3,1516c0.7,3.1,2.7,5.9,5.5,7.5"/>
	<path class="st0" d="M603.8,1515.7c0.4,1.1,1.2,2.1,2.3,2.5"/>
	<path class="st0" d="M555.1,1481.8c1.2,5.1,2.3,10.3,3.5,15.4c0.7,3,1.4,6.1,2.5,8.9c1.1,2.7,2.5,5.3,3.8,7.9c2,4.2,3.7,8.5,4.9,13
		c0-0.7,0-1.4,0.1-2.1"/>
	<path class="st0" d="M559,1477.6c2.4,8.9,4.8,17.9,7.2,26.8c0.1,0.2,0.1,0.4,0.3,0.4s0.2-0.4,0-0.3"/>
	<path class="st0" d="M576.1,1478.2c-0.4,9.2-1.3,18.4-2.7,27.5c4.2-2.1,8.5-4.2,12.7-6.4c1.9-1,3.9-2,5.3-3.5
		c1.2-1.3,1.9-2.9,3.2-4.1c2.1-1.9,5-2.3,7.8-2.6c5.8-0.6,11.5-1.2,17.3-1.8c-12.2-3-25.5-1.1-37-6"/>
	<path class="st0" d="M577,1461.3c0.4-1.1,0.5-2.3,0.3-3.5c0.2,4.9,0.3,9.7,0.5,14.6c0-0.4,0-0.9-0.1-1.3"/>
	<path class="st0" d="M632.8,1464.4c-12-0.4-23.9-2.7-35.8-5c-6.9-1.3-14-2.8-19.5-7.1c2-4,2.9-8.7,2.3-13.2
		c17.2,7.8,37.2,6.3,55,12.4"/>
	<path class="st0" d="M609.5,1488.7c0.3,2.6,1.6,5.1,3.5,6.8"/>
	<path class="st0" d="M614.1,1487.9c-0.5,0.1-0.4,1-0.1,1.4c2.6,4.1,5.4,8,8.5,11.7"/>
	<path class="st0" d="M505.7,1608.4c10.4-8.9,20.7-17.8,31.1-26.7c1.7-1.5,3.5-3,5.2-4.5c5-4.6,9.5-9.7,15.1-13.4
		c3.9-2.6,8.2-4.4,12.3-6.6c12.7-6.8,23.3-16.7,33.7-26.6c6.3-6,12.7-12.2,20.6-15.8"/>
	<path class="st0" d="M630.3,1514.8c-2.3-0.2-4.5-0.5-6.8-0.7c-0.2,0-0.5-0.1-0.7-0.3c-0.1-0.2-0.1-0.5-0.1-0.7
		c0.6-5.8,0.3-11.6,0-17.4c-0.2-3.2-0.3-6.3-0.5-9.5c-0.1-1.2,0-2.6,1-3.3c0.6-0.4,1.3-0.4,1.9-0.4c9.5-0.2,19.1,1.1,28.2,3.7"/>
	<path class="st0" d="M638.1,1474.3c-0.4-8.2-0.4-16.4-0.2-24.7c4.8,0.9,9.5,1.9,14.4,2c6.2,0.2,14,1.3,20,2.3"/>
	<path class="st0" d="M573.3,1504.5c3.6-1.9,7.2-3.9,9.6-7.2c0.7-1,1.3-2,2.2-2.8c2.5-2.1,6.6-1.1,9.1-3.2"/>
	<path class="st0" d="M628.3,1512.9c0,0-1-18,3-21s3-3,7-4s6,2,9,3s5,3,5,6s2.7,22.1,2.7,22.1c-0.4-0.3,0.5-0.7,0.7-0.3
		s-0.1,0.9-0.4,1.2c-10.2,12.5-21.4,24.2-33.4,35c-3.4,3.1-7,6.2-10.1,9.6c-4.2,4.7-7.6,10-12,14.5c-3.8,3.8-8.2,6.9-12.4,10.3
		c-9,7.1-17,15.4-23.8,24.7"/>
	<polyline class="st0" points="623.3,1482.9 635.3,1475.9 646.3,1471.9 	"/>
	<line class="st0" x1="644.3" y1="1450.8" x2="644.3" y2="1471.9"/>
	<path class="st0" d="M638.3,1449.9c0,0,6-4,8-5s9-3,9-3l5-2c0,0,7,2,11,2s15.8,3,18,3c4,0,24,5,27,5s48,8,48,8s21,4,25,4s13,3,13,3
		s3,19,3,27s-1,14-2,16s-13,13-15,16s-11,12-11,12l-5-1c0,0,0-20-2-22s-8-8-14-7s-12,6-12,11s0,18,0,18h-10c0,0,0-17,0-19s-3-7-4-8
		s-5-3-8-4s-12-2-13,2s-3,12-3,15s-1,8-1,8l-12-4"/>
	<path class="st0" d="M655.3,1519.9h6c0,0-1-31,0-32s18-5,18-5l-2-7l-1-18"/>
	<path class="st0" d="M644,1456.3c8.8,1.9,17.7,3.2,26.7,3.7"/>
	<path class="st0" d="M683.4,1457.4c-1,7.5-1.6,15.1-1.7,22.7"/>
	<path class="st0" d="M678.7,1461.4c1.7-0.2,3.5-0.1,5.2,0.2c1.8,0.4,3.5,1,5.2,1.6c6.1,2,12.6,2.8,19,2.3"/>
	<path class="st0" d="M679.7,1453.8c9.6,2.5,19.5,4.3,29.4,5.3"/>
	<line class="st0" x1="712.3" y1="1463.9" x2="712.3" y2="1485.9"/>
	<line class="st0" x1="719.3" y1="1482.9" x2="720.3" y2="1461.9"/>
	<path class="st0" d="M717.3,1460.9c0,0,3,1,9,3s11,2,13,2s12,0,12,0"/>
	<path class="st0" d="M661.3,1487.9c0,0,11,0,15,1s10,3,13,3"/>
	<path class="st0" d="M665.3,1517.9c0,0,1-11,2-13s3-8,5-9s5-1,7,0s4,3,6,3s9,6,8,10s0,13,0,13"/>
	<path class="st0" d="M698.3,1526.6c0,0-1-9.7,0-11.7s2-14,2-14v-6c0,0,13,2,15,2s16,1,16,1l3,1"/>
	<path class="st0" d="M720.3,1467.5c0,0,14,2.4,16,2.4s15,2,15,2v16"/>
	<path class="st0" d="M758.3,1468.9c0,0,1,11,0,14s-1,7-1,7l-11,9l-8,2v34"/>
	<line class="st0" x1="700.3" y1="1494.9" x2="717.3" y2="1488.9"/>
	<path class="st0" d="M761.3,1467.9c0,0,10,3,12,3s15,3,15,3h6l-1,17"/>
	<path class="st0" d="M793.3,1495.9c0,0-1,14-2,17"/>
	<path class="st0" d="M739.8,1500.6l-0.4-4.6c0,0,11,1,13,2s13,1,13,1l12,2v3.5v28.5"/>
	<line class="st0" x1="789.3" y1="1493.9" x2="777.3" y2="1503.9"/>
	<line class="st0" x1="786.3" y1="1473.9" x2="786.3" y2="1491.9"/>
	<path class="st0" d="M758.8,1472.4c0,0,9.6,4.5,12.6,4.5s15,2.5,15,2.5l7-0.5"/>
	<line class="st0" x1="802.3" y1="1463.9" x2="793.3" y2="1473.9"/>
	<path class="st0" d="M694.5,1530.9c-13.6,8-22.8,21.6-33.7,33c-9.8,10.3-21.2,18.9-31.6,28.5c-11.3,10.3-21.6,21.7-30.7,34"/>
	<path class="st0" d="M633.3,1637.9c0,0,18-15,20-17s18-19,19-20s18-17,21-20s11-13,13-14s28-32,28-32"/>
	<path class="st0" d="M499,1663.8c3.6-5.2,7.3-10.3,11.1-15.3c1-1.3,2-2.6,3.4-3.4c2.7-1.5,6-0.8,9-0.6c6.9,0.5,13.9-1.9,19-6.5"/>
	<path class="st0" d="M466.3,1748.9c-1.1-1.4-2.1-3.4-1.1-4.7c1.1-1.5,3.4-0.7,5.2-1.1c3-0.7,4-4.3,4.9-7.2
		c1.3-4.4,3.3-8.5,5.4-12.7"/>
	<path class="st0" d="M488.1,1712.7c1.3-8.1,8.5-14.2,16.2-17.1c7.7-2.9,16-3.4,24.2-4.6c2.6-0.4,5.3-0.9,7.7-2.2
		c3.4-1.9,5.7-5.2,8.2-8.2c3.6-4.5,7.7-8.5,12.3-12.1c6.3-5,13.8-9.4,16.6-17"/>
	<path class="st0" d="M532,1655c10.1-2.6,16.4-12.4,25.1-18.2c3.6-2.4,7.6-4.1,11.3-6.2c10.1-5.7,18.1-14.5,25.6-23.4
		c8.1-9.6,15.9-19.9,27-26"/>
	<path class="st0" d="M554,1749.3c2.3-6.6,6.3-12.7,11.4-17.4c2.6-2.4,5.5-4.5,7.7-7.2c4.3-5.2,5.6-12.2,7.7-18.6
		c2.1-6.4,5.3-12.7,11.6-15.1c4.1-1.5,8.6,1.1,13,1c13.1-0.3,25.6-9.2,35.9-17.2c10.3-8,13-16.5,23.1-24.8c3.6-3,13.6-6.9,16.6-10.4
		c2.6-3.1,4.7-6.6,7.2-9.7c4.9-6.1,9.3-16.7,15.2-21.9c19-16.7,33.6-33.9,52.5-50.8c7.3-6.5,15.7-12.4,19.3-21.5"/>
	<path class="st0" d="M624.5,1855.1c-4.2-13.2-14.8-21.3-11.2-33.2c1.9-6.2,5.7-11.7,8.9-17.4c8.4-15.1,11.1-18.8,15.1-35.6
		c1.1-4.7,6.3-19,9-23c2.3-3.4,2.5-10.1,5.7-12.7c15.4-12.2,30.8-24.4,46.2-36.7c5.2-4.1,10.3-8.2,15.1-12.7c3.2-3,6.2-6.2,9.5-9
		c3.9-3.3,8.2-6,12.5-8.8c16.1-10.4,30.7-17.4,45.9-29.1"/>
	<path class="st0" d="M606.6,1704.6c-10.2,16.4-10,36.9-9.4,56.2c0.1,3.6,0.4,7.6,3.1,10c2.5,2.2,6.2,2.3,9.2,3.8
		c3.7,1.9,6,5.9,6.8,10.1c0.8,4.1,0.3,8.4-0.2,12.5c-4.5,3.9-13,0.4-13.4-5.6c-2,0.6-3.2,2.9-2.8,4.9"/>
	<path class="st0" d="M536.5,1699.6c-0.6,2.1-1.4,4.4-3.4,5.3c-1.3,0.6-2.8,0.4-4.1,0.9s-2.3,2.2-1.4,3.2
		c-13.6,4.3-25.2,14.4-31.2,27.3c-6,12.9-6.4,28.3-1,41.4c0.5,1.3,1.3,2.8,2.7,3.1c1.3,0.3,2.6-0.7,3.6-1.6
		c6.6-5.8,11.9-13.1,15.5-21.2"/>
	<path class="st0" d="M519.6,1774.4c-0.4-0.7-1.3,0.3-1.4,1.1c-0.6,4.1-1,8.3-1.1,12.5c0,0.4,0,0.9,0.2,1.2c0.3,0.5,1,0.7,1.6,0.7
		c1.9,0,3.6-1.2,4.7-2.7s1.7-3.3,2.3-5.1"/>
	<path class="st0" d="M543.5,1783.6c-0.6-0.9-1.8-1.3-2.8-0.9c-0.3,1.8-0.2,3.6,0.2,5.4c0.2,0.8,0.5,1.6,1.2,2
		c1,0.6,2.4-0.1,2.9-1.1c0.5-1,0.5-2.3,0.4-3.5"/>
	<path class="st0" d="M546.4,1754.3c-1-0.2-1.5,1.1-1.6,2.1c0,1.1,0.1,2.4,0.7,3.3s2,1.5,3,0.9c0.9-0.5,1.1-1.7,0.8-2.7
		c-0.3-1-1-1.7-1.8-2.4"/>
	<path class="st0" d="M532.5,1806.6c-1-0.5-2.2-0.6-3.2-0.2c-0.5,1.2-1,2.5-0.9,3.8s1.1,2.6,2.5,2.6c1.2,0,2.1-1.2,2.3-2.4
		c0.2-1.2-0.2-2.4-0.5-3.5"/>
	<path class="st0" d="M470.7,1751c-0.5,1.2-0.9,2.5-0.8,3.8c0.2,1.3,1.2,2.6,2.6,2.5"/>
	<path class="st0" d="M475.8,1749.5c-0.3,1.5,0.3,3.3,1.6,4.2c1.3,0.9,3.3,0.6,4.2-0.7c0.9-1.3,0.2-3.4-1.3-3.8"/>
	<path class="st0" d="M785.6,1527.3l-4.4,109.3c42.9,9.1,85.3,20.2,127,33.3c36.1,11.3,71.8,24.2,108.3,34.2
		c39.4,10.7,79.7,18.1,119.9,25.4c128.4,23.3,256.8,46.7,385.2,70c36.4,6.6,72.8,13.2,109.6,17.6c68.8,8.1,138.5,8.2,207.2,0.2"/>
	<path class="st0" d="M1195.6,789.9c-8.2,3.9-14.6,9.9-21.3,16c-1.4,1.3,0.6,6.2,0,8c-1,3.2,1.8,6.5,4,9c7.4,8.5,11.8,3.4,22,8
		c5.2,2.3,11.2,10,16.8,10.4c6,0.4,11.9-1.3,17.8-1.6c12.5-0.6,25.5,5.3,37.2,0.9c6.6-2.5,11.9-8,18.7-9.9c4.8-1.3,10-0.7,14.9-1.9
		c8-1.9,14-8.2,20.9-12.8c13.8-9.2,31-16.4,41.6-29.2"/>
	<path class="st0" d="M1205.6,801.4c-5.5,5.5-12.2,12.5-1.5,21.3c4.9,4.1,10.4,7.5,16.8,8.1c6.4,0.6,12.7-0.3,19.1-0.3
		c5.3-0.1,10.6,0.4,15.8-0.5c5.6-1,10.8-3.6,15.9-6.1c22.6-11.2,45.4-22.5,65.8-37.4"/>
	<path class="st0" d="M1217.6,809.6c-2.7,0.9-2.9,5-0.9,7.1s5.1,2.4,7.9,2.4s5.7-0.4,8.4,0.6c1.6,0.6,3,1.6,4.7,2
		c2.2,0.4,4.4-0.4,6.5-1.3c25.5-10.3,50.9-20.7,76.4-31"/>
	<path class="st0" d="M1216.3,791.9c0,0-7-9-10-23c-0.6-2.6-1.5-7.7-2.3-12.4c-0.1-0.4-0.2-0.9-0.2-1.3c-0.8-4.5-1.5-8.3-1.5-8.3h-9
		c0,0,7,40,22,49s24,9,33,7s66-21,70-23s37-21,46-34s11-31,11-31s-25,31-45,39s-50,16-74,13s-52-10-52-10"/>
	<path class="st0" d="M1203.2,751.9c0,0,62.1-6,87.1-15s45-19,47-22s2-3,2-3l36,2"/>
	<path class="st0" d="M1241.4,764.7c0,0,60.9-17.8,70.9-22.8s27-14,27-14s5,1,11,2s10.3,1.2,10.3,1.2"/>
	<path class="st0" d="M1205.5,764.7c0,0,15.8,6.2,26.8,8.2s22,4,22,4"/>
	<path class="st0" d="M1207.5,773.5c0,0,10.8,3.4,17.8,5.4s20,4,20,4"/>
	<path class="st0" d="M1211.1,782.9c0,0,12.3,3.2,16.3,4c5,1,10,1,10,1"/>
	<path class="st1" d="M1284.3,766.3l-3.2-13.6c0,0,6.2,3.2,12.2,5.2s12.2,4.2,12.2,4.2l-12.2,2.8L1284.3,766.3z"/>
	<path class="st2" d="M1295.9,748c0,0,8.9,3.5,11.9,4.5s14.4,4.5,14.4,4.5"/>
	<polyline class="st1" points="1318.9,738.5 1322.3,747.9 1334.7,751.9 1344,745.8 1320.6,737.6 	"/>
	<path class="st2" d="M1331.3,731.9c0,0,8.6,2.5,10.6,3.5s10.8,3.3,10.8,3.3"/>
	<path class="st0" d="M1548.3,697.9c0,0,7-9,10-23c0.6-2.6,1.5-7.7,2.3-12.4c0.1-0.4,0.2-0.9,0.2-1.3c0.8-4.5,1.5-8.3,1.5-8.3h9
		c0,0-7,40-22,49s-24,9-33,7s-66-21-70-23s-37-21-46-34s-11-31-11-31s25,31,45,39s50,16,74,13s52-10,52-10"/>
	<path class="st0" d="M1389.3,619.9"/>
	<path class="st0" d="M1561.5,657.9c0,0-70.1-9-95.1-18"/>
	<path class="st0" d="M1404,637.1"/>
	<path class="st0" d="M1523.3,670.7"/>
	<path class="st0" d="M1559.2,670.7c0,0-15.8,6.2-26.8,8.2s-22,4-22,4"/>
	<path class="st0" d="M1557.2,679.5c0,0-10.8,3.4-17.8,5.4s-20,4-20,4"/>
	<path class="st0" d="M1553.6,688.9c0,0-12.3,3.2-16.3,4c-5,1-10,1-10,1"/>
	<path class="st1" d="M1480.3,672.3l3.2-13.6c0,0-6.2,3.2-12.2,5.2s-12.2,4.2-12.2,4.2l12.2,2.8L1480.3,672.3z"/>
	<path class="st2" d="M1468.8,654c0,0-4.4,1-7.4,2"/>
	<line class="st2" x1="1389.3" y1="620.9" x2="1407.3" y2="619.9"/>
	<path class="st2" d="M1404.3,636.9c0,0,3-22,6-32c1-3.5,7-11,18-15s17-4,22-2s43,26,45,27s12.3,34,12.3,34"/>
	<path class="st2" d="M1428.4,609.2c7.8,4.5,15.1,9.9,21.8,16"/>
	<path class="st2" d="M1424.3,598.5c5.1,5.4,11.6,9.2,17.5,13.6c6.3,4.7,12,10.1,17,16.2"/>
	<path class="st2" d="M1495.3,614.9c0,0-22.5-5.7-27,13c-5,21-9,40-9,40"/>
	<path class="st0" d="M1462.9,651.4c0,0,28.4,9.5,33.4,10.5s28.6,8.5,28.6,8.5"/>
	<path class="st2" d="M1314.5,597.8c1.2,1.9,2,4,2.2,6.2c0.3,2.3-0.1,4.7,0.2,7s1.1,4.8,3.1,6c1.1,0.7,2.6,1,3.2,2.2
		c0.8,1.5-0.4,3.3-1.5,4.6c-2,2.2-4.4,4.7-7.4,4.4c0.1-4.1,0.2-8.2,0.4-12.4c-3,0.8-6.2-1-7.9-3.7c-1.7-2.6-2.1-5.8-2.4-8.9
		c-0.5-5-0.7-10-0.7-15c7.5,4.5,14.5,9.9,20.8,16c0.4,0.4,0.9,0.9,0.7,1.5c-0.1,0.4-0.5,0.7-0.8,1c-2.5,1.8-4.9,3.6-7.4,5.5"/>
	<path class="st2" d="M1334.2,638.6c-1.1-2.4-1.2-5.3-0.7-7.9s1.6-5.1,2.7-7.6c1.1-2.4,2.1-4.8,3.2-7.2"/>
	<path class="st2" d="M1304.5,603c2,0.4,4-0.8,5-2.5c1.1-1.7,1.3-3.8,1-5.8"/>
	<path class="st2" d="M1317.5,621.1c0.1,1.5,0.6,3.1,1.4,4.4"/>
	<path class="st2" d="M1319.7,619.6c0.6,1,1.2,1.9,1.8,2.9"/>
	<path class="st2" d="M1216,673.6c-1.8,1.8-3.2,4.1-4.1,6.6c-0.9,2.6-1.3,5.4-2.2,8c-0.9,2.6-2.5,5.2-4.9,6.1c-1.4,0.5-3,0.5-4,1.7
		c-1.3,1.5-0.6,3.9,0.2,5.7c1.3,3.1,3.1,6.5,6.2,7c1.1-4.8,2.2-9.6,3.3-14.4c2.8,1.8,6.7,0.4,9.1-2.2c2.5-2.6,3.9-6.2,5.1-9.7
		c2-5.6,3.7-11.4,5.2-17.2c-9,3.2-17.7,7.6-25.9,13.1c-0.6,0.4-1.2,0.9-1.2,1.6c0,0.5,0.3,0.9,0.5,1.3c2,2.7,3.9,5.5,5.9,8.2"/>
	<path class="st2" d="M1224.6,682.2c-2.1-0.1-3.8-2-4.4-4.2c-0.6-2.2-0.2-4.7,0.6-6.9"/>
	<path class="st2" d="M1206.1,699.7c-0.5,1.8-1.5,3.4-2.7,4.7"/>
	<path class="st2" d="M1204.2,697.3c-0.9,1-1.8,1.9-2.7,2.9"/>
	<path class="st2" d="M1609.4,776.1c-2,1.6-3.7,3.7-4.9,6.1c-1.3,2.5-2,5.2-3.2,7.7s-3.2,4.9-5.6,5.5c-1.4,0.3-3,0.1-4.1,1.2
		c-1.4,1.4-1,3.8-0.5,5.7c1,3.2,2.3,6.9,5.3,7.8c1.7-4.6,3.3-9.3,5-13.9c2.6,2.1,6.6,1.2,9.3-1.1s4.6-5.7,6.2-9
		c2.6-5.4,5.1-10.8,7.2-16.4c-9.3,2.1-18.5,5.4-27.3,9.8c-0.6,0.3-1.3,0.7-1.4,1.4c-0.1,0.5,0.1,1,0.4,1.4c1.6,3,3.2,5.9,4.8,8.9"/>
	<path class="st2" d="M1616.9,785.6c-2.1-0.4-3.6-2.4-3.9-4.7s0.4-4.7,1.5-6.8"/>
	<path class="st2" d="M1596.4,800.7c-0.8,1.7-1.9,3.2-3.3,4.3"/>
	<path class="st2" d="M1594.8,798.2c-1,0.8-2,1.7-3,2.5"/>
	<path class="st0" d="M1418.6,509c-3.7,1.7-8.5,0.6-11.1-2.6c0.3,2.4,0.6,4.9,0.8,7.3"/>
	<path class="st0" d="M1405.3,512.7c0.6,2-0.1,4.3,0.8,6.2c0.4,0.9,1.1,1.6,1.9,2.2c3,2.3,6.8,3.3,10.5,4c1.5,0.3,3.4,0.4,4.4-0.8"
		/>
	<path class="st0" d="M1438.8,525.1c-2.1-1-3.4-3.4-3.3-5.7c0.1-1.2,0.5-2.6-0.2-3.6c-0.8-1.2-2.9-1.1-3.8,0.2c-0.8,1.2-0.4,3,0.7,4
		s2.7,1.3,4.2,1.1"/>
	<path class="st0" d="M1468.4,702c4.8,5.3,11.9,7.6,18.7,9.7c6.6,2,13.3,4.1,20.1,5c11.4,1.5,23-0.2,34.2-3c2.6-0.6,5.6-1.7,6.5-4.2
		"/>
	<path class="st0" d="M1435.5,701.2c9.1,4.1,18.1,8.1,27.2,12.2c6.2,2.8,12.5,5.6,19.2,6.7c6,1,12.1,0.7,18.1,1.7
		c5.8,1,11.3,3.2,17.1,3.9c5.1,0.7,10.3,0.2,15.4-0.3c3.1-0.3,6.2-0.6,9.1-1.8c5.2-2.1,8.8-6.9,12.2-11.4c1.1-1.5,2.3-3.1,2.8-5
		c0.5-1.9,0.1-4.1-1.4-5.3"/>
	<path class="st0" d="M1418.8,707.9c27.5,17.8,59.5,28.5,92.1,31c5.5,0.4,11,0.6,16.4-0.4c4-0.7,7.8-2.1,11.6-3.5
		c7-2.7,13.8-5.8,20.3-9.3c6.7-3.5,13.8-8.6,14.5-16.1c0.2-1.7-0.1-3.5-1.4-4.7c-1.5-1.3-4.2-1.7-4.3-3.7"/>
	<path class="st0" d="M212.4,1084.7c0.4-4.5,0.8-9,1.2-13.6c0.3-2.9,0.5-5.8,1.3-8.7c0.8-2.9,1.9-11.6,2.4-14.6
		c1.2-6.8,0.5-13.6,9-29c0.2,18.4-1.4,38.4-4.5,56.6c-0.3,1.9-0.9,4.1-2.7,4.9"/>
	<line class="st0" x1="208.3" y1="1098.9" x2="208.3" y2="1118.9"/>
	<line class="st0" x1="219.4" y1="1102.3" x2="220.3" y2="1123.9"/>
	<path class="st0" d="M167.8,1109.9c2.7-2.1,6.4-2.2,9.6-3.4c4.4-1.5,7.8-4.9,11.6-7.6c3.8-2.7,8.7-4.7,13-3.1"/>
	<path class="st0" d="M176.1,1119.1c-1.1-2.1,0.9-4.7,3.2-5.4c2.3-0.8,4.8-0.4,7.1-1c5.3-1.3,9.6-4.5,13.9-7.7c1.4-1.1,1.5-2.3,2-4"
		/>
	<path class="st0" d="M218.8,1104.6c4.9,7.2,9.6,14.7,13.8,22.3"/>
	<path class="st0" d="M222.7,1100.2c4.6,3.4,8.6,7.7,11.7,12.5c4.7,7.4,7.4,16.2,14,21.9"/>
</g>
</svg>
