<?xml version="1.0" encoding="utf-8"?>
<!-- Generator: Adobe Illustrator 22.0.0, SVG Export Plug-In . SVG Version: 6.00 Build 0)  -->
<svg version="1.1" id="Layer_1" xmlns="http://www.w3.org/2000/svg" xmlns:xlink="http://www.w3.org/1999/xlink" x="0px" y="0px"
	 viewBox="0 0 30 30" style="enable-background:new 0 0 30 30;" xml:space="preserve">
<style type="text/css">
	.st0{fill:#546071;}
	.st1{fill:#FFFFFF;}
</style>
<g>
	<circle class="st0" cx="15" cy="15" r="14.5"/>
	<g>
		<g>
			<path class="st1" d="M9.9,20c0.4-0.9,0.9-1.7,1.6-2.5S13,15.9,14,15c1-0.8,1.7-1.5,2.1-1.9c0.4-0.4,0.7-0.8,0.9-1.3
				s0.3-0.9,0.3-1.5c0-0.8-0.2-1.5-0.7-1.9s-1.3-0.6-2.4-0.6c-1.2,0-2.4,0.2-3.7,0.7V6.2c0.6-0.2,1.2-0.3,2-0.5
				c0.8-0.1,1.5-0.2,2.2-0.2c1.7,0,3,0.4,3.9,1.3c0.9,0.8,1.3,2,1.3,3.5c0,1-0.2,1.9-0.7,2.6c-0.5,0.7-1.2,1.6-2.3,2.5l-0.4,0.4
				c-0.9,0.8-1.6,1.4-2.1,1.9s-0.9,1-1.2,1.6H20v2H9.9V20z"/>
		</g>
	</g>
</g>
</svg>
