<?xml version="1.0" encoding="utf-8"?>
<!-- Generator: Adobe Illustrator 22.0.0, SVG Export Plug-In . SVG Version: 6.00 Build 0)  -->
<svg version="1.1" id="Layer_1" xmlns="http://www.w3.org/2000/svg" xmlns:xlink="http://www.w3.org/1999/xlink" x="0px" y="0px"
	 viewBox="0 0 444 450" style="enable-background:new 0 0 444 450;" xml:space="preserve">
<style type="text/css">
	.st0{fill:none;stroke:#546071;stroke-linecap:round;stroke-linejoin:round;stroke-miterlimit:10;}
	.st1{fill:#546071;}
	.st2{fill:none;stroke:#546071;stroke-miterlimit:10;}
</style>
<g>
	<path class="st0" d="M37.7,34.6v1.3c0,0-0.7,0.1-1.5,0.1c-0.3,0-0.5,0-0.8-0.1c-0.2-0.1-0.4-0.1-0.6-0.2c-0.8-0.5-3.6,2.6-3.6,2.6
		s-3.4-1-4.2-1S24.9,35,24.9,35l-1-2.6l-2.1-0.8c0,0-2.9,0.3-3.9,0.8s-3.1-3.9-3.1-3.9s1.9,3.5,3,3c1-0.5,5.2-0.8,5.2-0.8l1.8,1
		c0,0,1.3,3.6,2.6,3.9c1.3,0.3,2.9-0.5,2.9-0.5s2.6-2.1,3.1-1.6s2.3,0,2.3,0h1.8c0,0-0.5-1.8-1-2.3s-4.9-1.3-4.9-1.3L27.9,29
		l-1.8,0.8c0,0-2.3-1.3-3.6-2.3s-2.3-2.3-2.3-2.3"/>
	<polyline class="st0" points="18.8,25.1 17.8,28 17,29.5 16.6,30.8 	"/>
	<path class="st0" d="M35.5,35.8v1.6V40l1.3,1v2v1.8l-0.8,1l0.8,1.8c0,0-0.5,1.8-0.8,1.8s-0.3,1.3-0.5,1.8c-0.3,0.5-0.8,1.8-0.8,1.8
		l-1,1h-1.3c0,0-0.8,1-0.8,1.6s0,1,0,1h-1.8c0,0-0.3,1-1,0.8c-0.8-0.3-1-0.3-1.6,0s-1,1.3-1,1.3h-1.8c0,0-3.1,1-3.4,0.8
		s-3.1,0-3.1,0S15,59,13.7,60s-2.9,1.3-2.6,0.5s0-0.8,0-0.8s-2.9,2.3,0,2.3s2.9-2.9,3.6-2.3c0.8,0.5,2.3,1.6,2.3,1.6s2.3-1,3.6-0.8
		s3.6-1,5.2-0.8s4.7-1.6,5.7-1.3s1,1,1,1L30.9,61c0,0-1.8,2.1-2.1,2.1s-2.9,0.8-2.9,0.8s-1.3-0.3-2.1,0.8c-0.8,1-2.3,1.3-2.3,1.3
		l-1.8,0.5h-2.1c0,0,1.6,1.3,2.3,1.3c0.8,0,3.1-0.8,3.1-0.8l2.1-1.3c0,0,3.1-1,3.6-1s1.6-1,2.6-1.3c1-0.3,3.1-1.8,3.1-1.8l2.1-1
		l1.6-0.3l0.8,0.8l1.6-0.3c0,0,0.3,2.6,1.3,2.6s1.3-0.5,2.3,0s1.3,0.3,2.1,0.8s3.6,0.5,3.9,0.5s0.8,0.3,2.1,0.3s2.3,1.6,3.1,0.8
		s1.3-2.1,2.9-1.8c1.6,0.3,2.1,1,2.9,1c0.8,0,3.1-0.5,3.1-0.5h-2.9c0,0,0.5-1-2.3-1.3s-4-1.2-4.6-0.4c-0.5,0.8-2.6,0.5-2.6,0.5
		s-5.7-3.4-6-4.2s-1.6-2.3,0-3.4c1.6-1,0-3.9,0-3.9s-0.8-3.4-0.3-3.6c0.5-0.3,0.8-5.7,0.8-5.7l1.3-1.6l1-1.3l1-1.8l2.6-0.3
		c0,0,3.1-0.5,4.2-0.5s3.1-1.8,3.1-1.8s2.1-2.1,2.3-2.3c0.3-0.3,1.6-1.8,2.9-1.3c1.3,0.5,5.5,0.8,5.5,0.8l2.1-0.8h-3.1l-3.9-1H63
		l-2.3,1.6l-2.9,2.6c0,0-1.3,1.8-1.6,1s-1-0.8-1.6-0.3s-1.3,0.8-1.3,0.8s-0.8-1-1-0.8C52,35.8,51,36,51,36l-1.8-0.5
		c0,0-0.5-1.6,0-2.1s2.3-2.9,3.6-2.9s3.9-2.1,4.2-2.1s0.8-2.3,1.6-2.3s1.6-3.4,1.6-3.4s1.3-1,1.6-1.3s0-3.4,0.8-4.2s0.8-0.8,0.8-0.8
		s-1.3,0.3-1.8,1.8s-0.8,2.3-0.8,2.3L59,22.6c0,0-0.8,0.5-0.8,1s-1.6,2.9-2.1,2.9s-3,1.5-3,1.5l-2.3,1.6l-2.6,2.1c0,0,1.3-6.8,1.6-7
		s1.3-1.6,1.8-2.3c0.5-0.8,0.8-3.1,1.6-3.6s2.1-2.6,2.6-3.6s0.8-8.8,0.8-8.8"/>
	<path class="st0" d="M51.8,0.7l0.8,3.9c0,0,0.5,2.1,1.3,2.9s0.8,0.5,1,2.1c0.3,1.6,0.9,4.9,0.9,4.9"/>
	<path class="st0" d="M50,4.8c0,0.3,0.8,1.6,2.3,2.1c1.6,0.5,1.6,0.8,1.6,0.8"/>
	<path class="st0" d="M55.5,12.4c0,0-0.5,5.2-3.6,5.7s-1.8,2.1-1.8,2.1l-1,2.1l-1.3,1.6L46.5,26l-0.8,1.6c0,0-1,2.9-0.8,4.2
		c0.3,1.3-0.5,3.1-0.5,3.1l-0.5,2.3l-1.3,2.1"/>
	<path class="st0" d="M29,1.2l2.1,1.3v1.8c0,0,1.8,1,1.8,2.1s-0.5,3.6,0.5,4.2c1,0.5,2.3,1.8,2.3,2.9s0,2.9,0,2.9l1.8,2.1l1.3,1.3
		c0,0,0.5,1.8,1,2.6c0.5,0.8,0.5,3.6,0.5,3.6s-0.8,1.3,0,2.1s2.1,3.6,2.1,3.6L42,33.2c0,0-0.5,1.6-0.3,2.3"/>
	<line class="st0" x1="21.4" y1="23.5" x2="21.4" y2="26.5"/>
	<path class="st0" d="M26.7,29.5c0,0,0.4-1.3,1.5-1s3.4,0.5,3.4,0.5l2.1-0.5c0,0,1.6,0.5,3.6,0c2.1-0.5,3.1-0.5,3.1-0.5"/>
	<path class="st0" d="M18.8,37.1c0,0,1.6-1.3,2.1-1s1-0.5,1-0.5l0.5-2.6l0.8-0.9"/>
	<line class="st0" x1="34.2" y1="4.1" x2="32.9" y2="6.4"/>
	<line class="st0" x1="36.5" y1="10.8" x2="35.4" y2="12.4"/>
	<path class="st0" d="M39.4,0.7V3c0,0,1.6-0.5,1.8,1c0.3,1.6,0.5,2.3,0.5,2.3s0.5,0.5,0,1.3s-1.8,2.1-1.8,2.1l-1.6,1.8L37,13.4
		l-1.3,2.9"/>
	<path class="st0" d="M41.2,5.4c0,0,1.6-0.8,2.1-1.3S44,2.5,44,2.5"/>
	<path class="st0" d="M36,15.2c0,0,1,2.3,2.1,3.1c1,0.8,3.6,2.6,3.9,4.2s1.3,3.4,1.3,3.4L44,28v2l0.8,0.4"/>
	<polyline class="st0" points="38.1,36.3 37.7,36.6 37,37.1 37.6,39.1 38.1,39.7 38.9,38.1 37.8,37.1 	"/>
	<path class="st0" d="M24,20.2v-1c0,0,1.6,0.3,2.1,0.5s1.8-0.8,2.3-0.5s2.1,1.8,2.3,2.1s4.2,4.2,4.7,4.7s1.3,0.5,2.3,0.5
		s2.3,1.2,2.3,1.2"/>
	<line class="st0" x1="25.3" y1="21.5" x2="27.9" y2="22"/>
	<path class="st0" d="M29,22c0,0,2.3-0.3,2.8,0.2s1.1,2.9,1.1,2.9s1.6,1.3,2.1,2.1c0.5,0.8,1.6,1.5,1.6,1.5"/>
	<path class="st0" d="M23.3,23.5c0,0-0.3,2.1-0.8,2.3"/>
	<path class="st0" d="M29,10c0,0,4.2,3.4,5.2,3.6"/>
	<path class="st0" d="M42.2,52.6c0,2.3,0.1,4.7,1.5,6.4c0.8,1,1.8,1.6,2.9,2.2c0,0.4,0,0.7,0,1.1c0.8,0,1.7,0.1,2.4,0.5
		c0.6,0.3,1,0.9,1.6,1.3c0.5,0.4,1.2,0.8,1.9,0.5"/>
	<path class="st0" d="M41.9,41.1c-0.2,0.5-0.3,1-0.5,1.5c-0.2,0.8-0.5,1.6-0.4,2.4c0,0.5,0.2,0.9,0.3,1.4c0.4,1.8,0.5,3.8-0.6,5.2"
		/>
	<path class="st0" d="M55.4,18.3c0.6-0.5,1.1-1,1.6-1.6"/>
	<path class="st0" d="M57.1,17.8c0,0.1,0,0.3,0,0.4"/>
	<path class="st0" d="M27.7,19c0.8-0.6,1-1.6,1-2.6s-0.1-1.9,0-2.9c0.2,0,0.3,0,0.5,0"/>
	<path class="st0" d="M15.9,51.2c2.2-1.4,4.6-2.8,7.2-3c0.9-0.1,1.7,0.1,2.5,0c3.6-0.1,6.8-2.2,10.4-2.4"/>
	<path class="st0" d="M5.6,69.4c3.8,1.7,8.5,1.2,12,3.6c0.9,0.6,1.6,1.3,2.6,1.7c0.8,0.3,1.6,0.4,2.3,0.5c1.5,0.3,2.8,1.1,4,2
		c1.1,0.8,2.3,1.8,2.6,3.2c0.3,1.4-0.2,2.8-1.1,3.9s-2.1,1.8-3.3,2.6"/>
	<path class="st0" d="M7.8,98.2c3.3-1.7,6.5-3.6,9.5-5.6"/>
	<path class="st0" d="M19.9,90.2c0.8-0.8,1.7-1.4,2.8-1.7"/>
	<path class="st0" d="M23.4,100.7c2.5,0.3,5.4,0.6,7.5-0.8c0.7-0.4,1.3-1,2.1-1.4c1.6-0.7,3.4-0.3,5.1-0.5c1.9-0.3,3.6-1.4,5.2-2.5
		c1-0.7,2.1-1.5,2.8-2.5c1.6-2.5,0.5-5.8,1.1-8.7"/>
	<circle class="st0" cx="87.6" cy="20.6" r="4.5"/>
	<path class="st0" d="M45.9,43.8c2.9-0.4,5.8-1.3,8.4-2.6c0.5-0.3,1-0.5,1.6-0.6c0.7-0.1,1.4,0.1,2.1,0.1c2.9,0.1,5.3-2,8-3
		c2.6-1,5.6-1,8.2,0c2.8,1.1,5,3.3,7.7,4.4c1.4,0.6,3,0.9,4.5,1.1c7.4,1.2,14.9,1.7,22.4,1.5c3.5-0.1,7.3-0.3,10.3,1.4"/>
	<path class="st0" d="M29,101.2c0.5,1.2,0.3,2.7-0.3,3.9s-1.6,2.2-2.5,3.1"/>
	<path class="st0" d="M43.1,99.5c0.7-1,1.8-1.6,3-1.8c0.4-0.1,0.9-0.1,1.3-0.2c1-0.4,1.5-1.5,1.9-2.5c1.3-0.5,2.3-1.6,2.7-3"/>
	<path class="st0" d="M47.4,112.2h2.9c0,0,0,1.3,2.1,0s3.1-3.6,4.9-3.9c1.8-0.3,4.4-2.3,4.4-2.3l2.6-3.1v-1.6l1-1.8"/>
	<path class="st0" d="M95.9,132.8c0.2,0.5,0.3,1.1,0.4,1.7"/>
	<path class="st0" d="M99.1,131.9c0.1,1.4-0.1,2.8-0.4,4.1"/>
	<path class="st0" d="M102.3,130.6c-0.1,1-0.3,2-0.6,3"/>
	<path class="st0" d="M109.3,131.9c0.6,0.5,1.1,1.1,1.7,1.7"/>
	<path class="st0" d="M130,130c-0.2,0.8-0.1,1.6,0.3,2.2c0.8-0.2,1-1.5,0.3-2"/>
	<path class="st0" d="M143.6,126c-0.7-0.2-1.2-1-1.1-1.7c0.9,0.1,1.7,0.7,2.1,1.5c-0.1,0.1-0.3,0.2-0.4,0.3c0-0.2,0-0.3,0-0.5"/>
	<path class="st0" d="M132,114.1c0.8,2.4,1.5,4.9,1.9,7.5"/>
	<path class="st0" d="M166.3,127c3,1.4,4.7,2,7.9,1.8c1.2-0.1,4.2-0.8,5.5-1c6.4-1.3,12.6,0.1,19.1,0.4c1,0.1,2.1,0.1,3,0.5
		c0.7,0.3,1.4,0.8,2.1,1.1c0.7,0.3,1.5,0.3,2.3,0.3c1.9,0.1,3.9,0.1,5.8,0.2c3.5,0.1,7,0.2,10.4-0.3c2.2-0.3,4.3-0.9,6.4-1
		c2.2-0.1,4.5,0.3,6.1,1.7"/>
	<path class="st0" d="M204,265c0.2-0.1,0.5-0.2,0.6-0.3c0.5-0.5,0.4-1.4-0.2-1.9c-0.5-0.5-1.3-0.5-2.1-0.4s-1.6,0.4-2.4,0.6
		c-2.5,0.8-5,1.7-7.5,2.5c-0.3,0.1-0.7,0.4-0.6,0.7c0.1,0.1,0.2,0.2,0.3,0.3c0.8,0.6,1.7,1,2.7,1.3c-0.1,0.9-0.1,1.9,0.6,2.5
		c0.4,0.4,1,0.4,1.6,0.5c3.2,0.4,6.5,0.9,9.7,1.3c0.4,0.1,0.9,0.1,1.4,0s0.9-0.5,0.9-0.9c0-0.3-0.1-0.6-0.3-0.9
		c-1-1.7-2.8-2.8-4.7-3.3C201.4,266.3,200.9,266.1,204,265z"/>
	<path class="st0" d="M124.4,275.2c0.2-0.2,0.5-0.3,0.8-0.3c0.8-0.2,1.6-0.4,2.2-0.9s1-1.4,0.6-2.1c-0.5-1-1.7-1-2.8-1
		c-0.6,0-1.2,0.1-1.7,0.1c-0.2,0-0.5,0-0.7,0.1c-0.3,0.1-0.5,0.3-0.7,0.5c-0.8,0.6-1.8,0.5-2.8,0.5c-1.8,0-3.6,0.5-5.2,1.4
		c-0.1,0.6,0.6,1.1,1.2,1.4s1.3,0.5,1.5,1.2c-2.4,1-5.5-0.4-7.7,1c-0.4,0.5-0.2,1.3,0.3,1.8c0.4,0.5,1.1,0.6,1.7,0.8
		c2.2,0.3,4.5-0.4,6.7-0.5c1.4-0.1,2.9,0.2,4.3,0.2c1,0,8-0.1,5.7-2.5C127.6,276.4,122.9,276.5,124.4,275.2z"/>
	<path class="st0" d="M32.5,59.5c0.2-1.1,1.7-1.6,1.8-2.7c0-0.2,0-0.5,0.2-0.6c0.2-0.3,0.8-0.3,0.7-0.7"/>
	<path class="st0" d="M42.2,72.2c0.8,0.8,1.7,1.4,2.7,1.7c0.1,0.1,0.3,0.1,0.4,0.2c0.1,0.1,0.1,0.2,0.1,0.4c0.2,0.6,0.6,1.1,1.1,1.6
		c1.4,1.4,3,2.8,4.9,3.2"/>
	<path class="st0" d="M40.3,85.4c2.1-0.9,4-2.1,5.6-3.7c0.4-0.4,0.8-0.8,1.2-1.1c0.4-0.3,0.9-0.4,1.3-0.6c2.7-0.9,5.4-1.5,8.2-1.8
		c0.4-0.1,0.9-0.1,1.3-0.3c0.9-0.5,1.1-1.6,1.4-2.5s0.8-2.1,1.7-2.2"/>
	<path class="st0" d="M54.3,82.7c0.5,0.6,0.9,1.2,1.4,1.7"/>
	<path class="st0" d="M56.3,82.2c0.5,0.8,1,1.5,1.4,2.4"/>
	<path class="st0" d="M58.5,82c0.1,0.5,0.2,1,0.5,1.5"/>
	<path class="st0" d="M61.1,81.9c-0.2,0.2-0.3,0.4-0.3,0.6"/>
	<path class="st0" d="M68.9,55c-0.9,0.2-1.8,0.5-2.7,1c0.1-0.6-0.9-0.7-1.5-0.5c-0.2,1.1-1.1,2.1-2.3,2.3c-0.1-1.6-0.2-3.1-0.3-4.7
		c5.3-1.3,10.3-3.5,14.8-6.5c3.5,3.8,6.6,7.9,9.3,12.3"/>
	<path class="st0" d="M64.3,59.4c0,1.6,0.1,3.2,0.4,4.7"/>
	<path class="st0" d="M67.5,60.9c0,0.4,0,0.8,0,1.2c0.7,0.1,1.3,0,2-0.1c0-0.4,0-0.9,0-1.3C68.8,60.7,68.1,60.8,67.5,60.9"/>
	<path class="st0" d="M72.6,59.8c0.1-0.1,0.3,0.2,0.3,0.3c0,1.5,0,3,0,4.4"/>
	<path class="st0" d="M83.7,60c0-0.1,0-0.2,0-0.3c-0.1,1.6-0.1,3.2-0.1,4.8"/>
	<path class="st0" d="M85.3,60.7c-0.1,1.8-0.3,3.6-0.4,5.5c0-0.2,0-0.3,0-0.5"/>
	<path class="st0" d="M58,72.7c0.6-0.6,1.6-0.6,2.4-0.4s1.6,0.5,2.5,0.5c1.5,0,2.8-1.1,4.2-1.6c1.1-0.4,2.3-0.5,3.5-0.5
		c2.7,0,5.5,0.5,8.1,1.3"/>
	<path class="st0" d="M77.3,47.1c2.7,1.8,5.4,3.6,8.2,5.4c0.3,0.2,0.7,0.4,0.8,0.8c0.2,0.3,0,0.8-0.4,0.9c0.6,0.4,1.1,0.9,1.4,1.5
		c0.2,0.6-0.1,1.5-0.7,1.7c0.4,0,0.8,0.3,0.5,0.6c0.2,0.4-0.1,1-0.6,1c0.1,0.6-0.3,1.3-0.8,1.5c-0.6,0.2-1.3,0-1.6-0.5
		c-0.2-0.3-0.2-0.6-0.1-0.9c0.1,0.5-0.6,0.9-1,0.7c-0.5-0.2-0.8-0.7-0.8-1.2c-0.2,0.6-0.9,1-1.6,1c-0.7-0.1-1.2-0.6-1.4-1.2
		c0,0.7-0.5,1.4-1.2,1.5s-1.4-0.5-1.4-1.2c-0.1,0.7-0.8,1.3-1.6,1.2c-0.7-0.1-1.3-0.4-1.4-1.1c-0.2,0.5-0.8,0.8-1.3,0.7
		s-0.9-0.6-0.9-1.1c-0.5,0.4-1.1,0.8-1.7,0.9c-0.7,0-1.4-0.4-1.5-1c-0.2,0.4-0.4,0.8-0.7,1c-0.3,0.3-0.8,0.4-1.2,0.3
		c-0.4-0.2-0.6-0.7-0.4-1c-0.5,0.8-1.3,1.2-2.2,1.2c-0.1,0-0.2,0-0.2-0.1c-0.1-0.1-0.1-0.1-0.1-0.2c-0.1-0.7-0.1-1.5-0.2-2.2
		c0.1,0.1,0.2,0.2,0.1,0.3"/>
	<path class="st0" d="M45.8,75.1c-0.4-0.9,0.1-2.2,1.1-2.5c0.2-0.1,0.4-0.1,0.5-0.3c0.1-0.1,0.1-0.2,0.1-0.4
		c0.1-0.8,0.4-1.5,0.8-2.2"/>
	<path class="st0" d="M58.5,65.6c1.2,1.5,3.1,2,4.7,3.1c0.2,0.1,0.3,0.3,0.5,0.4c0.2,0.2,0.3,0.5,0.4,0.8c0.3,0.8,0.9,1.5,1.6,1.9"
		/>
	<path class="st0" d="M114.6,70.8c-1-0.8-1.9-1.6-2.9-2.3c-0.2-0.1-0.3-0.3-0.5-0.4c-1.6-1.3-3.2-2.6-4.9-3.9
		c-0.3-0.2-0.7-0.5-1-0.6c-0.4-0.1-0.9,0.1-1.3,0.2c-2.9,1.1-6,2-9.1,2.2c-1.6,0.1-3.2-0.1-4.8,0.3c-2.1,0.4-3.9,1.5-5.7,2.5
		C78.1,72.6,71.6,76,65,79.2c-0.5,0.3-1.1,0.5-1.5,0.9c-0.3,0.3-0.5,0.7-0.7,1.1c-0.8,1.7-1.4,3.6-1.7,5.4"/>
	<path class="st0" d="M69.2,50.4c0.1,1,0.2,2.1,0.3,3.1"/>
	<path class="st0" d="M64.1,70c0-1.2-0.1-2.4-0.2-3.5c7.9,0,15.4,0.8,23.3,1"/>
	<path class="st0" d="M86.8,67.2c0.6,0.7,1.3,1.4,1.9,2.2c0.2,0.3,0.5,0.5,0.6,0.9c0.2,0.6-0.1,1.3-0.4,1.9
		c-1.7,3.3-4.1,6.2-5.7,9.5c-1.3,2.6-2,5.5-3.8,7.8c-1,1.3-2.3,2.3-3.2,3.6c-0.8,1.2-1.3,2.6-1.7,4c-1,3.4-1.7,6.9-2.1,10.4
		c-0.2,1.7-0.3,3.4,0.1,5s1.4,3.2,2.9,3.9c0.6,0.3,1.4,0.5,2,0.8c0.7,0.4,1.3,1,1.9,1.5c0.8,0.6,1.6,1.1,2.4,1.5
		c2.4,1.3,4.8,2.7,7.4,3.6c1.9,0.7,3.9,1.1,5.8,1.8c1.9,0.7,3.7,1.8,4.8,3.5c0.1,0.2-0.2,0.5-0.2,0.3"/>
	<path class="st0" d="M83.8,85.2c1.4,0.1,2.8-0.2,4.2-0.6c0.6-0.2,1.2-0.4,1.8-0.4c0.4,0,0.7,0.2,1.1,0.2c0.8,0.2,1.5,0.1,2.3,0.1
		c2.8-0.2,5.6-0.4,8.3-0.5"/>
	<path class="st0" d="M98,80.4c1-1.1,3.1,0,4.3-1"/>
	<path class="st0" d="M101.4,78.6c1.5-0.1,3-0.4,4.5-0.8"/>
	<path class="st0" d="M96.6,79c0.9,0.1,1.8,0,2.6-0.1"/>
	<path class="st0" d="M70.3,76.9c1.2,2,2.6,3.9,4.2,5.7c0.2,0.2,0.3,0.4,0.4,0.6s0.1,0.4,0.1,0.6c0,0.7,0,1.4,0,2.1"/>
	<path class="st0" d="M48.9,96c0.6-0.2,1.1-0.3,1.7-0.4c0.2,0,0.3-0.1,0.5,0c0.3,0.1,0.5,0.2,0.7,0.3c1.5,0.8,3.2,0.6,4.9,0.6
		c1.1,0,2.2,0.2,3.2,0.4"/>
	<path class="st0" d="M37.1,104.9c-0.1-1-0.2-1.9-0.3-2.9c-0.1,0.4-0.3,0.8-0.7,0.9c0.7-1.1,1.8-1.9,3.1-2.1c0.2,0,0.4-0.1,0.6-0.2
		c0.1-0.1,0.2-0.3,0.3-0.4c0.2-0.2,0.5-0.1,0.8-0.1c1.2,0.3,2.4,0.5,3.6,0.8c0.3,0.1,0.7,0.2,0.9,0.4c0.3,0.2,0.5,0.6,0.6,1
		c0.3,0.8,0.6,1.6,0.8,2.5c0.2,0.8,0.3,1.8-0.3,2.4c-0.4,0.4-0.9,0.4-1.4,0.5c-0.7,0.1-1.4,0.2-2.2,0.3"/>
	<path class="st0" d="M38.2,106.3c0-0.5,0-1.1,0-1.6"/>
	<path class="st0" d="M39.7,106.1c0.2-1.2,0.4-2.4,0.6-3.6"/>
	<path class="st0" d="M41,106.7c-0.2-1,0.6-2,1.6-2.2"/>
	<path class="st0" d="M45.9,112.9c0.7,0.9,2.1,0.9,2.4,2c0.1,0.2,0.2,0.6,0.4,0.5c0.1,0,0.1-0.1,0.2-0.1c0.4-0.4,0.8-0.9,0.9-1.5
		c0-0.2,0.1-0.3,0.1-0.5c0.2-0.3,0.6-0.4,0.9-0.4"/>
	<path class="st0" d="M57.1,108.4c0.9,0.7,1.8,1.5,2.1,2.5c0.1,0.3,0.1,0.5,0.2,0.8c0.2,0.5,0.7,0.8,1.2,1c1.5,0.8,3,1.6,4.5,2.3
		c0.2,0.1,0.5,0.3,0.7,0.5c0.2,0.3,0.3,0.8,0.3,1.1c0.1,1.4,0.4,2.9,0.9,4.2"/>
	<path class="st0" d="M64.3,102.8c0.8,0.3,1.6,0.6,2.4,0.9c0-0.8,0.1-1.7,0.4-2.5c-0.3,0.3-0.8,0.3-1.1,0.1"/>
	<path class="st0" d="M69,83.2c1.7-0.2,3.4-0.4,5.1-0.5"/>
	<path class="st0" d="M89.1,71.9c-0.9,1.6-3,1.8-4.5,2.7c-2.7,1.4-4,4.5-5,7.4c-1.7,4.7-3.4,9.4-5.1,14.1"/>
	<path class="st0" d="M84.3,79.7c1.6-0.2,3.3-0.5,4.9-0.7c1.1-0.2,2.2-0.3,3.3-0.5c0.9-0.1,1.8-0.3,2.8-0.4c5.6-0.9,11.3-1.8,16.9-3
		"/>
	<path class="st0" d="M105,44.5c-0.3-1.7-0.4-3.8,1-4.7c0.6-0.3,1.2-0.4,1.9-0.4c2.6-0.1,5.2,0,7.8,0.4c0.7,0.1,1.4,0.2,1.9,0.6
		c0.7,0.5,1,1.5,1.1,2.4c0.4,2.1,0.3,4.2-0.4,6.1c-1.1,2.7-3.7,4.7-6.7,5.1c-0.5-0.7-1.6-0.7-2.3-0.3c-0.8,0.4-1.3,1.1-2.1,1.5
		c-1.2,0.7-2.8,0.7-4.2,0.8c-1.1,0.1-2.3,0.3-3.1,1c-0.4,0.3-0.3,0.8,0.2,1c5.7,2,11.1,5,15.8,8.8c0.2,0.2,0.4,0.3,0.5,0.6
		c0.2,0.4-0.1,0.9-0.4,1.4c-2.1,3.1-4.2,6.3-6.3,9.4c-0.7,1-1.4,2-2.3,2.9c-0.7,0.6-1.4,1.1-2.2,1.6l-6.7,4.5
		c-0.2,0.1-0.3,0.3-0.3,0.4c-0.1,0.5,0.5,0.8,1,0.9c7.7,1.3,15.2,3.7,22.6,6.1c5.9,1.9,11.8,3.8,17,7.1c2.7,1.7,5.3,3.9,8.5,4.7"/>
	<path class="st0" d="M120.5,39.5c0.1,2.7,0.3,5.3,0.8,8c0.1,0.7,0.2,1.3,0.5,1.9c0.4,0.7,1,1.3,1.6,1.8c0.9,0.8,1.8,1.6,2.7,2.4
		c0.3,0.3,0.6,0.6,1,0.8s0.9,0.4,1.3,0.4"/>
	<path class="st0" d="M121,52c1,1.1,1.9,2.2,2.9,3.4"/>
	<path class="st0" d="M101.5,58.2c0.9,1.7,1.8,3.3,2.7,4.9c0.2,0.4,0.6,0.8,1,0.6"/>
	<path class="st0" d="M124.6,72.5c1.2,0.8,2.1,1.9,2.7,3.2"/>
	<path class="st0" d="M125.9,71.5c0.8,1,1.4,2.1,1.9,3.3"/>
	<path class="st0" d="M128,71.9c0.4,0.6,0.7,1.4,0.9,2.1"/>
	<path class="st0" d="M129.5,75c1.2-0.3,2.5,0.1,3.6,0.7s2.1,1.4,3.3,1.9c0.6,0.2,1.3,0.5,1.3,1.1c-0.1,0-0.3,0-0.4,0"/>
	<path class="st0" d="M132.5,72.9c0.4,0.2,0.9,0.4,1.4,0.7"/>
	<path class="st0" d="M133.4,71c0.3,0.5,0.6,0.9,0.9,1.4"/>
	<path class="st0" d="M135.7,71.1c-0.1,0.4-0.1,0.8-0.1,1.1"/>
	<path class="st0" d="M135.6,75.8c0.2,0.4,0.8,0.2,1.1-0.1c0.4-0.3,0.8-0.8,1-1.2c0.1-0.1,0.2-0.3,0.3-0.4c0.3-0.3,0.8-0.1,1.2,0
		c1.4,0.3,2.7-0.7,4.1-0.8c0.9-0.1,2,0.1,2.7-0.5"/>
	<path class="st0" d="M136.7,79.9c-1,0.1-2.8-0.2-3.8,0.2c-0.8,0.3-1.5,1.4-2.2,1.9c-0.2,0.2-0.4,0.3-0.6,0.6
		c-0.2,0.4-0.2,0.9-0.4,1.3c0-0.1,0-0.2,0-0.3"/>
	<path class="st0" d="M106.3,39.6c-0.1,0-0.3,0-0.4-0.1c1.5-1.5,3.9-1.4,6-1.4c0.4,0,0.9,0,1.3-0.1c0.8-0.3,1.5-1.1,2.2-0.8
		c-0.2-0.4-0.3-0.7-0.5-1.1c-1.4,0.3-2.9-0.4-4.3-0.6c-1.2-0.2-2.3,0-3.5,0.2c-0.5,0.1-0.9,0.2-1.4,0.3c-1.1,0.4-2,1.2-2.8,2.1"/>
	<path class="st0" d="M132.7,29.4c-0.4,0.6-0.8,1.2-1.1,1.9c-0.1,0.2-0.2,0.4-0.4,0.4c-0.2,0.1-0.4,0-0.6-0.1
		c-0.6-0.3-1.2-0.7-1.9-0.9c-0.7-0.2-1.6,0-1.9,0.7c-0.2,0.5,0,1.2-0.2,1.7c-0.3,1.2-1.9,1.6-2.7,2.5c-0.7,0.9-0.6,2.2-0.4,3.4
		c0.2,1.7,0.5,3.4,1.2,4.9c0.1,0.2,0.2,0.4,0.2,0.7c-0.1,0.2-0.2,0.3-0.3,0.5c-0.1,0.3,0,0.5,0.1,0.8c0.5,1.1,1,2.3,1.4,3.4
		c0.4,1,1,2.1,2,2.4c1.7,0.5,3.6-1.7,5.3-0.9c1,0.5,1.3,1.7,2.2,2.4c0.4,0.3,0.9,0.5,1.3,0.6c1.6,0.5,6.1,0.5,7.7,1.1"/>
	<path class="st0" d="M133.4,79.8c0.2-0.7,0.4-1.4,0.6-2.1"/>
	<path class="st0" d="M108.2,124.1c0.1-0.2-0.2-0.5-0.4-0.4s-0.4,0.3-0.3,0.6c0,0.6,0.7,1.1,1.3,1c0-0.3,0-0.6,0-0.9"/>
	<path class="st0" d="M109.3,122.4c-0.3-0.8-0.3-1.7,0.2-2.4c0.4,0.6,0.5,1.3,0.4,2"/>
	<path class="st0" d="M111.3,120.3c-0.1-0.5,0.4-1,0.9-0.9s0.8,0.7,0.6,1.1"/>
	<path class="st0" d="M109.3,129.5c-0.2,0.1-0.2-0.2-0.2-0.4c0.5-2.7,1.5-5.2,3-7.5"/>
	<path class="st0" d="M112.4,123.7c-0.6,0-0.8,0.8-0.9,1.4c0,0.2,0,0.3,0.1,0.4c0.2,0.2,0.5-0.1,0.6-0.3
		C112.5,124.7,112.5,124.2,112.4,123.7"/>
	<path class="st0" d="M114.8,121.3c-0.3,0-0.7,0-1,0.1c0.1,0.7,1,1.1,1.5,0.7"/>
	<path class="st0" d="M115,129.8c0.5-1.5,2.3-4.6,0-5.5c0.8,2.2,2.4-2.7,3-3.2c0.3,0.6,0.2,1.4-0.1,2"/>
	<path class="st0" d="M117.7,118.7c-0.3,0-0.6,0.2-0.7,0.5s0,0.6,0,0.9c0,0.1,0.1,0.2,0.2,0.3c0.2,0.1,0.3-0.2,0.3-0.4
		c0-0.4,0-0.9-0.1-1.4"/>
	<path class="st0" d="M104.8,129.9c0,0.3,0.1,0.5,0.2,0.8c0.1,0.1,0.1,0.2,0.2,0.3c0.2,0.1,0.5,0,0.7-0.2c0.1-0.2,0.2-0.5,0.2-0.7"
		/>
	<path class="st0" d="M117.4,126.5c0.4-0.1,0.8-0.1,1.2-0.2c0.2,0,0.3,0,0.4,0.1c0.2,0.2,0.1,0.5-0.1,0.6s-0.5,0.1-0.8,0"/>
	<path class="st0" d="M124.6,116.3c-0.2-0.2-0.2-0.4-0.3-0.6s-0.3-0.4-0.5-0.3c-0.1,0-0.2,0.1-0.2,0.2c-0.2,0.4-0.4,0.8-0.3,1.2
		c0.1,0.4,0.5,0.8,1,0.6c0.1-0.6,0.1-1.3-0.2-1.9"/>
	<path class="st0" d="M122,120.4c0-0.3-0.4-0.6-0.8-0.5s-0.5,0.5-0.5,0.8c0.1,0.6,0.8,1,1.3,0.7s0.4-1.2-0.2-1.3"/>
	<path class="st0" d="M122.4,122.5c-1,0.1-1.9,0.7-2.3,1.6c1,0.4,2.2-0.4,2.2-1.5"/>
	<path class="st0" d="M121.2,125.9c-0.4-0.1-0.9-0.2-1.4-0.2c-0.1,0.4,0.2,0.8,0.6,1s0.8,0.2,1.2,0.1c-0.2-0.4-0.5-0.8-0.9-1"/>
	<path class="st0" d="M123.5,124.9c0.2,0.7,0.9,1.2,1.6,1.2c-0.3-1-1-1.8-2-2.2"/>
	<path class="st0" d="M124.9,122.4c-0.3,0.8,0.3,1.8,1.1,2c0.1-0.7-0.3-1.3-0.9-1.6s-1.2-0.4-1.9-0.5"/>
	<path class="st0" d="M125.9,121.1c0.5,0,1-0.1,1.5-0.4c0-0.2,0-0.4,0-0.6c-0.9,0.1-1.8,0.3-2.6,0.6c-1.7,0.7-1.8,2.3-2,3.9
		c-0.2,1.4-0.4,2.7-0.6,4.1c0,0.1-0.1,0.2-0.1,0.2s-0.1-0.2,0-0.1"/>
	<path class="st0" d="M130.9,116.1c0.1-0.2-0.3-0.4-0.5-0.3c-0.2,0.2-0.2,0.4-0.2,0.7c0,0.2,0.1,0.3,0.1,0.4c0.2,0.3,0.8,0.3,1,0
		s0.2-0.8-0.1-1.1"/>
	<path class="st0" d="M124.1,117.9c-0.1,1.5-0.1,2.9-0.2,4.4"/>
	<path class="st0" d="M128,112.7c-0.1-0.1-0.3-0.2-0.5-0.1c-0.2,0.6,0.5,1.3,1.1,1"/>
	<path class="st0" d="M128.6,117.7c-0.1,0-0.3,0-0.4,0c0,0.3-0.1,0.5-0.1,0.8s0.1,0.5,0.3,0.6c0.3,0.1,0.5-0.2,0.5-0.5
		s-0.1-0.5-0.2-0.7"/>
	<path class="st0" d="M133,111.1c-0.1-0.3-0.5-0.4-0.8-0.3s-0.5,0.5-0.5,0.8s0.1,0.6,0.4,0.7c0.3,0.1,0.5-0.1,0.7-0.3
		s0.1-0.5,0.1-0.8"/>
	<path class="st0" d="M136.1,114.9c-0.3,0.2-0.5,0.6-0.5,1c0.1,0.4,0.4,0.7,0.7,0.8c0.3-0.4,0.2-1.1-0.3-1.3"/>
	<path class="st0" d="M141,111.9c-0.3,0.1-0.4,0.4-0.5,0.7c-0.1,0.2-0.1,0.3,0,0.4s0.3,0.2,0.4,0.1c0.1-0.3,0.1-0.6,0.2-0.8"/>
	<path class="st0" d="M142.2,114.4c-0.1-0.1-0.2-0.2-0.4-0.2c-0.1,0.3,0,0.6,0.2,0.8c0.4-0.2,0.3-0.9-0.1-1"/>
	<path class="st0" d="M145.4,123c0,0.1-0.2,0.2-0.3,0.1s-0.1-0.2-0.1-0.3c-0.1-0.4-0.1-0.7-0.1-1.1c0-0.2,0.1-0.4,0.2-0.4
		c0.3-0.1,0.5,0.3,0.5,0.5c0.4,2.4,0.5,4.9,0.4,7.3"/>
	<path class="st0" d="M148,126.1c0.7-1.2,1.9-2.2,3.3-2.7c0.1,0.8-0.5,1.7-1.3,1.8"/>
	<path class="st0" d="M150.2,121.9c0,0.2-0.2,0.3-0.4,0.2c0.8-1.3,1.8-2.4,2.8-3.5c0.2-0.2,0.5-0.4,0.8-0.3c0.4,1-0.2,2.2-1.2,2.4"
		/>
	<path class="st0" d="M161.4,121.1c-0.1,0.1-0.2,0-0.2-0.1c0.1-0.2,0.1-0.5,0.3-0.6c0.2-0.2,0.5-0.2,0.6,0c0.1,0.1,0.1,0.2,0.1,0.4
		c-0.2,1.2-0.6,2.4-1.4,3.4"/>
	<path class="st0" d="M108.4,91.3c0.3,0.4,0.6,0.8,0.9,1.2"/>
	<path class="st0" d="M111.8,92.4c0,0.4,0.2,0.9,0.4,1.2"/>
	<path class="st0" d="M110.3,92.1c0.2,0.3,0.4,0.7,0.6,1"/>
	<path class="st0" d="M119,93.7c1.3,1.5,2.5,3,4.3,4c0.4,0.2,0.9,0.4,1.2,0.8s0.5,0.9,0.2,1.3"/>
	<path class="st0" d="M125.7,96.9c0.4,0.6,0.8,1.3,1,2.1"/>
	<path class="st0" d="M127.1,97.5c0.2,0.6,0.4,1.2,0.6,1.9"/>
	<path class="st0" d="M135.6,101c0.1,0.6,0.3,1.2,0.6,1.7"/>
	<path class="st0" d="M137.1,101.7c0,0.6,0.2,1.3,0.5,1.9"/>
	<path class="st0" d="M138.1,102.3c0,0.5,0.2,1,0.5,1.4"/>
	<path class="st0" d="M145.5,107.4c0.3,1,1.5,1.4,2.5,1.5c0.3,0,0.6,0.1,0.9,0.2c0.6,0.3,0.9,1.2,1.6,1.3"/>
	<path class="st0" d="M151.1,109.3c0.2,0.1,0.3,0.1,0.5,0.1"/>
	<path class="st0" d="M152.6,109.2c0.3,0.1,0.7,0.3,1,0.4"/>
	<path class="st0" d="M156.6,110.3c0.6,1.1,1.3,2.2,1.9,3.4"/>
	<path class="st0" d="M158.8,111.6c0.3,1,0.9,2,1.7,2.8"/>
	<path class="st0" d="M161.6,112.4c0.4,1.1,0.9,2.2,1.6,3.1"/>
	<path class="st0" d="M101.9,33.2c0.4,1.5,2.2,2.3,3.7,2.3c1.6,0.1,3.1-0.4,4.7-0.4c1.2,0,2.3,0.2,3.5,0.3c1.9,0.1,3.7-0.2,5.6-0.5
		c0.3-0.1,0.6-0.1,0.9-0.3c0.5-0.3,0.7-0.8,0.9-1.3c0.8-1.9,1.6-4,0.9-5.9c-0.1-0.3-0.2-0.5-0.2-0.8c0-0.2,0.2-0.4,0.3-0.6
		c0.7-0.9,1.4-1.8,2-2.6c-1.4-0.3-2.2-1.6-3-2.8c-0.4-0.6-0.8-1.2-1.2-1.9"/>
	<path class="st0" d="M126.8,21.5c-0.9,1.1-1.9,2.3-2.8,3.5c-0.4,0.5-0.9,1.1-1,1.8c0,0.3,0.1,0.7,0.1,1c0.3,1.3,0.1,2.7-0.1,4.1
		c-0.1,0.5-0.2,1-0.2,1.6c-0.1,0.4,0,1,0.4,1.1c0.2,0,0.3,0,0.5-0.1c0.5-0.3,0.9-0.7,1.1-1.2c0.2-0.4,0.3-0.9,0.5-1.3
		c0.8-1.8,3.3-2.6,5-1.6c0.2,0.1,0.3,0.2,0.5,0.2c0.6,0.1,0.9-0.8,1.5-1.1"/>
	<path class="st0" d="M107,27.8c1.2,0.4,2.4,0.8,3.5,1.2c0.1,0,0.2,0.1,0.3,0.2s0,0.2,0,0.3c-0.2,0.8-0.4,1.5-0.6,2.3
		c-0.1,0.2-0.1,0.5-0.1,0.8c0,0.2,0.2,0.4,0.3,0.6c0.4,0.7,0.9,1.4,1.4,2"/>
	<path class="st0" d="M114.7,27.8c1.3,0,2.7,0.2,3.8,0.8c0.2,0.6,0.4,1.2,0.6,1.9c0.3,0.8,0.6,1.4,0.8,2.2c0.3,0.8,0.2,1.7-0.1,2.4"
		/>
	<path class="st0" d="M121.1,20.1c0.5-0.6,1-1.4,1.1-2.2"/>
	<path class="st0" d="M127.4,30.1c-0.2-1,0.7-1.8,1.7-2.1c0.2-0.1,0.4-0.1,0.5-0.2s0.2-0.3,0.2-0.5c0.2-0.9,0.5-1.8,0.7-2.7"/>
	<path class="st0" d="M111.8,39.3c0.1,1,0,1.9-0.4,2.9c-0.1,0.1-0.1,0.2-0.1,0.4c0.1,0.3,0.5,0.1,0.8,0.1c0.6,0,1,0.7,1.1,1.3"/>
	<path class="st0" d="M130.3,54c0.5-0.5,1.4-0.4,2.2-0.2c1.1,0.3,2.2,0.5,3.3,0.8c2.9,0.7,6,1.4,8.9,0.4c1.9-0.6,3.9-2,5.9-1.5
		c0.6,0.2,1.1,0.4,1.6,0.7c4,1.7,9.1,0.3,13.5,0.3c2.4,0,4.1,0,6.4,0.2c2.1,0.2,4.2-0.1,6.3-0.3c1.1-0.1,2.2-0.2,3.2-0.3
		c3.8-0.4,13.1-0.9,20.9-3.2"/>
	<path class="st0" d="M159,63.3c0.7,0.6,1.5,1.3,2.2,1.9c0.9,0.8,1.8,1.6,2.9,2.1c0.7,0.4,1.4,0.6,2.1,1c0.7,0.4,1.3,1,1.5,1.7"/>
	<path class="st0" d="M167.4,67.9c0.8,0.5,1.6,0.8,2.5,1"/>
	<path class="st0" d="M168.8,66.3c0.5,0.5,1.2,0.9,2,1.1"/>
	<path class="st0" d="M172.5,68.3c0.5,0.1,1,0.2,1.5,0.2c0.2,0,0.5,0.1,0.6-0.1c0.2-0.1,0.1-0.5-0.1-0.5c0.5,0.1,1.7-0.5,2.2-0.4
		c0.2-0.2,0-0.5-0.2-0.7c-1.3-0.8-2.8-1.3-4.2-2.1c-1.5-0.8-2.8-1.9-3.8-3.2c-0.3-0.4-0.6-0.8-1.1-0.8c-0.3,0-0.6,0.2-0.9,0.3
		c-2.8,1.7-6.2,2.1-9.4,2.5"/>
	<path class="st0" d="M152.2,69.4c0.6-0.3,1.2-0.6,1.8-1c0.2-0.1,0.3-0.2,0.4-0.2c0.2-0.1,0.4,0,0.5,0c1.2,0,2.3-0.3,3.4-0.9
		c0.6-0.3,1.1-0.7,1.7-0.9"/>
	<path class="st0" d="M180.1,69.2c0,0.1,0.1,0.3,0.2,0.3c0.4-1.2,0.9-2.5,1.3-3.7c0.1-0.2,0.2-0.4,0.3-0.6c0.2-0.1,0.4-0.1,0.7-0.1
		c1.4,0,3.1,0.1,4,1.2c0.3,0.4,0.5,0.9,0.7,1.4c0.3,0.7,0.5,1.4,0.8,2"/>
	<path class="st0" d="M184.8,70.5c1.2-0.6,2.7-0.9,4.1-0.7c0.6,0.1,1.3,0.2,1.9,0.1"/>
	<path class="st0" d="M188.1,67.4c1.8-0.3,3.7,0.6,4.7,2.2"/>
	<path class="st0" d="M110.7,64.4c0.2,0.6,0.8,1.1,1.5,1.2c0.1,0,0.3,0,0.4,0.1c0.2,0.1,0.3,0.2,0.4,0.3c0.7,0.6,1.3,1.2,1.9,1.8"/>
	<path class="st0" d="M125,46.6c2-0.1,4.2-0.2,5.9,0.8c0.6,0.3,1.1,0.8,1.7,1c1.5,0.6,3.2,0.1,4.8,0.1c2.1-0.1,4.1,0.6,6.1,0.7
		c2.6,0.1,5.2-0.7,7.8-0.5c2.1,0.2,4,1,6.1,1c1.2,0,2.4-0.3,3.6-0.6c2.4-0.7,4.8-1.3,7.2-1.9c2.8-0.8,5.7-1.5,8.6-1.6
		c1.1-0.1,2.3,0,3.4-0.2c1.1-0.2,2.2-0.5,3.3-0.9c5.5-1.7,11.2-2.5,16.9-3.3"/>
	<path class="st0" d="M147.3,106.1c2.8,0.9,5.7,1.8,8.5,2.7c4.7,1.5,9.5,3,14.3,3.8c4.5,0.7,9,0.8,13.5,1.7c2.7,0.5,5.3,1.3,8,1.1
		c2.9-0.2,5.8-1.5,8.7-1.4c2,0,2.3-0.1,8,0.6c10.9,1.4,31.2-1.1,41.8-1.6c13.5-0.5,16.8,0.2,30.7,1c11.2,0.7,22-1.1,32.7,0.5
		c7.1,1.1,13.8,2.4,21,2.1c4-0.2,8-1,11.9-0.4c3,0.4,5.5,2.7,8.4,2.9c10.6,0.9,15.2,7,23.3,11c15.6,7.8,36.6,16.6,47.5,32.1
		c2.7,3.9,4.9,8.3,5.5,13c0.5,4-0.2,8-0.9,12c-1.7,8.5-4.1,16.9-7.3,24.9c-0.7,1.7-1.5,3.4-2.8,4.7c-1.5,1.4-3.6,2.1-5.6,2.8
		c-7.1,2.3-14.2,4.5-21.3,6.8c-2.2,0.7-4.6,1.5-6,3.5c-0.7,1-1.1,2.3-2,3.1c-1.1,1.1-3.2,2.6-4.8,2.7c-6.3,0.5-5.4,0.3-11.7,0.8
		c-1.5,0.1-6-1.6-7.3-2.3c-0.8-0.4-5.2,0.1-5.4-0.7c-0.3-1.6,1.1-2.1,1.7-3.1c1.1-1.7-0.2-1.8-2.1-2.4s-4.3-0.4-6.2,0.3
		c-6.4,2.2-12.3,3.1-17.9,6.9c-0.8,0.5-1.2,1.7,0,2.2c0.8,0.3,3.2,0.5,3.6,1.2l0.1,0.1c-13.2,9-31.5,12.5-47.4,10.7
		c2.5-1.4,9.6-2.6,10.8-5c0.6-1.2-0.5-5.2-6.2-2.8l-31.2,7.4c-2.6,2.3-6.1,3.1-9.7,1.9c-2.5-0.8-4.8-3.1-5.3-5.6
		c-0.4-1.7,1-3.2,2.7-3.1c3.8,0.2,7.5,0.5,11.3,0.7c2,0.1,6.4,0.5,5.9-1.5c-0.1-0.5-0.9-3.6-1.3-3.9c-4.2-3.5-8.2-6.6-13.8-8.1
		c-2.5-0.7-6.2-1.2-3.3,3.7l1.3,4.4c-8.1-3.4-14.3-8.1-23.9-12c-0.6-0.3-4.9-1.8-5.5-1.6c-2.7,1.3-2.1,2.3-1.1,5.1
		c0.3,0.9-0.5,1.9-1.5,1.7c-2.7-0.7-4.8-1.6-6.8-4.1"/>
	<path class="st0" d="M124.3,99.6c0.9,0.9,2.1,1.5,3.3,2c3.7,1.7,7.3,3.3,11,5c0.5,0.2,1,0.5,1.6,0.6c0.4,0.1,0.8,0.1,1.2,0.2
		c0.7,0.2,1.3,0.8,1.8,1.3c1.2,1.1,2.4,2.3,3.6,3.5c0.5,0.5,1,1,1.6,1.3c0.7,0.4,1.5,0.5,2.3,0.6c1.7,0.3,3.5,0.5,5.2,0.8
		c1.4,0.2,2.8,0.4,4.1,0.9c2.4,1,4.5,3,7.2,3.1c1.8,0.1,3.5-0.8,5.3-0.7c1.5,0,2.9,0.7,4.3,0.5c1.3-0.1,2.4-0.8,3.6-1.1
		c3.2-0.9,10.4,0.1,14-2.5"/>
	<path class="st0" d="M161.8,109.8c0.1,0.1-0.1,0.1-0.1,0S161.8,109.7,161.8,109.8c1.4-0.2,2.7-0.5,4-0.8c0.4-0.1,0.8-0.4,0.6-0.7
		c0.4,0,0.8,0.1,1.2,0.1c0-0.2,0-0.4,0-0.6"/>
	<path class="st0" d="M168,106.7c0.3,0.3,0.5,0.6,0.8,0.9"/>
	<path class="st0" d="M169.7,104c0.4,0.1,0.8,0.3,1.1,0.4"/>
	<path class="st0" d="M171.6,102.6c0.2-0.8,0.2-1.8,0-2.6c0-0.1-0.1-0.2-0.1-0.4c0.1-0.3,0.4-0.5,0.8-0.5s0.7,0.1,1-0.1"/>
	<path class="st0" d="M174.4,96.8c0.2,0.4,0.6,0.7,1.1,0.8"/>
	<path class="st0" d="M175.9,94.4c0.2,0.5,0.5,0.9,0.9,1.2"/>
	<path class="st0" d="M182,92.4c0.6,0.1,1.2,0.2,1.9,0.4"/>
	<path class="st0" d="M184.3,91.4c0.5,0.1,1,0.3,1.5,0.4"/>
	<path class="st0" d="M184,87.4c0.8,1.1,1.5,2.3,2.1,3.6"/>
	<path class="st0" d="M187.1,88.1c0,0.9,0.2,1.8,0.5,2.6"/>
	<path class="st0" d="M189.7,85.2c0.2,1.7,0.3,3.4,0.5,5.1"/>
	<path class="st0" d="M195.5,89.9c1,0.5,2.1,0.7,3.2,0.8c0.1-0.3,0.1-0.5,0.2-0.8c0-0.1,0.1-0.2,0.1-0.2c0.2-0.1,0.3,0.1,0.4,0.3
		c0.3,0.3,0.9,0.1,1.1-0.3c0.2-0.4,0.1-0.9,0-1.3c0.3,0,0.6,0.1,1,0.1c-0.1-0.5-0.3-1.1-0.7-1.5"/>
	<path class="st0" d="M201.8,83.9c0.2,0.9,0.5,1.7,0.7,2.6"/>
	<path class="st0" d="M204.6,84.4c0,0.7,0.1,1.4,0.3,2.1"/>
	<path class="st0" d="M206.6,85.7c-0.1,0.3-0.1,0.6,0.1,0.9"/>
	<path class="st0" d="M181.4,108.1c0.7,0.7,1.2,1.5,1.6,2.4"/>
	<path class="st0" d="M182.1,104.3c1.5,1.8,2.3,4.2,2.2,6.5"/>
	<path class="st0" d="M186,106.9c0,0.6,0.1,1.2,0.3,1.7"/>
	<path class="st0" d="M197.1,102.5c-0.2-0.3-0.6-0.5-0.9-0.5c-0.3,0.9,0.5,2,1.4,1.9c0.1-0.6-0.2-1.2-0.7-1.5"/>
	<path class="st0" d="M195.9,109.8c-0.1-1.6,0.8-3.1,1.8-4.3c1.3-1.6,2.8-3,4.5-4.2c0.3,0.5-0.1,1.3-0.6,1.3"/>
	<path class="st0" d="M202.4,97.9c-0.2,0.7,0.3,1.5,1,1.6c0.2-0.6,0-1.2-0.4-1.7"/>
	<path class="st0" d="M201.1,106.8c-0.4,0-0.8,0-1.1,0c0.1,0.8,1,1.4,1.7,1c-0.1-0.5-0.4-1-0.9-1.3"/>
	<path class="st0" d="M209.1,110.3c0.5-1.6,1.5-3,2.4-4.3c0.6-0.9,1.2-1.7,1.8-2.6s1.2-1.8,2.1-2.4c0.8-0.7,1.8-1.1,2.8-1.2"/>
	<path class="st0" d="M211,103.6c-0.5,0.3-0.6,1-0.3,1.5c0.6-0.2,0.6-1,0.5-1.5"/>
	<path class="st0" d="M213.4,98.9c-0.3,0.5-0.5,1.1-0.4,1.7c-0.1-0.9,0.2-1.7,0.8-2.4c0.3,0.6,0.4,1.4,0.3,2.1"/>
	<path class="st0" d="M216,99.8c-0.1-0.9,0.4-1.7,1.2-2.1c0.2,0.5,0.4,1,0.4,1.5"/>
	<path class="st0" d="M219.7,98.2c0,0.3-0.1,0.6-0.1,0.9s0.2,0.8,0.5,0.6c0.1,0,0.1-0.1,0.2-0.2c0.3-0.5,0.3-1.2,0.1-1.8"/>
	<path class="st0" d="M217.3,101c-0.5,0-0.9,0.4-1,0.9c0.3,0.2,0.7,0.1,0.9-0.2c0.2-0.3,0.3-0.6,0.4-0.9"/>
	<path class="st0" d="M215.6,104c-0.4,0.4-0.5,0.9-0.4,1.4c0.5-0.3,0.7-0.9,0.6-1.4"/>
	<path class="st0" d="M213.9,105.9c-0.3,0.5-0.3,1.2-0.1,1.7c0.3-0.5,0.5-1.1,0.3-1.7"/>
	<path class="st0" d="M125.2,137.2c3.4-0.1,6.8-0.2,10.1-0.3c0.7,0,1.4-0.1,2.1-0.1c3.1-0.1,6.3-0.2,9.4,0c1.9,0.1,3.8,0.4,5.8,0.4
		c2.4,0.1,4.8-0.3,7.2-0.5c15.6-1.6,31.4-1.3,47.1-1c7.3,0.1,14.8,0.3,21.7,2.9c6.3,2.4,11.7,6.7,17.9,9.5c3.7,1.7,7.8,3,10.7,5.8
		c2.9,2.9,4.1,8.1,1.1,10.9c-0.6,0.6-1.4,1-1.9,1.8c-0.8,1.2-0.6,2.8-0.7,4.3c-0.5,6.6-8.1,10.7-9.3,17.2c-0.2,1.2-0.2,2.5-0.5,3.8
		c-1.1,4.2-5.9,6.1-9,9.2c-3.2,3.1-4.8,7.8-8.6,10.3c-2,1.4-4.4,1.9-6.6,2.9c-2.3,1.1-4.3,2.6-6.4,4.1l-7.3,5.5
		c-0.7,0.5-0.6,1.5,0.2,1.9l2.1,1"/>
	<path class="st0" d="M190.3,131.5c10,1.7,20.3,2,30.4,0.9c3.3-0.4,6.7-0.9,9.9-0.1c2.3,0.5,4.5,1.7,6.7,2.6
		c5.4,2.4,11.4,3.5,17.3,3.3"/>
	<path class="st0" d="M230,121.3c0.2-0.6,1-0.7,1.6-0.7c6.2-0.3,12.5-0.7,18.7-1c3.6-0.2,7.1-0.4,10.7-0.3c4.8,0.1,9.6,0.8,14.3,0.7
		c1.6-0.1,3.3-0.2,4.9-0.4"/>
	<path class="st0" d="M261,123.5c2.2-0.2,4.5-0.4,6.7-0.5c1-0.1,1.9-0.2,2.9-0.1c1.6,0,3.2,0.3,4.8,0.5c2.4,0.2,4.9,0.1,7.3-0.4
		c1.5-0.3,3.4-0.7,4.3,0.5"/>
	<path class="st0" d="M307.9,129.4c-1.1,1.7-1.6,3.8-1.4,5.9"/>
	<path class="st0" d="M309.9,125.9c-0.2,0.4-0.4,0.8-0.4,1.2c0.1,0.4,0.5,0.9,0.9,0.7c0-0.4,0-0.9,0-1.4c-0.3,0-0.5,0-0.8-0.1"/>
	<path class="st0" d="M299.8,134.3c-0.6,0.3-0.6,1.3,0,1.5c0.6,0.3,1.4-0.4,1.1-1c1.5,0.6,4.1,2.8,4.8,4.2"/>
	<path class="st0" d="M267.1,154.1c-0.9,1.7-1.2,3.7-1,5.7"/>
	<path class="st0" d="M268.8,151.5c-0.5,0.3-0.8,1-0.4,1.5c0.3,0,0.7,0,1,0c0-0.4,0-0.7,0.1-1.1"/>
	<path class="st0" d="M270.3,160.6c-0.2-1.1,0-2.3,0.5-3.4c-0.4,0.1-0.3-1.2-0.3-0.8s0.5,0.6,0.9,0.5c0.3-0.4,0.3-0.9,0.2-1.3"/>
	<path class="st0" d="M274.7,158.7c0.5-1.5,2.1-2.5,3.7-2.5"/>
	<path class="st0" d="M280.7,154.2c-0.8,0.8,0,2.4,1.1,2.2c0.1-0.5,0.1-1-0.2-1.4"/>
	<path class="st0" d="M303.9,213.8c4.6,0.5,9.1,2.1,13,4.8"/>
	<path class="st0" d="M233,218c-0.3-0.4-0.9-0.2-1.2,0.1c-0.3,0.4-0.4,0.8-0.8,1.1c-0.3,0.3-0.7,0.4-1.1,0.4
		c-1.4,0.3-2.9,0.4-4.3,0.4c-0.4,1,0.7,2,1.7,2.1s2-0.5,2.9-1.1s1.8-1.1,2.9-1.1c0-0.9,0-1.8,0.1-2.8"/>
	<path class="st0" d="M240.1,224.2c-1.5,0.7-2.3,2.6-1.7,4.2c1.2-0.2,2.3-1.3,2.4-2.6c0-0.3-0.3-0.8-0.5-0.5"/>
	<path class="st0" d="M245.8,222.6c-0.4,0-0.8,0-1.1,0.1c-0.3,0.9,0.8,1.6,1.7,1.8c0.2,0.1,0.4,0.1,0.6,0.1c0.5-0.1,0.6-0.9,0.3-1.2
		s-0.8-0.5-1.3-0.7"/>
	<path class="st0" d="M257.6,217.9c-0.4-0.3-0.9-0.6-1.4-0.7c-0.5-0.1-1.1,0.2-1.2,0.8c-0.1,0.2,0,0.5,0.1,0.7
		c0.2,0.9,0.4,1.7,0.6,2.5c1.4-0.1,2.5-1.7,2.2-3"/>
	<path class="st0" d="M261.3,223.6c-0.9,0.4-1.7,1.1-2.3,1.9c-0.3,0.4-0.6,0.9-0.5,1.5s0.4,1.1,1,1.1c0.4,0,0.9-0.3,1.1-0.6
		c0.8-0.8,1.3-1.8,1.6-2.9"/>
	<path class="st0" d="M272,228.4c-1.1,0-2.2,1-3.3,0.8c-0.9-0.2-1.8-1.1-2.4-0.5c-0.3,0.3-0.3,0.9-0.1,1.2c0.3,0.4,0.7,0.6,1.2,0.7
		c1.9,0.5,4.1-0.3,5.1-2"/>
	<path class="st0" d="M270.6,239.1c-0.6-0.1-1.2-0.2-1.7-0.2c-0.2,1.4,1.2,2.4,2.4,3.1c0.4,0.2,0.8,0.4,1.2,0.4c0.8-0.2,1-1.4,0.4-2
		s-1.4-0.8-2.2-0.9"/>
	<path class="st0" d="M304.2,212.5c3.4-0.1,6.7,0.5,9.9,1.7c-1.7-1.7-2.7-4.1-2.8-6.5"/>
	<path class="st0" d="M312.2,201.3c0.5,3.4,1.7,6.6,3.5,9.5c0.4-1.9,1-3.1,1.4-5c-0.2,2.7,0.5,5.4,1.9,7.6c1.6-2.1,3.2-4.1,4.8-6.2
		c-0.4,3-0.4,6.1-0.3,9.1"/>
	<path class="st0" d="M109.5,29c-0.1-0.8-0.2-1.5-0.3-2.2"/>
	<path class="st0" d="M120.4,25.8c-0.4-0.1-0.8-0.2-1.3-0.3c-1.2-0.3-2.7-0.9-2.6-2.1"/>
	<path class="st0" d="M129.6,46.5c4.8,1.2,10-2.7,16-4.5c1.6-0.5,3.5-2.5,4.9-3.4s3.8-1.5,5.5-1.8c3.7-0.7,4.9-2.2,8.6-2.3
		c4.3-0.1,8.7,0.3,12.9-0.3c3.5-0.6,6.8-1.8,10.2-2.8c3.9-1.1,8.6-0.1,14.3-2.2"/>
	<path class="st0" d="M124.6,36.2c0.1,0.7,0.8,1,1.4,1s1.3-0.2,1.9,0c0.2,0.1,0.4,0.2,0.6,0.2c0.6,0.2,1.2,0.3,1.8,0.2"/>
	<path class="st0" d="M124.6,38.1c1.9-0.2,3.8-0.1,5.7,0.3c0.2,0.1,0.5,0.1,0.7,0.1c0.6-0.1,0.9-0.9,1.2-1.5
		c0.1-0.1,0.1-0.2,0.2-0.2c0.1-0.1,0.2-0.1,0.3-0.1c0.8,0,1.5,0.1,2.3,0.1"/>
	<line class="st0" x1="173.5" y1="68.4" x2="173.5" y2="76.8"/>
	<line class="st0" x1="174.8" y1="68.5" x2="174.8" y2="76.8"/>
	<polyline class="st0" points="161.5,68.5 161.5,75.8 162.8,75.3 162.8,68.5 	"/>
	<polyline class="st0" points="164.1,68.9 164.1,81.2 165.1,81.2 164.8,69.4 	"/>
	<path class="st0" d="M148,70.1c0,0,1.6-0.5,2.1-0.5s1.3-1,1.3-1s0.8-0.5,1.3-1s1.3-1.8,1.8-1.8s1-0.3,1.6-0.5c0.5-0.3,1.6-1,1.6-1
		c1.5,1.1,3,2.3,4.5,3.4c0.3,0.3,0.7,0.5,1,0.8c1.3,1,2.6,1.9,3.8,2.9"/>
	<path class="st0" d="M149,68.5c0,0,2.1-1,2.6-1.6c0.5-0.5,2.6-2.3,2.9-2.3s2.6-1.8,2.6-1.8"/>
	<path class="st0" d="M149.3,69.7c0,0,0,10.3,0.5,11c0.5,0.8,0.5,1.6,0.5,1.6l1-0.5c0,0-1-4.7-1-7.5c0-2.9,0-4.7,0-4.7"/>
	<path class="st0" d="M228.1,107.9c-0.1-0.4-0.7-0.4-1-0.2c-0.3,0.3-0.4,0.7-0.4,1c0,0.2,0,0.4,0.1,0.5c0.2,0.3,0.8,0.1,0.9-0.2
		C228,108.7,228,108.3,228.1,107.9"/>
	<path class="st0" d="M229.9,105.5c-0.1,0-0.2,0-0.3,0c-0.1,0.3-0.2,0.5-0.2,0.8s0.3,0.6,0.6,0.5c0.1-0.3,0-0.7-0.2-1"/>
	<path class="st0" d="M239.2,106.8c-0.8-0.1-1.6,0.8-1.4,1.6"/>
	<path class="st0" d="M233.5,101.7c-0.2-0.3-0.1-0.6-0.1-0.9c0.1-0.3,0.1-0.6,0-0.9s-0.5-0.5-0.7-0.3c-0.2,0.1-0.2,0.3-0.2,0.5
		c-0.2,1.1-0.3,2.2-0.2,3.3"/>
	<path class="st0" d="M223,108.9c-0.1-1.8,1.3-4,0.5-5.6c-1-2.1-1.6,1.4-0.2-0.4c0.5-0.6,0.7-1.5,1.1-2.2c0.5-1.1,1.1-2.1,1.7-3.2
		c0.2-0.1,0.3,0.2,0.4,0.4c0.1,0.4,0.1,0.8-0.1,1.1c-0.2,0.3-0.7,0.4-0.9,0.1"/>
	<path class="st0" d="M225.4,102.1c-0.4-0.1-1-0.2-1.2,0.2c-0.2,0.4,0.2,0.9,0.6,0.8C225.2,103,225.4,102.5,225.4,102.1"/>
	<path class="st0" d="M224.2,105c-0.2,0.2-0.1,0.6,0.3,0.6c0.3,0,0.5-0.4,0.4-0.7c-0.2-0.3-0.5-0.3-0.8-0.1"/>
	<path class="st0" d="M225,100c0.1,0.2,0.2,0.4,0.4,0.5s0.5,0,0.5-0.2c0.1-0.2-0.3-0.4-0.4-0.3"/>
	<path class="st0" d="M263.7,106.8c-0.1,1.6,0.5,3.2,1.6,4.5"/>
	<path class="st0" d="M277.2,107.6c-0.3,0.5-0.5,1.2-0.4,1.8c0.7,0,1.5,0,2.2,0.1"/>
	<path class="st0" d="M288.7,110.4c1.2,0.4,2.8-0.8,2.6-2.1"/>
	<path class="st0" d="M307.5,100.5c1.7,1.1,4,1.5,6,1"/>
	<path class="st0" d="M325.4,111.7c0.9-1,2.4-1.4,3.7-1.1"/>
	<path class="st0" d="M335.9,107.7c-0.4,1.7-1.3,3.2-1,4.9c0.2,1,0,1.9,1,1.9c1.2,0.1,1.7-1.4,1.8-2.6"/>
	<path class="st0" d="M342.4,105.7c3.4,2.4,7.2,2.5,8.8,1.3"/>
	<path class="st0" d="M346.4,110.6c-0.5,0.1-0.4,0.9,0,1.1c0.5,0.2,1-0.2,1.1-0.7s0-1-0.1-1.5"/>
	<path class="st0" d="M362.1,110.2c1.7,1.2,4.3,0.9,5.6-0.8"/>
	<path class="st0" d="M374.8,113.6c1.4,1.2,3.1,2.1,4.9,2.2"/>
	<path class="st0" d="M380.2,128.9c-0.3-3.9,4.9-4.1,7.4-5.4c-1-0.6-2.2-0.7-3.4-0.6"/>
	<path class="st0" d="M386.8,114.3c-0.7,0.4-1,1.4-0.7,2.2c0.4,0.1,0.9,0.1,1.4,0c0-0.6,0-1.2,0.1-1.8"/>
	<path class="st0" d="M387.9,125.2c1.1,2.1,3.9,3,6,1.9"/>
	<path class="st0" d="M380.8,124.8c1-3.4,4.3-6,7.8-6.1"/>
	<path class="st0" d="M400.2,128.6c1.1,1.9,3.6,2.8,5.7,2.1"/>
	<path class="st0" d="M410.7,135.2c-0.6,0.6-0.3,1.8,0.5,2c0.3-0.6,0.4-1.3,0.2-1.9"/>
	<path class="st0" d="M360.7,217.6c-0.4-1.6-1.3-3.1-2.6-4.2c-0.4-0.4-0.9-0.8-0.8-1.4c1.4,0.4,2.6,1.1,3.6,2.2
		c-0.3-1.1-0.7-2.1-1-3.2c-0.2-0.7-0.3-1.7,0.4-1.9c0.6-0.2,1.1,0.5,1.4,1.1c0.3,0.8,0.7,1.6,1,2.4c-0.1-1.7,0.2-3.4,0.7-4.9
		c0.2-0.5,0.6-1.1,1.1-1s0.6,0.8,0.6,1.4c-0.1,1.4-0.1,2.8-0.1,4.2c0.5-0.9,1.4-1.6,2.4-1.9c-0.1,0.6-0.3,1.1-0.5,1.7
		c-0.6,1.4-1.1,2.8-1.7,4.3"/>
	<path class="st0" d="M370.1,178c-0.6,0.4-0.2,1.6,0.6,1.6c0.8,0,1.2-1,0.7-1.6"/>
	<path class="st0" d="M369.5,180.7c-1,1.2-1.6,2.7-1.8,4.2"/>
	<path class="st0" d="M372.8,181.9c-0.4,0.2-0.2,1,0.3,1s0.8-0.5,0.8-1"/>
	<path class="st0" d="M371.8,184.2c-0.6,0.7-0.8,1.7-0.7,2.7"/>
	<path class="st0" d="M376.3,184.6c0.8-1.5,2.4-2.5,4.1-2.6"/>
	<path class="st0" d="M382.3,180.7c-0.2-0.1-0.4,0-0.6,0.2c0,0.3,0.1,0.6,0.1,0.9c0.4,0.2,1,0.3,1.5,0.2c0-0.4,0-0.8,0-1.2"/>
	<path class="st0" d="M414.8,223.7c0.3-0.4-0.1-1.2-0.6-1.2c-0.6-0.1-1.1,0.3-1.4,0.8s-0.4,1-0.7,1.6c-0.1,0.1-0.1,0.3-0.3,0.3
		c-0.1,0.1-0.3,0-0.4,0c-0.9-0.1-1.7,0.7-1.7,1.6c0.4,0,0.9,0.1,1.3,0.3c0.4,0.3,0.5,0.8,0.3,1.1c0.2,0.1,0.4-0.1,0.6-0.2
		c1.1-1.2,2.2-2.4,3.2-3.6"/>
	<path class="st0" d="M420.8,225.8c0.3-1.2-0.4-2.5-1.6-3c-1.1,1.7-2,3.6-2.6,5.5c0.5,0.3,1.2-0.1,1.4-0.6c0.6,0.3,1.4,0.2,1.9-0.2
		s0.7-1.2,0.5-1.8"/>
	<path class="st0" d="M333.8,245.6c-0.5,1.1-0.1,2.5,0.8,3.2c0.3,0.2,0.6,0.4,0.9,0.4c0.7,0,1.3-0.6,1.3-1.4c0-0.7-0.5-1.3-1.1-1.6
		s-1.4-0.3-2-0.2"/>
	<path class="st0" d="M320.5,251.2c-1.7,1-3.6,1.4-5.5,1.9c-5.2,1.2-10.5,2.4-15.7,3.7c-0.2,0.1-0.5,0.1-0.6,0.3
		c-0.5,0.6,0.4,1.3,1.2,1.5c5.4,1,10.6-1.8,15.9-3.1c2-0.5,4.1-0.8,6.1-1.6s3.7-2.2,4.3-4.3C326.8,247.1,321.2,250.8,320.5,251.2z"
		/>
	<path class="st0" d="M394.8,235.2c-0.5,0.6-0.9,1.2-1.4,1.8c-1.7,1.8-4.3,2.2-6.7,2.5c-2.6,0.4-5.2,0.7-7.7,1.1
		c-7.1,1-14.3,1.9-21.3,0.5c-1.3-0.3-2.8-0.8-3.3-2.1c-0.4-1,0-2.2-0.6-3c-0.6-0.9-1.9-0.8-3-0.7c-2.3,0.3-4.6,0.5-6.9,0.8
		c-0.6,0.1-1.3,0.2-1.8,0.5c-1.2,0.9-0.7,3,0.6,3.8c1.3,0.8,3,0.7,4.5,0.5c-1.5,0.2-3,0.6-4.5,1.1c-0.7,0.2-1.5,0.6-1.6,1.3
		c-0.2,1.2,1.5,1.8,2.7,1.9c6,0.3,11.9,0.6,17.9,1c1,0.1,2.3,0.3,2.5,1.3c0.1,0.4,0,0.9,0.1,1.3c0.2,1.1,1.5,1.6,2.6,1.7
		c1.7,0.3,3.4,0.4,5,0.3c2.9-0.1,5.7-0.6,8.5-1.1c10.9-1.8,21.9-2.5,33-2.1c5.3,0.2,10.7,0.6,15.8-0.8c0.5-0.1,1.1-0.4,1.2-0.9
		c0.1-0.7-0.6-1.2-1.3-1.4c-2.6-1-5.4-1.6-8.3-1.7c-1-0.1-2.4-0.4-2.3-1.5c1.4-0.5,2.7-1.1,4-1.9c0.4-0.2,0.8-0.5,1-0.9
		c0.6-1.2-1.1-2.3-2.4-2.7c-4.5-1.2-9.3-1.8-14-1.9C403,234.1,397.9,231.7,394.8,235.2z"/>
	<path class="st0" d="M385,255.9c0.3-0.3,0.6-0.7,0.5-1.1c-0.1-0.6-1-0.9-1.5-0.6c-0.5,0.3-0.8,1-0.7,1.7c0.1,0.6,0.4,1.2,0.7,1.8
		c0.5,0.8,0.9,1.7,1.4,2.5c0,0.1,0.1,0.1,0.1,0.2c0.3,0.2,0.7-0.2,0.8-0.6c0.2-1.4-0.3-2.8-1.4-3.7"/>
	<path class="st0" d="M422,250.7c-1.7-0.3-3.4-0.6-5.1-1c-0.1,0-0.2-0.1-0.3,0c-0.2,0.1-0.3,0.4-0.3,0.6c0.1,0.7,0.8,1.2,1.5,1.4
		c1.2,0.5,2.6,0.7,4,0.6c0.3-0.4,0.3-0.9,0-1.3"/>
	<path class="st0" d="M387.2,267.3c0.6-0.1,1.2-0.3,1.4-0.9c0.2-0.6-0.2-1.4-0.8-1.6s-1.3-0.2-2-0.1c-0.6,0.1-1.2,0.3-1.8,0.2
		c-0.4-0.1-0.8-0.3-1.2-0.5c-1.2-0.5-3,0.1-3.2,1.4c-1.7,0.1-3.3,0.7-4.7,1.6c-0.8,0.5-1.6,1.2-1.7,2.1c-0.2,0.8,0.2,1.7,0.7,2.3
		c0.5,0.6,1.3,1,2.1,1.3c1.9,0.7,9.1,1.2,10.5-0.8C388.3,269.6,381.4,267.9,387.2,267.3z"/>
	<path class="st0" d="M96.5,306.5c0,0,3.4-2.1,6-2.3s6.2,0,6.2,0s4.7-9.9,9.9-12.5s13.3-8.1,21.3-6.5s15.1,7.8,17.2,14
		c2.1,6.2,3.1,16.9,3.1,16.9s6-0.5,10.4,2.6s8.8,9.1,8.8,9.1s2.3-3.9,7.5-1.3s10.1,6.8,10.1,6.8s4.7-5.5,9.6-6.8
		c4.9-1.3,12.7-2.1,19.8,1c7,3.1,9.1,6.5,9.9,11.7s0,8.6,0,8.6s3.1-1.6,7.8,1s4.7,2.6,4.7,2.6s2.6-3.1,7.5-2.6
		c4.9,0.5,7.3,2.6,7.3,2.6s1.3-4.9,9.9-4.9s11.4,3.1,11.7,4.9c0.3,1.8,0,1.8,0,1.8s1.6-1.6,4.7,0s3.9,2.9,3.9,2.9s4.2-8.3,12-9.1
		c7.8-0.8,7.5-1,11.4,1.6s6.8,5.5,6.8,5.5s1.8-1.3,3.9-1s3.9,1,3.9,1s1-2.6,3.4-2.9c2.3-0.3,3.4,0,3.4,0"/>
	<path class="st0" d="M336.9,352.5c0,0-0.8-4.9,3.9-7.8s10.1-1,12.5-0.8s6.5,4.7,6.5,4.7l1.3-0.8c0,0,0.5-4.2,3.6-7.5
		c3.1-3.4,8.6-4.7,8.6-4.7s-2-4.9,0-11.4c2.1-6.8,8.8-17.2,15.3-18.7c4.2-1,11.4-2.4,16.7-3.1c5.1-0.7,10.3,0.1,14.8,2.3
		c2.7,1.4,5.2,3.2,5.9,5.7c1.3,4.9,1.3,4.9,1.3,4.9s0.8-2.9,7-3.9s10.7-1,10.7-1"/>
	<path class="st0" d="M88,235.8c8.9-1.7,18.8,2.4,26.9-1.8c0.2-0.1,0.5-0.3,0.6-0.5c0.9-1.2-0.5-2.5-1.8-3.2
		c-4.1-2-8.7-3.1-13.3-3.1c-1.4,0-2.8,0.1-4-0.7c-0.6-0.3-1-0.9-1.2-1.5c-0.6-2.1,1.7-3.5,3.7-4.1c3.6-0.9,7.4-1,10.9-0.1
		c1.6,0.4,3.2,1,4.8,1.5c4.2,1.4,8.6,2.1,13,2.7c7.5,1.1,15.2,1.7,22.7,0.8c2.6-0.3,5.3-0.9,7.9-0.4c2.3,0.4,4.5,1.6,6.5,2.7
		c0.2,0.1,0.4,0.2,0.5,0.4c1.5,1.6-1.2,3.5-1.1,5.5c0,1.4,1.4,2.4,2.8,2.7c1.4,0.3,2.8,0.2,4.1,0.6c-4.5,0.5-9.2,0.8-13.7,0.6
		c-0.6,0-1.1-0.5-1.2-1.1c-0.1-0.7,0.5-0.9,1-1.2c1.3-0.7,2.5-1.7,3.4-2.9c0.2-0.3,0.4-0.6,0.3-0.9c-0.1-0.3-0.4-0.5-0.8-0.6
		c-2.2-0.8-4.5-1.6-6.8-1.8c-2.4-0.2-4.9,0.4-6.5,2.1c1-0.4,2.1,0.5,2.2,1.6c0.1,1.1-0.7,2-1.6,2.5s-2,0.6-3.1,0.7
		c-5.7,0.6-11.5,1.5-16.6,4c-0.3,0.1-0.5,0.3-0.7,0.5c-1.2,1.4,0.7,3.2,2,3.7c0.5,0.2,1,0.5,1.4,1c1.5,2.1-0.3,3.5-1.9,4.2
		c-4.6,2.1-13.5,3.2-14.7,1.8c-0.8-1-0.9-1.6,0.2-2.4c0.6-0.4,0.4-1.3-0.2-1.6c-2.4-1-5.8-1.4-8.1-1.7c-1.9-0.3-3.8-0.2-5.6-0.6
		c-3.8-0.7-8,0.8-11.3-1.2"/>
	<path class="st0" d="M80.7,236.1c-2.9,0.2-5.8,0.2-8.8,0c-2.2-0.2-4.3-0.5-6.5-0.4c-2.3,0.1-4.7,0.5-6.9,1.3
		c-1.5,0.6-3.1,1.6-3.2,3.2c-0.1,1.3,1,2.5,2.3,2.9c1.2,0.4,2.6,0.4,3.9,0.3c7-0.4,16.3,2.6,21.2,0.1"/>
	<path class="st0" d="M176,246.1c-0.2-1,0.7-2,1.7-2c0.1-0.6-0.6-0.9-1.2-0.9c-7.3-1-14.7-1.5-22.1-1.7c-4.5-0.1-9.1,0-13.4,1.2
		c-0.7,0.2-1.5,0.5-2,1.1c-0.6,0.7-0.7,1.9-0.2,2.7s1.7,1.1,2.6,0.8c0.3,0.8,0.4,1.8,0.2,2.6c-1.1-0.3-2.2,0.8-2.3,2
		s0.7,2.2,1.7,2.8s2.2,0.8,3.3,0.9c4.4,0.4,8.9-0.1,13.4-0.8c1.2-0.2,3.1,0,3.1,1.3c0.1,1.2-1.5,1.6-2.7,1.7
		c-1.8,0.1-3.6,0.4-5.2,1.1c-1.6,0.8-3.1,2.1-3.6,3.7c5.3,2.2,11.3,1,17,1c1.6,0,3.3,0.1,4.9-0.3c5.6-1.3,9.3-7.6,15-7.7
		c0.7,0,1.5,0.1,2.1-0.1c0.7-0.2,1.3-0.9,1.1-1.6c-0.2-0.5-0.6-0.8-1.1-1c-2.4-1.4-4.8-2.7-7.2-4.1c-1-0.5-1.9-1.1-3-1.4
		C177.4,247.1,176.2,247.6,176,246.1z"/>
	<path class="st0" d="M182.7,253.2c-0.5-0.2-1.1-0.4-1.7-0.2s-1,0.7-0.9,1.2c0.2,0.4,0.7,0.6,1.1,0.8c0.4,0.1,0.9,0.1,1.2,0
		s0.8-0.5,0.7-0.9c0-0.4-0.5-0.8-0.9-0.6"/>
	<path class="st0" d="M180.6,230.9c-4-1.3-8.5-2.3-12.2-0.4c-0.4,0.2-0.9,0.5-1,1c-0.1,0.7,0.5,1.2,1.1,1.6c2.5,1.7,5.1,3.4,8.1,4
		c2.4,0.5,4.9,0.2,7.1,1.1c3.7,1.5,5.6,5.6,8.3,8.5c2.1,2.2,4.7,3.8,7.3,5.3c3.8,2.2,8.3,4.5,12.3,2.9c0.4-0.2,0.7-0.3,0.9-0.6
		c0.6-0.8-0.1-2-0.9-2.5c-0.9-0.5-1.9-0.4-2.9-0.7c-4-0.9-6-5.4-9.1-8.1c-1.3-1.2-3-2.1-3.6-3.8c-1.2-3,0-6.2-4.2-6.2
		C187.8,233,184.5,232.2,180.6,230.9z"/>
	<path class="st0" d="M210.8,236.9c-1.1-0.2-2.2-0.4-3.2-0.8c-0.4-0.2-0.9-0.5-1.4-0.4s-0.9,0.7-0.6,1.1c1.1,0.6,2.2,1.2,3.2,1.9
		c0.5,0.3,1.1,0.6,1.7,0.6c0.6,0,1.2-0.5,1.2-1.1c0-0.7-0.9-1.1-1.5-1.2"/>
	<path class="st0" d="M218.3,241.6c-1.2-0.1-1.9-1.6-3-2.1c-0.2-0.1-0.3-0.1-0.5-0.1c-0.3,0-0.5,0.2-0.7,0.4
		c-0.6,0.8-0.3,2.2,0.7,2.6c-0.3,0.3-0.7,0.4-1.1,0.4c-0.2,0.9,0.7,1.8,1.6,1.6c0.4-0.1,0.8-0.5,1.3-0.5c0.2,0,0.3,0,0.5-0.1
		c0.1-0.1,0.2-0.2,0.2-0.3c0.3-0.6,0.6-1.3,0.9-2"/>
	<path class="st0" d="M204.3,229.5c-0.4,0.3-1.1-0.2-1-0.7s0.6-0.8,1.2-0.8s1,0.3,1.5,0.5c3.6,2,7.1,4,10.3,6.5
		c1.7,1.3,3.4,2.9,5.5,3.1c0-1.3,1.3-2.3,2.6-2.3c1.3-0.1,2.5,0.5,3.7,1.1c4.4,2.2,8.9,4.3,13.3,6.4c0.6,0.3,1.6,0.5,1.9-0.1
		c0.1-0.2,0.1-0.5,0.1-0.8c-0.3-1.8-2.1-3-3.7-4c-3.9-2.3-7.9-4.7-11.8-7c-1.7-1-3.7-2-5.5-1.1c-1.7,0.9-2.4,3.3-4.3,3.8
		c-1,0.2-2.1-0.2-3-0.7c-2.5-1.2-5-2.4-7.5-3.6"/>
	<path class="st0" d="M224.7,241.4c-0.8-0.4-1.6-0.8-2.4-0.4c-0.9,0.4-1.2,1.7-0.7,2.7c0.4,0.9,1.4,1.5,2.2,2.1
		c1.8,1.1,3.8,2.2,5.3,3.8c-3,0.3-5.8-1.3-8.8-2c-0.4-0.1-1.1-0.1-1.2,0.4c-0.1,0.2,0.1,0.4,0.2,0.6c1.3,2.1,3.8,3.1,6.1,4.1
		c2.9,1.4,5.6,3.1,8,5.2c0.5,0.5,1.1,1,1.8,1.2s1.5,0,1.8-0.6s-0.1-1.4-0.4-1.9c-0.7-1.2-1.4-2.4-2-3.6c0.8-0.9,2.3-0.4,3.3,0.4
		c1,0.7,2.2,1.6,3.3,1.1c1-0.4,1.4-1.8,1-2.8s-1.3-1.7-2.2-2.4c-2.6-1.8-5.4-2.5-8.1-3.9C229.4,244.1,227.1,242.6,224.7,241.4z"/>
	<path class="st0" d="M254.6,246.1c-0.3,0.4-1,0.2-1.4-0.1s-1-0.6-1.4-0.3c-0.5,0.5-0.3,1.4,0.2,1.8c0.5,0.4,1.2,0.6,1.9,0.6
		c0.4,0,0.9-0.1,1.1-0.4c0.3-0.3,0.3-0.9-0.1-1"/>
	<path class="st0" d="M207.6,220.2c-0.7,0.6-1.4,1.2-1.8,2.1c-0.4,0.8-0.4,1.9,0.2,2.6c0.4,0.5,1.1,0.7,1.7,1
		c0.5,0.3,0.9,0.8,1.2,1.2"/>
	<path class="st0" d="M217.7,221c-1.6-0.8-3.7,0.1-4.3,1.7c0,0.1-0.1,0.2,0,0.3c0.1,0.3,0.5,0.2,0.7,0.2c0.9-0.3,1.9-0.5,2.8-0.8
		c0.5-0.2,1.1-0.4,1.3-0.8c0.2-0.5-0.3-1.2-0.7-1"/>
	<path class="st0" d="M167.7,362.9c13.5,2.8,26.7,7.6,40.3,10.4c8.6,1.8,18.4,2.5,27,4.3c49.4,10.5,99.2,22.4,149.7,21.2
		c4.8-0.1,9.5-0.3,14.2,0.1c3.4,0.3,7.1-0.4,10.5-0.1c9.6,1,22.4-1.9,32-3.4"/>
	<path class="st0" d="M312.6,374.7c-3-1.5-6.5-1.9-9.8-2.2c-7.8-0.8-15.7-1.7-23.5-2.5c-8.8-0.9-17.5-1.9-26.1-3.6
		c-12.6-2.4-25.1-6.4-37.9-7.1c0.4,4.4,0.3,8.3,0.3,12.8c0.1-0.8,1.2-0.9,1.9-0.8c8.4,1.1,16.6,2.9,24.9,4.6
		c8.3,1.8,16.6,3.5,24.9,5.3c14.1,3,28.1,6,42.1,9C309.5,385.4,311.2,379.4,312.6,374.7z"/>
	<path class="st0" d="M310.9,380.4c2.2-1.6,5.2-0.2,7.8,0.6c1.9,0.7,4,1,6,1.4c14,2.4,28,4.7,42.1,6.6c10,1.4,20,2.7,30.1,2.3
		c4-0.1,8-0.5,12-0.6c4.2-0.1,8.6-0.5,12.8-0.6c7.3-0.2,14.3-2.1,21.4-2.8"/>
	<path class="st0" d="M312.3,376.8c4.5,0,9.1,0.4,13.6,1.1c4,0.6,8,1.5,11.9,2.4c33.8,7.2,68.9,9.4,103.1,3.7"/>
	<path class="st0" d="M170.4,356.3c15.1,2.6,30.1,5.6,45.1,8.9"/>
	<path class="st0" d="M170.1,353.1c15.3,1.7,29.2,7.3,44.5,8.7c0.2,0,0.4,0.1,0.5,0.3s-0.3,0.3-0.3,0.1"/>
	<path class="st0" d="M17.7,252.6c-0.4-0.7-1.5-0.7-2.1-0.1c-0.6,0.5-0.7,1.5-0.5,2.3c0.3,0.9,1.2,1.6,2,1.3c0.9-0.4,1-1.6,0.9-2.6
		c0-0.3-0.2-0.8-0.5-0.7"/>
	<path class="st0" d="M3,310.2c5.7,4,11.6,8.4,17.9,11.5C13.4,316,9,306.2,1,301.2"/>
	<path class="st0" d="M52.9,277.2c0,0-3.6-2.6-4.7-2.1s-6.2-4.2-7.5-5.5s-6.5-3.4-7.5-3.6c-1-0.3-6.2-1.6-7.8-2.1
		c-1.6-0.5-3.6-0.8-5.2-1.6c-1.6-0.8-2.9-1-3.6-1.3c-0.8-0.3-4.9,0.5-6.8-0.8s-5.2,0-5.2,0"/>
	<path class="st0" d="M54.4,278.2c0,0,2.6,2.1,3.9,2.9c1.3,0.8,4.4,2.3,5.2,2.9c0.8,0.5,4.2,3.4,4.2,3.4"/>
	<path class="st0" d="M71.6,290.4l7.3,4.7c0,0,5.5,5.7,6.2,6c0.8,0.3,4.7,2.6,5.2,3.1s4.9,4.9,6.2,5.7s5.5,3.9,6.8,5.2
		c1.3,1.3,4.2,4.2,7,5.5c2.9,1.3,5.7,4.7,7,6s5.5,6,6.5,7s1.3,3.1,1.3,3.1l1.3,1.8c-1,0.8,0.3,2.1,0.3,2.1l1.6,1.3"/>
	<path class="st0" d="M4,367.6c2,1.6,4.8,2.2,7.3,1.4c1.9-0.5,3.7-1.8,5.6-1.7c1.2,0.1,2.4,0.6,3.6,0.3c0.7-0.2,1.2-0.8,1.8-1.2
		c2.6-1.6,6.4-0.1,8.9-1.9c0.4-0.3,0.8-0.7,1.3-1c1.2-0.5,2.5,0.3,3.7,0.8c3.5,1.4,7.5-0.2,10.9-1.7"/>
	<path class="st0" d="M52.1,360.6c-0.4,0-0.9,0.3-1,0.8c-0.1,0.3-0.1,0.6-0.1,1c-0.1,1.3-1.5,2.4-1.3,3.7c0.2,1.5,2.1,2.3,2.3,3.7
		c0.1,0.9-0.3,2,0.4,2.5c0.2,0.2,0.5,0.2,0.7,0.3c2.1,0.9,1.8,4.3,3.7,5.6"/>
	<path class="st0" d="M18.8,367.9c0.5,3.4,0.3,6.8-0.7,10.1c-0.4,1.4-1,2.8-1.2,4.2c-0.2,1.7,0,3.4,0.3,5.1
		c-2.8,3.5-4.7,7.7-5.5,12.2"/>
	<path class="st0" d="M19.9,377.8c-0.5,3.2-1,6.4-0.5,9.6c0.3,2.1,1.1,4.1,2.2,5.8"/>
	<path class="st0" d="M3.5,409.6c5.1,0.7,10.3,1.3,15.5,1.2c4.4-0.1,8.9-0.8,13.2-1.8c4.9-1.2,9.8-2.8,14.8-2.5"/>
	<path class="st0" d="M51,361.7c3,0.4,5.9,0.6,8.9,0.7c0.6,0,1.3,0,1.9-0.2c0.6-0.2,1.2-0.5,1.8-0.8c2.7-1.4,5.9-1.5,8.6-0.3
		c0.3,0.1,0.6,0.3,0.7,0.6c0.1,0.3,0,0.6-0.1,1c-1.9,5.4,3.5,10.9,2.5,16.6"/>
	<path class="st0" d="M75.3,370.1c0.8,2.1,1.3,4.3,1.5,6.5s0.4,4.7,2.1,6.1c0.3,0.2,0.6,0.4,0.8,0.7c0.2,0.2,0.3,0.5,0.4,0.8
		c0.4,0.8,0.8,1.6,1.1,2.4"/>
	<path class="st0" d="M73.2,361.9c2.1,0.5,4.4,0.4,6.4-0.3c1.4-0.5,2.8-1.2,4.3-1.4c1.1-0.2,2.2-0.1,3.2-0.1
		c1.7-0.1,3.5-0.2,4.9-1.1c7.1-4.8,11.3-1.1,12.8-4.3c0.3-0.7,0.7-1.3,1.4-1.6s1.5-0.4,2.3-0.4s1.6,0.1,2.3,0"/>
	<path class="st0" d="M85.2,367.6c-0.4,0-0.4,0.5-0.3,0.9c0.9,2.3,1.7,4.6,2.6,6.9c0.2,0.4,0.3,0.8,0.6,1.1c0.5,0.5,1.2,0.6,1.6,1
		c0.3,0.3,0.4,0.7,0.6,1c0.9,1.5,2.7,2.4,3.1,4.1"/>
	<path class="st0" d="M84.3,360.2c1.1,3.6,2.4,7.2,3.9,10.7"/>
	<path class="st0" d="M87.8,365.8c0-0.2,0-0.3,0-0.5c0.4,3.4,2.1,6.7,4.7,8.9"/>
	<path class="st0" d="M87.4,360.2c0.2,0.8,0.6,1.6,1.2,2.2"/>
	<path class="st0" d="M89.5,360.2c-0.1,1,0.2,2.1,0.9,2.8"/>
	<path class="st0" d="M91.2,360.7c-0.1,0.5,0.3,1,0.7,1.1"/>
	<path class="st0" d="M83.2,391.9c-2.6,2.6-5.3,5.2-8.7,6.4c-7,2.3-14.5-2.3-21.9-2.3c-0.8,0-1.5,0.1-2.2,0.3
		c-1.3,0.5-2.1,1.8-2.4,3.2c-0.3,1.4-0.2,2.7,0,4.1c0.9-0.1,1.6-1,1.4-1.9"/>
	<path class="st0" d="M54.9,399.3c-0.8-0.3-1.8,0-2.4,0.6c-0.7,0.5-1.1,1.3-1.5,2.1c-1,2.2-1.5,4.6-1.4,6.9c0,0.2,0,0.4,0.2,0.5
		c0.1,0.1,0.3,0.1,0.5,0.1c0.8-0.1,1.6-0.5,2.2-1c-0.2,0.8,0.6,1.7,1.4,1.5c0.6-0.1,1.1-0.7,1.3-1.3c0.2-0.6,0.2-1.2,0.3-1.9
		c0-0.4,0.1-0.7,0.3-1c0.5-0.9,1.7-0.9,2.8-0.8"/>
	<path class="st0" d="M60.1,404.9c-0.5,1.4-0.7,3-0.4,4.5"/>
	<path class="st0" d="M62.4,410.5c-0.4-2.2,0.9-4.5,2.9-5.4c0.7-0.3,1.4-0.4,2.2-0.5c1.8-0.2,3.7-0.2,5.5-0.8
		c1.7-0.5,3.2-1.6,4.2-3.1"/>
	<path class="st0" d="M52.8,393.7c-0.2-0.3-0.7-0.4-1-0.1c-0.5,0.5,0,1.4,0.7,1.5s1.3-0.3,1.9-0.6"/>
	<path class="st0" d="M81.5,399.3c0-0.2-0.4-0.3-0.5-0.1c-0.2,0.2-0.2,0.4-0.2,0.6c-0.1,0.4,0,1,0.4,1.2c0.4,0.1,0.7-0.2,0.8-0.6
		c0.1-0.4-0.1-0.7-0.2-1.1"/>
	<path class="st0" d="M83.5,399.1c0.4-0.9,1.3-1.7,2.3-2"/>
	<path class="st0" d="M79.1,402.1c-0.4,0.1-0.7,0.5-0.5,0.9c0.8,0.2,1.7-0.1,2.2-0.7"/>
	<path class="st0" d="M79.3,409c-0.1,0.6-0.6,1.1-1.2,1.2c-0.8-1.2,0.4-2.8,1.8-3.2c1.4-0.4,2.9-0.3,4.1-1.1
		c1.4-0.8,2.1-2.5,2.6-4.1c0.7-2.1,1.7-2.7,2.4-4.8c0.3-0.9,1.7-2.2,2.3-2.9c1.3-1.4,2.2-2.6,4.1-2.3c1.9,0.3,3.9,0.8,5.7,0.1"/>
	<path class="st0" d="M85.1,270.9c0,0,1,1.6,1.3,2.1s0.8,1.8,0.8,2.1s0.3,1.8,0.3,2.1s1.6,2.9,1.8,3.6s1.3,3.9,1.8,4.9s3.1,7,3.1,7
		s-1-1.6-2.1-2.3c-1-0.8-2.1-4.2-2.3-4.9c-0.3-0.8-1.3-3.1-1.8-3.4s-2.1-3.9-2.1-3.9s-1.3-3.1-2.6-3.9c-1.3-0.8,0-2.6,0-2.6
		s-0.8,0.3-1.8,0.5s-2.6-0.5-3.4-0.5s-2.1,2.1-2.9,2.3c-0.8,0.3-5.7,1.3-6.8,1c-1-0.3-5.5,1.3-6.8,2.1s-4.7,0.5-5.7,0.5
		s-3.1,0.8-4.2,1c-1,0.3-6.5,0.8-6.5,0.8s10.4-2.6,12-3.6c1.6-1,3.4-0.3,4.2-0.8s9.6-2.9,10.1-3.4s3.9-2.1,4.4-2.1s2.1,0,2.1,0
		s1.6-3.6,2.1-4.4"/>
	<path class="st0" d="M80.7,263.1c0,0-1-2.1-1-2.9s1.3-4.7,1-5.5s0.5-2.6,0.8-3.1s2.3-12.2,2.3-13s1.6-5.2,1.6-6s0.5-1.8,0.5-1.8
		s-1.6,15.1-1.6,16.4c0,1.3-1,4.7-0.8,5.7s-1,4.2-0.5,5.2s-0.3,3.9-0.3,4.4s-0.8,1-0.8,1.3s0.8,1.8,0.8,1.8"/>
	<path class="st0" d="M80.7,264.3c0,0.1,0,0.2,0,0.3"/>
	<path class="st0" d="M84.4,267.7c-0.1-0.3-0.5-0.5-0.9-0.4c-0.3,0.1-0.6,0.4-0.7,0.8s-0.1,0.7-0.1,1.1c0,0.5,0,1.1,0.3,1.5
		s0.9,0.8,1.3,0.5c0.5-0.3,0.6-0.9,0.6-1.5c0-0.3,0-0.5,0-0.8c0-0.2,0-0.4-0.1-0.6s-0.3-0.3-0.5-0.3"/>
	<path class="st0" d="M80.3,265c-0.6,0-1.2,0.1-1.8,0.1c-1,0.1-1.9,0.1-2.9,0.3c-1.9,0.4-3.6,1.6-5.5,1.9c-0.3,0.1-0.7,0.1-1,0.3
		c-0.4,0.3-0.4,1-0.4,1.5c0,0.6,0.1,1.3,0.5,1.7c0.3,0.2,0.6,0.3,1,0.3c0.6,0.1,1.2,0.1,1.9,0.1c0.2,0,0.4-0.2,0.3-0.3"/>
	<path class="st0" d="M84.3,267.6c0-0.3,0.1-0.7-0.1-1s-0.4-0.6-0.7-0.7c-0.3-0.1-0.6,0.1-0.8,0.4s-0.3,0.5-0.4,0.8
		c-0.2,0.6-0.5,1.2-0.5,1.9c-0.1,0.6,0.1,1.3,0.5,1.8s1.2,0.7,1.8,0.4"/>
	<path class="st0" d="M69.4,270.8c0,0.6,0,1.1,0,1.7"/>
	<path class="st0" d="M69.1,276.8c-0.3,2.1-0.5,4.1-0.8,6.2c-0.2,1.7-0.4,3.5-0.3,5.3c0.1,1,0.2,2,0.1,2.9c-0.1,1-0.4,2-0.6,3
		c-1.5,6.2-0.2,12.9-2.3,18.9c-0.2,0.4-0.3,0.8-0.4,1.2"/>
	<path class="st0" d="M71.6,275.1c-0.8,14.2,0,27.8-1.3,42.1"/>
	<path class="st0" d="M61.4,310.2c1.3,0.9,2.2,2.5,2.1,4.1c1.2-0.1,2.4,0.8,2.5,2c1.2-0.1,2.4,0.2,3.4,0.9c0.1,0.1,0.3,0.2,0.4,0.2
		c0.3,0.1,0.5,0,0.8-0.1c0.7-0.2,1.7-0.2,2.1,0.4"/>
	<path class="st0" d="M104.9,357.9c1.3,3.7,2.5,7.4,3.8,11"/>
	<path class="st0" d="M109.5,367.8c0.5,1.3,1.1,2.6,1.6,3.8"/>
	<path class="st0" d="M111.2,359.7c-0.1,0-0.1,0.2-0.1,0.4c0.6,2.1,1.6,4.1,2.9,5.8"/>
	<path class="st0" d="M113.5,360.2c-0.1,0.3,0,0.6,0.1,1c0.5,1.9,1.6,3.6,2.8,5.2c0-0.1-0.1-0.2-0.1-0.3"/>
	<path class="st0" d="M115.8,363c0.2,0.8,0.7,1.5,1.4,1.9"/>
	<path class="st0" d="M117.7,362.9c0.1,0.3,0.3,0.5,0.6,0.6"/>
	<path class="st0" d="M105.1,354.1c0.3,1.3,0.6,2.7,0.9,4c0.2,0.8,0.4,1.6,0.7,2.3c0.3,0.7,0.6,1.4,1,2.1c0.5,1.1,1,2.2,1.3,3.4
		c0-0.2,0-0.4,0-0.5"/>
	<path class="st0" d="M106.1,353c0.6,2.3,1.2,4.7,1.9,7c0,0.1,0,0.1,0.1,0.1s0.1-0.1,0-0.1"/>
	<path class="st0" d="M110.5,353.1c-0.1,2.4-0.3,4.8-0.7,7.1c1.1-0.5,2.2-1.1,3.3-1.7c0.5-0.3,1-0.5,1.4-0.9
		c0.3-0.3,0.5-0.8,0.8-1.1c0.5-0.5,1.3-0.6,2-0.7c1.5-0.2,3-0.3,4.5-0.5c-3.2-0.8-6.6-0.3-9.6-1.6"/>
	<path class="st0" d="M110.8,348.7c0.1-0.3,0.1-0.6,0.1-0.9c0.1,1.3,0.1,2.5,0.1,3.8c0-0.1,0-0.2,0-0.3"/>
	<path class="st0" d="M125.3,349.6c-3.1-0.1-6.2-0.7-9.3-1.3c-1.8-0.3-3.6-0.7-5.1-1.8c0.5-1,0.8-2.3,0.6-3.4
		c4.5,2,9.7,1.6,14.3,3.2"/>
	<path class="st0" d="M119.2,355.9c0.1,0.7,0.4,1.3,0.9,1.8"/>
	<path class="st0" d="M120.4,355.7c-0.1,0-0.1,0.3,0,0.4c0.7,1.1,1.4,2.1,2.2,3"/>
	<path class="st0" d="M92.2,387c2.7-2.3,5.4-4.6,8.1-6.9c0.4-0.4,0.9-0.8,1.4-1.2c1.3-1.2,2.5-2.5,3.9-3.5c1-0.7,2.1-1.1,3.2-1.7
		c3.3-1.8,6.1-4.3,8.8-6.9c1.6-1.6,3.3-3.2,5.4-4.1"/>
	<path class="st0" d="M124.6,362.6c-0.6-0.1-1.2-0.1-1.8-0.2c-0.1,0-0.1,0-0.2-0.1c0-0.1,0-0.1,0-0.2c0.2-1.5,0.1-3,0-4.5
		c-0.1-0.8-0.1-1.6-0.1-2.5c0-0.3,0-0.7,0.3-0.9c0.2-0.1,0.3-0.1,0.5-0.1c2.5-0.1,5,0.3,7.3,1"/>
	<path class="st0" d="M126.6,352.1c-0.1-2.1-0.1-4.3-0.1-6.4c1.2,0.2,2.5,0.5,3.7,0.5c1.6,0.1,3.6,0.3,5.2,0.6"/>
	<path class="st0" d="M109.8,360c0.9-0.5,1.9-1,2.5-1.9c0.2-0.3,0.3-0.5,0.6-0.7c0.7-0.5,1.7-0.3,2.4-0.8"/>
	<path class="st0" d="M124.1,362.2c0,0-0.3-4.7,0.8-5.5s0.8-0.8,1.8-1c1-0.3,1.6,0.5,2.3,0.8c0.8,0.3,1.3,0.8,1.3,1.6
		s0.7,5.7,0.7,5.7c-0.1-0.1,0.1-0.2,0.2-0.1c0.1,0.1,0,0.2-0.1,0.3c-2.6,3.2-5.6,6.3-8.7,9.1c-0.9,0.8-1.8,1.6-2.6,2.5
		c-1.1,1.2-2,2.6-3.1,3.8c-1,1-2.1,1.8-3.2,2.7c-2.3,1.8-4.4,4-6.2,6.4"/>
	<polyline class="st0" points="122.8,354.4 125.9,352.5 128.8,351.5 	"/>
	<line class="st0" x1="128.2" y1="346" x2="128.2" y2="351.5"/>
	<path class="st0" d="M126.7,345.8c0,0,1.6-1,2.1-1.3s2.3-0.8,2.3-0.8l1.3-0.5c0,0,1.8,0.5,2.9,0.5c1,0,4.1,0.8,4.7,0.8
		c1,0,6.2,1.3,7,1.3s12.5,2.1,12.5,2.1s5.5,1,6.5,1s3.4,0.8,3.4,0.8s0.8,4.9,0.8,7s-0.3,3.6-0.5,4.2c-0.3,0.5-3.4,3.4-3.9,4.2
		c-0.5,0.8-2.9,3.1-2.9,3.1l-1.3-0.3c0,0,0-5.2-0.5-5.7s-2.1-2.1-3.6-1.8c-1.6,0.3-3.1,1.6-3.1,2.9s0,4.7,0,4.7h-2.6
		c0,0,0-4.4,0-4.9s-0.8-1.8-1-2.1s-1.3-0.8-2.1-1c-0.8-0.3-3.1-0.5-3.4,0.5c-0.3,1-0.8,3.1-0.8,3.9s-0.3,2.1-0.3,2.1l-3.1-1"/>
	<path class="st0" d="M131.1,364h1.6c0,0-0.3-8.1,0-8.3c0.3-0.3,4.7-1.3,4.7-1.3l-0.5-1.8l-0.3-4.7"/>
	<path class="st0" d="M128.2,347.4c2.3,0.5,4.6,0.8,6.9,1"/>
	<path class="st0" d="M138.4,347.7c-0.3,1.9-0.4,3.9-0.4,5.9"/>
	<path class="st0" d="M137.2,348.8c0.4-0.1,0.9,0,1.4,0.1s0.9,0.3,1.4,0.4c1.6,0.5,3.3,0.7,4.9,0.6"/>
	<path class="st0" d="M137.4,346.8c2.5,0.6,5.1,1.1,7.6,1.4"/>
	<line class="st0" x1="145.9" y1="349.4" x2="145.9" y2="355.1"/>
	<line class="st0" x1="147.7" y1="354.4" x2="148" y2="348.9"/>
	<path class="st0" d="M147.2,348.6c0,0,0.8,0.3,2.3,0.8s2.9,0.5,3.4,0.5s3.1,0,3.1,0"/>
	<path class="st0" d="M132.7,355.7c0,0,2.9,0,3.9,0.3s2.6,0.8,3.4,0.8"/>
	<path class="st0" d="M133.7,363.5c0,0,0.3-2.9,0.5-3.4c0.3-0.5,0.8-2.1,1.3-2.3c0.5-0.3,1.3-0.3,1.8,0s1,0.8,1.6,0.8
		c0.5,0,2.3,1.6,2.1,2.6c-0.3,1,0,3.4,0,3.4"/>
	<path class="st0" d="M142.3,365.7c0,0-0.3-2.5,0-3s0.5-3.6,0.5-3.6v-1.6c0,0,3.4,0.5,3.9,0.5s4.2,0.3,4.2,0.3l0.8,0.3"/>
	<path class="st0" d="M148,350.4c0,0,3.6,0.6,4.2,0.6s3.9,0.5,3.9,0.5v4.2"/>
	<path class="st0" d="M157.9,350.7c0,0,0.3,2.9,0,3.6s-0.3,1.8-0.3,1.8l-2.9,2.3l-2.1,0.5v8.8"/>
	<line class="st0" x1="142.8" y1="357.5" x2="147.2" y2="355.9"/>
	<path class="st0" d="M158.7,350.5c0,0,2.6,0.8,3.1,0.8s3.9,0.8,3.9,0.8h1.6l-0.3,4.4"/>
	<path class="st0" d="M167,357.7c0,0-0.3,3.6-0.5,4.4"/>
	<path class="st0" d="M153.1,359l-0.1-1.2c0,0,2.9,0.3,3.4,0.5c0.5,0.3,3.4,0.3,3.4,0.3l3.1,0.5v0.9v7.4"/>
	<line class="st0" x1="165.9" y1="357.2" x2="162.8" y2="359.8"/>
	<line class="st0" x1="165.1" y1="352" x2="165.1" y2="356.7"/>
	<path class="st0" d="M158,351.6c0,0,2.5,1.2,3.3,1.2s3.9,0.6,3.9,0.6l1.8-0.1"/>
	<line class="st0" x1="169.3" y1="349.4" x2="167" y2="352"/>
	<path class="st0" d="M141.3,366.8c-3.5,2.1-5.9,5.6-8.8,8.6c-2.5,2.7-5.5,4.9-8.2,7.4c-2.9,2.7-5.6,5.6-8,8.8"/>
	<path class="st0" d="M125.4,394.6c0,0,4.7-3.9,5.2-4.4s4.7-4.9,4.9-5.2s4.7-4.4,5.5-5.2c0.8-0.8,2.9-3.4,3.4-3.6s7.3-8.3,7.3-8.3"
		/>
	<path class="st0" d="M90.5,401.4c0.9-1.4,1.9-2.7,2.9-4c0.3-0.3,0.5-0.7,0.9-0.9c0.7-0.4,1.6-0.2,2.3-0.2c1.8,0.1,3.6-0.5,4.9-1.7"
		/>
	<path class="st0" d="M82,423.5c-0.3-0.4-0.5-0.9-0.3-1.2c0.3-0.4,0.9-0.2,1.4-0.3c0.8-0.2,1-1.1,1.3-1.9c0.3-1.1,0.9-2.2,1.4-3.3"
		/>
	<path class="st0" d="M87.7,414.1c0.3-2.1,2.2-3.7,4.2-4.4c2-0.8,4.2-0.9,6.3-1.2c0.7-0.1,1.4-0.2,2-0.6c0.9-0.5,1.5-1.4,2.1-2.1
		c0.9-1.2,2-2.2,3.2-3.1c1.6-1.3,3.6-2.4,4.3-4.4"/>
	<path class="st0" d="M99.1,399.1c2.6-0.7,4.3-3.2,6.5-4.7c0.9-0.6,2-1.1,2.9-1.6c2.6-1.5,4.7-3.8,6.7-6.1c2.1-2.5,4.1-5.2,7-6.8"/>
	<path class="st0" d="M104.8,423.6c0.6-1.7,1.6-3.3,3-4.5c0.7-0.6,1.4-1.2,2-1.9c1.1-1.4,1.5-3.2,2-4.8s1.4-3.3,3-3.9
		c1.1-0.4,2.2,0.3,3.4,0.3c3.4-0.1,6.7-2.4,9.3-4.5c2.7-2.1,3.4-4.3,6-6.4c0.9-0.8,3.5-1.8,4.3-2.7c0.7-0.8,1.2-1.7,1.9-2.5
		c1.3-1.6,2.4-4.3,3.9-5.7c4.9-4.3,8.7-8.8,13.6-13.2c1.9-1.7,4.1-3.2,5-5.6"/>
	<path class="st0" d="M123.1,451.1c-1.1-3.4-3.8-5.5-2.9-8.6c0.5-1.6,1.5-3,2.3-4.5c2.2-3.9,2.9-4.9,3.9-9.3c0.3-1.2,1.6-4.9,2.3-6
		c0.6-0.9,0.6-2.6,1.5-3.3c4-3.2,8-6.3,12-9.5c1.4-1.1,2.7-2.1,3.9-3.3c0.8-0.8,1.6-1.6,2.5-2.3c1-0.9,2.1-1.6,3.2-2.3
		c4.2-2.7,8-4.5,11.9-7.6"/>
	<path class="st0" d="M118.4,412c-2.7,4.3-2.6,9.6-2.4,14.6c0,0.9,0.1,2,0.8,2.6c0.6,0.6,1.6,0.6,2.4,1c1,0.5,1.6,1.5,1.8,2.6
		c0.2,1.1,0.1,2.2-0.1,3.2c-1.2,1-3.4,0.1-3.5-1.5c-0.5,0.2-0.8,0.8-0.7,1.3"/>
	<path class="st0" d="M100.2,410.7c-0.2,0.5-0.4,1.1-0.9,1.4c-0.3,0.2-0.7,0.1-1.1,0.2s-0.6,0.6-0.4,0.8c-3.5,1.1-6.5,3.7-8.1,7.1
		s-1.7,7.4-0.3,10.8c0.1,0.3,0.3,0.7,0.7,0.8c0.3,0.1,0.7-0.2,0.9-0.4c1.7-1.5,3.1-3.4,4-5.5"/>
	<path class="st0" d="M95.8,430.1c-0.1-0.2-0.3,0.1-0.4,0.3c-0.2,1.1-0.3,2.2-0.3,3.2c0,0.1,0,0.2,0.1,0.3c0.1,0.1,0.3,0.2,0.4,0.2
		c0.5,0,0.9-0.3,1.2-0.7c0.3-0.4,0.4-0.9,0.6-1.3"/>
	<path class="st0" d="M102.1,432.5c-0.2-0.2-0.5-0.3-0.7-0.2c-0.1,0.5-0.1,0.9,0.1,1.4c0.1,0.2,0.1,0.4,0.3,0.5
		c0.3,0.2,0.6,0,0.8-0.3c0.1-0.3,0.1-0.6,0.1-0.9"/>
	<path class="st0" d="M102.8,424.9c-0.3-0.1-0.4,0.3-0.4,0.5c0,0.3,0,0.6,0.2,0.9c0.2,0.2,0.5,0.4,0.8,0.2c0.2-0.1,0.3-0.4,0.2-0.7
		s-0.3-0.4-0.5-0.6"/>
	<path class="st0" d="M99.2,438.5c-0.3-0.1-0.6-0.2-0.8-0.1c-0.1,0.3-0.3,0.6-0.2,1s0.3,0.7,0.6,0.7c0.3,0,0.5-0.3,0.6-0.6
		C99.4,439.2,99.3,438.8,99.2,438.5"/>
	<path class="st0" d="M83.1,424c-0.1,0.3-0.2,0.6-0.2,1c0.1,0.3,0.3,0.7,0.7,0.6"/>
	<path class="st0" d="M84.5,423.6c-0.1,0.4,0.1,0.9,0.4,1.1s0.9,0.2,1.1-0.2s0.1-0.9-0.3-1"/>
	<path class="st0" d="M165,365.9l-1.1,28.4c11.1,2.4,22.2,5.3,33,8.7c9.4,2.9,18.7,6.3,28.1,8.9c10.2,2.8,20.7,4.7,31.2,6.6
		c33.4,6.1,66.7,12.1,100.1,18.2c9.5,1.7,18.9,3.4,28.5,4.6c17.9,2.1,36,2.1,53.8,0.1"/>
	<path class="st0" d="M271.5,174.3c-2.1,1-3.8,2.6-5.5,4.2c-0.4,0.3,0.2,1.6,0,2.1c-0.3,0.8,0.5,1.7,1,2.3c1.9,2.2,3.1,0.9,5.7,2.1
		c1.4,0.6,2.9,2.6,4.4,2.7c1.6,0.1,3.1-0.3,4.6-0.4c3.2-0.2,6.6,1.4,9.7,0.2c1.7-0.6,3.1-2.1,4.9-2.6c1.2-0.3,2.6-0.2,3.9-0.5
		c2.1-0.5,3.6-2.1,5.4-3.3c3.6-2.4,8.1-4.3,10.8-7.6"/>
	<path class="st0" d="M274.1,177.3c-1.4,1.4-3.2,3.2-0.4,5.5c1.3,1.1,2.7,1.9,4.4,2.1s3.3-0.1,5-0.1c1.4,0,2.8,0.1,4.1-0.1
		c1.5-0.3,2.8-0.9,4.1-1.6c5.9-2.9,11.8-5.8,17.1-9.7"/>
	<path class="st0" d="M277.2,179.4c-0.7,0.2-0.8,1.3-0.2,1.8c0.5,0.5,1.3,0.6,2.1,0.6c0.7,0,1.5-0.1,2.2,0.2
		c0.4,0.2,0.8,0.4,1.2,0.5c0.6,0.1,1.1-0.1,1.7-0.3c6.6-2.7,13.2-5.4,19.9-8.1"/>
	<path class="st0" d="M276.9,174.8c0,0-1.8-2.3-2.6-6c-0.2-0.7-0.4-2-0.6-3.2c0-0.1-0.1-0.2-0.1-0.3c-0.2-1.2-0.4-2.2-0.4-2.2h-2.3
		c0,0,1.8,10.4,5.7,12.7s6.2,2.3,8.6,1.8c2.3-0.5,17.1-5.5,18.2-6c1-0.5,9.6-5.5,12-8.8c2.3-3.4,2.9-8.1,2.9-8.1s-6.5,8.1-11.7,10.1
		s-13,4.2-19.2,3.4s-13.5-2.6-13.5-2.6"/>
	<path class="st0" d="M273.5,164.4c0,0,16.1-1.6,22.6-3.9c6.5-2.3,11.7-4.9,12.2-5.7s0.5-0.8,0.5-0.8l9.4,0.5"/>
	<path class="st0" d="M283.4,167.7c0,0,15.8-4.6,18.4-5.9c2.6-1.3,7-3.6,7-3.6s1.3,0.3,2.9,0.5s2.7,0.3,2.7,0.3"/>
	<path class="st0" d="M274.1,167.7c0,0,4.1,1.6,7,2.1s5.7,1,5.7,1"/>
	<path class="st0" d="M274.6,170c0,0,2.8,0.9,4.6,1.4c1.8,0.5,5.2,1,5.2,1"/>
	<path class="st0" d="M275.5,172.5c0,0,3.2,0.8,4.2,1c1.3,0.3,2.6,0.3,2.6,0.3"/>
	<path class="st1" d="M294.6,168.1l-0.8-3.5c0,0,1.6,0.8,3.2,1.4c1.6,0.5,3.2,1.1,3.2,1.1l-3.2,0.7L294.6,168.1z"/>
	<path class="st2" d="M297.6,163.4c0,0,2.3,0.9,3.1,1.2c0.8,0.3,3.7,1.2,3.7,1.2"/>
	<polyline class="st1" points="303.6,160.9 304.4,163.4 307.7,164.4 310.1,162.8 304,160.7 	"/>
	<path class="st2" d="M306.8,159.2c0,0,2.2,0.6,2.8,0.9c0.5,0.3,2.8,0.9,2.8,0.9"/>
	<path class="st0" d="M363.2,150.4c0,0,1.8-2.3,2.6-6c0.2-0.7,0.4-2,0.6-3.2c0-0.1,0.1-0.2,0.1-0.3c0.2-1.2,0.4-2.2,0.4-2.2h2.3
		c0,0-1.8,10.4-5.7,12.7c-3.9,2.3-6.2,2.3-8.6,1.8c-2.3-0.5-17.2-5.5-18.2-6s-9.6-5.5-12-8.8c-2.3-3.4-2.9-8.1-2.9-8.1
		s6.5,8.1,11.7,10.1c5.2,2.1,13,4.2,19.2,3.4s13.5-2.6,13.5-2.6"/>
	<path class="st0" d="M321.8,130.1"/>
	<path class="st0" d="M366.6,140c0,0-18.2-2.3-24.7-4.7"/>
	<path class="st0" d="M325.7,134.6"/>
	<path class="st0" d="M356.7,143.3"/>
	<path class="st0" d="M366,143.3c0,0-4.1,1.6-7,2.1s-5.7,1-5.7,1"/>
	<path class="st0" d="M365.5,145.6c0,0-2.8,0.9-4.6,1.4c-1.8,0.5-5.2,1-5.2,1"/>
	<path class="st0" d="M364.5,148c0,0-3.2,0.8-4.2,1c-1.3,0.3-2.6,0.3-2.6,0.3"/>
	<path class="st1" d="M345.5,143.7l0.8-3.5c0,0-1.6,0.8-3.2,1.4c-1.6,0.5-3.2,1.1-3.2,1.1l3.2,0.7L345.5,143.7z"/>
	<path class="st2" d="M342.5,139c0,0-1.1,0.3-1.9,0.5"/>
	<line class="st2" x1="321.8" y1="130.4" x2="326.5" y2="130.1"/>
	<path class="st2" d="M325.7,134.5c0,0,0.8-5.7,1.6-8.3c0.3-0.9,1.8-2.9,4.7-3.9c2.9-1,4.4-1,5.7-0.5c1.3,0.5,11.2,6.8,11.7,7
		c0.5,0.3,3.2,8.8,3.2,8.8"/>
	<path class="st2" d="M332,127.3c2,1.2,3.9,2.6,5.7,4.2"/>
	<path class="st2" d="M330.9,124.5c1.3,1.4,3,2.4,4.5,3.5c1.6,1.2,3.1,2.6,4.4,4.2"/>
	<path class="st2" d="M349.4,128.8c0,0-5.8-1.5-7,3.4c-1.3,5.5-2.3,10.4-2.3,10.4"/>
	<path class="st0" d="M341,138.3c0,0,7.4,2.5,8.7,2.7c1.3,0.3,7.4,2.2,7.4,2.2"/>
	<path class="st2" d="M302.4,124.3c0.3,0.5,0.5,1,0.6,1.6s0,1.2,0.1,1.8c0.1,0.6,0.3,1.2,0.8,1.6c0.3,0.2,0.7,0.3,0.8,0.6
		c0.2,0.4-0.1,0.9-0.4,1.2c-0.5,0.6-1.1,1.2-1.9,1.1c0-1.1,0.1-2.1,0.1-3.2c-0.8,0.2-1.6-0.3-2.1-1c-0.4-0.7-0.5-1.5-0.6-2.3
		c-0.1-1.3-0.2-2.6-0.2-3.9c1.9,1.2,3.8,2.6,5.4,4.2c0.1,0.1,0.2,0.2,0.2,0.4c0,0.1-0.1,0.2-0.2,0.3c-0.6,0.5-1.3,0.9-1.9,1.4"/>
	<path class="st2" d="M307.5,135c-0.3-0.6-0.3-1.4-0.2-2.1c0.1-0.7,0.4-1.3,0.7-2c0.3-0.6,0.5-1.2,0.8-1.9"/>
	<path class="st2" d="M299.8,125.7c0.5,0.1,1-0.2,1.3-0.6s0.3-1,0.3-1.5"/>
	<path class="st2" d="M303.2,130.4c0,0.4,0.2,0.8,0.4,1.1"/>
	<path class="st2" d="M303.8,130c0.2,0.3,0.3,0.5,0.5,0.8"/>
	<path class="st2" d="M276.8,144c-0.5,0.5-0.8,1.1-1.1,1.7c-0.2,0.7-0.3,1.4-0.6,2.1c-0.2,0.7-0.6,1.4-1.3,1.6
		c-0.4,0.1-0.8,0.1-1,0.4c-0.3,0.4-0.2,1,0.1,1.5c0.3,0.8,0.8,1.7,1.6,1.8c0.3-1.2,0.6-2.5,0.9-3.7c0.7,0.5,1.7,0.1,2.4-0.6
		c0.6-0.7,1-1.6,1.3-2.5c0.5-1.5,1-3,1.4-4.5c-2.3,0.8-4.6,2-6.7,3.4c-0.2,0.1-0.3,0.2-0.3,0.4c0,0.1,0.1,0.2,0.1,0.3
		c0.5,0.7,1,1.4,1.5,2.1"/>
	<path class="st2" d="M279,146.3c-0.5,0-1-0.5-1.1-1.1s-0.1-1.2,0.2-1.8"/>
	<path class="st2" d="M274.2,150.8c-0.1,0.5-0.4,0.9-0.7,1.2"/>
	<path class="st2" d="M273.7,150.2c-0.2,0.3-0.5,0.5-0.7,0.8"/>
	<path class="st2" d="M379,170.7c-0.5,0.4-1,1-1.3,1.6s-0.5,1.4-0.8,2s-0.8,1.3-1.5,1.4c-0.4,0.1-0.8,0-1.1,0.3
		c-0.4,0.4-0.3,1-0.1,1.5c0.3,0.8,0.6,1.8,1.4,2c0.4-1.2,0.9-2.4,1.3-3.6c0.7,0.5,1.7,0.3,2.4-0.3c0.7-0.6,1.2-1.5,1.6-2.3
		c0.7-1.4,1.3-2.8,1.9-4.3c-2.4,0.5-4.8,1.4-7.1,2.5c-0.2,0.1-0.3,0.2-0.4,0.4c0,0.1,0,0.3,0.1,0.4c0.4,0.8,0.8,1.5,1.2,2.3"/>
	<path class="st2" d="M381,173.2c-0.5-0.1-0.9-0.6-1-1.2s0.1-1.2,0.4-1.8"/>
	<path class="st2" d="M375.7,177.1c-0.2,0.4-0.5,0.8-0.9,1.1"/>
	<path class="st2" d="M375.3,176.4c-0.3,0.2-0.5,0.4-0.8,0.6"/>
	<path class="st0" d="M329.5,101.3c-1,0.4-2.2,0.2-2.9-0.7c0.1,0.6,0.2,1.3,0.2,1.9"/>
	<path class="st0" d="M326,102.2c0.2,0.5,0,1.1,0.2,1.6c0.1,0.2,0.3,0.4,0.5,0.6c0.8,0.6,1.8,0.9,2.7,1c0.4,0.1,0.9,0.1,1.1-0.2"/>
	<path class="st0" d="M334.7,105.5c-0.5-0.3-0.9-0.9-0.9-1.5c0-0.3,0.1-0.7-0.1-0.9c-0.2-0.3-0.8-0.3-1,0.1c-0.2,0.3-0.1,0.8,0.2,1
		c0.3,0.3,0.7,0.3,1.1,0.3"/>
	<path class="st0" d="M342.4,151.4c1.2,1.4,3.1,2,4.9,2.5c1.7,0.5,3.5,1.1,5.2,1.3c3,0.4,6-0.1,8.9-0.8c0.7-0.2,1.5-0.4,1.7-1.1"/>
	<path class="st0" d="M333.9,151.2c2.4,1.1,4.7,2.1,7.1,3.2c1.6,0.7,3.2,1.5,5,1.7c1.6,0.3,3.1,0.2,4.7,0.4c1.5,0.3,2.9,0.8,4.4,1
		c1.3,0.2,2.7,0.1,4-0.1c0.8-0.1,1.6-0.2,2.4-0.5c1.4-0.5,2.3-1.8,3.2-3c0.3-0.4,0.6-0.8,0.7-1.3s0-1.1-0.4-1.4"/>
	<path class="st0" d="M329.5,153c7.1,4.6,15.5,7.4,23.9,8.1c1.4,0.1,2.9,0.2,4.3-0.1c1-0.2,2-0.5,3-0.9c1.8-0.7,3.6-1.5,5.3-2.4
		c1.7-0.9,3.6-2.2,3.8-4.2c0.1-0.4,0-0.9-0.4-1.2s-1.1-0.4-1.1-1"/>
	<path class="st0" d="M16,250.9c0.1-1.2,0.2-2.3,0.3-3.5c0.1-0.8,0.1-1.5,0.3-2.3s0.5-3,0.6-3.8c0.3-1.8,0.1-3.5,2.3-7.5
		c0.1,4.8-0.4,10-1.2,14.7c-0.1,0.5-0.2,1.1-0.7,1.3"/>
	<line class="st0" x1="14.9" y1="254.6" x2="14.9" y2="259.8"/>
	<line class="st0" x1="17.8" y1="255.5" x2="18.1" y2="261.1"/>
	<path class="st0" d="M4.4,257.4c0.7-0.5,1.7-0.6,2.5-0.9c1.1-0.4,2-1.3,3-2s2.3-1.2,3.4-0.8"/>
	<path class="st0" d="M6.6,259.8c-0.3-0.5,0.2-1.2,0.8-1.4c0.6-0.2,1.2-0.1,1.8-0.3c1.4-0.3,2.5-1.2,3.6-2c0.4-0.3,0.4-0.6,0.5-1"/>
	<path class="st0" d="M17.7,256.1c1.3,1.9,2.5,3.8,3.6,5.8"/>
	<path class="st0" d="M18.7,254.9c1.2,0.9,2.2,2,3,3.2c1.2,1.9,1.9,4.2,3.6,5.7"/>
</g>
</svg>
