<?xml version="1.0" encoding="utf-8"?>
<!-- Generator: Adobe Illustrator 22.0.0, SVG Export Plug-In . SVG Version: 6.00 Build 0)  -->
<svg version="1.1" id="Layer_1" xmlns="http://www.w3.org/2000/svg" xmlns:xlink="http://www.w3.org/1999/xlink" x="0px" y="0px"
	 viewBox="0 0 30 30" style="enable-background:new 0 0 30 30;" xml:space="preserve">
<style type="text/css">
	.st0{fill:#546071;}
	.st1{fill:#FFFFFF;}
</style>
<circle class="st0" cx="15.2" cy="14.7" r="14.5"/>
<g>
	<g>
		<path class="st1" d="M12.5,22c-0.9-0.1-1.5-0.3-2-0.5v-2.3c1.2,0.5,2.5,0.7,4,0.7c1.3,0,2.2-0.2,2.8-0.6s0.9-1,0.9-1.9
			c0-1.6-1.1-2.4-3.2-2.4h-2.3l0.2-1.9h1.9c2,0,3-0.8,3-2.4c0-0.8-0.3-1.4-0.8-1.7s-1.4-0.6-2.6-0.6c-0.6,0-1.3,0.1-2,0.2
			s-1.3,0.3-1.8,0.5V7c0.5-0.2,1.2-0.4,1.9-0.5c0.8-0.1,1.5-0.2,2.2-0.2c1.8,0,3.2,0.4,4.2,1.2c1,0.8,1.4,1.8,1.4,3.1
			c0,0.8-0.2,1.6-0.6,2.2c-0.4,0.7-1,1.1-1.7,1.4c0.9,0.2,1.6,0.7,2,1.3s0.7,1.4,0.7,2.2c0,1.5-0.5,2.6-1.6,3.4
			c-1.1,0.8-2.5,1.2-4.4,1.2C14.2,22.2,13.4,22.1,12.5,22z"/>
	</g>
</g>
</svg>
