<?xml version="1.0" encoding="utf-8"?>
<!-- Generator: Adobe Illustrator 22.0.0, SVG Export Plug-In . SVG Version: 6.00 Build 0)  -->
<svg version="1.1" id="Layer_1" xmlns="http://www.w3.org/2000/svg" xmlns:xlink="http://www.w3.org/1999/xlink" x="0px" y="0px"
	 viewBox="0 0 230 350" style="enable-background:new 0 0 230 350;" xml:space="preserve">
<style type="text/css">
	.st0{fill:none;stroke:#AF914F;stroke-width:2;stroke-miterlimit:10;}
	.st1{fill:#AD9056;}
	.st2{fill:none;stroke:#ECDFBC;stroke-linecap:round;stroke-linejoin:round;stroke-miterlimit:10;}
</style>
<g>
	<g>
		<path class="st0" d="M170.1,45.1C14.9,163.6,14.8,325.4,14.8,325.4"/>
		<g>
			<g>
				<path class="st0" d="M148,96.7c-14.3,3.1-33.1-1.8-33.1-1.8l24.2-8.8"/>
				<polyline class="st0" points="135.1,81.3 115,94.9 106.6,76.5 				"/>
				<line class="st0" x1="115" y1="94.9" x2="122.5" y2="75.1"/>
			</g>
			
				<ellipse transform="matrix(0.9945 -0.1051 0.1051 0.9945 -9.2054 16.3151)" class="st0" cx="150.2" cy="95.5" rx="3.9" ry="3.1"/>
			
				<ellipse transform="matrix(0.9945 -0.1051 0.1051 0.9945 -7.4502 11.6281)" class="st0" cx="106.6" cy="76.5" rx="3.9" ry="3.1"/>
			
				<ellipse transform="matrix(0.9945 -0.1051 0.1051 0.9945 -8.2084 15.2302)" class="st0" cx="140.4" cy="85.5" rx="2.7" ry="2.2"/>
			
				<ellipse transform="matrix(0.9945 -0.1051 0.1051 0.9945 -7.7271 14.7731)" class="st0" cx="136.3" cy="80.7" rx="2.7" ry="2.2"/>
			
				<ellipse transform="matrix(0.9945 -0.1051 0.1051 0.9945 -7.2141 13.2917)" class="st0" cx="122.5" cy="75.1" rx="2.7" ry="2.2"/>
		</g>
		<g>
			<g>
				<path class="st0" d="M27.2,186.2c1.8,11.5,14.6,23.3,14.6,23.3l1.3-20.8"/>
				<polyline class="st0" points="50.3,189.8 41.8,209.5 66.8,208.6 				"/>
				<line class="st0" x1="41.8" y1="209.5" x2="62.5" y2="196.6"/>
			</g>
			<ellipse transform="matrix(0.9945 -0.1051 0.1051 0.9945 -19.206 3.9431)" class="st0" cx="27.8" cy="184.2" rx="3.9" ry="3.1"/>
			
				<ellipse transform="matrix(0.9945 -0.1051 0.1051 0.9945 -21.5538 8.1769)" class="st0" cx="66.8" cy="208.6" rx="3.9" ry="3.1"/>
			
				<ellipse transform="matrix(0.9945 -0.1051 0.1051 0.9945 -19.4664 5.6005)" class="st0" cx="43.4" cy="187.5" rx="2.7" ry="2.2"/>
			
				<ellipse transform="matrix(0.9945 -0.1051 0.1051 0.9945 -19.5411 6.3735)" class="st0" cx="50.7" cy="188.6" rx="2.7" ry="2.2"/>
			
				<ellipse transform="matrix(0.9945 -0.1051 0.1051 0.9945 -20.3171 7.6586)" class="st0" cx="62.5" cy="196.6" rx="2.7" ry="2.2"/>
		</g>
		<g>
			<g>
				<path class="st0" d="M6,232c6.9,10,24.5,17.1,24.5,17.1l-8.3-19.4"/>
				<polyline class="st0" points="29.6,228.5 30.5,249 53.8,241 				"/>
				<line class="st0" x1="30.5" y1="249" x2="44.3" y2="231.2"/>
			</g>
			<ellipse transform="matrix(0.9945 -0.1051 0.1051 0.9945 -24.1309 1.8724)" class="st0" cx="5.7" cy="229.9" rx="3.9" ry="3.1"/>
			<ellipse transform="matrix(0.9945 -0.1051 0.1051 0.9945 -25.0312 6.99)" class="st0" cx="53.8" cy="241" rx="3.9" ry="3.1"/>
			<ellipse transform="matrix(0.9945 -0.1051 0.1051 0.9945 -23.8938 3.5786)" class="st0" cx="22" cy="228.5" rx="2.7" ry="2.2"/>
			
				<ellipse transform="matrix(0.9945 -0.1051 0.1051 0.9945 -23.7372 4.3499)" class="st0" cx="29.4" cy="227.4" rx="2.7" ry="2.2"/>
			
				<ellipse transform="matrix(0.9945 -0.1051 0.1051 0.9945 -24.0539 5.9366)" class="st0" cx="44.3" cy="231.2" rx="2.7" ry="2.2"/>
		</g>
		<g>
			<g>
				<path class="st0" d="M117.9,148c-19.2,4.1-44.2-2.4-44.2-2.4l32.4-11.7"/>
				<polyline class="st0" points="100.6,127.4 73.6,145.6 62.5,120.9 				"/>
				<line class="st0" x1="73.6" y1="145.6" x2="83.6" y2="119"/>
			</g>
			
				<ellipse transform="matrix(0.9945 -0.1051 0.1051 0.9945 -14.7173 13.5072)" class="st0" cx="120.8" cy="146.4" rx="5.2" ry="4.1"/>
			
				<ellipse transform="matrix(0.9945 -0.1051 0.1051 0.9945 -12.3604 7.2384)" class="st0" cx="62.5" cy="120.9" rx="5.2" ry="4.1"/>
			
				<ellipse transform="matrix(0.9945 -0.1051 0.1051 0.9945 -13.3828 12.0461)" class="st0" cx="107.6" cy="133" rx="3.7" ry="2.9"/>
			
				<ellipse transform="matrix(0.9945 -0.1051 0.1051 0.9945 -12.7293 11.4421)" class="st0" cx="102.2" cy="126.5" rx="3.7" ry="2.9"/>
			<ellipse transform="matrix(0.9945 -0.1051 0.1051 0.9945 -12.0445 9.4457)" class="st0" cx="83.6" cy="119" rx="3.7" ry="2.9"/>
		</g>
		<g>
			<path class="st0" d="M163.2,9.9c0,0-9,25.4,11.2,37.6s42.4,2.7,42.4,2.7"/>
			<path class="st0" d="M223,36c0,0-39.8,14.4-48.7,11.5c-8.8-2.9,9.6-41.2,9.6-41.2"/>
			<polyline class="st0" points="209.2,28 172.1,44.4 197.6,15.4 			"/>
			
				<ellipse transform="matrix(0.9945 -0.1051 0.1051 0.9945 -4.2504 23.1368)" class="st0" cx="217.4" cy="51.9" rx="4.5" ry="3.5"/>
			<ellipse transform="matrix(0.9945 -0.1051 0.1051 0.9945 -2.4373 23.7578)" class="st0" cx="224.2" cy="35" rx="4" ry="3.2"/>
			<ellipse transform="matrix(0.9945 -0.1051 0.1051 0.9945 -1.6398 22.093)" class="st0" cx="208.8" cy="26.6" rx="3.3" ry="2.6"/>
			<ellipse transform="matrix(0.9945 -0.1051 0.1051 0.9945 -0.3621 20.9296)" class="st0" cx="198.4" cy="13.9" rx="3.7" ry="3"/>
			<ellipse transform="matrix(0.9945 -0.1051 0.1051 0.9945 0.4249 19.465)" class="st0" cx="184.9" cy="5.7" rx="3.7" ry="2.9"/>
			
				<ellipse transform="matrix(0.9945 -0.1051 0.1051 0.9945 3.084750e-02 17.3888)" class="st0" cx="165" cy="8.4" rx="5.1" ry="4"/>
		</g>
	</g>
	<g>
		<path class="st0" d="M1.9,350.2c0,0,46.7-106.7,185.3-157.7"/>
		<path class="st0" d="M25.9,311.2c0,0-1.8-10.9,2.4-15.8c4.1-4.9,1.4-8.4,1.4-8.4"/>
		<path class="st0" d="M42.7,290.3c0,0,38.3-3.5,49-6.5"/>
		<path class="st0" d="M92.5,274.4c0,0-25,5-30.7,13.9"/>
		<path class="st0" d="M70.3,246.9c0,0-7.2,13-12.6,17.4s-2.3,12.4-2.3,12.4"/>
		<path class="st0" d="M82.8,251.7c0,0,21.9-4.8,29.8-4.3s14.9,0.3,14.9,0.3"/>
		<path class="st0" d="M106.4,247.6c0,0,3.5,3.9,11.6,4.7s15.2-0.2,16.7,3.1"/>
		<path class="st0" d="M103,236.4c0,0,1.8-8.6,7.8-13.5c5.9-5,8.3-9.1,8.3-9.1"/>
		<path class="st0" d="M150.1,208.5c0,0,5.9-8.8,9.5-12"/>
		<path class="st0" d="M118.9,225.9c0,0,41.5-5.4,51-3.1"/>
		<path class="st0" d="M146.6,223c0,0,6.2,5.4,13.2,7.6"/>
		<path class="st0" d="M70.4,246.3c0,0,5.7-14.5,12.7-10C86.2,238.4,78.7,246.9,70.4,246.3z"/>
		<path class="st0" d="M28.5,287.5c0,0-1-15,7.6-13.3C39.9,275.1,36.6,285.3,28.5,287.5z"/>
		<path class="st0" d="M92.1,283.2c0,0,16.5-5.2,16.1,2.7C108,289.4,96,289.5,92.1,283.2z"/>
		<path class="st0" d="M158.8,196.6c0,0,3.5-14.9,11.2-11.3C173.4,187,167.1,196.3,158.8,196.6z"/>
		<path class="st0" d="M119,212.4c0,0,3.5-14.9,11.2-11.3C133.5,202.8,127.3,212,119,212.4z"/>
		<path class="st0" d="M185.9,193.5c0,0,3.5-14.9,11.2-11.3C200.5,183.9,194.3,193.1,185.9,193.5z"/>
		<path class="st0" d="M171.6,223.3c0,0,11.7-11.6,15.9-4.9C189.4,221.5,178.7,226.8,171.6,223.3z"/>
		<path class="st0" d="M158.6,230.3c0,0,17.2-1.9,14.8,5.8C172.4,239.5,160.9,237.3,158.6,230.3z"/>
		<path class="st0" d="M134,254.3c0,0,11.7-1.3,10.1,3.9C143.3,260.6,135.5,259,134,254.3z"/>
		<path class="st0" d="M127.4,247.2c0,0,9.3-6.7,11.2-1.7C139.4,247.7,131.7,250.3,127.4,247.2z"/>
		<path class="st0" d="M92.1,273.9c0,0,9.3-6.7,11.2-1.7C104.1,274.5,96.4,277,92.1,273.9z"/>
	</g>
	<g>
		<path class="st1" d="M69.8,183.6c0,0-4-10.9,3-19.1c0,0,16.8-0.7,23.5-8.7c6.7-8.1,37.1-1.2,38.1,1.7c0,0,11.3,7.7-3.8,13.4
			c0,0,7.7,12.7-3.4,15.5c0,0,12.7,12.5-4,18.1c0,0,17.9,20.1-13.5,19c0,0-8.7-2.6-20.9-19.7C76.7,186.9,75.8,184.1,69.8,183.6z"/>
		<path class="st2" d="M120.3,222.9c1.5-6.8-6.7-20.2-6.7-20.2c11-3.9,3.7-15.5,3.7-15.5c12.2-8,3.8-15,3.8-15l9.6-1.2"/>
		<path class="st2" d="M98.7,205.4c0,0-17.9-15.9-17.1-23.6"/>
		<path class="st2" d="M109.5,170.3c0,0-15.4-6-25.8,2.2"/>
		<line class="st2" x1="88.8" y1="185.3" x2="85.5" y2="178.1"/>
		<path class="st2" d="M123.3,204.6c0,0-5.8,0.9-9.8-1.9"/>
		<line class="st2" x1="125.5" y1="197" x2="119.6" y2="195.8"/>
		<path class="st2" d="M72.3,177.9c0,0-2.8-1.2,2.3-7.7"/>
	</g>
</g>
</svg>
