<?xml version="1.0" encoding="utf-8"?>
<!-- Generator: Adobe Illustrator 22.0.0, SVG Export Plug-In . SVG Version: 6.00 Build 0)  -->
<svg version="1.1" id="Layer_1" xmlns="http://www.w3.org/2000/svg" xmlns:xlink="http://www.w3.org/1999/xlink" x="0px" y="0px"
	 viewBox="0 0 235 360" style="enable-background:new 0 0 235 360;" xml:space="preserve">
<style type="text/css">
	.st0{fill:none;stroke:#AF914F;stroke-width:2;stroke-miterlimit:10;}
	.st1{fill:#AD9056;}
	.st2{fill:none;stroke:#ECDFBC;stroke-linecap:round;stroke-linejoin:round;stroke-miterlimit:10;}
</style>
<g>
	<g>
		<path class="st0" d="M234.2,298c0,0-100.2-3.5-182.1-67.2"/>
		<path class="st0" d="M165.7,286.1c0,0-30.2,8-87.6-13.2"/>
		<path class="st0" d="M125.8,272.7c0,0,0.2-17.2-24-30.1s-36-26.6-36-26.6"/>
		<path class="st0" d="M101.8,242.5c0,0,3.5-6.2-11.5-23.7"/>
		
			<ellipse transform="matrix(0.4256 -0.9049 0.9049 0.4256 -203.1438 218.6148)" class="st0" cx="70.6" cy="269.3" rx="3.3" ry="7.7"/>
		
			<ellipse transform="matrix(0.5974 -0.802 0.802 0.5974 -162.2273 127.5533)" class="st0" cx="45.9" cy="225.3" rx="6.1" ry="8.9"/>
		
			<ellipse transform="matrix(0.6787 -0.7344 0.7344 0.6787 -134.5211 111.4799)" class="st0" cx="60.1" cy="209.5" rx="5.1" ry="7.2"/>
		
			<ellipse transform="matrix(0.4842 -0.875 0.875 0.4842 -145.6414 182.3876)" class="st0" cx="81.9" cy="214.7" rx="4.9" ry="7.4"/>
	</g>
	<g>
		<path class="st0" d="M226,273.8c0,0-160.3-83.5-203.7-256.1"/>
		<path class="st0" d="M169.3,235.4c0,0-18.2-1.1-25-7.2s-13.2-3.9-13.2-3.9"/>
		<path class="st0" d="M140.3,210.3c0,0,5.2-44.6,3.3-57.8"/>
		<path class="st0" d="M128.5,149c0,0,1.1,29.9,13.9,39"/>
		<path class="st0" d="M77.4,166.5c0,0,19.1,11.9,24.7,19.3c5.6,7.5,19.6,6.2,19.6,6.2"/>
		<path class="st0" d="M88.8,153.5c0,0-1.6-26.4,1.4-35.3c3-8.9,4.7-16.9,4.7-16.9"/>
		<path class="st0" d="M88.9,125.5c0,0,7.3-2.9,10.9-11.9s4-17.4,9.9-18.2"/>
		<path class="st0" d="M69.7,126.3c0,0-13.4-4.5-19.8-12.7s-12.4-12-12.4-12"/>
		<path class="st0" d="M37.7,64.6c0,0-12.6-9.2-16.8-14.2"/>
		<path class="st0" d="M57.1,105.1c0,0,3-48.9,9.4-59.1"/>
		<path class="st0" d="M60.2,72.6c0,0,10.6-5.6,16.1-12.9"/>
		<path class="st0" d="M76.5,166.2c0,0-22-10.6-12.6-17.3C68.2,145.9,79.9,156.9,76.5,166.2z"/>
		<path class="st0" d="M131.7,225.7c0,0-24.7-3.1-19.4-12.4C114.6,209.1,130.3,215.9,131.7,225.7z"/>
		<path class="st0" d="M142.7,151.9c0,0-3.7-20.3,8.9-17.6C157.3,135.6,154,149.2,142.7,151.9z"/>
		<path class="st0" d="M20.9,51.3c0,0-23.3-8.2-15.1-15.9C9.4,31.9,22.6,41.7,20.9,51.3z"/>
		<path class="st0" d="M35.2,101.2c0,0-23.3-8.2-15.1-15.9C23.7,81.8,37,91.6,35.2,101.2z"/>
		<path class="st0" d="M23.4,19.5c0,0-23.3-8.2-15.1-15.9C12,0.1,25.2,9.8,23.4,19.5z"/>
		<path class="st0" d="M67.9,44.3c0,0-15.6-16.7-3.4-19.5C69.9,23.5,75.6,37.1,67.9,44.3z"/>
		<path class="st0" d="M75.6,61c0,0,1.8-20.2,13.6-15.3C94.5,48,87.5,60.5,75.6,61z"/>
		<path class="st0" d="M107.6,95.9c0,0,1.2-13.7,9.2-10.4C120.5,87,115.7,95.5,107.6,95.9z"/>
		<path class="st0" d="M94.2,101.5c0,0-8.2-12.5,0.4-13.2C98.5,87.9,100.4,97.5,94.2,101.5z"/>
		<path class="st0" d="M127.6,149.3c0,0-8.2-12.5,0.4-13.2C131.9,135.7,133.8,145.3,127.6,149.3z"/>
	</g>
	<g>
		<path class="st1" d="M188.3,289.9c0,0,11.4,2.4,14.6,12.6c0,0-8.3,14.6-5.1,24.5c3.3,10-18.7,32.1-21.7,31.4
			c0,0-12.5,5.5-9.4-10.3c0,0-14.9-0.3-11.4-11.1c0,0-17.3,4.1-13.2-13c0,0-26.5,4.5-8.9-21.5c0,0,6.8-6,27.8-7.3
			C181.9,294,184.8,294.7,188.3,289.9z"/>
		<path class="st2" d="M128.2,311.8c5,4.9,20.6,5,20.6,5c-2.6,11.4,11.2,11.4,11.2,11.4c0.3,14.6,10.7,11.2,10.7,11.2l-4.1,8.8"/>
		<path class="st2" d="M154.5,302.8c0,0,23-6.7,29.1-1.9"/>
		<path class="st2" d="M178.6,330.6c0,0,13.2-9.9,11.9-23"/>
		<line class="st2" x1="176.8" y1="305.1" x2="184.7" y2="306.1"/>
		<path class="st2" d="M142.1,324.1c0,0,2.3-5.4,6.8-7.3"/>
		<line class="st2" x1="147.4" y1="330" x2="151.5" y2="325.6"/>
		<path class="st2" d="M191.8,295c0,0,2.5-1.8,5.3,6.1"/>
	</g>
</g>
</svg>
