<?xml version="1.0" encoding="utf-8"?>
<!-- Generator: Adobe Illustrator 16.0.0, SVG Export Plug-In . SVG Version: 6.00 Build 0)  -->
<!DOCTYPE svg PUBLIC "-//W3C//DTD SVG 1.1//EN" "http://www.w3.org/Graphics/SVG/1.1/DTD/svg11.dtd">
<svg version="1.1" id="Layer_1" xmlns="http://www.w3.org/2000/svg" xmlns:xlink="http://www.w3.org/1999/xlink" x="0px" y="0px"
	 width="240px" height="300px" viewBox="0 0 240 300" enable-background="new 0 0 240 300" xml:space="preserve">
<g>
	<g>
		<path fill="none" stroke="#FFFFFF" stroke-width="2" stroke-miterlimit="10" d="M9.907,130.37v118.608h17.139V185.87
			c0-11.212,11.933-20.342,26.589-20.342l0,0c14.736,0,26.589,9.13,26.589,20.342v63.108h17.298V185.87
			c0-11.212,11.933-20.342,26.589-20.342l0,0c14.735,0,26.589,9.13,26.589,20.342v63.108h17.299V185.87
			c0-11.212,11.933-20.342,26.588-20.342l0,0c14.736,0,26.59,9.13,26.59,20.342v63.108h17.138V130.37H9.907z"/>
		<polygon fill="none" stroke="#FFFFFF" stroke-width="2" stroke-miterlimit="10" points="219.573,94.411 219.573,112.831 
			28.968,112.831 28.968,94.411 9.907,94.411 9.907,112.831 9.907,130.37 28.968,130.37 219.573,130.37 238.634,130.37 
			238.634,112.831 238.634,94.411 		"/>
		<g>
			<path fill="none" stroke="#FFFFFF" stroke-width="2" stroke-miterlimit="10" d="M9.907,259.71
				c11.453,0,11.453,16.018,22.905,16.018c11.453,0,11.453-16.018,22.905-16.018c11.453,0,11.453,16.018,22.905,16.018
				c11.453,0,11.453-16.018,22.905-16.018c11.453,0,11.453,16.018,22.905,16.018s11.452-16.018,22.905-16.018
				c11.452,0,11.452,16.018,22.904,16.018c11.453,0,11.453-16.018,22.904-16.018c11.453,0,11.453,16.018,22.905,16.018
				s11.452-16.018,22.905-16.018"/>
		</g>
		<g>
			<path fill="none" stroke="#FFFFFF" stroke-width="2" stroke-miterlimit="10" d="M9.907,282.215
				c11.453,0,11.453,16.017,22.905,16.017c11.453,0,11.453-16.017,22.905-16.017c11.453,0,11.453,16.017,22.905,16.017
				c11.453,0,11.453-16.017,22.905-16.017c11.453,0,11.453,16.017,22.905,16.017s11.452-16.017,22.905-16.017
				c11.452,0,11.452,16.017,22.904,16.017c11.453,0,11.453-16.017,22.904-16.017c11.453,0,11.453,16.017,22.905,16.017
				s11.452-16.017,22.905-16.017"/>
		</g>
	</g>
	<path fill="#FFFFFF" d="M93.197,32.504C93.197,32.504,93.117,32.504,93.197,32.504c0.24-1.041,0.4-2.083,0.4-3.204
		c0-7.929-7.688-14.416-17.218-14.416c-2.563,0-4.965,0.48-7.128,1.281C66.688,8.799,57.559,3.273,46.747,3.273
		c-12.813,0-23.225,7.688-23.225,17.218c0,0.24,0,0.4,0,0.641c-1.762-0.4-3.684-0.641-5.606-0.641
		c-9.53,0-17.219,5.206-17.219,11.613c0,6.407,7.688,11.612,17.219,11.612c2.483,0,4.885-0.4,7.048-1.041
		c-0.641,1.361-1.042,2.723-1.042,4.245c0,7.929,10.412,14.416,23.225,14.416c9.53,0,17.699-3.604,21.303-8.649
		c2.082,1.442,4.885,2.243,7.929,2.243c5.526,0,10.171-2.803,11.372-6.567c1.602,0.641,3.524,0.961,5.446,0.961
		c6.407,0,11.613-3.764,11.613-8.409S99.604,32.504,93.197,32.504z M60.682,35.228c-0.32-0.16-0.641-0.321-0.961-0.401
		c0.24-0.08,0.4-0.24,0.641-0.32C60.441,34.747,60.521,34.987,60.682,35.228z"/>
	<path fill="#FFFFFF" d="M148.057,47.08c0.08,3.204,3.684,5.766,8.088,5.606c1.361,0,2.644-0.32,3.765-0.721
		c0.801,2.563,4.085,4.485,7.929,4.405c2.082-0.08,4.004-0.641,5.445-1.682c2.563,3.443,8.249,5.846,14.816,5.686
		c8.81-0.16,15.938-4.725,15.857-10.251c0-1.042-0.32-2.002-0.721-2.883c1.521,0.4,3.123,0.641,4.885,0.641
		c6.567-0.16,11.772-3.844,11.692-8.249c-0.08-4.404-5.445-7.928-12.013-7.768c-1.361,0-2.643,0.24-3.844,0.561
		c0-0.16,0-0.32,0-0.48c-0.16-6.567-7.368-11.773-16.258-11.533c-7.448,0.16-13.695,4.084-15.377,9.21
		c-1.521-0.561-3.203-0.801-4.965-0.801c-6.567,0.16-11.773,4.645-11.693,10.171c0,0.721,0.16,1.522,0.32,2.243l0,0
		C151.5,41.234,147.977,43.876,148.057,47.08z M178.649,42.035c0.16,0.08,0.32,0.16,0.4,0.24c-0.24,0.08-0.48,0.16-0.721,0.32
		C178.489,42.435,178.569,42.195,178.649,42.035z"/>
	<g>
		<g>
			<line fill="none" stroke="#FFFFFF" stroke-width="2" stroke-miterlimit="10" x1="40.74" y1="66.941" x2="42.902" y2="71.266"/>
			
				<line fill="none" stroke="#FFFFFF" stroke-width="2" stroke-miterlimit="10" stroke-dasharray="12.1004,12.1004" x1="47.307" y1="79.835" x2="53.955" y2="92.81"/>
			<line fill="none" stroke="#FFFFFF" stroke-width="2" stroke-miterlimit="10" x1="56.117" y1="97.134" x2="58.359" y2="101.379"/>
		</g>
	</g>
	<g>
		<g>
			<line fill="none" stroke="#FFFFFF" stroke-width="2" stroke-miterlimit="10" x1="58.359" y1="66.941" x2="60.521" y2="71.266"/>
			
				<line fill="none" stroke="#FFFFFF" stroke-width="2" stroke-miterlimit="10" stroke-dasharray="12.1004,12.1004" x1="64.926" y1="79.835" x2="71.574" y2="92.81"/>
			<line fill="none" stroke="#FFFFFF" stroke-width="2" stroke-miterlimit="10" x1="73.736" y1="97.134" x2="75.979" y2="101.379"/>
		</g>
	</g>
	<g>
		<g>
			<line fill="none" stroke="#FFFFFF" stroke-width="2" stroke-miterlimit="10" x1="75.979" y1="66.941" x2="78.141" y2="71.266"/>
			
				<line fill="none" stroke="#FFFFFF" stroke-width="2" stroke-miterlimit="10" stroke-dasharray="12.1004,12.1004" x1="82.545" y1="79.835" x2="89.192" y2="92.81"/>
			<line fill="none" stroke="#FFFFFF" stroke-width="2" stroke-miterlimit="10" x1="91.355" y1="97.134" x2="93.597" y2="101.379"/>
		</g>
	</g>
	<g>
		<g>
			
				<line fill="none" stroke="#FFFFFF" stroke-width="2" stroke-miterlimit="10" x1="167.277" y1="66.941" x2="169.439" y2="71.266"/>
			
				<line fill="none" stroke="#FFFFFF" stroke-width="2" stroke-miterlimit="10" stroke-dasharray="12.1004,12.1004" x1="173.844" y1="79.835" x2="180.491" y2="92.81"/>
			
				<line fill="none" stroke="#FFFFFF" stroke-width="2" stroke-miterlimit="10" x1="182.654" y1="97.134" x2="184.896" y2="101.379"/>
		</g>
	</g>
	<g>
		<g>
			
				<line fill="none" stroke="#FFFFFF" stroke-width="2" stroke-miterlimit="10" x1="182.094" y1="66.941" x2="184.256" y2="71.266"/>
			
				<line fill="none" stroke="#FFFFFF" stroke-width="2" stroke-miterlimit="10" stroke-dasharray="12.1004,12.1004" x1="188.66" y1="79.835" x2="195.307" y2="92.81"/>
			
				<line fill="none" stroke="#FFFFFF" stroke-width="2" stroke-miterlimit="10" x1="197.47" y1="97.134" x2="199.712" y2="101.379"/>
		</g>
	</g>
	<g>
		<g>
			
				<line fill="none" stroke="#FFFFFF" stroke-width="2" stroke-miterlimit="10" x1="196.909" y1="66.941" x2="199.071" y2="71.266"/>
			
				<line fill="none" stroke="#FFFFFF" stroke-width="2" stroke-miterlimit="10" stroke-dasharray="12.1004,12.1004" x1="203.477" y1="79.835" x2="210.123" y2="92.81"/>
			
				<line fill="none" stroke="#FFFFFF" stroke-width="2" stroke-miterlimit="10" x1="212.286" y1="97.134" x2="214.528" y2="101.379"/>
		</g>
	</g>
</g>
</svg>
