<?xml version="1.0" encoding="utf-8"?>
<!-- Generator: Adobe Illustrator 23.0.1, SVG Export Plug-In . SVG Version: 6.00 Build 0)  -->
<svg version="1.1" id="Layer_1" xmlns="http://www.w3.org/2000/svg" xmlns:xlink="http://www.w3.org/1999/xlink" x="0px" y="0px"
	 viewBox="0 0 554.4 524.4" style="enable-background:new 0 0 554.4 524.4;" xml:space="preserve">
<style type="text/css">
	.st0{fill:#FFFFFF;}
	.st1{fill:#546071;stroke:#FFFFFF;stroke-width:2;stroke-miterlimit:10;}
	.st2{fill:none;stroke:#FFFFFF;stroke-width:2;stroke-miterlimit:10;}
</style>
<g>
	<g>
		<path class="st0" d="M412.7,240.4c-0.7-0.3-1.4-0.7-2-1.2l-0.1,1.4h-2.4v-13h2.6v9.6c0.4,0.5,1,0.8,1.6,1.1s1.3,0.4,2,0.4
			c0.9,0,1.6-0.2,2-0.6c0.4-0.4,0.7-1.1,0.7-2.1v-8.4h2.6v8.5c0,1.5-0.4,2.6-1.2,3.5c-0.8,0.8-1.9,1.2-3.3,1.2
			C414.3,240.8,413.4,240.7,412.7,240.4z"/>
		<path class="st0" d="M422.2,229.5h2.2v1.2h3.5l-0.1,1.9h-5.7V229.5z M422.2,236.1h2.2v1.2h3.5l-0.1,1.9h-5.7V236.1z"/>
		<path class="st0" d="M430.5,238.1v-10.5h2.6v9.8c0,0.4,0.1,0.6,0.3,0.8c0.2,0.2,0.4,0.3,0.8,0.3h1.1v2.1H433
			C431.3,240.6,430.5,239.8,430.5,238.1z"/>
		<path class="st0" d="M439.5,240.7c-0.8-0.1-1.4-0.3-1.9-0.5V238c0.6,0.2,1.2,0.4,1.9,0.6s1.4,0.2,2,0.2c1.2,0,2-0.1,2.5-0.3
			c0.5-0.2,0.7-0.6,0.7-1.2c0-0.4-0.1-0.7-0.3-0.9c-0.2-0.2-0.5-0.4-0.8-0.6c-0.3-0.1-0.9-0.3-1.6-0.6l-0.9-0.3
			c-1.3-0.4-2.3-0.9-2.9-1.5c-0.6-0.5-1-1.3-1-2.3c0-1.2,0.4-2.1,1.3-2.7c0.9-0.6,2.2-1,3.9-1c0.7,0,1.4,0.1,2.1,0.2
			c0.7,0.1,1.3,0.2,1.8,0.4v2.2c-0.5-0.2-1.1-0.3-1.7-0.5s-1.3-0.2-1.8-0.2c-1,0-1.8,0.1-2.3,0.3c-0.5,0.2-0.8,0.6-0.8,1.2
			c0,0.3,0.1,0.6,0.3,0.8c0.2,0.2,0.5,0.4,0.9,0.6s0.9,0.4,1.7,0.6l0.7,0.2c1.4,0.5,2.4,1,3,1.5c0.6,0.6,0.9,1.4,0.9,2.4
			c0,1.2-0.5,2.1-1.4,2.7c-0.9,0.6-2.2,0.9-3.9,0.9C441.1,240.8,440.3,240.8,439.5,240.7z"/>
		<path class="st0" d="M437.5,225c-0.5-0.5-0.8-1.2-0.8-2c0-0.9,0.3-1.6,0.8-2.1c0.6-0.5,1.3-0.8,2.4-0.8h5.9l-0.1,1.5h-5.5
			c-0.5,0-0.9,0.1-1.2,0.3s-0.4,0.6-0.4,1c0,0.8,0.5,1.3,1.4,1.3c0.8,0,1.3-0.3,1.3-1v-0.5h1.6v0.5c0,0.3,0.1,0.6,0.3,0.7
			c0.2,0.1,0.5,0.2,0.8,0.2h1.5v1.5h-1.7c-0.4,0-0.8-0.1-1.1-0.2c-0.3-0.1-0.5-0.3-0.7-0.6c-0.2,0.3-0.5,0.5-0.9,0.6
			c-0.4,0.1-0.9,0.2-1.3,0.2C438.8,225.7,438.1,225.5,437.5,225z"/>
		<path class="st0" d="M452.5,240.5l-3.6-8.9h2.5l3,7.2c1.4,0.1,2.4-0.3,3-1.2c0.6-0.8,0.9-2.2,0.9-4c0-1.1-0.1-1.9-0.3-2.5
			c-0.2-0.6-0.5-1-1-1.3c-0.4-0.2-1.1-0.4-1.9-0.4h-0.9v-2h1.2c1.8,0,3.2,0.5,4,1.5c0.9,1,1.3,2.5,1.3,4.6c0,2.4-0.5,4.2-1.6,5.4
			c-1.1,1.2-2.5,1.8-4.3,1.8C453.9,240.8,453.1,240.7,452.5,240.5z"/>
		<path class="st0" d="M464.9,239.5c-1-0.9-1.5-2.2-1.5-3.9v-7.9h2.6v8c0,1.1,0.3,1.8,0.8,2.3c0.6,0.5,1.4,0.8,2.5,0.8
			c1.1,0,1.9-0.3,2.5-0.8c0.6-0.5,0.8-1.3,0.8-2.3v-11.9h2.6v11.8c0,1.7-0.5,3.1-1.5,3.9c-1,0.9-2.5,1.3-4.4,1.3
			C467.4,240.8,465.9,240.4,464.9,239.5z"/>
		<path class="st0" d="M480.2,240.6c-0.9-0.2-1.7-0.4-2.3-0.7v-6.7h5.1l0.1,2h-2.7v3.1c0.7,0.3,1.6,0.4,2.6,0.4c1,0,1.7-0.1,2.3-0.4
			c0.6-0.3,1-0.8,1.2-1.4c0.3-0.7,0.4-1.6,0.4-2.7c0-1.2-0.1-2.1-0.4-2.8c-0.3-0.7-0.8-1.1-1.4-1.4c-0.6-0.3-1.6-0.4-2.7-0.4
			c-1.6,0-3,0.2-4.3,0.6v-2c0.7-0.2,1.4-0.4,2.3-0.5s1.7-0.2,2.6-0.2c2.2,0,3.9,0.6,4.9,1.7c1,1.1,1.5,2.8,1.5,5.1
			c0,2.2-0.5,3.9-1.5,5c-1,1.1-2.7,1.7-4.9,1.7C482.1,240.8,481.2,240.8,480.2,240.6z"/>
		<path class="st0" d="M493,239.2c-1-1.1-1.4-2.7-1.4-4.9c0-2.2,0.6-3.9,1.7-5.1s2.8-1.8,4.9-1.8c1.4,0,2.6,0.2,3.5,0.7
			c0.9,0.5,1.6,1.1,2.1,1.9c0.4,0.8,0.7,1.7,0.7,2.6v7.9h-2.6v-7.8c0-1-0.3-1.8-0.9-2.4c-0.6-0.6-1.5-0.9-2.8-0.9
			c-1.4,0-2.4,0.4-3.1,1.2c-0.7,0.8-1,2-1,3.6c0,1.6,0.3,2.7,0.8,3.4c0.5,0.7,1.3,1,2.4,1c0.7,0,1.3-0.1,1.7-0.2v2
			c-0.5,0.2-1.2,0.3-2.1,0.3C495.2,240.8,493.9,240.3,493,239.2z"/>
	</g>
	<g>
		<path class="st0" d="M400.4,370.3c-0.8-0.6-1.2-1.6-1.2-3c0-1.3,0.4-2.3,1.3-3c0.9-0.7,2.1-1,3.8-1h4v-0.8c0-0.9-0.2-1.6-0.7-2
			c-0.5-0.4-1.4-0.6-2.6-0.6c-1.5,0-2.9,0.2-4.2,0.6v-2c0.7-0.2,1.4-0.4,2.2-0.5s1.6-0.2,2.4-0.2c0.8,0,1.5,0.1,2.2,0.2h4.3l-0.1,2
			h-1.5c0.2,0.3,0.4,0.7,0.4,1.1c0.1,0.4,0.1,0.9,0.1,1.5v8.3h-2.6v-5.7h-3.8c-0.9,0-1.6,0.2-2,0.5s-0.7,0.8-0.7,1.5
			c0,0.7,0.2,1.2,0.6,1.5c0.4,0.3,1.1,0.4,2,0.4c0.7,0,1.2-0.1,1.6-0.2v2c-0.7,0.2-1.4,0.3-2.3,0.3
			C402.3,371.3,401.2,371,400.4,370.3z"/>
		<path class="st0" d="M419.1,362.9c0-0.7-0.1-1.3-0.2-1.7c-0.1-0.4-0.4-0.7-0.8-0.9c-0.4-0.2-1-0.3-1.8-0.3c-0.5,0-1.1,0.1-1.7,0.2
			c-0.6,0.1-1.1,0.3-1.6,0.5v-2c0.5-0.2,1.1-0.4,1.8-0.5c0.7-0.1,1.4-0.2,2-0.2c1.7,0,3,0.4,3.8,1.1c0.8,0.8,1.2,1.9,1.2,3.6v8.5
			h-2.6V362.9z"/>
		<path class="st0" d="M426.5,371.1c-0.8-0.1-1.4-0.3-1.9-0.5v-2.2c0.6,0.2,1.2,0.4,1.9,0.6s1.4,0.2,2,0.2c1.2,0,2-0.1,2.5-0.3
			c0.5-0.2,0.7-0.6,0.7-1.2c0-0.4-0.1-0.7-0.3-0.9c-0.2-0.2-0.5-0.4-0.8-0.6c-0.3-0.1-0.9-0.3-1.6-0.6l-0.9-0.3
			c-1.3-0.4-2.3-0.9-2.9-1.5c-0.6-0.5-1-1.3-1-2.3c0-1.2,0.4-2.1,1.3-2.7c0.9-0.6,2.2-1,3.9-1c0.7,0,1.4,0.1,2.1,0.2
			c0.7,0.1,1.3,0.2,1.8,0.4v2.2c-0.5-0.2-1.1-0.3-1.7-0.5s-1.3-0.2-1.8-0.2c-1,0-1.8,0.1-2.3,0.3c-0.5,0.2-0.8,0.6-0.8,1.2
			c0,0.3,0.1,0.6,0.3,0.8c0.2,0.2,0.5,0.4,0.9,0.6s0.9,0.4,1.7,0.6l0.7,0.2c1.4,0.5,2.4,1,3,1.5c0.6,0.6,0.9,1.4,0.9,2.4
			c0,1.2-0.5,2.1-1.4,2.7c-0.9,0.6-2.2,0.9-3.9,0.9C428.1,371.3,427.3,371.2,426.5,371.1z"/>
		<path class="st0" d="M437,366.4c0-1.6,0.6-2.6,1.9-3l-2.6-0.6v-2.7c0.7-0.6,1.6-1.2,2.7-1.6c1.1-0.4,2.2-0.6,3.5-0.6
			c2,0,3.4,0.4,4.4,1.2c1,0.8,1.5,2.1,1.5,3.9v8h-2.6v-8.1c0-1.1-0.3-1.9-0.8-2.3c-0.5-0.4-1.4-0.7-2.6-0.7c-0.8,0-1.5,0.1-2.2,0.3
			c-0.7,0.2-1.2,0.5-1.6,0.9v0.4l2.7,0.7v1.7c-0.6,0.2-1.1,0.4-1.3,0.8c-0.3,0.4-0.4,0.9-0.4,1.6v4.7H437V366.4z"/>
		<path class="st0" d="M442.8,352.6h2.2v1.7h6.2l-0.1,1.8h-8.3V352.6z"/>
		<path class="st0" d="M452.5,369.7c-1-1.1-1.4-2.7-1.4-4.9c0-2.2,0.6-3.9,1.7-5.1s2.8-1.8,4.9-1.8c1.4,0,2.6,0.2,3.5,0.7
			c0.9,0.5,1.6,1.1,2.1,1.9c0.4,0.8,0.7,1.7,0.7,2.6v7.9h-2.6v-7.8c0-1-0.3-1.8-0.9-2.4c-0.6-0.6-1.5-0.9-2.8-0.9
			c-1.4,0-2.4,0.4-3.1,1.2c-0.7,0.8-1,2-1,3.6c0,1.6,0.3,2.7,0.8,3.4c0.5,0.7,1.3,1,2.4,1c0.7,0,1.3-0.1,1.7-0.2v2
			c-0.5,0.2-1.2,0.3-2.1,0.3C454.7,371.3,453.4,370.8,452.5,369.7z"/>
		<path class="st0" d="M467.1,366.4c0-1.6,0.6-2.6,1.9-3l-2.6-0.6v-2.7c0.7-0.6,1.6-1.2,2.7-1.6c1.1-0.4,2.2-0.6,3.5-0.6
			c2,0,3.4,0.4,4.4,1.2c1,0.8,1.5,2.1,1.5,3.9v8H476v-8.1c0-1.1-0.3-1.9-0.8-2.3c-0.5-0.4-1.4-0.7-2.6-0.7c-0.8,0-1.5,0.1-2.2,0.3
			c-0.7,0.2-1.2,0.5-1.6,0.9v0.4l2.7,0.7v1.7c-0.6,0.2-1.1,0.4-1.3,0.8c-0.3,0.4-0.4,0.9-0.4,1.6v4.7h-2.6V366.4z"/>
		<path class="st0" d="M483.4,371.1c-0.8-0.1-1.4-0.3-1.9-0.5v-2.2c0.6,0.2,1.2,0.4,1.9,0.6s1.4,0.2,2,0.2c1.2,0,2-0.1,2.5-0.3
			c0.5-0.2,0.7-0.6,0.7-1.2c0-0.4-0.1-0.7-0.3-0.9c-0.2-0.2-0.5-0.4-0.8-0.6c-0.3-0.1-0.9-0.3-1.6-0.6l-0.9-0.3
			c-1.3-0.4-2.3-0.9-2.9-1.5c-0.6-0.5-1-1.3-1-2.3c0-1.2,0.4-2.1,1.3-2.7c0.9-0.6,2.2-1,3.9-1c0.7,0,1.4,0.1,2.1,0.2
			c0.7,0.1,1.3,0.2,1.8,0.4v2.2c-0.5-0.2-1.1-0.3-1.7-0.5s-1.3-0.2-1.8-0.2c-1,0-1.8,0.1-2.3,0.3c-0.5,0.2-0.8,0.6-0.8,1.2
			c0,0.3,0.1,0.6,0.3,0.8c0.2,0.2,0.5,0.4,0.9,0.6s0.9,0.4,1.7,0.6l0.7,0.2c1.4,0.5,2.4,1,3,1.5c0.6,0.6,0.9,1.4,0.9,2.4
			c0,1.2-0.5,2.1-1.4,2.7c-0.9,0.6-2.2,0.9-3.9,0.9C485,371.3,484.2,371.2,483.4,371.1z"/>
		<path class="st0" d="M488,352.2h2.6v3.9H488V352.2z"/>
		<path class="st0" d="M495.7,371c-0.9-0.2-1.7-0.4-2.3-0.7v-6.7h5.1l0.1,2h-2.7v3.1c0.7,0.3,1.6,0.4,2.6,0.4c1,0,1.7-0.1,2.3-0.4
			c0.6-0.3,1-0.8,1.2-1.4c0.3-0.7,0.4-1.6,0.4-2.7c0-1.2-0.1-2.1-0.4-2.8c-0.3-0.7-0.8-1.1-1.4-1.4c-0.6-0.3-1.6-0.4-2.7-0.4
			c-1.6,0-3,0.2-4.3,0.6v-2c0.7-0.2,1.4-0.4,2.3-0.5s1.7-0.2,2.6-0.2c2.2,0,3.9,0.6,4.9,1.7c1,1.1,1.5,2.8,1.5,5.1
			c0,2.2-0.5,3.9-1.5,5c-1,1.1-2.7,1.7-4.9,1.7C497.5,371.3,496.6,371.2,495.7,371z"/>
		<path class="st0" d="M508.6,370.1c-0.8-0.8-1.2-2-1.2-3.5v-8.5h2.6v8.4c0,1,0.2,1.7,0.6,2.1s1.1,0.6,2,0.6c0.7,0,1.4-0.1,2-0.4
			c0.6-0.3,1.2-0.7,1.6-1.1v-9.6h2.6v13h-2.4l-0.1-1.4c-1.3,1.1-2.8,1.7-4.6,1.7C510.5,371.3,509.4,370.9,508.6,370.1z"/>
	</g>
	<g>
		<g>
			<g>
				<path class="st0" d="M441,305.6l0,1.3c0,2.5,0.7,5,1.9,7.1c1.2,2.1,3,3.9,5.2,5.2l1.1,0.6l4.6-8c0.4,0.1,0.9,0.2,1.4,0.2
					c0.5,0,0.9-0.1,1.4-0.2l4.6,8l1.1-0.6c2.2-1.2,4-3,5.2-5.2c1.2-2.1,1.9-4.6,1.9-7.1l0-1.3l-9.2,0c-0.2-0.9-0.7-1.7-1.4-2.4
					l4.6-8l-1.1-0.6c-4.3-2.5-9.9-2.5-14.2,0l-1.1,0.6l4.6,8c-0.7,0.6-1.1,1.5-1.4,2.4L441,305.6z M455.2,309.4
					c-1.4,0-2.6-1.2-2.6-2.6s1.2-2.6,2.6-2.6c1.4,0,2.6,1.2,2.6,2.6S456.6,309.4,455.2,309.4z M460.2,308.1l6.6,0
					c-0.2,1.6-0.7,3.1-1.5,4.5c-0.8,1.4-1.9,2.6-3.2,3.5l-3.3-5.7C459.5,309.9,460,309.1,460.2,308.1z M450.6,296.2
					c2.9-1.3,6.4-1.3,9.3,0l-3.3,5.7c-0.4-0.1-0.9-0.2-1.4-0.2c-0.5,0-0.9,0.1-1.4,0.2L450.6,296.2z M451.6,310.5l-3.3,5.7
					c-1.3-0.9-2.4-2.2-3.2-3.5c-0.8-1.4-1.3-2.9-1.5-4.5l6.6,0C450.5,309.1,450.9,309.9,451.6,310.5z"/>
				<path class="st0" d="M487.9,317.8c-0.5-1.2-1.7-2-3-2c-1.3,0-2.5,0.8-3,2l-2.9,6.9c-0.3,0.8-0.5,1.7-0.5,2.5v0.2
					c0,3.6,2.9,6.5,6.5,6.5c3.6,0,6.5-2.9,6.5-6.5v-0.2c0-0.9-0.2-1.7-0.5-2.5L487.9,317.8z M488.8,327.5c0,2.1-1.7,3.9-3.9,3.9
					s-3.9-1.7-3.9-3.9v-0.2c0-0.5,0.1-1,0.3-1.5l2.9-6.9c0.1-0.2,0.3-0.4,0.6-0.4s0.5,0.2,0.6,0.4l2.9,6.9c0.2,0.5,0.3,1,0.3,1.5
					V327.5z"/>
				<path class="st0" d="M442.7,328.2c-0.5-1.2-1.7-2-3-2c-1.3,0-2.5,0.8-3,2l-2.9,6.9c-0.3,0.8-0.5,1.7-0.5,2.5v0.2
					c0,3.6,2.9,6.5,6.5,6.5c3.6,0,6.5-2.9,6.5-6.5v-0.2c0-0.9-0.2-1.7-0.5-2.5L442.7,328.2z M443.6,337.8c0,2.1-1.7,3.9-3.9,3.9
					s-3.9-1.7-3.9-3.9v-0.2c0-0.5,0.1-1,0.3-1.5l2.9-6.9c0.1-0.2,0.3-0.4,0.6-0.4s0.5,0.2,0.6,0.4l2.9,6.9c0.2,0.5,0.3,1,0.3,1.5
					V337.8L443.6,337.8z"/>
				<path class="st0" d="M428.5,315.3c-0.5-1.2-1.7-2-3-2s-2.5,0.8-3,2l-2.9,6.9c-0.3,0.8-0.5,1.7-0.5,2.5v0.2
					c0,3.6,2.9,6.5,6.5,6.5c3.6,0,6.5-2.9,6.5-6.5v-0.2c0-0.9-0.2-1.7-0.5-2.5L428.5,315.3z M429.4,324.9c0,2.1-1.7,3.9-3.9,3.9
					s-3.9-1.7-3.9-3.9v-0.2c0-0.5,0.1-1,0.3-1.5l2.9-6.9c0.1-0.2,0.3-0.4,0.6-0.4s0.5,0.2,0.6,0.4l2.9,6.9c0.2,0.5,0.3,1,0.3,1.5
					V324.9z"/>
				<path class="st0" d="M469.8,328.2c-0.5-1.2-1.7-2-3-2s-2.5,0.8-3,2l-2.9,6.9c-0.3,0.8-0.5,1.7-0.5,2.5v0.2
					c0,3.6,2.9,6.5,6.5,6.5c3.6,0,6.5-2.9,6.5-6.5v-0.2c0-0.9-0.2-1.7-0.5-2.5L469.8,328.2z M470.7,337.8c0,2.1-1.7,3.9-3.9,3.9
					s-3.9-1.7-3.9-3.9v-0.2c0-0.5,0.1-1,0.3-1.5l2.9-6.9c0.1-0.2,0.3-0.4,0.6-0.4s0.5,0.2,0.6,0.4l2.9,6.9c0.2,0.5,0.3,1,0.3,1.5
					V337.8z"/>
				<path class="st0" d="M484.9,287.5c-0.9,0-1.8,0.1-2.6,0.4c-0.5-9.5-8.4-17.1-18-17.1c-3.3,0-6.5,0.9-9.2,2.5c-2.5-5.4-8-9-14-9
					c-8.5,0-15.5,6.9-15.5,15.5c0,0.6,0,1.1,0.1,1.7c-6,1.4-10.4,6.8-10.4,13.2c0,7.5,6.1,13.5,13.5,13.5h7.2
					c0.7,10.1,9.1,18.1,19.3,18.1c5.1,0,9.9-2,13.5-5.5l-1.8-1.8c-3.2,3.1-7.3,4.8-11.7,4.8c-9.2,0-16.8-7.5-16.8-16.8
					s7.5-16.8,16.8-16.8c9.2,0,16.8,7.5,16.8,16.8c0,3.5-1,6.8-3,9.6l2.1,1.5c2-2.9,3.2-6.3,3.4-9.8h10.4c5.7,0,10.3-4.6,10.3-10.3
					C495.2,292.1,490.6,287.5,484.9,287.5z M484.9,305.6h-10.4c-0.7-10.1-9.1-18.1-19.3-18.1c-10.2,0-18.6,8-19.3,18.1h-7.2
					c-6,0-11-4.9-11-11c0-6,4.9-11,11-11c3.4,0,6.6,1.5,8.7,4.2l2-1.6c-2.6-3.3-6.5-5.2-10.7-5.2c-0.2,0-0.4,0-0.6,0
					c0-0.4-0.1-0.9-0.1-1.3c0-7.1,5.8-12.9,12.9-12.9c5.2,0,9.9,3.2,11.9,7.9c-1.9,1.5-3.5,3.5-4.7,5.7l2.3,1.2
					c2.7-5.1,7.9-8.3,13.7-8.3c8.5,0,15.5,6.9,15.5,15.5h0.2c-3.2,1.8-5.3,5.1-5.3,9h2.6c0-4.3,3.5-7.7,7.7-7.7s7.7,3.5,7.7,7.7
					S489.2,305.6,484.9,305.6z"/>
			</g>
		</g>
	</g>
	<g>
		<path class="st0" d="M469.7,148.3l-14-14v-20.4c0-1.9-1.6-3.5-3.5-3.5c-1.9,0-3.5,1.6-3.5,3.5v20.4l-14.5,14.5
			c-1.4,1.4-1.4,3.6,0,4.9c0.7,0.7,1.6,1,2.5,1c0.9,0,1.8-0.3,2.5-1l13-13l12.6,12.6c1.4,1.4,3.6,1.4,4.9,0
			C471,151.8,471,149.6,469.7,148.3z"/>
		<path class="st1" d="M399.7,176.1c2.4-27.1,21.9-40.5,34.7-39.8c8.3,0.5,1.5,23.4,4.7,37.2c7.4,32.2-9.3,31.5-22.4,31.9
			C398.4,206,398,194.2,399.7,176.1z"/>
		<path class="st1" d="M502.6,176.1c-2.4-27.1-21.9-40.5-34.7-39.8c-8.3,0.5-1.5,23.4-4.7,37.2c-7.4,32.2,9.3,31.5,22.4,31.9
			C503.8,206,504.2,194.2,502.6,176.1z"/>
	</g>
	<path class="st2" d="M234.8,296.6"/>
	<polygon class="st2" points="157.7,156.4 70.9,156.4 27.5,231.6 70.9,306.8 157.7,306.8 201.1,231.6 	"/>
	<line class="st2" x1="201.1" y1="230.9" x2="370.2" y2="230.9"/>
	<g>
		<path class="st0" d="M70.6,237.8c-1-0.8-1.5-2.1-1.5-3.8c0-1.6,0.5-2.9,1.6-3.7c1.1-0.9,2.7-1.3,4.8-1.3h5v-1c0-1.2-0.3-2-0.9-2.5
			s-1.7-0.7-3.3-0.7c-1.9,0-3.7,0.3-5.3,0.8v-2.5c0.8-0.3,1.8-0.5,2.8-0.7c1.1-0.2,2.1-0.3,3.1-0.3c1,0,1.9,0.1,2.8,0.3h5.5
			l-0.2,2.6H83c0.3,0.4,0.5,0.9,0.6,1.4c0.1,0.5,0.2,1.2,0.2,1.9v10.5h-3.3v-7.2h-4.8c-1.2,0-2,0.2-2.6,0.6s-0.8,1-0.8,1.9
			c0,0.9,0.3,1.5,0.8,1.8c0.5,0.4,1.4,0.5,2.6,0.5c0.8,0,1.5-0.1,2.1-0.2v2.5c-0.8,0.2-1.8,0.4-2.9,0.4
			C73,239,71.6,238.6,70.6,237.8z"/>
		<path class="st0" d="M94.2,228.4c0-0.9-0.1-1.6-0.3-2.1c-0.2-0.5-0.5-0.9-1-1.2c-0.5-0.3-1.3-0.4-2.2-0.4c-0.6,0-1.4,0.1-2.1,0.2
			c-0.8,0.1-1.4,0.3-2,0.6v-2.5c0.6-0.3,1.4-0.5,2.2-0.7c0.9-0.2,1.7-0.3,2.5-0.3c2.2,0,3.8,0.5,4.8,1.4s1.5,2.5,1.5,4.5v10.7h-3.3
			V228.4z"/>
		<path class="st0" d="M103.6,238.8c-1-0.1-1.8-0.3-2.4-0.6v-2.8c0.7,0.3,1.6,0.5,2.5,0.7c0.9,0.2,1.7,0.2,2.5,0.2
			c1.5,0,2.5-0.1,3.2-0.4c0.6-0.3,0.9-0.8,0.9-1.6c0-0.5-0.1-0.9-0.4-1.2c-0.2-0.3-0.6-0.5-1-0.7c-0.4-0.2-1.1-0.4-2-0.7l-1.2-0.4
			c-1.7-0.6-2.9-1.2-3.7-1.9c-0.8-0.7-1.2-1.6-1.2-2.9c0-1.5,0.6-2.6,1.7-3.4c1.1-0.8,2.8-1.2,4.9-1.2c0.9,0,1.8,0.1,2.7,0.2
			c0.9,0.1,1.7,0.3,2.3,0.5v2.7c-0.6-0.2-1.4-0.4-2.2-0.6c-0.8-0.1-1.6-0.2-2.3-0.2c-1.3,0-2.2,0.1-2.9,0.4c-0.7,0.3-1,0.8-1,1.5
			c0,0.4,0.1,0.8,0.4,1.1s0.6,0.5,1.1,0.7c0.5,0.2,1.2,0.5,2.2,0.8l0.9,0.3c1.7,0.6,3,1.2,3.8,1.9s1.2,1.7,1.2,3.1
			c0,1.6-0.6,2.7-1.8,3.5c-1.2,0.8-2.8,1.1-4.9,1.1C105.6,239,104.6,238.9,103.6,238.8z"/>
		<path class="st0" d="M116.7,235.5v-13.2h3.3v12.4c0,0.5,0.1,0.8,0.3,1c0.2,0.2,0.6,0.3,1,0.3h1.4v2.6h-2.8
			C117.8,238.7,116.7,237.7,116.7,235.5z"/>
		<path class="st0" d="M125.9,228.3c0-2,0.6-3.6,1.8-4.7s3.1-1.6,5.6-1.6s4.4,0.5,5.6,1.6s1.8,2.7,1.8,4.7v10.4h-3.3V228
			c0-2.2-1.4-3.3-4.1-3.3c-1.4,0-2.4,0.3-3.1,0.8c-0.7,0.5-1,1.4-1,2.5v3.4c0.9-0.7,2-1.1,3.2-1.1h2l0.1,2.6h-2.2
			c-1.2,0-2.3,0.3-3.1,1v4.7h-3.3V228.3z"/>
		<path class="st0" d="M150.3,238.5c-0.9-0.4-1.8-0.9-2.6-1.6l-0.2,1.8h-3v-16.4h3.3v12.1c0.6,0.6,1.2,1.1,2,1.4s1.6,0.5,2.5,0.5
			c1.2,0,2-0.3,2.6-0.8c0.6-0.5,0.8-1.4,0.8-2.6v-10.6h3.3v10.7c0,1.9-0.5,3.3-1.5,4.4c-1,1-2.4,1.6-4.1,1.6
			C152.3,239,151.2,238.8,150.3,238.5z"/>
		<path class="st0" d="M146.5,217.5h9.8V215h2.7v4.8h-12.7L146.5,217.5z"/>
	</g>
	<g>
		<path class="st0" d="M212.8,219.2c-0.6-0.7-1-1.8-1-3.3c0-1.5,0.2-2.6,0.7-3.4c0.5-0.8,1.2-1.2,2.1-1.2c0.4,0,0.8,0.1,1,0.2
			c0.3,0.1,0.5,0.3,0.7,0.6c0.2-0.2,0.5-0.4,0.9-0.6c0.4-0.2,0.7-0.2,1.1-0.2c0.7,0,1.2,0.2,1.5,0.6c0.3,0.4,0.5,1,0.5,1.7v6.4h-1.7
			V214c0-0.4-0.1-0.7-0.2-0.9c-0.1-0.2-0.3-0.3-0.7-0.3c-0.2,0-0.4,0.1-0.6,0.2s-0.3,0.3-0.4,0.5h-1c-0.1-0.3-0.3-0.5-0.4-0.6
			s-0.3-0.2-0.6-0.2c-0.5,0-0.9,0.3-1.1,0.8c-0.2,0.5-0.3,1.3-0.3,2.4c0,1,0.2,1.8,0.5,2.3c0.4,0.5,0.9,0.7,1.6,0.7
			c0.5,0,0.9,0,1.1-0.1v1.3c-0.4,0.1-0.8,0.2-1.4,0.2C214.3,220.3,213.5,220,212.8,219.2z"/>
		<path class="st0" d="M223.6,220.2c-0.5-0.1-1-0.2-1.3-0.3v-1.4c0.4,0.2,0.8,0.3,1.3,0.4s0.9,0.1,1.3,0.1c0.8,0,1.3-0.1,1.7-0.2
			c0.3-0.1,0.5-0.4,0.5-0.8c0-0.3-0.1-0.5-0.2-0.6c-0.1-0.2-0.3-0.3-0.5-0.4s-0.6-0.2-1-0.4l-0.6-0.2c-0.9-0.3-1.5-0.6-1.9-1
			c-0.4-0.4-0.6-0.9-0.6-1.5c0-0.8,0.3-1.4,0.9-1.8s1.4-0.6,2.6-0.6c0.5,0,0.9,0,1.4,0.1c0.5,0.1,0.9,0.2,1.2,0.3v1.4
			c-0.3-0.1-0.7-0.2-1.2-0.3c-0.4-0.1-0.8-0.1-1.2-0.1c-0.7,0-1.2,0.1-1.5,0.2c-0.3,0.1-0.5,0.4-0.5,0.8c0,0.2,0.1,0.4,0.2,0.6
			c0.1,0.1,0.3,0.3,0.6,0.4s0.6,0.2,1.1,0.4l0.5,0.1c0.9,0.3,1.6,0.6,2,1c0.4,0.4,0.6,0.9,0.6,1.6c0,0.8-0.3,1.4-0.9,1.8
			c-0.6,0.4-1.5,0.6-2.6,0.6C224.7,220.3,224.1,220.3,223.6,220.2z"/>
		<path class="st0" d="M230.1,212.8h1.5v0.8h2.3l-0.1,1.3h-3.8V212.8z M230.1,217.1h1.5v0.8h2.3l-0.1,1.3h-3.8V217.1z"/>
		<path class="st0" d="M235.7,217c0-1.1,0.4-1.7,1.3-2l-1.7-0.4v-1.8c0.5-0.4,1.1-0.8,1.8-1s1.5-0.4,2.3-0.4c1.3,0,2.3,0.3,2.9,0.8
			s1,1.4,1,2.6v5.3h-1.7v-5.4c0-0.7-0.2-1.2-0.5-1.5c-0.3-0.3-0.9-0.4-1.7-0.4c-0.5,0-1,0.1-1.5,0.2c-0.5,0.1-0.8,0.3-1.1,0.6v0.3
			l1.8,0.5v1.1c-0.4,0.1-0.7,0.3-0.9,0.5c-0.2,0.2-0.3,0.6-0.3,1v3.1h-1.7V217z"/>
		<path class="st0" d="M240,223.9c-0.3-0.3-0.5-0.6-0.5-1v-0.8h-0.9l0.1-1.1h2v1.6c0,0.2,0.1,0.3,0.2,0.4s0.3,0.1,0.5,0.1
			c0.2,0,0.4,0,0.5-0.1s0.2-0.2,0.2-0.4v-1.6h1.3v1.7c0,0.4-0.2,0.8-0.5,1.1c-0.3,0.3-0.8,0.4-1.4,0.4
			C240.8,224.3,240.3,224.2,240,223.9z"/>
		<path class="st0" d="M245.9,219.7c-0.5-0.4-0.8-1.1-0.8-2c0-0.8,0.3-1.5,0.9-2c0.6-0.5,1.4-0.7,2.5-0.7h2.6v-0.5
			c0-0.4-0.1-0.8-0.2-1s-0.4-0.4-0.7-0.5c-0.3-0.1-0.8-0.2-1.3-0.2c-1,0-1.9,0.1-2.8,0.4v-1.3c0.4-0.1,0.9-0.3,1.5-0.3
			s1.1-0.1,1.6-0.1c1.3,0,2.2,0.3,2.8,0.8c0.6,0.5,0.9,1.3,0.9,2.5v5.5H251v-3.8h-2.5c-0.6,0-1.1,0.1-1.4,0.3
			c-0.3,0.2-0.4,0.5-0.4,1c0,0.5,0.1,0.8,0.4,1c0.3,0.2,0.7,0.3,1.3,0.3c0.4,0,0.8,0,1.1-0.1v1.3c-0.5,0.1-1,0.2-1.6,0.2
			C247.1,220.3,246.4,220.1,245.9,219.7z"/>
		<path class="st0" d="M254.8,218.5v-6.9h1.7v6.5c0,0.2,0.1,0.4,0.2,0.5c0.1,0.1,0.3,0.2,0.5,0.2h0.6v1.4h-1.4
			C255.3,220.1,254.8,219.6,254.8,218.5z M258.6,218.5v-6.9h1.7v6.5c0,0.2,0.1,0.4,0.2,0.5c0.1,0.1,0.3,0.2,0.5,0.2h0.7v1.4h-1.4
			C259.2,220.1,258.6,219.6,258.6,218.5z"/>
		<path class="st0" d="M263.4,214.7c0-1.1,0.3-1.9,1-2.4s1.6-0.9,2.9-0.9c1.3,0,2.3,0.3,2.9,0.9s0.9,1.4,0.9,2.4v5.4h-1.7v-5.6
			c0-1.2-0.7-1.7-2.1-1.7c-0.7,0-1.3,0.1-1.6,0.4c-0.4,0.3-0.5,0.7-0.5,1.3v1.8c0.5-0.4,1-0.6,1.7-0.6h1l0.1,1.4h-1.1
			c-0.6,0-1.2,0.2-1.6,0.5v2.5h-1.7V214.7z"/>
		<path class="st0" d="M273.7,219.7c-0.5-0.4-0.8-1.1-0.8-2c0-0.8,0.3-1.5,0.9-2c0.6-0.5,1.4-0.7,2.5-0.7h2.6v-0.5
			c0-0.4-0.1-0.8-0.2-1s-0.4-0.4-0.7-0.5c-0.3-0.1-0.8-0.2-1.3-0.2c-1,0-1.9,0.1-2.8,0.4v-1.3c0.4-0.1,0.9-0.3,1.5-0.3
			s1.1-0.1,1.6-0.1c1.3,0,2.2,0.3,2.8,0.8c0.6,0.5,0.9,1.3,0.9,2.5v5.5h-1.7v-3.8h-2.5c-0.6,0-1.1,0.1-1.4,0.3
			c-0.3,0.2-0.4,0.5-0.4,1c0,0.5,0.1,0.8,0.4,1c0.3,0.2,0.7,0.3,1.3,0.3c0.4,0,0.8,0,1.1-0.1v1.3c-0.5,0.1-1,0.2-1.6,0.2
			C274.9,220.3,274.2,220.1,273.7,219.7z"/>
		<path class="st0" d="M282.6,218.5v-6.9h1.7v6.5c0,0.2,0.1,0.4,0.2,0.5c0.1,0.1,0.3,0.2,0.5,0.2h0.7v1.4h-1.5
			C283.1,220.1,282.6,219.6,282.6,218.5z"/>
		<path class="st0" d="M288.2,219.5c-0.6-0.5-0.9-1.3-0.9-2.3v-0.6c0-0.3,0.1-0.7,0.3-1c0.2-0.3,0.5-0.7,0.8-1.2
			c0.3-0.3,0.4-0.6,0.5-0.7c0.1-0.2,0.2-0.3,0.2-0.5c0-0.2-0.1-0.3-0.3-0.3c-0.2,0-0.4,0.1-0.5,0.2v0.6h-1.2v-2.1h1.2v0.4
			c0.2-0.1,0.3-0.2,0.5-0.3c0.2-0.1,0.4-0.1,0.7-0.1c0.4,0,0.7,0.1,0.9,0.3c0.2,0.2,0.3,0.5,0.3,0.9c0,0.3-0.1,0.6-0.2,0.9
			c-0.1,0.3-0.4,0.6-0.7,1c-0.3,0.4-0.5,0.7-0.6,1s-0.2,0.5-0.2,0.8v0.7c0,0.6,0.2,1,0.5,1.3s0.8,0.4,1.4,0.4c1.3,0,2-0.6,2-1.7v-1
			c0-0.5-0.1-0.8-0.3-1s-0.5-0.3-0.9-0.3h-0.4l0.1-1.3h0.3c0.4,0,0.7-0.1,0.9-0.3c0.2-0.2,0.3-0.6,0.3-1v-0.8h1.7v0.8
			c0,0.5-0.1,1-0.2,1.3s-0.5,0.6-0.9,0.7c0.4,0.2,0.7,0.4,0.9,0.8c0.2,0.3,0.2,0.7,0.2,1.3v0.9c0,1-0.3,1.8-1,2.4
			c-0.7,0.6-1.6,0.9-2.7,0.9C289.8,220.3,288.8,220,288.2,219.5z"/>
		<path class="st0" d="M288.1,209h5.1v-1.3h1.4v2.5H288L288.1,209z"/>
		<path class="st0" d="M297.4,219.7c-0.7-0.4-1.1-1.1-1.1-2c0-0.4,0.1-0.8,0.3-1.2s0.5-0.6,0.9-0.8c-0.4-0.1-0.6-0.3-0.8-0.7
			c-0.2-0.3-0.3-0.7-0.3-1.1c0-0.8,0.2-1.4,0.7-1.8c0.5-0.4,1.1-0.6,2-0.6c0.5,0,1,0.1,1.4,0.2v1.3c-0.3-0.1-0.7-0.1-1.1-0.1
			c-0.9,0-1.3,0.4-1.3,1.1c0,0.8,0.5,1.1,1.5,1.1h0.9l0.1,1.3h-1c-1,0-1.5,0.4-1.5,1.3c0,0.4,0.2,0.8,0.5,1c0.4,0.2,0.9,0.3,1.7,0.3
			c0.8,0,1.3-0.2,1.7-0.5s0.6-0.8,0.6-1.4v-5.5h1.7v5.3c0,1.2-0.3,2-1,2.6c-0.6,0.6-1.6,0.8-2.9,0.8
			C299,220.3,298.1,220.1,297.4,219.7z"/>
		<path class="st0" d="M309.1,220c-0.5-0.2-0.9-0.5-1.3-0.8l-0.1,0.9h-1.6v-8.6h1.7v6.3c0.3,0.3,0.7,0.6,1.1,0.7s0.8,0.3,1.3,0.3
			c0.6,0,1.1-0.1,1.3-0.4c0.3-0.3,0.4-0.7,0.4-1.4v-5.6h1.7v5.6c0,1-0.3,1.8-0.8,2.3c-0.5,0.5-1.2,0.8-2.2,0.8
			C310.2,220.3,309.6,220.2,309.1,220z"/>
		<path class="st0" d="M317.1,220.1c-0.6-0.1-1.1-0.3-1.6-0.5v-4.4h3.4l0.1,1.3h-1.8v2.1c0.5,0.2,1.1,0.3,1.7,0.3
			c0.6,0,1.1-0.1,1.5-0.3s0.6-0.5,0.8-1c0.2-0.4,0.3-1,0.3-1.8c0-0.8-0.1-1.4-0.3-1.9c-0.2-0.4-0.5-0.8-0.9-0.9
			c-0.4-0.2-1-0.3-1.8-0.3c-1,0-2,0.1-2.8,0.4v-1.3c0.4-0.1,1-0.3,1.5-0.3s1.2-0.1,1.7-0.1c1.5,0,2.6,0.4,3.2,1.1
			c0.7,0.7,1,1.9,1,3.4c0,1.5-0.3,2.6-1,3.3c-0.7,0.7-1.8,1.1-3.2,1.1C318.3,220.3,317.7,220.3,317.1,220.1z"/>
		<path class="st0" d="M326.2,220.1c-0.6-0.1-1.1-0.3-1.6-0.5v-4.4h3.4l0.1,1.3h-1.8v2.1c0.5,0.2,1.1,0.3,1.7,0.3
			c0.6,0,1.1-0.1,1.5-0.3s0.6-0.5,0.8-1c0.2-0.4,0.3-1,0.3-1.8c0-0.8-0.1-1.4-0.3-1.9c-0.2-0.4-0.5-0.8-0.9-0.9
			c-0.4-0.2-1-0.3-1.8-0.3c-1,0-2,0.1-2.8,0.4v-1.3c0.4-0.1,1-0.3,1.5-0.3s1.2-0.1,1.7-0.1c1.5,0,2.6,0.4,3.2,1.1
			c0.7,0.7,1,1.9,1,3.4c0,1.5-0.3,2.6-1,3.3c-0.7,0.7-1.8,1.1-3.2,1.1C327.4,220.3,326.8,220.3,326.2,220.1z"/>
		<path class="st0" d="M334.1,217c0-1.1,0.4-1.7,1.3-2l-1.7-0.4v-1.8c0.5-0.4,1.1-0.8,1.8-1s1.5-0.4,2.3-0.4c1.3,0,2.3,0.3,2.9,0.8
			s1,1.4,1,2.6v5.3H340v-5.4c0-0.7-0.2-1.2-0.5-1.5c-0.3-0.3-0.9-0.4-1.7-0.4c-0.5,0-1,0.1-1.5,0.2c-0.5,0.1-0.8,0.3-1.1,0.6v0.3
			l1.8,0.5v1.1c-0.4,0.1-0.7,0.3-0.9,0.5c-0.2,0.2-0.3,0.6-0.3,1v3.1h-1.7V217z"/>
		<path class="st0" d="M344,218.5V213c0-1.1,0.4-2,1.2-2.5h-2.5v-1.4h4.6v1.3c-0.6,0.2-1,0.6-1.2,1c-0.2,0.5-0.4,1.1-0.4,1.8v4.8
			c0,0.3,0,0.5,0.1,0.6c0.1,0.1,0.3,0.1,0.6,0.1h0.7v1.4h-1.5C344.5,220.1,344,219.6,344,218.5z"/>
		<path class="st0" d="M349.3,219.5c-0.6-0.5-0.9-1.3-0.9-2.3v-0.6c0-0.3,0.1-0.7,0.3-1c0.2-0.3,0.5-0.7,0.8-1.2
			c0.3-0.3,0.4-0.6,0.5-0.7c0.1-0.2,0.2-0.3,0.2-0.5c0-0.2-0.1-0.3-0.3-0.3c-0.2,0-0.4,0.1-0.5,0.2v0.6h-1.2v-2.1h1.2v0.4
			c0.2-0.1,0.3-0.2,0.5-0.3c0.2-0.1,0.4-0.1,0.7-0.1c0.4,0,0.7,0.1,0.9,0.3c0.2,0.2,0.3,0.5,0.3,0.9c0,0.3-0.1,0.6-0.2,0.9
			c-0.1,0.3-0.4,0.6-0.7,1c-0.3,0.4-0.5,0.7-0.6,1s-0.2,0.5-0.2,0.8v0.7c0,0.6,0.2,1,0.5,1.3s0.8,0.4,1.4,0.4c1.3,0,2-0.6,2-1.7v-1
			c0-0.5-0.1-0.8-0.3-1s-0.5-0.3-0.9-0.3h-0.4l0.1-1.3h0.3c0.4,0,0.7-0.1,0.9-0.3c0.2-0.2,0.3-0.6,0.3-1v-0.8h1.7v0.8
			c0,0.5-0.1,1-0.2,1.3s-0.5,0.6-0.9,0.7c0.4,0.2,0.7,0.4,0.9,0.8c0.2,0.3,0.2,0.7,0.2,1.3v0.9c0,1-0.3,1.8-1,2.4
			c-0.7,0.6-1.6,0.9-2.7,0.9C350.8,220.3,349.9,220,349.3,219.5z"/>
		<path class="st0" d="M358.4,219.2c-0.6-0.7-1-1.8-1-3.3c0-1.5,0.4-2.6,1.1-3.4c0.7-0.8,1.8-1.2,3.3-1.2c0.9,0,1.7,0.2,2.3,0.5
			c0.6,0.3,1.1,0.7,1.4,1.3c0.3,0.5,0.4,1.1,0.4,1.7v5.2h-1.7V215c0-0.7-0.2-1.2-0.6-1.6c-0.4-0.4-1-0.6-1.9-0.6
			c-0.9,0-1.6,0.3-2,0.8c-0.4,0.5-0.7,1.3-0.7,2.4c0,1,0.2,1.8,0.5,2.3c0.4,0.5,0.9,0.7,1.6,0.7c0.5,0,0.9,0,1.1-0.1v1.3
			c-0.4,0.1-0.8,0.2-1.4,0.2C359.9,220.3,359,220,358.4,219.2z"/>
		<path class="st0" d="M362.2,207.9h4.7l-0.1,1.2h-3.2v1.1h-1.4V207.9z"/>
	</g>
	<g>
		<path class="st0" d="M177,335.8v-6.9h1.7v6.5c0,0.2,0.1,0.4,0.2,0.5c0.1,0.1,0.3,0.2,0.5,0.2h0.7v1.4h-1.5
			C177.6,337.4,177,336.9,177,335.8z"/>
		<path class="st0" d="M181.9,335.8v-6.9h1.7v6.5c0,0.2,0.1,0.4,0.2,0.5c0.1,0.1,0.3,0.2,0.5,0.2h0.7v1.4h-1.5
			C182.4,337.4,181.9,336.9,181.9,335.8z"/>
		<path class="st0" d="M188.1,337.4c-0.6-0.1-1.1-0.3-1.6-0.5v-4.4h3.4l0.1,1.3h-1.8v2.1c0.5,0.2,1.1,0.3,1.7,0.3
			c0.6,0,1.1-0.1,1.5-0.3s0.6-0.5,0.8-1c0.2-0.4,0.3-1,0.3-1.8c0-0.8-0.1-1.4-0.3-1.9c-0.2-0.4-0.5-0.8-0.9-0.9
			c-0.4-0.2-1-0.3-1.8-0.3c-1,0-2,0.1-2.8,0.4v-1.3c0.4-0.1,1-0.3,1.5-0.3s1.2-0.1,1.7-0.1c1.5,0,2.6,0.4,3.2,1.1
			c0.7,0.7,1,1.9,1,3.4c0,1.5-0.3,2.6-1,3.3c-0.7,0.7-1.8,1.1-3.2,1.1C189.3,337.6,188.7,337.5,188.1,337.4z"/>
		<path class="st0" d="M198.8,337.3c-0.5-0.2-0.9-0.5-1.3-0.8l-0.1,0.9h-1.6v-8.6h1.7v6.3c0.3,0.3,0.7,0.6,1.1,0.7s0.8,0.3,1.3,0.3
			c0.6,0,1.1-0.1,1.3-0.4c0.3-0.3,0.4-0.7,0.4-1.4v-5.6h1.7v5.6c0,1-0.3,1.8-0.8,2.3c-0.5,0.5-1.2,0.8-2.2,0.8
			C199.9,337.6,199.3,337.5,198.8,337.3z"/>
		<path class="st0" d="M206.4,336.9c-0.2-0.3-0.4-0.8-0.4-1.5v-5.3c0-0.7-0.1-1.2-0.4-1.5c-0.3-0.4-0.7-0.6-1.3-0.9v-1.3h4.7v1.4
			h-2.5c0.4,0.2,0.7,0.6,0.9,0.9c0.2,0.4,0.3,0.9,0.3,1.6v5.1c0,0.3,0,0.5,0.1,0.6c0.1,0.1,0.3,0.1,0.6,0.1h0.7v1.4h-1.5
			C207.1,337.4,206.6,337.3,206.4,336.9z"/>
		<path class="st0" d="M213.4,337.3c-0.5-0.2-0.9-0.5-1.3-0.8l-0.1,0.9h-1.6v-8.6h1.7v6.3c0.3,0.3,0.7,0.6,1.1,0.7s0.8,0.3,1.3,0.3
			c0.6,0,1.1-0.1,1.3-0.4c0.3-0.3,0.4-0.7,0.4-1.4v-5.6h1.7v5.6c0,1-0.3,1.8-0.8,2.3c-0.5,0.5-1.2,0.8-2.2,0.8
			C214.5,337.6,213.9,337.5,213.4,337.3z"/>
		<path class="st0" d="M220.1,335.8v-6.9h1.7v6.5c0,0.2,0.1,0.4,0.2,0.5c0.1,0.1,0.3,0.2,0.5,0.2h0.7v1.4h-1.5
			C220.6,337.4,220.1,336.9,220.1,335.8z"/>
		<path class="st0" d="M225.7,336.8c-0.5-0.5-0.8-1.3-0.8-2.3v-5.6h1.7v5.6c0,0.6,0.1,1.1,0.4,1.4c0.3,0.3,0.7,0.4,1.3,0.4
			c0.5,0,0.9-0.1,1.3-0.3s0.8-0.4,1.1-0.7v-6.3h1.7v8.6h-1.6l-0.1-0.9c-0.8,0.7-1.9,1.1-3,1.1C226.9,337.6,226.2,337.3,225.7,336.8z
			"/>
		<path class="st0" d="M225.9,326.3h5.1V325h1.4v2.5h-6.6L225.9,326.3z"/>
		<path class="st0" d="M235.2,336.9c-0.7-0.4-1.1-1.1-1.1-2c0-0.4,0.1-0.8,0.3-1.2s0.5-0.6,0.9-0.8c-0.4-0.1-0.6-0.3-0.8-0.7
			c-0.2-0.3-0.3-0.7-0.3-1.1c0-0.8,0.2-1.4,0.7-1.8c0.5-0.4,1.1-0.6,2-0.6c0.5,0,1,0.1,1.4,0.2v1.3c-0.3-0.1-0.7-0.1-1.1-0.1
			c-0.9,0-1.3,0.4-1.3,1.1c0,0.8,0.5,1.1,1.5,1.1h0.9l0.1,1.3h-1c-1,0-1.5,0.4-1.5,1.3c0,0.4,0.2,0.8,0.5,1c0.4,0.2,0.9,0.3,1.7,0.3
			c0.8,0,1.3-0.2,1.7-0.5s0.6-0.8,0.6-1.4v-5.5h1.7v5.3c0,1.2-0.3,2-1,2.6c-0.6,0.6-1.6,0.8-2.9,0.8
			C236.9,337.6,235.9,337.4,235.2,336.9z"/>
		<path class="st0" d="M247,337.3c-0.5-0.2-0.9-0.5-1.3-0.8l-0.1,0.9H244v-8.6h1.7v6.3c0.3,0.3,0.7,0.6,1.1,0.7s0.8,0.3,1.3,0.3
			c0.6,0,1.1-0.1,1.3-0.4c0.3-0.3,0.4-0.7,0.4-1.4v-5.6h1.7v5.6c0,1-0.3,1.8-0.8,2.3c-0.5,0.5-1.2,0.8-2.2,0.8
			C248,337.6,247.5,337.5,247,337.3z"/>
		<path class="st0" d="M259.6,336.3h1.5l-0.7,3h-1.3L259.6,336.3z"/>
		<path class="st0" d="M269,335.8v-5.5c0-1.1,0.4-2,1.2-2.5h-2.5v-1.4h4.6v1.3c-0.6,0.2-1,0.6-1.2,1c-0.2,0.5-0.4,1.1-0.4,1.8v4.8
			c0,0.3,0,0.5,0.1,0.6c0.1,0.1,0.3,0.1,0.6,0.1h0.7v1.4h-1.5C269.5,337.4,269,336.9,269,335.8z"/>
		<path class="st0" d="M274.2,336.8c-0.5-0.5-0.8-1.3-0.8-2.3v-5.6h1.7v5.6c0,0.6,0.1,1.1,0.4,1.4c0.3,0.3,0.7,0.4,1.3,0.4
			c0.5,0,0.9-0.1,1.3-0.3s0.8-0.4,1.1-0.7v-6.3h1.7v8.6h-1.6l-0.1-0.9c-0.8,0.7-1.9,1.1-3,1.1C275.5,337.6,274.8,337.3,274.2,336.8z
			"/>
		<path class="st0" d="M283.1,335.8v-6.9h1.7v6.5c0,0.2,0.1,0.4,0.2,0.5c0.1,0.1,0.3,0.2,0.5,0.2h0.7v1.4h-1.5
			C283.7,337.4,283.1,336.9,283.1,335.8z"/>
		<path class="st0" d="M288.6,336.5c-0.6-0.7-1-1.8-1-3.3c0-1.5,0.2-2.6,0.7-3.4c0.5-0.8,1.2-1.2,2.1-1.2c0.4,0,0.8,0.1,1,0.2
			c0.3,0.1,0.5,0.3,0.7,0.6c0.2-0.2,0.5-0.4,0.9-0.6c0.4-0.2,0.7-0.2,1.1-0.2c0.7,0,1.2,0.2,1.5,0.6c0.3,0.4,0.5,1,0.5,1.7v6.4h-1.7
			v-6.2c0-0.4-0.1-0.7-0.2-0.9c-0.1-0.2-0.3-0.3-0.7-0.3c-0.2,0-0.4,0.1-0.6,0.2s-0.3,0.3-0.4,0.5h-1c-0.1-0.3-0.3-0.5-0.4-0.6
			s-0.3-0.2-0.6-0.2c-0.5,0-0.9,0.3-1.1,0.8c-0.2,0.5-0.3,1.3-0.3,2.4c0,1,0.2,1.8,0.5,2.3c0.4,0.5,0.9,0.7,1.6,0.7
			c0.5,0,0.9,0,1.1-0.1v1.3c-0.4,0.1-0.8,0.2-1.4,0.2C290.1,337.6,289.2,337.2,288.6,336.5z"/>
		<path class="st0" d="M299.4,337.5c-0.5-0.1-1-0.2-1.3-0.3v-1.4c0.4,0.2,0.8,0.3,1.3,0.4s0.9,0.1,1.3,0.1c0.8,0,1.3-0.1,1.7-0.2
			c0.3-0.1,0.5-0.4,0.5-0.8c0-0.3-0.1-0.5-0.2-0.6c-0.1-0.2-0.3-0.3-0.5-0.4s-0.6-0.2-1-0.4l-0.6-0.2c-0.9-0.3-1.5-0.6-1.9-1
			c-0.4-0.4-0.6-0.9-0.6-1.5c0-0.8,0.3-1.4,0.9-1.8s1.4-0.6,2.6-0.6c0.5,0,0.9,0,1.4,0.1c0.5,0.1,0.9,0.2,1.2,0.3v1.4
			c-0.3-0.1-0.7-0.2-1.2-0.3c-0.4-0.1-0.8-0.1-1.2-0.1c-0.7,0-1.2,0.1-1.5,0.2c-0.3,0.1-0.5,0.4-0.5,0.8c0,0.2,0.1,0.4,0.2,0.6
			c0.1,0.1,0.3,0.3,0.6,0.4s0.6,0.2,1.1,0.4l0.5,0.1c0.9,0.3,1.6,0.6,2,1c0.4,0.4,0.6,0.9,0.6,1.6c0,0.8-0.3,1.4-0.9,1.8
			c-0.6,0.4-1.5,0.6-2.6,0.6C300.4,337.6,299.9,337.6,299.4,337.5z"/>
		<path class="st0" d="M306.2,328.9h1.6l0.1,0.9c0.9-0.7,1.9-1.1,3.1-1.1c0.9,0,1.6,0.3,2.1,0.8s0.8,1.3,0.8,2.3v5.7h-1.7v-5.6
			c0-0.6-0.1-1.1-0.4-1.3c-0.3-0.3-0.7-0.4-1.3-0.4c-0.5,0-0.9,0.1-1.3,0.3c-0.4,0.2-0.8,0.4-1.1,0.7v6.3h-1.7V328.9z"/>
	</g>
	<polyline class="st2" points="156.9,305.9 156.9,347.5 366.2,347.5 	"/>
	<polygon class="st2" points="126.5,79.1 97.1,79.1 82.4,104.6 97.1,130 126.5,130 141.2,104.6 	"/>
	<polygon class="st2" points="167.2,113.8 149.7,113.8 140.9,128.9 149.7,144 167.2,144 175.9,128.9 	"/>
	<polygon class="st2" points="94.5,337.8 82,337.8 75.8,348.6 82,359.4 94.5,359.4 100.7,348.6 	"/>
	<polygon class="st2" points="130.1,316.8 109.5,316.8 99.3,334.6 109.5,352.4 130.1,352.4 140.4,334.6 	"/>
</g>
</svg>
