<?xml version="1.0" encoding="utf-8"?>
<!-- Generator: Adobe Illustrator 23.0.1, SVG Export Plug-In . SVG Version: 6.00 Build 0)  -->
<svg version="1.1" id="Layer_1" xmlns="http://www.w3.org/2000/svg" xmlns:xlink="http://www.w3.org/1999/xlink" x="0px" y="0px"
	 viewBox="0 0 554.4 524.4" style="enable-background:new 0 0 554.4 524.4;" xml:space="preserve">
<style type="text/css">
	.st0{fill:none;stroke:#FFFFFF;stroke-width:2;stroke-miterlimit:10;}
	.st1{fill:#FFFFFF;}
	.st2{fill:none;stroke:#FFFFFF;stroke-width:2;stroke-miterlimit:10;stroke-dasharray:12.1004,12.1004;}
</style>
<g>
	<g>
		<path class="st0" d="M123.5,227.7v148.1h21.4v-78.8c0-14,14.9-25.4,33.2-25.4h0c18.4,0,33.2,11.4,33.2,25.4v78.8h21.6v-78.8
			c0-14,14.9-25.4,33.2-25.4h0c18.4,0,33.2,11.4,33.2,25.4v78.8h21.6v-78.8c0-14,14.9-25.4,33.2-25.4h0c18.4,0,33.2,11.4,33.2,25.4
			v78.8h21.4V227.7H123.5z"/>
		<polygon class="st0" points="385.3,182.8 385.3,205.8 147.3,205.8 147.3,182.8 123.5,182.8 123.5,205.8 123.5,227.7 147.3,227.7 
			385.3,227.7 409.1,227.7 409.1,205.8 409.1,182.8 		"/>
		<g>
			<path class="st0" d="M123.5,389.2c14.3,0,14.3,20,28.6,20c14.3,0,14.3-20,28.6-20c14.3,0,14.3,20,28.6,20c14.3,0,14.3-20,28.6-20
				c14.3,0,14.3,20,28.6,20c14.3,0,14.3-20,28.6-20c14.3,0,14.3,20,28.6,20c14.3,0,14.3-20,28.6-20c14.3,0,14.3,20,28.6,20
				c14.3,0,14.3-20,28.6-20"/>
		</g>
		<g>
			<path class="st0" d="M123.5,417.3c14.3,0,14.3,20,28.6,20c14.3,0,14.3-20,28.6-20c14.3,0,14.3,20,28.6,20c14.3,0,14.3-20,28.6-20
				c14.3,0,14.3,20,28.6,20c14.3,0,14.3-20,28.6-20c14.3,0,14.3,20,28.6,20c14.3,0,14.3-20,28.6-20c14.3,0,14.3,20,28.6,20
				c14.3,0,14.3-20,28.6-20"/>
		</g>
	</g>
	<path class="st1" d="M227.5,105.5C227.5,105.5,227.4,105.5,227.5,105.5c0.3-1.3,0.5-2.6,0.5-4c0-9.9-9.6-18-21.5-18
		c-3.2,0-6.2,0.6-8.9,1.6C194.4,75.9,183,69,169.5,69c-16,0-29,9.6-29,21.5c0,0.3,0,0.5,0,0.8c-2.2-0.5-4.6-0.8-7-0.8
		C121.6,90.5,112,97,112,105s9.6,14.5,21.5,14.5c3.1,0,6.1-0.5,8.8-1.3c-0.8,1.7-1.3,3.4-1.3,5.3c0,9.9,13,18,29,18
		c11.9,0,22.1-4.5,26.6-10.8c2.6,1.8,6.1,2.8,9.9,2.8c6.9,0,12.7-3.5,14.2-8.2c2,0.8,4.4,1.2,6.8,1.2c8,0,14.5-4.7,14.5-10.5
		C242,110.2,235.5,105.5,227.5,105.5z M186.9,108.9c-0.4-0.2-0.8-0.4-1.2-0.5c0.3-0.1,0.5-0.3,0.8-0.4
		C186.6,108.3,186.7,108.6,186.9,108.9z"/>
	<path class="st1" d="M296,123.7c0.1,4,4.6,7.2,10.1,7c1.7,0,3.3-0.4,4.7-0.9c1,3.2,5.1,5.6,9.9,5.5c2.6-0.1,5-0.8,6.8-2.1
		c3.2,4.3,10.3,7.3,18.5,7.1c11-0.2,19.9-5.9,19.8-12.8c0-1.3-0.4-2.5-0.9-3.6c1.9,0.5,3.9,0.8,6.1,0.8c8.2-0.2,14.7-4.8,14.6-10.3
		c-0.1-5.5-6.8-9.9-15-9.7c-1.7,0-3.3,0.3-4.8,0.7c0-0.2,0-0.4,0-0.6c-0.2-8.2-9.2-14.7-20.3-14.4c-9.3,0.2-17.1,5.1-19.2,11.5
		c-1.9-0.7-4-1-6.2-1c-8.2,0.2-14.7,5.8-14.6,12.7c0,0.9,0.2,1.9,0.4,2.8c0,0,0,0,0,0C300.3,116.4,295.9,119.7,296,123.7z
		 M334.2,117.4c0.2,0.1,0.4,0.2,0.5,0.3c-0.3,0.1-0.6,0.2-0.9,0.4C334,117.9,334.1,117.6,334.2,117.4z"/>
	<g>
		<g>
			<line class="st0" x1="162" y1="148.5" x2="164.7" y2="153.9"/>
			<line class="st2" x1="170.2" y1="164.6" x2="178.5" y2="180.8"/>
			<line class="st0" x1="181.2" y1="186.2" x2="184" y2="191.5"/>
		</g>
	</g>
	<g>
		<g>
			<line class="st0" x1="184" y1="148.5" x2="186.7" y2="153.9"/>
			<line class="st2" x1="192.2" y1="164.6" x2="200.5" y2="180.8"/>
			<line class="st0" x1="203.2" y1="186.2" x2="206" y2="191.5"/>
		</g>
	</g>
	<g>
		<g>
			<line class="st0" x1="206" y1="148.5" x2="208.7" y2="153.9"/>
			<line class="st2" x1="214.2" y1="164.6" x2="222.5" y2="180.8"/>
			<line class="st0" x1="225.2" y1="186.2" x2="228" y2="191.5"/>
		</g>
	</g>
	<g>
		<g>
			<line class="st0" x1="320" y1="148.5" x2="322.7" y2="153.9"/>
			<line class="st2" x1="328.2" y1="164.6" x2="336.5" y2="180.8"/>
			<line class="st0" x1="339.2" y1="186.2" x2="342" y2="191.5"/>
		</g>
	</g>
	<g>
		<g>
			<line class="st0" x1="338.5" y1="148.5" x2="341.2" y2="153.9"/>
			<line class="st2" x1="346.7" y1="164.6" x2="355" y2="180.8"/>
			<line class="st0" x1="357.7" y1="186.2" x2="360.5" y2="191.5"/>
		</g>
	</g>
	<g>
		<g>
			<line class="st0" x1="357" y1="148.5" x2="359.7" y2="153.9"/>
			<line class="st2" x1="365.2" y1="164.6" x2="373.5" y2="180.8"/>
			<line class="st0" x1="376.2" y1="186.2" x2="379" y2="191.5"/>
		</g>
	</g>
</g>
</svg>
