<?xml version="1.0" encoding="utf-8"?>
<!-- Generator: Adobe Illustrator 16.0.0, SVG Export Plug-In . SVG Version: 6.00 Build 0)  -->
<!DOCTYPE svg PUBLIC "-//W3C//DTD SVG 1.1//EN" "http://www.w3.org/Graphics/SVG/1.1/DTD/svg11.dtd">
<svg version="1.1" id="Layer_1" xmlns="http://www.w3.org/2000/svg" xmlns:xlink="http://www.w3.org/1999/xlink" x="0px" y="0px"
	 width="220px" height="130px" viewBox="0 0 220 130" enable-background="new 0 0 220 130" xml:space="preserve">
<g>
	<g>
		<path fill="#FFFFFF" d="M171.658,72.563c-0.303-0.129-0.606-0.303-0.866-0.52l-0.043,0.606h-1.039v-5.628h1.126v4.156
			c0.173,0.217,0.433,0.346,0.692,0.477c0.26,0.129,0.563,0.172,0.866,0.172c0.389,0,0.691-0.086,0.865-0.26
			c0.174-0.172,0.303-0.476,0.303-0.908v-3.637h1.126v3.68c0,0.649-0.173,1.125-0.52,1.516c-0.347,0.346-0.823,0.52-1.429,0.52
			C172.351,72.736,171.961,72.693,171.658,72.563z"/>
		<path fill="#FFFFFF" d="M175.771,67.844h0.952v0.52h1.516l-0.043,0.822h-2.469v-1.342H175.771z M175.771,70.701h0.952v0.52h1.516
			l-0.043,0.822h-2.469v-1.342H175.771z"/>
		<path fill="#FFFFFF" d="M179.363,71.566v-4.545h1.126v4.242c0,0.174,0.043,0.26,0.13,0.347c0.086,0.087,0.173,0.13,0.346,0.13
			h0.477v0.909h-0.996C179.71,72.649,179.363,72.303,179.363,71.566z"/>
		<path fill="#FFFFFF" d="M183.26,72.693c-0.346-0.044-0.605-0.131-0.822-0.217v-0.953c0.26,0.087,0.52,0.174,0.822,0.26
			c0.303,0.087,0.605,0.087,0.865,0.087c0.52,0,0.866-0.044,1.083-0.13c0.216-0.086,0.303-0.26,0.303-0.52
			c0-0.173-0.044-0.303-0.13-0.39s-0.217-0.173-0.346-0.26c-0.131-0.043-0.391-0.13-0.693-0.26l-0.39-0.13
			c-0.563-0.173-0.995-0.39-1.255-0.649c-0.26-0.216-0.434-0.563-0.434-0.995c0-0.52,0.174-0.909,0.563-1.169
			c0.391-0.26,0.953-0.433,1.689-0.433c0.303,0,0.605,0.043,0.908,0.086s0.563,0.087,0.779,0.174v0.951
			c-0.217-0.086-0.477-0.129-0.736-0.216c-0.259-0.087-0.563-0.087-0.778-0.087c-0.433,0-0.779,0.044-0.995,0.131
			c-0.217,0.086-0.348,0.26-0.348,0.52c0,0.129,0.044,0.26,0.131,0.346c0.086,0.086,0.217,0.174,0.389,0.26
			c0.174,0.086,0.391,0.174,0.736,0.26l0.303,0.086c0.606,0.217,1.039,0.434,1.299,0.65c0.26,0.26,0.391,0.605,0.391,1.039
			c0,0.52-0.217,0.908-0.607,1.168c-0.389,0.26-0.951,0.391-1.688,0.391C183.952,72.736,183.605,72.736,183.26,72.693z"/>
		<path fill="#FFFFFF" d="M182.395,65.896c-0.217-0.216-0.347-0.52-0.347-0.866c0-0.39,0.13-0.692,0.347-0.909
			c0.26-0.216,0.563-0.346,1.039-0.346h2.553l-0.043,0.649h-2.381c-0.217,0-0.389,0.043-0.52,0.13
			c-0.129,0.086-0.173,0.26-0.173,0.433c0,0.347,0.216,0.563,0.606,0.563c0.346,0,0.563-0.13,0.563-0.433V64.9h0.692v0.216
			c0,0.13,0.044,0.26,0.13,0.303c0.087,0.043,0.217,0.086,0.346,0.086h0.65v0.65h-0.736c-0.173,0-0.346-0.044-0.477-0.087
			c-0.129-0.044-0.216-0.13-0.303-0.26c-0.086,0.13-0.217,0.216-0.39,0.26s-0.39,0.087-0.563,0.087
			C182.957,66.199,182.654,66.113,182.395,65.896z"/>
		<path fill="#FFFFFF" d="M188.887,72.605l-1.558-3.852h1.082l1.299,3.116c0.606,0.044,1.039-0.13,1.299-0.52
			c0.26-0.347,0.39-0.952,0.39-1.731c0-0.477-0.043-0.822-0.13-1.082s-0.217-0.434-0.433-0.563
			c-0.174-0.087-0.477-0.174-0.822-0.174h-0.391v-0.865h0.52c0.779,0,1.386,0.216,1.732,0.648c0.389,0.434,0.563,1.082,0.563,1.992
			c0,1.039-0.217,1.818-0.693,2.338c-0.476,0.52-1.082,0.779-1.861,0.779C189.494,72.736,189.146,72.693,188.887,72.605z"/>
		<path fill="#FFFFFF" d="M194.256,72.174c-0.434-0.391-0.65-0.953-0.65-1.689v-3.42h1.126v3.464c0,0.476,0.13,0.779,0.347,0.995
			c0.26,0.217,0.605,0.347,1.082,0.347s0.822-0.13,1.082-0.347c0.26-0.216,0.347-0.563,0.347-0.995v-5.152h1.126v5.108
			c0,0.736-0.217,1.342-0.65,1.689c-0.433,0.389-1.082,0.563-1.904,0.563S194.688,72.563,194.256,72.174z"/>
		<path fill="#FFFFFF" d="M200.879,72.649c-0.39-0.087-0.736-0.173-0.996-0.304v-2.9h2.208l0.044,0.866h-1.17v1.343
			c0.304,0.129,0.693,0.172,1.126,0.172s0.735-0.043,0.995-0.172c0.26-0.131,0.434-0.347,0.52-0.606
			c0.131-0.304,0.174-0.692,0.174-1.169c0-0.52-0.043-0.909-0.174-1.213c-0.129-0.303-0.346-0.476-0.605-0.605
			s-0.693-0.173-1.169-0.173c-0.692,0-1.299,0.087-1.861,0.26v-0.866c0.304-0.086,0.606-0.173,0.995-0.217
			c0.391-0.043,0.736-0.086,1.126-0.086c0.952,0,1.688,0.26,2.121,0.736c0.433,0.476,0.649,1.211,0.649,2.207
			c0,0.953-0.217,1.688-0.649,2.164c-0.433,0.477-1.169,0.736-2.121,0.736C201.701,72.736,201.312,72.736,200.879,72.649z"/>
		<path fill="#FFFFFF" d="M206.42,72.043c-0.434-0.477-0.605-1.168-0.605-2.121c0-0.952,0.26-1.688,0.735-2.207
			s1.212-0.779,2.121-0.779c0.606,0,1.126,0.086,1.515,0.303c0.391,0.217,0.693,0.477,0.91,0.822
			c0.173,0.346,0.303,0.736,0.303,1.125v3.42h-1.125v-3.376c0-0.433-0.131-0.779-0.391-1.039s-0.648-0.39-1.212-0.39
			c-0.606,0-1.039,0.174-1.342,0.52c-0.304,0.346-0.433,0.865-0.433,1.559c0,0.692,0.129,1.169,0.346,1.472
			c0.217,0.304,0.563,0.433,1.039,0.433c0.303,0,0.563-0.043,0.736-0.086v0.865c-0.217,0.087-0.52,0.131-0.909,0.131
			C207.372,72.736,206.81,72.52,206.42,72.043z"/>
	</g>
	<g>
		<path fill="#FFFFFF" d="M166.334,128.797c-0.348-0.26-0.52-0.693-0.52-1.299c0-0.563,0.172-0.996,0.563-1.299
			c0.389-0.303,0.908-0.434,1.645-0.434h1.732v-0.346c0-0.39-0.088-0.692-0.304-0.865c-0.216-0.174-0.606-0.26-1.126-0.26
			c-0.648,0-1.255,0.086-1.818,0.26v-0.866c0.304-0.087,0.606-0.173,0.953-0.217c0.346-0.043,0.692-0.087,1.039-0.087
			c0.346,0,0.648,0.044,0.952,0.087h1.861l-0.043,0.866h-0.649c0.086,0.13,0.173,0.303,0.173,0.477
			c0.044,0.172,0.044,0.389,0.044,0.648v3.594h-1.126v-2.468h-1.646c-0.389,0-0.692,0.087-0.865,0.216
			c-0.174,0.131-0.303,0.347-0.303,0.65c0,0.303,0.086,0.52,0.26,0.648c0.173,0.131,0.476,0.174,0.865,0.174
			c0.303,0,0.52-0.043,0.693-0.087v0.866c-0.304,0.086-0.606,0.129-0.996,0.129C167.156,129.229,166.68,129.1,166.334,128.797z"/>
		<path fill="#FFFFFF" d="M174.429,125.594c0-0.304-0.044-0.563-0.087-0.736c-0.043-0.174-0.173-0.303-0.346-0.39
			c-0.174-0.087-0.434-0.13-0.779-0.13c-0.217,0-0.477,0.043-0.736,0.086c-0.26,0.044-0.477,0.131-0.692,0.217v-0.865
			c0.216-0.087,0.476-0.174,0.778-0.217c0.304-0.043,0.607-0.087,0.867-0.087c0.735,0,1.298,0.173,1.645,0.477
			c0.346,0.347,0.52,0.822,0.52,1.558v3.68h-1.126v-3.592H174.429z"/>
		<path fill="#FFFFFF" d="M177.632,129.143c-0.347-0.043-0.606-0.129-0.822-0.217v-0.951c0.26,0.086,0.52,0.172,0.822,0.26
			c0.304,0.086,0.606,0.086,0.866,0.086c0.52,0,0.865-0.043,1.082-0.13s0.303-0.26,0.303-0.52c0-0.173-0.043-0.303-0.129-0.39
			c-0.088-0.086-0.217-0.173-0.348-0.26c-0.129-0.043-0.389-0.13-0.691-0.26l-0.391-0.13c-0.563-0.173-0.995-0.39-1.255-0.649
			c-0.26-0.217-0.433-0.563-0.433-0.995c0-0.52,0.173-0.909,0.563-1.169s0.952-0.434,1.688-0.434c0.304,0,0.607,0.044,0.91,0.087
			c0.303,0.044,0.563,0.087,0.779,0.173v0.953c-0.217-0.087-0.477-0.13-0.736-0.217c-0.26-0.086-0.563-0.086-0.779-0.086
			c-0.433,0-0.779,0.043-0.996,0.129c-0.216,0.087-0.346,0.26-0.346,0.52c0,0.131,0.043,0.26,0.13,0.347s0.216,0.173,0.39,0.26
			c0.173,0.087,0.39,0.173,0.736,0.26l0.303,0.087c0.605,0.217,1.039,0.433,1.299,0.648c0.26,0.26,0.389,0.606,0.389,1.039
			c0,0.52-0.216,0.91-0.605,1.17s-0.953,0.389-1.688,0.389C178.324,129.229,177.979,129.186,177.632,129.143z"/>
		<path fill="#FFFFFF" d="M182.178,127.108c0-0.692,0.26-1.126,0.822-1.299l-1.125-0.26v-1.169c0.303-0.26,0.691-0.52,1.168-0.692
			s0.953-0.26,1.516-0.26c0.865,0,1.472,0.173,1.904,0.52c0.434,0.347,0.649,0.909,0.649,1.688v3.463h-1.126v-3.506
			c0-0.477-0.129-0.823-0.346-0.996c-0.217-0.174-0.605-0.303-1.125-0.303c-0.347,0-0.65,0.043-0.953,0.129
			c-0.303,0.087-0.52,0.217-0.692,0.391v0.172l1.169,0.304v0.735c-0.26,0.087-0.477,0.174-0.563,0.347
			c-0.131,0.173-0.174,0.39-0.174,0.692v2.035h-1.125V127.108z"/>
		<path fill="#FFFFFF" d="M184.688,121.135h0.952v0.735h2.684l-0.043,0.779h-3.593V121.135L184.688,121.135z"/>
		<path fill="#FFFFFF" d="M188.887,128.537c-0.432-0.477-0.605-1.169-0.605-2.121c0-0.953,0.26-1.688,0.736-2.208
			s1.212-0.779,2.121-0.779c0.605,0,1.125,0.087,1.516,0.303c0.389,0.217,0.691,0.477,0.908,0.823
			c0.174,0.346,0.303,0.735,0.303,1.125v3.42h-1.125v-3.377c0-0.433-0.13-0.779-0.39-1.039s-0.649-0.389-1.212-0.389
			c-0.606,0-1.039,0.173-1.342,0.52c-0.303,0.346-0.434,0.865-0.434,1.559c0,0.691,0.131,1.168,0.347,1.471
			c0.216,0.304,0.563,0.434,1.039,0.434c0.303,0,0.563-0.043,0.735-0.087v0.866c-0.216,0.086-0.52,0.129-0.908,0.129
			C189.84,129.229,189.277,129.014,188.887,128.537z"/>
		<path fill="#FFFFFF" d="M195.208,127.108c0-0.692,0.26-1.126,0.822-1.299l-1.126-0.26v-1.169c0.304-0.26,0.693-0.52,1.17-0.692
			c0.476-0.173,0.951-0.26,1.515-0.26c0.866,0,1.472,0.173,1.905,0.52c0.432,0.347,0.648,0.909,0.648,1.688v3.463h-1.082v-3.506
			c0-0.477-0.13-0.823-0.346-0.996c-0.217-0.174-0.606-0.303-1.126-0.303c-0.347,0-0.649,0.043-0.952,0.129
			c-0.303,0.087-0.52,0.217-0.693,0.391v0.172l1.169,0.304v0.735c-0.259,0.087-0.476,0.174-0.563,0.347
			c-0.13,0.173-0.173,0.39-0.173,0.692v2.035h-1.126v-1.991H195.208z"/>
		<path fill="#FFFFFF" d="M202.264,129.143c-0.346-0.043-0.605-0.129-0.822-0.217v-0.951c0.26,0.086,0.52,0.172,0.822,0.26
			c0.303,0.086,0.606,0.086,0.866,0.086c0.52,0,0.866-0.043,1.082-0.13c0.217-0.087,0.304-0.26,0.304-0.52
			c0-0.173-0.044-0.303-0.131-0.39c-0.086-0.086-0.216-0.173-0.346-0.26c-0.13-0.043-0.39-0.13-0.693-0.26l-0.389-0.13
			c-0.563-0.173-0.996-0.39-1.256-0.649c-0.26-0.217-0.433-0.563-0.433-0.995c0-0.52,0.173-0.909,0.563-1.169
			s0.952-0.434,1.688-0.434c0.303,0,0.605,0.044,0.909,0.087c0.303,0.044,0.563,0.087,0.779,0.173v0.953
			c-0.217-0.087-0.477-0.13-0.736-0.217c-0.26-0.086-0.563-0.086-0.779-0.086c-0.433,0-0.778,0.043-0.995,0.129
			c-0.217,0.087-0.347,0.26-0.347,0.52c0,0.131,0.044,0.26,0.13,0.347s0.217,0.173,0.39,0.26s0.39,0.173,0.735,0.26l0.304,0.087
			c0.606,0.217,1.039,0.433,1.299,0.648c0.26,0.26,0.39,0.606,0.39,1.039c0,0.52-0.217,0.91-0.606,1.17s-0.952,0.389-1.688,0.389
			C202.957,129.229,202.61,129.186,202.264,129.143z"/>
		<path fill="#FFFFFF" d="M204.256,120.961h1.125v1.688h-1.125V120.961z"/>
		<path fill="#FFFFFF" d="M207.589,129.1c-0.39-0.086-0.735-0.174-0.995-0.303v-2.9h2.207l0.043,0.865h-1.168v1.342
			c0.303,0.131,0.692,0.174,1.125,0.174c0.434,0,0.736-0.043,0.996-0.174c0.26-0.129,0.433-0.346,0.52-0.605
			c0.129-0.303,0.173-0.693,0.173-1.169c0-0.52-0.044-0.909-0.173-1.212c-0.131-0.303-0.347-0.477-0.606-0.606
			s-0.692-0.173-1.169-0.173c-0.692,0-1.299,0.086-1.861,0.26v-0.866c0.303-0.087,0.605-0.173,0.996-0.216
			c0.389-0.044,0.735-0.087,1.125-0.087c0.953,0,1.688,0.26,2.121,0.735c0.434,0.477,0.649,1.213,0.649,2.208
			c0,0.952-0.216,1.688-0.649,2.165c-0.433,0.477-1.168,0.736-2.121,0.736C208.368,129.229,207.979,129.186,207.589,129.1z"/>
		<path fill="#FFFFFF" d="M213.174,128.71c-0.348-0.347-0.52-0.866-0.52-1.515v-3.68h1.125v3.636c0,0.433,0.086,0.736,0.26,0.909
			c0.173,0.174,0.477,0.26,0.865,0.26c0.304,0,0.606-0.043,0.866-0.173s0.52-0.304,0.692-0.477v-4.155h1.126v5.627h-1.039
			l-0.044-0.605c-0.563,0.477-1.211,0.736-1.99,0.736C213.996,129.229,213.52,129.057,213.174,128.71z"/>
	</g>
	<g>
		<g>
			<g>
				<path fill="#FFFFFF" d="M183.909,100.788v0.563c0,1.083,0.303,2.165,0.822,3.073c0.52,0.91,1.299,1.688,2.251,2.252l0.477,0.26
					l1.991-3.464c0.173,0.044,0.39,0.087,0.606,0.087s0.389-0.043,0.605-0.087l1.992,3.464l0.476-0.26
					c0.952-0.52,1.731-1.299,2.251-2.252c0.52-0.908,0.822-1.99,0.822-3.073v-0.563h-3.982c-0.086-0.39-0.303-0.736-0.605-1.039
					l1.99-3.464l-0.476-0.26c-1.861-1.082-4.286-1.082-6.147,0l-0.477,0.26l1.992,3.464c-0.303,0.26-0.477,0.649-0.606,1.039
					H183.909z M190.057,102.434c-0.606,0-1.126-0.52-1.126-1.126s0.52-1.126,1.126-1.126c0.605,0,1.125,0.52,1.125,1.126
					S190.662,102.434,190.057,102.434z M192.221,101.87h2.857c-0.087,0.692-0.303,1.342-0.649,1.948
					c-0.347,0.605-0.823,1.125-1.386,1.516l-1.428-2.469C191.918,102.649,192.135,102.303,192.221,101.87z M188.064,96.719
					c1.256-0.563,2.771-0.563,4.026,0l-1.429,2.467c-0.173-0.043-0.389-0.086-0.605-0.086s-0.391,0.043-0.606,0.086L188.064,96.719z
					 M188.498,102.909l-1.429,2.468c-0.563-0.391-1.039-0.953-1.386-1.516c-0.346-0.605-0.563-1.256-0.648-1.947h2.856
					C188.021,102.303,188.195,102.649,188.498,102.909z"/>
				<path fill="#FFFFFF" d="M204.212,106.069c-0.216-0.52-0.735-0.866-1.298-0.866c-0.563,0-1.083,0.347-1.299,0.866l-1.256,2.987
					c-0.13,0.346-0.217,0.735-0.217,1.082v0.086c0,1.559,1.256,2.814,2.814,2.814s2.813-1.256,2.813-2.814v-0.086
					c0-0.39-0.087-0.736-0.216-1.082L204.212,106.069z M204.602,110.269c0,0.909-0.736,1.688-1.688,1.688
					c-0.953,0-1.689-0.736-1.689-1.688v-0.087c0-0.217,0.044-0.433,0.131-0.649l1.255-2.987c0.044-0.086,0.13-0.173,0.26-0.173
					s0.216,0.087,0.26,0.173l1.255,2.987c0.087,0.217,0.131,0.433,0.131,0.649v0.087H204.602z"/>
				<path fill="#FFFFFF" d="M184.645,110.571c-0.216-0.52-0.735-0.866-1.299-0.866c-0.563,0-1.082,0.347-1.298,0.866l-1.256,2.987
					c-0.13,0.346-0.216,0.736-0.216,1.082v0.087c0,1.558,1.255,2.813,2.813,2.813s2.813-1.256,2.813-2.813v-0.087
					c0-0.39-0.086-0.736-0.217-1.082L184.645,110.571z M185.035,114.728c0,0.909-0.736,1.688-1.689,1.688
					c-0.951,0-1.688-0.736-1.688-1.688v-0.087c0-0.217,0.043-0.433,0.13-0.649l1.255-2.987c0.043-0.086,0.131-0.173,0.26-0.173
					c0.131,0,0.217,0.087,0.26,0.173l1.256,2.987c0.086,0.217,0.13,0.433,0.13,0.649v0.087H185.035z"/>
				<path fill="#FFFFFF" d="M178.498,104.986c-0.217-0.519-0.736-0.865-1.299-0.865s-1.082,0.347-1.299,0.865l-1.256,2.988
					c-0.129,0.346-0.216,0.735-0.216,1.082v0.086c0,1.559,1.255,2.814,2.813,2.814s2.814-1.256,2.814-2.814v-0.086
					c0-0.391-0.087-0.736-0.217-1.082L178.498,104.986z M178.887,109.143c0,0.909-0.735,1.688-1.688,1.688
					c-0.953,0-1.688-0.735-1.688-1.688v-0.086c0-0.217,0.044-0.434,0.13-0.65l1.256-2.986c0.043-0.086,0.129-0.174,0.26-0.174
					c0.129,0,0.216,0.088,0.26,0.174l1.255,2.986c0.087,0.217,0.13,0.434,0.13,0.65v0.086H178.887z"/>
				<path fill="#FFFFFF" d="M196.377,110.571c-0.217-0.52-0.736-0.866-1.299-0.866s-1.082,0.347-1.299,0.866l-1.256,2.987
					c-0.129,0.346-0.217,0.736-0.217,1.082v0.087c0,1.558,1.256,2.813,2.814,2.813s2.814-1.256,2.814-2.813v-0.087
					c0-0.39-0.087-0.736-0.217-1.082L196.377,110.571z M196.766,114.728c0,0.909-0.735,1.688-1.688,1.688
					c-0.953,0-1.688-0.736-1.688-1.688v-0.087c0-0.217,0.044-0.433,0.13-0.649l1.256-2.987c0.043-0.086,0.129-0.173,0.26-0.173
					c0.129,0,0.216,0.087,0.26,0.173l1.255,2.987c0.087,0.217,0.13,0.433,0.13,0.649v0.087H196.766z"/>
				<path fill="#FFFFFF" d="M202.914,92.952c-0.391,0-0.779,0.044-1.126,0.173c-0.217-4.111-3.637-7.402-7.792-7.402
					c-1.43,0-2.814,0.39-3.982,1.082c-1.083-2.337-3.464-3.896-6.062-3.896c-3.68,0-6.71,2.987-6.71,6.71
					c0,0.26,0,0.477,0.043,0.736c-2.597,0.605-4.502,2.943-4.502,5.714c0,3.247,2.641,5.845,5.845,5.845h3.116
					c0.304,4.371,3.939,7.835,8.355,7.835c2.207,0,4.285-0.866,5.844-2.381l-0.779-0.779c-1.385,1.342-3.16,2.077-5.064,2.077
					c-3.982,0-7.273-3.246-7.273-7.271c0-4.026,3.248-7.273,7.273-7.273c3.982,0,7.272,3.247,7.272,7.273
					c0,1.515-0.433,2.943-1.298,4.155l0.908,0.649c0.866-1.256,1.386-2.728,1.473-4.242h4.502c2.467,0,4.459-1.992,4.459-4.459
					C207.372,94.943,205.381,92.952,202.914,92.952z M202.914,100.788h-4.503c-0.303-4.372-3.939-7.836-8.354-7.836
					c-4.416,0-8.053,3.464-8.355,7.836h-3.117c-2.598,0-4.762-2.122-4.762-4.763c0-2.597,2.121-4.762,4.762-4.762
					c1.473,0,2.857,0.65,3.767,1.818l0.866-0.692c-1.126-1.429-2.814-2.251-4.633-2.251c-0.086,0-0.173,0-0.26,0
					c0-0.174-0.043-0.39-0.043-0.563c0-3.074,2.511-5.585,5.584-5.585c2.252,0,4.286,1.386,5.152,3.42
					c-0.822,0.649-1.516,1.515-2.035,2.468l0.996,0.52c1.168-2.208,3.42-3.594,5.931-3.594c3.68,0,6.71,2.987,6.71,6.711h0.086
					c-1.385,0.779-2.294,2.207-2.294,3.896h1.126c0-1.861,1.515-3.333,3.333-3.333s3.333,1.516,3.333,3.333
					C206.203,99.229,204.775,100.788,202.914,100.788z"/>
			</g>
		</g>
	</g>
	<g>
		<path fill="#FFFFFF" d="M196.334,32.693l-6.061-6.061v-8.831c0-0.822-0.693-1.515-1.516-1.515s-1.516,0.693-1.516,1.515v8.831
			l-6.277,6.277c-0.605,0.606-0.605,1.559,0,2.121c0.304,0.303,0.693,0.433,1.083,0.433s0.778-0.13,1.082-0.433l5.628-5.627
			l5.454,5.455c0.606,0.606,1.559,0.606,2.122,0C196.896,34.208,196.896,33.255,196.334,32.693z"/>
		<path fill="#546071" stroke="#FFFFFF" stroke-width="2" stroke-miterlimit="10" d="M166.03,44.728
			c1.039-11.732,9.48-17.533,15.021-17.229c3.593,0.216,0.649,10.13,2.034,16.104c3.204,13.939-4.025,13.637-9.696,13.81
			C165.467,57.671,165.295,52.563,166.03,44.728z"/>
		<path fill="#546071" stroke="#FFFFFF" stroke-width="2" stroke-miterlimit="10" d="M210.576,44.728
			c-1.039-11.732-9.48-17.533-15.021-17.229c-3.594,0.216-0.65,10.13-2.035,16.104c-3.203,13.939,4.025,13.637,9.697,13.81
			C211.096,57.671,211.269,52.563,210.576,44.728z"/>
	</g>
	<path fill="none" stroke="#FFFFFF" stroke-width="2" stroke-miterlimit="10" d="M94.645,96.892"/>
	<polygon fill="none" stroke="#FFFFFF" stroke-width="2" stroke-miterlimit="10" points="61.269,36.199 23.693,36.199 4.905,68.754 
		23.693,101.308 61.269,101.308 80.056,68.754 	"/>
	<line fill="none" stroke="#FFFFFF" stroke-width="2" stroke-miterlimit="10" x1="80.056" y1="68.45" x2="153.26" y2="68.45"/>
	<g>
		<path fill="#FFFFFF" d="M23.563,71.438c-0.433-0.347-0.649-0.909-0.649-1.646c0-0.692,0.216-1.255,0.692-1.602
			c0.476-0.39,1.169-0.563,2.078-0.563h2.165v-0.433c0-0.52-0.13-0.866-0.39-1.082c-0.26-0.217-0.736-0.304-1.429-0.304
			c-0.822,0-1.602,0.13-2.294,0.347v-1.083c0.346-0.13,0.779-0.216,1.212-0.303c0.476-0.086,0.909-0.13,1.342-0.13
			s0.822,0.043,1.212,0.13h2.381l-0.087,1.125h-0.866c0.13,0.173,0.216,0.389,0.26,0.606s0.086,0.52,0.086,0.822v4.546h-1.428
			v-3.116h-2.078c-0.52,0-0.866,0.086-1.125,0.26c-0.26,0.172-0.346,0.432-0.346,0.822c0,0.389,0.13,0.648,0.346,0.779
			c0.216,0.173,0.606,0.216,1.125,0.216c0.346,0,0.649-0.043,0.909-0.087v1.082C26.333,71.914,25.9,72,25.424,72
			C24.602,71.957,23.996,71.783,23.563,71.438z"/>
		<path fill="#FFFFFF" d="M33.779,67.368c0-0.39-0.043-0.692-0.13-0.909s-0.216-0.39-0.433-0.52
			c-0.216-0.13-0.563-0.173-0.952-0.173c-0.26,0-0.606,0.043-0.909,0.087c-0.346,0.043-0.606,0.13-0.866,0.26V65.03
			c0.26-0.13,0.606-0.216,0.952-0.303c0.39-0.087,0.736-0.13,1.083-0.13c0.952,0,1.645,0.216,2.078,0.606
			c0.433,0.39,0.649,1.082,0.649,1.948v4.632h-1.429v-4.415H33.779z"/>
		<path fill="#FFFFFF" d="M37.849,71.87c-0.433-0.044-0.779-0.13-1.039-0.26v-1.212c0.303,0.13,0.692,0.217,1.082,0.303
			c0.39,0.087,0.736,0.087,1.083,0.087c0.649,0,1.082-0.044,1.385-0.173c0.26-0.131,0.39-0.347,0.39-0.693
			c0-0.217-0.043-0.39-0.173-0.52c-0.086-0.129-0.26-0.217-0.433-0.303c-0.173-0.086-0.477-0.174-0.866-0.303l-0.519-0.174
			c-0.736-0.26-1.256-0.52-1.602-0.822s-0.52-0.692-0.52-1.256c0-0.649,0.26-1.125,0.736-1.471c0.477-0.346,1.212-0.52,2.122-0.52
			c0.39,0,0.779,0.043,1.168,0.086c0.39,0.043,0.736,0.13,0.996,0.217v1.168c-0.26-0.086-0.606-0.172-0.953-0.259
			c-0.346-0.043-0.692-0.086-0.996-0.086c-0.563,0-0.952,0.043-1.255,0.173s-0.433,0.346-0.433,0.649
			c0,0.174,0.043,0.347,0.173,0.477s0.26,0.217,0.476,0.303c0.217,0.087,0.52,0.217,0.953,0.347l0.39,0.13
			c0.736,0.26,1.298,0.52,1.645,0.822c0.346,0.303,0.52,0.736,0.52,1.342c0,0.693-0.26,1.169-0.779,1.516
			c-0.52,0.346-1.212,0.477-2.122,0.477C38.714,71.957,38.281,71.914,37.849,71.87z"/>
		<path fill="#FFFFFF" d="M43.52,70.441v-5.714h1.429v5.368c0,0.216,0.043,0.346,0.13,0.433c0.086,0.087,0.26,0.13,0.433,0.13h0.606
			v1.125h-1.212C43.996,71.826,43.52,71.395,43.52,70.441z"/>
		<path fill="#FFFFFF" d="M47.502,67.324c0-0.865,0.26-1.558,0.779-2.034s1.342-0.692,2.424-0.692c1.083,0,1.905,0.216,2.424,0.692
			s0.779,1.169,0.779,2.034v4.502H52.48v-4.631c0-0.953-0.606-1.429-1.775-1.429c-0.606,0-1.039,0.13-1.342,0.347
			c-0.303,0.216-0.433,0.605-0.433,1.082v1.471c0.39-0.303,0.866-0.476,1.385-0.476h0.866l0.043,1.126h-0.952
			c-0.52,0-0.996,0.129-1.342,0.433v2.034h-1.429V67.324z"/>
		<path fill="#FFFFFF" d="M58.065,71.74c-0.39-0.174-0.779-0.39-1.125-0.692l-0.086,0.778h-1.299v-7.099h1.429v5.237
			c0.259,0.26,0.519,0.477,0.866,0.606c0.346,0.13,0.692,0.217,1.082,0.217c0.52,0,0.866-0.13,1.125-0.347s0.347-0.605,0.347-1.125
			v-4.589h1.428v4.632c0,0.822-0.216,1.429-0.649,1.904c-0.433,0.434-1.039,0.693-1.775,0.693
			C58.931,71.957,58.455,71.87,58.065,71.74z"/>
		<path fill="#FFFFFF" d="M56.42,62.649h4.242v-1.083h1.169v2.078h-5.498L56.42,62.649z"/>
	</g>
	<g>
		<path fill="#FFFFFF" d="M85.121,63.385c-0.26-0.303-0.433-0.779-0.433-1.429c0-0.649,0.086-1.125,0.303-1.472
			c0.217-0.346,0.52-0.52,0.909-0.52c0.173,0,0.346,0.043,0.433,0.086c0.13,0.043,0.216,0.13,0.303,0.26
			c0.087-0.086,0.217-0.173,0.39-0.26c0.173-0.086,0.303-0.086,0.476-0.086c0.303,0,0.52,0.086,0.649,0.26s0.217,0.433,0.217,0.736
			v2.771h-0.736v-2.597c0-0.173-0.043-0.303-0.086-0.39s-0.13-0.13-0.303-0.13c-0.086,0-0.173,0.043-0.259,0.086
			c-0.087,0.043-0.13,0.13-0.173,0.217h-0.433c-0.043-0.13-0.13-0.217-0.173-0.26c-0.043-0.043-0.13-0.087-0.26-0.087
			c-0.217,0-0.39,0.13-0.476,0.347c-0.087,0.216-0.13,0.563-0.13,1.039c0,0.433,0.086,0.779,0.216,0.996
			c0.173,0.217,0.39,0.303,0.692,0.303c0.217,0,0.39,0,0.477-0.043v0.563c-0.173,0.043-0.347,0.086-0.606,0.086
			C85.771,63.861,85.424,63.731,85.121,63.385z"/>
		<path fill="#FFFFFF" d="M89.796,63.818c-0.216-0.043-0.433-0.087-0.563-0.13v-0.606c0.173,0.087,0.346,0.13,0.563,0.173
			c0.217,0.043,0.39,0.043,0.563,0.043c0.346,0,0.563-0.043,0.736-0.087c0.13-0.043,0.216-0.173,0.216-0.346
			c0-0.13-0.043-0.216-0.086-0.26c-0.043-0.086-0.13-0.13-0.216-0.173c-0.087-0.043-0.26-0.087-0.433-0.173l-0.26-0.086
			c-0.39-0.13-0.649-0.26-0.822-0.433c-0.173-0.173-0.26-0.39-0.26-0.649c0-0.346,0.13-0.606,0.39-0.779
			c0.26-0.173,0.606-0.26,1.125-0.26c0.216,0,0.39,0,0.606,0.043s0.39,0.086,0.52,0.13v0.606c-0.13-0.043-0.303-0.086-0.52-0.13
			c-0.173-0.043-0.346-0.043-0.52-0.043c-0.303,0-0.52,0.043-0.649,0.086s-0.216,0.173-0.216,0.346c0,0.087,0.043,0.173,0.086,0.26
			c0.043,0.043,0.13,0.13,0.26,0.173c0.13,0.043,0.26,0.086,0.476,0.173l0.217,0.043c0.39,0.13,0.692,0.26,0.866,0.433
			c0.173,0.173,0.26,0.39,0.26,0.692c0,0.346-0.13,0.606-0.39,0.779s-0.649,0.26-1.125,0.26
			C90.273,63.861,90.013,63.861,89.796,63.818z"/>
		<path fill="#FFFFFF" d="M92.61,60.615h0.649v0.346h0.996l-0.043,0.563h-1.645v-0.909H92.61z M92.61,62.476h0.649v0.347h0.996
			l-0.043,0.563h-1.645v-0.909H92.61z"/>
		<path fill="#FFFFFF" d="M95.035,62.433c0-0.477,0.173-0.736,0.563-0.866l-0.736-0.173v-0.779c0.217-0.173,0.477-0.346,0.779-0.433
			c0.303-0.086,0.649-0.173,0.996-0.173c0.563,0,0.996,0.13,1.255,0.346s0.433,0.606,0.433,1.125v2.294h-0.736v-2.337
			c0-0.303-0.087-0.52-0.217-0.649s-0.389-0.173-0.736-0.173c-0.216,0-0.433,0.043-0.649,0.086c-0.216,0.043-0.346,0.13-0.476,0.26
			v0.13l0.779,0.217v0.476c-0.173,0.043-0.303,0.13-0.39,0.216s-0.13,0.26-0.13,0.433v1.342h-0.736V62.433z"/>
		<path fill="#FFFFFF" d="M96.896,65.42c-0.13-0.13-0.216-0.26-0.216-0.433v-0.346h-0.39l0.043-0.476h0.866v0.692
			c0,0.087,0.043,0.13,0.086,0.173s0.13,0.043,0.216,0.043c0.087,0,0.173,0,0.217-0.043c0.043-0.043,0.086-0.086,0.086-0.173v-0.692
			h0.563V64.9c0,0.173-0.087,0.346-0.217,0.476s-0.346,0.173-0.606,0.173C97.242,65.593,97.026,65.55,96.896,65.42z"/>
		<path fill="#FFFFFF" d="M99.45,63.602c-0.216-0.173-0.346-0.476-0.346-0.866c0-0.346,0.13-0.649,0.39-0.866
			s0.606-0.303,1.082-0.303h1.125v-0.216c0-0.173-0.043-0.346-0.086-0.433c-0.043-0.087-0.173-0.173-0.303-0.217
			c-0.13-0.043-0.346-0.086-0.563-0.086c-0.433,0-0.823,0.043-1.212,0.173v-0.563c0.173-0.043,0.39-0.13,0.649-0.13
			s0.476-0.043,0.693-0.043c0.563,0,0.952,0.13,1.212,0.347c0.26,0.216,0.39,0.563,0.39,1.082v2.381h-0.822v-1.645h-1.083
			c-0.26,0-0.476,0.043-0.606,0.13c-0.13,0.087-0.173,0.217-0.173,0.433s0.043,0.346,0.173,0.433c0.13,0.087,0.303,0.13,0.563,0.13
			c0.173,0,0.347,0,0.477-0.043v0.563c-0.217,0.043-0.433,0.087-0.693,0.087C99.97,63.861,99.667,63.775,99.45,63.602z"/>
		<path fill="#FFFFFF" d="M103.303,63.082v-2.987h0.736v2.814c0,0.086,0.043,0.173,0.086,0.216s0.13,0.086,0.216,0.086h0.26v0.606
			h-0.606C103.52,63.775,103.303,63.559,103.303,63.082z M104.948,63.082v-2.987h0.736v2.814c0,0.086,0.043,0.173,0.086,0.216
			s0.13,0.086,0.216,0.086h0.303v0.606h-0.606C105.208,63.775,104.948,63.559,104.948,63.082z"/>
		<path fill="#FFFFFF" d="M107.026,61.438c0-0.477,0.13-0.823,0.433-1.039c0.303-0.217,0.692-0.39,1.255-0.39
			c0.563,0,0.996,0.13,1.255,0.39s0.39,0.606,0.39,1.039v2.337h-0.736v-2.424c0-0.52-0.303-0.736-0.909-0.736
			c-0.303,0-0.563,0.043-0.693,0.173c-0.173,0.13-0.216,0.303-0.216,0.563v0.779c0.216-0.173,0.433-0.26,0.736-0.26h0.433
			l0.043,0.606h-0.476c-0.26,0-0.52,0.087-0.692,0.217v1.082h-0.736v-2.337H107.026z"/>
		<path fill="#FFFFFF" d="M111.484,63.602c-0.216-0.173-0.346-0.476-0.346-0.866c0-0.346,0.13-0.649,0.39-0.866
			s0.606-0.303,1.082-0.303h1.126v-0.216c0-0.173-0.043-0.346-0.087-0.433c-0.044-0.087-0.173-0.173-0.304-0.217
			c-0.129-0.043-0.346-0.086-0.563-0.086c-0.433,0-0.822,0.043-1.212,0.173v-0.563c0.173-0.043,0.39-0.13,0.649-0.13
			s0.477-0.043,0.693-0.043c0.563,0,0.951,0.13,1.211,0.347c0.26,0.216,0.391,0.563,0.391,1.082v2.381h-0.736v-1.645h-1.082
			c-0.26,0-0.477,0.043-0.606,0.13c-0.13,0.087-0.173,0.217-0.173,0.433s0.043,0.346,0.173,0.433c0.13,0.087,0.304,0.13,0.563,0.13
			c0.172,0,0.346,0,0.476-0.043v0.563c-0.216,0.043-0.433,0.087-0.692,0.087C112.004,63.861,111.701,63.775,111.484,63.602z"/>
		<path fill="#FFFFFF" d="M115.338,63.082v-2.987h0.736v2.814c0,0.086,0.043,0.173,0.086,0.216s0.13,0.086,0.217,0.086h0.303v0.606
			h-0.649C115.555,63.775,115.338,63.559,115.338,63.082z"/>
		<path fill="#FFFFFF" d="M117.762,63.515c-0.26-0.216-0.39-0.563-0.39-0.996v-0.26c0-0.13,0.044-0.303,0.13-0.433
			c0.087-0.13,0.217-0.303,0.347-0.519c0.13-0.13,0.173-0.26,0.216-0.303c0.044-0.086,0.087-0.13,0.087-0.216
			c0-0.087-0.043-0.13-0.13-0.13c-0.086,0-0.173,0.043-0.217,0.086v0.26h-0.52v-0.909h0.52v0.173
			c0.087-0.043,0.131-0.087,0.217-0.13c0.087-0.043,0.174-0.043,0.303-0.043c0.174,0,0.304,0.043,0.391,0.13
			c0.086,0.086,0.129,0.216,0.129,0.39c0,0.13-0.043,0.26-0.086,0.39s-0.174,0.26-0.303,0.433c-0.131,0.173-0.217,0.303-0.26,0.433
			c-0.044,0.13-0.087,0.216-0.087,0.346v0.303c0,0.26,0.087,0.433,0.216,0.563c0.131,0.13,0.347,0.173,0.606,0.173
			c0.563,0,0.866-0.26,0.866-0.736v-0.433c0-0.216-0.043-0.346-0.131-0.433c-0.086-0.087-0.216-0.13-0.389-0.13h-0.174l0.043-0.563
			h0.131c0.173,0,0.303-0.043,0.389-0.13c0.088-0.086,0.131-0.26,0.131-0.433v-0.347h0.735v0.347c0,0.216-0.043,0.433-0.087,0.563
			c-0.043,0.13-0.216,0.26-0.389,0.303c0.173,0.086,0.303,0.173,0.389,0.346c0.087,0.13,0.087,0.303,0.087,0.563v0.39
			c0,0.433-0.13,0.779-0.433,1.039s-0.693,0.39-1.169,0.39C118.455,63.861,118.021,63.731,117.762,63.515z"/>
		<path fill="#FFFFFF" d="M117.719,58.97h2.207v-0.563h0.606v1.083h-2.856L117.719,58.97z"/>
		<path fill="#FFFFFF" d="M121.744,63.602c-0.303-0.173-0.476-0.476-0.476-0.866c0-0.173,0.043-0.346,0.13-0.52
			c0.086-0.173,0.217-0.26,0.39-0.346c-0.173-0.043-0.26-0.13-0.347-0.303c-0.086-0.129-0.13-0.303-0.13-0.476
			c0-0.346,0.087-0.606,0.304-0.779c0.216-0.173,0.476-0.26,0.865-0.26c0.217,0,0.434,0.043,0.605,0.087v0.563
			c-0.129-0.043-0.303-0.043-0.476-0.043c-0.39,0-0.563,0.173-0.563,0.476c0,0.346,0.216,0.476,0.649,0.476h0.389l0.044,0.563
			h-0.433c-0.434,0-0.649,0.173-0.649,0.563c0,0.173,0.087,0.346,0.216,0.433c0.174,0.086,0.391,0.13,0.736,0.13
			s0.563-0.087,0.736-0.217c0.173-0.13,0.26-0.346,0.26-0.606v-2.381h0.735v2.294c0,0.52-0.13,0.866-0.433,1.125
			c-0.26,0.26-0.693,0.346-1.256,0.346C122.438,63.861,122.048,63.775,121.744,63.602z"/>
		<path fill="#FFFFFF" d="M126.81,63.731c-0.216-0.086-0.39-0.216-0.563-0.346l-0.043,0.39h-0.692v-3.723h0.735v2.728
			c0.131,0.13,0.304,0.26,0.477,0.303c0.174,0.043,0.347,0.13,0.563,0.13c0.26,0,0.477-0.043,0.563-0.173
			c0.13-0.13,0.173-0.303,0.173-0.606v-2.424h0.736v2.424c0,0.433-0.13,0.779-0.347,0.996c-0.216,0.216-0.52,0.346-0.952,0.346
			C127.285,63.861,127.025,63.818,126.81,63.731z"/>
		<path fill="#FFFFFF" d="M130.273,63.775c-0.26-0.043-0.477-0.13-0.693-0.216v-1.905h1.472l0.044,0.563h-0.779v0.909
			c0.216,0.086,0.476,0.13,0.735,0.13s0.477-0.043,0.649-0.13c0.174-0.086,0.26-0.216,0.347-0.433
			c0.087-0.173,0.13-0.433,0.13-0.779s-0.043-0.606-0.13-0.823c-0.087-0.173-0.217-0.346-0.39-0.39
			c-0.174-0.086-0.434-0.13-0.779-0.13c-0.434,0-0.865,0.043-1.213,0.173v-0.563c0.174-0.043,0.434-0.13,0.65-0.13
			c0.216,0,0.52-0.043,0.735-0.043c0.649,0,1.126,0.173,1.386,0.476c0.303,0.303,0.433,0.823,0.433,1.472
			c0,0.649-0.13,1.125-0.433,1.429s-0.779,0.476-1.386,0.476C130.792,63.861,130.532,63.861,130.273,63.775z"/>
		<path fill="#FFFFFF" d="M134.212,63.775c-0.26-0.043-0.476-0.13-0.692-0.216v-1.905h1.472l0.044,0.563h-0.779v0.909
			c0.216,0.086,0.476,0.13,0.735,0.13s0.477-0.043,0.649-0.13c0.174-0.086,0.26-0.216,0.346-0.433
			c0.088-0.173,0.131-0.433,0.131-0.779s-0.043-0.606-0.131-0.823c-0.086-0.173-0.216-0.346-0.389-0.39
			c-0.174-0.086-0.434-0.13-0.779-0.13c-0.434,0-0.866,0.043-1.213,0.173v-0.563c0.174-0.043,0.434-0.13,0.65-0.13
			c0.216,0,0.52-0.043,0.735-0.043c0.649,0,1.126,0.173,1.386,0.476c0.303,0.303,0.433,0.823,0.433,1.472
			c0,0.649-0.13,1.125-0.433,1.429s-0.779,0.476-1.386,0.476C134.731,63.861,134.472,63.861,134.212,63.775z"/>
		<path fill="#FFFFFF" d="M137.632,62.433c0-0.477,0.173-0.736,0.563-0.866l-0.736-0.173v-0.779
			c0.217-0.173,0.477-0.346,0.779-0.433c0.303-0.086,0.648-0.173,0.996-0.173c0.563,0,0.995,0.13,1.255,0.346
			s0.433,0.606,0.433,1.125v2.294h-0.736v-2.337c0-0.303-0.086-0.52-0.216-0.649s-0.39-0.173-0.735-0.173
			c-0.217,0-0.434,0.043-0.65,0.086c-0.216,0.043-0.346,0.13-0.476,0.26v0.13l0.778,0.217v0.476
			c-0.172,0.043-0.303,0.13-0.389,0.216c-0.087,0.086-0.13,0.26-0.13,0.433v1.342h-0.736V62.433z"/>
		<path fill="#FFFFFF" d="M141.918,63.082v-2.381c0-0.476,0.173-0.866,0.52-1.082h-1.082v-0.606h1.99v0.563
			c-0.26,0.086-0.432,0.26-0.52,0.433c-0.086,0.216-0.172,0.476-0.172,0.779v2.078c0,0.13,0,0.216,0.043,0.26
			s0.129,0.043,0.26,0.043h0.303v0.606h-0.649C142.135,63.775,141.918,63.559,141.918,63.082z"/>
		<path fill="#FFFFFF" d="M144.212,63.515c-0.26-0.216-0.39-0.563-0.39-0.996v-0.26c0-0.13,0.043-0.303,0.13-0.433
			s0.217-0.303,0.347-0.519c0.13-0.13,0.173-0.26,0.217-0.303c0.043-0.086,0.086-0.13,0.086-0.216c0-0.087-0.043-0.13-0.13-0.13
			s-0.173,0.043-0.216,0.086v0.26h-0.52v-0.909h0.52v0.173c0.086-0.043,0.129-0.087,0.216-0.13c0.087-0.043,0.173-0.043,0.304-0.043
			c0.173,0,0.303,0.043,0.389,0.13c0.087,0.086,0.131,0.216,0.131,0.39c0,0.13-0.044,0.26-0.087,0.39
			c-0.044,0.13-0.173,0.26-0.304,0.433c-0.129,0.173-0.216,0.303-0.26,0.433c-0.043,0.13-0.086,0.216-0.086,0.346v0.303
			c0,0.26,0.086,0.433,0.217,0.563c0.129,0.13,0.346,0.173,0.605,0.173c0.563,0,0.865-0.26,0.865-0.736v-0.433
			c0-0.216-0.043-0.346-0.129-0.433c-0.087-0.087-0.217-0.13-0.391-0.13h-0.172l0.043-0.563h0.129c0.174,0,0.304-0.043,0.391-0.13
			c0.086-0.086,0.129-0.26,0.129-0.433v-0.347h0.736v0.347c0,0.216-0.043,0.433-0.086,0.563c-0.044,0.13-0.217,0.26-0.391,0.303
			c0.174,0.086,0.304,0.173,0.391,0.346c0.086,0.13,0.086,0.303,0.086,0.563v0.39c0,0.433-0.13,0.779-0.433,1.039
			c-0.304,0.26-0.692,0.39-1.169,0.39C144.861,63.861,144.472,63.731,144.212,63.515z"/>
		<path fill="#FFFFFF" d="M148.151,63.385c-0.26-0.303-0.433-0.779-0.433-1.429c0-0.649,0.173-1.125,0.477-1.472
			c0.303-0.346,0.779-0.52,1.428-0.52c0.391,0,0.736,0.086,0.996,0.216s0.477,0.303,0.605,0.563
			c0.131,0.216,0.174,0.476,0.174,0.736v2.251h-0.736v-2.165c0-0.303-0.086-0.519-0.26-0.692c-0.173-0.173-0.433-0.26-0.822-0.26
			s-0.693,0.13-0.865,0.346c-0.174,0.217-0.304,0.563-0.304,1.039c0,0.433,0.087,0.779,0.216,0.996
			c0.174,0.216,0.391,0.303,0.693,0.303c0.217,0,0.39,0,0.477-0.043v0.563c-0.174,0.043-0.347,0.086-0.606,0.086
			C148.801,63.861,148.411,63.731,148.151,63.385z"/>
		<path fill="#FFFFFF" d="M149.797,58.494h2.034l-0.043,0.52h-1.386v0.476h-0.605V58.494z"/>
	</g>
	<g>
		<path fill="#FFFFFF" d="M69.624,113.861v-2.986h0.736v2.813c0,0.087,0.043,0.173,0.086,0.216c0.043,0.044,0.13,0.087,0.216,0.087
			h0.303v0.606h-0.649C69.883,114.555,69.624,114.338,69.624,113.861z"/>
		<path fill="#FFFFFF" d="M71.745,113.861v-2.986h0.736v2.813c0,0.087,0.043,0.173,0.086,0.216c0.043,0.044,0.13,0.087,0.217,0.087
			h0.303v0.606h-0.649C71.961,114.555,71.745,114.338,71.745,113.861z"/>
		<path fill="#FFFFFF" d="M74.429,114.555c-0.26-0.044-0.477-0.131-0.693-0.217v-1.904h1.472l0.043,0.563h-0.779v0.908
			c0.217,0.087,0.477,0.131,0.736,0.131s0.476-0.044,0.649-0.131c0.173-0.086,0.26-0.216,0.347-0.433
			c0.086-0.173,0.13-0.433,0.13-0.778c0-0.348-0.043-0.607-0.13-0.823c-0.087-0.173-0.217-0.347-0.39-0.39
			c-0.173-0.086-0.433-0.13-0.779-0.13c-0.433,0-0.866,0.044-1.212,0.173v-0.563c0.173-0.043,0.433-0.13,0.649-0.13
			c0.217,0,0.52-0.043,0.736-0.043c0.649,0,1.125,0.173,1.385,0.476c0.303,0.304,0.433,0.822,0.433,1.473
			c0,0.648-0.13,1.125-0.433,1.428c-0.303,0.304-0.779,0.477-1.385,0.477C74.948,114.641,74.688,114.598,74.429,114.555z"/>
		<path fill="#FFFFFF" d="M79.061,114.511c-0.216-0.087-0.39-0.216-0.563-0.347l-0.043,0.391h-0.693v-3.724h0.736v2.728
			c0.13,0.13,0.303,0.26,0.476,0.303c0.173,0.043,0.346,0.13,0.563,0.13c0.26,0,0.477-0.043,0.563-0.173
			c0.13-0.13,0.173-0.303,0.173-0.606v-2.424h0.736v2.424c0,0.433-0.13,0.779-0.347,0.996c-0.216,0.216-0.519,0.347-0.952,0.347
			C79.537,114.641,79.277,114.598,79.061,114.511z"/>
		<path fill="#FFFFFF" d="M82.351,114.338c-0.086-0.13-0.173-0.347-0.173-0.649v-2.294c0-0.304-0.043-0.52-0.173-0.65
			c-0.13-0.173-0.303-0.26-0.563-0.389v-0.563h2.035v0.606h-1.082c0.173,0.086,0.303,0.26,0.39,0.39
			c0.086,0.173,0.13,0.39,0.13,0.692v2.208c0,0.13,0,0.216,0.043,0.26c0.043,0.043,0.13,0.043,0.26,0.043h0.303v0.606H82.87
			C82.654,114.555,82.437,114.511,82.351,114.338z"/>
		<path fill="#FFFFFF" d="M85.381,114.511c-0.216-0.087-0.39-0.216-0.563-0.347l-0.043,0.391h-0.693v-3.724h0.736v2.728
			c0.13,0.13,0.303,0.26,0.476,0.303c0.173,0.043,0.346,0.13,0.563,0.13c0.26,0,0.477-0.043,0.563-0.173
			c0.13-0.13,0.173-0.303,0.173-0.606v-2.424h0.736v2.424c0,0.433-0.13,0.779-0.347,0.996c-0.216,0.216-0.519,0.347-0.952,0.347
			C85.857,114.641,85.597,114.598,85.381,114.511z"/>
		<path fill="#FFFFFF" d="M88.281,113.861v-2.986h0.736v2.813c0,0.087,0.043,0.173,0.087,0.216c0.043,0.044,0.13,0.087,0.216,0.087
			h0.303v0.606h-0.649C88.498,114.555,88.281,114.338,88.281,113.861z"/>
		<path fill="#FFFFFF" d="M90.706,114.295c-0.216-0.217-0.346-0.563-0.346-0.996v-2.424h0.736v2.424c0,0.26,0.043,0.477,0.173,0.605
			c0.13,0.131,0.303,0.174,0.563,0.174c0.217,0,0.39-0.043,0.563-0.13c0.173-0.087,0.346-0.173,0.476-0.304v-2.727h0.736v3.723
			h-0.692l-0.043-0.39c-0.346,0.304-0.822,0.477-1.299,0.477C91.225,114.641,90.922,114.511,90.706,114.295z"/>
		<path fill="#FFFFFF" d="M90.792,109.749H93v-0.563h0.606v1.083h-2.857L90.792,109.749z"/>
		<path fill="#FFFFFF" d="M94.818,114.338c-0.303-0.174-0.477-0.477-0.477-0.866c0-0.173,0.043-0.347,0.13-0.52
			c0.087-0.173,0.217-0.26,0.39-0.347c-0.173-0.043-0.26-0.129-0.346-0.303c-0.086-0.129-0.13-0.303-0.13-0.477
			c0-0.346,0.086-0.605,0.303-0.778c0.216-0.173,0.476-0.26,0.866-0.26c0.216,0,0.433,0.043,0.606,0.087v0.563
			c-0.13-0.043-0.303-0.043-0.476-0.043c-0.39,0-0.563,0.172-0.563,0.476c0,0.347,0.216,0.476,0.649,0.476h0.39l0.043,0.563h-0.433
			c-0.433,0-0.649,0.173-0.649,0.563c0,0.173,0.087,0.347,0.216,0.433c0.173,0.087,0.39,0.131,0.736,0.131
			c0.346,0,0.563-0.087,0.736-0.217c0.173-0.13,0.26-0.347,0.26-0.606v-2.381h0.736v2.294c0,0.52-0.13,0.866-0.433,1.126
			c-0.26,0.26-0.692,0.347-1.255,0.347C95.554,114.641,95.121,114.555,94.818,114.338z"/>
		<path fill="#FFFFFF" d="M99.926,114.511c-0.216-0.087-0.39-0.216-0.563-0.347l-0.043,0.391h-0.692v-3.724h0.736v2.728
			c0.13,0.13,0.303,0.26,0.476,0.303s0.346,0.13,0.563,0.13c0.26,0,0.477-0.043,0.563-0.173c0.13-0.13,0.173-0.303,0.173-0.606
			v-2.424h0.736v2.424c0,0.433-0.13,0.779-0.346,0.996c-0.217,0.216-0.52,0.347-0.953,0.347
			C100.359,114.641,100.143,114.598,99.926,114.511z"/>
		<path fill="#FFFFFF" d="M105.381,114.078h0.649l-0.303,1.299h-0.563L105.381,114.078z"/>
		<path fill="#FFFFFF" d="M109.45,113.861v-2.381c0-0.477,0.173-0.865,0.52-1.082h-1.083v-0.606h1.992v0.563
			c-0.26,0.086-0.433,0.26-0.52,0.433c-0.086,0.216-0.173,0.476-0.173,0.778v2.078c0,0.131,0,0.217,0.043,0.26
			c0.043,0.044,0.13,0.044,0.26,0.044h0.303v0.606h-0.649C109.667,114.555,109.45,114.338,109.45,113.861z"/>
		<path fill="#FFFFFF" d="M111.701,114.295c-0.217-0.217-0.346-0.563-0.346-0.996v-2.424h0.735v2.424
			c0,0.26,0.044,0.477,0.173,0.605c0.131,0.131,0.303,0.174,0.563,0.174c0.217,0,0.391-0.043,0.563-0.13s0.347-0.173,0.476-0.304
			v-2.727h0.736v3.723h-0.692l-0.044-0.39c-0.346,0.304-0.822,0.477-1.299,0.477C112.264,114.641,111.961,114.511,111.701,114.295z"
			/>
		<path fill="#FFFFFF" d="M115.555,113.861v-2.986h0.735v2.813c0,0.087,0.044,0.173,0.087,0.216
			c0.043,0.044,0.129,0.087,0.217,0.087h0.303v0.606h-0.65C115.814,114.555,115.555,114.338,115.555,113.861z"/>
		<path fill="#FFFFFF" d="M117.936,114.164c-0.26-0.303-0.434-0.779-0.434-1.428c0-0.65,0.087-1.126,0.303-1.473
			c0.217-0.346,0.52-0.52,0.91-0.52c0.172,0,0.346,0.044,0.432,0.087c0.131,0.044,0.217,0.13,0.304,0.26
			c0.087-0.087,0.216-0.173,0.39-0.26s0.303-0.087,0.477-0.087c0.303,0,0.52,0.087,0.648,0.26c0.131,0.174,0.217,0.434,0.217,0.736
			v2.771h-0.736v-2.685c0-0.172-0.043-0.303-0.086-0.389c-0.043-0.087-0.13-0.13-0.303-0.13c-0.087,0-0.174,0.043-0.26,0.087
			c-0.087,0.043-0.131,0.129-0.174,0.216h-0.433c-0.044-0.13-0.13-0.216-0.173-0.26c-0.043-0.043-0.131-0.087-0.26-0.087
			c-0.217,0-0.39,0.131-0.477,0.347c-0.086,0.216-0.13,0.563-0.13,1.039c0,0.433,0.087,0.779,0.217,0.995
			c0.173,0.217,0.39,0.304,0.692,0.304c0.217,0,0.39,0,0.477-0.044v0.563c-0.174,0.043-0.347,0.087-0.606,0.087
			C118.584,114.641,118.195,114.468,117.936,114.164z"/>
		<path fill="#FFFFFF" d="M122.61,114.598c-0.216-0.043-0.433-0.087-0.563-0.13v-0.606c0.173,0.087,0.347,0.13,0.563,0.174
			c0.216,0.043,0.39,0.043,0.563,0.043c0.346,0,0.563-0.043,0.735-0.087c0.13-0.043,0.216-0.173,0.216-0.347
			c0-0.129-0.043-0.216-0.086-0.26c-0.043-0.086-0.13-0.129-0.217-0.173c-0.086-0.043-0.26-0.087-0.433-0.173l-0.26-0.087
			c-0.39-0.13-0.649-0.259-0.823-0.433c-0.172-0.174-0.26-0.39-0.26-0.649c0-0.347,0.131-0.606,0.391-0.779s0.605-0.26,1.125-0.26
			c0.217,0,0.39,0,0.606,0.044c0.216,0.043,0.39,0.086,0.52,0.129v0.606c-0.13-0.044-0.304-0.087-0.52-0.13
			c-0.173-0.043-0.347-0.043-0.52-0.043c-0.304,0-0.52,0.043-0.649,0.086c-0.13,0.044-0.217,0.174-0.217,0.347
			c0,0.087,0.043,0.173,0.087,0.26c0.044,0.044,0.13,0.13,0.26,0.173s0.26,0.087,0.476,0.174l0.217,0.043
			c0.39,0.13,0.693,0.26,0.866,0.433s0.26,0.39,0.26,0.692c0,0.347-0.13,0.606-0.39,0.779c-0.26,0.174-0.649,0.26-1.125,0.26
			C123.043,114.641,122.826,114.641,122.61,114.598z"/>
		<path fill="#FFFFFF" d="M125.555,110.875h0.691l0.044,0.389c0.39-0.303,0.822-0.476,1.342-0.476c0.39,0,0.692,0.13,0.909,0.347
			c0.217,0.216,0.347,0.563,0.347,0.995v2.468h-0.736v-2.424c0-0.26-0.043-0.477-0.173-0.563c-0.13-0.13-0.303-0.173-0.563-0.173
			c-0.217,0-0.391,0.043-0.563,0.129c-0.174,0.088-0.348,0.174-0.477,0.304v2.728h-0.736v-3.723H125.555z"/>
	</g>
	<polyline fill="none" stroke="#FFFFFF" stroke-width="2" stroke-miterlimit="10" points="60.922,100.918 60.922,118.926 
		151.528,118.926 	"/>
	<polygon fill="none" stroke="#FFFFFF" stroke-width="2" stroke-miterlimit="10" points="47.762,2.736 35.035,2.736 28.671,13.775 
		35.035,24.771 47.762,24.771 54.125,13.775 	"/>
	<polygon fill="none" stroke="#FFFFFF" stroke-width="2" stroke-miterlimit="10" points="65.381,17.758 57.805,17.758 
		53.996,24.294 57.805,30.831 65.381,30.831 69.147,24.294 	"/>
	<polygon fill="none" stroke="#FFFFFF" stroke-width="2" stroke-miterlimit="10" points="33.909,114.728 28.498,114.728 
		25.814,119.402 28.498,124.078 33.909,124.078 36.593,119.402 	"/>
	<polygon fill="none" stroke="#FFFFFF" stroke-width="2" stroke-miterlimit="10" points="49.32,105.637 40.402,105.637 
		35.987,113.342 40.402,121.048 49.32,121.048 53.779,113.342 	"/>
</g>
</svg>
