<?xml version="1.0" encoding="utf-8"?>
<!-- Generator: Adobe Illustrator 16.0.0, SVG Export Plug-In . SVG Version: 6.00 Build 0)  -->
<!DOCTYPE svg PUBLIC "-//W3C//DTD SVG 1.1//EN" "http://www.w3.org/Graphics/SVG/1.1/DTD/svg11.dtd">
<svg version="1.1" id="Layer_1" xmlns="http://www.w3.org/2000/svg" xmlns:xlink="http://www.w3.org/1999/xlink" x="0px" y="0px"
	 width="444px" height="450px" viewBox="0 0 444 450" enable-background="new 0 0 444 450" xml:space="preserve">
<g>
	<g>
		<path fill="none" stroke="#FFFFFF" stroke-width="2" stroke-miterlimit="10" d="M84.226,200.379v148.479h21.455v-79.002
			c0-14.036,14.938-25.465,33.285-25.465l0,0c18.447,0,33.285,11.429,33.285,25.465v79.002h21.655v-79.002
			c0-14.036,14.938-25.465,33.284-25.465l0,0c18.447,0,33.286,11.429,33.286,25.465v79.002h21.655v-79.002
			c0-14.036,14.938-25.465,33.284-25.465l0,0c18.448,0,33.286,11.429,33.286,25.465v79.002h21.453V200.379H84.226z"/>
		<polygon fill="none" stroke="#FFFFFF" stroke-width="2" stroke-miterlimit="10" points="346.696,155.364 346.696,178.422 
			108.087,178.422 108.087,155.364 84.226,155.364 84.226,178.422 84.226,200.379 108.087,200.379 346.696,200.379 370.557,200.379 
			370.557,178.422 370.557,155.364 		"/>
		<g>
			<path fill="none" stroke="#FFFFFF" stroke-width="2" stroke-miterlimit="10" d="M84.226,362.292
				c14.337,0,14.337,20.051,28.673,20.051c14.337,0,14.337-20.051,28.673-20.051c14.337,0,14.337,20.051,28.673,20.051
				c14.337,0,14.337-20.051,28.673-20.051c14.337,0,14.337,20.051,28.672,20.051c14.337,0,14.337-20.051,28.674-20.051
				s14.337,20.051,28.673,20.051c14.338,0,14.338-20.051,28.673-20.051c14.338,0,14.338,20.051,28.674,20.051
				s14.336-20.051,28.674-20.051"/>
		</g>
		<g>
			<path fill="none" stroke="#FFFFFF" stroke-width="2" stroke-miterlimit="10" d="M84.226,390.465
				c14.337,0,14.337,20.05,28.673,20.05c14.337,0,14.337-20.05,28.673-20.05c14.337,0,14.337,20.05,28.673,20.05
				c14.337,0,14.337-20.05,28.673-20.05c14.337,0,14.337,20.05,28.672,20.05c14.337,0,14.337-20.05,28.674-20.05
				s14.337,20.05,28.673,20.05c14.338,0,14.338-20.05,28.673-20.05c14.338,0,14.338,20.05,28.674,20.05s14.336-20.05,28.674-20.05"
				/>
		</g>
	</g>
	<path fill="#FFFFFF" d="M188.493,77.866C188.493,77.866,188.393,77.866,188.493,77.866c0.3-1.303,0.501-2.607,0.501-4.011
		c0-9.925-9.625-18.045-21.555-18.045c-3.208,0-6.215,0.601-8.923,1.604c-3.208-9.223-14.637-16.141-28.172-16.141
		c-16.041,0-29.074,9.625-29.074,21.555c0,0.3,0,0.501,0,0.802c-2.205-0.501-4.611-0.802-7.018-0.802
		c-11.93,0-21.555,6.516-21.555,14.538c0,8.02,9.625,14.536,21.555,14.536c3.108,0,6.116-0.5,8.823-1.303
		c-0.803,1.705-1.304,3.41-1.304,5.314c0,9.926,13.034,18.046,29.074,18.046c11.93,0,22.156-4.512,26.668-10.828
		c2.606,1.805,6.116,2.807,9.925,2.807c6.918,0,12.732-3.509,14.236-8.221c2.006,0.802,4.412,1.203,6.818,1.203
		c8.021,0,14.537-4.711,14.537-10.526S196.513,77.866,188.493,77.866z M147.789,81.275c-0.401-0.2-0.802-0.402-1.203-0.501
		c0.301-0.1,0.501-0.301,0.802-0.401C147.488,80.673,147.588,80.974,147.789,81.275z"/>
	<path fill="#FFFFFF" d="M257.168,96.113c0.101,4.01,4.611,7.218,10.126,7.018c1.703,0,3.309-0.401,4.712-0.902
		c1.003,3.208,5.114,5.614,9.926,5.514c2.605-0.1,5.012-0.802,6.816-2.105c3.208,4.311,10.327,7.319,18.548,7.118
		c11.028-0.201,19.951-5.915,19.851-12.833c0-1.304-0.4-2.507-0.901-3.609c1.904,0.501,3.909,0.802,6.115,0.802
		c8.221-0.201,14.736-4.813,14.637-10.326c-0.101-5.514-6.817-9.925-15.038-9.725c-1.704,0-3.309,0.301-4.813,0.701
		c0-0.2,0-0.4,0-0.601c-0.2-8.221-9.223-14.738-20.352-14.437c-9.324,0.2-17.145,5.113-19.25,11.529
		c-1.905-0.702-4.01-1.002-6.215-1.002c-8.222,0.201-14.739,5.814-14.639,12.732c0,0.902,0.201,1.906,0.401,2.808l0,0
		C261.479,88.794,257.068,92.102,257.168,96.113z M295.466,89.796c0.2,0.101,0.4,0.201,0.502,0.301c-0.302,0.1-0.603,0.2-0.903,0.4
		C295.265,90.298,295.365,89.997,295.466,89.796z"/>
	<g>
		<g>
			
				<line fill="none" stroke="#FFFFFF" stroke-width="2" stroke-miterlimit="10" x1="122.825" y1="120.976" x2="125.531" y2="126.39"/>
			
				<line fill="none" stroke="#FFFFFF" stroke-width="2" stroke-miterlimit="10" stroke-dasharray="12.1004,12.1004" x1="131.046" y1="137.117" x2="139.367" y2="153.359"/>
			
				<line fill="none" stroke="#FFFFFF" stroke-width="2" stroke-miterlimit="10" x1="142.074" y1="158.772" x2="144.881" y2="164.086"/>
		</g>
	</g>
	<g>
		<g>
			
				<line fill="none" stroke="#FFFFFF" stroke-width="2" stroke-miterlimit="10" x1="144.881" y1="120.976" x2="147.588" y2="126.39"/>
			
				<line fill="none" stroke="#FFFFFF" stroke-width="2" stroke-miterlimit="10" stroke-dasharray="12.1004,12.1004" x1="153.102" y1="137.117" x2="161.423" y2="153.359"/>
			
				<line fill="none" stroke="#FFFFFF" stroke-width="2" stroke-miterlimit="10" x1="164.13" y1="158.772" x2="166.938" y2="164.086"/>
		</g>
	</g>
	<g>
		<g>
			
				<line fill="none" stroke="#FFFFFF" stroke-width="2" stroke-miterlimit="10" x1="166.938" y1="120.976" x2="169.644" y2="126.39"/>
			
				<line fill="none" stroke="#FFFFFF" stroke-width="2" stroke-miterlimit="10" stroke-dasharray="12.1004,12.1004" x1="175.159" y1="137.117" x2="183.479" y2="153.359"/>
			
				<line fill="none" stroke="#FFFFFF" stroke-width="2" stroke-miterlimit="10" x1="186.187" y1="158.772" x2="188.994" y2="164.086"/>
		</g>
	</g>
	<g>
		<g>
			
				<line fill="none" stroke="#FFFFFF" stroke-width="2" stroke-miterlimit="10" x1="281.229" y1="120.976" x2="283.937" y2="126.39"/>
			
				<line fill="none" stroke="#FFFFFF" stroke-width="2" stroke-miterlimit="10" stroke-dasharray="12.1004,12.1004" x1="289.45" y1="137.117" x2="297.771" y2="153.359"/>
			
				<line fill="none" stroke="#FFFFFF" stroke-width="2" stroke-miterlimit="10" x1="300.479" y1="158.772" x2="303.286" y2="164.086"/>
		</g>
	</g>
	<g>
		<g>
			
				<line fill="none" stroke="#FFFFFF" stroke-width="2" stroke-miterlimit="10" x1="299.777" y1="120.976" x2="302.483" y2="126.39"/>
			
				<line fill="none" stroke="#FFFFFF" stroke-width="2" stroke-miterlimit="10" stroke-dasharray="12.1004,12.1004" x1="307.997" y1="137.117" x2="316.317" y2="153.359"/>
			
				<line fill="none" stroke="#FFFFFF" stroke-width="2" stroke-miterlimit="10" x1="319.026" y1="158.772" x2="321.833" y2="164.086"/>
		</g>
	</g>
	<g>
		<g>
			
				<line fill="none" stroke="#FFFFFF" stroke-width="2" stroke-miterlimit="10" x1="318.324" y1="120.976" x2="321.031" y2="126.39"/>
			
				<line fill="none" stroke="#FFFFFF" stroke-width="2" stroke-miterlimit="10" stroke-dasharray="12.1004,12.1004" x1="326.545" y1="137.117" x2="334.865" y2="153.359"/>
			
				<line fill="none" stroke="#FFFFFF" stroke-width="2" stroke-miterlimit="10" x1="337.574" y1="158.772" x2="340.38" y2="164.086"/>
		</g>
	</g>
</g>
</svg>
