<?xml version="1.0" encoding="utf-8"?>
<!-- Generator: Adobe Illustrator 23.0.1, SVG Export Plug-In . SVG Version: 6.00 Build 0)  -->
<svg version="1.1" id="Layer_1" xmlns="http://www.w3.org/2000/svg" xmlns:xlink="http://www.w3.org/1999/xlink" x="0px" y="0px"
	 viewBox="0 0 420.6 481.5" style="enable-background:new 0 0 420.6 481.5;" xml:space="preserve">
<style type="text/css">
	.st0{fill:none;stroke:#AF914F;stroke-width:2;stroke-miterlimit:10;}
	.st1{fill:#AD9056;}
	.st2{fill:none;stroke:#ECDFBC;stroke-linecap:round;stroke-linejoin:round;stroke-miterlimit:10;}
</style>
<g>
	<g>
		<path class="st0" d="M332.2,346c0,0-100.2-3.5-182.1-67.2"/>
		<path class="st0" d="M263.7,334.1c0,0-30.2,8-87.6-13.2"/>
		<path class="st0" d="M223.8,320.7c0,0,0.2-17.2-24-30.1s-36-26.6-36-26.6"/>
		<path class="st0" d="M199.8,290.5c0,0,3.5-6.2-11.5-23.7"/>
		
			<ellipse transform="matrix(0.4256 -0.9049 0.9049 0.4256 -190.2487 334.8482)" class="st0" cx="168.6" cy="317.3" rx="3.3" ry="7.7"/>
		
			<ellipse transform="matrix(0.5974 -0.802 0.802 0.5974 -161.234 225.4794)" class="st0" cx="143.9" cy="273.3" rx="6.1" ry="8.9"/>
		
			<ellipse transform="matrix(0.6787 -0.7344 0.7344 0.6787 -138.3288 198.9007)" class="st0" cx="158.2" cy="257.5" rx="5.1" ry="7.2"/>
		
			<ellipse transform="matrix(0.4842 -0.875 0.875 0.4842 -137.0529 292.8431)" class="st0" cx="179.8" cy="262.7" rx="4.9" ry="7.4"/>
	</g>
	<g>
		<path class="st0" d="M324,321.8c0,0-160.3-83.5-203.7-256.1"/>
		<path class="st0" d="M267.3,283.4c0,0-18.2-1.1-25-7.2c-6.8-6.1-13.2-3.9-13.2-3.9"/>
		<path class="st0" d="M238.3,258.3c0,0,5.2-44.6,3.3-57.8"/>
		<path class="st0" d="M226.5,197c0,0,1.1,29.9,13.9,39"/>
		<path class="st0" d="M175.4,214.5c0,0,19.1,11.9,24.7,19.3c5.6,7.5,19.6,6.2,19.6,6.2"/>
		<path class="st0" d="M186.8,201.5c0,0-1.6-26.4,1.4-35.3c3-8.9,4.7-16.9,4.7-16.9"/>
		<path class="st0" d="M186.9,173.5c0,0,7.3-2.9,10.9-11.9s4-17.4,9.9-18.2"/>
		<path class="st0" d="M167.7,174.3c0,0-13.4-4.5-19.8-12.7s-12.4-12-12.4-12"/>
		<path class="st0" d="M135.7,112.6c0,0-12.6-9.2-16.8-14.2"/>
		<path class="st0" d="M155.1,153.1c0,0,3-48.9,9.4-59.1"/>
		<path class="st0" d="M158.2,120.6c0,0,10.6-5.6,16.1-12.9"/>
		<path class="st0" d="M174.5,214.2c0,0-22-10.6-12.6-17.3C166.2,193.9,177.9,204.9,174.5,214.2z"/>
		<path class="st0" d="M229.7,273.7c0,0-24.7-3.1-19.4-12.4C212.6,257.1,228.3,263.9,229.7,273.7z"/>
		<path class="st0" d="M240.7,199.9c0,0-3.7-20.3,8.9-17.6C255.3,183.6,252,197.2,240.7,199.9z"/>
		<path class="st0" d="M118.9,99.3c0,0-23.3-8.2-15.1-15.9C107.4,79.9,120.6,89.7,118.9,99.3z"/>
		<path class="st0" d="M133.2,149.2c0,0-23.3-8.2-15.1-15.9C121.7,129.8,135,139.6,133.2,149.2z"/>
		<path class="st0" d="M121.4,67.5c0,0-23.3-8.2-15.1-15.9C110,48.1,123.2,57.8,121.4,67.5z"/>
		<path class="st0" d="M165.9,92.3c0,0-15.6-16.7-3.4-19.5C167.9,71.5,173.6,85.1,165.9,92.3z"/>
		<path class="st0" d="M173.6,109c0,0,1.8-20.2,13.6-15.3C192.5,96,185.5,108.5,173.6,109z"/>
		<path class="st0" d="M205.6,143.9c0,0,1.2-13.7,9.2-10.4C218.5,135,213.7,143.5,205.6,143.9z"/>
		<path class="st0" d="M192.2,149.5c0,0-8.2-12.5,0.4-13.2C196.5,135.9,198.4,145.5,192.2,149.5z"/>
		<path class="st0" d="M225.6,197.3c0,0-8.2-12.5,0.4-13.2C229.9,183.7,231.8,193.3,225.6,197.3z"/>
	</g>
	<g>
		<path class="st1" d="M286.3,337.9c0,0,11.4,2.4,14.6,12.6c0,0-8.3,14.6-5.1,24.5c3.3,10-18.7,32.1-21.7,31.4
			c0,0-12.5,5.5-9.4-10.3c0,0-14.9-0.3-11.4-11.1c0,0-17.3,4.1-13.2-13c0,0-26.5,4.5-8.9-21.5c0,0,6.8-6,27.8-7.3
			C279.9,342,282.8,342.7,286.3,337.9z"/>
		<path class="st2" d="M226.2,359.8c5,4.9,20.6,5,20.6,5c-2.6,11.4,11.2,11.4,11.2,11.4c0.3,14.6,10.7,11.2,10.7,11.2l-4.1,8.8"/>
		<path class="st2" d="M252.5,350.8c0,0,23-6.7,29.1-1.9"/>
		<path class="st2" d="M276.6,378.6c0,0,13.2-9.9,11.9-23"/>
		<line class="st2" x1="274.8" y1="353.1" x2="282.7" y2="354.1"/>
		<path class="st2" d="M240.1,372.1c0,0,2.3-5.4,6.8-7.3"/>
		<line class="st2" x1="245.4" y1="378" x2="249.5" y2="373.6"/>
		<path class="st2" d="M289.8,343c0,0,2.5-1.8,5.3,6.1"/>
	</g>
</g>
</svg>
