<?xml version="1.0" encoding="utf-8"?>
<!-- Generator: Adobe Illustrator 23.0.1, SVG Export Plug-In . SVG Version: 6.00 Build 0)  -->
<svg version="1.1" id="Layer_1" xmlns="http://www.w3.org/2000/svg" xmlns:xlink="http://www.w3.org/1999/xlink" x="0px" y="0px"
	 viewBox="0 0 420.6 481.5" style="enable-background:new 0 0 420.6 481.5;" xml:space="preserve">
<style type="text/css">
	.st0{fill:none;stroke:#AF914F;stroke-width:2;stroke-miterlimit:10;}
	.st1{fill:#AD9056;}
	.st2{fill:none;stroke:#ECDFBC;stroke-linecap:round;stroke-linejoin:round;stroke-miterlimit:10;}
</style>
<g>
	<g>
		<path class="st0" d="M277.1,118.1C121.9,236.6,121.8,398.4,121.8,398.4"/>
		<g>
			<g>
				<path class="st0" d="M255,169.7c-14.3,3.1-33.1-1.8-33.1-1.8l24.2-8.8"/>
				<polyline class="st0" points="242.1,154.3 222,167.9 213.6,149.5 				"/>
				<line class="st0" x1="222" y1="167.9" x2="229.5" y2="148.1"/>
			</g>
			
				<ellipse transform="matrix(0.9945 -0.1051 0.1051 0.9945 -16.2869 27.964)" class="st0" cx="257.2" cy="168.5" rx="3.9" ry="3.1"/>
			
				<ellipse transform="matrix(0.9945 -0.1051 0.1051 0.9945 -14.5266 23.2789)" class="st0" cx="213.6" cy="149.5" rx="3.9" ry="3.1"/>
			
				<ellipse transform="matrix(0.9945 -0.1051 0.1051 0.9945 -15.2859 26.8762)" class="st0" cx="247.4" cy="158.5" rx="2.7" ry="2.2"/>
			
				<ellipse transform="matrix(0.9945 -0.1051 0.1051 0.9945 -14.8007 26.4234)" class="st0" cx="243.3" cy="153.7" rx="2.7" ry="2.2"/>
			
				<ellipse transform="matrix(0.9945 -0.1051 0.1051 0.9945 -14.2885 24.9334)" class="st0" cx="229.5" cy="148.1" rx="2.7" ry="2.2"/>
		</g>
		<g>
			<g>
				<path class="st0" d="M134.2,259.2c1.8,11.5,14.6,23.3,14.6,23.3l1.3-20.8"/>
				<polyline class="st0" points="157.3,262.8 148.8,282.5 173.8,281.6 				"/>
				<line class="st0" x1="148.8" y1="282.5" x2="169.5" y2="269.6"/>
			</g>
			
				<ellipse transform="matrix(0.9945 -0.1051 0.1051 0.9945 -26.2778 15.5946)" class="st0" cx="134.8" cy="257.2" rx="3.9" ry="3.1"/>
			
				<ellipse transform="matrix(0.9945 -0.1051 0.1051 0.9945 -28.6284 19.8227)" class="st0" cx="173.8" cy="281.6" rx="3.9" ry="3.1"/>
			
				<ellipse transform="matrix(0.9945 -0.1051 0.1051 0.9945 -26.543 17.2522)" class="st0" cx="150.4" cy="260.5" rx="2.7" ry="2.2"/>
			
				<ellipse transform="matrix(0.9945 -0.1051 0.1051 0.9945 -26.6209 18.0203)" class="st0" cx="157.7" cy="261.6" rx="2.7" ry="2.2"/>
			
				<ellipse transform="matrix(0.9945 -0.1051 0.1051 0.9945 -27.391 19.3106)" class="st0" cx="169.5" cy="269.6" rx="2.7" ry="2.2"/>
		</g>
		<g>
			<g>
				<path class="st0" d="M113,305c6.9,10,24.5,17.1,24.5,17.1l-8.3-19.4"/>
				<polyline class="st0" points="136.6,301.5 137.5,322 160.8,314 				"/>
				<line class="st0" x1="137.5" y1="322" x2="151.3" y2="304.2"/>
			</g>
			
				<ellipse transform="matrix(0.9945 -0.1051 0.1051 0.9945 -31.2133 13.5196)" class="st0" cx="112.7" cy="302.9" rx="3.9" ry="3.1"/>
			
				<ellipse transform="matrix(0.9945 -0.1051 0.1051 0.9945 -32.1059 18.6372)" class="st0" cx="160.8" cy="314" rx="3.9" ry="3.1"/>
			<ellipse transform="matrix(0.9945 -0.1051 0.1051 0.9945 -30.969 15.2281)" class="st0" cx="129" cy="301.5" rx="2.7" ry="2.2"/>
			
				<ellipse transform="matrix(0.9945 -0.1051 0.1051 0.9945 -30.8151 15.9994)" class="st0" cx="136.4" cy="300.4" rx="2.7" ry="2.2"/>
			
				<ellipse transform="matrix(0.9945 -0.1051 0.1051 0.9945 -31.1352 17.585)" class="st0" cx="151.3" cy="304.2" rx="2.7" ry="2.2"/>
		</g>
		<g>
			<g>
				<path class="st0" d="M224.9,221c-19.2,4.1-44.2-2.4-44.2-2.4l32.4-11.7"/>
				<polyline class="st0" points="207.6,200.4 180.6,218.6 169.5,193.9 				"/>
				<line class="st0" x1="180.6" y1="218.6" x2="190.6" y2="192"/>
			</g>
			
				<ellipse transform="matrix(0.9945 -0.1051 0.1051 0.9945 -21.7978 25.1512)" class="st0" cx="227.8" cy="219.4" rx="5.2" ry="4.1"/>
			
				<ellipse transform="matrix(0.9945 -0.1051 0.1051 0.9945 -19.4436 18.8853)" class="st0" cx="169.5" cy="193.9" rx="5.2" ry="4.1"/>
			<ellipse transform="matrix(0.9945 -0.1051 0.1051 0.9945 -20.459 23.6963)" class="st0" cx="214.6" cy="206" rx="3.7" ry="2.9"/>
			
				<ellipse transform="matrix(0.9945 -0.1051 0.1051 0.9945 -19.8101 23.0907)" class="st0" cx="209.2" cy="199.5" rx="3.7" ry="2.9"/>
			
				<ellipse transform="matrix(0.9945 -0.1051 0.1051 0.9945 -19.1251 21.0981)" class="st0" cx="190.6" cy="192" rx="3.7" ry="2.9"/>
		</g>
		<g>
			<path class="st0" d="M270.2,82.9c0,0-9,25.4,11.2,37.6s42.4,2.7,42.4,2.7"/>
			<path class="st0" d="M330,109c0,0-39.8,14.4-48.7,11.5c-8.8-2.9,9.6-41.2,9.6-41.2"/>
			<polyline class="st0" points="316.2,101 279.1,117.4 304.6,88.4 			"/>
			
				<ellipse transform="matrix(0.9945 -0.1051 0.1051 0.9945 -11.3281 34.7807)" class="st0" cx="324.4" cy="124.9" rx="4.5" ry="3.5"/>
			<ellipse transform="matrix(0.9945 -0.1051 0.1051 0.9945 -9.5157 35.4094)" class="st0" cx="331.2" cy="108" rx="4" ry="3.2"/>
			
				<ellipse transform="matrix(0.9945 -0.1051 0.1051 0.9945 -8.7155 33.7443)" class="st0" cx="315.8" cy="99.6" rx="3.3" ry="2.6"/>
			<ellipse transform="matrix(0.9945 -0.1051 0.1051 0.9945 -7.4389 32.5759)" class="st0" cx="305.4" cy="86.9" rx="3.7" ry="3"/>
			
				<ellipse transform="matrix(0.9945 -0.1051 0.1051 0.9945 -6.6546 31.1121)" class="st0" cx="291.9" cy="78.7" rx="3.7" ry="2.9"/>
			<ellipse transform="matrix(0.9945 -0.1051 0.1051 0.9945 -7.0454 29.0366)" class="st0" cx="272" cy="81.4" rx="5.1" ry="4"/>
		</g>
	</g>
	<g>
		<path class="st0" d="M108.9,423.2c0,0,46.7-106.7,185.3-157.7"/>
		<path class="st0" d="M132.9,384.2c0,0-1.8-10.9,2.4-15.8c4.1-4.9,1.4-8.4,1.4-8.4"/>
		<path class="st0" d="M149.7,363.3c0,0,38.3-3.5,49-6.5"/>
		<path class="st0" d="M199.5,347.4c0,0-25,5-30.7,13.9"/>
		<path class="st0" d="M177.3,319.9c0,0-7.2,13-12.6,17.4s-2.3,12.4-2.3,12.4"/>
		<path class="st0" d="M189.8,324.7c0,0,21.9-4.8,29.8-4.3s14.9,0.3,14.9,0.3"/>
		<path class="st0" d="M213.4,320.6c0,0,3.5,3.9,11.6,4.7s15.2-0.2,16.7,3.1"/>
		<path class="st0" d="M210,309.4c0,0,1.8-8.6,7.8-13.5c5.9-5,8.3-9.1,8.3-9.1"/>
		<path class="st0" d="M257.1,281.5c0,0,5.9-8.8,9.5-12"/>
		<path class="st0" d="M225.9,298.9c0,0,41.5-5.4,51-3.1"/>
		<path class="st0" d="M253.6,296c0,0,6.2,5.4,13.2,7.6"/>
		<path class="st0" d="M177.4,319.3c0,0,5.7-14.5,12.7-10C193.2,311.4,185.7,319.9,177.4,319.3z"/>
		<path class="st0" d="M135.5,360.5c0,0-1-15,7.6-13.3C146.9,348.1,143.6,358.3,135.5,360.5z"/>
		<path class="st0" d="M199.1,356.2c0,0,16.5-5.2,16.1,2.7C215,362.4,203,362.5,199.1,356.2z"/>
		<path class="st0" d="M265.8,269.6c0,0,3.5-14.9,11.2-11.3C280.4,260,274.1,269.3,265.8,269.6z"/>
		<path class="st0" d="M226,285.4c0,0,3.5-14.9,11.2-11.3C240.5,275.8,234.3,285,226,285.4z"/>
		<path class="st0" d="M292.9,266.5c0,0,3.5-14.9,11.2-11.3C307.5,256.9,301.3,266.1,292.9,266.5z"/>
		<path class="st0" d="M278.6,296.3c0,0,11.7-11.6,15.9-4.9C296.4,294.5,285.7,299.8,278.6,296.3z"/>
		<path class="st0" d="M265.6,303.3c0,0,17.2-1.9,14.8,5.8C279.4,312.5,267.9,310.3,265.6,303.3z"/>
		<path class="st0" d="M241,327.3c0,0,11.7-1.3,10.1,3.9C250.3,333.6,242.5,332,241,327.3z"/>
		<path class="st0" d="M234.4,320.2c0,0,9.3-6.7,11.2-1.7C246.4,320.7,238.7,323.3,234.4,320.2z"/>
		<path class="st0" d="M199.1,346.9c0,0,9.3-6.7,11.2-1.7C211.1,347.5,203.4,350,199.1,346.9z"/>
	</g>
	<g>
		<path class="st1" d="M176.8,256.6c0,0-4-10.9,3-19.1c0,0,16.8-0.7,23.5-8.7c6.7-8.1,37.1-1.2,38.1,1.7c0,0,11.3,7.7-3.8,13.4
			c0,0,7.7,12.7-3.4,15.5c0,0,12.7,12.5-4,18.1c0,0,17.9,20.1-13.5,19c0,0-8.7-2.6-20.9-19.7C183.7,259.9,182.8,257.1,176.8,256.6z"
			/>
		<path class="st2" d="M227.3,295.9c1.5-6.8-6.7-20.2-6.7-20.2c11-3.9,3.7-15.5,3.7-15.5c12.2-8,3.8-15,3.8-15l9.6-1.2"/>
		<path class="st2" d="M205.7,278.4c0,0-17.9-15.9-17.1-23.6"/>
		<path class="st2" d="M216.5,243.3c0,0-15.4-6-25.8,2.2"/>
		<line class="st2" x1="195.8" y1="258.3" x2="192.5" y2="251.1"/>
		<path class="st2" d="M230.3,277.6c0,0-5.8,0.9-9.8-1.9"/>
		<line class="st2" x1="232.5" y1="270" x2="226.6" y2="268.8"/>
		<path class="st2" d="M179.3,250.9c0,0-2.8-1.2,2.3-7.7"/>
	</g>
</g>
</svg>
