<?xml version="1.0" encoding="utf-8"?>
<!-- Generator: Adobe Illustrator 16.0.0, SVG Export Plug-In . SVG Version: 6.00 Build 0)  -->
<!DOCTYPE svg PUBLIC "-//W3C//DTD SVG 1.1//EN" "http://www.w3.org/Graphics/SVG/1.1/DTD/svg11.dtd">
<svg version="1.1" xmlns="http://www.w3.org/2000/svg" xmlns:xlink="http://www.w3.org/1999/xlink" x="0px" y="0px" width="575px"
	 height="528px" viewBox="0 0 575 528" enable-background="new 0 0 575 528" xml:space="preserve">
<g id="Layer_2">
</g>
<g id="Layer_1">
	<g>
		<path fill="#546071" d="M-1,16.988c0,0,84.265-1.857,95.673-11.407c11.407-9.551,5.836,1.592,9.55,3.714
			c3.714,2.123,13.53-9.285,17.244-7.428c3.714,1.857,5.836,13.265,9.55,15.122c3.714,1.857,5.041,7.959,13.265,9.551
			s1.857,9.55,11.407,9.55c9.551,0,19.207,10.612,28.651,9.551c19.101-2.123,30.774-34.223,63.14-30.509
			c32.365,3.714,34.222,28.386,80.117,32.366c45.896,3.979,53.59-5.836,101.342,9.55s80.117,68.976,126.014,68.976
			C600.848,126.022,577,529,577,529H-0.832L-1,16.988z"/>
		<path fill="#ECDFBC" d="M100.236,18.137c0.61-1.353,2.626-1.008,2.785,0.451c0.398,3.582,1.671,9.391,5.651,10.665
			c5.836,1.857,5.624-0.053,9.55,3.714c7.163,6.897,5.306,1.061,13,3.183c7.693,2.123,8.224,8.224,13.795,8.224
			c5.571,0,13.238,9.551,19.101,9.551c5.571,0-1.857,7.958-11.407,3.979c-9.551-3.979-17.509-11.673-21.224-13.53
			c-3.714-1.857-13.53,2.918-17.509-0.796c-3.979-3.714-9.285-6.897-12.999-10.611C98.246,30.234,98.405,22.196,100.236,18.137z"/>
		<path fill="#ECDFBC" d="M214.205,34.24c-1.3-0.159-1.857-1.778-0.902-2.68c3.475-3.449,14.67-10.107,22.974-8.94
			c10.453,1.459,16.183,11.832,20.772,13.291c2.786,0.875,8.781-1.671,11.912,2.918s9.206,5.863,12.124,7.534
			c2.918,1.671,0,4.802-8.993,1.671c-8.994-3.13-10.453-7.534-15.042-7.534c-4.59,0-15.095-8.755-22.629-10.214
			C229.459,29.332,219.245,34.797,214.205,34.24z"/>
		<path fill="#ECDFBC" d="M352.74,54.747c0,0,17.588-3.714,26.793-1.379c15.389,3.899,38.203,6.659,38.203,9.975
			c0,2.733-15.121,0.982-22.814-0.398c-7.693-1.379-11.408-6.659-17.244-5.279c-5.838,1.38-22.523,2.732-28.652,2.732
			c-5.836,0-9.551-1.379-9.551-2.732C339.475,56.313,345.047,57.479,352.74,54.747z"/>
		<path fill="#ECDFBC" d="M361.361,70.797c6.182,0.849,12.973-2.228,18.518,0.159c1.777,0.77,3.156,1.99,4.881,2.865
			c5.227,2.653,12.443,1.38,17.59,4.165c1.857,1.008,3.289,2.467,4.986,3.688c2.68,1.884,6.076,3.104,9.604,3.396
			c-7.48,1.831-15.52-0.292-22.682-2.865s-14.352-5.677-22.178-5.836c-2.123-0.053-4.246,0.133-6.314-0.106
			c-3.768-0.424-7.109-2.096-10.744-2.998c-3.635-0.902-8.172-0.769-10.479,1.671"/>
		<path fill="#ECDFBC" d="M238.957,51.723c-4.112-0.955-6.102-5.757-9.816-7.747c-3.528-1.91-8.012-0.955-11.726-2.494
			c-4.908-2.016-10.718-5.279-13.821,1.539c5.677,1.114,11.885-0.743,17.96,0.823C227.734,45.436,233.412,48.646,238.957,51.723z"/>
		<path fill="#ECDFBC" d="M122.308,60.955c2.6,2.494,3.979,6.313,7.216,7.905c-4.351-0.689-8.489-2.6-11.858-5.438
			c-1.698-1.433-3.263-3.13-5.333-3.926c-5.624-2.149-18.809,1.698-18.518-8.489c4.643,1.884,8.569,4.245,13.795,5.2
			C112.705,57.161,118.329,57.135,122.308,60.955z"/>
		<path fill="#ECDFBC" d="M49.273,20.232c-8.145,1.141-16.448,0.398-24.619,1.194c-1.512,0.159-3.104,0.372-4.324,1.273
			s-1.963,2.68-1.194,3.979c0.557,0.981,1.724,1.433,2.812,1.777c5.226,1.565,10.797,1.99,16.209,1.247
			c-0.451,3.449,3.82,5.412,7.269,5.969c0.795,0.132,1.671,0.238,2.361-0.212c1.884-1.194,0.026-4.112,0.292-6.34
			c0.371-3.051,4.457-3.714,7.508-3.582c5.518,0.239,11.036,0.451,16.554,0.689c0.557,0.027,1.141,0.053,1.565,0.425
			c0.451,0.398,0.531,1.087,0.557,1.698c0.159,2.44,0.318,4.855,0.478,7.295c0.08,1.3,7.826-0.372,8.648-1.061
			c3.449-2.839,0.637-4.271,1.618-7.349c1.353-4.218,5.12-3.767,0.159-7.057C76.015,14.078,58.85,18.88,49.273,20.232z"/>
		<path fill="#ECDFBC" d="M63.731,34.691c-1.433-0.875-3.157-1.273-4.828-1.114c-0.372,0.027-0.77,0.133-1.008,0.398
			c-0.504,0.637,0.159,1.539,0.796,2.043c1.008,0.796,2.043,1.645,3.316,1.883c1.247,0.239,2.786-0.292,3.184-1.512"/>
	</g>
</g>
</svg>
