<?xml version="1.0" encoding="utf-8"?>
<!-- Generator: Adobe Illustrator 23.0.1, SVG Export Plug-In . SVG Version: 6.00 Build 0)  -->
<svg version="1.1" id="Layer_1" xmlns="http://www.w3.org/2000/svg" xmlns:xlink="http://www.w3.org/1999/xlink" x="0px" y="0px"
	 viewBox="0 0 2306.9 2162.5" style="enable-background:new 0 0 2306.9 2162.5;" xml:space="preserve">
<style type="text/css">
	.st0{fill:#546071;}
	.st1{fill:#ECDFBC;}
</style>
<g>
	<path class="st0" d="M54.2,155c0,0,295-7,338-43s22,6,36,14s51-35,65-28s22,50,36,57s19,30,50,36s7,36,43,36s72.4,40,108,36
		c72-8,116-129,238-115s129,107,302,122c173,15,202-22,382,36s302,260,475,260s-21,1519-21,1519l-2074-29L54.2,155z"/>
	<path class="st1" d="M409.4,163.1c2.3-5.1,9.9-3.8,10.5,1.7c1.5,13.5,6.3,35.4,21.3,40.2c22,7,21.2-0.2,36,14c27,26,20,4,49,12
		c29,8,31,31,52,31s49.9,36,72,36c21,0-7,30-43,15s-66-44-80-51c-14-7-51,11-66-3c-15-14-35-26-49-40
		C401.9,208.7,402.5,178.4,409.4,163.1z"/>
	<path class="st1" d="M839,223.8c-4.9-0.6-7-6.7-3.4-10.1c13.1-13,55.3-38.1,86.6-33.7c39.4,5.5,61,44.6,78.3,50.1
		c10.5,3.3,33.1-6.3,44.9,11c11.8,17.3,34.7,22.1,45.7,28.4s0,18.1-33.9,6.3c-33.9-11.8-39.4-28.4-56.7-28.4s-56.9-33-85.3-38.5
		C896.5,205.3,858,225.9,839,223.8z"/>
	<path class="st1" d="M1361.2,301.1c0,0,66.3-14,101-5.2c58,14.7,144,25.1,144,37.6c0,10.3-57,3.7-86-1.5c-29-5.2-43-25.1-65-19.9
		s-84.9,10.3-108,10.3c-22,0-36-5.2-36-10.3S1332.2,311.4,1361.2,301.1z"/>
	<path class="st1" d="M1393.7,361.6c23.3,3.2,48.9-8.4,69.8,0.6c6.7,2.9,11.9,7.5,18.4,10.8c19.7,10,46.9,5.2,66.3,15.7
		c7,3.8,12.4,9.3,18.8,13.9c10.1,7.1,22.9,11.7,36.2,12.8c-28.2,6.9-58.5-1.1-85.5-10.8c-27-9.7-54.1-21.4-83.6-22
		c-8-0.2-16,0.5-23.8-0.4c-14.2-1.6-26.8-7.9-40.5-11.3c-13.7-3.4-30.8-2.9-39.5,6.3"/>
	<path class="st1" d="M932.3,289.7c-15.5-3.6-23-21.7-37-29.2c-13.3-7.2-30.2-3.6-44.2-9.4c-18.5-7.6-40.4-19.9-52.1,5.8
		c21.4,4.2,44.8-2.8,67.7,3.1C890,266,911.4,278.1,932.3,289.7z"/>
	<path class="st1" d="M492.6,324.5c9.8,9.4,15,23.8,27.2,29.8c-16.4-2.6-32-9.8-44.7-20.5c-6.4-5.4-12.3-11.8-20.1-14.8
		c-21.2-8.1-70.9,6.4-69.8-32c17.5,7.1,32.3,16,52,19.6C456.4,310.2,477.6,310.1,492.6,324.5z"/>
	<path class="st1" d="M217.3,171c-30.7,4.3-62,1.5-92.8,4.5c-5.7,0.6-11.7,1.4-16.3,4.8c-4.6,3.4-7.4,10.1-4.5,15
		c2.1,3.7,6.5,5.4,10.6,6.7c19.7,5.9,40.7,7.5,61.1,4.7c-1.7,13,14.4,20.4,27.4,22.5c3,0.5,6.3,0.9,8.9-0.8
		c7.1-4.5,0.1-15.5,1.1-23.9c1.4-11.5,16.8-14,28.3-13.5c20.8,0.9,41.6,1.7,62.4,2.6c2.1,0.1,4.3,0.2,5.9,1.6c1.7,1.5,2,4.1,2.1,6.4
		c0.6,9.2,1.2,18.3,1.8,27.5c0.3,4.9,29.5-1.4,32.6-4c13-10.7,2.4-16.1,6.1-27.7c5.1-15.9,19.3-14.2,0.6-26.6
		C318.1,147.8,253.4,165.9,217.3,171z"/>
	<path class="st1" d="M271.8,225.5c-5.4-3.3-11.9-4.8-18.2-4.2c-1.4,0.1-2.9,0.5-3.8,1.5c-1.9,2.4,0.6,5.8,3,7.7
		c3.8,3,7.7,6.2,12.5,7.1c4.7,0.9,10.5-1.1,12-5.7"/>
</g>
</svg>
