<?xml version="1.0" encoding="utf-8"?>
<!-- Generator: Adobe Illustrator 23.0.1, SVG Export Plug-In . SVG Version: 6.00 Build 0)  -->
<svg version="1.1" id="Layer_1" xmlns="http://www.w3.org/2000/svg" xmlns:xlink="http://www.w3.org/1999/xlink" x="0px" y="0px"
	 viewBox="0 0 291.5 214.9" style="enable-background:new 0 0 291.5 214.9;" xml:space="preserve">
<style type="text/css">
	.st0{fill:#AD9056;}
	.st1{fill:none;stroke:#ECDFBC;stroke-linecap:round;stroke-linejoin:round;stroke-miterlimit:10;}
	.st2{fill:none;stroke:#AD9056;stroke-miterlimit:10;}
</style>
<g>
	<path class="st0" d="M178.1,120.6c0,0-84.5,1-97.6-54.8S70.2,14.4,70.2,14.4s51.7,25.5,73.4,49.6s32.7,48.6,32.7,48.6L178.1,120.6z
		"/>
	<path class="st0" d="M202.6,135c0,0-16.2-19.8-15.9-39.5c0.3-19.7,5.9-16,6.5-28c0,0,21.7,24.9,20.7,43.5s-6.1,24.1-6.1,24.1H202.6
		z"/>
	<path class="st0" d="M166.4,142.2c0,0-19.3,32.5-32.7,44c-13.4,11.5-44.5,10.7-56.5,11.8c0,0,8.6-12.7,9-20.3
		c0.3-7.6,18.3-28.3,50.7-32.7C169.2,140.6,166.4,142.2,166.4,142.2z"/>
	<path class="st1" d="M183.6,125.4c0,0-37.9-22.9-45.8-29.9s-27.9-21.8-40.7-42.1"/>
	<path class="st1" d="M116.1,90.9c0,0,18.3,18.3,52.2,25"/>
	<path class="st1" d="M104.4,178.1c0,0,22.8-21,36-25.9s23.3-8.6,33.3-8.3"/>
	<path class="st1" d="M200.4,107.2c0,0,3.3,32.3,13.6,38.9"/>
	<line class="st2" x1="175.7" y1="115.9" x2="233" y2="168.3"/>
	<line class="st2" x1="200.4" y1="131.3" x2="210.7" y2="147.9"/>
	<path class="st2" d="M163.3,141.7c0,0,23.5-2.9,43.1,2.3"/>
</g>
</svg>
