<?xml version="1.0" encoding="utf-8"?>
<!-- Generator: Adobe Illustrator 23.0.1, SVG Export Plug-In . SVG Version: 6.00 Build 0)  -->
<svg version="1.1" id="Layer_1" xmlns="http://www.w3.org/2000/svg" xmlns:xlink="http://www.w3.org/1999/xlink" x="0px" y="0px"
	 viewBox="0 0 291.5 214.9" style="enable-background:new 0 0 291.5 214.9;" xml:space="preserve">
<style type="text/css">
	.st0{fill:#AD9056;}
	.st1{fill:none;stroke:#AD9056;stroke-miterlimit:10;}
	.st2{fill:none;stroke:#ECDFBC;stroke-linecap:round;stroke-linejoin:round;stroke-miterlimit:10;}
</style>
<g>
	<g>
		<path class="st0" d="M121.5,125c0,0-20-2.9-13.5-25.1c6.5-22.2,32.7-66.1,52.1-69.9c0,0-4.1,20-4.1,27.7c0,0,7.5,66.2-27.6,69
			L121.5,125z"/>
		<path class="st0" d="M165.2,122.1c0,0,5.6-32.3,23.5-53.5s46.2-45.8,46.2-45.8s22-14.2,13.1,17c0,0-4.8,17-7.5,25.3
			c-2.7,8.3-4.1,17.4-25.4,30.9L165.2,122.1z"/>
		<path class="st0" d="M186.7,123.7c0,0,16.3-17.4,34.2-15.2l12.7,0.3c0,0-13,19.2-20,20.5C206.7,130.6,186.7,123.7,186.7,123.7z"/>
		<path class="st0" d="M136.9,166.4c2.2-0.3,22.8-23.6,60.3-9.2l27.7,15.3c0,0-43.5,33.1-72.2,12L136.9,166.4z"/>
		<path class="st1" d="M136.9,166.4c0,0-39.3-14.7-99.2,25.5"/>
		<path class="st1" d="M121.5,125c0,0-5.1,29.8-22.2,40.4"/>
		<path class="st1" d="M168.3,116.4c0,0-45.8,34.9-62,42.9"/>
		<path class="st1" d="M192.1,122.4c0,0-8-3.2-36.9,3.8"/>
	</g>
	<line class="st2" x1="230.9" y1="51.9" x2="227" y2="59"/>
	<path class="st2" d="M220.7,70.5c0,0-33.7,39.8-53.2,50.4"/>
	<line class="st2" x1="143.1" y1="55.2" x2="141.5" y2="58.1"/>
	<path class="st2" d="M137.8,64.7c0,0-21.7,47.7-14.5,61.3"/>
	<path class="st2" d="M138,99.5c0,0-15.6,15.1-16.1,20.3"/>
	<line class="st2" x1="139.3" y1="167.7" x2="178.9" y2="173.2"/>
	<path class="st2" d="M189.6,121c0,0,16.4,3.9,21.6,0.5"/>
</g>
</svg>
