<?xml version="1.0" encoding="utf-8"?>
<!-- Generator: Adobe Illustrator 22.0.0, SVG Export Plug-In . SVG Version: 6.00 Build 0)  -->
<svg version="1.1" id="Layer_1" xmlns="http://www.w3.org/2000/svg" xmlns:xlink="http://www.w3.org/1999/xlink" x="0px" y="0px"
	 viewBox="0 0 885 220" style="enable-background:new 0 0 885 220;" xml:space="preserve">
<style type="text/css">
	.st0{fill:#ECDFBC;stroke:#546071;stroke-width:1.2837;stroke-miterlimit:10;}
	.st1{fill:none;stroke:#546071;stroke-width:1.2837;stroke-miterlimit:10;}
	.st2{fill:#546071;}
</style>
<g>
	<g>
		<path class="st0" d="M157.8,209.3l-141.7,3.1l43.3-43.1L4.3,144.6c0,0,102.3-29.9,153.5-38.1"/>
		<path class="st0" d="M728.7,208.4l141.5,6.5l-43.3-43.1l55.1-24.6c0,0-102.3-29.9-153.5-38.1"/>
		<path class="st0" d="M799.5,173l-71,35.6V150l69.3,23C798.6,173.3,800.2,172.7,799.5,173z"/>
		<polygon class="st0" points="87,176.2 157.8,208.5 157.8,150 		"/>
		<path class="st0" d="M221,151.1c0,0-98.7,12.8-134.1,25.1c0-33.9,0-92.4,0-92.4s59-27.7,133.8-37"/>
		<path class="st0" d="M665.6,151.6c0,0,98.4,9.2,133.8,21.6c0-33.9,0-92.4,0-92.4s-59-27.7-133.8-37"/>
		<polygon class="st0" points="148.5,115 220.8,151.1 220.8,92.6 		"/>
		<polygon class="st0" points="738.6,115 665.6,151.1 665.6,92.6 		"/>
		<path class="st0" d="M148,114.1c0,0,165.7-18.5,295.6-18.5s294.8,18.5,294.8,18.5V24.8c0,0-164.9-18.2-294.8-18.2
			S148,24.8,148,24.8V114.1z"/>
		<path class="st0" d="M148.5,31.8c0,0,90.6-19.3,295-19.3s295,20,295,20"/>
		<path class="st1" d="M148.5,107.9c0,0,107.1-18.7,295-18.7s295,19.3,295,19.3"/>
		<path class="st0" d="M87,90.8c0,0,46.6-16.1,61-19.6"/>
		<path class="st0" d="M87,167.3c0,0,59.5-17,118.6-23.8"/>
		<path class="st0" d="M799.4,88.1c0,0-46.6-16.1-61-19.6"/>
		<path class="st0" d="M799.4,164.6c0,0-55.2-16.3-114.3-23.1"/>
		<polyline class="st1" points="144,202.2 36,204.5 76.3,165 27.1,146.8 85.8,130.3 		"/>
		<polyline class="st1" points="799.7,132.5 860.5,147.9 815.5,170.3 851.6,208.8 742.2,201.7 		"/>
	</g>
	<g>
		<g>
			<path class="st2" d="M198.4,54.8c-0.1,2.1-0.2,3.2-0.3,5.3c-0.2,0-0.2,0-0.4,0c-0.1-0.6-0.1-1-0.2-1.6c-0.3-0.8-0.5-1.2-0.8-2
				c-0.3-0.2-0.4-0.3-0.7-0.6c-0.5-0.1-0.7-0.1-1.2-0.2c-1.3,0.2-2,0.2-3.3,0.4c-0.4,0.2-0.6,0.3-1.1,0.5c-0.3,0.3-0.4,0.5-0.6,0.8
				c-0.5,2.8-0.7,4.2-1.1,7c0.8-0.1,1.3-0.2,2.1-0.3c0.4-0.2,0.7-0.3,1.1-0.5c0.4-0.5,0.6-0.8,1.1-1.3c0.5-1.3,0.7-2,1.2-3.4
				c-0.5,4-0.8,6-1.3,10c-0.2-1.3-0.2-1.9-0.4-3.1c-0.2-0.4-0.4-0.6-0.6-1c-0.4-0.1-0.6-0.2-1.1-0.4c-0.9,0.1-1.3,0.2-2.2,0.3
				c-0.5,3.2-0.8,4.8-1.3,8.1c0.1,0.2,0.2,0.3,0.3,0.5c0.4,0.1,0.6,0.1,0.9,0.2c0.3,0,0.5-0.1,0.8-0.1c0,0.2,0,0.2,0,0.4
				c-2.7,0.3-4,0.5-6.6,0.8c0-0.2,0-0.2,0-0.4c0.3,0,0.5-0.1,0.8-0.1c0.4-0.2,0.6-0.3,1.1-0.5c0.3-0.3,0.4-0.5,0.6-0.8
				c1-6.2,1.5-9.3,2.5-15.5c-0.1-0.2-0.2-0.3-0.3-0.5c-0.4-0.1-0.6-0.1-0.9-0.2c-0.3,0-0.5,0.1-0.8,0.1c0-0.2,0-0.2,0-0.4
				C190.7,55.7,193.3,55.4,198.4,54.8z"/>
			<path class="st2" d="M218.5,67c-0.3,0.7-0.4,1.1-0.7,1.8c-0.6,0.8-0.9,1.2-1.6,1.9c-0.7,0.1-1.1,0.1-1.8,0.2
				c-0.4-0.3-0.6-0.5-1.1-0.8l0,0c-0.4-0.6-0.6-0.9-1-1.6c-0.1-0.9-0.1-1.3-0.2-2.2c-0.1,0.6-0.2,0.9-0.3,1.4
				c-0.3,0.7-0.4,1.1-0.6,1.8c-0.3,0.4-0.5,0.6-0.8,1c-0.7,0.4-1,0.6-1.6,1c-0.7,0.1-1.1,0.1-1.8,0.2l0,0c-0.7-0.3-1.1-0.4-1.8-0.6
				c-0.4-0.3-0.6-0.5-1-0.8c-0.5-1-0.7-1.5-1.2-2.4c-0.1-0.7-0.1-1-0.2-1.7c0.2-1.1,0.3-1.6,0.6-2.6c0.6-1.1,0.8-1.7,1.4-2.8
				c1-0.5,1.5-0.7,2.5-1.1c0.7-0.1,1.1-0.1,1.8-0.2c0.8,0.3,1.1,0.4,1.9,0.7c0.5,1,0.7,1.5,1.1,2.5c0.1,0.5,0.1,0.7,0.1,1.2
				c0.3-1.9,0.5-2.9,0.8-4.8c0.8-0.1,1.2-0.1,2.1-0.2c-0.7,3.5-1,5.2-1.6,8.7c0.1,1,0.2,1.4,0.3,2.4c0.3,0.2,0.5,0.4,0.8,0.6
				c0.6-0.1,0.9-0.1,1.5-0.2c0.6-0.7,0.8-1.1,1.4-1.7c0.3-0.7,0.4-1,0.6-1.7C218.3,66.9,218.3,66.9,218.5,67z M212,65.1
				c-0.1-1-0.2-1.5-0.3-2.4c-0.4-0.9-0.6-1.4-1.1-2.3c-0.7-0.2-1-0.4-1.6-0.6c-0.6,0.1-0.9,0.1-1.5,0.2c-0.6,0.7-0.8,1.1-1.4,1.8
				c-0.3,0.7-0.4,1-0.6,1.7c-0.2,1-0.3,1.5-0.5,2.5c0.1,1,0.2,1.5,0.3,2.4c0.4,0.9,0.7,1.4,1.1,2.3c0.3,0.3,0.5,0.4,0.8,0.6
				c0.6-0.1,0.9-0.1,1.5-0.2c0.6-0.4,0.9-0.6,1.5-1c0.3-0.3,0.4-0.5,0.7-0.9c0.3-0.7,0.4-1,0.7-1.7C211.7,66.6,211.8,66.1,212,65.1z
				"/>
			<path class="st2" d="M229.3,57.6c-1.3,0.1-1.9,0.2-3.1,0.3c-0.6,3.7-0.9,5.5-1.6,9.2c0.1,0.6,0.1,0.9,0.2,1.6
				c0.3,0.3,0.5,0.4,0.8,0.6c0.6-0.1,0.9-0.1,1.5-0.2c0.6-0.7,0.8-1,1.4-1.7c0.3-0.7,0.4-1,0.7-1.7c0.1,0.1,0.2,0.1,0.4,0.1
				c-0.3,0.7-0.4,1.1-0.7,1.8c-0.6,0.8-0.9,1.1-1.6,1.9c-0.7,0.1-1.1,0.1-1.8,0.2c-0.4-0.3-0.6-0.5-1-0.8c-0.4-0.6-0.6-1-1-1.6
				c-0.1-1-0.2-1.5-0.3-2.6c0.4-2.6,0.6-3.9,1-6.6c-1.3,0.1-1.9,0.2-3.2,0.3c0-0.1,0-0.2,0-0.4c1.3-0.1,2-0.2,3.3-0.4
				c0.4-2.4,0.6-3.6,0.9-5.9c0.8-0.1,1.2-0.1,2.1-0.2c-0.4,2.4-0.6,3.6-1,6c1.2-0.1,1.8-0.2,3.1-0.3
				C229.2,57.4,229.2,57.4,229.3,57.6z"/>
			<path class="st2" d="M248.7,63.9c-0.3,0.7-0.4,1.1-0.7,1.8c-0.6,0.8-0.9,1.2-1.6,2c-0.7,0-1.1,0.1-1.8,0.1
				c-0.4-0.3-0.6-0.5-1-0.9l0,0c-0.4-0.6-0.6-0.9-1-1.6c-0.1-1-0.2-1.5-0.3-2.6c0.5-1.7,0.8-2.6,1.3-4.3c-0.1-0.6-0.1-0.9-0.1-1.5
				c-0.6-0.2-1-0.4-1.6-0.6c-0.6,0.1-0.9,0.1-1.6,0.2c-0.6,0.4-0.9,0.6-1.5,1c-0.6,0.7-0.9,1.1-1.5,1.8c-0.5,1.4-0.8,2.1-1.3,3.4
				c-0.4,2.4-0.7,3.6-1.1,6.1c-0.8,0.1-1.2,0.1-2.1,0.2c1.2-6.8,1.9-10.2,3.1-17c-0.1-0.2-0.2-0.3-0.4-0.5c-0.4-0.1-0.6-0.1-0.9-0.2
				c-0.3,0-0.5,0-0.8,0.1c0-0.2,0-0.2,0-0.4c1.8-0.2,2.7-0.3,4.5-0.4c-0.8,4-1.1,6.1-1.9,10.1c0.2-0.6,0.4-1,0.6-1.6
				c0.6-0.8,0.9-1.1,1.6-1.9c0.7-0.4,1-0.6,1.7-1c0.7-0.1,1.1-0.1,1.8-0.2c0.7,0.3,1.1,0.4,1.9,0.7c0.4,0.7,0.6,1,1,1.7
				c0.1,1,0.2,1.5,0.3,2.5c-0.5,1.7-0.8,2.6-1.4,4.3c0.1,0.6,0.1,0.9,0.1,1.5c0.3,0.3,0.5,0.4,0.8,0.6c0.6,0,0.9,0,1.5-0.1
				c0.6-0.7,0.9-1.1,1.4-1.8c0.3-0.7,0.4-1,0.7-1.7C248.5,63.8,248.6,63.8,248.7,63.9z"/>
			<path class="st2" d="M261.7,56.8c-0.3,0.7-0.5,1.1-0.8,1.9c-1,0.8-1.4,1.2-2.4,1.9c-1,0.4-1.5,0.6-2.5,1.1
				c-0.9,0.3-1.4,0.5-2.3,0.8c0,0.4,0,0.5,0.1,0.9c0.4,0.9,0.6,1.4,1,2.3c0.3,0.3,0.5,0.4,0.8,0.7c0.6-0.1,0.9-0.1,1.6-0.1
				c0.9-0.4,1.4-0.6,2.4-1c0.6-0.7,0.9-1.1,1.5-1.8c0.1,0.1,0.2,0.2,0.3,0.3c-0.6,0.7-0.9,1.1-1.6,1.8c-1,0.4-1.5,0.6-2.5,1.1
				c-0.7,0.1-1,0.1-1.7,0.2c-0.7-0.3-1.1-0.4-1.8-0.7c-0.4-0.3-0.6-0.5-1-0.8c-0.4-1-0.7-1.5-1.1-2.5c-0.1-0.7-0.1-1-0.2-1.7
				c0.3-1.1,0.4-1.6,0.6-2.6c0.6-1.1,0.9-1.6,1.5-2.7c1-0.4,1.5-0.6,2.5-1.1c1-0.1,1.6-0.1,2.6-0.2c0.7,0.3,1.1,0.4,1.8,0.7
				C261.1,55.8,261.3,56.1,261.7,56.8z M261.3,56.8c-0.4-0.6-0.5-0.9-0.9-1.4c-0.7-0.3-1-0.4-1.7-0.6c-1,0.1-1.4,0.1-2.4,0.2
				c-0.6,0.7-0.9,1-1.4,1.7c-0.3,0.7-0.4,1-0.7,1.7c-0.2,1-0.4,1.5-0.6,2.5c0,0.5,0.1,0.7,0.1,1.2c0.9-0.3,1.3-0.5,2.2-0.8
				c1-0.4,1.4-0.6,2.4-1c0.9-0.7,1.4-1.1,2.3-1.8C260.9,57.8,261.1,57.5,261.3,56.8z"/>
			<path class="st2" d="M278.6,55.6c-0.8,0.1-1.2,0.1-2.1,0.2c-0.1-0.8-0.1-1.2-0.2-2c0.6,0,0.8-0.1,1.4-0.1
				c-0.2-0.2-0.3-0.2-0.5-0.4c-0.6,0-0.9,0.1-1.6,0.1c-0.6,0.4-0.9,0.6-1.5,0.9c-0.6,0.7-0.9,1-1.5,1.7c-0.6,1.4-0.8,2-1.4,3.4
				c-0.5,2.4-0.7,3.6-1.2,6c-0.8,0.1-1.2,0.1-2,0.2c0.7-3.8,1.1-5.7,1.8-9.5c-0.1-0.6-0.1-0.9-0.1-1.6c-0.3-0.3-0.5-0.4-0.8-0.7
				c-0.6,0.1-0.9,0.1-1.5,0.1c-0.6,0.7-0.9,1-1.4,1.7c-0.3,0.7-0.4,1-0.7,1.7c-0.1-0.1-0.2-0.1-0.3-0.2c0.3-0.7,0.4-1.1,0.7-1.8
				c0.7-0.7,1-1.1,1.6-1.9c0.7-0.1,1.1-0.1,1.8-0.2c0.4,0.3,0.6,0.5,1,0.8c0.4,0.7,0.6,1,1,1.6c0.1,1,0.1,1.5,0.2,2.6
				c0.4-1.1,0.7-1.6,1.1-2.7c0.6-0.7,0.9-1.1,1.6-1.8c0.7-0.4,1-0.6,1.7-1c0.7-0.1,1.1-0.1,1.8-0.1c0.4,0.3,0.6,0.5,1,0.9
				C278.5,54.4,278.5,54.8,278.6,55.6z"/>
			<path class="st2" d="M311.7,56.4c-0.3,1-0.4,1.6-0.7,2.6c-0.6,1.1-0.9,1.6-1.6,2.7c-1,0.4-1.5,0.6-2.5,1
				c-1.1,0.1-1.6,0.1-2.6,0.2c-1-0.3-1.5-0.4-2.6-0.7c-0.4-0.3-0.6-0.5-1-0.8c-0.4-1-0.6-1.5-1-2.5c0-0.7-0.1-1-0.1-1.7
				c0.3-1,0.4-1.6,0.7-2.6c0.6-1.1,0.9-1.6,1.5-2.7c1-0.4,1.5-0.6,2.5-1c1.1-0.1,1.6-0.1,2.7-0.2c1,0.3,1.6,0.4,2.6,0.7
				c0.4,0.3,0.6,0.5,1,0.8c0.4,1,0.6,1.5,1,2.5C311.6,55.4,311.6,55.7,311.7,56.4z M309.6,56.5c-0.1-1-0.1-1.4-0.2-2.4
				c-0.4-0.9-0.6-1.4-1-2.3c-0.6-0.3-1-0.4-1.6-0.7c-1,0.1-1.4,0.1-2.4,0.2c-0.6,0.7-0.9,1-1.5,1.7c-0.5,1.7-0.8,2.5-1.4,4.2
				c0.1,1,0.1,1.4,0.2,2.4c0.4,0.9,0.6,1.4,1,2.3c0.6,0.3,1,0.4,1.6,0.7c1-0.1,1.4-0.1,2.4-0.2c0.6-0.7,0.9-1,1.5-1.7
				C308.8,59,309.1,58.1,309.6,56.5z"/>
			<path class="st2" d="M328,46.5c-0.8,0-1.2,0.1-2.1,0.1c0-0.8-0.1-1.2-0.1-2c0.6,0,0.9,0,1.4-0.1c-0.2-0.2-0.3-0.3-0.5-0.4
				c-0.6,0-0.9,0.1-1.5,0.1c-0.6,0.7-0.9,1-1.5,1.7c-0.3,0.7-0.5,1-0.8,1.7c-0.2,0.9-0.4,1.4-0.6,2.3c1.6-0.1,2.4-0.1,3.9-0.2
				c0,0.1,0,0.2,0,0.4c-1.6,0.1-2.4,0.1-4,0.2c-0.2,1.6-0.4,2.4-0.6,4.1c-0.5,2.7-0.8,4-1.3,6.7c-0.3,1-0.4,1.5-0.7,2.5
				c-0.3,0.7-0.4,1.1-0.7,1.8c-0.6,0.7-1,1.1-1.6,1.8c-0.7,0.4-1,0.6-1.7,1c-0.7,0-1.1,0.1-1.8,0.1c-0.4-0.4-0.6-0.5-1-0.9
				c0-0.8-0.1-1.2-0.1-1.9c0.8-0.1,1.2-0.1,2-0.1c0.1,0.8,0.1,1.2,0.1,2c-0.6,0-0.8,0.1-1.4,0.1c0.2,0.2,0.3,0.3,0.5,0.4
				c0.6,0,0.9-0.1,1.5-0.1c0.6-0.7,0.9-1,1.5-1.7c0.3-0.7,0.4-1,0.7-1.7c0.3-1,0.4-1.5,0.7-2.5c0.2-1.7,0.4-2.5,0.6-4.2
				c0.6-2.9,0.9-4.4,1.5-7.3c-1.3,0.1-2,0.1-3.4,0.2c0-0.1,0-0.2,0-0.4c1.4-0.1,2.1-0.1,3.5-0.2c0.2-0.6,0.3-0.9,0.4-1.6
				c0.3-0.7,0.4-1.1,0.7-1.8c0.6-0.7,1-1.1,1.6-1.8c0.7-0.4,1-0.6,1.7-1c0.7,0,1.1-0.1,1.8-0.1c0.4,0.4,0.6,0.5,1,0.9
				C328,45.3,328,45.7,328,46.5z"/>
			<path class="st2" d="M362.8,46.3c-0.3,1-0.5,1.6-0.8,2.6c-0.4,0.4-0.5,0.6-0.9,0.9c-1,0.4-1.5,0.6-2.5,1c-1,0-1.5,0.1-2.6,0.1
				c0.4,0.2,0.6,0.3,1,0.4c0.4,0.3,0.6,0.5,0.9,0.9c0.7,2,1.1,2.9,1.9,4.9c0.3,0.3,0.5,0.4,0.8,0.7c0.3,0,0.4,0,0.7,0
				c0.3-0.3,0.4-0.4,0.7-0.7c0-0.3,0-0.5,0-0.8c0.1,0,0.2,0,0.4,0c0,0.4,0,0.5,0,0.9c-0.3,1.1-0.5,1.6-0.8,2.6c-0.8,0-1.1,0-1.9,0.1
				c-0.4-0.4-0.6-0.5-1-0.9c-0.4-2.6-0.7-4-1.1-6.6c-0.3-0.3-0.5-0.4-0.8-0.7c-0.7-0.3-1-0.4-1.6-0.7c-1.2,0.1-1.8,0.1-3,0.1
				c-0.8,3.2-1.2,4.8-1.9,8c0.1,0.2,0.2,0.3,0.3,0.6c0.4,0.1,0.5,0.2,0.9,0.3c0.3,0,0.5,0,0.8,0c0,0.2,0,0.2,0,0.4
				c-2.7,0.1-4,0.2-6.7,0.3c0-0.2,0-0.2,0-0.4c0.3,0,0.5,0,0.8,0c0.5-0.2,0.7-0.3,1.1-0.4c0.3-0.3,0.4-0.4,0.7-0.7
				c1.5-6.1,2.2-9.2,3.7-15.3c-0.1-0.2-0.2-0.3-0.3-0.5c-0.4-0.1-0.6-0.2-0.9-0.3c-0.3,0-0.5,0-0.8,0c0-0.2,0-0.2,0-0.4
				c3.7-0.2,5.6-0.2,9.3-0.4c1.1,0.3,1.6,0.5,2.6,0.8c0.4,0.7,0.6,1,1,1.7C362.8,45.3,362.8,45.6,362.8,46.3z M360.8,46.4
				c0-0.6,0-1-0.1-1.6c-0.4-0.6-0.5-0.9-0.9-1.6c-0.3-0.3-0.5-0.4-0.8-0.7c-1.3,0.1-2,0.1-3.3,0.1c-0.4,0.2-0.7,0.2-1.1,0.4
				c-0.3,0.3-0.4,0.4-0.7,0.7c-0.7,2.8-1,4.2-1.7,6.9c2.5-0.1,3.7-0.2,6.2-0.3c0.6-0.7,0.9-1,1.5-1.6
				C360.3,47.8,360.5,47.3,360.8,46.4z"/>
			<path class="st2" d="M380,53.2c-0.3,1-0.5,1.6-0.8,2.6c-0.7,1-1,1.6-1.6,2.6c-1,0.4-1.5,0.6-2.5,0.9c-1.1,0-1.6,0-2.6,0.1
				c-1-0.3-1.5-0.4-2.6-0.7c-0.4-0.3-0.6-0.5-0.9-0.9c-0.4-1-0.6-1.5-1-2.5c0-0.7,0-1-0.1-1.7c0.3-1,0.5-1.6,0.8-2.6
				c0.6-1.1,1-1.6,1.6-2.6c1-0.4,1.5-0.6,2.5-0.9c1.1,0,1.6,0,2.7-0.1c1,0.3,1.5,0.4,2.6,0.7c0.4,0.3,0.6,0.5,0.9,0.9
				c0.4,1,0.6,1.5,0.9,2.5C379.9,52.2,380,52.5,380,53.2z M377.9,53.2c0-1,0-1.5-0.1-2.4c-0.4-0.9-0.5-1.4-0.9-2.3
				c-0.6-0.3-1-0.4-1.6-0.7c-1,0-1.4,0-2.4,0.1c-0.6,0.7-0.9,1-1.5,1.6c-0.6,1.7-0.9,2.5-1.5,4.2c0,1,0.1,1.5,0.1,2.4
				c0.4,0.9,0.5,1.4,0.9,2.3c0.6,0.3,0.9,0.4,1.6,0.7c1,0,1.4,0,2.4-0.1c0.6-0.6,0.9-1,1.5-1.6C377,55.7,377.3,54.9,377.9,53.2z"/>
			<path class="st2" d="M399.3,46.7c-1.3,4.8-1.9,7.2-3.2,12c-0.6,1.4-1,2-1.6,3.4c-0.7,0.7-1,1-1.7,1.7c-1,0.4-1.5,0.6-2.5,0.9
				c-1,0-1.5,0-2.6,0.1c-0.7-0.3-1.1-0.5-1.8-0.8c-0.4-0.4-0.6-0.5-0.9-0.9c0-0.8,0-1.2-0.1-1.9c0.8,0,1.2,0,2-0.1
				c0,0.8,0,1.2,0.1,2c-0.6,0-0.8,0-1.4,0c0.2,0.2,0.3,0.3,0.5,0.5c0.6,0.3,1,0.5,1.6,0.8c1,0,1.4,0,2.4-0.1
				c0.6-0.3,0.9-0.5,1.6-0.8c0.6-1,0.9-1.5,1.6-2.5c0.3-1,0.5-1.5,0.8-2.5c0.4-1.5,0.6-2.3,1-3.8c-0.3,0.6-0.4,0.9-0.7,1.5
				c-0.7,0.7-1,1-1.7,1.7c-0.7,0.4-1,0.5-1.7,0.9c-0.7,0-1.1,0-1.8,0c-0.7-0.3-1.1-0.5-1.8-0.9l0,0c-0.1-0.2-0.4-0.7-0.9-1.7
				c0-1,0-1.6-0.1-2.6c0.6-1.7,0.9-2.5,1.6-4.2c0-0.6,0-0.9,0-1.5c-0.3-0.3-0.4-0.4-0.7-0.7c-0.6,0-0.9,0-1.5,0
				c-0.6,0.7-0.9,1-1.5,1.6c-0.3,0.7-0.5,1-0.8,1.7c-0.1-0.1-0.2-0.1-0.3-0.2c0.3-0.7,0.5-1,0.8-1.7c0.7-0.7,1-1.1,1.7-1.8
				c0.7,0,1.1,0,1.8,0c0.4,0.4,0.6,0.5,0.9,0.9c0.4,0.7,0.5,1,0.9,1.7c0,1,0,1.5,0.1,2.6c-0.6,1.7-0.9,2.5-1.6,4.2
				c0,0.6,0,0.9,0,1.5c0.6,0.3,0.9,0.4,1.5,0.7c0.6,0,0.9,0,1.6,0c0.6-0.3,0.9-0.5,1.6-0.8c0.6-0.7,1-1,1.6-1.7c0.6-1.3,1-2,1.6-3.3
				c0.6-2.4,0.9-3.6,1.6-6C398,46.7,398.5,46.7,399.3,46.7z"/>
			<path class="st2" d="M418.7,54.9c-0.3,0.7-0.5,1-0.8,1.7c-0.7,0.7-1,1.1-1.7,1.8c-0.7,0-1.1,0-1.8,0c-0.4-0.4-0.6-0.6-1-0.9l0,0
				c-0.3-0.7-0.5-1-0.9-1.6c0-0.9,0-1.3,0-2.2c-0.2,0.6-0.3,0.8-0.5,1.4c-0.3,0.7-0.5,1-0.8,1.7c-0.3,0.4-0.5,0.5-0.9,0.9
				c-0.7,0.4-1,0.5-1.7,0.9c-0.7,0-1.1,0-1.8,0l0,0c-0.7-0.3-1-0.5-1.7-0.8c-0.4-0.4-0.5-0.5-0.9-0.9c-0.4-1-0.5-1.5-0.9-2.5
				c0-0.7,0-1,0-1.7c0.3-1,0.5-1.5,0.8-2.6c0.7-1,1-1.6,1.7-2.6c1-0.4,1.5-0.5,2.5-0.9c0.7,0,1.1,0,1.8,0c0.7,0.3,1.1,0.5,1.8,0.8
				c0.4,1,0.5,1.6,0.9,2.6c0,0.5,0,0.7,0,1.2c0.5-1.9,0.8-2.8,1.3-4.7c0.8,0,1.2,0,2.1,0c-1,3.4-1.5,5.1-2.5,8.5c0,1,0,1.4,0,2.4
				c0.3,0.3,0.4,0.4,0.7,0.7c0.6,0,0.9,0,1.5,0c0.6-0.6,0.9-1,1.6-1.6c0.3-0.7,0.5-1,0.8-1.6C418.5,54.8,418.6,54.9,418.7,54.9z
				 M412.5,52.4c0-1,0-1.5,0-2.4c-0.3-0.9-0.5-1.4-0.9-2.4c-0.6-0.3-0.9-0.5-1.6-0.8c-0.6,0-0.9,0-1.6,0c-0.6,0.6-0.9,1-1.6,1.6
				c-0.3,0.6-0.5,1-0.8,1.6c-0.3,1-0.5,1.5-0.8,2.5c0,1,0,1.5,0,2.4c0.3,1,0.5,1.4,0.9,2.4c0.3,0.3,0.4,0.4,0.7,0.7
				c0.6,0,0.9,0,1.5,0c0.6-0.3,1-0.5,1.6-0.8c0.3-0.3,0.5-0.5,0.8-0.8c0.3-0.6,0.5-1,0.8-1.6C412,53.9,412.2,53.4,412.5,52.4z"/>
			<path class="st2" d="M428.9,54.9c-0.3,0.7-0.5,1-0.8,1.7c-0.7,0.7-1.1,1-1.8,1.8c-0.7,0-1.1,0-1.8,0c-0.4-0.4-0.6-0.6-1-0.9
				c-0.3-0.7-0.5-1-0.8-1.7c0-1,0-1.5,0-2.6c1.2-4.5,1.8-6.8,2.9-11.3c-0.1-0.2-0.2-0.4-0.3-0.6c-0.4-0.1-0.5-0.2-0.9-0.3
				c-0.3,0-0.5,0-0.8,0c0-0.2,0-0.2,0-0.4c1.8,0,2.7,0,4.5,0c-1.7,6.1-2.5,9.1-4.1,15.2c0,0.6,0,0.9,0,1.6c0.3,0.3,0.4,0.4,0.7,0.7
				c0.6,0,0.9,0,1.5,0c0.6-0.6,0.9-1,1.6-1.6c0.3-0.7,0.5-1,0.8-1.6C428.7,54.7,428.8,54.8,428.9,54.9z"/>
			<path class="st2" d="M465.3,44.9c-0.4,1-0.5,1.5-0.9,2.6c-0.4,0.4-0.6,0.5-0.9,0.9c-1,0.3-1.6,0.5-2.6,0.8c-1,0-1.5,0-2.6,0
				c0.4,0.2,0.6,0.3,1,0.5c0.4,0.4,0.5,0.5,0.9,0.9c0.7,2,1,3,1.6,5c0.3,0.3,0.4,0.4,0.7,0.7c0.3,0,0.4,0,0.7,0
				c0.3-0.3,0.4-0.4,0.7-0.7c0-0.3,0-0.5,0-0.8c0.1,0,0.2,0,0.4,0c0,0.4,0,0.5,0,0.9c-0.4,1-0.5,1.6-0.9,2.6c-0.8,0-1.1,0-1.9,0
				c-0.4-0.4-0.6-0.6-0.9-0.9c-0.3-2.7-0.5-4-0.8-6.6c-0.3-0.3-0.5-0.5-0.8-0.8c-0.6-0.3-1-0.5-1.6-0.8c-1.2,0-1.8,0-3,0
				c-0.9,3.1-1.4,4.7-2.3,7.9c0.1,0.2,0.2,0.3,0.3,0.6c0.4,0.1,0.5,0.2,0.9,0.3c0.3,0,0.5,0,0.8,0c0,0.2,0,0.2,0,0.4
				c-2.7,0-4,0-6.7,0c0-0.2,0-0.2,0-0.4c0.3,0,0.5,0,0.8,0c0.5-0.2,0.7-0.2,1.2-0.4c0.3-0.3,0.4-0.4,0.7-0.7c1.8-6,2.6-9.1,4.4-15.1
				c-0.1-0.2-0.2-0.3-0.3-0.5c-0.4-0.1-0.5-0.2-0.9-0.3c-0.3,0-0.5,0-0.8,0c0-0.2,0-0.2,0-0.4c3.7,0,5.6,0,9.3,0.1
				c1,0.4,1.6,0.5,2.6,0.9c0.3,0.7,0.5,1.1,0.9,1.8C465.3,43.9,465.3,44.2,465.3,44.9z M463.2,44.8c0-0.6,0-1,0-1.6
				c-0.3-0.6-0.5-1-0.8-1.6c-0.3-0.3-0.4-0.5-0.7-0.8c-1.3,0-2,0-3.3,0c-0.5,0.1-0.7,0.2-1.1,0.3c-0.3,0.3-0.4,0.4-0.7,0.7
				c-0.8,2.7-1.2,4.1-2,6.8c2.5,0,3.7,0,6.2,0c0.6-0.6,1-0.9,1.6-1.5C462.7,46.3,462.9,45.8,463.2,44.8z"/>
			<path class="st2" d="M485.3,55.2c-0.3,0.7-0.5,1-0.9,1.7c-0.7,0.7-1.1,1-1.8,1.7c-0.7,0-1.1,0-1.8,0c-0.4-0.4-0.6-0.6-0.9-1l0,0
				c-0.3-0.7-0.5-1-0.8-1.7c0-0.9,0-1.3,0-2.2c-0.2,0.6-0.3,0.8-0.5,1.4c-0.3,0.7-0.5,1-0.9,1.7c-0.4,0.3-0.5,0.5-0.9,0.9
				c-0.7,0.3-1,0.5-1.7,0.8c-0.7,0-1.1,0-1.8,0l0,0c-0.7-0.3-1-0.5-1.7-0.9c-0.3-0.4-0.5-0.5-0.9-0.9c-0.3-1-0.5-1.5-0.8-2.6
				c0-0.7,0-1,0-1.7c0.4-1,0.5-1.5,0.9-2.5c0.7-1,1.1-1.5,1.8-2.5c1-0.3,1.5-0.5,2.6-0.8c0.7,0,1.1,0,1.8,0c0.7,0.4,1.1,0.5,1.8,0.9
				c0.3,1.1,0.5,1.6,0.8,2.6c0,0.5,0,0.7,0,1.2c0.6-1.8,0.9-2.8,1.4-4.6c0.8,0,1.2,0,2.1,0c-1.1,3.4-1.6,5.1-2.7,8.5
				c0,1,0,1.4,0,2.4c0.3,0.3,0.4,0.4,0.7,0.7c0.6,0,0.9,0,1.5,0c0.6-0.6,1-0.9,1.6-1.6c0.3-0.6,0.5-1,0.9-1.6
				C485.1,55.1,485.2,55.2,485.3,55.2z M479.2,52.5c0-1,0-1.5,0-2.4c-0.3-1-0.5-1.4-0.8-2.4c-0.6-0.3-0.9-0.5-1.5-0.8
				c-0.6,0-0.9,0-1.6,0c-0.6,0.6-1,0.9-1.6,1.6c-0.3,0.6-0.5,1-0.9,1.6c-0.3,1-0.5,1.5-0.9,2.4c0,1,0,1.5,0,2.4
				c0.3,1,0.5,1.5,0.8,2.4c0.3,0.3,0.4,0.4,0.7,0.7c0.6,0,0.9,0,1.5,0c0.6-0.3,1-0.5,1.6-0.8c0.3-0.3,0.5-0.5,0.8-0.8
				c0.3-0.6,0.5-1,0.9-1.6C478.7,54,478.8,53.5,479.2,52.5z"/>
			<path class="st2" d="M496.4,55.5c-0.4,0.7-0.5,1-0.9,1.7c-0.7,0.7-1.1,1-1.8,1.7c-0.7,0-1.1,0-1.8,0c-0.4-0.4-0.6-0.6-0.9-1l0,0
				c-0.3-0.7-0.5-1-0.8-1.7c0-1,0-1.6,0.1-2.6c0.7-1.6,1.1-2.5,1.8-4.1c0-0.6,0-0.9,0-1.5c-0.3-0.3-0.4-0.4-0.7-0.7
				c-0.6,0-0.9,0-1.5,0c-0.6,0.6-1,0.9-1.6,1.6c-0.4,0.6-0.5,1-0.9,1.6c-0.1-0.1-0.2-0.1-0.3-0.2c0.3-0.7,0.5-1,0.9-1.7
				c0.7-0.7,1.1-1,1.8-1.7c0.7,0,1.1,0,1.8,0c0.4,0.4,0.5,0.6,0.9,0.9c0.3,0.7,0.5,1,0.8,1.7c0,1,0,1.5-0.1,2.6
				c-0.7,1.6-1.1,2.5-1.8,4.1c0,0.6,0,0.9,0,1.5c0.3,0.3,0.4,0.4,0.7,0.7c0.6,0,0.9,0,1.5,0c0.6-0.6,1-0.9,1.6-1.5
				c0.3-0.6,0.5-1,0.9-1.6C496.2,55.4,496.2,55.4,496.4,55.5z M495.2,41.1c-0.4,0.8-0.6,1.2-1.1,2c-0.8,0-1.3,0-2.1-0.1
				c0.4-0.8,0.6-1.2,1.1-2C493.9,41,494.3,41,495.2,41.1z"/>
			<path class="st2" d="M516.5,56.1c-0.4,0.7-0.5,1-0.9,1.6c-0.7,0.7-1.1,1-1.8,1.7c-0.7,0-1.1,0-1.8-0.1c-0.4-0.4-0.5-0.6-0.9-1
				l0,0c-0.3-0.7-0.5-1-0.8-1.7c0-1,0.1-1.6,0.1-2.6c0.7-1.6,1.1-2.5,1.8-4.1c0-0.6,0-0.9,0-1.5c-0.6-0.3-0.9-0.5-1.5-0.8
				c-0.6,0-0.9,0-1.6-0.1c-0.7,0.3-1,0.5-1.6,0.8c-0.7,0.6-1,0.9-1.7,1.6c-0.7,1-1,1.4-1.7,2.4c-0.8,2.7-1.1,4-1.9,6.7
				c-0.8,0-1.2,0-2-0.1c1.1-3.7,1.7-5.6,2.8-9.3c0-0.6,0-0.9,0-1.6c-0.3-0.3-0.4-0.4-0.7-0.7c-0.6,0-0.9,0-1.5,0
				c-0.6,0.6-1,0.9-1.6,1.6c-0.4,0.6-0.5,1-0.9,1.6c-0.1-0.1-0.2-0.1-0.3-0.2c0.3-0.7,0.5-1,0.9-1.7c0.7-0.7,1.1-1,1.8-1.7
				c0.7,0,1.1,0,1.8,0.1c0.4,0.4,0.5,0.6,0.9,0.9c0.3,0.7,0.5,1,0.8,1.7c0,0.8,0,1.2-0.1,1.9c0.6-0.8,0.8-1.2,1.4-2
				c0.7-0.7,1-1,1.7-1.7c0.7-0.3,1.1-0.5,1.8-0.8c0.7,0,1.1,0,1.8,0.1c0.7,0.4,1.1,0.6,1.7,0.9c0.3,0.7,0.5,1.1,0.8,1.8
				c0,1-0.1,1.5-0.1,2.6c-0.7,1.6-1.1,2.5-1.8,4.1c0,0.6,0,0.9-0.1,1.5c0.3,0.3,0.4,0.4,0.7,0.7c0.6,0,0.9,0,1.5,0.1
				c0.6-0.6,1-0.9,1.6-1.5c0.4-0.6,0.5-1,0.9-1.6C516.3,56,516.4,56,516.5,56.1z"/>
			<path class="st2" d="M545.9,57.3c-0.4,0.7-0.6,1-0.9,1.6c-0.7,0.7-1.1,1-1.8,1.6c-0.7,0-1.1-0.1-1.8-0.1c-0.4-0.4-0.5-0.6-0.9-1
				l0,0c-0.3-0.7-0.5-1-0.8-1.7c0-1,0.1-1.6,0.1-2.6c0.7-1.6,1.1-2.4,1.9-4.1c0-0.6,0-0.9,0.1-1.5c-0.6-0.3-0.9-0.5-1.5-0.8
				c-0.6,0-1,0-1.6-0.1c-0.7,0.3-1,0.4-1.6,0.7c-0.7,0.6-1,0.9-1.7,1.5c-0.7,0.9-1.1,1.4-1.8,2.4c-0.8,2.7-1.2,4-2,6.7
				c-0.8,0-1.2-0.1-2-0.1c1.2-3.7,1.8-5.5,2.9-9.2c0-0.6,0-0.9,0.1-1.5c-0.6-0.3-0.9-0.5-1.5-0.8c-0.6,0-0.9,0-1.6-0.1
				c-0.7,0.3-1,0.4-1.6,0.7c-0.7,0.6-1,0.9-1.7,1.5c-0.7,1-1,1.4-1.7,2.4c-0.8,2.7-1.2,4-1.9,6.7c-0.8,0-1.2,0-2-0.1
				c1.2-3.7,1.7-5.5,2.9-9.2c0-0.6,0-0.9,0.1-1.6c-0.3-0.3-0.4-0.4-0.7-0.7c-0.6,0-0.9,0-1.5-0.1c-0.7,0.6-1,0.9-1.6,1.5
				c-0.4,0.6-0.5,1-0.9,1.6c-0.1-0.1-0.2-0.1-0.3-0.2c0.4-0.7,0.5-1,0.9-1.7c0.7-0.7,1.1-1,1.8-1.7c0.7,0,1.1,0,1.8,0.1
				c0.4,0.4,0.5,0.6,0.9,0.9c0.3,0.7,0.5,1.1,0.8,1.8c0,0.8,0,1.2-0.1,1.9c0.6-0.8,0.9-1.2,1.4-1.9c0.7-0.7,1.1-1,1.8-1.6
				c0.7-0.3,1.1-0.5,1.8-0.8c0.7,0,1.1,0,1.8,0.1c0.7,0.4,1,0.6,1.7,0.9c0.3,0.7,0.5,1.1,0.8,1.8c0,0.8-0.1,1.2-0.1,1.9
				c0.6-0.8,0.9-1.2,1.4-1.9c0.7-0.7,1.1-1,1.8-1.6c0.7-0.3,1.1-0.5,1.8-0.8c0.7,0,1.1,0,1.8,0.1c0.7,0.4,1,0.6,1.7,1
				c0.3,0.7,0.5,1.1,0.8,1.8c0,1-0.1,1.5-0.1,2.6c-0.7,1.6-1.1,2.4-1.9,4.1c0,0.6,0,0.9-0.1,1.5c0.3,0.3,0.4,0.4,0.7,0.7
				c0.6,0,0.9,0,1.5,0.1c0.7-0.6,1-0.9,1.6-1.5c0.4-0.6,0.6-1,0.9-1.6C545.7,57.2,545.8,57.3,545.9,57.3z"/>
			<path class="st2" d="M563.6,58.3c-0.4,0.7-0.6,1-0.9,1.6c-0.7,0.7-1.1,1-1.9,1.6c-0.7,0-1.1-0.1-1.8-0.1c-0.4-0.4-0.5-0.6-0.9-1
				l0,0c-0.3-0.7-0.4-1-0.7-1.7c0-0.9,0.1-1.3,0.1-2.2c-0.2,0.5-0.3,0.8-0.6,1.4c-0.4,0.7-0.6,1-0.9,1.7c-0.4,0.3-0.6,0.5-0.9,0.8
				c-0.7,0.3-1.1,0.5-1.8,0.8c-0.7,0-1.1-0.1-1.8-0.1l0,0c-0.6-0.4-1-0.6-1.6-0.9c-0.3-0.4-0.5-0.6-0.8-0.9c-0.3-1-0.4-1.6-0.7-2.6
				c0-0.7,0.1-1,0.1-1.7c0.4-1,0.6-1.5,1-2.5c0.7-1,1.1-1.5,1.8-2.5c1-0.3,1.6-0.4,2.6-0.7c0.7,0,1.1,0.1,1.8,0.1
				c0.7,0.4,1.1,0.6,1.8,1c0.3,1.1,0.4,1.6,0.7,2.7c0,0.5,0,0.7-0.1,1.2c0.6-1.8,1-2.7,1.6-4.6c0.8,0,1.2,0.1,2.1,0.1
				c-1.2,3.3-1.8,5-3.1,8.4c-0.1,1-0.1,1.4-0.1,2.4c0.3,0.3,0.4,0.4,0.7,0.7c0.6,0,0.9,0.1,1.5,0.1c0.7-0.6,1-0.9,1.7-1.5
				c0.4-0.6,0.6-0.9,0.9-1.6C563.4,58.2,563.5,58.2,563.6,58.3z M557.5,55.3c0.1-1,0.1-1.5,0.1-2.4c-0.3-1-0.4-1.4-0.7-2.4
				c-0.6-0.3-0.9-0.5-1.5-0.9c-0.6,0-0.9-0.1-1.6-0.1c-0.7,0.6-1,0.9-1.7,1.5c-0.4,0.6-0.5,0.9-0.9,1.6c-0.4,1-0.6,1.4-0.9,2.4
				c-0.1,1-0.1,1.5-0.1,2.4c0.3,1,0.4,1.5,0.7,2.5c0.3,0.3,0.4,0.5,0.7,0.8c0.6,0,0.9,0,1.5,0.1c0.7-0.3,1-0.4,1.6-0.7
				c0.3-0.3,0.5-0.4,0.8-0.7c0.4-0.6,0.6-0.9,0.9-1.6C557,56.8,557.2,56.3,557.5,55.3z"/>
			<path class="st2" d="M580.8,53.6c-0.8-0.1-1.2-0.1-2.1-0.1c0.1-0.8,0.1-1.2,0.1-2c0.6,0,0.8,0.1,1.4,0.1
				c-0.2-0.2-0.3-0.3-0.4-0.5c-0.6,0-0.9-0.1-1.6-0.1c-0.7,0.3-1,0.4-1.7,0.7c-1.4,1.2-2.1,1.9-3.6,3.1c-0.6,0.2-0.8,0.3-1.4,0.6
				c0.5,0.3,0.8,0.5,1.3,0.8c0.3,0.4,0.5,0.6,0.8,0.9c0.6,1.4,0.9,2.1,1.5,3.4c0.3,0.3,0.4,0.5,0.7,0.8c0.6,0,0.9,0.1,1.5,0.1
				c0.7-0.9,1-1.4,1.7-2.3c0.1,0.1,0.2,0.1,0.3,0.2c-0.8,1-1.1,1.5-1.9,2.4c-0.7,0.3-1.1,0.5-1.8,0.8c-0.7,0-1.1-0.1-1.8-0.1
				c-0.3-0.4-0.5-0.6-0.9-1c-0.3-1-0.4-1.5-0.7-2.6c-0.3-1-0.4-1.5-0.7-2.5c-0.3-0.3-0.4-0.5-0.7-0.8c-0.5,0-0.7,0-1.2-0.1
				c-0.9,2.6-1.4,3.9-2.3,6.5c-0.8,0-1.2-0.1-2.1-0.1c2.3-6.5,3.5-9.7,5.8-16.2c-0.1-0.2-0.2-0.4-0.3-0.6c-0.3-0.1-0.5-0.2-0.9-0.4
				c-0.3,0-0.5,0-0.8,0c0-0.2,0-0.2,0-0.4c1.8,0.1,2.7,0.2,4.5,0.3c-1.5,4.2-2.3,6.3-3.8,10.6c0.4,0,0.7,0,1.1,0.1
				c0.7-0.3,1-0.4,1.7-0.7c1.4-1.2,2.1-1.9,3.6-3.1c0.7-0.3,1.1-0.4,1.8-0.7c0.7,0,1.1,0.1,1.8,0.1c0.4,0.4,0.5,0.6,0.9,1
				C580.9,52.5,580.9,52.9,580.8,53.6z"/>
			<path class="st2" d="M593.1,60.2c-0.4,0.6-0.6,1-1,1.6c-0.8,0.6-1.1,1-1.9,1.6c-0.7-0.1-1.1-0.1-1.8-0.1c-0.4-0.4-0.5-0.6-0.9-1
				l0,0c-0.3-0.7-0.4-1-0.7-1.7c0.1-1,0.1-1.6,0.2-2.6c0.8-1.6,1.2-2.4,2-4c0-0.6,0.1-0.9,0.1-1.5c-0.3-0.3-0.4-0.5-0.7-0.8
				c-0.6,0-0.9-0.1-1.5-0.1c-0.7,0.6-1,0.9-1.7,1.5c-0.4,0.6-0.6,0.9-1,1.6c-0.1-0.1-0.2-0.1-0.3-0.2c0.4-0.7,0.6-1,0.9-1.6
				c0.8-0.6,1.1-1,1.9-1.6c0.7,0.1,1.1,0.1,1.8,0.1c0.3,0.4,0.5,0.6,0.9,1c0.3,0.7,0.4,1.1,0.7,1.8c-0.1,1-0.1,1.5-0.2,2.6
				c-0.8,1.6-1.2,2.4-2,4c0,0.6-0.1,0.9-0.1,1.5c0.3,0.3,0.4,0.5,0.7,0.8c0.6,0,0.9,0.1,1.5,0.1c0.7-0.6,1-0.9,1.7-1.5
				c0.4-0.6,0.6-0.9,0.9-1.6C592.9,60.1,593,60.1,593.1,60.2z M592.6,45.7c-0.5,0.8-0.7,1.2-1.2,2c-0.8-0.1-1.3-0.1-2.1-0.1
				c0.5-0.8,0.7-1.2,1.2-2C591.3,45.7,591.7,45.7,592.6,45.7z"/>
			<path class="st2" d="M613.2,61.8c-0.4,0.6-0.6,1-1,1.6c-0.8,0.6-1.1,1-1.9,1.6c-0.7-0.1-1.1-0.1-1.8-0.1c-0.3-0.4-0.5-0.6-0.9-1
				l0,0c-0.3-0.7-0.4-1-0.7-1.7c0.1-1,0.1-1.6,0.2-2.6c0.8-1.6,1.2-2.4,2-4c0-0.6,0.1-0.9,0.1-1.5c-0.6-0.4-0.9-0.5-1.5-0.9
				c-0.6,0-0.9-0.1-1.6-0.1c-0.7,0.3-1,0.4-1.7,0.7c-0.7,0.6-1.1,0.9-1.8,1.5c-0.7,0.9-1.1,1.4-1.8,2.3c-0.9,2.6-1.3,4-2.2,6.6
				c-0.8-0.1-1.2-0.1-2-0.2c1.3-3.7,1.9-5.5,3.2-9.1c0-0.6,0.1-0.9,0.1-1.6c-0.3-0.3-0.4-0.5-0.7-0.8c-0.6,0-0.9-0.1-1.5-0.1
				c-0.7,0.6-1,0.9-1.7,1.5c-0.4,0.6-0.6,0.9-1,1.6c-0.1-0.1-0.2-0.1-0.3-0.2c0.4-0.7,0.6-1,1-1.6c0.8-0.6,1.1-1,1.9-1.6
				c0.7,0.1,1.1,0.1,1.8,0.1c0.3,0.4,0.5,0.6,0.9,1c0.3,0.7,0.4,1.1,0.7,1.8c-0.1,0.8-0.1,1.2-0.1,1.9c0.6-0.8,0.9-1.1,1.5-1.9
				c0.7-0.6,1.1-0.9,1.8-1.6c0.7-0.3,1.1-0.4,1.8-0.7c0.7,0.1,1.1,0.1,1.8,0.1c0.7,0.4,1,0.6,1.7,1c0.3,0.7,0.4,1.1,0.7,1.8
				c-0.1,1-0.1,1.5-0.2,2.6c-0.8,1.6-1.2,2.4-2,4c0,0.6-0.1,0.9-0.1,1.5c0.3,0.3,0.4,0.5,0.7,0.8c0.6,0,0.9,0.1,1.5,0.1
				c0.7-0.6,1-0.9,1.7-1.5c0.4-0.6,0.6-0.9,1-1.6C613,61.6,613.1,61.7,613.2,61.8z"/>
			<path class="st2" d="M630.1,54.6c-1.3,3.3-2,5-3.3,8.3c-0.5,1.3-0.7,2-1.1,3.3c-0.8,1.3-1.2,1.9-2,3.2c-0.8,0.6-1.1,0.9-1.9,1.5
				c-1.1,0.3-1.6,0.4-2.6,0.6c-1-0.1-1.5-0.1-2.6-0.2c-0.7-0.4-1-0.6-1.7-1c-0.3-0.4-0.5-0.6-0.8-1c0.1-0.8,0.1-1.1,0.2-1.9
				c0.8,0.1,1.2,0.1,2,0.2c-0.1,0.8-0.1,1.2-0.2,2c-0.6,0-0.8-0.1-1.4-0.1c0.2,0.2,0.3,0.3,0.5,0.5c0.6,0.4,0.9,0.6,1.5,0.9
				c1,0.1,1.4,0.1,2.4,0.2c0.7-0.3,1-0.4,1.7-0.6c0.7-0.9,1.1-1.4,1.8-2.3c0.4-0.9,0.6-1.4,1-2.3c0.3-0.7,0.4-1.1,0.7-1.9
				c-0.1,0.2-0.1,0.2-0.2,0.4c-0.4,0.3-0.6,0.5-1,0.8c-0.7,0.3-1.1,0.4-1.8,0.7c-0.7-0.1-1.1-0.1-1.8-0.2c-0.7-0.4-1-0.7-1.7-1.1
				c-0.3-0.4-0.4-0.5-0.7-0.9c-0.3-1-0.4-1.6-0.6-2.6c0.1-0.7,0.1-1,0.1-1.7c0.4-1,0.6-1.5,1.1-2.5c0.8-1,1.2-1.5,1.9-2.4
				c1.1-0.3,1.6-0.4,2.6-0.6c0.7,0.1,1.1,0.1,1.8,0.2c0.7,0.4,1,0.6,1.7,1c0.2,1.1,0.4,1.6,0.6,2.7c0,0.5-0.1,0.7-0.1,1.2
				c0.7-1.8,1-2.7,1.7-4.5C628.8,54.5,629.2,54.5,630.1,54.6z M625.8,60.2c0.1-1,0.1-1.5,0.2-2.4c-0.2-1-0.4-1.5-0.6-2.4
				c-0.6-0.4-0.9-0.6-1.5-0.9c-0.6-0.1-0.9-0.1-1.6-0.1c-0.7,0.6-1,0.9-1.7,1.5c-0.4,0.6-0.6,0.9-1,1.5c-0.4,0.9-0.6,1.4-1,2.4
				c-0.1,1-0.1,1.5-0.2,2.4c0.2,1,0.4,1.5,0.6,2.5c0.3,0.3,0.4,0.5,0.7,0.8c0.6,0.1,0.9,0.1,1.5,0.1c0.7-0.3,1-0.4,1.7-0.7
				c0.3-0.3,0.5-0.4,0.8-0.7c0.4-0.6,0.6-0.9,1-1.5C625.1,61.6,625.3,61.2,625.8,60.2z"/>
			<path class="st2" d="M666.9,60.1c-0.5,1.3-0.7,1.9-1.2,3.2c-0.8,1.3-1.2,1.9-2.1,3.2c-0.8,0.6-1.1,0.9-1.9,1.5
				c-0.7,0.3-1.1,0.4-1.8,0.7c-1.4,0.2-2.1,0.3-3.4,0.5c-3-0.3-4.5-0.5-7.5-0.8c0-0.2,0-0.2,0-0.4c0.3,0,0.5,0,0.8,0.1
				c0.5-0.1,0.7-0.1,1.1-0.2c0.3-0.3,0.5-0.4,0.8-0.7c2.3-5.8,3.5-8.8,5.9-14.6c-0.1-0.2-0.1-0.3-0.2-0.6c-0.4-0.2-0.5-0.2-0.9-0.4
				c-0.3,0-0.5-0.1-0.8-0.1c0-0.2,0-0.2,0-0.4c3,0.3,4.5,0.5,7.6,0.8c1,0.5,1.5,0.7,2.5,1.1c0.3,0.4,0.5,0.6,0.8,1
				c0.2,1.1,0.3,1.6,0.6,2.6C667.1,58.1,667,58.8,666.9,60.1z M664.8,59.8c0.1-1.3,0.2-1.9,0.3-3.2c-0.2-1-0.3-1.5-0.5-2.5
				c-0.6-0.7-0.9-1-1.4-1.7c-0.6-0.1-0.9-0.1-1.6-0.2c-0.5,0.1-0.7,0.1-1.2,0.2c-0.3,0.3-0.5,0.4-0.8,0.7c-2.4,5.8-3.5,8.7-5.9,14.6
				c0.1,0.2,0.1,0.3,0.2,0.6c0.3,0.2,0.5,0.2,0.9,0.4c0.6,0.1,1,0.1,1.6,0.2c1-0.2,1.5-0.3,2.5-0.5c1.1-0.9,1.6-1.3,2.7-2.2
				c0.8-1.2,1.2-1.9,2-3.1C664.1,61.7,664.4,61.1,664.8,59.8z"/>
			<path class="st2" d="M686.2,69.1c-0.4,0.6-0.6,0.9-1,1.6c-0.8,0.6-1.2,0.9-1.9,1.5c-0.7-0.1-1.1-0.1-1.8-0.2
				c-0.3-0.4-0.5-0.6-0.8-1.1l0,0c-0.3-0.7-0.4-1-0.6-1.7c0.1-0.9,0.2-1.3,0.3-2.2c-0.3,0.5-0.4,0.8-0.6,1.3c-0.4,0.6-0.6,1-1,1.6
				c-0.4,0.3-0.6,0.5-1,0.8c-0.7,0.3-1.1,0.4-1.8,0.7c-0.7-0.1-1.1-0.1-1.8-0.2l0,0c-0.6-0.4-0.9-0.6-1.6-1c-0.3-0.4-0.5-0.6-0.8-1
				c-0.2-1.1-0.3-1.6-0.6-2.6c0.1-0.7,0.1-1,0.2-1.7c0.5-1,0.7-1.5,1.1-2.4c0.8-0.9,1.2-1.4,2-2.4c1.1-0.2,1.6-0.3,2.6-0.6
				c0.7,0.1,1.1,0.1,1.8,0.2c0.7,0.4,1,0.6,1.7,1.1c0.2,1.1,0.3,1.6,0.6,2.7c-0.1,0.5-0.1,0.7-0.1,1.2c0.7-1.8,1.1-2.7,1.9-4.5
				c0.8,0.1,1.2,0.1,2.1,0.2c-1.4,3.3-2.1,4.9-3.5,8.2c-0.1,1-0.2,1.4-0.3,2.4c0.3,0.3,0.4,0.5,0.6,0.8c0.6,0.1,0.9,0.1,1.5,0.2
				c0.7-0.6,1.1-0.8,1.8-1.4C685.6,70,685.8,69.7,686.2,69.1C686,68.9,686.1,69,686.2,69.1z M680.4,65.7c0.1-1,0.2-1.5,0.3-2.4
				c-0.2-1-0.3-1.5-0.5-2.5c-0.6-0.4-0.9-0.6-1.5-1c-0.6-0.1-0.9-0.1-1.5-0.2c-0.7,0.6-1.1,0.8-1.8,1.4c-0.4,0.6-0.6,0.9-1,1.5
				c-0.4,0.9-0.7,1.4-1.1,2.3c-0.1,1-0.2,1.5-0.3,2.4c0.2,1,0.3,1.5,0.5,2.5c0.3,0.3,0.4,0.5,0.6,0.8c0.6,0.1,0.9,0.1,1.5,0.2
				c0.7-0.2,1-0.4,1.7-0.6c0.3-0.3,0.5-0.4,0.9-0.7c0.4-0.6,0.6-0.9,1-1.5C679.7,67.1,679.9,66.7,680.4,65.7z"/>
			<path class="st2" d="M705,62.7c-2,4.5-2.9,6.8-4.9,11.4c-0.8,1.2-1.2,1.9-2.1,3.1c-0.8,0.6-1.2,0.9-1.9,1.5
				c-1.1,0.2-1.6,0.3-2.7,0.5c-1-0.1-1.5-0.2-2.6-0.3c-0.6-0.4-1-0.6-1.6-1.1c-0.3-0.4-0.5-0.6-0.8-1c0.1-0.8,0.1-1.1,0.2-1.9
				c0.8,0.1,1.2,0.1,2,0.2c-0.1,0.8-0.1,1.2-0.2,2c-0.6-0.1-0.8-0.1-1.4-0.2c0.2,0.2,0.3,0.3,0.4,0.5c0.6,0.4,0.9,0.6,1.5,1
				c1,0.1,1.4,0.2,2.4,0.3c0.7-0.2,1-0.4,1.7-0.6c0.8-0.9,1.1-1.3,1.9-2.2c0.4-0.9,0.7-1.4,1.1-2.3c0.6-1.5,0.9-2.2,1.6-3.6
				c-0.4,0.6-0.6,0.8-1,1.4c-0.8,0.6-1.1,0.9-1.9,1.5c-0.7,0.3-1.1,0.4-1.8,0.6c-0.7-0.1-1-0.1-1.7-0.2c-0.7-0.4-1-0.7-1.7-1.1l0,0
				c0-0.2-0.3-0.8-0.6-1.8c0.1-1,0.2-1.5,0.3-2.6c0.9-1.6,1.3-2.3,2.2-3.9c0.1-0.6,0.1-0.9,0.2-1.5c-0.3-0.3-0.4-0.5-0.6-0.8
				c-0.6-0.1-0.9-0.1-1.5-0.2c-0.7,0.6-1.1,0.8-1.8,1.4c-0.4,0.6-0.6,0.9-1,1.5c-0.1-0.1-0.2-0.1-0.3-0.2c0.4-0.6,0.6-0.9,1-1.6
				c0.8-0.6,1.2-0.9,2-1.5c0.7,0.1,1.1,0.1,1.8,0.2c0.3,0.4,0.5,0.6,0.8,1c0.3,0.7,0.4,1.1,0.7,1.8c-0.1,1-0.2,1.5-0.3,2.6
				c-0.9,1.6-1.3,2.4-2.2,3.9c-0.1,0.6-0.1,0.9-0.2,1.5c0.6,0.4,0.9,0.6,1.4,0.9c0.6,0.1,0.9,0.1,1.6,0.2c0.7-0.2,1-0.4,1.7-0.6
				c0.7-0.6,1.1-0.8,1.8-1.4c0.8-1.2,1.2-1.8,2.1-3c1-2.3,1.4-3.4,2.4-5.7C703.8,62.5,704.2,62.6,705,62.7z"/>
		</g>
	</g>
</g>
</svg>
