<?xml version="1.0" encoding="utf-8"?>
<!-- Generator: Adobe Illustrator 23.0.1, SVG Export Plug-In . SVG Version: 6.00 Build 0)  -->
<svg version="1.1" id="Layer_1" xmlns="http://www.w3.org/2000/svg" xmlns:xlink="http://www.w3.org/1999/xlink" x="0px" y="0px"
	 viewBox="0 0 1151.9 480" style="enable-background:new 0 0 1151.9 480;" xml:space="preserve">
<style type="text/css">
	.st0{fill:none;stroke:#AF914F;stroke-width:2;stroke-miterlimit:10;}
</style>
<g>
	<g>
		<g>
			<path class="st0" d="M52.4,227.2C113.9,392.1,264,452.5,264,452.5"/>
			<g>
				<g>
					<path class="st0" d="M93.4,263.5c-1.6,12.3-12,25.1-12,25.1l-0.6-22.1"/>
					<polyline class="st0" points="75.1,267.9 81.4,288.6 61.7,288.2 					"/>
					<line class="st0" x1="81.4" y1="288.6" x2="65.3" y2="275.4"/>
				</g>
				<ellipse class="st0" cx="93" cy="261.4" rx="3.1" ry="3.3"/>
				<ellipse class="st0" cx="61.7" cy="288.2" rx="3.1" ry="3.3"/>
				<ellipse class="st0" cx="80.6" cy="265.3" rx="2.2" ry="2.3"/>
				<ellipse class="st0" cx="74.9" cy="266.7" rx="2.2" ry="2.3"/>
				<ellipse class="st0" cx="65.3" cy="275.4" rx="2.2" ry="2.3"/>
			</g>
			<g>
				<g>
					<path class="st0" d="M138.7,390.9c11.3,2.9,26.2-2.7,26.2-2.7l-18.9-8.8"/>
					<polyline class="st0" points="149.2,374.3 164.8,388.3 171.8,368.5 					"/>
					<line class="st0" x1="164.8" y1="388.3" x2="159.3" y2="367.3"/>
				</g>
				<ellipse class="st0" cx="137" cy="389.7" rx="3.1" ry="3.3"/>
				<ellipse class="st0" cx="171.8" cy="368.5" rx="3.1" ry="3.3"/>
				<ellipse class="st0" cx="145" cy="378.8" rx="2.2" ry="2.3"/>
				<ellipse class="st0" cx="148.3" cy="373.6" rx="2.2" ry="2.3"/>
				<ellipse class="st0" cx="159.3" cy="367.3" rx="2.2" ry="2.3"/>
			</g>
			<g>
				<g>
					<path class="st0" d="M174.5,424.5c11.5-1.7,23.5-12.7,23.5-12.7l-20.6-0.8"/>
					<polyline class="st0" points="178.7,404.9 198,411.8 197.8,390.7 					"/>
					<line class="st0" x1="198" y1="411.8" x2="185.8" y2="394.4"/>
				</g>
				<ellipse class="st0" cx="172.5" cy="424" rx="3.1" ry="3.3"/>
				<ellipse class="st0" cx="197.8" cy="390.7" rx="3.1" ry="3.3"/>
				<ellipse class="st0" cx="176.3" cy="410.8" rx="2.2" ry="2.3"/>
				<ellipse class="st0" cx="177.6" cy="404.6" rx="2.2" ry="2.3"/>
				<ellipse class="st0" cx="185.8" cy="394.4" rx="2.2" ry="2.3"/>
			</g>
			<g>
				<g>
					<path class="st0" d="M131.6,306.1c-2.2,16.5-16.1,33.5-16.1,33.5l-0.7-29.6"/>
					<polyline class="st0" points="107.1,311.9 115.5,339.7 89.2,339.2 					"/>
					<line class="st0" x1="115.5" y1="339.7" x2="94" y2="322"/>
				</g>
				<ellipse class="st0" cx="131" cy="303.3" rx="4.1" ry="4.4"/>
				<ellipse class="st0" cx="89.2" cy="339.2" rx="4.1" ry="4.4"/>
				<ellipse class="st0" cx="114.4" cy="308.5" rx="2.9" ry="3.1"/>
				<ellipse class="st0" cx="106.8" cy="310.3" rx="2.9" ry="3.1"/>
				<ellipse class="st0" cx="94" cy="322" rx="2.9" ry="3.1"/>
			</g>
			<g>
				<path class="st0" d="M17.6,219.4c0,0,20.8,16.5,38.4,5.3s15.8-32,15.8-32"/>
				<path class="st0" d="M60.5,182.5c0,0,0.9,36.4-4.5,42.2s-35.3-22.8-35.3-22.8"/>
				<polyline class="st0" points="48.8,190.3 52.4,225.3 33.4,194.7 				"/>
				<ellipse class="st0" cx="73.5" cy="192.8" rx="3.5" ry="3.8"/>
				<ellipse class="st0" cx="60" cy="181.2" rx="3.2" ry="3.4"/>
				<ellipse class="st0" cx="47.4" cy="190.1" rx="2.6" ry="2.8"/>
				<ellipse class="st0" cx="32.3" cy="193.5" rx="2.9" ry="3.2"/>
				<ellipse class="st0" cx="20.5" cy="200.9" rx="2.9" ry="3.1"/>
				<ellipse class="st0" cx="16.8" cy="217.4" rx="4" ry="4.3"/>
			</g>
		</g>
		<g>
			<path class="st0" d="M151.8,337.7c0,0,107.4-63.8,134.2-192.6"/>
			<line class="st0" x1="186.8" y1="311" x2="191.1" y2="292.8"/>
			<path class="st0" d="M191.1,307.1c0,0,20.4,5.1,34.7-9.5"/>
			<path class="st0" d="M205.9,308c0,0,10.2,4.6,18,3.1"/>
			<path class="st0" d="M208.5,290c0,0,15,3.3,26.6-11.9"/>
			<path class="st0" d="M227.2,285.7c0,0,7.9,1.6,13,0"/>
			<line class="st0" x1="215" y1="283" x2="218.9" y2="271.7"/>
			<path class="st0" d="M232.3,261.9c0,0,7.4-23.2,2.8-30.8"/>
			<path class="st0" d="M236.2,244.4c0,0-5.3-3.1-5.5-6.3s-2.1-7-2.1-7"/>
			<path class="st0" d="M228.6,266.7c0,0,15-2.8,24.5-17.4"/>
			<path class="st0" d="M254.6,228c0,0,13.1,2.3,27.3-10.7"/>
			<path class="st0" d="M262.7,227.6c0,0,15-11.3,15.7-14.8"/>
			<path class="st0" d="M256,225.3c0,0-4.1-20.5,3.1-35.4"/>
			<path class="st0" d="M274,186.5c0,0,14.3-4.6,22-26.3"/>
			<path class="st0" d="M279.7,169.7c0,0-6.6-8.9-5.7-12.4c0.9-3.5-0.1-8.1-0.1-8.1"/>
			<path class="st0" d="M285,178.8c0,0,9.8-5,12.6-3.7"/>
			<path class="st0" d="M305.9,150.4c0,0-0.8,8-7.5,10.1C291.6,162.5,300.5,149,305.9,150.4z"/>
			<path class="st0" d="M290.7,131c0,0,2.4,7.6-2.8,13S285.4,132.6,290.7,131z"/>
			<path class="st0" d="M309.4,169.9c0,0-2.7,7.4-9.7,7.2C292.7,176.9,304.5,166.8,309.4,169.9z"/>
			<path class="st0" d="M293.6,210.1c0,0-2.7,7.4-9.7,7.2C277,217.1,288.8,207,293.6,210.1z"/>
			<path class="st0" d="M246.1,270.7c0,0-2.7,7.4-9.7,7.2S241.2,267.6,246.1,270.7z"/>
			<path class="st0" d="M252.9,280.8c0,0-2.2,8.1-10.1,6.7C235,286.2,247.1,276.5,252.9,280.8z"/>
			<path class="st0" d="M236.6,306.6c0,0-2.2,8.1-10.1,6.7C218.7,312,230.8,302.3,236.6,306.6z"/>
			<path class="st0" d="M238.6,292.4c0,0-2.2,8.1-10.1,6.7S232.8,288.2,238.6,292.4z"/>
			<path class="st0" d="M266.2,177.1c0,0,1.4,7.9-4.5,12.3C255.8,193.9,260.7,177.7,266.2,177.1z"/>
			<path class="st0" d="M260.1,234.8c0,0,1.4,7.9-4.5,12.3S254.6,235.5,260.1,234.8z"/>
			<path class="st0" d="M241.6,218.8c0,0,1.4,7.9-4.5,12.3S236.1,219.4,241.6,218.8z"/>
			<path class="st0" d="M224,219c0,0-4.5,4.8,0.8,10.7C230.2,235.7,230.3,222.2,224,219z"/>
			<path class="st0" d="M270,138c0,0-4.5,4.8,0.8,10.7C276.1,154.7,276.2,141.2,270,138z"/>
			<path class="st0" d="M215.4,257.9c0,0-4.5,4.8,0.8,10.7C221.6,274.6,221.7,261.1,215.4,257.9z"/>
			<path class="st0" d="M187.5,280.6c0,0-4.5,4.8,0.8,10.7S193.7,283.8,187.5,280.6z"/>
			<path class="st0" d="M289.4,205.3c0,0-1.8,7.8-8.8,8.6S284.3,203,289.4,205.3z"/>
		</g>
		<g>
			<path class="st0" d="M150.8,260.7c0,0-22.3-85,23.1-219.7"/>
			<path class="st0" d="M149,251.7c0,0,12.3-26.5,29.5-41.2"/>
			<path class="st0" d="M145.7,218.2c0,0,11.4-20.8,28.3-31.3"/>
			<path class="st0" d="M145.3,200.2c0,0-9.1-31.5-17.6-40.5"/>
			<path class="st0" d="M148.7,149.6c0,0-20.5-34.2-29.8-40.8"/>
			<path class="st0" d="M129.2,120.3c0,0-2.1-23.1,1.4-27.9"/>
			<path class="st0" d="M156.1,105.7c0,0-13.4-34.5-8.2-57"/>
			<path class="st0" d="M155.2,110c0,0,18.9-34.6,35.4-38.1"/>
			<path class="st0" d="M167.5,91.2c0,0,18.4-9.4,26.6-5"/>
			<path class="st0" d="M147,165.3c0,0,5.9-19.7,30.5-35.6"/>
			<path class="st0" d="M158.1,146.7c0,0,20.6-1.4,33.8-15.4"/>
			<path class="st0" d="M127.8,159.7c0,0-9.1-2.2-11-11.3C115,139.3,129.8,152.8,127.8,159.7z"/>
			<path class="st0" d="M118.9,108.7c0,0-9.1-2.2-11-11.3S120.9,101.9,118.9,108.7z"/>
			<path class="st0" d="M129.9,92.2c0,0-8.7-3.8-8.8-12.9S133.2,86,129.9,92.2z"/>
			<path class="st0" d="M148,48.4c0,0-8.7-3.8-8.8-12.9C139.1,26.4,151.3,42.2,148,48.4z"/>
			<path class="st0" d="M173.8,39c0,0-4-8.4,2.4-14.7C182.7,18,180.8,37,173.8,39z"/>
			<path class="st0" d="M191.4,72.3c0,0,1.9-8.7,11.2-9.6C211.8,61.8,198.5,75,191.4,72.3z"/>
			<path class="st0" d="M195,86.4c0,0,1.9-8.7,11.2-9.6S202.1,89.1,195,86.4z"/>
			<path class="st0" d="M177.2,130.4c0,0,1.9-8.7,11.2-9.6C197.6,119.9,184.3,133,177.2,130.4z"/>
			<path class="st0" d="M191.1,130.7c0,0,1.9-8.7,11.2-9.6C211.5,120.2,198.1,133.4,191.1,130.7z"/>
			<path class="st0" d="M178.2,210.4c0,0,1.9-8.7,11.2-9.6C198.6,199.9,185.3,213,178.2,210.4z"/>
			<path class="st0" d="M175.3,187.9c0,0,1.9-8.7,11.2-9.6S182.4,190.5,175.3,187.9z"/>
		</g>
	</g>
	<g>
		<g>
			<path class="st0" d="M1091.1,230.8c-61.5,164.9-211.5,225.3-211.5,225.3"/>
			<g>
				<g>
					<path class="st0" d="M1050,267.1c1.6,12.3,12,25.1,12,25.1l0.6-22.1"/>
					<polyline class="st0" points="1068.4,271.5 1062.1,292.2 1081.8,291.8 					"/>
					<line class="st0" x1="1062.1" y1="292.2" x2="1078.2" y2="279"/>
				</g>
				<ellipse class="st0" cx="1050.5" cy="265" rx="3.1" ry="3.3"/>
				<ellipse class="st0" cx="1081.8" cy="291.8" rx="3.1" ry="3.3"/>
				<ellipse class="st0" cx="1062.9" cy="268.9" rx="2.2" ry="2.3"/>
				<ellipse class="st0" cx="1068.6" cy="270.3" rx="2.2" ry="2.3"/>
				<ellipse class="st0" cx="1078.2" cy="279" rx="2.2" ry="2.3"/>
			</g>
			<g>
				<g>
					<path class="st0" d="M1004.8,394.5c-11.3,2.9-26.2-2.7-26.2-2.7l18.9-8.8"/>
					<polyline class="st0" points="994.3,377.9 978.7,391.9 971.7,372.1 					"/>
					<line class="st0" x1="978.7" y1="391.9" x2="984.1" y2="370.9"/>
				</g>
				<ellipse class="st0" cx="1006.5" cy="393.3" rx="3.1" ry="3.3"/>
				<ellipse class="st0" cx="971.7" cy="372.1" rx="3.1" ry="3.3"/>
				<ellipse class="st0" cx="998.5" cy="382.4" rx="2.2" ry="2.3"/>
				<ellipse class="st0" cx="995.2" cy="377.2" rx="2.2" ry="2.3"/>
				<ellipse class="st0" cx="984.1" cy="370.9" rx="2.2" ry="2.3"/>
			</g>
			<g>
				<g>
					<path class="st0" d="M969,428.1c-11.5-1.7-23.5-12.7-23.5-12.7l20.6-0.8"/>
					<polyline class="st0" points="964.8,408.5 945.5,415.4 945.7,394.3 					"/>
					<line class="st0" x1="945.5" y1="415.4" x2="957.7" y2="398.1"/>
				</g>
				<ellipse class="st0" cx="971" cy="427.6" rx="3.1" ry="3.3"/>
				<ellipse class="st0" cx="945.7" cy="394.3" rx="3.1" ry="3.3"/>
				<ellipse class="st0" cx="967.2" cy="414.4" rx="2.2" ry="2.3"/>
				<ellipse class="st0" cx="965.9" cy="408.2" rx="2.2" ry="2.3"/>
				<ellipse class="st0" cx="957.7" cy="398.1" rx="2.2" ry="2.3"/>
			</g>
			<g>
				<g>
					<path class="st0" d="M1011.9,309.8c2.2,16.5,16.1,33.5,16.1,33.5l0.7-29.6"/>
					<polyline class="st0" points="1036.4,315.5 1028,343.3 1054.3,342.8 					"/>
					<line class="st0" x1="1028" y1="343.3" x2="1049.5" y2="325.6"/>
				</g>
				<ellipse class="st0" cx="1012.5" cy="306.9" rx="4.1" ry="4.4"/>
				<ellipse class="st0" cx="1054.3" cy="342.8" rx="4.1" ry="4.4"/>
				<ellipse class="st0" cx="1029" cy="312.1" rx="2.9" ry="3.1"/>
				<ellipse class="st0" cx="1036.7" cy="313.9" rx="2.9" ry="3.1"/>
				<ellipse class="st0" cx="1049.5" cy="325.6" rx="2.9" ry="3.1"/>
			</g>
			<g>
				<path class="st0" d="M1125.9,223c0,0-20.8,16.5-38.4,5.3s-15.8-32-15.8-32"/>
				<path class="st0" d="M1082.9,186.1c0,0-0.9,36.4,4.5,42.2s35.3-22.8,35.3-22.8"/>
				<polyline class="st0" points="1094.7,193.9 1091.1,228.9 1110.1,198.3 				"/>
				<ellipse class="st0" cx="1070" cy="196.5" rx="3.5" ry="3.8"/>
				<ellipse class="st0" cx="1083.5" cy="184.8" rx="3.2" ry="3.4"/>
				<ellipse class="st0" cx="1096.1" cy="193.7" rx="2.6" ry="2.8"/>
				<ellipse class="st0" cx="1111.2" cy="197.1" rx="2.9" ry="3.2"/>
				<ellipse class="st0" cx="1123" cy="204.5" rx="2.9" ry="3.1"/>
				<ellipse class="st0" cx="1126.7" cy="221" rx="4" ry="4.3"/>
			</g>
		</g>
		<g>
			<path class="st0" d="M991.7,341.3c0,0-107.4-63.8-134.2-192.6"/>
			<line class="st0" x1="956.7" y1="314.7" x2="952.4" y2="296.4"/>
			<path class="st0" d="M952.4,310.7c0,0-20.4,5.1-34.7-9.5"/>
			<path class="st0" d="M937.6,311.6c0,0-10.2,4.6-18,3.1"/>
			<path class="st0" d="M935,293.6c0,0-15,3.3-26.6-11.9"/>
			<path class="st0" d="M916.3,289.3c0,0-7.9,1.6-13,0"/>
			<line class="st0" x1="928.5" y1="286.6" x2="924.6" y2="275.3"/>
			<path class="st0" d="M911.2,265.5c0,0-7.4-23.2-2.8-30.8"/>
			<path class="st0" d="M907.3,248c0,0,5.3-3.1,5.5-6.3c0.2-3.2,2.1-7,2.1-7"/>
			<path class="st0" d="M914.9,270.3c0,0-15-2.8-24.5-17.4"/>
			<path class="st0" d="M888.9,231.6c0,0-13.1,2.3-27.3-10.7"/>
			<path class="st0" d="M880.8,231.2c0,0-15-11.3-15.7-14.8"/>
			<path class="st0" d="M887.5,229c0,0,4.1-20.5-3.1-35.4"/>
			<path class="st0" d="M869.5,190.1c0,0-14.3-4.6-22-26.3"/>
			<path class="st0" d="M863.8,173.3c0,0,6.6-8.9,5.7-12.4s0.1-8.1,0.1-8.1"/>
			<path class="st0" d="M858.5,182.4c0,0-9.8-5-12.6-3.7"/>
			<path class="st0" d="M837.6,154c0,0,0.8,8,7.5,10.1C851.9,166.2,843,152.6,837.6,154z"/>
			<path class="st0" d="M852.8,134.6c0,0-2.4,7.6,2.8,13S858.1,136.2,852.8,134.6z"/>
			<path class="st0" d="M834.1,173.5c0,0,2.7,7.4,9.7,7.2C850.8,180.5,839,170.4,834.1,173.5z"/>
			<path class="st0" d="M849.9,213.7c0,0,2.7,7.4,9.7,7.2S854.7,210.6,849.9,213.7z"/>
			<path class="st0" d="M897.4,274.3c0,0,2.7,7.4,9.7,7.2C914,281.3,902.2,271.3,897.4,274.3z"/>
			<path class="st0" d="M890.6,284.4c0,0,2.2,8.1,10.1,6.7C908.5,289.8,896.4,280.1,890.6,284.4z"/>
			<path class="st0" d="M906.9,310.2c0,0,2.2,8.1,10.1,6.7C924.8,315.6,912.7,305.9,906.9,310.2z"/>
			<path class="st0" d="M904.9,296c0,0,2.2,8.1,10.1,6.7C922.8,301.4,910.7,291.8,904.9,296z"/>
			<path class="st0" d="M877.3,180.7c0,0-1.4,7.9,4.5,12.3S882.8,181.4,877.3,180.7z"/>
			<path class="st0" d="M883.4,238.4c0,0-1.4,7.9,4.5,12.3C893.8,255.2,888.9,239.1,883.4,238.4z"/>
			<path class="st0" d="M901.9,222.4c0,0-1.4,7.9,4.5,12.3S907.4,223,901.9,222.4z"/>
			<path class="st0" d="M919.5,222.7c0,0,4.5,4.8-0.8,10.7C913.3,239.3,913.2,225.8,919.5,222.7z"/>
			<path class="st0" d="M873.5,141.7c0,0,4.5,4.8-0.8,10.7C867.4,158.3,867.3,144.8,873.5,141.7z"/>
			<path class="st0" d="M928.1,261.6c0,0,4.5,4.8-0.8,10.7C921.9,278.2,921.8,264.7,928.1,261.6z"/>
			<path class="st0" d="M956,284.2c0,0,4.5,4.8-0.8,10.7C949.9,300.9,949.8,287.4,956,284.2z"/>
			<path class="st0" d="M854.1,208.9c0,0,1.8,7.8,8.8,8.6C869.8,218.4,859.2,206.6,854.1,208.9z"/>
		</g>
		<g>
			<path class="st0" d="M992.7,264.3c0,0,22.3-85-23.1-219.7"/>
			<path class="st0" d="M994.5,255.3c0,0-12.3-26.5-29.5-41.2"/>
			<path class="st0" d="M997.8,221.8c0,0-11.4-20.8-28.3-31.3"/>
			<path class="st0" d="M998.2,203.8c0,0,9.1-31.5,17.6-40.5"/>
			<path class="st0" d="M994.8,153.2c0,0,20.5-34.2,29.8-40.8"/>
			<path class="st0" d="M1014.3,123.9c0,0,2.1-23.1-1.4-27.9"/>
			<path class="st0" d="M987.4,109.3c0,0,13.4-34.5,8.2-57"/>
			<path class="st0" d="M988.3,113.6c0,0-18.9-34.6-35.4-38.1"/>
			<path class="st0" d="M976,94.8c0,0-18.4-9.4-26.6-5"/>
			<path class="st0" d="M996.5,168.9c0,0-5.9-19.7-30.5-35.6"/>
			<path class="st0" d="M985.4,150.3c0,0-20.6-1.4-33.8-15.4"/>
			<path class="st0" d="M1015.7,163.3c0,0,9.1-2.2,11-11.3C1028.5,142.9,1013.7,156.5,1015.7,163.3z"/>
			<path class="st0" d="M1024.6,112.3c0,0,9.1-2.2,11-11.3S1022.6,105.5,1024.6,112.3z"/>
			<path class="st0" d="M1013.5,95.8c0,0,8.7-3.8,8.8-12.9C1022.4,73.8,1010.3,89.6,1013.5,95.8z"/>
			<path class="st0" d="M995.5,52.1c0,0,8.7-3.8,8.8-12.9C1004.4,30,992.2,45.8,995.5,52.1z"/>
			<path class="st0" d="M969.7,42.6c0,0,4-8.4-2.4-14.7C960.8,21.6,962.7,40.6,969.7,42.6z"/>
			<path class="st0" d="M952.1,75.9c0,0-1.9-8.7-11.2-9.6C931.6,65.4,945,78.6,952.1,75.9z"/>
			<path class="st0" d="M948.5,90.1c0,0-1.9-8.7-11.2-9.6C928,79.6,941.4,92.7,948.5,90.1z"/>
			<path class="st0" d="M966.3,134c0,0-1.9-8.7-11.2-9.6S959.2,136.6,966.3,134z"/>
			<path class="st0" d="M952.4,134.3c0,0-1.9-8.7-11.2-9.6C932,123.8,945.4,137,952.4,134.3z"/>
			<path class="st0" d="M965.3,214c0,0-1.9-8.7-11.2-9.6C944.8,203.5,958.2,216.7,965.3,214z"/>
			<path class="st0" d="M968.2,191.5c0,0-1.9-8.7-11.2-9.6C947.7,181,961.1,194.2,968.2,191.5z"/>
		</g>
	</g>
</g>
</svg>
