<?xml version="1.0" encoding="utf-8"?>
<!-- Generator: Adobe Illustrator 22.0.0, SVG Export Plug-In . SVG Version: 6.00 Build 0)  -->
<svg version="1.1" id="Layer_1" xmlns="http://www.w3.org/2000/svg" xmlns:xlink="http://www.w3.org/1999/xlink" x="0px" y="0px"
	 viewBox="0 0 450 170" style="enable-background:new 0 0 450 170;" xml:space="preserve">
<style type="text/css">
	.st0{fill:none;stroke:#A88E5A;stroke-width:2;stroke-miterlimit:10;}
</style>
<path class="st0" d="M408,57.3c-9,0-17.3,1.9-23.9,5c-7-13.6-23.3-23.1-42.3-23.1c-16,0-30,6.7-38.3,16.9
	c-3.2-15.6-18-27.5-35.8-27.5c-10.3,0-19.7,4-26.3,10.4c-8.5-6.5-19.4-10.4-31.1-10.4c-7.4,0-14.5,1.6-20.9,4.3
	C182.8,18.3,168.9,7,152,4.7c-22.7-3-42.7,11.5-47,33.1c-4.7-2-9.8-3.1-15.2-3.1C75,34.7,62.2,42.8,55,55c-4.6-1.8-9.7-2.8-15-2.8
	c-19.5,0-35.3,13-35.3,29.1s15.8,29.1,35.3,29.1c7.2,0,14-1.8,19.6-4.9c7.4,8.6,18.2,13.9,30.1,13.9c1.7,0,3.4-0.1,5.1-0.3
	c2.2,26.7,33.1,47.8,71,47.8c33.9,0,62.1-16.9,69.3-39.5c6.3,21.1,29.3,36.8,56.9,36.8c30.2,0,55.1-18.9,58.2-43
	c5.9,3,12.9,4.8,20.4,4.8c16.6,0,30.8-8.6,36.4-20.6c0.3,0,0.6,0,0.9,0c21.6,0,39.1-10.8,39.1-24.1S429.6,57.3,408,57.3z"/>
</svg>
