<?xml version="1.0" encoding="utf-8"?>
<!-- Generator: Adobe Illustrator 22.0.0, SVG Export Plug-In . SVG Version: 6.00 Build 0)  -->
<svg version="1.1" id="Layer_1" xmlns="http://www.w3.org/2000/svg" xmlns:xlink="http://www.w3.org/1999/xlink" x="0px" y="0px"
	 viewBox="0 0 450 170" style="enable-background:new 0 0 450 170;" xml:space="preserve">
<style type="text/css">
	.st0{fill:none;stroke:#A88E5A;stroke-width:2;stroke-miterlimit:10;}
</style>
<path class="st0" d="M42,56.6c9,0,17.3,1.9,24,5c7-13.6,23.4-23.1,42.5-23.1c16,0,30.2,6.7,38.5,16.9c3.2-15.7,18.1-27.5,36-27.5
	c10.4,0,19.8,4,26.5,10.4c8.6-6.5,19.5-10.4,31.3-10.4c7.5,0,14.6,1.6,21,4.4c6.5-14.8,20.5-26.1,37.5-28.3
	c22.8-3,42.9,11.5,47.2,33.1c4.7-2,9.9-3.1,15.3-3.1c14.8,0,27.7,8.1,34.9,20.4c4.6-1.8,9.7-2.8,15.1-2.8c19.6,0,35.5,13,35.5,29.1
	s-15.9,29.1-35.5,29.1c-7.3,0-14.1-1.8-19.7-4.9c-7.5,8.6-18.3,14-30.3,14c-1.7,0-3.4-0.1-5.1-0.3c-2.2,26.7-33.3,47.9-71.3,47.9
	c-34,0-62.4-16.9-69.6-39.6c-6.3,21.2-29.5,36.9-57.1,36.9c-30.3,0-55.3-18.9-58.5-43.1c-6,3-13,4.8-20.5,4.8
	c-16.7,0-30.9-8.6-36.6-20.6c-0.3,0-0.6,0-1,0c-21.7,0-39.3-10.8-39.3-24.1S20.3,56.6,42,56.6z"/>
</svg>
