<?xml version="1.0" encoding="utf-8"?>
<!-- Generator: Adobe Illustrator 16.0.0, SVG Export Plug-In . SVG Version: 6.00 Build 0)  -->
<!DOCTYPE svg PUBLIC "-//W3C//DTD SVG 1.1//EN" "http://www.w3.org/Graphics/SVG/1.1/DTD/svg11.dtd">
<svg version="1.1" id="Layer_1" xmlns="http://www.w3.org/2000/svg" xmlns:xlink="http://www.w3.org/1999/xlink" x="0px" y="0px"
	 width="400px" height="200px" viewBox="0 0 400 200" enable-background="new 0 0 400 200" xml:space="preserve">
<g>
	<path fill="#FFFFFF" d="M234.71,156.472c-10.952-8.332-23.215,4.049-14.881,14.881C230.662,179.687,243.044,167.425,234.71,156.472
		z M227.091,169.448c-3.096,0-5.596-2.5-5.596-5.596c0-3.094,2.5-5.594,5.596-5.594s5.596,2.5,5.596,5.594
		C232.687,166.948,230.187,169.448,227.091,169.448z"/>
	<rect x="222.448" y="134.329" fill="#546071" stroke="#FFFFFF" stroke-miterlimit="10" width="9.523" height="7.5"/>
	<rect x="224.114" y="141.829" fill="#546071" stroke="#FFFFFF" stroke-miterlimit="10" width="6.43" height="12.619"/>
	<path fill="#546071" stroke="#FFFFFF" stroke-miterlimit="10" d="M227.687,163.972h-0.953c-0.476,0-0.833-0.355-0.833-0.832v-7.977
		c0-0.477,0.357-0.834,0.833-0.834h0.953c0.476,0,0.833,0.357,0.833,0.834v7.977C228.52,163.616,228.162,163.972,227.687,163.972z"
		/>
	<polyline fill="#546071" stroke="#FFFFFF" stroke-miterlimit="10" points="258.4,150.759 250.067,132.663 241.258,132.663 
		253.52,152.782 	"/>
	<line fill="none" stroke="#FFFFFF" stroke-miterlimit="10" x1="253.639" y1="140.521" x2="246.02" y2="140.521"/>
	<rect x="349.353" y="127.425" fill="#546071" stroke="#FFFFFF" stroke-miterlimit="10" width="10.119" height="13.691"/>
	<rect x="352.329" y="141.116" fill="#546071" stroke="#FFFFFF" stroke-miterlimit="10" width="4.285" height="14.523"/>
	<path fill="#FFFFFF" d="M361.258,155.163c-9.405-7.143-20,3.453-12.857,12.857C357.806,175.163,368.4,164.567,361.258,155.163z
		 M354.71,166.353c-2.619,0-4.762-2.143-4.762-4.762s2.143-4.762,4.762-4.762s4.762,2.143,4.762,4.762
		S357.329,166.353,354.71,166.353z"/>
	<path fill="#FFFFFF" d="M259.829,150.64c-5.596,0-10.238,4.523-10.238,10.238c0,5.713,4.523,10.238,10.238,10.238
		c5.595,0,10.238-4.525,10.238-10.238C270.067,155.163,265.543,150.64,259.829,150.64z M259.71,166.353
		c-3.096,0-5.596-2.5-5.596-5.594c0-3.096,2.5-5.596,5.596-5.596s5.596,2.5,5.596,5.596
		C265.306,163.853,262.687,166.353,259.71,166.353z"/>
	<path fill="#546071" stroke="#FFFFFF" stroke-miterlimit="10" d="M9.115,12.306h20.952c0.477,0,0.833,0.238,1.072,0.595
		l32.5,55.476c0.119,0.238,0.476,0.476,0.714,0.595l69.881,17.738l109.405-7.5c0,0,62.023-27.857,64.167-28.333
		c2.143-0.476,41.309-6.786,42.143-0.119c0,3.214-52.262,32.143-52.262,32.143s18.214,8.095,22.737,14.167
		c19.286,1.429,48.215,1.548,56.667,8.453c9.405,1.07,15,3.451,15,6.785c0,3.453-15,6.43-15,6.43s-5.238,10.236-39.404,12.262
		c-34.167,2.143-170.596,5.713-172.5,5.475c-1.905-0.119-127.976-19.643-131.667-22.143c-2.738-1.904-14.405-10.238-20-14.285
		c-0.953-0.714-0.476-2.262,0.714-2.262l0,0c0.714,0,1.31-0.595,1.19-1.31l-7.5-82.738C7.805,12.901,8.4,12.306,9.115,12.306z"/>
	<line fill="none" stroke="#FFFFFF" stroke-miterlimit="10" x1="134.353" y1="86.711" x2="15.186" y2="97.306"/>
	<path fill="#546071" stroke="#FFFFFF" stroke-miterlimit="10" d="M166.853,111.948l-57.381,67.023
		c-1.547,1.906-0.476,4.764,1.905,5.119l24.048,3.572c0.833,0.119,1.667-0.119,2.262-0.596l94.286-68.451"/>
	<path fill="#FFFFFF" stroke="#FFFFFF" stroke-miterlimit="10" d="M295.781,81.592c-3.214,3.095-3.333,7.143-3.214,8.571
		c0,0.357,0.119,0.595,0.356,0.833l11.429,10.594c0.357,0.357,0.834,0.357,1.19,0.238l14.881-4.999c0,0-8.095-6.548-11.428-8.453
		C306.733,86.949,295.781,81.592,295.781,81.592z"/>
	<path fill="#FFFFFF" stroke="#FFFFFF" stroke-miterlimit="10" d="M173.876,105.044h-14.047c-0.833,0-1.429-0.596-1.429-1.428v-8.81
		c0-0.833,0.595-1.429,1.429-1.429h14.047c0.833,0,1.429,0.595,1.429,1.429v8.81C175.305,104.329,174.71,105.044,173.876,105.044z"
		/>
	<path fill="#FFFFFF" stroke="#FFFFFF" stroke-miterlimit="10" d="M196.258,105.044H182.21c-0.833,0-1.429-0.596-1.429-1.428v-8.81
		c0-0.833,0.595-1.429,1.429-1.429h14.048c0.833,0,1.428,0.595,1.428,1.429v8.81C197.686,104.329,196.972,105.044,196.258,105.044z"
		/>
	<path fill="#FFFFFF" stroke="#FFFFFF" stroke-miterlimit="10" d="M218.639,105.044h-14.167c-0.833,0-1.428-0.596-1.428-1.428v-8.81
		c0-0.833,0.595-1.429,1.428-1.429h14.048c0.833,0,1.429,0.595,1.429,1.429v8.81C219.948,104.329,219.353,105.044,218.639,105.044z"
		/>
	<path fill="#FFFFFF" stroke="#FFFFFF" stroke-miterlimit="10" d="M240.9,105.044h-14.048c-0.833,0-1.428-0.596-1.428-1.428v-8.81
		c0-0.833,0.595-1.429,1.428-1.429H240.9c0.833,0,1.429,0.595,1.429,1.429v8.81C242.329,104.329,241.733,105.044,240.9,105.044z"/>
	<path fill="#FFFFFF" stroke="#FFFFFF" stroke-miterlimit="10" d="M263.281,105.044h-14.048c-0.833,0-1.428-0.596-1.428-1.428v-8.81
		c0-0.833,0.595-1.429,1.428-1.429h14.048c0.833,0,1.429,0.595,1.429,1.429v8.81C264.71,104.329,263.996,105.044,263.281,105.044z"
		/>
	<path fill="#FFFFFF" stroke="#FFFFFF" stroke-miterlimit="10" d="M276.853,94.211v8.69c0,0.715,0.596,1.309,1.31,1.189
		l16.667-0.475c1.071,0,1.548-1.311,0.833-2.145L284.829,90.64c-0.357-0.357-0.952-0.477-1.429-0.238l-5.833,2.619
		C277.21,93.258,276.853,93.735,276.853,94.211z"/>
	<path fill="#546071" stroke="#FFFFFF" stroke-miterlimit="10" d="M270.187,120.997l17.737-37.977
		c0.238-0.476,0.596-0.714,1.072-0.714h4.881c0.833,0,1.429,0.952,1.19,1.667l-16.071,37.976c-0.238,0.477-0.596,0.715-1.19,0.715
		h-6.548C270.306,122.663,269.71,121.71,270.187,120.997z"/>
	<path fill="#FFFFFF" stroke="#FFFFFF" stroke-miterlimit="10" d="M300.067,82.306h-17.977c-0.833,0-1.429-0.595-1.429-1.429v-2.381
		c0-0.833,0.596-1.429,1.429-1.429h17.977c0.833,0,1.429,0.595,1.429,1.429v2.381C301.496,81.592,300.9,82.306,300.067,82.306z"/>
	<line fill="none" stroke="#FFFFFF" stroke-miterlimit="10" x1="377.091" y1="105.282" x2="377.091" y2="118.616"/>
</g>
</svg>
