<?xml version="1.0" encoding="utf-8"?>
<!-- Generator: Adobe Illustrator 23.0.1, SVG Export Plug-In . SVG Version: 6.00 Build 0)  -->
<svg version="1.1" id="Layer_1" xmlns="http://www.w3.org/2000/svg" xmlns:xlink="http://www.w3.org/1999/xlink" x="0px" y="0px"
	 viewBox="0 0 360 420" style="enable-background:new 0 0 360 420;" xml:space="preserve">
<style type="text/css">
	.st0{fill:#FFFFFF;}
	.st1{fill:#546071;stroke:#FFFFFF;stroke-miterlimit:10;}
	.st2{fill:#FFFFFF;stroke:#FFFFFF;stroke-miterlimit:10;}
</style>
<g>
	<path class="st0" d="M209.4,257.1c-9.2-7-19.5,3.4-12.5,12.5C206,276.6,216.4,266.3,209.4,257.1z M203,268c-2.6,0-4.7-2.1-4.7-4.7
		s2.1-4.7,4.7-4.7s4.7,2.1,4.7,4.7S205.6,268,203,268z"/>
	<rect x="199.1" y="238.5" class="st1" width="8" height="6.3"/>
	<rect x="200.5" y="244.8" class="st1" width="5.4" height="10.6"/>
	<path class="st1" d="M203.5,263.4h-0.8c-0.4,0-0.7-0.3-0.7-0.7V256c0-0.4,0.3-0.7,0.7-0.7h0.8c0.4,0,0.7,0.3,0.7,0.7v6.7
		C204.2,263.1,203.9,263.4,203.5,263.4z"/>
	<polyline class="st1" points="229.3,252.3 222.3,237.1 214.9,237.1 225.2,254 	"/>
	<line class="st1" x1="225.3" y1="243.7" x2="218.9" y2="243.7"/>
	<rect x="305.7" y="232.7" class="st1" width="8.5" height="11.5"/>
	<rect x="308.2" y="244.2" class="st1" width="3.6" height="12.2"/>
	<path class="st0" d="M315.7,256c-7.9-6-16.8,2.9-10.8,10.8C312.8,272.8,321.7,263.9,315.7,256z M310.2,265.4c-2.2,0-4-1.8-4-4
		c0-2.2,1.8-4,4-4c2.2,0,4,1.8,4,4C314.2,263.6,312.4,265.4,310.2,265.4z"/>
	<path class="st0" d="M230.5,252.2c-4.7,0-8.6,3.8-8.6,8.6s3.8,8.6,8.6,8.6c4.7,0,8.6-3.8,8.6-8.6S235.3,252.2,230.5,252.2z
		 M230.4,265.4c-2.6,0-4.7-2.1-4.7-4.7s2.1-4.7,4.7-4.7c2.6,0,4.7,2.1,4.7,4.7S232.9,265.4,230.4,265.4z"/>
	<path class="st1" d="M19.9,136h17.6c0.4,0,0.7,0.2,0.9,0.5l27.3,46.6c0.1,0.2,0.4,0.4,0.6,0.5l58.7,14.9l91.9-6.3
		c0,0,52.1-23.4,53.9-23.8c1.8-0.4,34.7-5.7,35.4-0.1c0,2.7-43.9,27-43.9,27s15.3,6.8,19.1,11.9c16.2,1.2,40.5,1.3,47.6,7.1
		c7.9,0.9,12.6,2.9,12.6,5.7c0,2.9-12.6,5.4-12.6,5.4s-4.4,8.6-33.1,10.3c-28.7,1.8-143.3,4.8-144.9,4.6
		c-1.6-0.1-107.5-16.5-110.6-18.6c-2.3-1.6-12.1-8.6-16.8-12c-0.8-0.6-0.4-1.9,0.6-1.9h0c0.6,0,1.1-0.5,1-1.1l-6.3-69.5
		C18.8,136.5,19.3,136,19.9,136z"/>
	<line class="st2" x1="125.1" y1="198.5" x2="25" y2="207.4"/>
	<path class="st1" d="M152.4,219.7l-48.2,56.3c-1.3,1.6-0.4,4,1.6,4.3l20.2,3c0.7,0.1,1.4-0.1,1.9-0.5l79.2-57.5"/>
	<path class="st2" d="M260.7,194.2c-2.7,2.6-2.8,6-2.7,7.2c0,0.3,0.1,0.5,0.3,0.7l9.6,8.9c0.3,0.3,0.7,0.3,1,0.2l12.5-4.2
		c0,0-6.8-5.5-9.6-7.1C269.9,198.7,260.7,194.2,260.7,194.2z"/>
	<path class="st2" d="M158.3,213.9h-11.8c-0.7,0-1.2-0.5-1.2-1.2v-7.4c0-0.7,0.5-1.2,1.2-1.2h11.8c0.7,0,1.2,0.5,1.2,1.2v7.4
		C159.5,213.3,159,213.9,158.3,213.9z"/>
	<path class="st2" d="M177.1,213.9h-11.8c-0.7,0-1.2-0.5-1.2-1.2v-7.4c0-0.7,0.5-1.2,1.2-1.2h11.8c0.7,0,1.2,0.5,1.2,1.2v7.4
		C178.3,213.3,177.7,213.9,177.1,213.9z"/>
	<path class="st2" d="M195.9,213.9H184c-0.7,0-1.2-0.5-1.2-1.2v-7.4c0-0.7,0.5-1.2,1.2-1.2h11.8c0.7,0,1.2,0.5,1.2,1.2v7.4
		C197,213.3,196.5,213.9,195.9,213.9z"/>
	<path class="st2" d="M214.6,213.9h-11.8c-0.7,0-1.2-0.5-1.2-1.2v-7.4c0-0.7,0.5-1.2,1.2-1.2h11.8c0.7,0,1.2,0.5,1.2,1.2v7.4
		C215.8,213.3,215.3,213.9,214.6,213.9z"/>
	<path class="st2" d="M233.4,213.9h-11.8c-0.7,0-1.2-0.5-1.2-1.2v-7.4c0-0.7,0.5-1.2,1.2-1.2h11.8c0.7,0,1.2,0.5,1.2,1.2v7.4
		C234.6,213.3,234,213.9,233.4,213.9z"/>
	<path class="st2" d="M244.8,204.8v7.3c0,0.6,0.5,1.1,1.1,1l14-0.4c0.9,0,1.3-1.1,0.7-1.8l-9.1-9.1c-0.3-0.3-0.8-0.4-1.2-0.2
		l-4.9,2.2C245.1,204,244.8,204.4,244.8,204.8z"/>
	<path class="st1" d="M239.2,227.3l14.9-31.9c0.2-0.4,0.5-0.6,0.9-0.6h4.1c0.7,0,1.2,0.8,1,1.4l-13.5,31.9c-0.2,0.4-0.5,0.6-1,0.6
		h-5.5C239.3,228.7,238.8,227.9,239.2,227.3z"/>
	<path class="st2" d="M264.3,194.8h-15.1c-0.7,0-1.2-0.5-1.2-1.2v-2c0-0.7,0.5-1.2,1.2-1.2h15.1c0.7,0,1.2,0.5,1.2,1.2v2
		C265.5,194.2,265,194.8,264.3,194.8z"/>
	<line class="st2" x1="329" y1="214.1" x2="329" y2="225.3"/>
</g>
</svg>
