<?xml version="1.0" encoding="utf-8"?>
<!-- Generator: Adobe Illustrator 23.0.1, SVG Export Plug-In . SVG Version: 6.00 Build 0)  -->
<svg version="1.1" id="Layer_1" xmlns="http://www.w3.org/2000/svg" xmlns:xlink="http://www.w3.org/1999/xlink" x="0px" y="0px"
	 viewBox="0 0 799 420" style="enable-background:new 0 0 799 420;" xml:space="preserve">
<style type="text/css">
	.st0{fill:#A88E5A;}
	.st1{fill:#ECDFBC;stroke:#A88E5A;stroke-width:2;stroke-miterlimit:10;}
	.st2{fill:#A88E5A;stroke:#A88E5A;stroke-width:2;stroke-miterlimit:10;}
</style>
<g>
	<path class="st0" d="M464.5,320.9c-21.6-16.4-45.9,8-29.5,29.5C456.6,366.9,481,342.5,464.5,320.9z M449.4,346.6
		c-6,0-10.9-4.9-10.9-10.9s4.9-10.9,10.9-10.9s10.9,4.9,10.9,10.9S455.5,346.6,449.4,346.6z"/>
	<rect x="440.3" y="277.2" class="st1" width="18.9" height="14.7"/>
	<rect x="443.5" y="291.9" class="st1" width="12.6" height="24.9"/>
	<path class="st1" d="M451.6,335.7H448c-0.4,0-0.7-0.3-0.7-0.7v-17.6c0-0.4,0.3-0.7,0.7-0.7h3.6c0.4,0,0.7,0.3,0.7,0.7V335
		C452.2,335.4,451.9,335.7,451.6,335.7z"/>
	<polyline class="st1" points="511.3,309.6 494.8,273.9 477.5,273.9 501.7,313.7 	"/>
	<line class="st1" x1="501.9" y1="289.3" x2="486.9" y2="289.3"/>
	<rect x="691.1" y="263.6" class="st1" width="19.9" height="27.1"/>
	<rect x="696.8" y="290.7" class="st1" width="8.4" height="28.7"/>
	<path class="st0" d="M714.6,318.3c-18.5-14.1-39.4,6.8-25.3,25.3C707.8,357.8,728.7,336.8,714.6,318.3z M701.6,340.4
		c-5.2,0-9.4-4.2-9.4-9.4s4.2-9.4,9.4-9.4c5.2,0,9.4,4.2,9.4,9.4S706.8,340.4,701.6,340.4z"/>
	<path class="st0" d="M514.2,309.4c-11.1,0-20.1,9-20.1,20.1s9,20.1,20.1,20.1c11.1,0,20.1-9,20.1-20.1S525.3,309.4,514.2,309.4z
		 M513.8,340.5c-6,0-10.9-4.9-10.9-10.9s4.9-10.9,10.9-10.9c6,0,10.9,4.9,10.9,10.9S519.9,340.5,513.8,340.5z"/>
	<path class="st1" d="M18.7,36h41.5c0.9,0,1.7,0.5,2.1,1.2l64.3,109.7c0.3,0.6,0.9,1,1.5,1.1l138.1,35l216.2-14.9
		c0,0,122.6-55,126.8-56.1c4.2-1.1,81.6-13.3,83.4-0.4c0,6.3-103.4,63.4-103.4,63.4s36.1,16.1,44.8,28c38.2,2.8,95.4,3,111.9,16.6
		c18.7,2.1,29.6,6.8,29.6,13.5c0,6.7-29.6,12.8-29.6,12.8s-10.3,20.1-78,24.4c-67.6,4.2-337.1,11.2-340.9,10.9s-253-38.9-260.3-43.8
		c-5.5-3.7-28.4-20.2-39.5-28.2c-1.9-1.4-0.9-4.4,1.4-4.4h0c1.4,0,2.5-1.2,2.4-2.6L16.2,38.6C16.1,37.2,17.2,36,18.7,36z"/>
	<line class="st2" x1="266.2" y1="183" x2="30.6" y2="204.1"/>
	<path class="st1" d="M330.4,232.9L217,365.3c-3.2,3.7-1,9.4,3.8,10.1l47.4,7.1c1.6,0.2,3.2-0.2,4.5-1.1L459.2,246"/>
	<path class="st2" d="M585.2,173c-6.4,6.2-6.6,14.2-6.4,16.9c0,0.6,0.3,1.2,0.8,1.6l22.7,21c0.7,0.6,1.6,0.8,2.5,0.5l29.4-9.8
		c0,0-16-12.8-22.5-16.7C606.8,183.6,585.2,173,585.2,173z"/>
	<path class="st2" d="M345.9,219.2h-31c-0.7,0-1.2-0.5-1.2-1.2v-20.5c0-0.7,0.5-1.2,1.2-1.2h31c0.7,0,1.2,0.5,1.2,1.2v20.5
		C347.1,218.7,346.6,219.2,345.9,219.2z"/>
	<path class="st2" d="M390.1,219.2h-31c-0.7,0-1.2-0.5-1.2-1.2v-20.5c0-0.7,0.5-1.2,1.2-1.2h31c0.7,0,1.2,0.5,1.2,1.2v20.5
		C391.3,218.7,390.7,219.2,390.1,219.2z"/>
	<path class="st2" d="M434.2,219.2h-31c-0.7,0-1.2-0.5-1.2-1.2v-20.5c0-0.7,0.5-1.2,1.2-1.2h31c0.7,0,1.2,0.5,1.2,1.2v20.5
		C435.4,218.7,434.9,219.2,434.2,219.2z"/>
	<path class="st2" d="M478.4,219.2h-31c-0.7,0-1.2-0.5-1.2-1.2v-20.5c0-0.7,0.5-1.2,1.2-1.2h31c0.7,0,1.2,0.5,1.2,1.2v20.5
		C479.6,218.7,479,219.2,478.4,219.2z"/>
	<path class="st2" d="M522.5,219.2h-31c-0.7,0-1.2-0.5-1.2-1.2v-20.5c0-0.7,0.5-1.2,1.2-1.2h31c0.7,0,1.2,0.5,1.2,1.2v20.5
		C523.7,218.7,523.2,219.2,522.5,219.2z"/>
	<path class="st2" d="M547.9,197.9v17.2c0,1.4,1.1,2.5,2.5,2.4l32.9-1.1c2.1-0.1,3.1-2.6,1.6-4.1L563.5,191
		c-0.7-0.7-1.8-0.9-2.7-0.5l-11.5,5.2C548.4,196.1,547.9,197,547.9,197.9z"/>
	<path class="st1" d="M534.5,250.7l35-75c0.4-0.9,1.3-1.4,2.2-1.4h9.8c1.7,0,2.9,1.8,2.2,3.4l-31.8,75c-0.4,0.9-1.3,1.5-2.2,1.5h-13
		C534.9,254.2,533.8,252.3,534.5,250.7z"/>
	<path class="st2" d="M595.3,174.3h-38.6c-0.7,0-1.2-0.5-1.2-1.2v-7.9c0-0.7,0.5-1.2,1.2-1.2h38.6c0.7,0,1.2,0.5,1.2,1.2v7.9
		C596.5,173.8,596,174.3,595.3,174.3z"/>
	<line class="st2" x1="746" y1="219.8" x2="746" y2="246"/>
</g>
</svg>
