<?xml version="1.0" encoding="utf-8"?>
<!-- Generator: Adobe Illustrator 16.0.0, SVG Export Plug-In . SVG Version: 6.00 Build 0)  -->
<!DOCTYPE svg PUBLIC "-//W3C//DTD SVG 1.1//EN" "http://www.w3.org/Graphics/SVG/1.1/DTD/svg11.dtd">
<svg version="1.1" id="Layer_1" xmlns="http://www.w3.org/2000/svg" xmlns:xlink="http://www.w3.org/1999/xlink" x="0px" y="0px"
	 width="400px" height="200px" viewBox="0 0 400 200" enable-background="new 0 0 400 200" xml:space="preserve">
<g>
	<path fill="#A88E5A" d="M232.691,153.154c-10.286-7.81-21.856,3.81-14.048,14.048C228.93,175.06,240.549,163.44,232.691,153.154z
		 M225.501,165.393c-2.857,0-5.19-2.333-5.19-5.19s2.333-5.191,5.19-5.191s5.19,2.334,5.19,5.191S228.405,165.393,225.501,165.393z"
		/>
	<rect x="221.168" y="132.345" fill="#ECDFBC" stroke="#A88E5A" stroke-width="2" stroke-miterlimit="10" width="9" height="7"/>
	
		<rect x="222.691" y="139.345" fill="#ECDFBC" stroke="#A88E5A" stroke-width="2" stroke-miterlimit="10" width="6" height="11.857"/>
	<path fill="#ECDFBC" stroke="#A88E5A" stroke-width="2" stroke-miterlimit="10" d="M226.549,160.202h-1.714
		c-0.191,0-0.334-0.143-0.334-0.334v-8.381c0-0.19,0.143-0.333,0.334-0.333h1.714c0.19,0,0.333,0.143,0.333,0.333v8.381
		C226.835,160.06,226.691,160.202,226.549,160.202z"/>
	<polyline fill="#ECDFBC" stroke="#A88E5A" stroke-width="2" stroke-miterlimit="10" points="254.978,147.773 247.12,130.773 
		238.882,130.773 250.405,149.726 	"/>
	
		<line fill="none" stroke="#A88E5A" stroke-width="2" stroke-miterlimit="10" x1="250.501" y1="138.106" x2="243.358" y2="138.106"/>
	
		<rect x="340.597" y="125.868" fill="#ECDFBC" stroke="#A88E5A" stroke-width="2" stroke-miterlimit="10" width="9.477" height="12.905"/>
	
		<rect x="343.311" y="138.773" fill="#ECDFBC" stroke="#A88E5A" stroke-width="2" stroke-miterlimit="10" width="4" height="13.667"/>
	<path fill="#A88E5A" d="M351.787,151.916c-8.81-6.714-18.763,3.238-12.048,12.048C348.549,170.726,358.501,160.726,351.787,151.916
		z M345.597,162.44c-2.477,0-4.477-2-4.477-4.477s2-4.477,4.477-4.477s4.477,2,4.477,4.477S348.073,162.44,345.597,162.44z"/>
	<path fill="#A88E5A" d="M256.358,147.679c-5.285,0-9.571,4.285-9.571,9.57c0,5.286,4.286,9.572,9.571,9.572
		s9.571-4.286,9.571-9.572C265.93,151.964,261.644,147.679,256.358,147.679z M256.168,162.487c-2.857,0-5.19-2.333-5.19-5.19
		c0-2.856,2.333-5.19,5.19-5.19c2.856,0,5.19,2.334,5.19,5.19C261.358,160.154,259.073,162.487,256.168,162.487z"/>
	<path fill="#ECDFBC" stroke="#A88E5A" stroke-width="2" stroke-miterlimit="10" d="M20.406,17.488h19.762
		c0.428,0,0.81,0.238,1,0.571l30.619,52.238c0.143,0.286,0.428,0.477,0.714,0.524l65.762,16.667l102.952-7.095
		c0,0,58.381-26.191,60.381-26.714c2-0.524,38.857-6.333,39.714-0.19c0,3-49.237,30.19-49.237,30.19s17.189,7.667,21.332,13.333
		c18.191,1.333,45.43,1.429,53.286,7.904c8.905,1,14.096,3.238,14.096,6.429s-14.096,6.096-14.096,6.096s-4.904,9.57-37.143,11.619
		c-32.19,2-160.523,5.333-162.333,5.189c-1.81-0.143-120.476-18.523-123.952-20.856c-2.619-1.763-13.524-9.619-18.81-13.428
		c-0.905-0.667-0.429-2.095,0.667-2.095l0,0c0.667,0,1.19-0.572,1.143-1.238l-7.048-77.905
		C19.168,18.06,19.692,17.488,20.406,17.488z"/>
	<line fill="none" stroke="#A88E5A" stroke-width="2" stroke-miterlimit="10" x1="138.264" y1="87.488" x2="26.073" y2="97.536"/>
	<path fill="#ECDFBC" stroke="#A88E5A" stroke-width="2" stroke-miterlimit="10" d="M168.835,111.249l-54,63.048
		c-1.524,1.763-0.476,4.477,1.81,4.81l22.571,3.381c0.762,0.096,1.524-0.095,2.143-0.523l88.809-64.477"/>
	<path fill="#A88E5A" stroke="#A88E5A" stroke-width="2" stroke-miterlimit="10" d="M290.168,82.726
		c-3.048,2.953-3.144,6.762-3.048,8.048c0,0.286,0.143,0.571,0.381,0.762l10.81,10c0.333,0.286,0.763,0.381,1.19,0.238l14-4.667
		c0,0-7.619-6.095-10.714-7.952C300.454,87.774,290.168,82.726,290.168,82.726z"/>
	<path fill="#A88E5A" stroke="#A88E5A" stroke-width="2" stroke-miterlimit="10" d="M176.216,104.726h-14.762
		c-0.333,0-0.571-0.238-0.571-0.571v-9.761c0-0.333,0.238-0.572,0.571-0.572h14.762c0.333,0,0.572,0.238,0.572,0.572v9.761
		C176.788,104.487,176.549,104.726,176.216,104.726z"/>
	<path fill="#A88E5A" stroke="#A88E5A" stroke-width="2" stroke-miterlimit="10" d="M197.264,104.726h-14.762
		c-0.333,0-0.571-0.238-0.571-0.571v-9.761c0-0.333,0.238-0.572,0.571-0.572h14.762c0.333,0,0.571,0.238,0.571,0.572v9.761
		C197.835,104.487,197.549,104.726,197.264,104.726z"/>
	<path fill="#A88E5A" stroke="#A88E5A" stroke-width="2" stroke-miterlimit="10" d="M218.263,104.726h-14.762
		c-0.333,0-0.571-0.238-0.571-0.571v-9.761c0-0.333,0.238-0.572,0.571-0.572h14.762c0.334,0,0.572,0.238,0.572,0.572v9.761
		C218.835,104.487,218.597,104.726,218.263,104.726z"/>
	<path fill="#A88E5A" stroke="#A88E5A" stroke-width="2" stroke-miterlimit="10" d="M239.311,104.726h-14.762
		c-0.333,0-0.571-0.238-0.571-0.571v-9.761c0-0.333,0.238-0.572,0.571-0.572h14.762c0.333,0,0.571,0.238,0.571,0.572v9.761
		C239.882,104.487,239.597,104.726,239.311,104.726z"/>
	<path fill="#A88E5A" stroke="#A88E5A" stroke-width="2" stroke-miterlimit="10" d="M260.311,104.726h-14.762
		c-0.333,0-0.571-0.238-0.571-0.571v-9.761c0-0.333,0.238-0.572,0.571-0.572h14.762c0.333,0,0.571,0.238,0.571,0.572v9.761
		C260.882,104.487,260.644,104.726,260.311,104.726z"/>
	<path fill="#A88E5A" stroke="#A88E5A" stroke-width="2" stroke-miterlimit="10" d="M272.405,94.583v8.19
		c0,0.667,0.524,1.19,1.191,1.143l15.666-0.523c1-0.048,1.477-1.238,0.762-1.952l-10.189-10.143
		c-0.334-0.333-0.857-0.428-1.286-0.238l-5.476,2.476C272.644,93.726,272.405,94.155,272.405,94.583z"/>
	<path fill="#ECDFBC" stroke="#A88E5A" stroke-width="2" stroke-miterlimit="10" d="M266.024,119.726l16.667-35.714
		c0.19-0.428,0.619-0.667,1.048-0.667h4.666c0.811,0,1.382,0.857,1.049,1.619l-15.144,35.714c-0.19,0.428-0.619,0.714-1.048,0.714
		h-6.189C266.216,121.393,265.691,120.487,266.024,119.726z"/>
	<path fill="#A88E5A" stroke="#A88E5A" stroke-width="2" stroke-miterlimit="10" d="M294.978,83.345h-18.381
		c-0.334,0-0.572-0.238-0.572-0.571v-3.762c0-0.333,0.238-0.571,0.572-0.571h18.381c0.333,0,0.571,0.238,0.571,0.571v3.762
		C295.549,83.107,295.311,83.345,294.978,83.345z"/>
	
		<line fill="none" stroke="#A88E5A" stroke-width="2" stroke-miterlimit="10" x1="366.739" y1="105.011" x2="366.739" y2="117.487"/>
</g>
</svg>
