<?xml version="1.0" encoding="utf-8"?>
<!-- Generator: Adobe Illustrator 23.0.1, SVG Export Plug-In . SVG Version: 6.00 Build 0)  -->
<svg version="1.1" id="Layer_1" xmlns="http://www.w3.org/2000/svg" xmlns:xlink="http://www.w3.org/1999/xlink" x="0px" y="0px"
	 viewBox="0 0 200 342" style="enable-background:new 0 0 200 342;" xml:space="preserve">
<style type="text/css">
	.st0{fill:#E5E1D8;}
	.st1{fill:none;stroke:#E5E1D8;stroke-miterlimit:10;}
	.st2{fill:none;stroke:#555F74;stroke-linecap:round;stroke-linejoin:round;stroke-miterlimit:10;}
	.st3{fill:#535F70;stroke:#E5E1D8;stroke-miterlimit:10;}
	.st4{fill:none;stroke:#535F70;stroke-miterlimit:10;}
</style>
<g>
	<g>
		<g>
			<path class="st0" d="M75.8,163.1c0,0-18.5,8.3-24.9-13.9s-8-73.4,6.3-87c0,0,7.3,19,11.4,25.5c0,0,41.9,51.8,13.9,73L75.8,163.1z
				"/>
			<path class="st0" d="M111.1,137.1c0,0-12.7-30.3-9-57.7s14.3-63.5,14.3-63.5s10.9-23.8,20.2,7.3c0,0,5,16.9,7.2,25.4
				c2.2,8.5,5.9,16.8-4.8,39.7L111.1,137.1z"/>
			<path class="st0" d="M130.1,126.9c0,0,4.4-23.4,20.6-31.3l10.9-6.6c0,0-0.7,23.2-5.8,28C150.6,122,130.1,126.9,130.1,126.9z"/>
			<path class="st0" d="M111.1,189.7c1.7-1.5,6.5-32.2,45.9-40.2l31.6-2.1c0,0-18.9,51.3-54.4,49L111.1,189.7z"/>
			<path class="st1" d="M111.1,189.7c0,0-41.1,8.7-69.9,74.9"/>
			<path class="st1" d="M75.8,163.1c0,0,11.8,27.9,3,46"/>
			<path class="st1" d="M110.7,130.6c0,0-19.9,54.1-29.2,69.6"/>
			<path class="st1" d="M133.9,122.9c0,0-8.4,1.6-29.1,23"/>
		</g>
		<line class="st2" x1="128.7" y1="42.6" x2="129.2" y2="50.7"/>
		<path class="st2" d="M130.1,63.8c0,0-7,51.6-17.7,71.1"/>
		<line class="st2" x1="56.5" y1="92.6" x2="56.7" y2="95.9"/>
		<path class="st2" d="M57.2,103.5c0,0,7.3,51.9,20.8,59.5"/>
		<path class="st2" d="M76,132.7c0,0-5,21.1-2.6,25.8"/>
		<line class="st2" x1="113.8" y1="189.5" x2="150.1" y2="172.8"/>
		<path class="st2" d="M131.1,123.1c0,0,15.9-5.6,18.4-11.2"/>
	</g>
	<g>
		<path class="st0" d="M38.1,238.9c0,0,7.1,5.9,4.5,12.5c0,0,24.5,10.8,24.5,13.5c0,0-4.5-19.6-14.5-16.5
			C52.5,248.4,46.4,238.6,38.1,238.9z"/>
		<path class="st0" d="M18,279.1c0,0-1.2-14.7,5.4-16.7c0,0-7.9,31.3-2.8,35.4c0,0,5.2-35.7,17.2-46c0,0,2.3-17.4-10-15.3
			C15.6,238.6,12.4,275.1,18,279.1z"/>
		<path class="st0" d="M24,300.8c0,0,6.6-40.4,18.1-45.2c0,0,5.4,1.1,8.4,6.9c0,0,18.1,3.8,14.5,10.5c-3.6,6.7,0.5,15.8-20.3,21.8
			c0,0,1.7-6.6,0.4-10.3l-7.1,13.4c0,0-2.5-11.1-9.8-1.9L24,300.8z"/>
		<line class="st0" x1="26.7" y1="294.1" x2="18" y2="321.5"/>
	</g>
</g>
</svg>
