<?xml version="1.0" encoding="utf-8"?>
<!-- Generator: Adobe Illustrator 23.0.1, SVG Export Plug-In . SVG Version: 6.00 Build 0)  -->
<svg version="1.1" id="Layer_1" xmlns="http://www.w3.org/2000/svg" xmlns:xlink="http://www.w3.org/1999/xlink" x="0px" y="0px"
	 viewBox="0 0 235 292" style="enable-background:new 0 0 235 292;" xml:space="preserve">
<style type="text/css">
	.st0{fill:#E5E1D8;}
	.st1{fill:none;stroke:#E5E1D8;stroke-miterlimit:10;}
	.st2{fill:none;stroke:#555F74;stroke-linecap:round;stroke-linejoin:round;stroke-miterlimit:10;}
	.st3{fill:#535F70;stroke:#E5E1D8;stroke-miterlimit:10;}
	.st4{fill:none;stroke:#535F70;stroke-miterlimit:10;}
</style>
<g>
	<g>
		<path class="st1" d="M177.7,262.9c0,0-44-61.5-50.6-80.3c0,0-19.4-41.2,18.7-73.6s56.4-69.7,34-80.5"/>
		<path class="st3" d="M167.7,250.6c0,0-38.4-10.1-39.9,7.5c5.2,7.4,24.7-1.4,24.7-1.4L167.7,250.6z"/>
		<path class="st3" d="M138.8,203.9c0,0-27.4-11.3-27.1,5c0,0,2.4,7.4,13.6-0.8C125.3,208.1,135,197.6,138.8,203.9z"/>
		<path class="st3" d="M167.8,245.9c0,0,0.4-21.5,12.3-14.4C192,238.6,167.8,245.9,167.8,245.9z"/>
		<path class="st3" d="M141,207.6c0,0,3.8-22.6,17.8-9.7c0,0,5.2,5.6-5.5,9C153.3,206.9,143.5,204.3,141,207.6z"/>
		<path class="st3" d="M49.3,167.9c-0.7-0.8-1-1.3-1-1.3s-2.4-14.7,9.6-12.3c2.9,8-4.8,10.8-4.8,10.8l-4.7,3c0,0-20.2-15.7-24.8,3.9
			c0.4,6.3-0.8,12.6,15.5,2.2c0,0,5.9-6.5,10.5-5.7"/>
		<path class="st1" d="M129.5,188.1c0,0-26.4-4.1-44.7-0.6c-15.3,2.9-31.7-14.5-36.3-20"/>
		<path class="st3" d="M79.1,187.7c0,0-18.4,14-7.1,21.8S86.8,189.7,79.1,187.7z"/>
		<path class="st3" d="M164.9,146.9c-1.5-8.8-5.2-20.1-13.8-15.3c0,0-5.5,7.3,14.5,15.8"/>
		<path class="st1" d="M132.2,193.3c0,0,32.3-19,33.7-37.2c0,0-0.7-6.2-1.4-10.7"/>
		<circle class="st3" cx="173.7" cy="27.6" r="4.2"/>
		<path class="st3" d="M187.2,56.2c0,0-5.9-8.3-11.1-7.3c-5.2,1-8.8,7.7-1.9,10.8C178.5,61.5,187.2,56.2,187.2,56.2z"/>
		<path class="st3" d="M187.8,54.6c0,0,3.5-7,12-4.5C208.3,52.5,199.5,65.9,187.8,54.6z"/>
		<path class="st3" d="M170.6,83.9c0,0,0.4-13.9-9.8-16C150.6,65.8,144.5,85,170.6,83.9z"/>
		<path class="st3" d="M172.1,83.8c0,0,14.5-7.2,15.7,2.2S174.6,97.6,172.1,83.8z"/>
		<path class="st3" d="M136.9,117.8c0,0-5.3-15.2-12.5-16.1C117.3,100.8,106.2,117.4,136.9,117.8z"/>
		<path class="st3" d="M138.5,117.7c0,0,13-6,19.9-0.1C165.3,123.5,141.4,133.5,138.5,117.7z"/>
		<path class="st3" d="M165.8,154.2c0,0,8.9-15.5,17.8-6.5C192.6,156.7,169.7,157.8,165.8,154.2z"/>
		<path class="st3" d="M123.2,169.3c0,0,6.3-21.2,18.9-14.9C154.8,160.7,129.2,176.6,123.2,169.3z"/>
		<path class="st1" d="M125.5,137.6c0,0-37.8-19.1-59.5-47.6c-3.3-4.4-8.1-12.7-10.5-17.5"/>
		<path class="st3" d="M122.7,168c0,0-24.2-16-27.8-3.6C90.2,180.9,123.6,176.5,122.7,168z"/>
		<path class="st3" d="M56.2,73.7c0,0-8,2.8-12.9-7.4s8.1-5.4,10.5,1c0,0,1-14.9,8.4-11.9c7.4,3-5.6,19-5.6,19"/>
		<path class="st3" d="M66,90c0,0-16.5-2-18.4,4C45.7,99.9,62.3,102.3,66,90z"/>
		<path class="st3" d="M64.5,88c0,0,0.7-14.5,11.3-12C86.4,78.6,72,91.6,64.5,88z"/>
		<path class="st3" d="M85.8,110.7c0,0-3.1-12.6,7.1-16.2S98.1,109.4,85.8,110.7z"/>
		<path class="st3" d="M85.7,112.3c0,0,0.8,20.6-9.5,14.6S85.7,112.3,85.7,112.3z"/>
	</g>
</g>
</svg>
