<?xml version="1.0" encoding="utf-8"?>
<!-- Generator: Adobe Illustrator 23.0.1, SVG Export Plug-In . SVG Version: 6.00 Build 0)  -->
<svg version="1.1" id="Layer_1" xmlns="http://www.w3.org/2000/svg" xmlns:xlink="http://www.w3.org/1999/xlink" x="0px" y="0px"
	 viewBox="0 0 283 292" style="enable-background:new 0 0 283 292;" xml:space="preserve">
<style type="text/css">
	.st0{fill:#E5E1D8;}
	.st1{fill:none;stroke:#E5E1D8;stroke-miterlimit:10;}
	.st2{fill:none;stroke:#555F74;stroke-linecap:round;stroke-linejoin:round;stroke-miterlimit:10;}
	.st3{fill:#535F70;stroke:#E5E1D8;stroke-miterlimit:10;}
	.st4{fill:none;stroke:#535F70;stroke-miterlimit:10;}
</style>
<g>
	<g>
		<path class="st0" d="M216.4,170.9c0,0-13.1-41.2-60.2-37.1s-71.9-31.7-71.9-31.7s-10.4-1.4-5,12.2s22.2,43.9,55.6,46.1
			S164.9,153.3,216.4,170.9z"/>
		<path class="st3" d="M211.2,170.9c0,0-37.3,30.8-72.1,32.1S21.9,150.6,21.9,150.6s57.9,27.6,83.2,20.4
			c25.3-7.2,47.5-10.2,47.5-10.2"/>
		<path class="st3" d="M207.8,170.9c0,0-52,0.9-72.8,12.7"/>
		<path class="st4" d="M121,140.6c0,0,14.5,9,30.3,7.7c15.8-1.4,37.1-3.2,62.4,21.7"/>
	</g>
	<g>
		<path class="st3" d="M263.4,126.4c0,0-23.6-24.4-47.6-29.9s-113.1-8.4-113.1-8.4s14.5,24.2,32.4,26c17.8,1.8,67.6-3.9,80.7,1.7
			C229,121.4,244.5,127.7,263.4,126.4z"/>
		<path class="st3" d="M261.6,264.3c0,0-8.1-19-16.3-30.3c-8.1-11.3-19.4-11.8,0-83.2c5-12.7,18.2-24.4,18.2-24.4
			s-29.5,8.1-35.4,18.1c-5.9,10-16.8,35.7-17.5,80.5C215.9,235.8,239.8,235.8,261.6,264.3z"/>
	</g>
</g>
</svg>
