<?xml version="1.0" encoding="utf-8"?>
<!-- Generator: Adobe Illustrator 23.0.1, SVG Export Plug-In . SVG Version: 6.00 Build 0)  -->
<svg version="1.1" id="Layer_1" xmlns="http://www.w3.org/2000/svg" xmlns:xlink="http://www.w3.org/1999/xlink" x="0px" y="0px"
	 viewBox="0 0 235 292" style="enable-background:new 0 0 235 292;" xml:space="preserve">
<style type="text/css">
	.st0{fill:#E5E1D8;}
	.st1{fill:none;stroke:#E5E1D8;stroke-miterlimit:10;}
	.st2{fill:none;stroke:#555F74;stroke-linecap:round;stroke-linejoin:round;stroke-miterlimit:10;}
	.st3{fill:#535F70;stroke:#E5E1D8;stroke-miterlimit:10;}
	.st4{fill:none;stroke:#535F70;stroke-miterlimit:10;}
</style>
<g>
	<g>
		<path class="st0" d="M160,158.9c0,0-99.9,1.2-115.4-64.9S32.3,33.3,32.3,33.3S93.5,63.5,119.2,92s38.7,57.5,38.7,57.5L160,158.9z"
			/>
		<path class="st0" d="M188.9,176c0,0-19.2-23.4-18.8-46.7c0.4-23.3,6.9-19,7.7-33.2c0,0,25.7,29.4,24.5,51.4
			c-1.2,22-7.3,28.5-7.3,28.5H188.9z"/>
		<path class="st0" d="M146.1,184.5c0,0-22.8,38.5-38.7,52.1c-15.9,13.6-52.6,12.7-66.9,14c0,0,10.2-15,10.6-24
			c0.4-9,21.6-33.4,60-38.7S146.1,184.5,146.1,184.5z"/>
		<path class="st2" d="M166.5,164.6c0,0-44.9-27.1-54.2-35.4s-33-25.8-48.1-49.9"/>
		<path class="st2" d="M86.5,123.9c0,0,21.6,21.6,61.7,29.6"/>
		<path class="st2" d="M72.7,227c0,0,26.9-24.9,42.6-30.6s27.5-10.2,39.4-9.8"/>
		<path class="st2" d="M186.3,143.1c0,0,3.9,38.2,16.1,46"/>
		<line class="st1" x1="157.1" y1="153.4" x2="224.9" y2="215.4"/>
		<line class="st1" x1="186.3" y1="171.6" x2="198.6" y2="191.3"/>
		<path class="st1" d="M142.4,183.9c0,0,27.8-3.4,51,2.7"/>
	</g>
</g>
</svg>
