<?xml version="1.0" encoding="utf-8"?>
<!-- Generator: Adobe Illustrator 23.0.1, SVG Export Plug-In . SVG Version: 6.00 Build 0)  -->
<svg version="1.1" id="Layer_1" xmlns="http://www.w3.org/2000/svg" xmlns:xlink="http://www.w3.org/1999/xlink" x="0px" y="0px"
	 viewBox="0 0 225 307" style="enable-background:new 0 0 225 307;" xml:space="preserve">
<style type="text/css">
	.st0{fill:#E5E1D8;}
	.st1{fill:none;stroke:#E5E1D8;stroke-miterlimit:10;}
	.st2{fill:none;stroke:#555F74;stroke-linecap:round;stroke-linejoin:round;stroke-miterlimit:10;}
	.st3{fill:#535F70;stroke:#E5E1D8;stroke-miterlimit:10;}
	.st4{fill:none;stroke:#535F70;stroke-miterlimit:10;}
</style>
<g>
	<g>
		<path class="st3" d="M191.4,78c0,0,4.7,15.5,11.9,14.3c7.2-1.2,9.3-6.5-6-17"/>
		<path class="st3" d="M186.7,78.7c10.2-1.9,16.5-3.8,20.4-5.4c4.8-2,5-9.2,0.1-10.9c-4.3-1.5-11,0.9-20.9,16.4"/>
		<path class="st1" d="M23.7,124.7c0,0,53.4-36.6,119.9-41.2c18.5-1.3,34-3.3,43.9-5.1"/>
		<path class="st3" d="M152.2,82.9c0,0,16.7-13.4,14.4-17.4s-10-10.1-12.2,3.7s-2.2,11.7-2.2,11.7"/>
		<path class="st3" d="M154.9,83.6c0,0-2.4,11.2-1.1,15.4c1,3.3,3.8,10.9,10.2,9c6.3-1.8,5.3-17.8,0-21.7
			C158.6,82.4,154.9,83.6,154.9,83.6z"/>
		<path class="st3" d="M128,84.9c0,0-12.7-20.1,0-22.9c12.7-2.9,2.1,22.9,2.1,22.9"/>
		<path class="st3" d="M128.3,86.6c0,0-5.9,0.1-5.9,6.8s4.1,10.3,5.9,10.6s6.1-5.7,5.9-10.9S128.3,86.6,128.3,86.6z"/>
		<path class="st3" d="M91.6,93.4c0,0-6.6-6-3.9-12.8c2.7-6.8,9.5-8.1,10.6,0C99.5,88.8,91.6,93.4,91.6,93.4z"/>
		<path class="st3" d="M90,96.8c0,0-3.6,4.4-1.6,8.7s10.4,5.4,10.1-4.4C98.1,91.4,90,96.8,90,96.8z"/>
	</g>
	<g>
		<g>
			<path class="st3" d="M23.2,195.4c0,0,19.5-37.8,30.8-43.6c0,0,29.2-14.9,71.1,20.5c0,0,12.9,78.5-5.1,94.6
				c0,0-16.8-58.4-19.3-61.3c-2.5-2.9-24.7-42.7-37.4-39.5L23.2,195.4z"/>
			<path class="st1" d="M114,198.9c0,0-22-38.9-36.6-37.5c0,0-21.8-6.3-29.2,7.4l-25,26.5"/>
		</g>
		<path class="st0" d="M5.9,210.3c0,0,84.6-34.5,121.9-9c0,0,51.4,63.9,56.7,80c0,0,6.3,8.1,2.9-10.3c0,0-10.1-71.4-17.3-81.4
			c-7.2-9.9-17-23.8-45.7-17.6C124.5,172.1,28.2,177.4,5.9,210.3z"/>
	</g>
</g>
</svg>
