<?xml version="1.0" encoding="utf-8"?>
<!-- Generator: Adobe Illustrator 23.0.1, SVG Export Plug-In . SVG Version: 6.00 Build 0)  -->
<svg version="1.1" id="Layer_1" xmlns="http://www.w3.org/2000/svg" xmlns:xlink="http://www.w3.org/1999/xlink" x="0px" y="0px"
	 viewBox="0 0 2044 723" style="enable-background:new 0 0 2044 723;" xml:space="preserve">
<style type="text/css">
	.st0{fill:none;stroke:#AF914F;stroke-width:2;stroke-miterlimit:10;}
</style>
<g>
	<g>
		<path class="st0" d="M143.1,439.9c1.6,2.6,6.4,6.4,0.3,13c-4.4,4.7-11.5,7.6-12.6,14c-0.9,5.6,3,10.8,3.4,16.5
			c0.7,10.3-10.1,19.1-8.2,29.2c-1.3-8.7-2.7-17.3-3.3-26.1c-0.4-4.9-0.5-10,0.5-14.8c2.8-12.4,13-17.5,19.1-27.5
			c6.2-10.2-5.9-17.5-15.2-12.9c-4.6,2.3-7.3,7.1-10.1,11.4c-3.2,4.9-6.8,9.4-10.9,13.5c-1.6,1.6-3.4,3.2-4.6,5.1
			c-2.8,4.5-2.7,10.2-2.5,15.5c1.4-7,6.7-12.6,12.6-16.5c5.9-4,12.6-6.7,18.6-10.4c3.3-2,10.4-5.7,13.1-9.8"/>
		<path class="st0" d="M151.3,437.3c-4.4-1.4-7.5,3.6-3.3,8.7c5.7,6.9,10.3,14.9,13.4,23.3c1.1,3.1,2.1,6.4,4.1,9.1
			c1.9,2.5,4.7,4.4,6.5,7c3.4,4.9,3.5,12.2,8.6,15.3c-3.7-6.5-3.5-14.4-5.2-21.6c-2-8.3-6.6-15.8-11.1-23.1
			c-3-4.9-5.7-12.6-9.7-16.6c-2.1-2.1-6.7-4.3-1.9-7.4c1.8-1.2,4.3-1,6.2-0.1c2.6,1.3,3.4,3.2,5.4,5.3c1.7,1.7,3.4,3.4,5.4,4.7
			c2.7,1.8,5.9,2.8,8.6,4.7c2.7,1.9,4.9,4.5,6.1,7.6c1.3,3.1,1.8,6.9,4.5,8.8c-2-0.6-3.6-2.1-5.2-3.5c-6.3-5.5-14.9-9.3-23-11.5"/>
		<path class="st0" d="M144.1,437.9c2.8-3,1.5-8.2-1.6-11c-3.1-2.8-7.2-3.8-11.2-5c-1.3-0.4-2.6-0.8-3.6-1.7c-1.1-1-1.8-2.5-3-3.2
			c-0.8-0.5-1.8-0.6-2.8-0.7c-10.2-0.9-20.5-0.5-30.6,1.1c6.8,0.1,12.2,5.8,18.9,7.3c3.7,0.8,7.6,0.3,11.5,0.4
			c3.8,0.2,8,1.3,10.2,4.4"/>
		<path class="st0" d="M125.3,417.6c-0.1-7.3-1.3-14.6-3.5-21.5c-0.6-1.7-1.2-3.4-1.4-5.2c-0.3-2.8,0.5-5.6,1.3-8.3
			c0.8-2.7,1.6-5.4,2.4-8.1c1.8,6.6,3.5,13.3,5.3,19.9c1.1,4,2.2,8.1,4.7,11.5c3.3,4.5,8.8,7.5,10.4,12.8c1.5,5.1-1.2,11,1.5,15.6"
			/>
		<path class="st0" d="M143.7,416.7c-1-2.5,0.7-5.2,2.5-7.1c1.8-1.9,4.1-3.8,4.4-6.4c0.6-4.4-4.3-8.9-2.2-12.9
			c0.9-1.6,2.7-2.5,3.9-3.9c3.5-3.9,1.3-10.6,4-15.1c4.7,8.8,9.5,18.5,7.6,28.3c-1.1,5.7-4.4,10.8-7.7,15.6
			c-2.2,3.4-4.5,6.7-6.7,10.1c-0.7,1.1-1.5,2.2-1.8,3.5c-0.8,2.7,0,6.4-2.5,7.8"/>
		<path class="st0" d="M194.6,402.9c-0.7-0.1-1.4-0.1-1.9-0.5c-0.7-0.6-0.8-1.6-0.8-2.5l-0.1-2.5c-0.1-2-1.5-3.6-3.4-4.2
			c-1.5-0.5-2.9-1.5-3.8-2.8c-1.6-2.2-2-5.1-1.8-7.8c0.1-0.9,0.2-2-0.5-2.7c-0.6-0.7-1.6-0.7-2.5-0.7c-5,0.2-9.9,1.6-14.1,4.1
			c4.6-0.8,7.4-5.6,11.6-7.6c5.2-2.4,11.6,0.1,15.9,3.9c4.3,3.8,7.4,8.9,11.6,12.9c2.8,2.7,6.1,5,7.9,8.4c2.6,5.2,1.4,11.4,2.6,17
			C211.6,409.8,203.7,403.7,194.6,402.9z"/>
		<path class="st0" d="M155.6,417c1.7-3.1,8.1-0.3,9.5-3.6c0.2-0.5,0.2-1,0.3-1.5c0.5-2.2,2.5-3.8,4.7-4.4c2.2-0.6,4.5-0.5,6.7-0.3
			c6.7,0.4,13.4,0.9,20.1,1.3c-2.5,2-3.2,5.4-5.1,8c-2,2.8-5.4,4.5-8.8,5.3c-3.4,0.8-7,0.8-10.5,0.9c-2.2,0.1-4.7,0.4-5.7,2.4
			c-0.5,1.1-0.4,2.4-1.1,3.3c-1.5,2.2-5.5,1.3-6.9,3.6"/>
		<path class="st0" d="M213.3,403.2c-0.8-4,1.1-9.9,3.6-13.2c0.8-1.1,1.7-2.1,1.9-3.4c0.4-3.3-4.2-5.2-4.8-8.4
			c-0.5-3,2.4-5.3,4.8-7.2c5.2-4.2,9.3-9.9,15.3-12.9c9.5-4.9,22.5-0.9,27.7,8.4c-1.8-1.8-3.6-3.6-5.9-4.6c-2.3-1.1-5.2-1.2-7.2,0.3
			c-2.5,1.8-3,5.3-5.1,7.5c-2.7,2.8-7.7,3.4-9.1,7.1c-0.5,1.5-0.3,3.1-0.5,4.6c-0.8,6.4-8.6,9.4-11.8,15c-1.1,1.9-1.7,4.1-2.2,6.2
			c-1.5,6-3,11.9-4.6,17.9c1.9-1.7,6.3,2.3,7.1,4.7s0.3,5,0.5,7.5c0.5,4.9,4,9.1,7.9,12.1s8.4,5.4,12,8.7s6.5,8.1,5.9,13
			c-0.6-4.7-1.2-9.4-1.8-14.2c-0.4-3.4-0.9-7-2.8-9.9c-3-4.5-9-6.8-10.6-11.9c-0.7-2.3-0.4-4.8-1.6-6.9c-1.5-2.7-4.8-3.6-7.8-4.4
			c-1.6-0.4-3.4-0.8-5-0.3c-1.6,0.5-3.3,0.2-2.7,1.8"/>
		<path class="st0" d="M219.6,407.4c-0.3,1.1-2.8,7.5-3,8.6c0-5.7,7.3-16.2,13.1-16.4c3.7-0.1,7.4,1.5,10.9,0.4
			c3.7-1.2,6.2-5.2,10-5.8c3.9-0.6,7.5,2.7,11.5,2.8c2.5,0.1,5-1.2,7.4-0.4c3.6,1.1,4.5,5.7,5.6,9.3c1.1,3.7,3,7.1,5.6,10
			c-3.2-1-5.5-3.7-8.1-5.9c-2.5-2.2-6-4.1-9.2-2.9c-1.9,0.7-3.4,2.4-5.4,3.1c-2.9,1-5.9-0.5-8.7-1.7c-2.8-1.2-6.3-2-8.6,0
			c-1.2,1-1.8,2.5-2.9,3.6c-2.1,1.9-5.3,1.5-8.1,1.7c-4.8,0.3-9.4,2.7-12.5,6.4c0,0,5.7,192.1,4.1,204.8"/>
		<path class="st0" d="M214.5,414.7c-3.7-1.4-6.1-5.4-10-5.8c-1.1-0.1-2.1,0.1-3.1,0.5c-5.9,2.1-8.7,8.5-12.3,13.6
			c-1,1.4-2,2.7-3.4,3.7c-0.8,0.6-1.7,1-2.6,1.4c-2.9,1.5-5.6,3.4-7.5,6.1c-1.9,2.7-2.8,6.1-2,9.2c3.1,0.5,6.4-0.3,8.9-2.2
			c1.5-1.1,2.7-2.6,4.2-3.7c2.6-2,6-2.8,9.1-4c1.1-0.4,2.3-1,3.2-1.8c1.6-1.4,2.2-3.6,3.4-5.4c2.7-4.4,8.5-6.6,13.4-5"/>
		<path class="st0" d="M193,435.1c-2.4,3.5-1.4,8.1-1.4,12.3c0.1,5.5-1.6,10.8-2.4,16.2c-0.5,3.4-0.7,7.2,1.3,10.1
			c0.6,0.9,1.5,1.7,2.2,2.6c2.8,3.2,4.2,7.6,3.8,11.9c-1.1-5.9,2.5-11.6,3.8-17.5c1.2-5.6,0.2-11.4,1.2-17.1
			c0.6-3.5,1.9-6.8,2.5-10.3c0.4-2.1,0.4-4.4,1.5-6.3c0.7-1.3,1.8-2.3,2.7-3.4c2.8-3.5,3.7-8.3,6.1-12.1c0.3-0.4,0.6-0.8,1.1-0.9
			c0.5-0.1,1,0.5,0.7,0.9"/>
		<path class="st0" d="M146.1,448.5c0,0,17.7,152.5,60.8,206.8c0,0,225-1.6,234.5,0c9.6,1.6,194.7,8,202.6,8c8,0,67,0,67,0"/>
		<path class="st0" d="M152.5,452c0,0,14.6,125.1,60.9,187.4"/>
		<path class="st0" d="M90.5,580.3c0,0,55.8-1.6,71.8-3.2"/>
		<path class="st0" d="M210.2,429.9c0,0,3.1,188.7-0.1,196.7"/>
		<line class="st0" x1="189.4" y1="566" x2="210.2" y2="562.8"/>
		<path class="st0" d="M220.8,559.8c0,0,29.2-6.6,35.6-8.2"/>
		<path class="st0" d="M49,620.2l36.4,5.6c2.5,0.4,5.1,1,7.5,1.7c4.7,1.3,17.2,3.5,47,2.3c41.5-1.6,51.1,0,51.1,0"/>
		<line class="st0" x1="55.4" y1="639.4" x2="196.9" y2="640.2"/>
		<line class="st0" x1="226.1" y1="629.8" x2="253.2" y2="629.8"/>
		<line class="st0" x1="219.7" y1="642.6" x2="248.4" y2="642.6"/>
		<line class="st0" x1="256.4" y1="591.5" x2="256.4" y2="650.5"/>
		<line class="st0" x1="299.5" y1="586.7" x2="297.9" y2="652.1"/>
		<path class="st0" d="M259.6,583.5c0,0,30.3-1.6,51.1-1.6c20.7,0,73.4,0,73.4,0v63.8"/>
		<line class="st0" x1="318.5" y1="581.9" x2="318.6" y2="639.4"/>
		<polygon class="st0" points="74.5,610.6 69.7,610.6 66.6,650.5 74.5,652.1 		"/>
		<polygon class="st0" points="104.8,625 104.8,652.1 112.8,652.1 109.6,625 		"/>
		<rect x="133.6" y="620.2" class="st0" width="6.4" height="31.9"/>
		<polygon class="st0" points="155.9,613.8 155.9,652.1 163.9,652.1 162.3,613.8 		"/>
		<polyline class="st0" points="187.4,621 187.8,650.5 194.2,650.5 194.5,635.8 		"/>
		<polygon class="st0" points="234.1,648.9 234.1,625 238.9,625 240.5,648.9 		"/>
		<path class="st0" d="M227.7,492.6c0,0,46.3-22.3,55.8-27.1c9.6-4.8,60.6-30.3,65.4-33.5c4.8-3.2,52.7-30.3,54.2-30.3"/>
		<g>
			<path class="st0" d="M1781.2,166.5c-2,3.3-8,8-0.3,16.4c5.5,6,14.5,9.6,15.8,17.6c1.1,7-3.8,13.6-4.3,20.7
				c-0.9,12.9,12.6,24,10.3,36.7c1.7-10.9,3.4-21.8,4.2-32.8c0.5-6.2,0.7-12.5-0.7-18.6c-3.5-15.6-16.3-22-24-34.6
				c-7.8-12.9,7.4-22,19.1-16.2c5.8,2.9,9.1,8.9,12.7,14.3c4,6.1,8.6,11.8,13.7,16.9c2.1,2,4.2,4,5.8,6.5c3.6,5.6,3.4,12.7,3.2,19.4
				c-1.8-8.8-8.4-15.8-15.8-20.8c-7.4-5-15.8-8.4-23.4-13c-4.1-2.5-13.1-7.2-16.4-12.3"/>
			<path class="st0" d="M1771,163.2c5.6-1.7,9.4,4.5,4.2,10.9c-7.2,8.7-12.9,18.7-16.8,29.3c-1.4,3.9-2.7,8-5.2,11.4
				c-2.4,3.2-5.8,5.5-8.1,8.7c-4.3,6.1-4.4,15.3-10.8,19.2c4.6-8.1,4.4-18.1,6.6-27.2c2.5-10.5,8.3-19.8,13.9-29
				c3.8-6.1,7.1-15.8,12.2-20.8c2.6-2.6,8.4-5.5,2.3-9.3c-2.3-1.5-5.3-1.3-7.8-0.1c-3.3,1.6-4.2,4-6.8,6.6c-2.1,2.1-4.2,4.2-6.7,5.9
				c-3.4,2.3-7.5,3.6-10.9,5.9c-3.4,2.3-6.1,5.7-7.7,9.5c-1.6,3.9-2.2,8.6-5.7,11.1c2.6-0.7,4.6-2.6,6.5-4.4
				c7.9-6.9,18.7-11.7,28.9-14.4"/>
			<path class="st0" d="M1780,163.9c-3.5-3.8-1.9-10.3,2-13.8c3.8-3.5,9.1-4.8,14.1-6.3c1.6-0.5,3.3-1.1,4.5-2.2
				c1.4-1.2,2.2-3.1,3.8-4c1.1-0.6,2.3-0.7,3.5-0.8c12.8-1.1,25.8-0.6,38.5,1.4c-8.5,0.1-15.4,7.3-23.7,9.1
				c-4.7,1.1-9.6,0.4-14.4,0.6c-4.8,0.2-10,1.6-12.8,5.6"/>
			<path class="st0" d="M1803.6,138.5c0.1-9.1,1.6-18.3,4.4-27c0.7-2.2,1.5-4.3,1.7-6.6c0.3-3.5-0.7-7-1.7-10.4c-1-3.4-2-6.8-3-10.2
				c-2.2,8.3-4.4,16.6-6.7,25c-1.3,5.1-2.8,10.2-5.8,14.5c-4.1,5.6-11.1,9.4-13,16.1c-1.8,6.4,1.4,13.9-1.9,19.5"/>
			<path class="st0" d="M1780.5,137.3c1.2-3.1-0.9-6.5-3.2-8.9c-2.3-2.4-5.1-4.8-5.6-8.1c-0.8-5.6,5.4-11.2,2.8-16.2
				c-1.1-2-3.4-3.1-4.9-4.8c-4.4-4.9-1.6-13.3-5-19c-5.9,11.1-11.9,23.3-9.6,35.6c1.4,7.2,5.6,13.5,9.6,19.6
				c2.8,4.2,5.6,8.5,8.4,12.7c0.9,1.4,1.8,2.8,2.3,4.4c1,3.4,0,8,3.1,9.8"/>
			<path class="st0" d="M1716.6,120c0.8-0.1,1.7-0.1,2.4-0.7c0.9-0.7,1-2,1-3.2l0.1-3.2c0.1-2.5,1.8-4.5,4.2-5.3
				c1.9-0.6,3.6-1.8,4.8-3.5c2-2.8,2.5-6.3,2.3-9.7c-0.1-1.2-0.2-2.5,0.6-3.4c0.7-0.8,2-0.9,3.1-0.9c6.2,0.2,12.4,2,17.7,5.2
				c-5.8-1-9.3-7.1-14.6-9.6c-6.6-3.1-14.5,0.1-19.9,4.9c-5.4,4.8-9.3,11.2-14.5,16.2c-3.5,3.4-7.7,6.3-9.9,10.6
				c-3.3,6.5-1.7,14.4-3.3,21.3C1695.3,128.7,1705.2,121.1,1716.6,120z"/>
			<path class="st0" d="M1765.6,137.7c-2.2-4-10.2-0.4-11.9-4.6c-0.2-0.6-0.3-1.2-0.4-1.8c-0.6-2.8-3.2-4.8-5.9-5.6
				c-2.7-0.8-5.6-0.6-8.4-0.4c-8.4,0.6-16.8,1.1-25.2,1.7c3.2,2.5,4.1,6.8,6.4,10.1c2.6,3.6,6.8,5.7,11.1,6.7c4.3,1,8.7,1,13.1,1.1
				c2.7,0.1,5.9,0.5,7.1,3c0.7,1.3,0.5,3,1.3,4.2c1.8,2.8,6.9,1.6,8.6,4.5"/>
			<path class="st0" d="M1693.1,120.4c1-5.1-1.4-12.4-4.5-16.6c-1-1.3-2.2-2.6-2.4-4.3c-0.5-4.1,5.3-6.5,6-10.6c0.7-3.8-3-6.7-6-9
				c-6.6-5.2-11.7-12.4-19.2-16.3c-11.9-6.1-28.3-1.1-34.8,10.6c2.2-2.2,4.5-4.5,7.4-5.8c2.9-1.3,6.5-1.5,9,0.3
				c3.1,2.2,3.8,6.7,6.4,9.4c3.4,3.6,9.7,4.3,11.4,9c0.7,1.8,0.3,3.9,0.6,5.8c1.1,8.1,10.8,11.8,14.9,18.8c1.4,2.4,2.1,5.1,2.8,7.8
				c1.9,7.5,3.8,15,5.7,22.4c-2.4-2.1-7.9,2.9-8.9,5.9c-1,3-0.4,6.3-0.7,9.4c-0.6,6.2-5,11.4-9.9,15.2c-4.9,3.8-10.5,6.8-15.1,11
				c-4.6,4.2-8.2,10.2-7.4,16.4c0.8-5.9,1.5-11.9,2.3-17.8c0.5-4.3,1.2-8.8,3.5-12.4c3.7-5.6,11.3-8.5,13.3-15
				c0.9-2.8,0.6-6.1,2-8.7c1.9-3.4,6-4.6,9.8-5.5c2.1-0.5,4.3-1,6.3-0.4s4.2,0.3,3.4,2.3"/>
			<path class="st0" d="M1685.2,125.6c0.3,1.4,3.5,9.4,3.8,10.8c0-7.2-9.2-20.4-16.4-20.6c-4.6-0.1-9.3,1.9-13.7,0.6
				c-4.7-1.5-7.7-6.5-12.6-7.2c-4.9-0.7-9.4,3.4-14.4,3.5c-3.1,0.1-6.3-1.5-9.3-0.5c-4.6,1.4-5.7,7.1-7.1,11.7
				c-1.4,4.6-3.8,9-7,12.6c4-1.3,6.9-4.7,10.1-7.5c3.2-2.8,7.5-5.1,11.5-3.7c2.4,0.9,4.3,3,6.7,3.8c3.6,1.2,7.4-0.6,10.9-2.1
				c3.5-1.5,7.9-2.5,10.8,0c1.5,1.3,2.2,3.2,3.7,4.5c2.6,2.4,6.6,1.9,10.2,2.1c6,0.4,11.8,3.4,15.7,8c0,0-7.2,241.2-5.2,257.3"/>
			<path class="st0" d="M1691.7,134.8c4.6-1.7,7.7-6.8,12.6-7.2c1.3-0.1,2.7,0.2,3.9,0.6c7.4,2.7,11,10.7,15.5,17.1
				c1.2,1.7,2.6,3.4,4.3,4.6c1,0.7,2.2,1.2,3.3,1.8c3.6,1.8,7.1,4.3,9.4,7.7c2.3,3.3,3.5,7.6,2.5,11.6c-3.9,0.6-8-0.4-11.1-2.8
				c-1.9-1.4-3.4-3.3-5.2-4.7c-3.3-2.5-7.5-3.5-11.4-5c-1.4-0.6-2.9-1.2-4-2.2c-2-1.8-2.8-4.5-4.2-6.8c-3.4-5.5-10.7-8.2-16.9-6.3"
				/>
			<path class="st0" d="M1718.7,160.4c3,4.3,1.8,10.1,1.7,15.4c-0.1,6.9,2,13.5,3,20.3c0.7,4.3,0.9,9.1-1.6,12.7
				c-0.8,1.2-1.9,2.2-2.8,3.3c-3.5,4.1-5.2,9.6-4.7,14.9c1.4-7.4-3.2-14.6-4.8-22c-1.5-7-0.2-14.4-1.5-21.4
				c-0.8-4.4-2.4-8.5-3.2-12.9c-0.4-2.7-0.5-5.5-1.9-7.9c-0.9-1.6-2.3-2.9-3.4-4.3c-3.5-4.5-4.6-10.4-7.6-15.1
				c-0.3-0.5-0.7-1-1.3-1.1c-0.6-0.1-1.3,0.6-0.9,1.1"/>
			<path class="st0" d="M1777.4,177.3c0,0-22.3,191.6-76.4,259.7"/>
			<path class="st0" d="M1769.5,181.6c0,0-18.3,157.2-76.4,235.3"/>
			<path class="st0" d="M1696.9,153.9c0,0-3.9,237,0.1,247"/>
		</g>
		<path class="st0" d="M234.1,500.6c0,0,43.1-22.3,49.5-23.9c6.4-1.6,27.1-12.8,31.9-16c4.8-3.2,33.5-16,36.7-17.6
			c3.2-1.6,46.3-23.9,47.9-25.5s52.7-22.3,59-23.9c6.4-1.6,16-6.4,17.6-8"/>
		<line class="st0" x1="414.4" y1="396.8" x2="444.7" y2="392.1"/>
		<path class="st0" d="M462.2,377.7c0,0,8,17.6,11.2,20.7c3.2,3.2,16,14.4,16,14.4"/>
		<line class="st0" x1="267.6" y1="492.6" x2="259.6" y2="569.2"/>
		<line class="st0" x1="280.4" y1="486.2" x2="277.2" y2="513.3"/>
		<line class="st0" x1="307.5" y1="471.8" x2="301.1" y2="569.2"/>
		<line class="st0" x1="289.9" y1="486.2" x2="286.7" y2="510.1"/>
		<path class="st0" d="M297.9,484.6c0,0-1.6,25.5-3.2,25.5s0,0,0,0"/>
		<line class="st0" x1="272.2" y1="521.9" x2="294.5" y2="523.5"/>
		<line class="st0" x1="270.6" y1="531.5" x2="292.9" y2="533.1"/>
		<line class="st0" x1="270.6" y1="541.1" x2="292.9" y2="542.7"/>
		<line class="st0" x1="269" y1="549.1" x2="291.3" y2="550.7"/>
		<line class="st0" x1="269.6" y1="559.7" x2="292" y2="561.3"/>
		<line class="st0" x1="390.4" y1="430.3" x2="384.1" y2="572.4"/>
		<line class="st0" x1="328.7" y1="581.9" x2="328.2" y2="648.9"/>
		<line class="st0" x1="353.9" y1="581.9" x2="356.9" y2="648.9"/>
		<line class="st0" x1="328.7" y1="593.9" x2="354.5" y2="593.9"/>
		<line class="st0" x1="328.2" y1="615.4" x2="355.4" y2="615.4"/>
		<line class="st0" x1="328.7" y1="629.8" x2="356.1" y2="629.8"/>
		<line class="st0" x1="452.7" y1="401.6" x2="505.3" y2="460.7"/>
		<line class="st0" x1="483" y1="420.8" x2="506.9" y2="420.8"/>
		<line class="st0" x1="500.5" y1="446.3" x2="529.3" y2="446.3"/>
		<line class="st0" x1="498.9" y1="427.2" x2="513.3" y2="439.9"/>
		<line class="st0" x1="521.3" y1="455.9" x2="538.8" y2="470.2"/>
		<line class="st0" x1="524.5" y1="467" x2="521.3" y2="514.9"/>
		<line class="st0" x1="401.6" y1="449.5" x2="500.5" y2="465.4"/>
		<line class="st0" x1="403.2" y1="439.9" x2="495.8" y2="457.5"/>
		<line class="st0" x1="403.2" y1="430.3" x2="483" y2="446.3"/>
		<line class="st0" x1="417.6" y1="422.4" x2="471.8" y2="436.7"/>
		<line class="st0" x1="428.7" y1="414.4" x2="463.8" y2="427.2"/>
		<line class="st0" x1="441.5" y1="409.6" x2="457.5" y2="414.4"/>
		<path class="st0" d="M431.9,478.2l14.4,33.5l36.7,1.6c0,0-8-23.9-9.6-27.1s-1.6-4.8-1.6-4.8L431.9,478.2z"/>
		<polyline class="st0" points="431.9,478.2 433.5,529.3 446.3,511.7 		"/>
		<path class="st0" d="M398.4,532.5c0,0,97.3,8,105.3,9.6"/>
		<path class="st0" d="M396.8,543.6c0,0,94.1,8,105.3,9.6"/>
		<line class="st0" x1="398.4" y1="556.4" x2="495.8" y2="562.8"/>
		<path class="st0" d="M395.2,566c1.6,0,79.8,8,86.2,9.6"/>
		<path class="st0" d="M393.6,577.1c0,0,75,8,79.8,9.6"/>
		<path class="st0" d="M476.6,610.6c0,0-20.7,35.1-20.7,38.3s4.8-3.2,4.8-3.2"/>
		<path class="st0" d="M551.6,548.4c0,0,35.1,65.4,41.5,102.1"/>
		<path class="st0" d="M479.1,600.5c0.3,0.5,0.5,0.9,0.8,1.4"/>
		<path class="st0" d="M482.4,594.2c-1-1.3,1.1,1.6,1.4,1.9"/>
		<path class="st0" d="M530.5,543.3c1.5,0.7,2.9,1.8,4,3.1"/>
		<path class="st0" d="M535.5,537.9c0.5,2.1,0.9,4.2,1.2,6.3"/>
		<path class="st0" d="M542.4,539.1c0,1.4,0,2.9,0,4.3"/>
		<path class="st0" d="M491,581.9c0,0,12.8-20.7,28.7-31.9"/>
		<path class="st0" d="M715.1,655.6c1.1,3.5,1.6,7.2,1.4,10.9"/>
		<path class="st0" d="M720.5,642.5c-0.4,0.4-0.3,1-0.2,1.5c1.1,4.8,1.6,9.8,1.3,14.8"/>
		<path class="st0" d="M732.5,651.5c-0.5,3.1-1.3,6.1-2.5,9c0-0.3,0-0.6,0-0.9"/>
		<path class="st0" d="M746.6,661.5c-1.8,1.8-3.1,4.1-3.8,6.6"/>
		<path class="st0" d="M750.4,651c0-0.3-0.4-0.4-0.6-0.3c3.5,6.2,5.4,13.3,5.4,20.4"/>
		<path class="st0" d="M766.7,658c-0.1-0.3-0.4-0.4-0.7-0.3c2,4.1,3.6,8.4,4.6,12.8"/>
		<path class="st0" d="M592.7,631.8c18.4-0.1,36.5,4.5,54.8,5.9c6.3,0.5,12.7,0.6,19,0.6c12.2,0,24.5-0.6,36.6-1.8
			c-0.4,0.1-0.9,0.2-1.3,0.3"/>
		<path class="st0" d="M596.7,645c5.4,0.1,10.9,0.1,16.3,0.2c17.3,0.2,34.8,0.5,51.7,4.1c6.2,1.3,12.4,3.2,18.7,3.8
			c4.2,0.4,8.5,0.3,12.7,0.2c3-0.1,6-0.1,9-0.2c0.5,0,1.2,0.1,1.3,0.6s-1,0.4-0.7,0.1"/>
		<polyline class="st0" points="604.3,652.1 605.8,621.8 612.2,621.8 612.2,655.3 		"/>
		<polyline class="st0" points="645.7,653.7 645.7,631.4 652.1,631.4 652.1,655.3 645.7,655.3 		"/>
		<polyline class="st0" points="664.9,653.7 664.9,631.4 671.3,631.4 671.3,655.3 664.9,655.3 		"/>
		<polyline class="st0" points="695.2,655.1 695.2,629 702.4,629 702.4,656.9 695.2,656.9 		"/>
		<path class="st0" d="M781.4,671c20.8,2.7,41.9,2.4,63,2.1c64.7-0.6,129.4,0.5,194,3.5"/>
		<path class="st0" d="M1057.9,676.6c5.2-0.6,10.6-0.5,15.8,0.3"/>
		<path class="st0" d="M1094.1,676.1c0,0,97.3,8,106.9,6.4c9.6-1.6,100.5-8,122.9-8s132.4,0,138.8,0s67,1.6,81.4,0
			c14.4-1.6,119.7-4.8,140.4-3.2"/>
		<path class="st0" d="M1743.5,671.3c0,0,47.9-6.4,57.4-6.4c9.6,0,79.8,0,87.8,0c8,0,25.5,6.4,38.3,6.4s59,0,59,0"/>
		<path class="st0" d="M522.6,495.8c0,0,43.4-4.8,56.2-8c12.8-3.2,63.8-20.7,108.5-9.6c44.7,11.2,135.6,43.1,148.4,43.1
			c12.8,0,27.1,8,54.2,8s95.7-1.6,105.3,0c9.6,1.6,70.2,16,84.6,19.1s73.4,14.4,94.1,17.6c20.7,3.2,61.4,8,75,8
			c14.4,0,47.9-4.8,65.4-8c17.6-3.2,43.1-6.4,43.1-6.4s4.8,1.6,17.6,0c12.8-1.6,23.9-6.4,23.9-6.4"/>
		<path class="st0" d="M1391.4,653.5c1.1-15.7,9.4-22.3,12.2-23.7"/>
		<path class="st0" d="M1418.8,657.1c-0.2-5.2-0.4-10.4-1.7-15.4c-1.3-5-7.7-8.7-11.9-11.9c6.4,0,11.1,3.4,14.4,5.6
			c1.2,0.8,2.3,1.6,3.2,2.8c0.7,0.9,1.2,1.9,1.6,3c1.8,4.3,2.7,8.9,2.9,13.5"/>
		<path class="st0" d="M1372.6,661.2c18.7,0.1,37.5,0.3,56.2,0.4"/>
		<path class="st0" d="M1404.3,629.3c-1,10.1-1.3,20.4-1.1,30.5c0-0.5,0-1,0-1.6"/>
		<path class="st0" d="M1387.7,650.1c11.3,0.7,22.5,1.5,33.8,2.2"/>
		<path class="st0" d="M1391,638.3c8.6,1.1,17.2,1.5,25.9,1.2"/>
		<path class="st0" d="M1376.4,661.5c-0.8-3.7-0.1-7.5,1.2-11.1c6.9-19.1,18-19.5,22.3-20"/>
		<path class="st0" d="M1384.4,659.9c-1.6-23.8,15.3-30.4,19.1-29.6"/>
		<line class="st0" x1="1437.1" y1="578.7" x2="1437.1" y2="650.5"/>
		<line class="st0" x1="1451.5" y1="578.7" x2="1451.5" y2="656.9"/>
		<line class="st0" x1="1469" y1="578.7" x2="1461.1" y2="653.7"/>
		<line class="st0" x1="1481.8" y1="578.7" x2="1480.2" y2="652.1"/>
		<line class="st0" x1="1424.4" y1="591.5" x2="1555.2" y2="593.1"/>
		<line class="st0" x1="1529.7" y1="580.3" x2="1529.7" y2="653.7"/>
		<line class="st0" x1="1540.8" y1="580.3" x2="1540.8" y2="652.1"/>
		<line class="st0" x1="1408.4" y1="577.1" x2="1563.2" y2="580.3"/>
		<line class="st0" x1="1408.4" y1="514.9" x2="1406.8" y2="570.8"/>
		<rect x="1465.9" y="527.7" class="st0" width="19.1" height="20.7"/>
		<path class="st0" d="M1378.1,510.1c0,0,39.3-32.6,43.1-35.1c4.8-3.2,8-6.4,8-6.4"/>
		<line class="st0" x1="1400.4" y1="506.9" x2="1438.7" y2="475"/>
		<line class="st0" x1="1418" y1="503.7" x2="1448.3" y2="475"/>
		<line class="st0" x1="1429.2" y1="502.1" x2="1464.3" y2="470.2"/>
		<line class="st0" x1="1445.1" y1="500.6" x2="1473.8" y2="475"/>
		<line class="st0" x1="1456.3" y1="500.6" x2="1489.8" y2="467"/>
		<line class="st0" x1="1469" y1="499" x2="1502.5" y2="467"/>
		<line class="st0" x1="1478.6" y1="500.6" x2="1513.7" y2="467"/>
		<path class="st0" d="M1488.2,502.1c0-1.6,33.5-31.9,33.5-31.9"/>
		<line class="st0" x1="1499.4" y1="503.7" x2="1534.5" y2="470.2"/>
		<line class="st0" x1="1505.7" y1="513.3" x2="1548.8" y2="476.6"/>
		<line class="st0" x1="1567.6" y1="491.2" x2="1564.5" y2="574.2"/>
		<line class="st0" x1="1566.4" y1="556.4" x2="1639.8" y2="559.6"/>
		<path class="st0" d="M1424,458.1c4.3,0.2,8.6,0.4,12.8,0.6"/>
		<path class="st0" d="M1432.5,436.1c5.5,0.3,11,0.3,16.5,0.2"/>
		<path class="st0" d="M1441.7,414.6c6.9-0.3,13.8,0,20.7,0.8c-0.2,0-0.4,0.1-0.5,0.1"/>
		<path class="st0" d="M1447.5,379.5c6.7,0.4,13.5,0.9,20.2,1.3"/>
		<path class="st0" d="M1451.5,361.7c0,0,57.4,71.8,62.2,75c4.8,3.2,20.7,22.3,25.5,27.1c4.8,4.8,8,8,8,8"/>
		<path class="st0" d="M1467.3,360.5c-4.5,5.5-6.2,12.7-8,19.6c-5.2,20.2-11.8,40.1-18.9,59.8c-2.2,6.1-4.5,12.3-7.5,18.1
			c-0.2,0.4-0.4,0.8-0.6,1.2"/>
		<path class="st0" d="M1462.7,372.9c0,0,162.7,23.9,172.3,25.5c9.6,1.6,33.5,4.8,33.5,4.8"/>
		<path class="st0" d="M1655.7,384.1c0,0,30.3,44.7,38.3,54.2c8,9.6,17.6,19.1,17.6,19.1"/>
		<line class="st0" x1="1670.1" y1="387.3" x2="1666.3" y2="399.6"/>
		<polyline class="st0" points="435.1,529.3 468.6,530.9 468.6,512.7 		"/>
		<line class="st0" x1="475.8" y1="513" x2="468.6" y2="525.6"/>
		<line class="st0" x1="1568" y1="583.5" x2="1566.4" y2="652.1"/>
		<path class="st0" d="M1555.2,470.2c0,0,78.2,39.9,81.4,39.9c3.2,0,6.4,0,6.4,0"/>
		<line class="st0" x1="1577.5" y1="471.8" x2="1639.8" y2="503.7"/>
		<line class="st0" x1="1593.5" y1="468.6" x2="1663.7" y2="503.7"/>
		<line class="st0" x1="1612.6" y1="468.6" x2="1678.1" y2="505.3"/>
		<line class="st0" x1="1633.4" y1="468.6" x2="1697.2" y2="505.3"/>
		<path class="st0" d="M1657.3,468.6c0,0,59,35.1,60.6,36.7"/>
		<path class="st0" d="M1678.1,468.6c0,0,55.8,36.7,62.2,36.7s4.8,0,4.8,0"/>
		<line class="st0" x1="1706.8" y1="467" x2="1778.6" y2="514.9"/>
		<line class="st0" x1="1721.1" y1="463.9" x2="1799.3" y2="516.5"/>
		<line class="st0" x1="1639.8" y1="510.1" x2="1639.8" y2="573.9"/>
		<line class="st0" x1="1577.5" y1="558" x2="1577.5" y2="575.5"/>
		<line class="st0" x1="1593.5" y1="558" x2="1593.5" y2="575.5"/>
		<line class="st0" x1="1609.4" y1="558" x2="1609.4" y2="575.5"/>
		<line class="st0" x1="1622.2" y1="559.6" x2="1622.2" y2="577.1"/>
		<polyline class="st0" points="1575.9,580.3 1635,581.9 1631.8,655.3 		"/>
		<line class="st0" x1="1612.6" y1="652.1" x2="1620.6" y2="581.9"/>
		<line class="st0" x1="1641.4" y1="581.9" x2="1781.8" y2="588.3"/>
		<line class="st0" x1="1659.1" y1="582.7" x2="1659.1" y2="655.3"/>
		<line class="st0" x1="1750" y1="587.5" x2="1748.3" y2="653.7"/>
		<line class="st0" x1="1663.7" y1="583.5" x2="1698.8" y2="655.3"/>
		<line class="st0" x1="1692.4" y1="585.1" x2="1727.5" y2="655.3"/>
		<line class="st0" x1="1719.4" y1="585.5" x2="1719.4" y2="637.8"/>
		<line class="st0" x1="1671.7" y1="597.9" x2="1698.8" y2="597.9"/>
		<line class="st0" x1="1679.7" y1="615.4" x2="1706.8" y2="615.4"/>
		<line class="st0" x1="1687.6" y1="631.4" x2="1714.8" y2="631.4"/>
		<line class="st0" x1="1695.6" y1="647.3" x2="1722.7" y2="647.3"/>
		<line class="st0" x1="1799.3" y1="521.3" x2="1799.3" y2="652.1"/>
		<path class="st0" d="M1742.7,478.4c0,0,43.9-19.3,64.6-17.7s67,33.5,105.3,43.1"/>
		<path class="st0" d="M1927,556.4c0,0-23.9-62.2-9.6-59c6.4,1.4,0,20.7,14.4,54.2"/>
		<path class="st0" d="M1922.2,506.9c0,0,47.9,12.8,60.6,16"/>
		<path class="st0" d="M1917.4,567.6c0,0,16-20.7,23.9-19.1c8,1.6,19.1,25.5,19.1,25.5"/>
		<line class="st0" x1="1808.9" y1="562.8" x2="1820.1" y2="564.4"/>
		<line class="st0" x1="1807.3" y1="569.2" x2="1818.5" y2="570.8"/>
		<path class="st0" d="M1818.5,553.2c0,0,14.4-19.1,20.7-22.3"/>
		<line class="st0" x1="1840.8" y1="519.7" x2="1847.2" y2="526.1"/>
		<line class="st0" x1="1848.8" y1="514.9" x2="1855.2" y2="522.9"/>
		<line class="st0" x1="1860" y1="514.9" x2="1863.1" y2="524.5"/>
		<path class="st0" d="M1877.5,532.5c0,0,25.5,70.2,25.5,114.9"/>
		<line class="st0" x1="1904.6" y1="572.4" x2="1909.4" y2="577.1"/>
		<line class="st0" x1="1899.8" y1="578.7" x2="1906.2" y2="583.5"/>
		<line class="st0" x1="1963.7" y1="591.5" x2="1971.6" y2="586.7"/>
		<line class="st0" x1="1963.7" y1="597.9" x2="1974.8" y2="594.7"/>
		<line class="st0" x1="1968.4" y1="605.9" x2="1978" y2="604.3"/>
		<path class="st0" d="M1976.4,612.2c0,0,4.8,19.1,8,38.3"/>
	</g>
</g>
</svg>
