<?xml version="1.0" encoding="utf-8"?>
<!-- Generator: Adobe Illustrator 23.0.1, SVG Export Plug-In . SVG Version: 6.00 Build 0)  -->
<svg version="1.1" id="Layer_1" xmlns="http://www.w3.org/2000/svg" xmlns:xlink="http://www.w3.org/1999/xlink" x="0px" y="0px"
	 viewBox="0 0 135 133" style="enable-background:new 0 0 135 133;" xml:space="preserve">
<style type="text/css">
	.st0{fill:#E5E1D8;}
	.st1{fill:none;stroke:#E5E1D8;stroke-miterlimit:10;}
	.st2{fill:none;stroke:#555F74;stroke-linecap:round;stroke-linejoin:round;stroke-miterlimit:10;}
	.st3{fill:#535F70;stroke:#E5E1D8;stroke-miterlimit:10;}
	.st4{fill:none;stroke:#535F70;stroke-miterlimit:10;}
</style>
<g>
	<g>
		<path class="st0" d="M99,100.7c0,0-5.2,12.1-17.3,13.4c0,0-14.4-12.5-26.2-11.1S24,75.1,25.4,72c0,0-3.4-15.2,13.5-8.2
			c0,0,3.5-16.5,14.8-10.2c0,0-0.8-20.2,17.3-11.8c0,0,0.9-30.5,25.9-5.2c0,0,5.2,8.9,2,32.5C95.8,92.7,94.4,95.7,99,100.7z"/>
		<path class="st2" d="M87.8,29c-6.6,4.4-10.1,21.9-10.1,21.9c-12.1-5.4-15.1,10-15.1,10c-16.3-2.9-14.8,9.5-14.8,9.5l-8.9-6.5"/>
		<path class="st2" d="M92.1,60.3c0,0,2.4,27-4.3,32.8"/>
		<path class="st2" d="M55.8,80.9c0,0,8.1,16.9,23,18.3"/>
		<line class="st2" x1="84.6" y1="84.5" x2="81.7" y2="93.1"/>
		<path class="st2" d="M71.1,41.8c0,0,5.5,3.8,6.6,9.1"/>
		<line class="st2" x1="63.4" y1="46.3" x2="67.3" y2="51.9"/>
		<path class="st2" d="M92.5,103.5c0,0,1.4,3.2-7.9,4.5"/>
	</g>
</g>
</svg>
