<?xml version="1.0" encoding="utf-8"?>
<!-- Generator: Adobe Illustrator 23.0.1, SVG Export Plug-In . SVG Version: 6.00 Build 0)  -->
<svg version="1.1" id="Layer_1" xmlns="http://www.w3.org/2000/svg" xmlns:xlink="http://www.w3.org/1999/xlink" x="0px" y="0px"
	 viewBox="0 0 258 398" style="enable-background:new 0 0 258 398;" xml:space="preserve">
<style type="text/css">
	.st0{fill:#E5E1D8;}
	.st1{fill:none;stroke:#E5E1D8;stroke-miterlimit:10;}
	.st2{fill:none;stroke:#555F74;stroke-linecap:round;stroke-linejoin:round;stroke-miterlimit:10;}
	.st3{fill:#535F70;stroke:#E5E1D8;stroke-miterlimit:10;}
	.st4{fill:none;stroke:#535F70;stroke-miterlimit:10;}
</style>
<g>
	<g>
		<path class="st3" d="M198.1,107.6c0-0.1,0-0.1,0.1-0.2c0-0.1,0-0.1,0.1-0.2c0,0,1.8-53.4,13.6-62.4s21.7-30.8,21.7-30.8
			s-2.7,50.7-10.9,63.3c-8.1,12.7-24.4,29.9-24.4,29.9"/>
		<path class="st1" d="M20.9,359.6c0,0,95.5-59.1,165.6-223.2c3.9-9.1,8.3-20.1,12-29.9"/>
		<path class="st3" d="M189.5,129.3c0,0,47.6,15.7,58.5-43.4c0,0-23.5,3.6-29.2,15.7S189.5,129.3,189.5,129.3z"/>
		<path class="st3" d="M172.1,167.9c0,0,56.5,8.5,66.2-36.8c0,0-31.4,22.8-38,24.6C193.7,157.6,172.1,167.9,172.1,167.9z"/>
		<path class="st3" d="M173.7,164.8c0,0-26-20.3-30.6-33.6c-4.4-12.6-3.8-19.4,15.3-38.1c0,0-8.1,26.5,4.6,53.1L173.7,164.8z"/>
		<path class="st3" d="M153.6,203.5c0,0-12-18.8-26.3-29.6s-22.2-33-10.7-42.7c0,0,12.2,19.8,15.8,27.7
			C135.8,166.6,156.8,176.4,153.6,203.5z"/>
		<path class="st3" d="M157.7,201c0,0,20.5-20.5,47.6-14.2l20.4,6.5c0,0-17.5,21.6-36.2,15.5L157.7,201z"/>
		<path class="st3" d="M139.3,227.6l-12.1-32c0,0-3.5-16.3-19.1-16.9s-5.4,19.1-5.4,19.1s6.4,9.7,20.5,17.1L139.3,227.6z"/>
		<path class="st3" d="M136.5,232.1c0,0,10.1-2.1,17.4,3.3c7.2,5.4,39.8,9,47-12.7c0,0-10.3-9.5-32.2,0S136.5,232.1,136.5,232.1z"/>
		<path class="st3" d="M119.3,257.7c0,0-2.2-54-30.6-47.8c-6.6,8.6,10.6,23.6,10.6,23.6S114.9,251.7,119.3,257.7z"/>
		<path class="st3" d="M124.8,249.8c0,0,42.6-9.1,48.8,0c6.2,9.1-7.7,13.3-7.7,13.3s-10.6,4.2-24.3-2.4
			C128,254.1,131.1,249.8,124.8,249.8z"/>
		<path class="st3" d="M94.3,290.3c0,0-10.1-17.9-15.8-25.8c-4.3-5.9-17.5-30.3-12.7-39.3C65.8,225.1,102.3,253.5,94.3,290.3z"/>
		<path class="st3" d="M99.3,284.1c0,0,34.7-6.1,44.9,0c13.4,3.7,13.4,6.1,13.4,6.1s-13.8,11.5-38.3,8.4
			C103.3,293.9,99.3,284.1,99.3,284.1z"/>
		<path class="st3" d="M71.5,315.8c0,0,4-22.7-3.9-34.4c-7.8-11.7-14.5-26.3-14.5-26.3s-7.2,29.5,4.2,44.1S71.5,315.8,71.5,315.8z"
			/>
		<path class="st3" d="M75,312.1c0,0,30.8-5.1,44.3,3.7l9.2,5.8C128.5,321.6,115.6,339.4,75,312.1z"/>
		<path class="st3" d="M50.9,335.8c0,0,0.4-22.1-6.8-32.3s-24.7-32.9-23.2-39.1C20.9,264.5,1,307.2,50.9,335.8z"/>
		<path class="st3" d="M53.8,335.8c0,0,18.8-3.4,41.7,7.5L111,350C111,350,63.4,368.2,53.8,335.8z"/>
		<path class="st3" d="M186.5,136.4c0,0-25.5-30.5-14.4-53.1l14.4-26.7l3,43.9C189.5,100.5,193.3,114,186.5,136.4z"/>
	</g>
</g>
</svg>
