<?xml version="1.0" encoding="utf-8"?>
<!-- Generator: Adobe Illustrator 23.0.1, SVG Export Plug-In . SVG Version: 6.00 Build 0)  -->
<svg version="1.1" id="Layer_1" xmlns="http://www.w3.org/2000/svg" xmlns:xlink="http://www.w3.org/1999/xlink" x="0px" y="0px"
	 viewBox="0 0 656 484" style="enable-background:new 0 0 656 484;" xml:space="preserve">
<style type="text/css">
	.st0{fill:none;stroke:#E5E1D8;stroke-miterlimit:10;}
	.st1{fill:none;stroke:#AF914F;stroke-width:2;stroke-miterlimit:10;}
</style>
<g>
	<path class="st0" d="M2119,154.9c0,0-21.3-43.2-78,5.4C2041.1,160.3,2092.9,185.3,2119,154.9z"/>
	<path class="st0" d="M2159.7,102c0,0,7.9-49.3-63.6-44.6C2096.2,57.5,2122.3,110.8,2159.7,102z"/>
	<path class="st0" d="M2218.9,216c0,0-10.2-66.5-58.6-115.7"/>
	<path class="st0" d="M2197.8,208.3c0,0-40-43.2-79.3-52"/>
</g>
<g>
	<path class="st1" d="M1028.6,568.2c0,0-47.7-80.7-36.5-152.2"/>
	<path class="st1" d="M991,453.3c0,0-46.7-21.4-59.2-81.3"/>
	<path class="st1" d="M1005.2,516.1c0,0-35.5-18.1-48.5-16.8"/>
	<path class="st1" d="M1029.7,532.1c0,0,5.6-205.8,208.9-457.8"/>
	<path class="st1" d="M1068.3,367.6c0,0,59.9-12.5,78.5-38.5"/>
	<path class="st1" d="M1044.9,268.2c0,0-3.8,47.6,18.6,112.7"/>
	<path class="st1" d="M956.7,499.4c0,0-19.8,55.4-99,16.2C857.7,515.5,918.9,472.2,956.7,499.4z"/>
	<path class="st1" d="M931.4,372.2c0,0-59.7-4.5-30.9-88.9C900.5,283.2,953.7,329.7,931.4,372.2z"/>
	<path class="st1" d="M991.4,416.3c0,0-45.8-35,25.4-93.5C1016.8,322.8,1033.6,391,991.4,416.3z"/>
	<g>
		<g>
			<path class="st1" d="M1188.5,338.7c-20.6,2.5-45.2-9.2-45.2-9.2l35.7-10.2"/>
			<polyline class="st1" points="1174.6,310.4 1143.3,329.5 1136.5,296.9 			"/>
			<line class="st1" x1="1143.3" y1="329.5" x2="1158.7" y2="297.5"/>
		</g>
		
			<ellipse transform="matrix(0.8978 -0.4404 0.4404 0.8978 -26.6742 559.2578)" class="st1" cx="1191.8" cy="337.1" rx="5.5" ry="5.1"/>
		
			<ellipse transform="matrix(0.8978 -0.4404 0.4404 0.8978 -14.6322 530.8214)" class="st1" cx="1136.5" cy="296.9" rx="5.5" ry="5.1"/>
		
			<ellipse transform="matrix(0.8978 -0.4404 0.4404 0.8978 -19.5488 552.5083)" class="st1" cx="1180.8" cy="318.4" rx="3.9" ry="3.6"/>
		
			<ellipse transform="matrix(0.8978 -0.4404 0.4404 0.8978 -16.0821 549.6818)" class="st1" cx="1176.4" cy="309.5" rx="3.9" ry="3.6"/>
		
			<ellipse transform="matrix(0.8978 -0.4404 0.4404 0.8978 -12.6004 540.6503)" class="st1" cx="1158.7" cy="297.5" rx="3.9" ry="3.6"/>
	</g>
	<g>
		<g>
			<path class="st1" d="M1085.3,239.1c-12.1,16.6-38.3,27.7-38.3,27.7l16.2-32.4"/>
			<polyline class="st1" points="1053,232.4 1047,266.9 1016.2,252.4 			"/>
			<line class="st1" x1="1047" y1="266.9" x2="1031.8" y2="236.4"/>
		</g>
		
			<ellipse transform="matrix(0.8978 -0.4404 0.4404 0.8978 7.1725 502.4266)" class="st1" cx="1086.2" cy="235.8" rx="5.5" ry="5.1"/>
		
			<ellipse transform="matrix(0.8978 -0.4404 0.4404 0.8978 -7.3085 473.2858)" class="st1" cx="1016.2" cy="252.4" rx="5.5" ry="5.1"/>
		
			<ellipse transform="matrix(0.8978 -0.4404 0.4404 0.8978 6.2451 492.1808)" class="st1" cx="1063.7" cy="232.6" rx="3.9" ry="3.6"/>
		
			<ellipse transform="matrix(0.8978 -0.4404 0.4404 0.8978 6.1407 487.5136)" class="st1" cx="1053.6" cy="230.5" rx="3.9" ry="3.6"/>
		
			<ellipse transform="matrix(0.8978 -0.4404 0.4404 0.8978 1.3398 478.5259)" class="st1" cx="1031.8" cy="236.4" rx="3.9" ry="3.6"/>
	</g>
	<g>
		<g>
			<path class="st1" d="M1169.8,243.1c-19.8,6.6-46.7,0.4-46.7,0.4l33-17.2"/>
			<polyline class="st1" points="1149.7,218.6 1123.1,243.5 1109.1,213.4 			"/>
			<line class="st1" x1="1123.1" y1="243.5" x2="1131.1" y2="209.4"/>
		</g>
		
			<ellipse transform="matrix(0.8978 -0.4404 0.4404 0.8978 13.7744 541.022)" class="st1" cx="1172.7" cy="240.8" rx="5.5" ry="5.1"/>
		
			<ellipse transform="matrix(0.8978 -0.4404 0.4404 0.8978 19.3369 510.2008)" class="st1" cx="1109.1" cy="213.4" rx="5.5" ry="5.1"/>
		
			<ellipse transform="matrix(0.8978 -0.4404 0.4404 0.8978 19.1994 532.7768)" class="st1" cx="1157.6" cy="225" rx="3.9" ry="3.6"/>
		
			<ellipse transform="matrix(0.8978 -0.4404 0.4404 0.8978 21.9357 529.2189)" class="st1" cx="1151.3" cy="217.3" rx="3.9" ry="3.6"/>
		
			<ellipse transform="matrix(0.8978 -0.4404 0.4404 0.8978 23.3726 519.5047)" class="st1" cx="1131.1" cy="209.4" rx="3.9" ry="3.6"/>
	</g>
	<g>
		<g>
			<path class="st1" d="M1213.7,168.3c-19.8,6.6-46.7,0.4-46.7,0.4l33-17.2"/>
			<polyline class="st1" points="1193.6,143.9 1166.9,168.7 1153,138.7 			"/>
			<line class="st1" x1="1166.9" y1="168.7" x2="1175" y2="134.7"/>
		</g>
		
			<ellipse transform="matrix(0.8978 -0.4404 0.4404 0.8978 51.1661 552.7165)" class="st1" cx="1216.6" cy="166.1" rx="5.5" ry="5.1"/>
		
			<ellipse transform="matrix(0.8978 -0.4404 0.4404 0.8978 56.7286 521.8953)" class="st1" cx="1153" cy="138.7" rx="5.5" ry="5.1"/>
		
			<ellipse transform="matrix(0.8978 -0.4404 0.4404 0.8978 56.5912 544.4713)" class="st1" cx="1201.5" cy="150.3" rx="3.9" ry="3.6"/>
		
			<ellipse transform="matrix(0.8978 -0.4404 0.4404 0.8978 59.3275 540.9134)" class="st1" cx="1195.2" cy="142.6" rx="3.9" ry="3.6"/>
		
			<ellipse transform="matrix(0.8978 -0.4404 0.4404 0.8978 60.7643 531.1992)" class="st1" cx="1175" cy="134.7" rx="3.9" ry="3.6"/>
	</g>
	<g>
		<g>
			<path class="st1" d="M1283.7,74.5c-19.8,6.6-46.7,0.4-46.7,0.4l33-17.2"/>
			<polyline class="st1" points="1263.6,50 1236.9,74.9 1222.9,44.9 			"/>
			<line class="st1" x1="1236.9" y1="74.9" x2="1245" y2="40.8"/>
		</g>
		
			<ellipse transform="matrix(0.8978 -0.4404 0.4404 0.8978 99.6372 573.942)" class="st1" cx="1286.6" cy="72.3" rx="5.5" ry="5.1"/>
		
			<ellipse transform="matrix(0.8978 -0.4404 0.4404 0.8978 105.1997 543.1209)" class="st1" cx="1222.9" cy="44.9" rx="5.5" ry="5.1"/>
		
			<ellipse transform="matrix(0.8978 -0.4404 0.4404 0.8978 105.0622 565.6968)" class="st1" cx="1271.5" cy="56.5" rx="3.9" ry="3.6"/>
		
			<ellipse transform="matrix(0.8978 -0.4404 0.4404 0.8978 107.7985 562.1389)" class="st1" cx="1265.2" cy="48.8" rx="3.9" ry="3.6"/>
		
			<ellipse transform="matrix(0.8978 -0.4404 0.4404 0.8978 109.2354 552.4247)" class="st1" cx="1245" cy="40.8" rx="3.9" ry="3.6"/>
	</g>
</g>
<g>
	<path class="st1" d="M1866.5,651.3c0,0-201.7-97.3-279.3-335.1"/>
	<path class="st1" d="M1793.8,604.3c0,0-21.6,0.8-30.6-6.9c-9-7.7-16.2-3.8-16.2-3.8"/>
	<path class="st1" d="M1755.7,572.6c0,0-0.7-63.6-4.9-81.9"/>
	<path class="st1" d="M1732.5,487.7c0,0,5.8,42,22.4,53.2"/>
	<path class="st1" d="M1674.9,518.9c0,0,24.3,14.3,32,24.1c7.7,9.8,24,6.2,24,6.2"/>
	<path class="st1" d="M1686.3,499.2c0,0-5.9-37-3.7-49.9c2.2-12.9,3-24.4,3-24.4"/>
	<path class="st1" d="M1682.2,459.7c0,0,8.1-5,11.1-18.2c3-13.2,2.1-25,8.9-26.9"/>
	<path class="st1" d="M1659.7,463.2c0,0-16.5-4.7-25.3-15.4c-8.8-10.7-16.4-15.4-16.4-15.4"/>
	<path class="st1" d="M1612.5,380.3c0,0-16.3-11.4-22-17.9"/>
	<path class="st1" d="M1641.6,435c0,0-3.9-69.3,2.1-84.5"/>
	<path class="st1" d="M1640.3,388.8c0,0,11.6-9.2,17-20.2"/>
	<path class="st1" d="M1673.8,518.6c0,0-27.6-12.1-17.5-22.7C1660.8,491.1,1676.3,505.1,1673.8,518.6z"/>
	<path class="st1" d="M1747.9,595.5c0,0-29.6-1.2-24.8-15C1725.3,574.3,1744.8,581.8,1747.9,595.5z"/>
	<path class="st1" d="M1749.7,490.1c0,0-7.4-28.1,7.9-25.9C1764.4,465.1,1762.5,484.8,1749.7,490.1z"/>
	<path class="st1" d="M1590.6,363.7c0,0-28.7-8.6-20.3-20.5C1574.2,337.9,1591.3,349.9,1590.6,363.7z"/>
	<path class="st1" d="M1615.1,432.3c0,0-28.7-8.6-20.3-20.5C1598.7,406.4,1615.8,418.5,1615.1,432.3z"/>
	<path class="st1" d="M1588.8,318.5c0,0-28.7-8.6-20.3-20.5C1572.4,292.7,1589.5,304.7,1588.8,318.5z"/>
	<path class="st1" d="M1645,347.8c0,0-20.9-21.5-7-27.1C1644.3,318.2,1653,336.7,1645,347.8z"/>
	<path class="st1" d="M1656.7,370.5c0,0-0.9-28.6,13.7-23.3C1677,349.6,1670.7,368.1,1656.7,370.5z"/>
	<path class="st1" d="M1699.7,415.6c0,0-0.6-19.5,9.3-15.8C1713.5,401.4,1709.2,414,1699.7,415.6z"/>
	<path class="st1" d="M1684.8,425.1c0,0-11.6-16.6-1.5-18.7C1687.8,405.4,1691.5,418.7,1684.8,425.1z"/>
	<path class="st1" d="M1731.4,488.2c0,0-11.6-16.6-1.5-18.7C1734.4,468.6,1738.1,481.8,1731.4,488.2z"/>
</g>
<g>
	<path class="st1" d="M1026.4,648.5c0,0,204.8-111.8,256-337.2"/>
	<line class="st1" x1="1093.1" y1="601.9" x2="1101.4" y2="569.9"/>
	<path class="st1" d="M1101.4,595c0,0,38.8,9,66.2-16.6"/>
	<path class="st1" d="M1129.7,596.6c0,0,19.4,8,34.4,5.3"/>
	<path class="st1" d="M1134.5,565.1c0,0,28.7,5.8,50.8-20.8"/>
	<path class="st1" d="M1170.2,557.5c0,0,15.1,2.8,24.8,0"/>
	<line class="st1" x1="1146.9" y1="552.8" x2="1154.4" y2="533"/>
	<path class="st1" d="M1180,515.8c0,0,14.2-40.6,5.3-53.8"/>
	<path class="st1" d="M1187.4,485.3c0,0-10.1-5.3-10.5-11c-0.4-5.7-4-12.3-4-12.3"/>
	<path class="st1" d="M1172.9,524.2c0,0,28.7-5,46.8-30.5"/>
	<path class="st1" d="M1222.4,456.5c0,0,25.1,4,52-18.7"/>
	<path class="st1" d="M1237.9,455.7c0,0,28.6-19.8,29.9-26"/>
	<path class="st1" d="M1225.3,451.8c0,0-7.7-35.9,5.9-61.9"/>
	<path class="st1" d="M1259.5,383.9c0,0,27.3-8.1,41.9-46"/>
	<path class="st1" d="M1270.4,354.4c0,0-12.6-15.6-10.9-21.7s-0.2-14.2-0.2-14.2"/>
	<path class="st1" d="M1280.4,370.3c0,0,18.7-8.8,24-6.4"/>
	<path class="st1" d="M1320.4,320.6c0,0-1.5,14-14.4,17.7C1293.1,341.9,1310.1,318.2,1320.4,320.6z"/>
	<path class="st1" d="M1291.4,286.7c0,0,4.6,13.3-5.4,22.7S1281.2,289.5,1291.4,286.7z"/>
	<path class="st1" d="M1327,354.8c0,0-5.1,13-18.4,12.6C1295.3,367,1317.8,349.4,1327,354.8z"/>
	<path class="st1" d="M1297,425.1c0,0-5.1,13-18.4,12.6C1265.2,437.4,1287.8,419.7,1297,425.1z"/>
	<path class="st1" d="M1206.3,531.3c0,0-5.1,13-18.4,12.6C1174.5,543.6,1197.1,525.9,1206.3,531.3z"/>
	<path class="st1" d="M1219.3,548.9c0,0-4.2,14.1-19.2,11.8S1208.3,541.5,1219.3,548.9z"/>
	<path class="st1" d="M1188.2,594.1c0,0-4.2,14.1-19.2,11.8C1154,603.6,1177.2,586.6,1188.2,594.1z"/>
	<path class="st1" d="M1192,569.3c0,0-4.2,14.1-19.2,11.8C1157.8,578.8,1181,561.8,1192,569.3z"/>
	<path class="st1" d="M1244.6,367.4c0,0,2.6,13.9-8.6,21.6S1234.1,368.5,1244.6,367.4z"/>
	<path class="st1" d="M1233,468.5c0,0,2.6,13.9-8.6,21.6C1213.2,497.8,1222.5,469.6,1233,468.5z"/>
	<path class="st1" d="M1197.8,440.4c0,0,2.6,13.9-8.6,21.6S1187.3,441.5,1197.8,440.4z"/>
	<path class="st1" d="M1164.2,440.8c0,0-8.6,8.3,1.6,18.7C1175.9,470,1176.1,446.4,1164.2,440.8z"/>
	<path class="st1" d="M1251.8,299c0,0-8.6,8.3,1.6,18.7S1263.8,304.6,1251.8,299z"/>
	<path class="st1" d="M1147.8,508.9c0,0-8.6,8.3,1.6,18.7C1159.6,538.1,1159.7,514.5,1147.8,508.9z"/>
	<path class="st1" d="M1094.4,548.6c0,0-8.6,8.3,1.6,18.7S1106.4,554.2,1094.4,548.6z"/>
	<path class="st1" d="M1288.9,416.8c0,0-3.5,13.6-16.7,15.1C1259,433.4,1279.1,412.7,1288.9,416.8z"/>
</g>
<g>
	<path class="st1" d="M1839.9,513.4c0,0-57.8-291-311.9-438.8"/>
	<line class="st1" x1="1808.7" y1="414.7" x2="1773.1" y2="392.5"/>
	<path class="st1" d="M1803.5,402c0,0,25.7-43.7,5-86.6"/>
	<path class="st1" d="M1816.1,368.3c0,0,17.1-20.5,19.6-39.7"/>
	<path class="st1" d="M1779.8,350.5c0,0,17.9-32.6-5.9-69.5"/>
	<path class="st1" d="M1784.2,304.3c0,0,9.1-17.3,9.4-30.1"/>
	<line class="st1" x1="1769.5" y1="330.8" x2="1748.4" y2="314.2"/>
	<path class="st1" d="M1737.2,276.6c0,0-43.9-32.6-63.3-26.9"/>
	<path class="st1" d="M1703,256c0,0-10.3,10.2-17.4,8.6s-16.5,0.1-16.5,0.1"/>
	<path class="st1" d="M1744.8,288.3c0,0,4.9-36.7-19.3-68.4"/>
	<path class="st1" d="M1681.4,202.5c0,0,14.5-28.9-2.9-70.2"/>
	<path class="st1" d="M1686.4,183.5c0,0-13.2-42.3-20.2-46.2"/>
	<path class="st1" d="M1676.9,197.3c0,0-46.5-4.2-72.9-30.7"/>
	<path class="st1" d="M1607.4,130c0,0,0.5-36.2-39.9-68.3"/>
	<path class="st1" d="M1575.8,105.5c0,0-23.7,9.4-30.5,5c-6.8-4.4-17.3-5.2-17.3-5.2"/>
	<path class="st1" d="M1598.9,99.4c0,0-3.5-26.1,1.4-31.6"/>
	<path class="st1" d="M1553.8,32c0,0,16.5,7.2,16,24.2S1546.9,43.6,1553.8,32z"/>
	<path class="st1" d="M1501.6,54.3c0,0,17.8-0.5,25.5,15.2S1501.2,67.7,1501.6,54.3z"/>
	<path class="st1" d="M1597.8,37c0,0,13.9,11.2,8.3,27.2S1587.7,46.1,1597.8,37z"/>
	<path class="st1" d="M1671.7,100.1c0,0,13.9,11.2,8.3,27.2S1661.7,109.3,1671.7,100.1z"/>
	<path class="st1" d="M1766.1,250.6c0,0,13.9,11.2,8.3,27.2S1756,259.7,1766.1,250.6z"/>
	<path class="st1" d="M1792.4,241.5c0,0,15.5,10.4,7,27.8S1779.2,252.1,1792.4,241.5z"/>
	<path class="st1" d="M1835.4,296.4c0,0,15.5,10.4,7,27.8S1822.1,306.9,1835.4,296.4z"/>
	<path class="st1" d="M1806.8,282.3c0,0,15.5,10.4,7,27.8C1805.2,327.4,1793.5,292.9,1806.8,282.3z"/>
	<path class="st1" d="M1581.8,141.8c0,0,17.8,2.1,22.9,18.6C1609.8,176.9,1579.1,154.9,1581.8,141.8z"/>
	<path class="st1" d="M1700,194.3c0,0,17.8,2.1,22.9,18.6S1697.3,207.4,1700,194.3z"/>
	<path class="st1" d="M1652.5,226.3c0,0,17.8,2.1,22.9,18.6C1680.6,261.5,1649.9,239.5,1652.5,226.3z"/>
	<path class="st1" d="M1640.3,267.2c0,0,6.8,13.6,23.3,5.2S1651.5,254.9,1640.3,267.2z"/>
	<path class="st1" d="M1501.5,107c0,0,6.8,13.6,23.3,5.2C1541.4,103.8,1512.8,94.6,1501.5,107z"/>
	<path class="st1" d="M1716.7,313c0,0,6.8,13.6,23.3,5.2C1756.6,309.9,1728,300.7,1716.7,313z"/>
	<path class="st1" d="M1744.5,392.9c0,0,6.8,13.6,23.3,5.2C1784.4,389.7,1755.8,380.5,1744.5,392.9z"/>
	<path class="st1" d="M1658.5,106.7c0,0,15.2,9.4,12,26S1649.9,117.1,1658.5,106.7z"/>
</g>
<g>
	<path class="st0" d="M57.2,358.1c0,0,172.5-126.1,517.7-143.4"/>
	<path class="st0" d="M75.9,346c0,0,70.9,4.3,119.4,30.1"/>
	<path class="st0" d="M148.8,308.6c0,0,57.2,7.3,96,36.2"/>
	<path class="st0" d="M189.4,291.8c0,0,63.3-48.7,76-75.8"/>
	<path class="st0" d="M306.7,254.3c0,0,59.1-76.9,65.9-103.9"/>
	<path class="st0" d="M355.7,184.1c0,0,50.4-25.3,64.4-21.7"/>
	<path class="st0" d="M412.8,231.9c0,0,66.1-61.1,121.7-69.4"/>
	<path class="st0" d="M402.1,233.8c0,0,95.1,11.9,117.7,46.3"/>
	<path class="st0" d="M455.8,245c0,0,37.6,33.4,35,55.8"/>
	<path class="st0" d="M269.7,264.5c0,0,49.9-4.1,107.8,37.4"/>
	<path class="st0" d="M321.8,273.1c0,0,21.5,45.4,64.8,62.7"/>
	<path class="st0" d="M265.4,216c0,0-3.2-22.6,15.7-34.8C300.1,168.9,282.6,214.4,265.4,216z"/>
	<path class="st0" d="M372.8,150.5c0,0-3.2-22.6,15.7-34.8S390,149,372.8,150.5z"/>
	<path class="st0" d="M420,160.8c0,0,0.8-23,21.4-31.4S437.1,162.7,420,160.8z"/>
	<path class="st0" d="M535.1,162.7c0,0,0.8-23,21.4-31.4S552.2,164.6,535.1,162.7z"/>
	<path class="st0" d="M579.6,212.8c0,0,15.5-16.5,35.4-7.6C634.8,214.2,590.3,226.8,579.6,212.8z"/>
	<path class="st0" d="M519.7,282.3c0,0,21.5-3.4,31.7,16.7S520,300.6,519.7,282.3z"/>
	<path class="st0" d="M491,303c0,0,21.5-3.4,31.7,16.7C532.9,339.9,491.2,321.3,491,303z"/>
	<path class="st0" d="M375.7,301.7c0,0,21.5-3.4,31.7,16.7S376,320.1,375.7,301.7z"/>
	<path class="st0" d="M387.2,333.5c0,0,21.5-3.4,31.7,16.7C429.2,370.4,387.5,351.8,387.2,333.5z"/>
	<path class="st0" d="M195.5,375.3c0,0,21.5-3.4,31.7,16.7C237.5,412.2,195.8,393.7,195.5,375.3z"/>
	<path class="st0" d="M243.8,348.7c0,0,21.5-3.4,31.7,16.7C285.8,385.6,244.1,367,243.8,348.7z"/>
</g>
</svg>
