<?xml version="1.0" encoding="utf-8"?>
<!-- Generator: Adobe Illustrator 16.0.0, SVG Export Plug-In . SVG Version: 6.00 Build 0)  -->
<!DOCTYPE svg PUBLIC "-//W3C//DTD SVG 1.1//EN" "http://www.w3.org/Graphics/SVG/1.1/DTD/svg11.dtd">
<svg version="1.1" id="Layer_1" xmlns="http://www.w3.org/2000/svg" xmlns:xlink="http://www.w3.org/1999/xlink" x="0px" y="0px"
	 width="500px" height="500px" viewBox="0 0 500 500" enable-background="new 0 0 500 500" xml:space="preserve">
<path fill="#3D4956" d="M250.358,16.854C116.925,16.854,9.56,125.546,16.188,260.75c5.743,117.08,99.853,213.404,216.939,221.797
	c132.108,9.279,242.565-90.578,250.958-218.264c0.442-7.955-7.069-14.143-14.579-11.934c-23.418,6.631-64.508,16.793-83.947,59.652
	c-32.253-2.213-102.506-19-107.364-19l-27.836,12.813l108.688,49.928c0,0-36.672,91.902-126.362,92.34
	c-74.229,0.443-189.104-62.297-189.104-186.895c6.184-109.574,72.459-124.596,96.761-123.271
	c19.44,0.883,60.973,16.347,38.439,78.645c-18.558,50.813-99.413,34.903-99.413,34.903s10.164,16.793,34.021,32.258
	c28.719,18.559,40.208,63.184,41.534,91.02c1.766,36.23,33.576,48.598,50.81,47.715c17.229-0.879,44.625-10.16,44.625-49.928
	c-7.953,13.701-25.187,31.369-44.185,26.068c-24.301-7.068-26.507-29.602-26.068-39.762c0.442-10.162-7.068-48.16-31.37-74.672
	c0,0,132.108,3.533,112.226-78.648c38.881,0,57.881-7.509,67.601-24.741c9.275-15.906,4.858-39.324,0.882-55.229
	c23.861-2.211,37.996-11.047,44.626-32.256C386,53.97,321.493,16.854,250.358,16.854z"/>
</svg>
